%TF.GenerationSoftware,KiCad,Pcbnew,7.0.11+dfsg-1build4*%
%TF.CreationDate,2026-09-25T11:13:45+00:00*%
%TF.ProjectId,capcore,63617063-6f72-4652-9e6b-696361645f70,rev?*%
%TF.SameCoordinates,Original*%
%TF.FileFunction,Legend,Bot*%
%TF.FilePolarity,Positive*%
%FSLAX46Y46*%
G04 Gerber Fmt 4.6, Leading zero omitted, Abs format (unit mm)*
G04 Created by KiCad (PCBNEW 7.0.11+dfsg-1build4) date 2026-09-25 11:13:45*
%MOMM*%
%LPD*%
G01*
G04 APERTURE LIST*
%ADD10C,0.150000*%
%ADD11C,0.250000*%
%ADD12C,0.200000*%
%ADD13C,0.650000*%
%ADD14O,1.000000X2.100000*%
%ADD15O,1.000000X1.600000*%
%ADD16R,1.700000X1.700000*%
%ADD17O,1.700000X1.700000*%
%ADD18R,1.800000X1.800000*%
%ADD19R,1.600000X1.600000*%
%ADD20C,1.600000*%
%ADD21C,1.800000*%
G04 APERTURE END LIST*
D10*
X6000000Y-29950000D02*
X7000000Y-29950000D01*
X7000000Y-30950000D01*
X6000000Y-30950000D01*
X6000000Y-29950000D01*
X6000000Y-31350000D02*
X7000000Y-31350000D01*
X7000000Y-32350000D01*
X6000000Y-32350000D01*
X6000000Y-31350000D01*
X12055826Y-30812295D02*
X12436778Y-30812295D01*
X12436778Y-30812295D02*
X12436778Y-30012295D01*
X11789159Y-30812295D02*
X11789159Y-30012295D01*
X10951064Y-30736104D02*
X10989160Y-30774200D01*
X10989160Y-30774200D02*
X11103445Y-30812295D01*
X11103445Y-30812295D02*
X11179636Y-30812295D01*
X11179636Y-30812295D02*
X11293922Y-30774200D01*
X11293922Y-30774200D02*
X11370112Y-30698009D01*
X11370112Y-30698009D02*
X11408207Y-30621819D01*
X11408207Y-30621819D02*
X11446303Y-30469438D01*
X11446303Y-30469438D02*
X11446303Y-30355152D01*
X11446303Y-30355152D02*
X11408207Y-30202771D01*
X11408207Y-30202771D02*
X11370112Y-30126580D01*
X11370112Y-30126580D02*
X11293922Y-30050390D01*
X11293922Y-30050390D02*
X11179636Y-30012295D01*
X11179636Y-30012295D02*
X11103445Y-30012295D01*
X11103445Y-30012295D02*
X10989160Y-30050390D01*
X10989160Y-30050390D02*
X10951064Y-30088485D01*
X10074874Y-30012295D02*
X9579636Y-30012295D01*
X9579636Y-30012295D02*
X9846302Y-30317057D01*
X9846302Y-30317057D02*
X9732017Y-30317057D01*
X9732017Y-30317057D02*
X9655826Y-30355152D01*
X9655826Y-30355152D02*
X9617731Y-30393247D01*
X9617731Y-30393247D02*
X9579636Y-30469438D01*
X9579636Y-30469438D02*
X9579636Y-30659914D01*
X9579636Y-30659914D02*
X9617731Y-30736104D01*
X9617731Y-30736104D02*
X9655826Y-30774200D01*
X9655826Y-30774200D02*
X9732017Y-30812295D01*
X9732017Y-30812295D02*
X9960588Y-30812295D01*
X9960588Y-30812295D02*
X10036779Y-30774200D01*
X10036779Y-30774200D02*
X10074874Y-30736104D01*
X9236778Y-30736104D02*
X9198683Y-30774200D01*
X9198683Y-30774200D02*
X9236778Y-30812295D01*
X9236778Y-30812295D02*
X9274874Y-30774200D01*
X9274874Y-30774200D02*
X9236778Y-30736104D01*
X9236778Y-30736104D02*
X9236778Y-30812295D01*
X8741541Y-30355152D02*
X8817731Y-30317057D01*
X8817731Y-30317057D02*
X8855826Y-30278961D01*
X8855826Y-30278961D02*
X8893922Y-30202771D01*
X8893922Y-30202771D02*
X8893922Y-30164676D01*
X8893922Y-30164676D02*
X8855826Y-30088485D01*
X8855826Y-30088485D02*
X8817731Y-30050390D01*
X8817731Y-30050390D02*
X8741541Y-30012295D01*
X8741541Y-30012295D02*
X8589160Y-30012295D01*
X8589160Y-30012295D02*
X8512969Y-30050390D01*
X8512969Y-30050390D02*
X8474874Y-30088485D01*
X8474874Y-30088485D02*
X8436779Y-30164676D01*
X8436779Y-30164676D02*
X8436779Y-30202771D01*
X8436779Y-30202771D02*
X8474874Y-30278961D01*
X8474874Y-30278961D02*
X8512969Y-30317057D01*
X8512969Y-30317057D02*
X8589160Y-30355152D01*
X8589160Y-30355152D02*
X8741541Y-30355152D01*
X8741541Y-30355152D02*
X8817731Y-30393247D01*
X8817731Y-30393247D02*
X8855826Y-30431342D01*
X8855826Y-30431342D02*
X8893922Y-30507533D01*
X8893922Y-30507533D02*
X8893922Y-30659914D01*
X8893922Y-30659914D02*
X8855826Y-30736104D01*
X8855826Y-30736104D02*
X8817731Y-30774200D01*
X8817731Y-30774200D02*
X8741541Y-30812295D01*
X8741541Y-30812295D02*
X8589160Y-30812295D01*
X8589160Y-30812295D02*
X8512969Y-30774200D01*
X8512969Y-30774200D02*
X8474874Y-30736104D01*
X8474874Y-30736104D02*
X8436779Y-30659914D01*
X8436779Y-30659914D02*
X8436779Y-30507533D01*
X8436779Y-30507533D02*
X8474874Y-30431342D01*
X8474874Y-30431342D02*
X8512969Y-30393247D01*
X8512969Y-30393247D02*
X8589160Y-30355152D01*
X8208207Y-30012295D02*
X7941540Y-30812295D01*
X7941540Y-30812295D02*
X7674874Y-30012295D01*
D11*
X14157142Y-25174809D02*
X14233333Y-25251000D01*
X14233333Y-25251000D02*
X14461904Y-25327190D01*
X14461904Y-25327190D02*
X14614285Y-25327190D01*
X14614285Y-25327190D02*
X14842857Y-25251000D01*
X14842857Y-25251000D02*
X14995238Y-25098619D01*
X14995238Y-25098619D02*
X15071428Y-24946238D01*
X15071428Y-24946238D02*
X15147619Y-24641476D01*
X15147619Y-24641476D02*
X15147619Y-24412904D01*
X15147619Y-24412904D02*
X15071428Y-24108142D01*
X15071428Y-24108142D02*
X14995238Y-23955761D01*
X14995238Y-23955761D02*
X14842857Y-23803380D01*
X14842857Y-23803380D02*
X14614285Y-23727190D01*
X14614285Y-23727190D02*
X14461904Y-23727190D01*
X14461904Y-23727190D02*
X14233333Y-23803380D01*
X14233333Y-23803380D02*
X14157142Y-23879571D01*
X12785714Y-25327190D02*
X12785714Y-24489095D01*
X12785714Y-24489095D02*
X12861904Y-24336714D01*
X12861904Y-24336714D02*
X13014285Y-24260523D01*
X13014285Y-24260523D02*
X13319047Y-24260523D01*
X13319047Y-24260523D02*
X13471428Y-24336714D01*
X12785714Y-25251000D02*
X12938095Y-25327190D01*
X12938095Y-25327190D02*
X13319047Y-25327190D01*
X13319047Y-25327190D02*
X13471428Y-25251000D01*
X13471428Y-25251000D02*
X13547619Y-25098619D01*
X13547619Y-25098619D02*
X13547619Y-24946238D01*
X13547619Y-24946238D02*
X13471428Y-24793857D01*
X13471428Y-24793857D02*
X13319047Y-24717666D01*
X13319047Y-24717666D02*
X12938095Y-24717666D01*
X12938095Y-24717666D02*
X12785714Y-24641476D01*
X12023809Y-24260523D02*
X12023809Y-25860523D01*
X12023809Y-24336714D02*
X11871428Y-24260523D01*
X11871428Y-24260523D02*
X11566666Y-24260523D01*
X11566666Y-24260523D02*
X11414285Y-24336714D01*
X11414285Y-24336714D02*
X11338095Y-24412904D01*
X11338095Y-24412904D02*
X11261904Y-24565285D01*
X11261904Y-24565285D02*
X11261904Y-25022428D01*
X11261904Y-25022428D02*
X11338095Y-25174809D01*
X11338095Y-25174809D02*
X11414285Y-25251000D01*
X11414285Y-25251000D02*
X11566666Y-25327190D01*
X11566666Y-25327190D02*
X11871428Y-25327190D01*
X11871428Y-25327190D02*
X12023809Y-25251000D01*
X9661904Y-25174809D02*
X9738095Y-25251000D01*
X9738095Y-25251000D02*
X9966666Y-25327190D01*
X9966666Y-25327190D02*
X10119047Y-25327190D01*
X10119047Y-25327190D02*
X10347619Y-25251000D01*
X10347619Y-25251000D02*
X10500000Y-25098619D01*
X10500000Y-25098619D02*
X10576190Y-24946238D01*
X10576190Y-24946238D02*
X10652381Y-24641476D01*
X10652381Y-24641476D02*
X10652381Y-24412904D01*
X10652381Y-24412904D02*
X10576190Y-24108142D01*
X10576190Y-24108142D02*
X10500000Y-23955761D01*
X10500000Y-23955761D02*
X10347619Y-23803380D01*
X10347619Y-23803380D02*
X10119047Y-23727190D01*
X10119047Y-23727190D02*
X9966666Y-23727190D01*
X9966666Y-23727190D02*
X9738095Y-23803380D01*
X9738095Y-23803380D02*
X9661904Y-23879571D01*
X8747619Y-25327190D02*
X8900000Y-25251000D01*
X8900000Y-25251000D02*
X8976190Y-25174809D01*
X8976190Y-25174809D02*
X9052381Y-25022428D01*
X9052381Y-25022428D02*
X9052381Y-24565285D01*
X9052381Y-24565285D02*
X8976190Y-24412904D01*
X8976190Y-24412904D02*
X8900000Y-24336714D01*
X8900000Y-24336714D02*
X8747619Y-24260523D01*
X8747619Y-24260523D02*
X8519047Y-24260523D01*
X8519047Y-24260523D02*
X8366666Y-24336714D01*
X8366666Y-24336714D02*
X8290476Y-24412904D01*
X8290476Y-24412904D02*
X8214285Y-24565285D01*
X8214285Y-24565285D02*
X8214285Y-25022428D01*
X8214285Y-25022428D02*
X8290476Y-25174809D01*
X8290476Y-25174809D02*
X8366666Y-25251000D01*
X8366666Y-25251000D02*
X8519047Y-25327190D01*
X8519047Y-25327190D02*
X8747619Y-25327190D01*
X7528571Y-25327190D02*
X7528571Y-24260523D01*
X7528571Y-24565285D02*
X7452381Y-24412904D01*
X7452381Y-24412904D02*
X7376190Y-24336714D01*
X7376190Y-24336714D02*
X7223809Y-24260523D01*
X7223809Y-24260523D02*
X7071428Y-24260523D01*
X5928571Y-25251000D02*
X6080952Y-25327190D01*
X6080952Y-25327190D02*
X6385714Y-25327190D01*
X6385714Y-25327190D02*
X6538095Y-25251000D01*
X6538095Y-25251000D02*
X6614286Y-25098619D01*
X6614286Y-25098619D02*
X6614286Y-24489095D01*
X6614286Y-24489095D02*
X6538095Y-24336714D01*
X6538095Y-24336714D02*
X6385714Y-24260523D01*
X6385714Y-24260523D02*
X6080952Y-24260523D01*
X6080952Y-24260523D02*
X5928571Y-24336714D01*
X5928571Y-24336714D02*
X5852381Y-24489095D01*
X5852381Y-24489095D02*
X5852381Y-24641476D01*
X5852381Y-24641476D02*
X6614286Y-24793857D01*
D10*
X2130951Y-46473866D02*
X1369047Y-46473866D01*
X1749999Y-46854819D02*
X1749999Y-46092914D01*
X3834398Y-2048557D02*
X4262970Y-2048557D01*
X4262970Y-2048557D02*
X4305827Y-2477128D01*
X4305827Y-2477128D02*
X4262970Y-2434271D01*
X4262970Y-2434271D02*
X4177256Y-2391414D01*
X4177256Y-2391414D02*
X3962970Y-2391414D01*
X3962970Y-2391414D02*
X3877256Y-2434271D01*
X3877256Y-2434271D02*
X3834398Y-2477128D01*
X3834398Y-2477128D02*
X3791541Y-2562842D01*
X3791541Y-2562842D02*
X3791541Y-2777128D01*
X3791541Y-2777128D02*
X3834398Y-2862842D01*
X3834398Y-2862842D02*
X3877256Y-2905700D01*
X3877256Y-2905700D02*
X3962970Y-2948557D01*
X3962970Y-2948557D02*
X4177256Y-2948557D01*
X4177256Y-2948557D02*
X4262970Y-2905700D01*
X4262970Y-2905700D02*
X4305827Y-2862842D01*
X3534398Y-2048557D02*
X3234398Y-2948557D01*
X3234398Y-2948557D02*
X2934398Y-2048557D01*
X5805826Y-18145700D02*
X5677255Y-18188557D01*
X5677255Y-18188557D02*
X5462969Y-18188557D01*
X5462969Y-18188557D02*
X5377255Y-18145700D01*
X5377255Y-18145700D02*
X5334397Y-18102842D01*
X5334397Y-18102842D02*
X5291540Y-18017128D01*
X5291540Y-18017128D02*
X5291540Y-17931414D01*
X5291540Y-17931414D02*
X5334397Y-17845700D01*
X5334397Y-17845700D02*
X5377255Y-17802842D01*
X5377255Y-17802842D02*
X5462969Y-17759985D01*
X5462969Y-17759985D02*
X5634397Y-17717128D01*
X5634397Y-17717128D02*
X5720112Y-17674271D01*
X5720112Y-17674271D02*
X5762969Y-17631414D01*
X5762969Y-17631414D02*
X5805826Y-17545700D01*
X5805826Y-17545700D02*
X5805826Y-17459985D01*
X5805826Y-17459985D02*
X5762969Y-17374271D01*
X5762969Y-17374271D02*
X5720112Y-17331414D01*
X5720112Y-17331414D02*
X5634397Y-17288557D01*
X5634397Y-17288557D02*
X5420112Y-17288557D01*
X5420112Y-17288557D02*
X5291540Y-17331414D01*
X4905826Y-18188557D02*
X4905826Y-17288557D01*
X4905826Y-17717128D02*
X4391540Y-17717128D01*
X4391540Y-18188557D02*
X4391540Y-17288557D01*
X3962969Y-18188557D02*
X3962969Y-17288557D01*
X3534398Y-18188557D02*
X3534398Y-17288557D01*
X3534398Y-17288557D02*
X3191541Y-17288557D01*
X3191541Y-17288557D02*
X3105826Y-17331414D01*
X3105826Y-17331414D02*
X3062969Y-17374271D01*
X3062969Y-17374271D02*
X3020112Y-17459985D01*
X3020112Y-17459985D02*
X3020112Y-17588557D01*
X3020112Y-17588557D02*
X3062969Y-17674271D01*
X3062969Y-17674271D02*
X3105826Y-17717128D01*
X3105826Y-17717128D02*
X3191541Y-17759985D01*
X3191541Y-17759985D02*
X3534398Y-17759985D01*
X17465601Y-19871414D02*
X17551316Y-19828557D01*
X17551316Y-19828557D02*
X17679887Y-19828557D01*
X17679887Y-19828557D02*
X17808458Y-19871414D01*
X17808458Y-19871414D02*
X17894173Y-19957128D01*
X17894173Y-19957128D02*
X17937030Y-20042842D01*
X17937030Y-20042842D02*
X17979887Y-20214271D01*
X17979887Y-20214271D02*
X17979887Y-20342842D01*
X17979887Y-20342842D02*
X17937030Y-20514271D01*
X17937030Y-20514271D02*
X17894173Y-20599985D01*
X17894173Y-20599985D02*
X17808458Y-20685700D01*
X17808458Y-20685700D02*
X17679887Y-20728557D01*
X17679887Y-20728557D02*
X17594173Y-20728557D01*
X17594173Y-20728557D02*
X17465601Y-20685700D01*
X17465601Y-20685700D02*
X17422744Y-20642842D01*
X17422744Y-20642842D02*
X17422744Y-20342842D01*
X17422744Y-20342842D02*
X17594173Y-20342842D01*
X17037030Y-20728557D02*
X17037030Y-19828557D01*
X17037030Y-19828557D02*
X16522744Y-20728557D01*
X16522744Y-20728557D02*
X16522744Y-19828557D01*
X16094173Y-20728557D02*
X16094173Y-19828557D01*
X16094173Y-19828557D02*
X15879887Y-19828557D01*
X15879887Y-19828557D02*
X15751316Y-19871414D01*
X15751316Y-19871414D02*
X15665601Y-19957128D01*
X15665601Y-19957128D02*
X15622744Y-20042842D01*
X15622744Y-20042842D02*
X15579887Y-20214271D01*
X15579887Y-20214271D02*
X15579887Y-20342842D01*
X15579887Y-20342842D02*
X15622744Y-20514271D01*
X15622744Y-20514271D02*
X15665601Y-20599985D01*
X15665601Y-20599985D02*
X15751316Y-20685700D01*
X15751316Y-20685700D02*
X15879887Y-20728557D01*
X15879887Y-20728557D02*
X16094173Y-20728557D01*
X17071429Y-32962295D02*
X17071429Y-33533723D01*
X17071429Y-33533723D02*
X17109524Y-33648009D01*
X17109524Y-33648009D02*
X17185715Y-33724200D01*
X17185715Y-33724200D02*
X17300000Y-33762295D01*
X17300000Y-33762295D02*
X17376191Y-33762295D01*
X16690476Y-33762295D02*
X16690476Y-32962295D01*
X16690476Y-32962295D02*
X16385714Y-32962295D01*
X16385714Y-32962295D02*
X16309524Y-33000390D01*
X16309524Y-33000390D02*
X16271429Y-33038485D01*
X16271429Y-33038485D02*
X16233333Y-33114676D01*
X16233333Y-33114676D02*
X16233333Y-33228961D01*
X16233333Y-33228961D02*
X16271429Y-33305152D01*
X16271429Y-33305152D02*
X16309524Y-33343247D01*
X16309524Y-33343247D02*
X16385714Y-33381342D01*
X16385714Y-33381342D02*
X16690476Y-33381342D01*
X15471429Y-33762295D02*
X15928572Y-33762295D01*
X15700000Y-33762295D02*
X15700000Y-32962295D01*
X15700000Y-32962295D02*
X15776191Y-33076580D01*
X15776191Y-33076580D02*
X15852381Y-33152771D01*
X15852381Y-33152771D02*
X15928572Y-33190866D01*
X14176190Y-33724200D02*
X14252381Y-33762295D01*
X14252381Y-33762295D02*
X14404762Y-33762295D01*
X14404762Y-33762295D02*
X14480952Y-33724200D01*
X14480952Y-33724200D02*
X14519047Y-33686104D01*
X14519047Y-33686104D02*
X14557143Y-33609914D01*
X14557143Y-33609914D02*
X14557143Y-33381342D01*
X14557143Y-33381342D02*
X14519047Y-33305152D01*
X14519047Y-33305152D02*
X14480952Y-33267057D01*
X14480952Y-33267057D02*
X14404762Y-33228961D01*
X14404762Y-33228961D02*
X14252381Y-33228961D01*
X14252381Y-33228961D02*
X14176190Y-33267057D01*
X13490476Y-33228961D02*
X13490476Y-33762295D01*
X13833333Y-33228961D02*
X13833333Y-33648009D01*
X13833333Y-33648009D02*
X13795238Y-33724200D01*
X13795238Y-33724200D02*
X13719048Y-33762295D01*
X13719048Y-33762295D02*
X13604762Y-33762295D01*
X13604762Y-33762295D02*
X13528571Y-33724200D01*
X13528571Y-33724200D02*
X13490476Y-33686104D01*
X13223809Y-33228961D02*
X12919047Y-33228961D01*
X13109523Y-32962295D02*
X13109523Y-33648009D01*
X13109523Y-33648009D02*
X13071428Y-33724200D01*
X13071428Y-33724200D02*
X12995238Y-33762295D01*
X12995238Y-33762295D02*
X12919047Y-33762295D01*
X12652380Y-33686104D02*
X12614285Y-33724200D01*
X12614285Y-33724200D02*
X12652380Y-33762295D01*
X12652380Y-33762295D02*
X12690476Y-33724200D01*
X12690476Y-33724200D02*
X12652380Y-33686104D01*
X12652380Y-33686104D02*
X12652380Y-33762295D01*
X12652380Y-33267057D02*
X12614285Y-33305152D01*
X12614285Y-33305152D02*
X12652380Y-33343247D01*
X12652380Y-33343247D02*
X12690476Y-33305152D01*
X12690476Y-33305152D02*
X12652380Y-33267057D01*
X12652380Y-33267057D02*
X12652380Y-33343247D01*
X11661904Y-32962295D02*
X11661904Y-33609914D01*
X11661904Y-33609914D02*
X11623809Y-33686104D01*
X11623809Y-33686104D02*
X11585714Y-33724200D01*
X11585714Y-33724200D02*
X11509523Y-33762295D01*
X11509523Y-33762295D02*
X11357142Y-33762295D01*
X11357142Y-33762295D02*
X11280952Y-33724200D01*
X11280952Y-33724200D02*
X11242857Y-33686104D01*
X11242857Y-33686104D02*
X11204761Y-33609914D01*
X11204761Y-33609914D02*
X11204761Y-32962295D01*
X10861905Y-33724200D02*
X10747619Y-33762295D01*
X10747619Y-33762295D02*
X10557143Y-33762295D01*
X10557143Y-33762295D02*
X10480952Y-33724200D01*
X10480952Y-33724200D02*
X10442857Y-33686104D01*
X10442857Y-33686104D02*
X10404762Y-33609914D01*
X10404762Y-33609914D02*
X10404762Y-33533723D01*
X10404762Y-33533723D02*
X10442857Y-33457533D01*
X10442857Y-33457533D02*
X10480952Y-33419438D01*
X10480952Y-33419438D02*
X10557143Y-33381342D01*
X10557143Y-33381342D02*
X10709524Y-33343247D01*
X10709524Y-33343247D02*
X10785714Y-33305152D01*
X10785714Y-33305152D02*
X10823809Y-33267057D01*
X10823809Y-33267057D02*
X10861905Y-33190866D01*
X10861905Y-33190866D02*
X10861905Y-33114676D01*
X10861905Y-33114676D02*
X10823809Y-33038485D01*
X10823809Y-33038485D02*
X10785714Y-33000390D01*
X10785714Y-33000390D02*
X10709524Y-32962295D01*
X10709524Y-32962295D02*
X10519047Y-32962295D01*
X10519047Y-32962295D02*
X10404762Y-33000390D01*
X9795238Y-33343247D02*
X9680952Y-33381342D01*
X9680952Y-33381342D02*
X9642857Y-33419438D01*
X9642857Y-33419438D02*
X9604761Y-33495628D01*
X9604761Y-33495628D02*
X9604761Y-33609914D01*
X9604761Y-33609914D02*
X9642857Y-33686104D01*
X9642857Y-33686104D02*
X9680952Y-33724200D01*
X9680952Y-33724200D02*
X9757142Y-33762295D01*
X9757142Y-33762295D02*
X10061904Y-33762295D01*
X10061904Y-33762295D02*
X10061904Y-32962295D01*
X10061904Y-32962295D02*
X9795238Y-32962295D01*
X9795238Y-32962295D02*
X9719047Y-33000390D01*
X9719047Y-33000390D02*
X9680952Y-33038485D01*
X9680952Y-33038485D02*
X9642857Y-33114676D01*
X9642857Y-33114676D02*
X9642857Y-33190866D01*
X9642857Y-33190866D02*
X9680952Y-33267057D01*
X9680952Y-33267057D02*
X9719047Y-33305152D01*
X9719047Y-33305152D02*
X9795238Y-33343247D01*
X9795238Y-33343247D02*
X10061904Y-33343247D01*
X8690476Y-33724200D02*
X8614285Y-33762295D01*
X8614285Y-33762295D02*
X8461904Y-33762295D01*
X8461904Y-33762295D02*
X8385714Y-33724200D01*
X8385714Y-33724200D02*
X8347618Y-33648009D01*
X8347618Y-33648009D02*
X8347618Y-33609914D01*
X8347618Y-33609914D02*
X8385714Y-33533723D01*
X8385714Y-33533723D02*
X8461904Y-33495628D01*
X8461904Y-33495628D02*
X8576190Y-33495628D01*
X8576190Y-33495628D02*
X8652380Y-33457533D01*
X8652380Y-33457533D02*
X8690476Y-33381342D01*
X8690476Y-33381342D02*
X8690476Y-33343247D01*
X8690476Y-33343247D02*
X8652380Y-33267057D01*
X8652380Y-33267057D02*
X8576190Y-33228961D01*
X8576190Y-33228961D02*
X8461904Y-33228961D01*
X8461904Y-33228961D02*
X8385714Y-33267057D01*
X8119047Y-33228961D02*
X7814285Y-33228961D01*
X8004761Y-32962295D02*
X8004761Y-33648009D01*
X8004761Y-33648009D02*
X7966666Y-33724200D01*
X7966666Y-33724200D02*
X7890476Y-33762295D01*
X7890476Y-33762295D02*
X7814285Y-33762295D01*
X7204761Y-33762295D02*
X7204761Y-33343247D01*
X7204761Y-33343247D02*
X7242856Y-33267057D01*
X7242856Y-33267057D02*
X7319047Y-33228961D01*
X7319047Y-33228961D02*
X7471428Y-33228961D01*
X7471428Y-33228961D02*
X7547618Y-33267057D01*
X7204761Y-33724200D02*
X7280952Y-33762295D01*
X7280952Y-33762295D02*
X7471428Y-33762295D01*
X7471428Y-33762295D02*
X7547618Y-33724200D01*
X7547618Y-33724200D02*
X7585714Y-33648009D01*
X7585714Y-33648009D02*
X7585714Y-33571819D01*
X7585714Y-33571819D02*
X7547618Y-33495628D01*
X7547618Y-33495628D02*
X7471428Y-33457533D01*
X7471428Y-33457533D02*
X7280952Y-33457533D01*
X7280952Y-33457533D02*
X7204761Y-33419438D01*
X6899999Y-33228961D02*
X6709523Y-33762295D01*
X6519046Y-33228961D02*
X6709523Y-33762295D01*
X6709523Y-33762295D02*
X6785713Y-33952771D01*
X6785713Y-33952771D02*
X6823808Y-33990866D01*
X6823808Y-33990866D02*
X6899999Y-34028961D01*
X6252380Y-33724200D02*
X6176189Y-33762295D01*
X6176189Y-33762295D02*
X6023808Y-33762295D01*
X6023808Y-33762295D02*
X5947618Y-33724200D01*
X5947618Y-33724200D02*
X5909522Y-33648009D01*
X5909522Y-33648009D02*
X5909522Y-33609914D01*
X5909522Y-33609914D02*
X5947618Y-33533723D01*
X5947618Y-33533723D02*
X6023808Y-33495628D01*
X6023808Y-33495628D02*
X6138094Y-33495628D01*
X6138094Y-33495628D02*
X6214284Y-33457533D01*
X6214284Y-33457533D02*
X6252380Y-33381342D01*
X6252380Y-33381342D02*
X6252380Y-33343247D01*
X6252380Y-33343247D02*
X6214284Y-33267057D01*
X6214284Y-33267057D02*
X6138094Y-33228961D01*
X6138094Y-33228961D02*
X6023808Y-33228961D01*
X6023808Y-33228961D02*
X5947618Y-33267057D01*
X4842856Y-33762295D02*
X4919046Y-33724200D01*
X4919046Y-33724200D02*
X4957141Y-33686104D01*
X4957141Y-33686104D02*
X4995237Y-33609914D01*
X4995237Y-33609914D02*
X4995237Y-33381342D01*
X4995237Y-33381342D02*
X4957141Y-33305152D01*
X4957141Y-33305152D02*
X4919046Y-33267057D01*
X4919046Y-33267057D02*
X4842856Y-33228961D01*
X4842856Y-33228961D02*
X4728570Y-33228961D01*
X4728570Y-33228961D02*
X4652379Y-33267057D01*
X4652379Y-33267057D02*
X4614284Y-33305152D01*
X4614284Y-33305152D02*
X4576189Y-33381342D01*
X4576189Y-33381342D02*
X4576189Y-33609914D01*
X4576189Y-33609914D02*
X4614284Y-33686104D01*
X4614284Y-33686104D02*
X4652379Y-33724200D01*
X4652379Y-33724200D02*
X4728570Y-33762295D01*
X4728570Y-33762295D02*
X4842856Y-33762295D01*
X4347617Y-33228961D02*
X4042855Y-33228961D01*
X4233331Y-33762295D02*
X4233331Y-33076580D01*
X4233331Y-33076580D02*
X4195236Y-33000390D01*
X4195236Y-33000390D02*
X4119046Y-32962295D01*
X4119046Y-32962295D02*
X4042855Y-32962295D01*
X3890474Y-33228961D02*
X3585712Y-33228961D01*
X3776188Y-33762295D02*
X3776188Y-33076580D01*
X3776188Y-33076580D02*
X3738093Y-33000390D01*
X3738093Y-33000390D02*
X3661903Y-32962295D01*
X3661903Y-32962295D02*
X3585712Y-32962295D01*
X13579636Y-31793247D02*
X13312970Y-31793247D01*
X13198684Y-32212295D02*
X13579636Y-32212295D01*
X13579636Y-32212295D02*
X13579636Y-31412295D01*
X13579636Y-31412295D02*
X13198684Y-31412295D01*
X12855826Y-32212295D02*
X12855826Y-31412295D01*
X12855826Y-31412295D02*
X12665350Y-31412295D01*
X12665350Y-31412295D02*
X12551064Y-31450390D01*
X12551064Y-31450390D02*
X12474874Y-31526580D01*
X12474874Y-31526580D02*
X12436779Y-31602771D01*
X12436779Y-31602771D02*
X12398683Y-31755152D01*
X12398683Y-31755152D02*
X12398683Y-31869438D01*
X12398683Y-31869438D02*
X12436779Y-32021819D01*
X12436779Y-32021819D02*
X12474874Y-32098009D01*
X12474874Y-32098009D02*
X12551064Y-32174200D01*
X12551064Y-32174200D02*
X12665350Y-32212295D01*
X12665350Y-32212295D02*
X12855826Y-32212295D01*
X11674874Y-32212295D02*
X12055826Y-32212295D01*
X12055826Y-32212295D02*
X12055826Y-31412295D01*
X10951064Y-32136104D02*
X10989160Y-32174200D01*
X10989160Y-32174200D02*
X11103445Y-32212295D01*
X11103445Y-32212295D02*
X11179636Y-32212295D01*
X11179636Y-32212295D02*
X11293922Y-32174200D01*
X11293922Y-32174200D02*
X11370112Y-32098009D01*
X11370112Y-32098009D02*
X11408207Y-32021819D01*
X11408207Y-32021819D02*
X11446303Y-31869438D01*
X11446303Y-31869438D02*
X11446303Y-31755152D01*
X11446303Y-31755152D02*
X11408207Y-31602771D01*
X11408207Y-31602771D02*
X11370112Y-31526580D01*
X11370112Y-31526580D02*
X11293922Y-31450390D01*
X11293922Y-31450390D02*
X11179636Y-31412295D01*
X11179636Y-31412295D02*
X11103445Y-31412295D01*
X11103445Y-31412295D02*
X10989160Y-31450390D01*
X10989160Y-31450390D02*
X10951064Y-31488485D01*
X10036779Y-31488485D02*
X9998683Y-31450390D01*
X9998683Y-31450390D02*
X9922493Y-31412295D01*
X9922493Y-31412295D02*
X9732017Y-31412295D01*
X9732017Y-31412295D02*
X9655826Y-31450390D01*
X9655826Y-31450390D02*
X9617731Y-31488485D01*
X9617731Y-31488485D02*
X9579636Y-31564676D01*
X9579636Y-31564676D02*
X9579636Y-31640866D01*
X9579636Y-31640866D02*
X9617731Y-31755152D01*
X9617731Y-31755152D02*
X10074874Y-32212295D01*
X10074874Y-32212295D02*
X9579636Y-32212295D01*
X9236778Y-32136104D02*
X9198683Y-32174200D01*
X9198683Y-32174200D02*
X9236778Y-32212295D01*
X9236778Y-32212295D02*
X9274874Y-32174200D01*
X9274874Y-32174200D02*
X9236778Y-32136104D01*
X9236778Y-32136104D02*
X9236778Y-32212295D01*
X8932017Y-31412295D02*
X8398683Y-31412295D01*
X8398683Y-31412295D02*
X8741541Y-32212295D01*
X8208207Y-31412295D02*
X7941540Y-32212295D01*
X7941540Y-32212295D02*
X7674874Y-31412295D01*
X4905826Y-19871414D02*
X4991541Y-19828557D01*
X4991541Y-19828557D02*
X5120112Y-19828557D01*
X5120112Y-19828557D02*
X5248683Y-19871414D01*
X5248683Y-19871414D02*
X5334398Y-19957128D01*
X5334398Y-19957128D02*
X5377255Y-20042842D01*
X5377255Y-20042842D02*
X5420112Y-20214271D01*
X5420112Y-20214271D02*
X5420112Y-20342842D01*
X5420112Y-20342842D02*
X5377255Y-20514271D01*
X5377255Y-20514271D02*
X5334398Y-20599985D01*
X5334398Y-20599985D02*
X5248683Y-20685700D01*
X5248683Y-20685700D02*
X5120112Y-20728557D01*
X5120112Y-20728557D02*
X5034398Y-20728557D01*
X5034398Y-20728557D02*
X4905826Y-20685700D01*
X4905826Y-20685700D02*
X4862969Y-20642842D01*
X4862969Y-20642842D02*
X4862969Y-20342842D01*
X4862969Y-20342842D02*
X5034398Y-20342842D01*
X4477255Y-20728557D02*
X4477255Y-19828557D01*
X4477255Y-19828557D02*
X3962969Y-20728557D01*
X3962969Y-20728557D02*
X3962969Y-19828557D01*
X3534398Y-20728557D02*
X3534398Y-19828557D01*
X3534398Y-19828557D02*
X3320112Y-19828557D01*
X3320112Y-19828557D02*
X3191541Y-19871414D01*
X3191541Y-19871414D02*
X3105826Y-19957128D01*
X3105826Y-19957128D02*
X3062969Y-20042842D01*
X3062969Y-20042842D02*
X3020112Y-20214271D01*
X3020112Y-20214271D02*
X3020112Y-20342842D01*
X3020112Y-20342842D02*
X3062969Y-20514271D01*
X3062969Y-20514271D02*
X3105826Y-20599985D01*
X3105826Y-20599985D02*
X3191541Y-20685700D01*
X3191541Y-20685700D02*
X3320112Y-20728557D01*
X3320112Y-20728557D02*
X3534398Y-20728557D01*
X17979887Y-7985700D02*
X17851316Y-8028557D01*
X17851316Y-8028557D02*
X17637030Y-8028557D01*
X17637030Y-8028557D02*
X17551316Y-7985700D01*
X17551316Y-7985700D02*
X17508458Y-7942842D01*
X17508458Y-7942842D02*
X17465601Y-7857128D01*
X17465601Y-7857128D02*
X17465601Y-7771414D01*
X17465601Y-7771414D02*
X17508458Y-7685700D01*
X17508458Y-7685700D02*
X17551316Y-7642842D01*
X17551316Y-7642842D02*
X17637030Y-7599985D01*
X17637030Y-7599985D02*
X17808458Y-7557128D01*
X17808458Y-7557128D02*
X17894173Y-7514271D01*
X17894173Y-7514271D02*
X17937030Y-7471414D01*
X17937030Y-7471414D02*
X17979887Y-7385700D01*
X17979887Y-7385700D02*
X17979887Y-7299985D01*
X17979887Y-7299985D02*
X17937030Y-7214271D01*
X17937030Y-7214271D02*
X17894173Y-7171414D01*
X17894173Y-7171414D02*
X17808458Y-7128557D01*
X17808458Y-7128557D02*
X17594173Y-7128557D01*
X17594173Y-7128557D02*
X17465601Y-7171414D01*
X17079887Y-8028557D02*
X17079887Y-7128557D01*
X17079887Y-7128557D02*
X16865601Y-7128557D01*
X16865601Y-7128557D02*
X16737030Y-7171414D01*
X16737030Y-7171414D02*
X16651315Y-7257128D01*
X16651315Y-7257128D02*
X16608458Y-7342842D01*
X16608458Y-7342842D02*
X16565601Y-7514271D01*
X16565601Y-7514271D02*
X16565601Y-7642842D01*
X16565601Y-7642842D02*
X16608458Y-7814271D01*
X16608458Y-7814271D02*
X16651315Y-7899985D01*
X16651315Y-7899985D02*
X16737030Y-7985700D01*
X16737030Y-7985700D02*
X16865601Y-8028557D01*
X16865601Y-8028557D02*
X17079887Y-8028557D01*
X16222744Y-7771414D02*
X15794173Y-7771414D01*
X16308458Y-8028557D02*
X16008458Y-7128557D01*
X16008458Y-7128557D02*
X15708458Y-8028557D01*
X18065601Y-12208557D02*
X17765601Y-13108557D01*
X17765601Y-13108557D02*
X17465601Y-12208557D01*
X17208458Y-13065700D02*
X17079887Y-13108557D01*
X17079887Y-13108557D02*
X16865601Y-13108557D01*
X16865601Y-13108557D02*
X16779887Y-13065700D01*
X16779887Y-13065700D02*
X16737029Y-13022842D01*
X16737029Y-13022842D02*
X16694172Y-12937128D01*
X16694172Y-12937128D02*
X16694172Y-12851414D01*
X16694172Y-12851414D02*
X16737029Y-12765700D01*
X16737029Y-12765700D02*
X16779887Y-12722842D01*
X16779887Y-12722842D02*
X16865601Y-12679985D01*
X16865601Y-12679985D02*
X17037029Y-12637128D01*
X17037029Y-12637128D02*
X17122744Y-12594271D01*
X17122744Y-12594271D02*
X17165601Y-12551414D01*
X17165601Y-12551414D02*
X17208458Y-12465700D01*
X17208458Y-12465700D02*
X17208458Y-12379985D01*
X17208458Y-12379985D02*
X17165601Y-12294271D01*
X17165601Y-12294271D02*
X17122744Y-12251414D01*
X17122744Y-12251414D02*
X17037029Y-12208557D01*
X17037029Y-12208557D02*
X16822744Y-12208557D01*
X16822744Y-12208557D02*
X16694172Y-12251414D01*
X16308458Y-13108557D02*
X16308458Y-12208557D01*
X16308458Y-12208557D02*
X15794172Y-13108557D01*
X15794172Y-13108557D02*
X15794172Y-12208557D01*
X15408458Y-13065700D02*
X15279887Y-13108557D01*
X15279887Y-13108557D02*
X15065601Y-13108557D01*
X15065601Y-13108557D02*
X14979887Y-13065700D01*
X14979887Y-13065700D02*
X14937029Y-13022842D01*
X14937029Y-13022842D02*
X14894172Y-12937128D01*
X14894172Y-12937128D02*
X14894172Y-12851414D01*
X14894172Y-12851414D02*
X14937029Y-12765700D01*
X14937029Y-12765700D02*
X14979887Y-12722842D01*
X14979887Y-12722842D02*
X15065601Y-12679985D01*
X15065601Y-12679985D02*
X15237029Y-12637128D01*
X15237029Y-12637128D02*
X15322744Y-12594271D01*
X15322744Y-12594271D02*
X15365601Y-12551414D01*
X15365601Y-12551414D02*
X15408458Y-12465700D01*
X15408458Y-12465700D02*
X15408458Y-12379985D01*
X15408458Y-12379985D02*
X15365601Y-12294271D01*
X15365601Y-12294271D02*
X15322744Y-12251414D01*
X15322744Y-12251414D02*
X15237029Y-12208557D01*
X15237029Y-12208557D02*
X15022744Y-12208557D01*
X15022744Y-12208557D02*
X14894172Y-12251414D01*
X17566668Y-26924200D02*
X17490477Y-26962295D01*
X17490477Y-26962295D02*
X17338096Y-26962295D01*
X17338096Y-26962295D02*
X17261906Y-26924200D01*
X17261906Y-26924200D02*
X17223810Y-26848009D01*
X17223810Y-26848009D02*
X17223810Y-26809914D01*
X17223810Y-26809914D02*
X17261906Y-26733723D01*
X17261906Y-26733723D02*
X17338096Y-26695628D01*
X17338096Y-26695628D02*
X17452382Y-26695628D01*
X17452382Y-26695628D02*
X17528572Y-26657533D01*
X17528572Y-26657533D02*
X17566668Y-26581342D01*
X17566668Y-26581342D02*
X17566668Y-26543247D01*
X17566668Y-26543247D02*
X17528572Y-26467057D01*
X17528572Y-26467057D02*
X17452382Y-26428961D01*
X17452382Y-26428961D02*
X17338096Y-26428961D01*
X17338096Y-26428961D02*
X17261906Y-26467057D01*
X16538096Y-26428961D02*
X16538096Y-26962295D01*
X16880953Y-26428961D02*
X16880953Y-26848009D01*
X16880953Y-26848009D02*
X16842858Y-26924200D01*
X16842858Y-26924200D02*
X16766668Y-26962295D01*
X16766668Y-26962295D02*
X16652382Y-26962295D01*
X16652382Y-26962295D02*
X16576191Y-26924200D01*
X16576191Y-26924200D02*
X16538096Y-26886104D01*
X16157143Y-26428961D02*
X16157143Y-27228961D01*
X16157143Y-26467057D02*
X16080953Y-26428961D01*
X16080953Y-26428961D02*
X15928572Y-26428961D01*
X15928572Y-26428961D02*
X15852381Y-26467057D01*
X15852381Y-26467057D02*
X15814286Y-26505152D01*
X15814286Y-26505152D02*
X15776191Y-26581342D01*
X15776191Y-26581342D02*
X15776191Y-26809914D01*
X15776191Y-26809914D02*
X15814286Y-26886104D01*
X15814286Y-26886104D02*
X15852381Y-26924200D01*
X15852381Y-26924200D02*
X15928572Y-26962295D01*
X15928572Y-26962295D02*
X16080953Y-26962295D01*
X16080953Y-26962295D02*
X16157143Y-26924200D01*
X15128571Y-26924200D02*
X15204762Y-26962295D01*
X15204762Y-26962295D02*
X15357143Y-26962295D01*
X15357143Y-26962295D02*
X15433333Y-26924200D01*
X15433333Y-26924200D02*
X15471429Y-26848009D01*
X15471429Y-26848009D02*
X15471429Y-26543247D01*
X15471429Y-26543247D02*
X15433333Y-26467057D01*
X15433333Y-26467057D02*
X15357143Y-26428961D01*
X15357143Y-26428961D02*
X15204762Y-26428961D01*
X15204762Y-26428961D02*
X15128571Y-26467057D01*
X15128571Y-26467057D02*
X15090476Y-26543247D01*
X15090476Y-26543247D02*
X15090476Y-26619438D01*
X15090476Y-26619438D02*
X15471429Y-26695628D01*
X14747619Y-26962295D02*
X14747619Y-26428961D01*
X14747619Y-26581342D02*
X14709524Y-26505152D01*
X14709524Y-26505152D02*
X14671429Y-26467057D01*
X14671429Y-26467057D02*
X14595238Y-26428961D01*
X14595238Y-26428961D02*
X14519048Y-26428961D01*
X13909524Y-26924200D02*
X13985715Y-26962295D01*
X13985715Y-26962295D02*
X14138096Y-26962295D01*
X14138096Y-26962295D02*
X14214286Y-26924200D01*
X14214286Y-26924200D02*
X14252381Y-26886104D01*
X14252381Y-26886104D02*
X14290477Y-26809914D01*
X14290477Y-26809914D02*
X14290477Y-26581342D01*
X14290477Y-26581342D02*
X14252381Y-26505152D01*
X14252381Y-26505152D02*
X14214286Y-26467057D01*
X14214286Y-26467057D02*
X14138096Y-26428961D01*
X14138096Y-26428961D02*
X13985715Y-26428961D01*
X13985715Y-26428961D02*
X13909524Y-26467057D01*
X13223810Y-26962295D02*
X13223810Y-26543247D01*
X13223810Y-26543247D02*
X13261905Y-26467057D01*
X13261905Y-26467057D02*
X13338096Y-26428961D01*
X13338096Y-26428961D02*
X13490477Y-26428961D01*
X13490477Y-26428961D02*
X13566667Y-26467057D01*
X13223810Y-26924200D02*
X13300001Y-26962295D01*
X13300001Y-26962295D02*
X13490477Y-26962295D01*
X13490477Y-26962295D02*
X13566667Y-26924200D01*
X13566667Y-26924200D02*
X13604763Y-26848009D01*
X13604763Y-26848009D02*
X13604763Y-26771819D01*
X13604763Y-26771819D02*
X13566667Y-26695628D01*
X13566667Y-26695628D02*
X13490477Y-26657533D01*
X13490477Y-26657533D02*
X13300001Y-26657533D01*
X13300001Y-26657533D02*
X13223810Y-26619438D01*
X12842857Y-26428961D02*
X12842857Y-27228961D01*
X12842857Y-26467057D02*
X12766667Y-26428961D01*
X12766667Y-26428961D02*
X12614286Y-26428961D01*
X12614286Y-26428961D02*
X12538095Y-26467057D01*
X12538095Y-26467057D02*
X12500000Y-26505152D01*
X12500000Y-26505152D02*
X12461905Y-26581342D01*
X12461905Y-26581342D02*
X12461905Y-26809914D01*
X12461905Y-26809914D02*
X12500000Y-26886104D01*
X12500000Y-26886104D02*
X12538095Y-26924200D01*
X12538095Y-26924200D02*
X12614286Y-26962295D01*
X12614286Y-26962295D02*
X12766667Y-26962295D01*
X12766667Y-26962295D02*
X12842857Y-26924200D01*
X11509523Y-26428961D02*
X11509523Y-27228961D01*
X11509523Y-26467057D02*
X11433333Y-26428961D01*
X11433333Y-26428961D02*
X11280952Y-26428961D01*
X11280952Y-26428961D02*
X11204761Y-26467057D01*
X11204761Y-26467057D02*
X11166666Y-26505152D01*
X11166666Y-26505152D02*
X11128571Y-26581342D01*
X11128571Y-26581342D02*
X11128571Y-26809914D01*
X11128571Y-26809914D02*
X11166666Y-26886104D01*
X11166666Y-26886104D02*
X11204761Y-26924200D01*
X11204761Y-26924200D02*
X11280952Y-26962295D01*
X11280952Y-26962295D02*
X11433333Y-26962295D01*
X11433333Y-26962295D02*
X11509523Y-26924200D01*
X10671428Y-26962295D02*
X10747618Y-26924200D01*
X10747618Y-26924200D02*
X10785713Y-26886104D01*
X10785713Y-26886104D02*
X10823809Y-26809914D01*
X10823809Y-26809914D02*
X10823809Y-26581342D01*
X10823809Y-26581342D02*
X10785713Y-26505152D01*
X10785713Y-26505152D02*
X10747618Y-26467057D01*
X10747618Y-26467057D02*
X10671428Y-26428961D01*
X10671428Y-26428961D02*
X10557142Y-26428961D01*
X10557142Y-26428961D02*
X10480951Y-26467057D01*
X10480951Y-26467057D02*
X10442856Y-26505152D01*
X10442856Y-26505152D02*
X10404761Y-26581342D01*
X10404761Y-26581342D02*
X10404761Y-26809914D01*
X10404761Y-26809914D02*
X10442856Y-26886104D01*
X10442856Y-26886104D02*
X10480951Y-26924200D01*
X10480951Y-26924200D02*
X10557142Y-26962295D01*
X10557142Y-26962295D02*
X10671428Y-26962295D01*
X10138094Y-26428961D02*
X9985713Y-26962295D01*
X9985713Y-26962295D02*
X9833332Y-26581342D01*
X9833332Y-26581342D02*
X9680951Y-26962295D01*
X9680951Y-26962295D02*
X9528570Y-26428961D01*
X8919046Y-26924200D02*
X8995237Y-26962295D01*
X8995237Y-26962295D02*
X9147618Y-26962295D01*
X9147618Y-26962295D02*
X9223808Y-26924200D01*
X9223808Y-26924200D02*
X9261904Y-26848009D01*
X9261904Y-26848009D02*
X9261904Y-26543247D01*
X9261904Y-26543247D02*
X9223808Y-26467057D01*
X9223808Y-26467057D02*
X9147618Y-26428961D01*
X9147618Y-26428961D02*
X8995237Y-26428961D01*
X8995237Y-26428961D02*
X8919046Y-26467057D01*
X8919046Y-26467057D02*
X8880951Y-26543247D01*
X8880951Y-26543247D02*
X8880951Y-26619438D01*
X8880951Y-26619438D02*
X9261904Y-26695628D01*
X8538094Y-26962295D02*
X8538094Y-26428961D01*
X8538094Y-26581342D02*
X8499999Y-26505152D01*
X8499999Y-26505152D02*
X8461904Y-26467057D01*
X8461904Y-26467057D02*
X8385713Y-26428961D01*
X8385713Y-26428961D02*
X8309523Y-26428961D01*
X7433332Y-26962295D02*
X7433332Y-26428961D01*
X7433332Y-26505152D02*
X7395237Y-26467057D01*
X7395237Y-26467057D02*
X7319047Y-26428961D01*
X7319047Y-26428961D02*
X7204761Y-26428961D01*
X7204761Y-26428961D02*
X7128570Y-26467057D01*
X7128570Y-26467057D02*
X7090475Y-26543247D01*
X7090475Y-26543247D02*
X7090475Y-26962295D01*
X7090475Y-26543247D02*
X7052380Y-26467057D01*
X7052380Y-26467057D02*
X6976189Y-26428961D01*
X6976189Y-26428961D02*
X6861904Y-26428961D01*
X6861904Y-26428961D02*
X6785713Y-26467057D01*
X6785713Y-26467057D02*
X6747618Y-26543247D01*
X6747618Y-26543247D02*
X6747618Y-26962295D01*
X6252380Y-26962295D02*
X6328570Y-26924200D01*
X6328570Y-26924200D02*
X6366665Y-26886104D01*
X6366665Y-26886104D02*
X6404761Y-26809914D01*
X6404761Y-26809914D02*
X6404761Y-26581342D01*
X6404761Y-26581342D02*
X6366665Y-26505152D01*
X6366665Y-26505152D02*
X6328570Y-26467057D01*
X6328570Y-26467057D02*
X6252380Y-26428961D01*
X6252380Y-26428961D02*
X6138094Y-26428961D01*
X6138094Y-26428961D02*
X6061903Y-26467057D01*
X6061903Y-26467057D02*
X6023808Y-26505152D01*
X6023808Y-26505152D02*
X5985713Y-26581342D01*
X5985713Y-26581342D02*
X5985713Y-26809914D01*
X5985713Y-26809914D02*
X6023808Y-26886104D01*
X6023808Y-26886104D02*
X6061903Y-26924200D01*
X6061903Y-26924200D02*
X6138094Y-26962295D01*
X6138094Y-26962295D02*
X6252380Y-26962295D01*
X5299998Y-26962295D02*
X5299998Y-26162295D01*
X5299998Y-26924200D02*
X5376189Y-26962295D01*
X5376189Y-26962295D02*
X5528570Y-26962295D01*
X5528570Y-26962295D02*
X5604760Y-26924200D01*
X5604760Y-26924200D02*
X5642855Y-26886104D01*
X5642855Y-26886104D02*
X5680951Y-26809914D01*
X5680951Y-26809914D02*
X5680951Y-26581342D01*
X5680951Y-26581342D02*
X5642855Y-26505152D01*
X5642855Y-26505152D02*
X5604760Y-26467057D01*
X5604760Y-26467057D02*
X5528570Y-26428961D01*
X5528570Y-26428961D02*
X5376189Y-26428961D01*
X5376189Y-26428961D02*
X5299998Y-26467057D01*
X4576188Y-26428961D02*
X4576188Y-26962295D01*
X4919045Y-26428961D02*
X4919045Y-26848009D01*
X4919045Y-26848009D02*
X4880950Y-26924200D01*
X4880950Y-26924200D02*
X4804760Y-26962295D01*
X4804760Y-26962295D02*
X4690474Y-26962295D01*
X4690474Y-26962295D02*
X4614283Y-26924200D01*
X4614283Y-26924200D02*
X4576188Y-26886104D01*
X4080950Y-26962295D02*
X4157140Y-26924200D01*
X4157140Y-26924200D02*
X4195235Y-26848009D01*
X4195235Y-26848009D02*
X4195235Y-26162295D01*
X3471425Y-26924200D02*
X3547616Y-26962295D01*
X3547616Y-26962295D02*
X3699997Y-26962295D01*
X3699997Y-26962295D02*
X3776187Y-26924200D01*
X3776187Y-26924200D02*
X3814283Y-26848009D01*
X3814283Y-26848009D02*
X3814283Y-26543247D01*
X3814283Y-26543247D02*
X3776187Y-26467057D01*
X3776187Y-26467057D02*
X3699997Y-26428961D01*
X3699997Y-26428961D02*
X3547616Y-26428961D01*
X3547616Y-26428961D02*
X3471425Y-26467057D01*
X3471425Y-26467057D02*
X3433330Y-26543247D01*
X3433330Y-26543247D02*
X3433330Y-26619438D01*
X3433330Y-26619438D02*
X3814283Y-26695628D01*
X6234398Y-12208557D02*
X6020112Y-13108557D01*
X6020112Y-13108557D02*
X5848684Y-12465700D01*
X5848684Y-12465700D02*
X5677255Y-13108557D01*
X5677255Y-13108557D02*
X5462970Y-12208557D01*
X5162970Y-12851414D02*
X4734399Y-12851414D01*
X5248684Y-13108557D02*
X4948684Y-12208557D01*
X4948684Y-12208557D02*
X4648684Y-13108557D01*
X4348684Y-13108557D02*
X4348684Y-12208557D01*
X3834398Y-13108557D02*
X4220112Y-12594271D01*
X3834398Y-12208557D02*
X4348684Y-12722842D01*
X3448684Y-12637128D02*
X3148684Y-12637128D01*
X3020112Y-13108557D02*
X3448684Y-13108557D01*
X3448684Y-13108557D02*
X3448684Y-12208557D01*
X3448684Y-12208557D02*
X3020112Y-12208557D01*
X17422744Y-15562841D02*
X17465601Y-15605699D01*
X17465601Y-15605699D02*
X17594173Y-15648556D01*
X17594173Y-15648556D02*
X17679887Y-15648556D01*
X17679887Y-15648556D02*
X17808458Y-15605699D01*
X17808458Y-15605699D02*
X17894173Y-15519984D01*
X17894173Y-15519984D02*
X17937030Y-15434270D01*
X17937030Y-15434270D02*
X17979887Y-15262841D01*
X17979887Y-15262841D02*
X17979887Y-15134270D01*
X17979887Y-15134270D02*
X17937030Y-14962841D01*
X17937030Y-14962841D02*
X17894173Y-14877127D01*
X17894173Y-14877127D02*
X17808458Y-14791413D01*
X17808458Y-14791413D02*
X17679887Y-14748556D01*
X17679887Y-14748556D02*
X17594173Y-14748556D01*
X17594173Y-14748556D02*
X17465601Y-14791413D01*
X17465601Y-14791413D02*
X17422744Y-14834270D01*
X17037030Y-15648556D02*
X17037030Y-14748556D01*
X17037030Y-15177127D02*
X16522744Y-15177127D01*
X16522744Y-15648556D02*
X16522744Y-14748556D01*
X15622744Y-14791413D02*
X15708459Y-14748556D01*
X15708459Y-14748556D02*
X15837030Y-14748556D01*
X15837030Y-14748556D02*
X15965601Y-14791413D01*
X15965601Y-14791413D02*
X16051316Y-14877127D01*
X16051316Y-14877127D02*
X16094173Y-14962841D01*
X16094173Y-14962841D02*
X16137030Y-15134270D01*
X16137030Y-15134270D02*
X16137030Y-15262841D01*
X16137030Y-15262841D02*
X16094173Y-15434270D01*
X16094173Y-15434270D02*
X16051316Y-15519984D01*
X16051316Y-15519984D02*
X15965601Y-15605699D01*
X15965601Y-15605699D02*
X15837030Y-15648556D01*
X15837030Y-15648556D02*
X15751316Y-15648556D01*
X15751316Y-15648556D02*
X15622744Y-15605699D01*
X15622744Y-15605699D02*
X15579887Y-15562841D01*
X15579887Y-15562841D02*
X15579887Y-15262841D01*
X15579887Y-15262841D02*
X15751316Y-15262841D01*
X17937030Y-2948557D02*
X17937030Y-2048557D01*
X17937030Y-2048557D02*
X17722744Y-2048557D01*
X17722744Y-2048557D02*
X17594173Y-2091414D01*
X17594173Y-2091414D02*
X17508458Y-2177128D01*
X17508458Y-2177128D02*
X17465601Y-2262842D01*
X17465601Y-2262842D02*
X17422744Y-2434271D01*
X17422744Y-2434271D02*
X17422744Y-2562842D01*
X17422744Y-2562842D02*
X17465601Y-2734271D01*
X17465601Y-2734271D02*
X17508458Y-2819985D01*
X17508458Y-2819985D02*
X17594173Y-2905700D01*
X17594173Y-2905700D02*
X17722744Y-2948557D01*
X17722744Y-2948557D02*
X17937030Y-2948557D01*
X17037030Y-2605700D02*
X16351316Y-2605700D01*
X16694173Y-2948557D02*
X16694173Y-2262842D01*
X4862969Y-15177127D02*
X4734397Y-15219984D01*
X4734397Y-15219984D02*
X4691540Y-15262841D01*
X4691540Y-15262841D02*
X4648683Y-15348556D01*
X4648683Y-15348556D02*
X4648683Y-15477127D01*
X4648683Y-15477127D02*
X4691540Y-15562841D01*
X4691540Y-15562841D02*
X4734397Y-15605699D01*
X4734397Y-15605699D02*
X4820112Y-15648556D01*
X4820112Y-15648556D02*
X5162969Y-15648556D01*
X5162969Y-15648556D02*
X5162969Y-14748556D01*
X5162969Y-14748556D02*
X4862969Y-14748556D01*
X4862969Y-14748556D02*
X4777255Y-14791413D01*
X4777255Y-14791413D02*
X4734397Y-14834270D01*
X4734397Y-14834270D02*
X4691540Y-14919984D01*
X4691540Y-14919984D02*
X4691540Y-15005699D01*
X4691540Y-15005699D02*
X4734397Y-15091413D01*
X4734397Y-15091413D02*
X4777255Y-15134270D01*
X4777255Y-15134270D02*
X4862969Y-15177127D01*
X4862969Y-15177127D02*
X5162969Y-15177127D01*
X4391540Y-14748556D02*
X3877255Y-14748556D01*
X4134397Y-15648556D02*
X4134397Y-14748556D01*
X3577255Y-15648556D02*
X3577255Y-14748556D01*
X3577255Y-14748556D02*
X3062969Y-15648556D01*
X3062969Y-15648556D02*
X3062969Y-14748556D01*
X17937030Y-5488557D02*
X17937030Y-4588557D01*
X17937030Y-4588557D02*
X17722744Y-4588557D01*
X17722744Y-4588557D02*
X17594173Y-4631414D01*
X17594173Y-4631414D02*
X17508458Y-4717128D01*
X17508458Y-4717128D02*
X17465601Y-4802842D01*
X17465601Y-4802842D02*
X17422744Y-4974271D01*
X17422744Y-4974271D02*
X17422744Y-5102842D01*
X17422744Y-5102842D02*
X17465601Y-5274271D01*
X17465601Y-5274271D02*
X17508458Y-5359985D01*
X17508458Y-5359985D02*
X17594173Y-5445700D01*
X17594173Y-5445700D02*
X17722744Y-5488557D01*
X17722744Y-5488557D02*
X17937030Y-5488557D01*
X17037030Y-5145700D02*
X16351316Y-5145700D01*
X14195238Y-38962295D02*
X14195238Y-39533723D01*
X14195238Y-39533723D02*
X14233333Y-39648009D01*
X14233333Y-39648009D02*
X14309524Y-39724200D01*
X14309524Y-39724200D02*
X14423809Y-39762295D01*
X14423809Y-39762295D02*
X14500000Y-39762295D01*
X13433333Y-39762295D02*
X13814285Y-39762295D01*
X13814285Y-39762295D02*
X13814285Y-38962295D01*
X12709523Y-39686104D02*
X12747619Y-39724200D01*
X12747619Y-39724200D02*
X12861904Y-39762295D01*
X12861904Y-39762295D02*
X12938095Y-39762295D01*
X12938095Y-39762295D02*
X13052381Y-39724200D01*
X13052381Y-39724200D02*
X13128571Y-39648009D01*
X13128571Y-39648009D02*
X13166666Y-39571819D01*
X13166666Y-39571819D02*
X13204762Y-39419438D01*
X13204762Y-39419438D02*
X13204762Y-39305152D01*
X13204762Y-39305152D02*
X13166666Y-39152771D01*
X13166666Y-39152771D02*
X13128571Y-39076580D01*
X13128571Y-39076580D02*
X13052381Y-39000390D01*
X13052381Y-39000390D02*
X12938095Y-38962295D01*
X12938095Y-38962295D02*
X12861904Y-38962295D01*
X12861904Y-38962295D02*
X12747619Y-39000390D01*
X12747619Y-39000390D02*
X12709523Y-39038485D01*
X12138095Y-38962295D02*
X12138095Y-39533723D01*
X12138095Y-39533723D02*
X12176190Y-39648009D01*
X12176190Y-39648009D02*
X12252381Y-39724200D01*
X12252381Y-39724200D02*
X12366666Y-39762295D01*
X12366666Y-39762295D02*
X12442857Y-39762295D01*
X11376190Y-39762295D02*
X11757142Y-39762295D01*
X11757142Y-39762295D02*
X11757142Y-38962295D01*
X10652380Y-39686104D02*
X10690476Y-39724200D01*
X10690476Y-39724200D02*
X10804761Y-39762295D01*
X10804761Y-39762295D02*
X10880952Y-39762295D01*
X10880952Y-39762295D02*
X10995238Y-39724200D01*
X10995238Y-39724200D02*
X11071428Y-39648009D01*
X11071428Y-39648009D02*
X11109523Y-39571819D01*
X11109523Y-39571819D02*
X11147619Y-39419438D01*
X11147619Y-39419438D02*
X11147619Y-39305152D01*
X11147619Y-39305152D02*
X11109523Y-39152771D01*
X11109523Y-39152771D02*
X11071428Y-39076580D01*
X11071428Y-39076580D02*
X10995238Y-39000390D01*
X10995238Y-39000390D02*
X10880952Y-38962295D01*
X10880952Y-38962295D02*
X10804761Y-38962295D01*
X10804761Y-38962295D02*
X10690476Y-39000390D01*
X10690476Y-39000390D02*
X10652380Y-39038485D01*
X10080952Y-38962295D02*
X10080952Y-39533723D01*
X10080952Y-39533723D02*
X10119047Y-39648009D01*
X10119047Y-39648009D02*
X10195238Y-39724200D01*
X10195238Y-39724200D02*
X10309523Y-39762295D01*
X10309523Y-39762295D02*
X10385714Y-39762295D01*
X9319047Y-39762295D02*
X9699999Y-39762295D01*
X9699999Y-39762295D02*
X9699999Y-38962295D01*
X8595237Y-39686104D02*
X8633333Y-39724200D01*
X8633333Y-39724200D02*
X8747618Y-39762295D01*
X8747618Y-39762295D02*
X8823809Y-39762295D01*
X8823809Y-39762295D02*
X8938095Y-39724200D01*
X8938095Y-39724200D02*
X9014285Y-39648009D01*
X9014285Y-39648009D02*
X9052380Y-39571819D01*
X9052380Y-39571819D02*
X9090476Y-39419438D01*
X9090476Y-39419438D02*
X9090476Y-39305152D01*
X9090476Y-39305152D02*
X9052380Y-39152771D01*
X9052380Y-39152771D02*
X9014285Y-39076580D01*
X9014285Y-39076580D02*
X8938095Y-39000390D01*
X8938095Y-39000390D02*
X8823809Y-38962295D01*
X8823809Y-38962295D02*
X8747618Y-38962295D01*
X8747618Y-38962295D02*
X8633333Y-39000390D01*
X8633333Y-39000390D02*
X8595237Y-39038485D01*
X8023809Y-38962295D02*
X8023809Y-39533723D01*
X8023809Y-39533723D02*
X8061904Y-39648009D01*
X8061904Y-39648009D02*
X8138095Y-39724200D01*
X8138095Y-39724200D02*
X8252380Y-39762295D01*
X8252380Y-39762295D02*
X8328571Y-39762295D01*
X7261904Y-39762295D02*
X7642856Y-39762295D01*
X7642856Y-39762295D02*
X7642856Y-38962295D01*
X6538094Y-39686104D02*
X6576190Y-39724200D01*
X6576190Y-39724200D02*
X6690475Y-39762295D01*
X6690475Y-39762295D02*
X6766666Y-39762295D01*
X6766666Y-39762295D02*
X6880952Y-39724200D01*
X6880952Y-39724200D02*
X6957142Y-39648009D01*
X6957142Y-39648009D02*
X6995237Y-39571819D01*
X6995237Y-39571819D02*
X7033333Y-39419438D01*
X7033333Y-39419438D02*
X7033333Y-39305152D01*
X7033333Y-39305152D02*
X6995237Y-39152771D01*
X6995237Y-39152771D02*
X6957142Y-39076580D01*
X6957142Y-39076580D02*
X6880952Y-39000390D01*
X6880952Y-39000390D02*
X6766666Y-38962295D01*
X6766666Y-38962295D02*
X6690475Y-38962295D01*
X6690475Y-38962295D02*
X6576190Y-39000390D01*
X6576190Y-39000390D02*
X6538094Y-39038485D01*
X17979887Y-10525700D02*
X17851316Y-10568557D01*
X17851316Y-10568557D02*
X17637030Y-10568557D01*
X17637030Y-10568557D02*
X17551316Y-10525700D01*
X17551316Y-10525700D02*
X17508458Y-10482842D01*
X17508458Y-10482842D02*
X17465601Y-10397128D01*
X17465601Y-10397128D02*
X17465601Y-10311414D01*
X17465601Y-10311414D02*
X17508458Y-10225700D01*
X17508458Y-10225700D02*
X17551316Y-10182842D01*
X17551316Y-10182842D02*
X17637030Y-10139985D01*
X17637030Y-10139985D02*
X17808458Y-10097128D01*
X17808458Y-10097128D02*
X17894173Y-10054271D01*
X17894173Y-10054271D02*
X17937030Y-10011414D01*
X17937030Y-10011414D02*
X17979887Y-9925700D01*
X17979887Y-9925700D02*
X17979887Y-9839985D01*
X17979887Y-9839985D02*
X17937030Y-9754271D01*
X17937030Y-9754271D02*
X17894173Y-9711414D01*
X17894173Y-9711414D02*
X17808458Y-9668557D01*
X17808458Y-9668557D02*
X17594173Y-9668557D01*
X17594173Y-9668557D02*
X17465601Y-9711414D01*
X16565601Y-10482842D02*
X16608458Y-10525700D01*
X16608458Y-10525700D02*
X16737030Y-10568557D01*
X16737030Y-10568557D02*
X16822744Y-10568557D01*
X16822744Y-10568557D02*
X16951315Y-10525700D01*
X16951315Y-10525700D02*
X17037030Y-10439985D01*
X17037030Y-10439985D02*
X17079887Y-10354271D01*
X17079887Y-10354271D02*
X17122744Y-10182842D01*
X17122744Y-10182842D02*
X17122744Y-10054271D01*
X17122744Y-10054271D02*
X17079887Y-9882842D01*
X17079887Y-9882842D02*
X17037030Y-9797128D01*
X17037030Y-9797128D02*
X16951315Y-9711414D01*
X16951315Y-9711414D02*
X16822744Y-9668557D01*
X16822744Y-9668557D02*
X16737030Y-9668557D01*
X16737030Y-9668557D02*
X16608458Y-9711414D01*
X16608458Y-9711414D02*
X16565601Y-9754271D01*
X15751315Y-10568557D02*
X16179887Y-10568557D01*
X16179887Y-10568557D02*
X16179887Y-9668557D01*
X6148683Y-10568557D02*
X6148683Y-9668557D01*
X6148683Y-10097128D02*
X5634397Y-10097128D01*
X5634397Y-10568557D02*
X5634397Y-9668557D01*
X5034397Y-9668557D02*
X4862969Y-9668557D01*
X4862969Y-9668557D02*
X4777254Y-9711414D01*
X4777254Y-9711414D02*
X4691540Y-9797128D01*
X4691540Y-9797128D02*
X4648683Y-9968557D01*
X4648683Y-9968557D02*
X4648683Y-10268557D01*
X4648683Y-10268557D02*
X4691540Y-10439985D01*
X4691540Y-10439985D02*
X4777254Y-10525700D01*
X4777254Y-10525700D02*
X4862969Y-10568557D01*
X4862969Y-10568557D02*
X5034397Y-10568557D01*
X5034397Y-10568557D02*
X5120112Y-10525700D01*
X5120112Y-10525700D02*
X5205826Y-10439985D01*
X5205826Y-10439985D02*
X5248683Y-10268557D01*
X5248683Y-10268557D02*
X5248683Y-9968557D01*
X5248683Y-9968557D02*
X5205826Y-9797128D01*
X5205826Y-9797128D02*
X5120112Y-9711414D01*
X5120112Y-9711414D02*
X5034397Y-9668557D01*
X3834397Y-10568557D02*
X4262969Y-10568557D01*
X4262969Y-10568557D02*
X4262969Y-9668557D01*
X3534398Y-10568557D02*
X3534398Y-9668557D01*
X3534398Y-9668557D02*
X3320112Y-9668557D01*
X3320112Y-9668557D02*
X3191541Y-9711414D01*
X3191541Y-9711414D02*
X3105826Y-9797128D01*
X3105826Y-9797128D02*
X3062969Y-9882842D01*
X3062969Y-9882842D02*
X3020112Y-10054271D01*
X3020112Y-10054271D02*
X3020112Y-10182842D01*
X3020112Y-10182842D02*
X3062969Y-10354271D01*
X3062969Y-10354271D02*
X3105826Y-10439985D01*
X3105826Y-10439985D02*
X3191541Y-10525700D01*
X3191541Y-10525700D02*
X3320112Y-10568557D01*
X3320112Y-10568557D02*
X3534398Y-10568557D01*
X4905826Y-4631414D02*
X4991541Y-4588557D01*
X4991541Y-4588557D02*
X5120112Y-4588557D01*
X5120112Y-4588557D02*
X5248683Y-4631414D01*
X5248683Y-4631414D02*
X5334398Y-4717128D01*
X5334398Y-4717128D02*
X5377255Y-4802842D01*
X5377255Y-4802842D02*
X5420112Y-4974271D01*
X5420112Y-4974271D02*
X5420112Y-5102842D01*
X5420112Y-5102842D02*
X5377255Y-5274271D01*
X5377255Y-5274271D02*
X5334398Y-5359985D01*
X5334398Y-5359985D02*
X5248683Y-5445700D01*
X5248683Y-5445700D02*
X5120112Y-5488557D01*
X5120112Y-5488557D02*
X5034398Y-5488557D01*
X5034398Y-5488557D02*
X4905826Y-5445700D01*
X4905826Y-5445700D02*
X4862969Y-5402842D01*
X4862969Y-5402842D02*
X4862969Y-5102842D01*
X4862969Y-5102842D02*
X5034398Y-5102842D01*
X4477255Y-5488557D02*
X4477255Y-4588557D01*
X4477255Y-4588557D02*
X3962969Y-5488557D01*
X3962969Y-5488557D02*
X3962969Y-4588557D01*
X3534398Y-5488557D02*
X3534398Y-4588557D01*
X3534398Y-4588557D02*
X3320112Y-4588557D01*
X3320112Y-4588557D02*
X3191541Y-4631414D01*
X3191541Y-4631414D02*
X3105826Y-4717128D01*
X3105826Y-4717128D02*
X3062969Y-4802842D01*
X3062969Y-4802842D02*
X3020112Y-4974271D01*
X3020112Y-4974271D02*
X3020112Y-5102842D01*
X3020112Y-5102842D02*
X3062969Y-5274271D01*
X3062969Y-5274271D02*
X3105826Y-5359985D01*
X3105826Y-5359985D02*
X3191541Y-5445700D01*
X3191541Y-5445700D02*
X3320112Y-5488557D01*
X3320112Y-5488557D02*
X3534398Y-5488557D01*
X18022744Y-17288557D02*
X17465601Y-17288557D01*
X17465601Y-17288557D02*
X17765601Y-17631414D01*
X17765601Y-17631414D02*
X17637030Y-17631414D01*
X17637030Y-17631414D02*
X17551316Y-17674271D01*
X17551316Y-17674271D02*
X17508458Y-17717128D01*
X17508458Y-17717128D02*
X17465601Y-17802842D01*
X17465601Y-17802842D02*
X17465601Y-18017128D01*
X17465601Y-18017128D02*
X17508458Y-18102842D01*
X17508458Y-18102842D02*
X17551316Y-18145700D01*
X17551316Y-18145700D02*
X17637030Y-18188557D01*
X17637030Y-18188557D02*
X17894173Y-18188557D01*
X17894173Y-18188557D02*
X17979887Y-18145700D01*
X17979887Y-18145700D02*
X18022744Y-18102842D01*
X17208458Y-17288557D02*
X16908458Y-18188557D01*
X16908458Y-18188557D02*
X16608458Y-17288557D01*
X16394172Y-17288557D02*
X15837029Y-17288557D01*
X15837029Y-17288557D02*
X16137029Y-17631414D01*
X16137029Y-17631414D02*
X16008458Y-17631414D01*
X16008458Y-17631414D02*
X15922744Y-17674271D01*
X15922744Y-17674271D02*
X15879886Y-17717128D01*
X15879886Y-17717128D02*
X15837029Y-17802842D01*
X15837029Y-17802842D02*
X15837029Y-18017128D01*
X15837029Y-18017128D02*
X15879886Y-18102842D01*
X15879886Y-18102842D02*
X15922744Y-18145700D01*
X15922744Y-18145700D02*
X16008458Y-18188557D01*
X16008458Y-18188557D02*
X16265601Y-18188557D01*
X16265601Y-18188557D02*
X16351315Y-18145700D01*
X16351315Y-18145700D02*
X16394172Y-18102842D01*
X11642857Y-28028961D02*
X11452381Y-28562295D01*
X11452381Y-28562295D02*
X11261904Y-28028961D01*
X10538095Y-28562295D02*
X10995238Y-28562295D01*
X10766666Y-28562295D02*
X10766666Y-27762295D01*
X10766666Y-27762295D02*
X10842857Y-27876580D01*
X10842857Y-27876580D02*
X10919047Y-27952771D01*
X10919047Y-27952771D02*
X10995238Y-27990866D01*
X10195237Y-28486104D02*
X10157142Y-28524200D01*
X10157142Y-28524200D02*
X10195237Y-28562295D01*
X10195237Y-28562295D02*
X10233333Y-28524200D01*
X10233333Y-28524200D02*
X10195237Y-28486104D01*
X10195237Y-28486104D02*
X10195237Y-28562295D01*
X9661904Y-27762295D02*
X9585714Y-27762295D01*
X9585714Y-27762295D02*
X9509523Y-27800390D01*
X9509523Y-27800390D02*
X9471428Y-27838485D01*
X9471428Y-27838485D02*
X9433333Y-27914676D01*
X9433333Y-27914676D02*
X9395238Y-28067057D01*
X9395238Y-28067057D02*
X9395238Y-28257533D01*
X9395238Y-28257533D02*
X9433333Y-28409914D01*
X9433333Y-28409914D02*
X9471428Y-28486104D01*
X9471428Y-28486104D02*
X9509523Y-28524200D01*
X9509523Y-28524200D02*
X9585714Y-28562295D01*
X9585714Y-28562295D02*
X9661904Y-28562295D01*
X9661904Y-28562295D02*
X9738095Y-28524200D01*
X9738095Y-28524200D02*
X9776190Y-28486104D01*
X9776190Y-28486104D02*
X9814285Y-28409914D01*
X9814285Y-28409914D02*
X9852381Y-28257533D01*
X9852381Y-28257533D02*
X9852381Y-28067057D01*
X9852381Y-28067057D02*
X9814285Y-27914676D01*
X9814285Y-27914676D02*
X9776190Y-27838485D01*
X9776190Y-27838485D02*
X9738095Y-27800390D01*
X9738095Y-27800390D02*
X9661904Y-27762295D01*
X16842858Y-34162295D02*
X16842858Y-34733723D01*
X16842858Y-34733723D02*
X16880953Y-34848009D01*
X16880953Y-34848009D02*
X16957144Y-34924200D01*
X16957144Y-34924200D02*
X17071429Y-34962295D01*
X17071429Y-34962295D02*
X17147620Y-34962295D01*
X16461905Y-34962295D02*
X16461905Y-34162295D01*
X16461905Y-34162295D02*
X16157143Y-34162295D01*
X16157143Y-34162295D02*
X16080953Y-34200390D01*
X16080953Y-34200390D02*
X16042858Y-34238485D01*
X16042858Y-34238485D02*
X16004762Y-34314676D01*
X16004762Y-34314676D02*
X16004762Y-34428961D01*
X16004762Y-34428961D02*
X16042858Y-34505152D01*
X16042858Y-34505152D02*
X16080953Y-34543247D01*
X16080953Y-34543247D02*
X16157143Y-34581342D01*
X16157143Y-34581342D02*
X16461905Y-34581342D01*
X15700001Y-34238485D02*
X15661905Y-34200390D01*
X15661905Y-34200390D02*
X15585715Y-34162295D01*
X15585715Y-34162295D02*
X15395239Y-34162295D01*
X15395239Y-34162295D02*
X15319048Y-34200390D01*
X15319048Y-34200390D02*
X15280953Y-34238485D01*
X15280953Y-34238485D02*
X15242858Y-34314676D01*
X15242858Y-34314676D02*
X15242858Y-34390866D01*
X15242858Y-34390866D02*
X15280953Y-34505152D01*
X15280953Y-34505152D02*
X15738096Y-34962295D01*
X15738096Y-34962295D02*
X15242858Y-34962295D01*
X14290476Y-34962295D02*
X14290476Y-34162295D01*
X14290476Y-34467057D02*
X14214286Y-34428961D01*
X14214286Y-34428961D02*
X14061905Y-34428961D01*
X14061905Y-34428961D02*
X13985714Y-34467057D01*
X13985714Y-34467057D02*
X13947619Y-34505152D01*
X13947619Y-34505152D02*
X13909524Y-34581342D01*
X13909524Y-34581342D02*
X13909524Y-34809914D01*
X13909524Y-34809914D02*
X13947619Y-34886104D01*
X13947619Y-34886104D02*
X13985714Y-34924200D01*
X13985714Y-34924200D02*
X14061905Y-34962295D01*
X14061905Y-34962295D02*
X14214286Y-34962295D01*
X14214286Y-34962295D02*
X14290476Y-34924200D01*
X13566666Y-34962295D02*
X13566666Y-34428961D01*
X13566666Y-34581342D02*
X13528571Y-34505152D01*
X13528571Y-34505152D02*
X13490476Y-34467057D01*
X13490476Y-34467057D02*
X13414285Y-34428961D01*
X13414285Y-34428961D02*
X13338095Y-34428961D01*
X13071428Y-34962295D02*
X13071428Y-34428961D01*
X13071428Y-34162295D02*
X13109524Y-34200390D01*
X13109524Y-34200390D02*
X13071428Y-34238485D01*
X13071428Y-34238485D02*
X13033333Y-34200390D01*
X13033333Y-34200390D02*
X13071428Y-34162295D01*
X13071428Y-34162295D02*
X13071428Y-34238485D01*
X12347619Y-34962295D02*
X12347619Y-34162295D01*
X12347619Y-34924200D02*
X12423810Y-34962295D01*
X12423810Y-34962295D02*
X12576191Y-34962295D01*
X12576191Y-34962295D02*
X12652381Y-34924200D01*
X12652381Y-34924200D02*
X12690476Y-34886104D01*
X12690476Y-34886104D02*
X12728572Y-34809914D01*
X12728572Y-34809914D02*
X12728572Y-34581342D01*
X12728572Y-34581342D02*
X12690476Y-34505152D01*
X12690476Y-34505152D02*
X12652381Y-34467057D01*
X12652381Y-34467057D02*
X12576191Y-34428961D01*
X12576191Y-34428961D02*
X12423810Y-34428961D01*
X12423810Y-34428961D02*
X12347619Y-34467057D01*
X11623809Y-34428961D02*
X11623809Y-35076580D01*
X11623809Y-35076580D02*
X11661904Y-35152771D01*
X11661904Y-35152771D02*
X11700000Y-35190866D01*
X11700000Y-35190866D02*
X11776190Y-35228961D01*
X11776190Y-35228961D02*
X11890476Y-35228961D01*
X11890476Y-35228961D02*
X11966666Y-35190866D01*
X11623809Y-34924200D02*
X11700000Y-34962295D01*
X11700000Y-34962295D02*
X11852381Y-34962295D01*
X11852381Y-34962295D02*
X11928571Y-34924200D01*
X11928571Y-34924200D02*
X11966666Y-34886104D01*
X11966666Y-34886104D02*
X12004762Y-34809914D01*
X12004762Y-34809914D02*
X12004762Y-34581342D01*
X12004762Y-34581342D02*
X11966666Y-34505152D01*
X11966666Y-34505152D02*
X11928571Y-34467057D01*
X11928571Y-34467057D02*
X11852381Y-34428961D01*
X11852381Y-34428961D02*
X11700000Y-34428961D01*
X11700000Y-34428961D02*
X11623809Y-34467057D01*
X10938094Y-34924200D02*
X11014285Y-34962295D01*
X11014285Y-34962295D02*
X11166666Y-34962295D01*
X11166666Y-34962295D02*
X11242856Y-34924200D01*
X11242856Y-34924200D02*
X11280952Y-34848009D01*
X11280952Y-34848009D02*
X11280952Y-34543247D01*
X11280952Y-34543247D02*
X11242856Y-34467057D01*
X11242856Y-34467057D02*
X11166666Y-34428961D01*
X11166666Y-34428961D02*
X11014285Y-34428961D01*
X11014285Y-34428961D02*
X10938094Y-34467057D01*
X10938094Y-34467057D02*
X10899999Y-34543247D01*
X10899999Y-34543247D02*
X10899999Y-34619438D01*
X10899999Y-34619438D02*
X11280952Y-34695628D01*
X10557142Y-34886104D02*
X10519047Y-34924200D01*
X10519047Y-34924200D02*
X10557142Y-34962295D01*
X10557142Y-34962295D02*
X10595238Y-34924200D01*
X10595238Y-34924200D02*
X10557142Y-34886104D01*
X10557142Y-34886104D02*
X10557142Y-34962295D01*
X10557142Y-34467057D02*
X10519047Y-34505152D01*
X10519047Y-34505152D02*
X10557142Y-34543247D01*
X10557142Y-34543247D02*
X10595238Y-34505152D01*
X10595238Y-34505152D02*
X10557142Y-34467057D01*
X10557142Y-34467057D02*
X10557142Y-34543247D01*
X9223809Y-34962295D02*
X9223809Y-34543247D01*
X9223809Y-34543247D02*
X9261904Y-34467057D01*
X9261904Y-34467057D02*
X9338095Y-34428961D01*
X9338095Y-34428961D02*
X9490476Y-34428961D01*
X9490476Y-34428961D02*
X9566666Y-34467057D01*
X9223809Y-34924200D02*
X9300000Y-34962295D01*
X9300000Y-34962295D02*
X9490476Y-34962295D01*
X9490476Y-34962295D02*
X9566666Y-34924200D01*
X9566666Y-34924200D02*
X9604762Y-34848009D01*
X9604762Y-34848009D02*
X9604762Y-34771819D01*
X9604762Y-34771819D02*
X9566666Y-34695628D01*
X9566666Y-34695628D02*
X9490476Y-34657533D01*
X9490476Y-34657533D02*
X9300000Y-34657533D01*
X9300000Y-34657533D02*
X9223809Y-34619438D01*
X8728571Y-34962295D02*
X8804761Y-34924200D01*
X8804761Y-34924200D02*
X8842856Y-34848009D01*
X8842856Y-34848009D02*
X8842856Y-34162295D01*
X8499999Y-34428961D02*
X8347618Y-34962295D01*
X8347618Y-34962295D02*
X8195237Y-34581342D01*
X8195237Y-34581342D02*
X8042856Y-34962295D01*
X8042856Y-34962295D02*
X7890475Y-34428961D01*
X7242856Y-34962295D02*
X7242856Y-34543247D01*
X7242856Y-34543247D02*
X7280951Y-34467057D01*
X7280951Y-34467057D02*
X7357142Y-34428961D01*
X7357142Y-34428961D02*
X7509523Y-34428961D01*
X7509523Y-34428961D02*
X7585713Y-34467057D01*
X7242856Y-34924200D02*
X7319047Y-34962295D01*
X7319047Y-34962295D02*
X7509523Y-34962295D01*
X7509523Y-34962295D02*
X7585713Y-34924200D01*
X7585713Y-34924200D02*
X7623809Y-34848009D01*
X7623809Y-34848009D02*
X7623809Y-34771819D01*
X7623809Y-34771819D02*
X7585713Y-34695628D01*
X7585713Y-34695628D02*
X7509523Y-34657533D01*
X7509523Y-34657533D02*
X7319047Y-34657533D01*
X7319047Y-34657533D02*
X7242856Y-34619438D01*
X6938094Y-34428961D02*
X6747618Y-34962295D01*
X6557141Y-34428961D02*
X6747618Y-34962295D01*
X6747618Y-34962295D02*
X6823808Y-35152771D01*
X6823808Y-35152771D02*
X6861903Y-35190866D01*
X6861903Y-35190866D02*
X6938094Y-35228961D01*
X6290475Y-34924200D02*
X6214284Y-34962295D01*
X6214284Y-34962295D02*
X6061903Y-34962295D01*
X6061903Y-34962295D02*
X5985713Y-34924200D01*
X5985713Y-34924200D02*
X5947617Y-34848009D01*
X5947617Y-34848009D02*
X5947617Y-34809914D01*
X5947617Y-34809914D02*
X5985713Y-34733723D01*
X5985713Y-34733723D02*
X6061903Y-34695628D01*
X6061903Y-34695628D02*
X6176189Y-34695628D01*
X6176189Y-34695628D02*
X6252379Y-34657533D01*
X6252379Y-34657533D02*
X6290475Y-34581342D01*
X6290475Y-34581342D02*
X6290475Y-34543247D01*
X6290475Y-34543247D02*
X6252379Y-34467057D01*
X6252379Y-34467057D02*
X6176189Y-34428961D01*
X6176189Y-34428961D02*
X6061903Y-34428961D01*
X6061903Y-34428961D02*
X5985713Y-34467057D01*
X4880951Y-34962295D02*
X4957141Y-34924200D01*
X4957141Y-34924200D02*
X4995236Y-34886104D01*
X4995236Y-34886104D02*
X5033332Y-34809914D01*
X5033332Y-34809914D02*
X5033332Y-34581342D01*
X5033332Y-34581342D02*
X4995236Y-34505152D01*
X4995236Y-34505152D02*
X4957141Y-34467057D01*
X4957141Y-34467057D02*
X4880951Y-34428961D01*
X4880951Y-34428961D02*
X4766665Y-34428961D01*
X4766665Y-34428961D02*
X4690474Y-34467057D01*
X4690474Y-34467057D02*
X4652379Y-34505152D01*
X4652379Y-34505152D02*
X4614284Y-34581342D01*
X4614284Y-34581342D02*
X4614284Y-34809914D01*
X4614284Y-34809914D02*
X4652379Y-34886104D01*
X4652379Y-34886104D02*
X4690474Y-34924200D01*
X4690474Y-34924200D02*
X4766665Y-34962295D01*
X4766665Y-34962295D02*
X4880951Y-34962295D01*
X4271426Y-34428961D02*
X4271426Y-34962295D01*
X4271426Y-34505152D02*
X4233331Y-34467057D01*
X4233331Y-34467057D02*
X4157141Y-34428961D01*
X4157141Y-34428961D02*
X4042855Y-34428961D01*
X4042855Y-34428961D02*
X3966664Y-34467057D01*
X3966664Y-34467057D02*
X3928569Y-34543247D01*
X3928569Y-34543247D02*
X3928569Y-34962295D01*
X5205827Y-7128557D02*
X4648684Y-7128557D01*
X4648684Y-7128557D02*
X4948684Y-7471414D01*
X4948684Y-7471414D02*
X4820113Y-7471414D01*
X4820113Y-7471414D02*
X4734399Y-7514271D01*
X4734399Y-7514271D02*
X4691541Y-7557128D01*
X4691541Y-7557128D02*
X4648684Y-7642842D01*
X4648684Y-7642842D02*
X4648684Y-7857128D01*
X4648684Y-7857128D02*
X4691541Y-7942842D01*
X4691541Y-7942842D02*
X4734399Y-7985700D01*
X4734399Y-7985700D02*
X4820113Y-8028557D01*
X4820113Y-8028557D02*
X5077256Y-8028557D01*
X5077256Y-8028557D02*
X5162970Y-7985700D01*
X5162970Y-7985700D02*
X5205827Y-7942842D01*
X4391541Y-7128557D02*
X4091541Y-8028557D01*
X4091541Y-8028557D02*
X3791541Y-7128557D01*
X3577255Y-7128557D02*
X3020112Y-7128557D01*
X3020112Y-7128557D02*
X3320112Y-7471414D01*
X3320112Y-7471414D02*
X3191541Y-7471414D01*
X3191541Y-7471414D02*
X3105827Y-7514271D01*
X3105827Y-7514271D02*
X3062969Y-7557128D01*
X3062969Y-7557128D02*
X3020112Y-7642842D01*
X3020112Y-7642842D02*
X3020112Y-7857128D01*
X3020112Y-7857128D02*
X3062969Y-7942842D01*
X3062969Y-7942842D02*
X3105827Y-7985700D01*
X3105827Y-7985700D02*
X3191541Y-8028557D01*
X3191541Y-8028557D02*
X3448684Y-8028557D01*
X3448684Y-8028557D02*
X3534398Y-7985700D01*
X3534398Y-7985700D02*
X3577255Y-7942842D01*
D12*
X2157142Y-43487600D02*
X1242857Y-43487600D01*
X1699999Y-43944742D02*
X1699999Y-43030457D01*
X10857142Y-43487600D02*
X9942857Y-43487600D01*
%LPC*%
D13*
%TO.C,J1*%
X13390000Y-5650000D03*
X7610000Y-5650000D03*
D14*
X14820000Y-6180000D03*
D15*
X14820000Y-2000000D03*
D14*
X6180000Y-6180000D03*
D15*
X6180000Y-2000000D03*
%TD*%
D16*
%TO.C,J2*%
X1610000Y-2540000D03*
D17*
X1610000Y-5080000D03*
X1610000Y-7620000D03*
X1610000Y-10160000D03*
X1610000Y-12700000D03*
X1610000Y-15240000D03*
X1610000Y-17780000D03*
X1610000Y-20320000D03*
%TD*%
D18*
%TO.C,BT1*%
X3600000Y-43400000D03*
D19*
X3600000Y-46400000D03*
D20*
X7100000Y-46400000D03*
D21*
X8600000Y-43400000D03*
%TD*%
D16*
%TO.C,J3*%
X19390000Y-2540000D03*
D17*
X19390000Y-5080000D03*
X19390000Y-7620000D03*
X19390000Y-10160000D03*
X19390000Y-12700000D03*
X19390000Y-15240000D03*
X19390000Y-17780000D03*
X19390000Y-20320000D03*
%TD*%
%LPD*%
M02*
