%TF.GenerationSoftware,KiCad,Pcbnew,7.0.11+dfsg-1build4*%
%TF.CreationDate,2026-09-25T11:13:45+00:00*%
%TF.ProjectId,capcore,63617063-6f72-4652-9e6b-696361645f70,rev?*%
%TF.SameCoordinates,Original*%
%TF.FileFunction,Soldermask,Top*%
%TF.FilePolarity,Negative*%
%FSLAX46Y46*%
G04 Gerber Fmt 4.6, Leading zero omitted, Abs format (unit mm)*
G04 Created by KiCad (PCBNEW 7.0.11+dfsg-1build4) date 2026-09-25 11:13:45*
%MOMM*%
%LPD*%
G01*
G04 APERTURE LIST*
G04 Aperture macros list*
%AMRoundRect*
0 Rectangle with rounded corners*
0 $1 Rounding radius*
0 $2 $3 $4 $5 $6 $7 $8 $9 X,Y pos of 4 corners*
0 Add a 4 corners polygon primitive as box body*
4,1,4,$2,$3,$4,$5,$6,$7,$8,$9,$2,$3,0*
0 Add four circle primitives for the rounded corners*
1,1,$1+$1,$2,$3*
1,1,$1+$1,$4,$5*
1,1,$1+$1,$6,$7*
1,1,$1+$1,$8,$9*
0 Add four rect primitives between the rounded corners*
20,1,$1+$1,$2,$3,$4,$5,0*
20,1,$1+$1,$4,$5,$6,$7,0*
20,1,$1+$1,$6,$7,$8,$9,0*
20,1,$1+$1,$8,$9,$2,$3,0*%
%AMFreePoly0*
4,1,19,0.500000,-0.750000,0.000000,-0.750000,0.000000,-0.744911,-0.071157,-0.744911,-0.207708,-0.704816,-0.327430,-0.627875,-0.420627,-0.520320,-0.479746,-0.390866,-0.500000,-0.250000,-0.500000,0.250000,-0.479746,0.390866,-0.420627,0.520320,-0.327430,0.627875,-0.207708,0.704816,-0.071157,0.744911,0.000000,0.744911,0.000000,0.750000,0.500000,0.750000,0.500000,-0.750000,0.500000,-0.750000,
$1*%
%AMFreePoly1*
4,1,19,0.000000,0.744911,0.071157,0.744911,0.207708,0.704816,0.327430,0.627875,0.420627,0.520320,0.479746,0.390866,0.500000,0.250000,0.500000,-0.250000,0.479746,-0.390866,0.420627,-0.520320,0.327430,-0.627875,0.207708,-0.704816,0.071157,-0.744911,0.000000,-0.744911,0.000000,-0.750000,-0.500000,-0.750000,-0.500000,0.750000,0.000000,0.750000,0.000000,0.744911,0.000000,0.744911,
$1*%
G04 Aperture macros list end*
%ADD10RoundRect,0.140000X-0.140000X-0.170000X0.140000X-0.170000X0.140000X0.170000X-0.140000X0.170000X0*%
%ADD11RoundRect,0.135000X0.185000X-0.135000X0.185000X0.135000X-0.185000X0.135000X-0.185000X-0.135000X0*%
%ADD12RoundRect,0.250000X-0.600000X-0.250000X0.600000X-0.250000X0.600000X0.250000X-0.600000X0.250000X0*%
%ADD13RoundRect,0.135000X-0.135000X-0.185000X0.135000X-0.185000X0.135000X0.185000X-0.135000X0.185000X0*%
%ADD14RoundRect,0.150000X-0.587500X-0.150000X0.587500X-0.150000X0.587500X0.150000X-0.587500X0.150000X0*%
%ADD15FreePoly0,0.000000*%
%ADD16FreePoly1,0.000000*%
%ADD17RoundRect,0.062500X-0.350000X-0.062500X0.350000X-0.062500X0.350000X0.062500X-0.350000X0.062500X0*%
%ADD18R,1.200000X2.000000*%
%ADD19RoundRect,0.140000X-0.170000X0.140000X-0.170000X-0.140000X0.170000X-0.140000X0.170000X0.140000X0*%
%ADD20RoundRect,0.150000X-0.150000X0.825000X-0.150000X-0.825000X0.150000X-0.825000X0.150000X0.825000X0*%
%ADD21RoundRect,0.250000X-0.250000X-0.475000X0.250000X-0.475000X0.250000X0.475000X-0.250000X0.475000X0*%
%ADD22RoundRect,0.112500X-0.187500X-0.112500X0.187500X-0.112500X0.187500X0.112500X-0.187500X0.112500X0*%
%ADD23RoundRect,0.250000X0.475000X-0.250000X0.475000X0.250000X-0.475000X0.250000X-0.475000X-0.250000X0*%
%ADD24RoundRect,0.225000X-0.250000X0.225000X-0.250000X-0.225000X0.250000X-0.225000X0.250000X0.225000X0*%
%ADD25RoundRect,0.135000X-0.185000X0.135000X-0.185000X-0.135000X0.185000X-0.135000X0.185000X0.135000X0*%
%ADD26C,0.650000*%
%ADD27R,0.600000X1.450000*%
%ADD28R,0.300000X1.450000*%
%ADD29O,1.000000X2.100000*%
%ADD30O,1.000000X1.600000*%
%ADD31R,1.700000X1.700000*%
%ADD32O,1.700000X1.700000*%
%ADD33RoundRect,0.150000X-0.512500X-0.150000X0.512500X-0.150000X0.512500X0.150000X-0.512500X0.150000X0*%
%ADD34RoundRect,0.135000X0.135000X0.185000X-0.135000X0.185000X-0.135000X-0.185000X0.135000X-0.185000X0*%
%ADD35RoundRect,0.062500X-0.187500X-0.062500X0.187500X-0.062500X0.187500X0.062500X-0.187500X0.062500X0*%
%ADD36R,0.900000X1.600000*%
%ADD37R,1.000000X1.800000*%
%ADD38RoundRect,0.218750X-0.218750X-0.256250X0.218750X-0.256250X0.218750X0.256250X-0.218750X0.256250X0*%
%ADD39RoundRect,0.225000X-0.225000X-0.250000X0.225000X-0.250000X0.225000X0.250000X-0.225000X0.250000X0*%
%ADD40R,1.800000X1.800000*%
%ADD41R,1.600000X1.600000*%
%ADD42C,1.600000*%
%ADD43C,1.800000*%
%ADD44R,3.200000X1.400000*%
G04 APERTURE END LIST*
D10*
%TO.C,C6*%
X8720000Y-13800000D03*
X9680000Y-13800000D03*
%TD*%
D11*
%TO.C,R1*%
X16700000Y-7510000D03*
X16700000Y-6490000D03*
%TD*%
D10*
%TO.C,C3*%
X8720000Y-15800000D03*
X9680000Y-15800000D03*
%TD*%
%TO.C,C15*%
X7719999Y-40600000D03*
X8679999Y-40600000D03*
%TD*%
D12*
%TO.C,SW1*%
X12900000Y-23950000D03*
X19500000Y-23950000D03*
X12900000Y-27650000D03*
X19500000Y-27650000D03*
%TD*%
D13*
%TO.C,R18*%
X8190000Y-25200000D03*
X9210000Y-25200000D03*
%TD*%
D14*
%TO.C,Q6*%
X12362500Y-29650000D03*
X12362500Y-31550000D03*
X14237500Y-30600000D03*
%TD*%
D13*
%TO.C,R21*%
X8190000Y-23000000D03*
X9210000Y-23000000D03*
%TD*%
D15*
%TO.C,JP2*%
X3550000Y-30900000D03*
D16*
X4850000Y-30900000D03*
%TD*%
D17*
%TO.C,U4*%
X15087500Y-36200000D03*
X15087500Y-36700000D03*
X15087500Y-37200000D03*
X15087500Y-37700000D03*
X15087500Y-38200000D03*
X17512500Y-38200000D03*
X17512500Y-37700000D03*
X17512500Y-37200000D03*
X17512500Y-36700000D03*
X17512500Y-36200000D03*
D18*
X16300000Y-37200000D03*
%TD*%
D13*
%TO.C,R15*%
X5090000Y-20400000D03*
X6110000Y-20400000D03*
%TD*%
D11*
%TO.C,R23*%
X1300000Y-31410000D03*
X1300000Y-30390000D03*
%TD*%
D19*
%TO.C,C10*%
X19700000Y-37920000D03*
X19700000Y-38880000D03*
%TD*%
D13*
%TO.C,R22*%
X4490000Y-28200000D03*
X5510000Y-28200000D03*
%TD*%
D20*
%TO.C,U5*%
X6105000Y-35425000D03*
X4835000Y-35425000D03*
X3565000Y-35425000D03*
X2295000Y-35425000D03*
X2295000Y-40375000D03*
X3565000Y-40375000D03*
X4835000Y-40375000D03*
X6105000Y-40375000D03*
%TD*%
D10*
%TO.C,C5*%
X8720000Y-12800000D03*
X9680000Y-12800000D03*
%TD*%
D13*
%TO.C,R16*%
X14090000Y-46300000D03*
X15110000Y-46300000D03*
%TD*%
D21*
%TO.C,C9*%
X15350000Y-40000000D03*
X17250000Y-40000000D03*
%TD*%
D13*
%TO.C,R14*%
X5490000Y-12200000D03*
X6510000Y-12200000D03*
%TD*%
%TO.C,R17*%
X18090000Y-46300000D03*
X19110000Y-46300000D03*
%TD*%
%TO.C,R13*%
X8690000Y-14800000D03*
X9710000Y-14800000D03*
%TD*%
D22*
%TO.C,D2*%
X1250000Y-28200000D03*
X3350000Y-28200000D03*
%TD*%
D21*
%TO.C,C1*%
X13200000Y-9350000D03*
X15100000Y-9350000D03*
%TD*%
D19*
%TO.C,C14*%
X19900000Y-33220000D03*
X19900000Y-34180000D03*
%TD*%
D23*
%TO.C,C11*%
X15100000Y-34950000D03*
X15100000Y-33050000D03*
%TD*%
D13*
%TO.C,R20*%
X8190000Y-24100000D03*
X9210000Y-24100000D03*
%TD*%
%TO.C,R29*%
X7689999Y-38600000D03*
X8709999Y-38600000D03*
%TD*%
D24*
%TO.C,C2*%
X16850000Y-10825000D03*
X16850000Y-12375000D03*
%TD*%
D25*
%TO.C,R27*%
X19900000Y-31290000D03*
X19900000Y-32310000D03*
%TD*%
D10*
%TO.C,C7*%
X16120000Y-46300000D03*
X17080000Y-46300000D03*
%TD*%
D14*
%TO.C,Q3*%
X8562500Y-19450000D03*
X8562500Y-21350000D03*
X10437500Y-20400000D03*
%TD*%
D26*
%TO.C,J1*%
X13390000Y-5650000D03*
X7610000Y-5650000D03*
D27*
X13750000Y-7095000D03*
X12950000Y-7095000D03*
D28*
X11750000Y-7095000D03*
X10750000Y-7095000D03*
X10250000Y-7095000D03*
X9250000Y-7095000D03*
D27*
X8050000Y-7095000D03*
X7250000Y-7095000D03*
X7250000Y-7095000D03*
X8050000Y-7095000D03*
D28*
X8750000Y-7095000D03*
X9750000Y-7095000D03*
X11250000Y-7095000D03*
X12250000Y-7095000D03*
D27*
X12950000Y-7095000D03*
X13750000Y-7095000D03*
D29*
X14820000Y-6180000D03*
D30*
X14820000Y-2000000D03*
D29*
X6180000Y-6180000D03*
D30*
X6180000Y-2000000D03*
%TD*%
D31*
%TO.C,J2*%
X1610000Y-2540000D03*
D32*
X1610000Y-5080000D03*
X1610000Y-7620000D03*
X1610000Y-10160000D03*
X1610000Y-12700000D03*
X1610000Y-15240000D03*
X1610000Y-17780000D03*
X1610000Y-20320000D03*
%TD*%
D33*
%TO.C,U3*%
X4862500Y-13550000D03*
X4862500Y-14500000D03*
X4862500Y-15450000D03*
X7137500Y-15450000D03*
X7137500Y-14500000D03*
X7137500Y-13550000D03*
%TD*%
D13*
%TO.C,R10*%
X4490000Y-9200000D03*
X5510000Y-9200000D03*
%TD*%
%TO.C,R12*%
X4490000Y-11200000D03*
X5510000Y-11200000D03*
%TD*%
D14*
%TO.C,Q2*%
X12462500Y-19250000D03*
X12462500Y-21150000D03*
X14337500Y-20200000D03*
%TD*%
D34*
%TO.C,R6*%
X15310000Y-15500000D03*
X14290000Y-15500000D03*
%TD*%
D14*
%TO.C,Q8*%
X16362500Y-29650000D03*
X16362500Y-31550000D03*
X18237500Y-30600000D03*
%TD*%
%TO.C,Q4*%
X4662500Y-17050000D03*
X4662500Y-18950000D03*
X6537500Y-18000000D03*
%TD*%
D22*
%TO.C,D3*%
X5050000Y-25700000D03*
X7150000Y-25700000D03*
%TD*%
D33*
%TO.C,U1*%
X9112500Y-9650000D03*
X9112500Y-10600000D03*
X9112500Y-11550000D03*
X11387500Y-11550000D03*
X11387500Y-10600000D03*
X11387500Y-9650000D03*
%TD*%
D35*
%TO.C,U2*%
X13050000Y-10850000D03*
X13050000Y-11350000D03*
X13050000Y-11850000D03*
X13050000Y-12350000D03*
X14950000Y-12350000D03*
X14950000Y-11850000D03*
X14950000Y-11350000D03*
X14950000Y-10850000D03*
D36*
X14000000Y-11600000D03*
%TD*%
D22*
%TO.C,D4*%
X14850000Y-17200000D03*
X16950000Y-17200000D03*
%TD*%
D23*
%TO.C,C12*%
X17200000Y-34950000D03*
X17200000Y-33050000D03*
%TD*%
D19*
%TO.C,C13*%
X19700000Y-35920000D03*
X19700000Y-36880000D03*
%TD*%
D11*
%TO.C,R4*%
X16600000Y-15710000D03*
X16600000Y-14690000D03*
%TD*%
D37*
%TO.C,Y1*%
X7650000Y-33600000D03*
X10150000Y-33600000D03*
%TD*%
D11*
%TO.C,R2*%
X4300000Y-7510000D03*
X4300000Y-6490000D03*
%TD*%
D14*
%TO.C,Q1*%
X12462500Y-42250000D03*
X12462500Y-44150000D03*
X14337500Y-43200000D03*
%TD*%
%TO.C,Q7*%
X1362500Y-23650000D03*
X1362500Y-25550000D03*
X3237500Y-24600000D03*
%TD*%
D13*
%TO.C,R9*%
X15990000Y-20100000D03*
X17010000Y-20100000D03*
%TD*%
%TO.C,R3*%
X10890000Y-13600000D03*
X11910000Y-13600000D03*
%TD*%
%TO.C,R25*%
X5090000Y-24100000D03*
X6110000Y-24100000D03*
%TD*%
%TO.C,R28*%
X7689999Y-37600000D03*
X8709999Y-37600000D03*
%TD*%
D38*
%TO.C,D1*%
X11412500Y-15500000D03*
X12987500Y-15500000D03*
%TD*%
D39*
%TO.C,C8*%
X8525000Y-26800000D03*
X10075000Y-26800000D03*
%TD*%
D25*
%TO.C,R26*%
X19900000Y-29390000D03*
X19900000Y-30410000D03*
%TD*%
D14*
%TO.C,Q5*%
X16662500Y-42250000D03*
X16662500Y-44150000D03*
X18537500Y-43200000D03*
%TD*%
D40*
%TO.C,BT1*%
X3600000Y-43400000D03*
D41*
X3600000Y-46400000D03*
D42*
X7100000Y-46400000D03*
D43*
X8600000Y-43400000D03*
%TD*%
D13*
%TO.C,R7*%
X12090000Y-46300000D03*
X13110000Y-46300000D03*
%TD*%
D15*
%TO.C,JP1*%
X7350000Y-28900000D03*
D16*
X8650000Y-28900000D03*
%TD*%
D34*
%TO.C,R5*%
X16310000Y-13750000D03*
X15290000Y-13750000D03*
%TD*%
D31*
%TO.C,J3*%
X19390000Y-2540000D03*
D32*
X19390000Y-5080000D03*
X19390000Y-7620000D03*
X19390000Y-10160000D03*
X19390000Y-12700000D03*
X19390000Y-15240000D03*
X19390000Y-17780000D03*
X19390000Y-20320000D03*
%TD*%
D13*
%TO.C,R8*%
X15990000Y-18900000D03*
X17010000Y-18900000D03*
%TD*%
D44*
%TO.C,L1*%
X12200000Y-38400000D03*
X12200000Y-36000000D03*
%TD*%
D13*
%TO.C,R24*%
X5090000Y-23000000D03*
X6110000Y-23000000D03*
%TD*%
%TO.C,R11*%
X4490000Y-10200000D03*
X5510000Y-10200000D03*
%TD*%
M02*
