M48
; DRILL file {KiCad 7.0.11+dfsg-1build4} date Fri Sep 25 11:13:45 2026
; FORMAT={-:-/ absolute / metric / decimal}
; #@! TF.CreationDate,2026-09-25T11:13:45+00:00
; #@! TF.GenerationSoftware,Kicad,Pcbnew,7.0.11+dfsg-1build4
; #@! TF.FileFunction,Plated,1,4,PTH
FMAT,2
METRIC
; #@! TA.AperFunction,Plated,PTH,ViaDrill
T1C0.300
; #@! TA.AperFunction,Plated,PTH,ComponentDrill
T2C0.300
; #@! TA.AperFunction,Plated,PTH,ComponentDrill
T3C0.600
; #@! TA.AperFunction,Plated,PTH,ComponentDrill
T4C0.900
; #@! TA.AperFunction,Plated,PTH,ComponentDrill
T5C1.000
%
G90
G05
T1
X1.645Y-35.425
X2.572Y-25.821
X3.372Y-25.734
X3.55Y-32.113
X4.178Y-32.992
X4.3Y-5.84
X4.3Y-8.35
X4.326Y-22.236
X4.457Y-17.811
X4.662Y-19.65
X5.533Y-24.924
X5.912Y-14.5
X6.0Y-13.36
X6.448Y-10.499
X6.76Y-20.4
X6.854Y-25.007
X6.997Y-38.124
X7.25Y-8.35
X7.465Y-23.948
X7.75Y-10.6
X7.934Y-16.199
X8.05Y-8.35
X8.19Y-39.918
X8.562Y-18.657
X8.562Y-22.0
X8.671Y-36.73
X8.8Y-8.35
X9.33Y-40.6
X9.86Y-25.2
X10.076Y-35.551
X10.15Y-8.55
X10.281Y-14.401
X10.33Y-15.8
X10.35Y-12.2
X10.73Y-12.8
X10.925Y-26.8
X11.4Y-8.6
X11.589Y-24.089
X11.909Y-41.495
X12.15Y-8.35
X12.2Y-9.8
X12.462Y-20.5
X12.56Y-13.6
X13.095Y-10.4
X14.1Y-8.3
X14.237Y-31.38
X14.337Y-20.972
X15.31Y-14.685
X16.052Y-34.1
X16.15Y-33.05
X16.363Y-32.2
X16.4Y-40.0
X16.7Y-5.84
X16.7Y-8.4
X16.85Y-9.85
X17.373Y-15.829
X17.66Y-20.1
X17.7Y-12.375
X17.735Y-31.889
X18.38Y-38.2
X19.101Y-29.562
X19.11Y-45.497
X19.2Y-32.31
X19.5Y-28.5
X19.7Y-39.53
X19.9Y-34.83
X20.4Y-36.88
T2
X14.0Y-11.05
X14.0Y-12.15
X16.3Y-36.55
X16.3Y-37.2
X16.3Y-37.85
T4
X3.6Y-46.4
X7.1Y-46.4
T5
X1.61Y-2.54
X1.61Y-5.08
X1.61Y-7.62
X1.61Y-10.16
X1.61Y-12.7
X1.61Y-15.24
X1.61Y-17.78
X1.61Y-20.32
X3.6Y-43.4
X8.6Y-43.4
X19.39Y-2.54
X19.39Y-5.08
X19.39Y-7.62
X19.39Y-10.16
X19.39Y-12.7
X19.39Y-15.24
X19.39Y-17.78
X19.39Y-20.32
T3
X6.18Y-2.3G85X6.18Y-1.7
G05
X6.18Y-6.73G85X6.18Y-5.63
G05
X14.82Y-2.3G85X14.82Y-1.7
G05
X14.82Y-6.73G85X14.82Y-5.63
G05
M30
