%TF.GenerationSoftware,KiCad,Pcbnew,7.0.11+dfsg-1build4*%
%TF.CreationDate,2026-09-25T11:13:45+00:00*%
%TF.ProjectId,capcore,63617063-6f72-4652-9e6b-696361645f70,rev?*%
%TF.SameCoordinates,Original*%
%TF.FileFunction,Copper,L3,Inr*%
%TF.FilePolarity,Positive*%
%FSLAX46Y46*%
G04 Gerber Fmt 4.6, Leading zero omitted, Abs format (unit mm)*
G04 Created by KiCad (PCBNEW 7.0.11+dfsg-1build4) date 2026-09-25 11:13:45*
%MOMM*%
%LPD*%
G01*
G04 APERTURE LIST*
%TA.AperFunction,ComponentPad*%
%ADD10C,0.500000*%
%TD*%
%TA.AperFunction,ComponentPad*%
%ADD11O,1.000000X2.100000*%
%TD*%
%TA.AperFunction,ComponentPad*%
%ADD12O,1.000000X1.600000*%
%TD*%
%TA.AperFunction,ComponentPad*%
%ADD13R,1.700000X1.700000*%
%TD*%
%TA.AperFunction,ComponentPad*%
%ADD14O,1.700000X1.700000*%
%TD*%
%TA.AperFunction,ComponentPad*%
%ADD15R,1.800000X1.800000*%
%TD*%
%TA.AperFunction,ComponentPad*%
%ADD16R,1.600000X1.600000*%
%TD*%
%TA.AperFunction,ComponentPad*%
%ADD17C,1.600000*%
%TD*%
%TA.AperFunction,ComponentPad*%
%ADD18C,1.800000*%
%TD*%
%TA.AperFunction,ViaPad*%
%ADD19C,0.500000*%
%TD*%
%TA.AperFunction,ViaPad*%
%ADD20C,0.600000*%
%TD*%
%TA.AperFunction,Conductor*%
%ADD21C,0.400000*%
%TD*%
%TA.AperFunction,Conductor*%
%ADD22C,0.200000*%
%TD*%
G04 APERTURE END LIST*
D10*
%TO.N,GND*%
%TO.C,U4*%
X16300000Y-36550000D03*
X16300000Y-37200000D03*
X16300000Y-37850000D03*
%TD*%
D11*
%TO.N,GND*%
%TO.C,J1*%
X14820000Y-6180000D03*
D12*
X14820000Y-2000000D03*
D11*
X6180000Y-6180000D03*
D12*
X6180000Y-2000000D03*
%TD*%
D13*
%TO.N,VBUS*%
%TO.C,J2*%
X1610000Y-2540000D03*
D14*
%TO.N,GND*%
X1610000Y-5080000D03*
%TO.N,3V3*%
X1610000Y-7620000D03*
%TO.N,HOLD*%
X1610000Y-10160000D03*
%TO.N,WAKE*%
X1610000Y-12700000D03*
%TO.N,BTN*%
X1610000Y-15240000D03*
%TO.N,SHIP*%
X1610000Y-17780000D03*
%TO.N,GND*%
X1610000Y-20320000D03*
%TD*%
D10*
%TO.N,GND*%
%TO.C,U2*%
X14000000Y-11050000D03*
X14000000Y-12150000D03*
%TD*%
D15*
%TO.N,VCAP*%
%TO.C,BT1*%
X3600000Y-43400000D03*
D16*
X3600000Y-46400000D03*
D17*
%TO.N,GND*%
X7100000Y-46400000D03*
D18*
X8600000Y-43400000D03*
%TD*%
D13*
%TO.N,DP*%
%TO.C,J3*%
X19390000Y-2540000D03*
D14*
%TO.N,DM*%
X19390000Y-5080000D03*
%TO.N,SDA*%
X19390000Y-7620000D03*
%TO.N,SCL*%
X19390000Y-10160000D03*
%TO.N,VSENSE*%
X19390000Y-12700000D03*
%TO.N,CHG*%
X19390000Y-15240000D03*
%TO.N,3V3*%
X19390000Y-17780000D03*
%TO.N,GND*%
X19390000Y-20320000D03*
%TD*%
D19*
%TO.N,GND*%
X9329999Y-40600000D03*
X16362500Y-32200000D03*
X19900000Y-34830000D03*
X16149999Y-33049999D03*
X16700000Y-5840000D03*
X10281040Y-14401040D03*
X17700000Y-12375000D03*
X8562500Y-22000000D03*
X10730000Y-12800000D03*
X17660000Y-20100000D03*
X4662500Y-19650000D03*
X14100000Y-8300000D03*
X19700000Y-39530000D03*
X10330000Y-15800000D03*
X12462500Y-20500000D03*
X19500000Y-28500000D03*
X7250000Y-8350000D03*
X5912500Y-14500000D03*
X4300000Y-5840000D03*
X12560000Y-13600000D03*
X1645000Y-35425000D03*
X9860000Y-25200000D03*
X6760000Y-20400000D03*
X10924999Y-26800000D03*
X16399999Y-40000000D03*
X20400000Y-36880000D03*
X7750000Y-10600000D03*
X19200000Y-32310000D03*
%TO.N,VBUS*%
X13095000Y-10400000D03*
D20*
X15310000Y-14684600D03*
X3371600Y-25734300D03*
D19*
X8050000Y-8350000D03*
%TO.N,CC1*%
X12150000Y-8350000D03*
X16700000Y-8400000D03*
%TO.N,CC2*%
X8800000Y-8350000D03*
X4300000Y-8350000D03*
%TO.N,DP*%
X12200000Y-9800000D03*
%TO.N,DM*%
X11400000Y-8600000D03*
X10350000Y-12200000D03*
X10150000Y-8550000D03*
D20*
%TO.N,VCAP*%
X17373200Y-15828700D03*
D19*
X16850000Y-9850000D03*
D20*
%TO.N,QA_G*%
X14337500Y-20972000D03*
X11909000Y-41495000D03*
%TO.N,VAON*%
X2572500Y-25821000D03*
X3550000Y-32112900D03*
X4326400Y-22236400D03*
X8190300Y-39918300D03*
%TO.N,UVLO_OK*%
X8562500Y-18657100D03*
X6000000Y-13359900D03*
%TO.N,SENSE*%
X6447900Y-10499300D03*
X7933900Y-16198700D03*
%TO.N,SHIP*%
X4457300Y-17811100D03*
%TO.N,VSYS*%
X18380200Y-38200000D03*
X19101500Y-29562300D03*
%TO.N,Q6_D*%
X19110000Y-45497500D03*
X14237500Y-31380200D03*
%TO.N,HOLD*%
X7465200Y-23947600D03*
%TO.N,WAKE_N*%
X11588800Y-24089200D03*
X4177500Y-32991700D03*
X5532700Y-24924100D03*
%TO.N,BTN*%
X6854400Y-25006900D03*
%TO.N,3V3*%
X16052400Y-34099700D03*
%TO.N,VSENSE*%
X17734700Y-31889500D03*
%TO.N,SDA*%
X6996800Y-38124000D03*
X8671300Y-36729800D03*
%TO.N,SCL*%
X10076100Y-35550800D03*
%TD*%
D21*
%TO.N,VBUS*%
X8493000Y-5259200D02*
X6975700Y-3741900D01*
X13095000Y-10400000D02*
X13095000Y-12469600D01*
X8050000Y-8249000D02*
X8493000Y-7806000D01*
X13095000Y-12469600D02*
X15310000Y-14684600D01*
X8050000Y-8350000D02*
X8050000Y-8249000D01*
X4013800Y-3741900D02*
X2811900Y-2540000D01*
X6975700Y-3741900D02*
X4013800Y-3741900D01*
X1610000Y-2540000D02*
X2811900Y-2540000D01*
X8493000Y-7806000D02*
X8493000Y-5259200D01*
D22*
%TO.N,CC1*%
X12150000Y-8350000D02*
X12700000Y-8900000D01*
X12700000Y-8900000D02*
X16200000Y-8900000D01*
X16200000Y-8900000D02*
X16700000Y-8400000D01*
%TO.N,CC2*%
X8350000Y-8950000D02*
X5000000Y-8950000D01*
X8800000Y-8350000D02*
X8350000Y-8950000D01*
X5000000Y-8950000D02*
X4300000Y-8350000D01*
%TO.N,DM*%
X10150000Y-8550000D02*
X11400000Y-8600000D01*
X11400000Y-4600000D02*
X17900000Y-4600000D01*
X11400000Y-8600000D02*
X11400000Y-4600000D01*
X18380000Y-5080000D02*
X19390000Y-5080000D01*
X10150000Y-8550000D02*
X10350000Y-9000000D01*
X17900000Y-4600000D02*
X18380000Y-5080000D01*
X10350000Y-9000000D02*
X10350000Y-12200000D01*
D21*
%TO.N,VCAP*%
X16850000Y-9850000D02*
X16850000Y-15305500D01*
X16850000Y-15305500D02*
X17373200Y-15828700D01*
D22*
%TO.N,QA_G*%
X14337500Y-23308700D02*
X14337500Y-20972000D01*
X11909000Y-41495000D02*
X11909000Y-25737200D01*
X11909000Y-25737200D02*
X14337500Y-23308700D01*
D21*
%TO.N,VAON*%
X2572500Y-25821000D02*
X2572500Y-31135400D01*
X2572500Y-23990300D02*
X2572500Y-25821000D01*
X2572500Y-31135400D02*
X3550000Y-32112900D01*
X3550000Y-32112900D02*
X3525600Y-32137300D01*
X3525600Y-32137300D02*
X3525600Y-35574600D01*
X7869300Y-39918300D02*
X8190300Y-39918300D01*
X3525600Y-35574600D02*
X7869300Y-39918300D01*
X4326400Y-22236400D02*
X2572500Y-23990300D01*
D22*
%TO.N,UVLO_OK*%
X8562500Y-15922400D02*
X8562500Y-18657100D01*
X6000000Y-13359900D02*
X8562500Y-15922400D01*
%TO.N,SHIP*%
X2743000Y-17811100D02*
X4457300Y-17811100D01*
X1610000Y-17780000D02*
X2711900Y-17780000D01*
X2711900Y-17780000D02*
X2743000Y-17811100D01*
D21*
%TO.N,VSYS*%
X18386600Y-30277200D02*
X19101500Y-29562300D01*
X18380200Y-38200000D02*
X18386600Y-38193600D01*
X18386600Y-38193600D02*
X18386600Y-30277200D01*
D22*
%TO.N,Q6_D*%
X14237500Y-33569300D02*
X14237500Y-40625000D01*
X14237500Y-32837000D02*
X14236000Y-32838500D01*
X14236000Y-32838500D02*
X14236000Y-33567800D01*
X14237500Y-40625000D02*
X19110000Y-45497500D01*
X14236000Y-33567800D02*
X14237500Y-33569300D01*
X14237500Y-31380200D02*
X14237500Y-32837000D01*
%TO.N,HOLD*%
X1832900Y-11261900D02*
X7465200Y-16894200D01*
X1610000Y-10160000D02*
X1610000Y-11261900D01*
X7465200Y-16894200D02*
X7465200Y-23947600D01*
X1610000Y-11261900D02*
X1832900Y-11261900D01*
%TO.N,WAKE_N*%
X6167400Y-25558800D02*
X6167400Y-31001800D01*
X11588800Y-24089200D02*
X8774700Y-24089200D01*
X8774700Y-24089200D02*
X7305100Y-25558800D01*
X6167400Y-25558800D02*
X5532700Y-24924100D01*
X6167400Y-31001800D02*
X4177500Y-32991700D01*
X7305100Y-25558800D02*
X6167400Y-25558800D01*
%TO.N,BTN*%
X6854400Y-25006900D02*
X5391500Y-23544000D01*
X1610000Y-15240000D02*
X2711900Y-15240000D01*
X5391500Y-17919600D02*
X2711900Y-15240000D01*
X5391500Y-23544000D02*
X5391500Y-17919600D01*
D21*
%TO.N,3V3*%
X19390000Y-17780000D02*
X18188100Y-17780000D01*
X1610000Y-7620000D02*
X2811900Y-7620000D01*
X16052400Y-34099700D02*
X15546400Y-33593700D01*
X15546400Y-33593700D02*
X15546400Y-19655400D01*
X10043300Y-15100500D02*
X10991500Y-15100500D01*
X15546400Y-19655400D02*
X17421800Y-17780000D01*
X2811900Y-7869100D02*
X10043300Y-15100500D01*
X17421800Y-17780000D02*
X18188100Y-17780000D01*
X2811900Y-7620000D02*
X2811900Y-7869100D01*
X10991500Y-15100500D02*
X15546400Y-19655400D01*
D22*
%TO.N,SDA*%
X6996800Y-38124000D02*
X8391000Y-36729800D01*
X8391000Y-36729800D02*
X8671300Y-36729800D01*
%TD*%
%TA.AperFunction,Conductor*%
%TO.N,GND*%
G36*
X20004842Y-300976D02*
G01*
X20126764Y-312985D01*
X20145794Y-316770D01*
X20151133Y-318390D01*
X20258354Y-350915D01*
X20276285Y-358342D01*
X20380022Y-413791D01*
X20396158Y-424573D01*
X20487083Y-499193D01*
X20500806Y-512916D01*
X20575426Y-603841D01*
X20586208Y-619977D01*
X20641657Y-723714D01*
X20649084Y-741645D01*
X20683228Y-854203D01*
X20687014Y-873237D01*
X20699023Y-995157D01*
X20699500Y-1004861D01*
X20699500Y-46995138D01*
X20699023Y-47004842D01*
X20687014Y-47126762D01*
X20683228Y-47145796D01*
X20649084Y-47258354D01*
X20641657Y-47276285D01*
X20586208Y-47380022D01*
X20575426Y-47396158D01*
X20500806Y-47487083D01*
X20487083Y-47500806D01*
X20396158Y-47575426D01*
X20380022Y-47586208D01*
X20276285Y-47641657D01*
X20258354Y-47649084D01*
X20145796Y-47683228D01*
X20126763Y-47687014D01*
X20020719Y-47697459D01*
X20004841Y-47699023D01*
X19995139Y-47699500D01*
X1004861Y-47699500D01*
X995157Y-47699023D01*
X873237Y-47687014D01*
X854203Y-47683228D01*
X741645Y-47649084D01*
X723714Y-47641657D01*
X619977Y-47586208D01*
X603841Y-47575426D01*
X512916Y-47500806D01*
X499193Y-47487083D01*
X424573Y-47396158D01*
X413791Y-47380022D01*
X358342Y-47276285D01*
X350915Y-47258354D01*
X339203Y-47219746D01*
X2599500Y-47219746D01*
X2599501Y-47219758D01*
X2610746Y-47276285D01*
X2611133Y-47278231D01*
X2655448Y-47344552D01*
X2721769Y-47388867D01*
X2766231Y-47397711D01*
X2780241Y-47400498D01*
X2780246Y-47400498D01*
X2780252Y-47400500D01*
X2780253Y-47400500D01*
X4419747Y-47400500D01*
X4419748Y-47400500D01*
X4478231Y-47388867D01*
X4544552Y-47344552D01*
X4588867Y-47278231D01*
X4600500Y-47219748D01*
X4600500Y-46400004D01*
X6044919Y-46400004D01*
X6065190Y-46605830D01*
X6065191Y-46605836D01*
X6125232Y-46803762D01*
X6125234Y-46803767D01*
X6222724Y-46986160D01*
X6222731Y-46986170D01*
X6258324Y-47029541D01*
X6693044Y-46594820D01*
X6705887Y-46627541D01*
X6790465Y-46733599D01*
X6902290Y-46809840D01*
X6470457Y-47241674D01*
X6513828Y-47277268D01*
X6513834Y-47277272D01*
X6696232Y-47374765D01*
X6696237Y-47374767D01*
X6894163Y-47434808D01*
X6894169Y-47434809D01*
X7099996Y-47455081D01*
X7100004Y-47455081D01*
X7305830Y-47434809D01*
X7305836Y-47434808D01*
X7503762Y-47374767D01*
X7503767Y-47374765D01*
X7686166Y-47277270D01*
X7686177Y-47277263D01*
X7729541Y-47241674D01*
X7293935Y-46806068D01*
X7356357Y-46776007D01*
X7455798Y-46683740D01*
X7507068Y-46594935D01*
X7941674Y-47029541D01*
X7977263Y-46986177D01*
X7977270Y-46986166D01*
X8074765Y-46803767D01*
X8074767Y-46803762D01*
X8134808Y-46605836D01*
X8134809Y-46605830D01*
X8155081Y-46400004D01*
X8155081Y-46399995D01*
X8134809Y-46194169D01*
X8134808Y-46194163D01*
X8074767Y-45996237D01*
X8074765Y-45996232D01*
X7977272Y-45813834D01*
X7977268Y-45813828D01*
X7941674Y-45770457D01*
X7506953Y-46205177D01*
X7494113Y-46172459D01*
X7409535Y-46066401D01*
X7297707Y-45990157D01*
X7729541Y-45558324D01*
X7686170Y-45522731D01*
X7686160Y-45522724D01*
X7503767Y-45425234D01*
X7503762Y-45425232D01*
X7305836Y-45365191D01*
X7305830Y-45365190D01*
X7100004Y-45344919D01*
X7099996Y-45344919D01*
X6894169Y-45365190D01*
X6894163Y-45365191D01*
X6696237Y-45425232D01*
X6696232Y-45425234D01*
X6513834Y-45522728D01*
X6513824Y-45522734D01*
X6470457Y-45558324D01*
X6906064Y-45993931D01*
X6843643Y-46023993D01*
X6744202Y-46116260D01*
X6692931Y-46205064D01*
X6258324Y-45770457D01*
X6222734Y-45813824D01*
X6222728Y-45813834D01*
X6125234Y-45996232D01*
X6125232Y-45996237D01*
X6065191Y-46194163D01*
X6065190Y-46194169D01*
X6044919Y-46399995D01*
X6044919Y-46400004D01*
X4600500Y-46400004D01*
X4600500Y-45580252D01*
X4588867Y-45521769D01*
X4544552Y-45455448D01*
X4531074Y-45446442D01*
X4478233Y-45411134D01*
X4478231Y-45411133D01*
X4478228Y-45411132D01*
X4478227Y-45411132D01*
X4419758Y-45399501D01*
X4419748Y-45399500D01*
X2780252Y-45399500D01*
X2780251Y-45399500D01*
X2780241Y-45399501D01*
X2721772Y-45411132D01*
X2721766Y-45411134D01*
X2655451Y-45455445D01*
X2655445Y-45455451D01*
X2611134Y-45521766D01*
X2611132Y-45521772D01*
X2599501Y-45580241D01*
X2599500Y-45580253D01*
X2599500Y-47219746D01*
X339203Y-47219746D01*
X316771Y-47145796D01*
X312985Y-47126762D01*
X300977Y-47004842D01*
X300500Y-46995138D01*
X300500Y-44319746D01*
X2499500Y-44319746D01*
X2499501Y-44319758D01*
X2511132Y-44378227D01*
X2511133Y-44378231D01*
X2555448Y-44444552D01*
X2621769Y-44488867D01*
X2666231Y-44497711D01*
X2680241Y-44500498D01*
X2680246Y-44500498D01*
X2680252Y-44500500D01*
X2680253Y-44500500D01*
X4519747Y-44500500D01*
X4519748Y-44500500D01*
X4578231Y-44488867D01*
X4644552Y-44444552D01*
X4688867Y-44378231D01*
X4700500Y-44319748D01*
X4700500Y-43400000D01*
X7445073Y-43400000D01*
X7464738Y-43612216D01*
X7523064Y-43817210D01*
X7618059Y-44007987D01*
X7618068Y-44008002D01*
X7687681Y-44100183D01*
X8155183Y-43632681D01*
X8218239Y-43730798D01*
X8326900Y-43824952D01*
X8368280Y-43843850D01*
X7896927Y-44315204D01*
X7904003Y-44321653D01*
X7904005Y-44321654D01*
X8085202Y-44433846D01*
X8085204Y-44433847D01*
X8283941Y-44510838D01*
X8493437Y-44550000D01*
X8706563Y-44550000D01*
X8916058Y-44510838D01*
X9114793Y-44433847D01*
X9296001Y-44321649D01*
X9303071Y-44315204D01*
X8831717Y-43843850D01*
X8873100Y-43824952D01*
X8981761Y-43730798D01*
X9044815Y-43632682D01*
X9512316Y-44100183D01*
X9581937Y-44007992D01*
X9581942Y-44007983D01*
X9676935Y-43817210D01*
X9735261Y-43612216D01*
X9754926Y-43400000D01*
X9735261Y-43187783D01*
X9676935Y-42982789D01*
X9581940Y-42792012D01*
X9581935Y-42792003D01*
X9512316Y-42699815D01*
X9044814Y-43167316D01*
X8981761Y-43069202D01*
X8873100Y-42975048D01*
X8831716Y-42956148D01*
X9303071Y-42484794D01*
X9295996Y-42478346D01*
X9114797Y-42366153D01*
X9114795Y-42366152D01*
X8916058Y-42289161D01*
X8706563Y-42250000D01*
X8493437Y-42250000D01*
X8283941Y-42289161D01*
X8085204Y-42366152D01*
X8085202Y-42366153D01*
X7904002Y-42478347D01*
X7896927Y-42484794D01*
X8368282Y-42956149D01*
X8326900Y-42975048D01*
X8218239Y-43069202D01*
X8155184Y-43167317D01*
X7687682Y-42699815D01*
X7618062Y-42792007D01*
X7618057Y-42792016D01*
X7523064Y-42982789D01*
X7464738Y-43187783D01*
X7445073Y-43400000D01*
X4700500Y-43400000D01*
X4700500Y-42480252D01*
X4688867Y-42421769D01*
X4644552Y-42355448D01*
X4644548Y-42355445D01*
X4578233Y-42311134D01*
X4578231Y-42311133D01*
X4578228Y-42311132D01*
X4578227Y-42311132D01*
X4519758Y-42299501D01*
X4519748Y-42299500D01*
X2680252Y-42299500D01*
X2680251Y-42299500D01*
X2680241Y-42299501D01*
X2621772Y-42311132D01*
X2621766Y-42311134D01*
X2555451Y-42355445D01*
X2555445Y-42355451D01*
X2511134Y-42421766D01*
X2511132Y-42421772D01*
X2499501Y-42480241D01*
X2499500Y-42480253D01*
X2499500Y-44319746D01*
X300500Y-44319746D01*
X300500Y-41495002D01*
X11403353Y-41495002D01*
X11423834Y-41637456D01*
X11483622Y-41768371D01*
X11483623Y-41768373D01*
X11577872Y-41877143D01*
X11577873Y-41877144D01*
X11698942Y-41954950D01*
X11698947Y-41954953D01*
X11805403Y-41986211D01*
X11837035Y-41995499D01*
X11837036Y-41995499D01*
X11837039Y-41995500D01*
X11837041Y-41995500D01*
X11980959Y-41995500D01*
X11980961Y-41995500D01*
X12119053Y-41954953D01*
X12240128Y-41877143D01*
X12334377Y-41768373D01*
X12394165Y-41637457D01*
X12414647Y-41495000D01*
X12394165Y-41352543D01*
X12334377Y-41221627D01*
X12240128Y-41112857D01*
X12240127Y-41112856D01*
X12235491Y-41107506D01*
X12237524Y-41105743D01*
X12212067Y-41063505D01*
X12209500Y-41041105D01*
X12209500Y-31380202D01*
X13731853Y-31380202D01*
X13752334Y-31522656D01*
X13812123Y-31653573D01*
X13911009Y-31767694D01*
X13908971Y-31769459D01*
X13934425Y-31811658D01*
X13937000Y-31834093D01*
X13937000Y-32765128D01*
X13935500Y-32781320D01*
X13935500Y-32792151D01*
X13932870Y-32814818D01*
X13930621Y-32824379D01*
X13934551Y-32852553D01*
X13935500Y-32866230D01*
X13935500Y-33502635D01*
X13933280Y-33516313D01*
X13934494Y-33516483D01*
X13933226Y-33525566D01*
X13935394Y-33572441D01*
X13935500Y-33577013D01*
X13935500Y-33595644D01*
X13935922Y-33600197D01*
X13935829Y-33600205D01*
X13937000Y-33612840D01*
X13937000Y-40559835D01*
X13934780Y-40573513D01*
X13935994Y-40573683D01*
X13934726Y-40582766D01*
X13936894Y-40629641D01*
X13937000Y-40634213D01*
X13937000Y-40652844D01*
X13937022Y-40652966D01*
X13938601Y-40666577D01*
X13939914Y-40694987D01*
X13939915Y-40694994D01*
X13943884Y-40703982D01*
X13950632Y-40725772D01*
X13952439Y-40735433D01*
X13961309Y-40749760D01*
X13967412Y-40759617D01*
X13973801Y-40771738D01*
X13985294Y-40797765D01*
X13992245Y-40804716D01*
X14006407Y-40822596D01*
X14011581Y-40830952D01*
X14034281Y-40848094D01*
X14044617Y-40857088D01*
X18579453Y-45391925D01*
X18607230Y-45446442D01*
X18607441Y-45476015D01*
X18604354Y-45497497D01*
X18604353Y-45497503D01*
X18624834Y-45639956D01*
X18684433Y-45770457D01*
X18684623Y-45770873D01*
X18721849Y-45813834D01*
X18778873Y-45879644D01*
X18888350Y-45950000D01*
X18899947Y-45957453D01*
X19006403Y-45988711D01*
X19038035Y-45997999D01*
X19038036Y-45997999D01*
X19038039Y-45998000D01*
X19038041Y-45998000D01*
X19181959Y-45998000D01*
X19181961Y-45998000D01*
X19320053Y-45957453D01*
X19441128Y-45879643D01*
X19535377Y-45770873D01*
X19595165Y-45639957D01*
X19612019Y-45522734D01*
X19615647Y-45497502D01*
X19615647Y-45497497D01*
X19595165Y-45355043D01*
X19535377Y-45224128D01*
X19535377Y-45224127D01*
X19441128Y-45115357D01*
X19441127Y-45115356D01*
X19441126Y-45115355D01*
X19320057Y-45037549D01*
X19320054Y-45037547D01*
X19320053Y-45037547D01*
X19320050Y-45037546D01*
X19181964Y-44997000D01*
X19181961Y-44997000D01*
X19075479Y-44997000D01*
X19017288Y-44978093D01*
X19005475Y-44968004D01*
X14566996Y-40529525D01*
X14539219Y-40475008D01*
X14538000Y-40459521D01*
X14538000Y-33634468D01*
X14540231Y-33620795D01*
X14539005Y-33620624D01*
X14540273Y-33611532D01*
X14538106Y-33564657D01*
X14538000Y-33560085D01*
X14538000Y-33541460D01*
X14537577Y-33536900D01*
X14537670Y-33536891D01*
X14536500Y-33524259D01*
X14536500Y-32910371D01*
X14538000Y-32894191D01*
X14538000Y-32883348D01*
X14540629Y-32860683D01*
X14542879Y-32851119D01*
X14538949Y-32822944D01*
X14538000Y-32809268D01*
X14538000Y-31834093D01*
X14556907Y-31775902D01*
X14564241Y-31767911D01*
X14563991Y-31767694D01*
X14595997Y-31730757D01*
X14662877Y-31653573D01*
X14722665Y-31522657D01*
X14736052Y-31429546D01*
X14743147Y-31380202D01*
X14743147Y-31380197D01*
X14722665Y-31237743D01*
X14710486Y-31211075D01*
X14662877Y-31106827D01*
X14568628Y-30998057D01*
X14568627Y-30998056D01*
X14568626Y-30998055D01*
X14447557Y-30920249D01*
X14447554Y-30920247D01*
X14447553Y-30920247D01*
X14447550Y-30920246D01*
X14309464Y-30879700D01*
X14309461Y-30879700D01*
X14165539Y-30879700D01*
X14165535Y-30879700D01*
X14027449Y-30920246D01*
X14027442Y-30920249D01*
X13906373Y-30998055D01*
X13812122Y-31106828D01*
X13752334Y-31237743D01*
X13731853Y-31380197D01*
X13731853Y-31380202D01*
X12209500Y-31380202D01*
X12209500Y-25902679D01*
X12228407Y-25844488D01*
X12238496Y-25832675D01*
X13337644Y-24733527D01*
X14503907Y-23567263D01*
X14515165Y-23559194D01*
X14514405Y-23558187D01*
X14521721Y-23552661D01*
X14521728Y-23552658D01*
X14553368Y-23517949D01*
X14556486Y-23514684D01*
X14569675Y-23501497D01*
X14569737Y-23501405D01*
X14578252Y-23490652D01*
X14597416Y-23469633D01*
X14600965Y-23460469D01*
X14611611Y-23440275D01*
X14617157Y-23432180D01*
X14623670Y-23404486D01*
X14627718Y-23391412D01*
X14638000Y-23364873D01*
X14638000Y-23355048D01*
X14640629Y-23332383D01*
X14642879Y-23322819D01*
X14638949Y-23294644D01*
X14638000Y-23280968D01*
X14638000Y-21425893D01*
X14656907Y-21367702D01*
X14664241Y-21359711D01*
X14663991Y-21359494D01*
X14668628Y-21354143D01*
X14762877Y-21245373D01*
X14822665Y-21114457D01*
X14843147Y-20972000D01*
X14822665Y-20829543D01*
X14762877Y-20698627D01*
X14668628Y-20589857D01*
X14668627Y-20589856D01*
X14668626Y-20589855D01*
X14547557Y-20512049D01*
X14547554Y-20512047D01*
X14547553Y-20512047D01*
X14547550Y-20512046D01*
X14409464Y-20471500D01*
X14409461Y-20471500D01*
X14265539Y-20471500D01*
X14265535Y-20471500D01*
X14127449Y-20512046D01*
X14127442Y-20512049D01*
X14006373Y-20589855D01*
X13912122Y-20698628D01*
X13852334Y-20829543D01*
X13831853Y-20971997D01*
X13831853Y-20972002D01*
X13852334Y-21114456D01*
X13912123Y-21245373D01*
X14011009Y-21359494D01*
X14008971Y-21361259D01*
X14034425Y-21403458D01*
X14037000Y-21425893D01*
X14037000Y-23143220D01*
X14018093Y-23201411D01*
X14008004Y-23213224D01*
X11742590Y-25478637D01*
X11731361Y-25486750D01*
X11732090Y-25487715D01*
X11724771Y-25493241D01*
X11693141Y-25527937D01*
X11689989Y-25531238D01*
X11676830Y-25544398D01*
X11676818Y-25544412D01*
X11676749Y-25544514D01*
X11668255Y-25555235D01*
X11649083Y-25576266D01*
X11649083Y-25576267D01*
X11645529Y-25585440D01*
X11634896Y-25605612D01*
X11629346Y-25613715D01*
X11629341Y-25613724D01*
X11622830Y-25641406D01*
X11618777Y-25654496D01*
X11608501Y-25681023D01*
X11608500Y-25681029D01*
X11608500Y-25690851D01*
X11605870Y-25713518D01*
X11603621Y-25723079D01*
X11607551Y-25751253D01*
X11608500Y-25764930D01*
X11608500Y-41041105D01*
X11589593Y-41099296D01*
X11582258Y-41107289D01*
X11582509Y-41107506D01*
X11483622Y-41221628D01*
X11423834Y-41352543D01*
X11403353Y-41494997D01*
X11403353Y-41495002D01*
X300500Y-41495002D01*
X300500Y-20470000D01*
X519187Y-20470000D01*
X524097Y-20522989D01*
X579887Y-20719070D01*
X670750Y-20901548D01*
X670755Y-20901557D01*
X793608Y-21064240D01*
X944266Y-21201582D01*
X1117581Y-21308895D01*
X1117586Y-21308898D01*
X1307683Y-21382541D01*
X1459999Y-21411014D01*
X1460000Y-21411014D01*
X1460000Y-20801170D01*
X1467685Y-20804680D01*
X1574237Y-20820000D01*
X1645763Y-20820000D01*
X1752315Y-20804680D01*
X1760000Y-20801170D01*
X1760000Y-21411014D01*
X1912316Y-21382541D01*
X2102413Y-21308898D01*
X2102418Y-21308895D01*
X2275733Y-21201582D01*
X2426391Y-21064240D01*
X2549244Y-20901557D01*
X2549249Y-20901548D01*
X2640112Y-20719070D01*
X2695902Y-20522989D01*
X2700813Y-20470000D01*
X2087065Y-20470000D01*
X2110000Y-20391889D01*
X2110000Y-20248111D01*
X2087065Y-20170000D01*
X2700812Y-20170000D01*
X2695902Y-20117010D01*
X2640112Y-19920929D01*
X2549249Y-19738451D01*
X2549244Y-19738442D01*
X2426391Y-19575759D01*
X2275733Y-19438417D01*
X2102418Y-19331104D01*
X2102413Y-19331101D01*
X1912319Y-19257459D01*
X1912313Y-19257457D01*
X1760000Y-19228984D01*
X1760000Y-19838829D01*
X1752315Y-19835320D01*
X1645763Y-19820000D01*
X1574237Y-19820000D01*
X1467685Y-19835320D01*
X1460000Y-19838829D01*
X1460000Y-19228985D01*
X1459999Y-19228984D01*
X1307686Y-19257457D01*
X1307680Y-19257459D01*
X1117586Y-19331101D01*
X1117581Y-19331104D01*
X944266Y-19438417D01*
X793608Y-19575759D01*
X670755Y-19738442D01*
X670750Y-19738451D01*
X579887Y-19920929D01*
X524097Y-20117010D01*
X519187Y-20170000D01*
X1132935Y-20170000D01*
X1110000Y-20248111D01*
X1110000Y-20391889D01*
X1132935Y-20470000D01*
X519187Y-20470000D01*
X300500Y-20470000D01*
X300500Y-17780003D01*
X554417Y-17780003D01*
X574698Y-17985929D01*
X574699Y-17985934D01*
X634768Y-18183954D01*
X732316Y-18366452D01*
X853933Y-18514643D01*
X863590Y-18526410D01*
X863595Y-18526414D01*
X1023547Y-18657683D01*
X1023548Y-18657683D01*
X1023550Y-18657685D01*
X1206046Y-18755232D01*
X1343997Y-18797078D01*
X1404065Y-18815300D01*
X1404070Y-18815301D01*
X1609997Y-18835583D01*
X1610000Y-18835583D01*
X1610003Y-18835583D01*
X1815929Y-18815301D01*
X1815934Y-18815300D01*
X2013954Y-18755232D01*
X2196450Y-18657685D01*
X2356410Y-18526410D01*
X2487685Y-18366450D01*
X2585232Y-18183954D01*
X2585234Y-18183948D01*
X2585867Y-18181863D01*
X2586436Y-18181045D01*
X2587094Y-18179459D01*
X2587441Y-18179603D01*
X2620851Y-18131666D01*
X2678659Y-18111619D01*
X2680604Y-18111600D01*
X2686827Y-18111600D01*
X2696652Y-18111600D01*
X2719316Y-18114229D01*
X2728881Y-18116479D01*
X2753958Y-18112980D01*
X2757054Y-18112549D01*
X2770731Y-18111600D01*
X4010217Y-18111600D01*
X4068408Y-18130507D01*
X4085033Y-18145767D01*
X4126172Y-18193243D01*
X4214301Y-18249880D01*
X4244657Y-18269389D01*
X4247247Y-18271053D01*
X4353703Y-18302311D01*
X4385335Y-18311599D01*
X4385336Y-18311599D01*
X4385339Y-18311600D01*
X4385341Y-18311600D01*
X4529259Y-18311600D01*
X4529261Y-18311600D01*
X4667353Y-18271053D01*
X4788428Y-18193243D01*
X4882677Y-18084473D01*
X4901422Y-18043426D01*
X4942793Y-17998350D01*
X5002759Y-17986198D01*
X5058416Y-18011615D01*
X5061450Y-18014521D01*
X5062005Y-18015076D01*
X5089781Y-18069591D01*
X5091000Y-18085078D01*
X5091000Y-23478835D01*
X5088780Y-23492513D01*
X5089994Y-23492683D01*
X5088726Y-23501766D01*
X5090894Y-23548641D01*
X5091000Y-23553213D01*
X5091000Y-23571844D01*
X5091022Y-23571966D01*
X5092601Y-23585577D01*
X5093914Y-23613987D01*
X5093915Y-23613994D01*
X5097884Y-23622982D01*
X5104632Y-23644772D01*
X5106439Y-23654433D01*
X5115309Y-23668760D01*
X5121412Y-23678617D01*
X5127801Y-23690738D01*
X5139294Y-23716765D01*
X5146245Y-23723716D01*
X5160407Y-23741596D01*
X5165581Y-23749952D01*
X5188281Y-23767094D01*
X5198617Y-23776088D01*
X5677125Y-24254596D01*
X5704902Y-24309113D01*
X5695331Y-24369545D01*
X5652066Y-24412810D01*
X5607121Y-24423600D01*
X5460735Y-24423600D01*
X5322649Y-24464146D01*
X5322642Y-24464149D01*
X5201573Y-24541955D01*
X5107322Y-24650728D01*
X5047534Y-24781643D01*
X5027053Y-24924097D01*
X5027053Y-24924102D01*
X5047534Y-25066556D01*
X5085349Y-25149357D01*
X5107323Y-25197473D01*
X5201572Y-25306243D01*
X5201573Y-25306244D01*
X5322642Y-25384050D01*
X5322647Y-25384053D01*
X5429103Y-25415311D01*
X5460735Y-25424599D01*
X5460736Y-25424599D01*
X5460739Y-25424600D01*
X5460741Y-25424600D01*
X5567221Y-25424600D01*
X5625412Y-25443507D01*
X5637225Y-25453596D01*
X5837904Y-25654275D01*
X5865681Y-25708792D01*
X5866900Y-25724279D01*
X5866900Y-30836320D01*
X5847993Y-30894511D01*
X5837904Y-30906324D01*
X4282024Y-32462204D01*
X4227507Y-32489981D01*
X4212020Y-32491200D01*
X4105539Y-32491200D01*
X4105537Y-32491200D01*
X4098530Y-32492208D01*
X4098247Y-32490239D01*
X4046703Y-32488759D01*
X3998257Y-32451388D01*
X3981029Y-32392678D01*
X3989935Y-32354395D01*
X3992192Y-32349453D01*
X4035165Y-32255357D01*
X4048462Y-32162871D01*
X4055647Y-32112902D01*
X4055647Y-32112897D01*
X4035165Y-31970443D01*
X3975377Y-31839528D01*
X3975377Y-31839527D01*
X3881128Y-31730757D01*
X3881127Y-31730756D01*
X3881126Y-31730755D01*
X3760057Y-31652949D01*
X3760054Y-31652948D01*
X3760053Y-31652947D01*
X3706354Y-31637180D01*
X3637615Y-31616996D01*
X3595503Y-31592010D01*
X3001996Y-30998503D01*
X2974219Y-30943986D01*
X2973000Y-30928499D01*
X2973000Y-26254386D01*
X2991907Y-26196195D01*
X3041407Y-26160231D01*
X3102593Y-26160231D01*
X3125521Y-26171100D01*
X3161547Y-26194253D01*
X3268003Y-26225511D01*
X3299635Y-26234799D01*
X3299636Y-26234799D01*
X3299639Y-26234800D01*
X3299641Y-26234800D01*
X3443559Y-26234800D01*
X3443561Y-26234800D01*
X3581653Y-26194253D01*
X3702728Y-26116443D01*
X3796977Y-26007673D01*
X3856765Y-25876757D01*
X3864782Y-25820997D01*
X3877247Y-25734302D01*
X3877247Y-25734297D01*
X3856765Y-25591843D01*
X3849651Y-25576266D01*
X3796977Y-25460927D01*
X3702728Y-25352157D01*
X3702727Y-25352156D01*
X3702726Y-25352155D01*
X3581657Y-25274349D01*
X3581654Y-25274347D01*
X3581653Y-25274347D01*
X3581650Y-25274346D01*
X3443564Y-25233800D01*
X3443561Y-25233800D01*
X3299639Y-25233800D01*
X3299635Y-25233800D01*
X3161549Y-25274346D01*
X3161543Y-25274348D01*
X3125522Y-25297498D01*
X3066347Y-25313051D01*
X3009331Y-25290852D01*
X2976252Y-25239379D01*
X2973000Y-25214213D01*
X2973000Y-24197200D01*
X2991907Y-24139009D01*
X3001996Y-24127196D01*
X3680667Y-23448525D01*
X4371904Y-22757287D01*
X4414012Y-22732304D01*
X4536453Y-22696353D01*
X4657528Y-22618543D01*
X4751777Y-22509773D01*
X4811565Y-22378857D01*
X4832047Y-22236400D01*
X4825196Y-22188752D01*
X4811565Y-22093943D01*
X4751777Y-21963028D01*
X4751777Y-21963027D01*
X4657528Y-21854257D01*
X4657527Y-21854256D01*
X4657526Y-21854255D01*
X4536457Y-21776449D01*
X4536454Y-21776447D01*
X4536453Y-21776447D01*
X4536450Y-21776446D01*
X4398364Y-21735900D01*
X4398361Y-21735900D01*
X4254439Y-21735900D01*
X4254435Y-21735900D01*
X4116349Y-21776446D01*
X4116342Y-21776449D01*
X3995273Y-21854255D01*
X3901022Y-21963028D01*
X3841234Y-22093944D01*
X3835642Y-22132837D01*
X3808646Y-22187745D01*
X3807654Y-22188752D01*
X2267016Y-23729391D01*
X2267015Y-23729392D01*
X2244450Y-23751958D01*
X2244448Y-23751960D01*
X2233497Y-23773451D01*
X2225387Y-23786685D01*
X2211206Y-23806206D01*
X2211201Y-23806215D01*
X2203749Y-23829152D01*
X2197805Y-23843502D01*
X2186855Y-23864991D01*
X2186852Y-23865001D01*
X2183077Y-23888829D01*
X2179453Y-23903924D01*
X2172001Y-23926862D01*
X2172000Y-23926869D01*
X2172000Y-25481992D01*
X2153093Y-25540183D01*
X2147821Y-25546821D01*
X2147123Y-25547626D01*
X2087334Y-25678543D01*
X2066853Y-25820997D01*
X2066853Y-25821002D01*
X2087334Y-25963456D01*
X2147123Y-26094373D01*
X2147816Y-26095173D01*
X2148160Y-26095989D01*
X2150953Y-26100334D01*
X2150201Y-26100816D01*
X2171636Y-26151531D01*
X2172000Y-26160008D01*
X2172000Y-31198837D01*
X2179453Y-31221774D01*
X2183079Y-31236874D01*
X2186854Y-31260706D01*
X2197801Y-31282188D01*
X2203747Y-31296542D01*
X2211203Y-31319488D01*
X2211202Y-31319488D01*
X2225384Y-31339008D01*
X2233497Y-31352247D01*
X2244450Y-31373742D01*
X2244451Y-31373743D01*
X2264530Y-31393823D01*
X2264531Y-31393823D01*
X2267013Y-31396305D01*
X2267016Y-31396309D01*
X2652733Y-31782026D01*
X3031254Y-32160547D01*
X3059031Y-32215064D01*
X3059242Y-32216462D01*
X3064834Y-32255355D01*
X3116153Y-32367726D01*
X3125100Y-32408853D01*
X3125100Y-35638037D01*
X3132553Y-35660974D01*
X3136179Y-35676074D01*
X3139954Y-35699906D01*
X3150901Y-35721388D01*
X3156847Y-35735742D01*
X3164303Y-35758688D01*
X3164302Y-35758688D01*
X3178484Y-35778208D01*
X3186597Y-35791447D01*
X3197550Y-35812942D01*
X3197551Y-35812943D01*
X3217630Y-35833023D01*
X3217631Y-35833023D01*
X3220113Y-35835505D01*
X3220116Y-35835509D01*
X7541250Y-40156642D01*
X7541249Y-40156642D01*
X7630957Y-40246349D01*
X7630958Y-40246350D01*
X7652449Y-40257300D01*
X7665695Y-40265417D01*
X7685210Y-40279596D01*
X7685212Y-40279596D01*
X7685213Y-40279597D01*
X7708152Y-40287050D01*
X7722495Y-40292990D01*
X7743996Y-40303946D01*
X7767824Y-40307719D01*
X7782933Y-40311347D01*
X7791494Y-40314128D01*
X7805867Y-40318799D01*
X7833679Y-40318799D01*
X7833703Y-40318800D01*
X7837781Y-40318800D01*
X7858668Y-40318800D01*
X7912189Y-40334515D01*
X7980247Y-40378253D01*
X8086703Y-40409511D01*
X8118335Y-40418799D01*
X8118336Y-40418799D01*
X8118339Y-40418800D01*
X8118341Y-40418800D01*
X8262259Y-40418800D01*
X8262261Y-40418800D01*
X8400353Y-40378253D01*
X8521428Y-40300443D01*
X8615677Y-40191673D01*
X8675465Y-40060757D01*
X8695947Y-39918300D01*
X8675465Y-39775843D01*
X8615677Y-39644927D01*
X8521428Y-39536157D01*
X8521427Y-39536156D01*
X8521426Y-39536155D01*
X8400357Y-39458349D01*
X8400354Y-39458347D01*
X8400353Y-39458347D01*
X8400350Y-39458346D01*
X8262264Y-39417800D01*
X8262261Y-39417800D01*
X8118339Y-39417800D01*
X8118335Y-39417800D01*
X8033122Y-39442821D01*
X7971961Y-39441073D01*
X7935227Y-39417835D01*
X7229492Y-38712099D01*
X7201715Y-38657582D01*
X7211286Y-38597150D01*
X7245970Y-38558813D01*
X7327928Y-38506143D01*
X7422177Y-38397373D01*
X7481965Y-38266457D01*
X7502447Y-38124000D01*
X7499358Y-38102517D01*
X7509790Y-38042228D01*
X7527343Y-38018426D01*
X8340775Y-37204995D01*
X8395291Y-37177219D01*
X8455723Y-37186790D01*
X8459463Y-37188937D01*
X8461242Y-37189749D01*
X8461247Y-37189753D01*
X8567703Y-37221011D01*
X8599335Y-37230299D01*
X8599336Y-37230299D01*
X8599339Y-37230300D01*
X8599341Y-37230300D01*
X8743259Y-37230300D01*
X8743261Y-37230300D01*
X8881353Y-37189753D01*
X9002428Y-37111943D01*
X9096677Y-37003173D01*
X9156465Y-36872257D01*
X9176947Y-36729800D01*
X9156465Y-36587343D01*
X9096677Y-36456427D01*
X9002428Y-36347657D01*
X9002427Y-36347656D01*
X9002426Y-36347655D01*
X8881357Y-36269849D01*
X8881354Y-36269847D01*
X8881353Y-36269847D01*
X8881350Y-36269846D01*
X8743264Y-36229300D01*
X8743261Y-36229300D01*
X8599339Y-36229300D01*
X8599335Y-36229300D01*
X8461249Y-36269846D01*
X8461242Y-36269849D01*
X8340172Y-36347656D01*
X8340170Y-36347658D01*
X8247904Y-36454139D01*
X8224919Y-36471124D01*
X8225801Y-36472411D01*
X8218234Y-36477594D01*
X8211286Y-36484542D01*
X8193406Y-36498705D01*
X8185048Y-36503880D01*
X8167907Y-36526578D01*
X8158909Y-36536918D01*
X7101324Y-37594504D01*
X7046807Y-37622281D01*
X7031320Y-37623500D01*
X6924835Y-37623500D01*
X6786749Y-37664046D01*
X6786742Y-37664049D01*
X6665673Y-37741855D01*
X6571421Y-37850629D01*
X6566885Y-37860562D01*
X6525512Y-37905639D01*
X6465544Y-37917787D01*
X6409889Y-37892368D01*
X6406829Y-37889437D01*
X4068195Y-35550802D01*
X9570453Y-35550802D01*
X9590934Y-35693256D01*
X9629731Y-35778208D01*
X9650723Y-35824173D01*
X9660546Y-35835509D01*
X9744973Y-35932944D01*
X9866042Y-36010750D01*
X9866047Y-36010753D01*
X9972503Y-36042011D01*
X10004135Y-36051299D01*
X10004136Y-36051299D01*
X10004139Y-36051300D01*
X10004141Y-36051300D01*
X10148059Y-36051300D01*
X10148061Y-36051300D01*
X10286153Y-36010753D01*
X10407228Y-35932943D01*
X10501477Y-35824173D01*
X10561265Y-35693257D01*
X10581747Y-35550800D01*
X10561265Y-35408343D01*
X10501477Y-35277427D01*
X10407228Y-35168657D01*
X10407227Y-35168656D01*
X10407226Y-35168655D01*
X10286157Y-35090849D01*
X10286154Y-35090847D01*
X10286153Y-35090847D01*
X10286150Y-35090846D01*
X10148064Y-35050300D01*
X10148061Y-35050300D01*
X10004139Y-35050300D01*
X10004135Y-35050300D01*
X9866049Y-35090846D01*
X9866042Y-35090849D01*
X9744973Y-35168655D01*
X9650722Y-35277428D01*
X9590934Y-35408343D01*
X9570453Y-35550797D01*
X9570453Y-35550802D01*
X4068195Y-35550802D01*
X3955096Y-35437703D01*
X3927319Y-35383186D01*
X3926100Y-35367699D01*
X3926100Y-33571760D01*
X3945007Y-33513569D01*
X3994507Y-33477605D01*
X4052988Y-33476770D01*
X4105539Y-33492200D01*
X4105541Y-33492200D01*
X4249459Y-33492200D01*
X4249461Y-33492200D01*
X4387553Y-33451653D01*
X4508628Y-33373843D01*
X4602877Y-33265073D01*
X4662665Y-33134157D01*
X4683147Y-32991700D01*
X4680058Y-32970217D01*
X4690490Y-32909928D01*
X4708043Y-32886126D01*
X6333807Y-31260363D01*
X6345065Y-31252294D01*
X6344305Y-31251287D01*
X6351621Y-31245761D01*
X6351628Y-31245758D01*
X6383268Y-31211049D01*
X6386386Y-31207784D01*
X6399575Y-31194597D01*
X6399637Y-31194505D01*
X6408152Y-31183752D01*
X6427316Y-31162733D01*
X6430865Y-31153569D01*
X6441511Y-31133375D01*
X6447057Y-31125280D01*
X6453569Y-31097588D01*
X6457624Y-31084495D01*
X6462478Y-31071967D01*
X6467900Y-31057973D01*
X6467900Y-31048147D01*
X6470530Y-31025478D01*
X6472779Y-31015918D01*
X6468849Y-30987742D01*
X6467900Y-30974066D01*
X6467900Y-25958300D01*
X6486807Y-25900109D01*
X6536307Y-25864145D01*
X6566900Y-25859300D01*
X7239936Y-25859300D01*
X7253611Y-25861532D01*
X7253783Y-25860306D01*
X7262864Y-25861572D01*
X7262865Y-25861573D01*
X7262865Y-25861572D01*
X7262866Y-25861573D01*
X7309742Y-25859406D01*
X7314314Y-25859300D01*
X7332942Y-25859300D01*
X7332944Y-25859300D01*
X7333048Y-25859280D01*
X7346671Y-25857698D01*
X7375092Y-25856385D01*
X7384076Y-25852417D01*
X7405877Y-25845665D01*
X7415533Y-25843861D01*
X7439718Y-25828886D01*
X7451828Y-25822501D01*
X7477865Y-25811006D01*
X7484809Y-25804060D01*
X7502701Y-25789889D01*
X7511052Y-25784719D01*
X7528189Y-25762023D01*
X7537182Y-25751687D01*
X8870175Y-24418696D01*
X8924692Y-24390919D01*
X8940179Y-24389700D01*
X11141717Y-24389700D01*
X11199908Y-24408607D01*
X11216533Y-24423867D01*
X11257672Y-24471343D01*
X11312222Y-24506400D01*
X11375317Y-24546949D01*
X11378747Y-24549153D01*
X11485203Y-24580411D01*
X11516835Y-24589699D01*
X11516836Y-24589699D01*
X11516839Y-24589700D01*
X11516841Y-24589700D01*
X11660759Y-24589700D01*
X11660761Y-24589700D01*
X11798853Y-24549153D01*
X11919928Y-24471343D01*
X12014177Y-24362573D01*
X12073965Y-24231657D01*
X12094447Y-24089200D01*
X12073965Y-23946743D01*
X12014177Y-23815827D01*
X11919928Y-23707057D01*
X11919927Y-23707056D01*
X11919926Y-23707055D01*
X11798857Y-23629249D01*
X11798854Y-23629247D01*
X11798853Y-23629247D01*
X11798850Y-23629246D01*
X11660764Y-23588700D01*
X11660761Y-23588700D01*
X11516839Y-23588700D01*
X11516835Y-23588700D01*
X11378749Y-23629246D01*
X11378742Y-23629249D01*
X11257676Y-23707054D01*
X11257675Y-23707055D01*
X11257672Y-23707057D01*
X11218764Y-23751960D01*
X11216536Y-23754531D01*
X11164140Y-23786127D01*
X11141717Y-23788700D01*
X8839864Y-23788700D01*
X8826188Y-23786467D01*
X8826017Y-23787694D01*
X8816933Y-23786426D01*
X8770058Y-23788594D01*
X8765486Y-23788700D01*
X8746852Y-23788700D01*
X8746729Y-23788723D01*
X8733119Y-23790301D01*
X8704710Y-23791614D01*
X8704706Y-23791615D01*
X8695715Y-23795585D01*
X8673927Y-23802332D01*
X8664270Y-23804137D01*
X8664264Y-23804140D01*
X8640081Y-23819112D01*
X8627962Y-23825500D01*
X8601937Y-23836992D01*
X8601933Y-23836995D01*
X8594984Y-23843944D01*
X8577109Y-23858103D01*
X8568748Y-23863280D01*
X8551607Y-23885978D01*
X8542609Y-23896318D01*
X7508945Y-24929982D01*
X7454428Y-24957759D01*
X7393996Y-24948188D01*
X7350731Y-24904923D01*
X7340948Y-24874064D01*
X7339565Y-24864443D01*
X7279777Y-24733527D01*
X7185528Y-24624757D01*
X7185527Y-24624756D01*
X7185526Y-24624755D01*
X7064457Y-24546949D01*
X7064454Y-24546947D01*
X7064453Y-24546947D01*
X7064450Y-24546946D01*
X6926364Y-24506400D01*
X6926361Y-24506400D01*
X6819879Y-24506400D01*
X6761688Y-24487493D01*
X6749875Y-24477404D01*
X5720996Y-23448525D01*
X5693219Y-23394008D01*
X5692000Y-23378521D01*
X5692000Y-17984769D01*
X5694231Y-17971096D01*
X5693005Y-17970925D01*
X5694273Y-17961833D01*
X5692106Y-17914958D01*
X5692000Y-17910386D01*
X5692000Y-17891760D01*
X5692000Y-17891756D01*
X5691978Y-17891642D01*
X5690398Y-17878030D01*
X5689085Y-17849609D01*
X5685113Y-17840614D01*
X5678365Y-17818820D01*
X5676561Y-17809167D01*
X5661587Y-17784983D01*
X5655192Y-17772850D01*
X5643707Y-17746836D01*
X5636757Y-17739886D01*
X5622588Y-17721996D01*
X5617420Y-17713649D01*
X5617419Y-17713648D01*
X5594721Y-17696507D01*
X5584379Y-17687508D01*
X2970465Y-15073594D01*
X2962379Y-15062344D01*
X2961387Y-15063094D01*
X2955858Y-15055772D01*
X2921172Y-15024151D01*
X2917868Y-15020996D01*
X2904700Y-15007828D01*
X2904696Y-15007825D01*
X2904593Y-15007755D01*
X2893862Y-14999255D01*
X2872833Y-14980084D01*
X2863662Y-14976531D01*
X2843486Y-14965895D01*
X2835384Y-14960345D01*
X2835379Y-14960343D01*
X2807697Y-14953832D01*
X2794603Y-14949777D01*
X2768077Y-14939500D01*
X2768073Y-14939500D01*
X2758248Y-14939500D01*
X2735583Y-14936870D01*
X2726019Y-14934621D01*
X2726015Y-14934620D01*
X2703474Y-14937765D01*
X2643229Y-14927077D01*
X2600773Y-14883019D01*
X2595062Y-14868452D01*
X2585232Y-14836046D01*
X2487685Y-14653550D01*
X2356410Y-14493590D01*
X2356404Y-14493585D01*
X2196452Y-14362316D01*
X2013954Y-14264768D01*
X1815934Y-14204699D01*
X1815929Y-14204698D01*
X1610003Y-14184417D01*
X1609997Y-14184417D01*
X1404070Y-14204698D01*
X1404065Y-14204699D01*
X1206045Y-14264768D01*
X1023547Y-14362316D01*
X863595Y-14493585D01*
X863585Y-14493595D01*
X732316Y-14653547D01*
X634768Y-14836045D01*
X574699Y-15034065D01*
X574698Y-15034070D01*
X554417Y-15239996D01*
X554417Y-15240003D01*
X574698Y-15445929D01*
X574699Y-15445934D01*
X634768Y-15643954D01*
X732316Y-15826452D01*
X818005Y-15930864D01*
X863590Y-15986410D01*
X863595Y-15986414D01*
X1023547Y-16117683D01*
X1023548Y-16117683D01*
X1023550Y-16117685D01*
X1206046Y-16215232D01*
X1325492Y-16251465D01*
X1404065Y-16275300D01*
X1404070Y-16275301D01*
X1609997Y-16295583D01*
X1610000Y-16295583D01*
X1610003Y-16295583D01*
X1815929Y-16275301D01*
X1815934Y-16275300D01*
X2013954Y-16215232D01*
X2196450Y-16117685D01*
X2356410Y-15986410D01*
X2487685Y-15826450D01*
X2559109Y-15692825D01*
X2603212Y-15650421D01*
X2663821Y-15642038D01*
X2716421Y-15669492D01*
X4252197Y-17205269D01*
X4279974Y-17259786D01*
X4270403Y-17320218D01*
X4235716Y-17358557D01*
X4126176Y-17428953D01*
X4126172Y-17428957D01*
X4106249Y-17451950D01*
X4085036Y-17476431D01*
X4032640Y-17508027D01*
X4010217Y-17510600D01*
X2879492Y-17510600D01*
X2839501Y-17502163D01*
X2835381Y-17500343D01*
X2807697Y-17493832D01*
X2794603Y-17489777D01*
X2768077Y-17479500D01*
X2768073Y-17479500D01*
X2758248Y-17479500D01*
X2735583Y-17476870D01*
X2726019Y-17474621D01*
X2726015Y-17474620D01*
X2703474Y-17477765D01*
X2643229Y-17467077D01*
X2600773Y-17423019D01*
X2595062Y-17408452D01*
X2590786Y-17394355D01*
X2585232Y-17376046D01*
X2487685Y-17193550D01*
X2356410Y-17033590D01*
X2265970Y-16959368D01*
X2196452Y-16902316D01*
X2013954Y-16804768D01*
X1815934Y-16744699D01*
X1815929Y-16744698D01*
X1610003Y-16724417D01*
X1609997Y-16724417D01*
X1404070Y-16744698D01*
X1404065Y-16744699D01*
X1206045Y-16804768D01*
X1023547Y-16902316D01*
X863595Y-17033585D01*
X863585Y-17033595D01*
X732316Y-17193547D01*
X634768Y-17376045D01*
X574699Y-17574065D01*
X574698Y-17574070D01*
X554417Y-17779996D01*
X554417Y-17780003D01*
X300500Y-17780003D01*
X300500Y-12700003D01*
X554417Y-12700003D01*
X574698Y-12905929D01*
X574699Y-12905934D01*
X634768Y-13103954D01*
X732316Y-13286452D01*
X834495Y-13410958D01*
X863590Y-13446410D01*
X863595Y-13446414D01*
X1023547Y-13577683D01*
X1023548Y-13577683D01*
X1023550Y-13577685D01*
X1206046Y-13675232D01*
X1343997Y-13717078D01*
X1404065Y-13735300D01*
X1404070Y-13735301D01*
X1609997Y-13755583D01*
X1610000Y-13755583D01*
X1610003Y-13755583D01*
X1815929Y-13735301D01*
X1815934Y-13735300D01*
X2013954Y-13675232D01*
X2196450Y-13577685D01*
X2356410Y-13446410D01*
X2487685Y-13286450D01*
X2585232Y-13103954D01*
X2645300Y-12905934D01*
X2645301Y-12905928D01*
X2661245Y-12744044D01*
X2685764Y-12687986D01*
X2738551Y-12657047D01*
X2799442Y-12663044D01*
X2829772Y-12683743D01*
X7135704Y-16989675D01*
X7163481Y-17044192D01*
X7164700Y-17059679D01*
X7164700Y-23493705D01*
X7145793Y-23551896D01*
X7138458Y-23559889D01*
X7138709Y-23560106D01*
X7134072Y-23565456D01*
X7134072Y-23565457D01*
X7128538Y-23571844D01*
X7039822Y-23674228D01*
X6980034Y-23805143D01*
X6959553Y-23947597D01*
X6959553Y-23947602D01*
X6980034Y-24090056D01*
X6996996Y-24127196D01*
X7039823Y-24220973D01*
X7116196Y-24309113D01*
X7134073Y-24329744D01*
X7196005Y-24369545D01*
X7255147Y-24407553D01*
X7361603Y-24438811D01*
X7393235Y-24448099D01*
X7393236Y-24448099D01*
X7393239Y-24448100D01*
X7393241Y-24448100D01*
X7537159Y-24448100D01*
X7537161Y-24448100D01*
X7675253Y-24407553D01*
X7796328Y-24329743D01*
X7890577Y-24220973D01*
X7950365Y-24090057D01*
X7957192Y-24042571D01*
X7970847Y-23947602D01*
X7970847Y-23947597D01*
X7950365Y-23805143D01*
X7941681Y-23786127D01*
X7890577Y-23674227D01*
X7796328Y-23565457D01*
X7796327Y-23565456D01*
X7791691Y-23560106D01*
X7793724Y-23558343D01*
X7768267Y-23516105D01*
X7765700Y-23493705D01*
X7765700Y-16959368D01*
X7767931Y-16945695D01*
X7766705Y-16945524D01*
X7767973Y-16936432D01*
X7765806Y-16889557D01*
X7765700Y-16884985D01*
X7765700Y-16866360D01*
X7765700Y-16866356D01*
X7765678Y-16866242D01*
X7764098Y-16852630D01*
X7762785Y-16824208D01*
X7762784Y-16824205D01*
X7761999Y-16820867D01*
X7762405Y-16815994D01*
X7762361Y-16815041D01*
X7762484Y-16815035D01*
X7767080Y-16759893D01*
X7807031Y-16713551D01*
X7858369Y-16699200D01*
X8005859Y-16699200D01*
X8005861Y-16699200D01*
X8135111Y-16661249D01*
X8196269Y-16662996D01*
X8244722Y-16700359D01*
X8262000Y-16756239D01*
X8262000Y-18203205D01*
X8243093Y-18261396D01*
X8235758Y-18269389D01*
X8236009Y-18269606D01*
X8137122Y-18383728D01*
X8077334Y-18514643D01*
X8056853Y-18657097D01*
X8056853Y-18657102D01*
X8077334Y-18799556D01*
X8137122Y-18930471D01*
X8137123Y-18930473D01*
X8213834Y-19019003D01*
X8231373Y-19039244D01*
X8308806Y-19089007D01*
X8352447Y-19117053D01*
X8458903Y-19148311D01*
X8490535Y-19157599D01*
X8490536Y-19157599D01*
X8490539Y-19157600D01*
X8490541Y-19157600D01*
X8634459Y-19157600D01*
X8634461Y-19157600D01*
X8772553Y-19117053D01*
X8893628Y-19039243D01*
X8987877Y-18930473D01*
X9047665Y-18799557D01*
X9068147Y-18657100D01*
X9047665Y-18514643D01*
X8987877Y-18383727D01*
X8893628Y-18274957D01*
X8893627Y-18274956D01*
X8888991Y-18269606D01*
X8891024Y-18267843D01*
X8865567Y-18225605D01*
X8863000Y-18203205D01*
X8863000Y-15987568D01*
X8865231Y-15973895D01*
X8864005Y-15973724D01*
X8865273Y-15964632D01*
X8863106Y-15917757D01*
X8863000Y-15913185D01*
X8863000Y-15894560D01*
X8863000Y-15894556D01*
X8862978Y-15894442D01*
X8861398Y-15880830D01*
X8860085Y-15852408D01*
X8856115Y-15843417D01*
X8849364Y-15821615D01*
X8848418Y-15816555D01*
X8847561Y-15811967D01*
X8832585Y-15787779D01*
X8826198Y-15775662D01*
X8814706Y-15749635D01*
X8814705Y-15749633D01*
X8807756Y-15742684D01*
X8793590Y-15724799D01*
X8788419Y-15716448D01*
X8765721Y-15699307D01*
X8755379Y-15690308D01*
X6530546Y-13465475D01*
X6502769Y-13410958D01*
X6502558Y-13381382D01*
X6505647Y-13359900D01*
X6485165Y-13217443D01*
X6425377Y-13086527D01*
X6331128Y-12977757D01*
X6331127Y-12977756D01*
X6331126Y-12977755D01*
X6210057Y-12899949D01*
X6210054Y-12899947D01*
X6210053Y-12899947D01*
X6210050Y-12899946D01*
X6071964Y-12859400D01*
X6071961Y-12859400D01*
X5928039Y-12859400D01*
X5928035Y-12859400D01*
X5789949Y-12899946D01*
X5789942Y-12899949D01*
X5668873Y-12977755D01*
X5574622Y-13086528D01*
X5514834Y-13217443D01*
X5494353Y-13359897D01*
X5494353Y-13359902D01*
X5514834Y-13502356D01*
X5574622Y-13633271D01*
X5574623Y-13633273D01*
X5663029Y-13735300D01*
X5668873Y-13742044D01*
X5789942Y-13819850D01*
X5789947Y-13819853D01*
X5896403Y-13851111D01*
X5928035Y-13860399D01*
X5928036Y-13860399D01*
X5928039Y-13860400D01*
X5928041Y-13860400D01*
X6034521Y-13860400D01*
X6092712Y-13879307D01*
X6104525Y-13889396D01*
X7783679Y-15568550D01*
X7811456Y-15623067D01*
X7801885Y-15683499D01*
X7758620Y-15726764D01*
X7741568Y-15733543D01*
X7723852Y-15738744D01*
X7723842Y-15738749D01*
X7602773Y-15816555D01*
X7508522Y-15925328D01*
X7448734Y-16056243D01*
X7427245Y-16205708D01*
X7424348Y-16205291D01*
X7409346Y-16251465D01*
X7359846Y-16287429D01*
X7298660Y-16287429D01*
X7259249Y-16263278D01*
X2184161Y-11188190D01*
X2156384Y-11133673D01*
X2165955Y-11073241D01*
X2193719Y-11042024D01*
X2192690Y-11040771D01*
X2229290Y-11010733D01*
X2356410Y-10906410D01*
X2487685Y-10746450D01*
X2585232Y-10563954D01*
X2645300Y-10365934D01*
X2645301Y-10365929D01*
X2665583Y-10160003D01*
X2665583Y-10159996D01*
X2645301Y-9954070D01*
X2645300Y-9954065D01*
X2613731Y-9849997D01*
X2585232Y-9756046D01*
X2487685Y-9573550D01*
X2471589Y-9553937D01*
X2356414Y-9413595D01*
X2356410Y-9413590D01*
X2322789Y-9385998D01*
X2196452Y-9282316D01*
X2013954Y-9184768D01*
X1815934Y-9124699D01*
X1815929Y-9124698D01*
X1610003Y-9104417D01*
X1609997Y-9104417D01*
X1404070Y-9124698D01*
X1404065Y-9124699D01*
X1206045Y-9184768D01*
X1023547Y-9282316D01*
X863595Y-9413585D01*
X863585Y-9413595D01*
X732316Y-9573547D01*
X634768Y-9756045D01*
X574699Y-9954065D01*
X574698Y-9954070D01*
X554417Y-10159996D01*
X554417Y-10160003D01*
X574698Y-10365929D01*
X574699Y-10365934D01*
X634768Y-10563954D01*
X732316Y-10746452D01*
X843100Y-10881443D01*
X863590Y-10906410D01*
X863595Y-10906414D01*
X1023547Y-11037683D01*
X1023548Y-11037683D01*
X1023550Y-11037685D01*
X1206046Y-11135232D01*
X1235393Y-11144134D01*
X1285587Y-11179116D01*
X1305232Y-11229735D01*
X1309078Y-11271236D01*
X1309500Y-11280371D01*
X1309500Y-11289744D01*
X1311222Y-11298960D01*
X1312483Y-11308005D01*
X1315964Y-11345556D01*
X1315965Y-11345561D01*
X1316167Y-11345966D01*
X1324855Y-11371887D01*
X1324937Y-11372328D01*
X1324940Y-11372336D01*
X1344786Y-11404389D01*
X1349235Y-11412375D01*
X1366042Y-11446128D01*
X1366369Y-11446426D01*
X1383842Y-11467467D01*
X1384079Y-11467850D01*
X1384080Y-11467852D01*
X1400110Y-11479956D01*
X1414170Y-11490574D01*
X1421205Y-11496416D01*
X1426725Y-11501449D01*
X1456986Y-11554627D01*
X1450211Y-11615436D01*
X1408987Y-11660649D01*
X1388761Y-11669342D01*
X1206045Y-11724768D01*
X1023547Y-11822316D01*
X863595Y-11953585D01*
X863585Y-11953595D01*
X732316Y-12113547D01*
X634768Y-12296045D01*
X574699Y-12494065D01*
X574698Y-12494070D01*
X554417Y-12699996D01*
X554417Y-12700003D01*
X300500Y-12700003D01*
X300500Y-7620003D01*
X554417Y-7620003D01*
X574698Y-7825929D01*
X574699Y-7825934D01*
X634768Y-8023954D01*
X732316Y-8206452D01*
X839843Y-8337474D01*
X863590Y-8366410D01*
X863595Y-8366414D01*
X1023547Y-8497683D01*
X1023548Y-8497683D01*
X1023550Y-8497685D01*
X1206046Y-8595232D01*
X1299027Y-8623437D01*
X1404065Y-8655300D01*
X1404070Y-8655301D01*
X1609997Y-8675583D01*
X1610000Y-8675583D01*
X1610003Y-8675583D01*
X1815929Y-8655301D01*
X1815934Y-8655300D01*
X1835054Y-8649500D01*
X2013954Y-8595232D01*
X2196450Y-8497685D01*
X2356410Y-8366410D01*
X2461290Y-8238612D01*
X2512820Y-8205626D01*
X2573899Y-8209228D01*
X2607821Y-8231414D01*
X9782391Y-15405984D01*
X9782394Y-15405986D01*
X9782393Y-15405986D01*
X9804956Y-15428548D01*
X9804958Y-15428550D01*
X9826447Y-15439499D01*
X9839692Y-15447615D01*
X9859210Y-15461796D01*
X9882151Y-15469249D01*
X9896501Y-15475194D01*
X9917991Y-15486144D01*
X9917993Y-15486144D01*
X9917996Y-15486146D01*
X9941817Y-15489918D01*
X9956913Y-15493542D01*
X9979867Y-15501000D01*
X10011781Y-15501000D01*
X10784599Y-15501000D01*
X10842790Y-15519907D01*
X10854603Y-15529996D01*
X15116904Y-19792296D01*
X15144681Y-19846813D01*
X15145900Y-19862300D01*
X15145900Y-33657137D01*
X15153353Y-33680074D01*
X15156979Y-33695174D01*
X15160754Y-33719006D01*
X15171701Y-33740488D01*
X15177647Y-33754842D01*
X15185103Y-33777788D01*
X15185102Y-33777788D01*
X15199284Y-33797308D01*
X15207397Y-33810547D01*
X15218350Y-33832042D01*
X15218351Y-33832043D01*
X15238430Y-33852123D01*
X15238431Y-33852123D01*
X15238432Y-33852124D01*
X15238432Y-33852125D01*
X15533654Y-34147348D01*
X15561431Y-34201864D01*
X15561642Y-34203262D01*
X15567234Y-34242156D01*
X15627022Y-34373071D01*
X15627023Y-34373073D01*
X15721272Y-34481843D01*
X15721273Y-34481844D01*
X15842342Y-34559650D01*
X15842347Y-34559653D01*
X15948803Y-34590911D01*
X15980435Y-34600199D01*
X15980436Y-34600199D01*
X15980439Y-34600200D01*
X15980441Y-34600200D01*
X16124359Y-34600200D01*
X16124361Y-34600200D01*
X16262453Y-34559653D01*
X16383528Y-34481843D01*
X16477777Y-34373073D01*
X16537565Y-34242157D01*
X16558047Y-34099700D01*
X16537565Y-33957243D01*
X16477777Y-33826327D01*
X16383528Y-33717557D01*
X16383527Y-33717556D01*
X16383526Y-33717555D01*
X16262457Y-33639749D01*
X16262454Y-33639748D01*
X16262453Y-33639747D01*
X16197908Y-33620795D01*
X16140015Y-33603796D01*
X16097903Y-33578810D01*
X15975896Y-33456803D01*
X15948119Y-33402286D01*
X15946900Y-33386799D01*
X15946900Y-31889502D01*
X17229053Y-31889502D01*
X17249534Y-32031956D01*
X17308261Y-32160547D01*
X17309323Y-32162873D01*
X17389460Y-32255357D01*
X17403573Y-32271644D01*
X17524642Y-32349450D01*
X17524647Y-32349453D01*
X17631103Y-32380711D01*
X17662735Y-32389999D01*
X17662736Y-32389999D01*
X17662739Y-32390000D01*
X17662741Y-32390000D01*
X17806659Y-32390000D01*
X17806661Y-32390000D01*
X17859211Y-32374570D01*
X17920368Y-32376317D01*
X17968821Y-32413679D01*
X17986100Y-32469560D01*
X17986100Y-37853606D01*
X17967193Y-37911797D01*
X17961920Y-37918436D01*
X17954823Y-37926626D01*
X17895034Y-38057543D01*
X17874553Y-38199997D01*
X17874553Y-38200002D01*
X17895034Y-38342456D01*
X17954822Y-38473371D01*
X17954823Y-38473373D01*
X18028854Y-38558810D01*
X18049073Y-38582144D01*
X18170142Y-38659950D01*
X18170147Y-38659953D01*
X18276603Y-38691211D01*
X18308235Y-38700499D01*
X18308236Y-38700499D01*
X18308239Y-38700500D01*
X18308241Y-38700500D01*
X18452159Y-38700500D01*
X18452161Y-38700500D01*
X18590253Y-38659953D01*
X18711328Y-38582143D01*
X18805577Y-38473373D01*
X18865365Y-38342457D01*
X18885847Y-38200000D01*
X18865365Y-38057543D01*
X18805577Y-37926627D01*
X18805576Y-37926626D01*
X18802815Y-37922329D01*
X18787100Y-37868807D01*
X18787100Y-30484100D01*
X18806007Y-30425909D01*
X18816096Y-30414097D01*
X19147002Y-30083190D01*
X19189112Y-30058204D01*
X19311553Y-30022253D01*
X19432628Y-29944443D01*
X19526877Y-29835673D01*
X19586665Y-29704757D01*
X19607147Y-29562300D01*
X19600296Y-29514652D01*
X19586665Y-29419843D01*
X19526877Y-29288928D01*
X19526877Y-29288927D01*
X19432628Y-29180157D01*
X19432627Y-29180156D01*
X19432626Y-29180155D01*
X19311557Y-29102349D01*
X19311554Y-29102347D01*
X19311553Y-29102347D01*
X19311550Y-29102346D01*
X19173464Y-29061800D01*
X19173461Y-29061800D01*
X19029539Y-29061800D01*
X19029535Y-29061800D01*
X18891449Y-29102346D01*
X18891442Y-29102349D01*
X18770373Y-29180155D01*
X18676122Y-29288928D01*
X18616334Y-29419844D01*
X18610742Y-29458737D01*
X18583746Y-29513645D01*
X18582754Y-29514652D01*
X18081116Y-30016291D01*
X18081115Y-30016292D01*
X18058550Y-30038858D01*
X18058548Y-30038860D01*
X18047597Y-30060351D01*
X18039487Y-30073585D01*
X18025306Y-30093106D01*
X18025301Y-30093115D01*
X18017849Y-30116052D01*
X18011905Y-30130402D01*
X18000955Y-30151891D01*
X18000952Y-30151901D01*
X17997177Y-30175729D01*
X17993553Y-30190824D01*
X17986101Y-30213762D01*
X17986100Y-30213769D01*
X17986100Y-31309439D01*
X17967193Y-31367630D01*
X17917693Y-31403594D01*
X17859209Y-31404429D01*
X17806664Y-31389000D01*
X17806661Y-31389000D01*
X17662739Y-31389000D01*
X17662735Y-31389000D01*
X17524649Y-31429546D01*
X17524642Y-31429549D01*
X17403573Y-31507355D01*
X17309322Y-31616128D01*
X17249534Y-31747043D01*
X17229053Y-31889497D01*
X17229053Y-31889502D01*
X15946900Y-31889502D01*
X15946900Y-20470000D01*
X18299187Y-20470000D01*
X18304097Y-20522989D01*
X18359887Y-20719070D01*
X18450750Y-20901548D01*
X18450755Y-20901557D01*
X18573608Y-21064240D01*
X18724266Y-21201582D01*
X18897581Y-21308895D01*
X18897586Y-21308898D01*
X19087683Y-21382541D01*
X19239999Y-21411014D01*
X19240000Y-21411014D01*
X19240000Y-20801170D01*
X19247685Y-20804680D01*
X19354237Y-20820000D01*
X19425763Y-20820000D01*
X19532315Y-20804680D01*
X19540000Y-20801170D01*
X19540000Y-21411014D01*
X19692316Y-21382541D01*
X19882413Y-21308898D01*
X19882418Y-21308895D01*
X20055733Y-21201582D01*
X20206391Y-21064240D01*
X20329244Y-20901557D01*
X20329249Y-20901548D01*
X20420112Y-20719070D01*
X20475902Y-20522989D01*
X20480813Y-20470000D01*
X19867065Y-20470000D01*
X19890000Y-20391889D01*
X19890000Y-20248111D01*
X19867065Y-20170000D01*
X20480812Y-20170000D01*
X20475902Y-20117010D01*
X20420112Y-19920929D01*
X20329249Y-19738451D01*
X20329244Y-19738442D01*
X20206391Y-19575759D01*
X20055733Y-19438417D01*
X19882418Y-19331104D01*
X19882413Y-19331101D01*
X19692319Y-19257459D01*
X19692313Y-19257457D01*
X19540000Y-19228984D01*
X19540000Y-19838829D01*
X19532315Y-19835320D01*
X19425763Y-19820000D01*
X19354237Y-19820000D01*
X19247685Y-19835320D01*
X19240000Y-19838829D01*
X19240000Y-19228985D01*
X19239999Y-19228984D01*
X19087686Y-19257457D01*
X19087680Y-19257459D01*
X18897586Y-19331101D01*
X18897581Y-19331104D01*
X18724266Y-19438417D01*
X18573608Y-19575759D01*
X18450755Y-19738442D01*
X18450750Y-19738451D01*
X18359887Y-19920929D01*
X18304097Y-20117010D01*
X18299187Y-20170000D01*
X18912935Y-20170000D01*
X18890000Y-20248111D01*
X18890000Y-20391889D01*
X18912935Y-20470000D01*
X18299187Y-20470000D01*
X15946900Y-20470000D01*
X15946900Y-19862300D01*
X15965807Y-19804109D01*
X15975896Y-19792296D01*
X17558696Y-18209496D01*
X17613213Y-18181719D01*
X17628700Y-18180500D01*
X18156581Y-18180500D01*
X18353584Y-18180500D01*
X18411775Y-18199407D01*
X18440892Y-18232829D01*
X18461324Y-18271053D01*
X18512316Y-18366452D01*
X18633933Y-18514643D01*
X18643590Y-18526410D01*
X18643595Y-18526414D01*
X18803547Y-18657683D01*
X18803548Y-18657683D01*
X18803550Y-18657685D01*
X18986046Y-18755232D01*
X19123997Y-18797078D01*
X19184065Y-18815300D01*
X19184070Y-18815301D01*
X19389997Y-18835583D01*
X19390000Y-18835583D01*
X19390003Y-18835583D01*
X19595929Y-18815301D01*
X19595934Y-18815300D01*
X19793954Y-18755232D01*
X19976450Y-18657685D01*
X20136410Y-18526410D01*
X20267685Y-18366450D01*
X20365232Y-18183954D01*
X20425300Y-17985934D01*
X20425301Y-17985929D01*
X20445583Y-17780003D01*
X20445583Y-17779996D01*
X20425301Y-17574070D01*
X20425300Y-17574065D01*
X20406048Y-17510600D01*
X20365232Y-17376046D01*
X20267685Y-17193550D01*
X20136410Y-17033590D01*
X20045970Y-16959368D01*
X19976452Y-16902316D01*
X19793954Y-16804768D01*
X19595934Y-16744699D01*
X19595929Y-16744698D01*
X19390003Y-16724417D01*
X19389997Y-16724417D01*
X19184070Y-16744698D01*
X19184065Y-16744699D01*
X18986045Y-16804768D01*
X18803547Y-16902316D01*
X18643595Y-17033585D01*
X18643585Y-17033595D01*
X18512316Y-17193547D01*
X18440894Y-17327169D01*
X18396788Y-17369575D01*
X18353584Y-17379500D01*
X18219619Y-17379500D01*
X17485233Y-17379500D01*
X17358367Y-17379500D01*
X17358365Y-17379500D01*
X17358362Y-17379501D01*
X17335424Y-17386953D01*
X17320329Y-17390577D01*
X17296501Y-17394352D01*
X17296491Y-17394355D01*
X17275002Y-17405305D01*
X17260653Y-17411248D01*
X17254332Y-17413302D01*
X17237711Y-17418703D01*
X17218193Y-17432884D01*
X17204950Y-17440999D01*
X17183458Y-17451950D01*
X17183456Y-17451951D01*
X17160890Y-17474516D01*
X17160891Y-17474517D01*
X15616403Y-19019003D01*
X15561886Y-19046780D01*
X15501454Y-19037209D01*
X15476395Y-19019003D01*
X13400608Y-16943216D01*
X11252409Y-14795016D01*
X11252405Y-14795013D01*
X11249923Y-14792531D01*
X11249923Y-14792530D01*
X11229843Y-14772451D01*
X11229842Y-14772450D01*
X11208347Y-14761497D01*
X11195108Y-14753384D01*
X11189081Y-14749005D01*
X11175590Y-14739204D01*
X11175588Y-14739203D01*
X11152642Y-14731747D01*
X11138288Y-14725801D01*
X11116806Y-14714854D01*
X11092974Y-14711079D01*
X11077874Y-14707453D01*
X11054937Y-14700000D01*
X11054933Y-14700000D01*
X11023019Y-14700000D01*
X10250201Y-14700000D01*
X10192010Y-14681093D01*
X10180197Y-14671004D01*
X6628682Y-11119489D01*
X6600905Y-11064972D01*
X6610476Y-11004540D01*
X6653741Y-10961275D01*
X6657571Y-10959427D01*
X6657943Y-10959255D01*
X6657953Y-10959253D01*
X6779028Y-10881443D01*
X6873277Y-10772673D01*
X6933065Y-10641757D01*
X6949388Y-10528226D01*
X6953547Y-10499302D01*
X6953547Y-10499297D01*
X6933065Y-10356843D01*
X6930283Y-10350752D01*
X6873277Y-10225927D01*
X6779028Y-10117157D01*
X6779027Y-10117156D01*
X6779026Y-10117155D01*
X6657957Y-10039349D01*
X6657954Y-10039347D01*
X6657953Y-10039347D01*
X6657950Y-10039346D01*
X6519864Y-9998800D01*
X6519861Y-9998800D01*
X6375939Y-9998800D01*
X6375935Y-9998800D01*
X6237849Y-10039346D01*
X6237842Y-10039349D01*
X6116773Y-10117155D01*
X6022522Y-10225927D01*
X5991651Y-10293525D01*
X5950278Y-10338602D01*
X5890311Y-10350752D01*
X5834656Y-10325333D01*
X5831594Y-10322401D01*
X4933969Y-9424776D01*
X4906192Y-9370259D01*
X4915763Y-9309827D01*
X4959028Y-9266562D01*
X5000948Y-9255818D01*
X5009338Y-9255561D01*
X5009344Y-9255562D01*
X5022029Y-9252787D01*
X5043185Y-9250500D01*
X8313647Y-9250500D01*
X8331517Y-9252126D01*
X8351008Y-9255703D01*
X8405758Y-9245281D01*
X8460433Y-9235061D01*
X8460434Y-9235060D01*
X8460441Y-9235059D01*
X8461168Y-9234775D01*
X8461368Y-9234696D01*
X8461373Y-9234696D01*
X8482014Y-9221821D01*
X8508564Y-9205260D01*
X8508845Y-9205085D01*
X8512580Y-9202773D01*
X8555952Y-9175919D01*
X8555955Y-9175914D01*
X8556694Y-9175240D01*
X8556695Y-9175238D01*
X8556696Y-9175238D01*
X8590080Y-9130724D01*
X8623656Y-9086264D01*
X8623656Y-9086262D01*
X8628311Y-9080099D01*
X8629515Y-9078145D01*
X8810380Y-8836992D01*
X8860417Y-8801787D01*
X8861687Y-8801405D01*
X8864769Y-8800500D01*
X8864772Y-8800500D01*
X8989069Y-8764004D01*
X9098049Y-8693967D01*
X9182882Y-8596063D01*
X9203918Y-8550002D01*
X9694867Y-8550002D01*
X9713302Y-8678225D01*
X9752477Y-8764004D01*
X9767118Y-8796063D01*
X9851951Y-8893967D01*
X9851952Y-8893968D01*
X9929754Y-8943968D01*
X9960931Y-8964004D01*
X9967829Y-8966029D01*
X10018335Y-9000560D01*
X10030405Y-9020806D01*
X10040967Y-9044572D01*
X10049500Y-9084778D01*
X10049500Y-11821937D01*
X10030593Y-11880128D01*
X10025320Y-11886767D01*
X9967118Y-11953936D01*
X9967116Y-11953940D01*
X9913302Y-12071774D01*
X9894867Y-12199997D01*
X9894867Y-12200002D01*
X9913302Y-12328225D01*
X9948898Y-12406167D01*
X9967118Y-12446063D01*
X10042477Y-12533033D01*
X10051952Y-12543968D01*
X10160926Y-12614001D01*
X10160931Y-12614004D01*
X10285228Y-12650500D01*
X10285230Y-12650500D01*
X10414770Y-12650500D01*
X10414772Y-12650500D01*
X10539069Y-12614004D01*
X10648049Y-12543967D01*
X10732882Y-12446063D01*
X10786697Y-12328226D01*
X10805133Y-12200000D01*
X10792703Y-12113550D01*
X10786697Y-12071774D01*
X10732883Y-11953940D01*
X10732882Y-11953937D01*
X10674679Y-11886766D01*
X10650863Y-11830408D01*
X10650500Y-11821937D01*
X10650500Y-9800002D01*
X11744867Y-9800002D01*
X11763302Y-9928225D01*
X11789686Y-9985996D01*
X11817118Y-10046063D01*
X11890621Y-10130891D01*
X11901952Y-10143968D01*
X12010926Y-10214001D01*
X12010931Y-10214004D01*
X12135228Y-10250500D01*
X12135230Y-10250500D01*
X12264770Y-10250500D01*
X12264772Y-10250500D01*
X12389069Y-10214004D01*
X12498049Y-10143967D01*
X12509379Y-10130890D01*
X12561774Y-10099293D01*
X12622735Y-10104528D01*
X12668977Y-10144594D01*
X12682837Y-10204189D01*
X12674254Y-10236846D01*
X12658301Y-10271776D01*
X12639867Y-10399997D01*
X12639867Y-10400002D01*
X12658302Y-10528224D01*
X12685553Y-10587894D01*
X12694500Y-10629021D01*
X12694500Y-12533037D01*
X12701953Y-12555974D01*
X12705579Y-12571074D01*
X12709354Y-12594906D01*
X12720301Y-12616388D01*
X12726247Y-12630742D01*
X12733703Y-12653688D01*
X12733702Y-12653688D01*
X12747884Y-12673208D01*
X12755997Y-12686447D01*
X12766950Y-12707942D01*
X12766951Y-12707943D01*
X12787030Y-12728023D01*
X12787031Y-12728023D01*
X12789513Y-12730505D01*
X12789516Y-12730509D01*
X13794307Y-13735300D01*
X14791254Y-14732247D01*
X14819031Y-14786764D01*
X14819242Y-14788162D01*
X14824834Y-14827056D01*
X14880880Y-14949777D01*
X14884623Y-14957973D01*
X14950561Y-15034070D01*
X14978873Y-15066744D01*
X14989532Y-15073594D01*
X15099947Y-15144553D01*
X15181855Y-15168603D01*
X15238035Y-15185099D01*
X15238036Y-15185099D01*
X15238039Y-15185100D01*
X15238041Y-15185100D01*
X15381959Y-15185100D01*
X15381961Y-15185100D01*
X15520053Y-15144553D01*
X15641128Y-15066743D01*
X15735377Y-14957973D01*
X15795165Y-14827057D01*
X15805447Y-14755546D01*
X15815647Y-14684602D01*
X15815647Y-14684597D01*
X15795165Y-14542143D01*
X15735377Y-14411227D01*
X15641128Y-14302457D01*
X15641127Y-14302456D01*
X15641126Y-14302455D01*
X15520057Y-14224649D01*
X15520054Y-14224648D01*
X15520053Y-14224647D01*
X15452112Y-14204698D01*
X15397615Y-14188696D01*
X15355503Y-14163710D01*
X13524496Y-12332703D01*
X13496719Y-12278186D01*
X13495500Y-12262699D01*
X13495500Y-10629021D01*
X13504447Y-10587894D01*
X13515380Y-10563954D01*
X13531697Y-10528226D01*
X13550133Y-10400000D01*
X13545234Y-10365929D01*
X13531697Y-10271774D01*
X13515746Y-10236846D01*
X13477882Y-10153937D01*
X13393049Y-10056033D01*
X13393048Y-10056032D01*
X13393047Y-10056031D01*
X13284073Y-9985998D01*
X13284070Y-9985996D01*
X13284069Y-9985996D01*
X13284066Y-9985995D01*
X13159774Y-9949500D01*
X13159772Y-9949500D01*
X13030228Y-9949500D01*
X13030225Y-9949500D01*
X12905933Y-9985995D01*
X12905926Y-9985998D01*
X12796951Y-10056032D01*
X12796950Y-10056033D01*
X12785616Y-10069113D01*
X12733219Y-10100707D01*
X12672258Y-10095469D01*
X12626019Y-10055400D01*
X12612162Y-9995804D01*
X12620747Y-9963151D01*
X12636697Y-9928226D01*
X12636697Y-9928225D01*
X12647944Y-9850002D01*
X16394867Y-9850002D01*
X16413302Y-9978224D01*
X16440553Y-10037894D01*
X16449500Y-10079021D01*
X16449500Y-15368937D01*
X16456953Y-15391874D01*
X16460579Y-15406974D01*
X16464354Y-15430806D01*
X16475301Y-15452288D01*
X16481247Y-15466642D01*
X16488703Y-15489588D01*
X16488702Y-15489588D01*
X16502884Y-15509108D01*
X16510997Y-15522347D01*
X16521950Y-15543842D01*
X16521951Y-15543843D01*
X16542030Y-15563923D01*
X16542031Y-15563923D01*
X16542032Y-15563924D01*
X16542032Y-15563925D01*
X16854454Y-15876348D01*
X16882231Y-15930864D01*
X16882442Y-15932262D01*
X16888034Y-15971156D01*
X16926893Y-16056243D01*
X16947823Y-16102073D01*
X16961351Y-16117685D01*
X17042073Y-16210844D01*
X17161242Y-16287429D01*
X17163147Y-16288653D01*
X17269603Y-16319911D01*
X17301235Y-16329199D01*
X17301236Y-16329199D01*
X17301239Y-16329200D01*
X17301241Y-16329200D01*
X17445159Y-16329200D01*
X17445161Y-16329200D01*
X17583253Y-16288653D01*
X17704328Y-16210843D01*
X17798577Y-16102073D01*
X17858365Y-15971157D01*
X17869378Y-15894559D01*
X17878847Y-15828702D01*
X17878847Y-15828697D01*
X17858365Y-15686243D01*
X17829513Y-15623067D01*
X17798577Y-15555327D01*
X17704328Y-15446557D01*
X17704327Y-15446556D01*
X17704326Y-15446555D01*
X17583257Y-15368749D01*
X17583254Y-15368748D01*
X17583253Y-15368747D01*
X17529554Y-15352980D01*
X17460815Y-15332796D01*
X17418703Y-15307810D01*
X17350896Y-15240003D01*
X18334417Y-15240003D01*
X18354698Y-15445929D01*
X18354699Y-15445934D01*
X18414768Y-15643954D01*
X18512316Y-15826452D01*
X18598005Y-15930864D01*
X18643590Y-15986410D01*
X18643595Y-15986414D01*
X18803547Y-16117683D01*
X18803548Y-16117683D01*
X18803550Y-16117685D01*
X18986046Y-16215232D01*
X19105492Y-16251465D01*
X19184065Y-16275300D01*
X19184070Y-16275301D01*
X19389997Y-16295583D01*
X19390000Y-16295583D01*
X19390003Y-16295583D01*
X19595929Y-16275301D01*
X19595934Y-16275300D01*
X19793954Y-16215232D01*
X19976450Y-16117685D01*
X20136410Y-15986410D01*
X20267685Y-15826450D01*
X20365232Y-15643954D01*
X20425300Y-15445934D01*
X20425301Y-15445929D01*
X20445583Y-15240003D01*
X20445583Y-15239996D01*
X20425301Y-15034070D01*
X20425300Y-15034065D01*
X20402217Y-14957971D01*
X20365232Y-14836046D01*
X20267685Y-14653550D01*
X20136410Y-14493590D01*
X20136404Y-14493585D01*
X19976452Y-14362316D01*
X19793954Y-14264768D01*
X19595934Y-14204699D01*
X19595929Y-14204698D01*
X19390003Y-14184417D01*
X19389997Y-14184417D01*
X19184070Y-14204698D01*
X19184065Y-14204699D01*
X18986045Y-14264768D01*
X18803547Y-14362316D01*
X18643595Y-14493585D01*
X18643585Y-14493595D01*
X18512316Y-14653547D01*
X18414768Y-14836045D01*
X18354699Y-15034065D01*
X18354698Y-15034070D01*
X18334417Y-15239996D01*
X18334417Y-15240003D01*
X17350896Y-15240003D01*
X17279496Y-15168603D01*
X17251719Y-15114086D01*
X17250500Y-15098599D01*
X17250500Y-12700003D01*
X18334417Y-12700003D01*
X18354698Y-12905929D01*
X18354699Y-12905934D01*
X18414768Y-13103954D01*
X18512316Y-13286452D01*
X18614495Y-13410958D01*
X18643590Y-13446410D01*
X18643595Y-13446414D01*
X18803547Y-13577683D01*
X18803548Y-13577683D01*
X18803550Y-13577685D01*
X18986046Y-13675232D01*
X19123997Y-13717078D01*
X19184065Y-13735300D01*
X19184070Y-13735301D01*
X19389997Y-13755583D01*
X19390000Y-13755583D01*
X19390003Y-13755583D01*
X19595929Y-13735301D01*
X19595934Y-13735300D01*
X19793954Y-13675232D01*
X19976450Y-13577685D01*
X20136410Y-13446410D01*
X20267685Y-13286450D01*
X20365232Y-13103954D01*
X20425300Y-12905934D01*
X20425301Y-12905929D01*
X20445583Y-12700003D01*
X20445583Y-12699996D01*
X20425301Y-12494070D01*
X20425300Y-12494065D01*
X20398636Y-12406167D01*
X20365232Y-12296046D01*
X20267685Y-12113550D01*
X20136410Y-11953590D01*
X20136404Y-11953585D01*
X19976452Y-11822316D01*
X19793954Y-11724768D01*
X19595934Y-11664699D01*
X19595929Y-11664698D01*
X19390003Y-11644417D01*
X19389997Y-11644417D01*
X19184070Y-11664698D01*
X19184065Y-11664699D01*
X18986045Y-11724768D01*
X18803547Y-11822316D01*
X18643595Y-11953585D01*
X18643585Y-11953595D01*
X18512316Y-12113547D01*
X18414768Y-12296045D01*
X18354699Y-12494065D01*
X18354698Y-12494070D01*
X18334417Y-12699996D01*
X18334417Y-12700003D01*
X17250500Y-12700003D01*
X17250500Y-10160003D01*
X18334417Y-10160003D01*
X18354698Y-10365929D01*
X18354699Y-10365934D01*
X18414768Y-10563954D01*
X18512316Y-10746452D01*
X18623100Y-10881443D01*
X18643590Y-10906410D01*
X18643595Y-10906414D01*
X18803547Y-11037683D01*
X18803548Y-11037683D01*
X18803550Y-11037685D01*
X18986046Y-11135232D01*
X19089500Y-11166614D01*
X19184065Y-11195300D01*
X19184070Y-11195301D01*
X19389997Y-11215583D01*
X19390000Y-11215583D01*
X19390003Y-11215583D01*
X19595929Y-11195301D01*
X19595934Y-11195300D01*
X19793954Y-11135232D01*
X19976450Y-11037685D01*
X20136410Y-10906410D01*
X20267685Y-10746450D01*
X20365232Y-10563954D01*
X20425300Y-10365934D01*
X20425301Y-10365929D01*
X20445583Y-10160003D01*
X20445583Y-10159996D01*
X20425301Y-9954070D01*
X20425300Y-9954065D01*
X20393731Y-9849997D01*
X20365232Y-9756046D01*
X20267685Y-9573550D01*
X20251589Y-9553937D01*
X20136414Y-9413595D01*
X20136410Y-9413590D01*
X20102789Y-9385998D01*
X19976452Y-9282316D01*
X19793954Y-9184768D01*
X19595934Y-9124699D01*
X19595929Y-9124698D01*
X19390003Y-9104417D01*
X19389997Y-9104417D01*
X19184070Y-9124698D01*
X19184065Y-9124699D01*
X18986045Y-9184768D01*
X18803547Y-9282316D01*
X18643595Y-9413585D01*
X18643585Y-9413595D01*
X18512316Y-9573547D01*
X18414768Y-9756045D01*
X18354699Y-9954065D01*
X18354698Y-9954070D01*
X18334417Y-10159996D01*
X18334417Y-10160003D01*
X17250500Y-10160003D01*
X17250500Y-10079021D01*
X17259447Y-10037894D01*
X17286697Y-9978226D01*
X17305133Y-9850000D01*
X17297944Y-9800002D01*
X17286697Y-9721774D01*
X17232882Y-9603938D01*
X17232882Y-9603937D01*
X17148049Y-9506033D01*
X17148048Y-9506032D01*
X17148047Y-9506031D01*
X17039073Y-9435998D01*
X17039070Y-9435996D01*
X17039069Y-9435996D01*
X17039066Y-9435995D01*
X16914774Y-9399500D01*
X16914772Y-9399500D01*
X16785228Y-9399500D01*
X16785225Y-9399500D01*
X16660933Y-9435995D01*
X16660926Y-9435998D01*
X16551952Y-9506031D01*
X16467117Y-9603938D01*
X16413302Y-9721774D01*
X16394867Y-9849997D01*
X16394867Y-9850002D01*
X12647944Y-9850002D01*
X12655133Y-9800002D01*
X12655133Y-9799997D01*
X12636697Y-9671774D01*
X12605717Y-9603938D01*
X12582882Y-9553937D01*
X12498049Y-9456033D01*
X12498048Y-9456032D01*
X12498047Y-9456031D01*
X12389073Y-9385998D01*
X12389070Y-9385996D01*
X12389069Y-9385996D01*
X12389066Y-9385995D01*
X12264774Y-9349500D01*
X12264772Y-9349500D01*
X12135228Y-9349500D01*
X12135225Y-9349500D01*
X12010933Y-9385995D01*
X12010926Y-9385998D01*
X11901952Y-9456031D01*
X11817117Y-9553938D01*
X11763302Y-9671774D01*
X11744867Y-9799997D01*
X11744867Y-9800002D01*
X10650500Y-9800002D01*
X10650500Y-9064671D01*
X10652756Y-9050745D01*
X10651630Y-9050591D01*
X10652875Y-9041503D01*
X10650617Y-8995102D01*
X10650500Y-8990290D01*
X10650500Y-8973799D01*
X10669407Y-8915608D01*
X10718907Y-8879644D01*
X10753455Y-8874878D01*
X11009643Y-8885125D01*
X11067029Y-8906343D01*
X11080504Y-8919215D01*
X11101952Y-8943968D01*
X11210926Y-9014001D01*
X11210931Y-9014004D01*
X11335228Y-9050500D01*
X11335230Y-9050500D01*
X11464770Y-9050500D01*
X11464772Y-9050500D01*
X11589069Y-9014004D01*
X11698049Y-8943967D01*
X11782882Y-8846063D01*
X11804792Y-8798086D01*
X11846161Y-8753011D01*
X11906128Y-8740859D01*
X11948367Y-8755930D01*
X11960926Y-8764001D01*
X11960931Y-8764004D01*
X12085228Y-8800500D01*
X12134521Y-8800500D01*
X12192712Y-8819407D01*
X12204525Y-8829496D01*
X12441436Y-9066407D01*
X12449537Y-9077647D01*
X12450516Y-9076909D01*
X12456044Y-9084230D01*
X12490724Y-9115845D01*
X12494032Y-9119003D01*
X12507203Y-9132174D01*
X12507295Y-9132237D01*
X12518042Y-9140750D01*
X12539064Y-9159914D01*
X12539065Y-9159914D01*
X12539067Y-9159916D01*
X12548230Y-9163466D01*
X12568416Y-9174105D01*
X12576519Y-9179656D01*
X12604215Y-9186170D01*
X12617293Y-9190220D01*
X12643827Y-9200500D01*
X12653652Y-9200500D01*
X12676316Y-9203129D01*
X12685881Y-9205379D01*
X12713645Y-9201506D01*
X12714054Y-9201449D01*
X12727731Y-9200500D01*
X16134836Y-9200500D01*
X16148511Y-9202732D01*
X16148683Y-9201506D01*
X16157764Y-9202772D01*
X16157765Y-9202773D01*
X16157765Y-9202772D01*
X16157766Y-9202773D01*
X16204642Y-9200606D01*
X16209214Y-9200500D01*
X16227842Y-9200500D01*
X16227844Y-9200500D01*
X16227948Y-9200480D01*
X16241571Y-9198898D01*
X16269992Y-9197585D01*
X16278976Y-9193617D01*
X16300777Y-9186865D01*
X16310433Y-9185061D01*
X16334618Y-9170086D01*
X16346728Y-9163701D01*
X16372765Y-9152206D01*
X16379709Y-9145260D01*
X16397601Y-9131089D01*
X16405952Y-9125919D01*
X16423092Y-9103219D01*
X16432086Y-9092883D01*
X16645475Y-8879496D01*
X16699991Y-8851719D01*
X16715478Y-8850500D01*
X16764770Y-8850500D01*
X16764772Y-8850500D01*
X16889069Y-8814004D01*
X16998049Y-8743967D01*
X17082882Y-8646063D01*
X17136697Y-8528226D01*
X17143886Y-8478225D01*
X17155133Y-8400002D01*
X17155133Y-8399997D01*
X17136697Y-8271774D01*
X17133545Y-8264873D01*
X17082882Y-8153937D01*
X16998049Y-8056033D01*
X16998048Y-8056032D01*
X16998047Y-8056031D01*
X16889073Y-7985998D01*
X16889070Y-7985996D01*
X16889069Y-7985996D01*
X16889066Y-7985995D01*
X16764774Y-7949500D01*
X16764772Y-7949500D01*
X16635228Y-7949500D01*
X16635225Y-7949500D01*
X16510933Y-7985995D01*
X16510926Y-7985998D01*
X16401952Y-8056031D01*
X16317117Y-8153938D01*
X16263302Y-8271774D01*
X16244491Y-8402611D01*
X16217495Y-8457519D01*
X16216503Y-8458525D01*
X16104526Y-8570503D01*
X16050009Y-8598281D01*
X16034522Y-8599500D01*
X12865479Y-8599500D01*
X12807288Y-8580593D01*
X12795476Y-8570504D01*
X12633497Y-8408526D01*
X12605719Y-8354009D01*
X12605508Y-8352610D01*
X12605132Y-8349997D01*
X12586697Y-8221774D01*
X12532882Y-8103937D01*
X12448049Y-8006033D01*
X12448048Y-8006032D01*
X12448047Y-8006031D01*
X12339073Y-7935998D01*
X12339070Y-7935996D01*
X12339069Y-7935996D01*
X12339066Y-7935995D01*
X12214774Y-7899500D01*
X12214772Y-7899500D01*
X12085228Y-7899500D01*
X12085225Y-7899500D01*
X11960933Y-7935995D01*
X11960926Y-7935998D01*
X11853023Y-8005343D01*
X11793848Y-8020898D01*
X11736831Y-7998699D01*
X11703752Y-7947226D01*
X11700500Y-7922059D01*
X11700500Y-7620003D01*
X18334417Y-7620003D01*
X18354698Y-7825929D01*
X18354699Y-7825934D01*
X18414768Y-8023954D01*
X18512316Y-8206452D01*
X18619843Y-8337474D01*
X18643590Y-8366410D01*
X18643595Y-8366414D01*
X18803547Y-8497683D01*
X18803548Y-8497683D01*
X18803550Y-8497685D01*
X18986046Y-8595232D01*
X19079027Y-8623437D01*
X19184065Y-8655300D01*
X19184070Y-8655301D01*
X19389997Y-8675583D01*
X19390000Y-8675583D01*
X19390003Y-8675583D01*
X19595929Y-8655301D01*
X19595934Y-8655300D01*
X19615054Y-8649500D01*
X19793954Y-8595232D01*
X19976450Y-8497685D01*
X20136410Y-8366410D01*
X20267685Y-8206450D01*
X20365232Y-8023954D01*
X20425300Y-7825934D01*
X20425301Y-7825929D01*
X20445583Y-7620003D01*
X20445583Y-7619996D01*
X20425301Y-7414070D01*
X20425300Y-7414065D01*
X20388257Y-7291950D01*
X20365232Y-7216046D01*
X20267685Y-7033550D01*
X20242778Y-7003201D01*
X20136414Y-6873595D01*
X20136410Y-6873590D01*
X20095785Y-6840250D01*
X19976452Y-6742316D01*
X19793954Y-6644768D01*
X19595934Y-6584699D01*
X19595929Y-6584698D01*
X19390003Y-6564417D01*
X19389997Y-6564417D01*
X19184070Y-6584698D01*
X19184065Y-6584699D01*
X18986045Y-6644768D01*
X18803547Y-6742316D01*
X18643595Y-6873585D01*
X18643585Y-6873595D01*
X18512316Y-7033547D01*
X18414768Y-7216045D01*
X18354699Y-7414065D01*
X18354698Y-7414070D01*
X18334417Y-7619996D01*
X18334417Y-7620003D01*
X11700500Y-7620003D01*
X11700500Y-4999500D01*
X11719407Y-4941309D01*
X11768907Y-4905345D01*
X11799500Y-4900500D01*
X14245175Y-4900500D01*
X14303366Y-4919407D01*
X14339330Y-4968907D01*
X14339330Y-5030093D01*
X14305896Y-5076678D01*
X14306010Y-5076798D01*
X14305393Y-5077379D01*
X14304296Y-5078909D01*
X14301814Y-5080756D01*
X14301813Y-5080757D01*
X14189119Y-5215059D01*
X14110432Y-5371737D01*
X14110430Y-5371744D01*
X14084415Y-5481509D01*
X14052598Y-5533771D01*
X13996138Y-5557350D01*
X13936602Y-5543239D01*
X13896730Y-5496829D01*
X13891155Y-5478822D01*
X13889814Y-5472366D01*
X13889812Y-5472363D01*
X13889813Y-5472363D01*
X13823355Y-5344107D01*
X13823353Y-5344104D01*
X13797223Y-5316125D01*
X13724755Y-5238531D01*
X13724754Y-5238530D01*
X13601328Y-5163474D01*
X13462228Y-5124500D01*
X13354051Y-5124500D01*
X13246888Y-5139228D01*
X13114389Y-5196781D01*
X13002334Y-5287945D01*
X12919029Y-5405962D01*
X12870653Y-5542078D01*
X12860796Y-5686199D01*
X12890184Y-5827628D01*
X12890186Y-5827636D01*
X12956644Y-5955892D01*
X12956646Y-5955895D01*
X13055245Y-6061469D01*
X13178672Y-6136526D01*
X13317772Y-6175500D01*
X13317773Y-6175500D01*
X13425943Y-6175500D01*
X13425949Y-6175500D01*
X13533111Y-6160771D01*
X13665609Y-6103219D01*
X13777665Y-6012054D01*
X13860971Y-5894037D01*
X13877716Y-5846919D01*
X13915018Y-5798421D01*
X13973704Y-5781110D01*
X14031356Y-5801599D01*
X14065955Y-5852063D01*
X14070000Y-5880073D01*
X14070000Y-6029999D01*
X14070001Y-6030000D01*
X14520000Y-6030000D01*
X14520000Y-6330000D01*
X14070001Y-6330000D01*
X14070000Y-6330001D01*
X14070000Y-6773680D01*
X14085248Y-6904141D01*
X14085250Y-6904146D01*
X14145212Y-7068889D01*
X14145217Y-7068899D01*
X14241550Y-7215367D01*
X14241555Y-7215372D01*
X14369080Y-7335686D01*
X14369080Y-7335687D01*
X14520917Y-7423349D01*
X14670000Y-7467981D01*
X14670000Y-6992657D01*
X14683962Y-7003201D01*
X14791840Y-7033895D01*
X14903521Y-7023546D01*
X14970000Y-6990443D01*
X14970000Y-7465121D01*
X15036562Y-7453385D01*
X15036568Y-7453383D01*
X15197547Y-7383943D01*
X15197556Y-7383938D01*
X15338184Y-7279244D01*
X15338186Y-7279242D01*
X15450880Y-7144940D01*
X15529567Y-6988262D01*
X15529567Y-6988261D01*
X15570000Y-6817659D01*
X15570000Y-6330001D01*
X15569999Y-6330000D01*
X15120000Y-6330000D01*
X15120000Y-6030000D01*
X15569999Y-6030000D01*
X15570000Y-6029999D01*
X15570000Y-5586319D01*
X15554751Y-5455858D01*
X15554749Y-5455853D01*
X15494787Y-5291110D01*
X15494782Y-5291100D01*
X15398449Y-5144632D01*
X15398444Y-5144627D01*
X15320945Y-5071510D01*
X15291594Y-5017825D01*
X15299403Y-4957140D01*
X15341391Y-4912635D01*
X15388883Y-4900500D01*
X17734522Y-4900500D01*
X17792713Y-4919407D01*
X17804525Y-4929496D01*
X17973080Y-5098052D01*
X18121436Y-5246408D01*
X18129537Y-5257648D01*
X18130516Y-5256909D01*
X18136044Y-5264230D01*
X18170714Y-5295836D01*
X18174019Y-5298992D01*
X18187200Y-5312172D01*
X18187203Y-5312175D01*
X18187300Y-5312241D01*
X18198049Y-5320756D01*
X18203917Y-5326105D01*
X18219067Y-5339916D01*
X18219070Y-5339917D01*
X18228226Y-5343464D01*
X18248416Y-5354105D01*
X18256520Y-5359657D01*
X18284212Y-5366169D01*
X18297299Y-5370222D01*
X18323827Y-5380500D01*
X18323828Y-5380500D01*
X18327872Y-5381256D01*
X18381597Y-5410534D01*
X18404417Y-5449831D01*
X18414768Y-5483955D01*
X18512316Y-5666452D01*
X18620620Y-5798421D01*
X18643590Y-5826410D01*
X18645084Y-5827636D01*
X18803547Y-5957683D01*
X18803548Y-5957683D01*
X18803550Y-5957685D01*
X18986046Y-6055232D01*
X19123997Y-6097078D01*
X19184065Y-6115300D01*
X19184070Y-6115301D01*
X19389997Y-6135583D01*
X19390000Y-6135583D01*
X19390003Y-6135583D01*
X19595929Y-6115301D01*
X19595934Y-6115300D01*
X19635763Y-6103218D01*
X19793954Y-6055232D01*
X19976450Y-5957685D01*
X20136410Y-5826410D01*
X20267685Y-5666450D01*
X20365232Y-5483954D01*
X20425300Y-5285934D01*
X20425301Y-5285929D01*
X20445583Y-5080003D01*
X20445583Y-5079996D01*
X20425301Y-4874070D01*
X20425300Y-4874065D01*
X20366713Y-4680929D01*
X20365232Y-4676046D01*
X20267685Y-4493550D01*
X20267683Y-4493548D01*
X20267683Y-4493547D01*
X20157467Y-4359248D01*
X20136410Y-4333590D01*
X20136404Y-4333585D01*
X19976452Y-4202316D01*
X19793954Y-4104768D01*
X19595934Y-4044699D01*
X19595929Y-4044698D01*
X19390003Y-4024417D01*
X19389997Y-4024417D01*
X19184070Y-4044698D01*
X19184065Y-4044699D01*
X18986045Y-4104768D01*
X18803547Y-4202316D01*
X18643595Y-4333585D01*
X18643585Y-4333595D01*
X18512316Y-4493547D01*
X18512316Y-4493548D01*
X18472903Y-4567283D01*
X18428796Y-4609690D01*
X18368188Y-4618072D01*
X18315589Y-4590618D01*
X18158565Y-4433594D01*
X18150479Y-4422344D01*
X18149487Y-4423094D01*
X18143958Y-4415772D01*
X18109272Y-4384151D01*
X18105968Y-4380996D01*
X18092800Y-4367828D01*
X18092796Y-4367825D01*
X18092693Y-4367755D01*
X18081962Y-4359255D01*
X18060933Y-4340084D01*
X18051762Y-4336531D01*
X18031586Y-4325895D01*
X18023484Y-4320345D01*
X18023479Y-4320343D01*
X17995797Y-4313832D01*
X17982703Y-4309777D01*
X17956177Y-4299500D01*
X17956173Y-4299500D01*
X17946348Y-4299500D01*
X17923683Y-4296870D01*
X17914119Y-4294621D01*
X17914118Y-4294621D01*
X17885946Y-4298551D01*
X17872269Y-4299500D01*
X11455727Y-4299500D01*
X11428636Y-4295721D01*
X11428207Y-4295599D01*
X11390661Y-4299078D01*
X11381529Y-4299500D01*
X11372156Y-4299500D01*
X11365164Y-4300806D01*
X11362941Y-4301222D01*
X11353896Y-4302483D01*
X11316344Y-4305964D01*
X11316334Y-4305966D01*
X11315929Y-4306169D01*
X11290012Y-4314855D01*
X11289570Y-4314937D01*
X11289569Y-4314937D01*
X11264498Y-4330460D01*
X11259436Y-4333595D01*
X11257517Y-4334783D01*
X11249533Y-4339230D01*
X11215769Y-4356043D01*
X11215465Y-4356378D01*
X11194435Y-4373840D01*
X11194053Y-4374076D01*
X11194047Y-4374081D01*
X11171321Y-4404174D01*
X11165482Y-4411205D01*
X11140086Y-4439063D01*
X11140081Y-4439070D01*
X11139918Y-4439493D01*
X11126616Y-4463374D01*
X11126348Y-4463728D01*
X11126344Y-4463736D01*
X11116024Y-4500003D01*
X11113120Y-4508668D01*
X11099500Y-4543826D01*
X11099500Y-4544272D01*
X11095722Y-4571361D01*
X11095599Y-4571790D01*
X11095599Y-4571794D01*
X11099078Y-4609337D01*
X11099500Y-4618471D01*
X11099500Y-8184199D01*
X11080593Y-8242390D01*
X11031093Y-8278354D01*
X10996543Y-8283120D01*
X10540357Y-8264873D01*
X10482969Y-8243655D01*
X10469494Y-8230782D01*
X10448049Y-8206033D01*
X10448048Y-8206032D01*
X10339073Y-8135998D01*
X10339070Y-8135996D01*
X10339069Y-8135996D01*
X10339066Y-8135995D01*
X10214774Y-8099500D01*
X10214772Y-8099500D01*
X10085228Y-8099500D01*
X10085225Y-8099500D01*
X9960933Y-8135995D01*
X9960926Y-8135998D01*
X9851952Y-8206031D01*
X9767117Y-8303938D01*
X9713302Y-8421774D01*
X9694867Y-8549997D01*
X9694867Y-8550002D01*
X9203918Y-8550002D01*
X9236697Y-8478226D01*
X9252774Y-8366410D01*
X9255133Y-8350002D01*
X9255133Y-8349997D01*
X9236697Y-8221774D01*
X9205717Y-8153938D01*
X9182882Y-8103937D01*
X9098049Y-8006033D01*
X9098048Y-8006032D01*
X9098047Y-8006031D01*
X8989073Y-7935998D01*
X8989064Y-7935994D01*
X8964606Y-7928812D01*
X8914100Y-7894275D01*
X8893540Y-7836647D01*
X8893500Y-7833823D01*
X8893500Y-5224183D01*
X8893499Y-5224153D01*
X8893499Y-5195767D01*
X8893498Y-5195765D01*
X8886047Y-5172833D01*
X8882419Y-5157723D01*
X8880345Y-5144627D01*
X8878646Y-5133896D01*
X8867690Y-5112395D01*
X8861750Y-5098052D01*
X8854297Y-5075113D01*
X8854296Y-5075112D01*
X8854296Y-5075110D01*
X8840117Y-5055595D01*
X8832000Y-5042349D01*
X8821050Y-5020858D01*
X8821049Y-5020857D01*
X8731342Y-4931149D01*
X8731342Y-4931150D01*
X7236609Y-3436416D01*
X7236605Y-3436413D01*
X7234123Y-3433931D01*
X7234123Y-3433930D01*
X7214043Y-3413851D01*
X7214042Y-3413850D01*
X7205988Y-3409746D01*
X18339500Y-3409746D01*
X18339501Y-3409758D01*
X18351132Y-3468227D01*
X18351133Y-3468231D01*
X18395448Y-3534552D01*
X18461769Y-3578867D01*
X18506231Y-3587711D01*
X18520241Y-3590498D01*
X18520246Y-3590498D01*
X18520252Y-3590500D01*
X18520253Y-3590500D01*
X20259747Y-3590500D01*
X20259748Y-3590500D01*
X20318231Y-3578867D01*
X20384552Y-3534552D01*
X20428867Y-3468231D01*
X20440500Y-3409748D01*
X20440500Y-1670252D01*
X20428867Y-1611769D01*
X20384552Y-1545448D01*
X20355234Y-1525858D01*
X20318233Y-1501134D01*
X20318231Y-1501133D01*
X20318228Y-1501132D01*
X20318227Y-1501132D01*
X20259758Y-1489501D01*
X20259748Y-1489500D01*
X18520252Y-1489500D01*
X18520251Y-1489500D01*
X18520241Y-1489501D01*
X18461772Y-1501132D01*
X18461766Y-1501134D01*
X18395451Y-1545445D01*
X18395445Y-1545451D01*
X18351134Y-1611766D01*
X18351132Y-1611772D01*
X18339501Y-1670241D01*
X18339500Y-1670253D01*
X18339500Y-3409746D01*
X7205988Y-3409746D01*
X7192547Y-3402897D01*
X7179308Y-3394784D01*
X7173281Y-3390405D01*
X7159790Y-3380604D01*
X7159788Y-3380603D01*
X7136842Y-3373147D01*
X7122488Y-3367201D01*
X7101006Y-3356254D01*
X7077174Y-3352479D01*
X7062074Y-3348853D01*
X7039137Y-3341400D01*
X7039133Y-3341400D01*
X7007219Y-3341400D01*
X4220700Y-3341400D01*
X4162509Y-3322493D01*
X4150696Y-3312404D01*
X3687534Y-2849242D01*
X3181973Y-2343680D01*
X5430000Y-2343680D01*
X5445248Y-2474141D01*
X5445250Y-2474146D01*
X5505212Y-2638889D01*
X5505217Y-2638899D01*
X5601550Y-2785367D01*
X5601555Y-2785372D01*
X5729080Y-2905686D01*
X5729080Y-2905687D01*
X5880917Y-2993349D01*
X6030000Y-3037981D01*
X6030000Y-2562657D01*
X6043962Y-2573201D01*
X6151840Y-2603895D01*
X6263521Y-2593546D01*
X6330000Y-2560443D01*
X6330000Y-3035121D01*
X6396562Y-3023385D01*
X6396568Y-3023383D01*
X6557547Y-2953943D01*
X6557556Y-2953938D01*
X6698184Y-2849244D01*
X6698186Y-2849242D01*
X6810880Y-2714940D01*
X6889567Y-2558262D01*
X6889567Y-2558261D01*
X6930000Y-2387659D01*
X6930000Y-2343680D01*
X14070000Y-2343680D01*
X14085248Y-2474141D01*
X14085250Y-2474146D01*
X14145212Y-2638889D01*
X14145217Y-2638899D01*
X14241550Y-2785367D01*
X14241555Y-2785372D01*
X14369080Y-2905686D01*
X14369080Y-2905687D01*
X14520917Y-2993349D01*
X14670000Y-3037981D01*
X14670000Y-2562657D01*
X14683962Y-2573201D01*
X14791840Y-2603895D01*
X14903521Y-2593546D01*
X14970000Y-2560443D01*
X14970000Y-3035121D01*
X15036562Y-3023385D01*
X15036568Y-3023383D01*
X15197547Y-2953943D01*
X15197556Y-2953938D01*
X15338184Y-2849244D01*
X15338186Y-2849242D01*
X15450880Y-2714940D01*
X15529567Y-2558262D01*
X15529567Y-2558261D01*
X15570000Y-2387659D01*
X15570000Y-2150001D01*
X15569999Y-2150000D01*
X15120000Y-2150000D01*
X15120000Y-1850000D01*
X15569999Y-1850000D01*
X15570000Y-1849999D01*
X15570000Y-1656319D01*
X15554751Y-1525858D01*
X15554749Y-1525853D01*
X15494787Y-1361110D01*
X15494782Y-1361100D01*
X15398449Y-1214632D01*
X15398444Y-1214627D01*
X15270919Y-1094313D01*
X15270919Y-1094312D01*
X15119081Y-1006650D01*
X14970000Y-962017D01*
X14970000Y-1437342D01*
X14956038Y-1426799D01*
X14848160Y-1396105D01*
X14736479Y-1406454D01*
X14670000Y-1439556D01*
X14670000Y-964878D01*
X14669999Y-964877D01*
X14603434Y-976615D01*
X14603430Y-976616D01*
X14442452Y-1046056D01*
X14442443Y-1046061D01*
X14301815Y-1150755D01*
X14301813Y-1150757D01*
X14189119Y-1285059D01*
X14110432Y-1441737D01*
X14110432Y-1441738D01*
X14070000Y-1612340D01*
X14070000Y-1849999D01*
X14070001Y-1850000D01*
X14520000Y-1850000D01*
X14520000Y-2150000D01*
X14070001Y-2150000D01*
X14070000Y-2150001D01*
X14070000Y-2343680D01*
X6930000Y-2343680D01*
X6930000Y-2150001D01*
X6929999Y-2150000D01*
X6480000Y-2150000D01*
X6480000Y-1850000D01*
X6929999Y-1850000D01*
X6930000Y-1849999D01*
X6930000Y-1656319D01*
X6914751Y-1525858D01*
X6914749Y-1525853D01*
X6854787Y-1361110D01*
X6854782Y-1361100D01*
X6758449Y-1214632D01*
X6758444Y-1214627D01*
X6630919Y-1094313D01*
X6630919Y-1094312D01*
X6479081Y-1006650D01*
X6330000Y-962017D01*
X6330000Y-1437342D01*
X6316038Y-1426799D01*
X6208160Y-1396105D01*
X6096479Y-1406454D01*
X6030000Y-1439556D01*
X6030000Y-964878D01*
X6029999Y-964877D01*
X5963434Y-976615D01*
X5963430Y-976616D01*
X5802452Y-1046056D01*
X5802443Y-1046061D01*
X5661815Y-1150755D01*
X5661813Y-1150757D01*
X5549119Y-1285059D01*
X5470432Y-1441737D01*
X5470432Y-1441738D01*
X5430000Y-1612340D01*
X5430000Y-1849999D01*
X5430001Y-1850000D01*
X5880000Y-1850000D01*
X5880000Y-2150000D01*
X5430001Y-2150000D01*
X5430000Y-2150001D01*
X5430000Y-2343680D01*
X3181973Y-2343680D01*
X3072809Y-2234516D01*
X3072805Y-2234513D01*
X3070323Y-2232031D01*
X3070323Y-2232030D01*
X3050243Y-2211951D01*
X3050242Y-2211950D01*
X3028747Y-2200997D01*
X3015508Y-2192884D01*
X3009481Y-2188505D01*
X2995990Y-2178704D01*
X2995988Y-2178703D01*
X2973042Y-2171247D01*
X2958688Y-2165301D01*
X2937206Y-2154354D01*
X2913374Y-2150579D01*
X2898274Y-2146953D01*
X2875337Y-2139500D01*
X2875333Y-2139500D01*
X2843419Y-2139500D01*
X2759500Y-2139500D01*
X2701309Y-2120593D01*
X2665345Y-2071093D01*
X2660500Y-2040500D01*
X2660500Y-1670253D01*
X2660498Y-1670241D01*
X2655262Y-1643920D01*
X2648867Y-1611769D01*
X2604552Y-1545448D01*
X2575234Y-1525858D01*
X2538233Y-1501134D01*
X2538231Y-1501133D01*
X2538228Y-1501132D01*
X2538227Y-1501132D01*
X2479758Y-1489501D01*
X2479748Y-1489500D01*
X740252Y-1489500D01*
X740251Y-1489500D01*
X740241Y-1489501D01*
X681772Y-1501132D01*
X681766Y-1501134D01*
X615451Y-1545445D01*
X615445Y-1545451D01*
X571134Y-1611766D01*
X571132Y-1611772D01*
X559501Y-1670241D01*
X559500Y-1670253D01*
X559500Y-3409746D01*
X559501Y-3409758D01*
X571132Y-3468227D01*
X571133Y-3468231D01*
X615448Y-3534552D01*
X681769Y-3578867D01*
X726231Y-3587711D01*
X740241Y-3590498D01*
X740246Y-3590498D01*
X740252Y-3590500D01*
X740253Y-3590500D01*
X2479747Y-3590500D01*
X2479748Y-3590500D01*
X2538231Y-3578867D01*
X2604552Y-3534552D01*
X2648867Y-3468231D01*
X2660500Y-3409748D01*
X2660500Y-3194000D01*
X2679407Y-3135809D01*
X2728907Y-3099845D01*
X2790093Y-3099845D01*
X2829504Y-3123996D01*
X3685750Y-3980242D01*
X3685749Y-3980242D01*
X3775457Y-4069949D01*
X3775458Y-4069950D01*
X3796949Y-4080900D01*
X3810195Y-4089017D01*
X3829710Y-4103196D01*
X3829712Y-4103196D01*
X3829713Y-4103197D01*
X3852652Y-4110650D01*
X3866995Y-4116590D01*
X3888496Y-4127546D01*
X3912324Y-4131319D01*
X3927433Y-4134947D01*
X3935994Y-4137728D01*
X3950367Y-4142399D01*
X3978179Y-4142399D01*
X3978203Y-4142400D01*
X3982281Y-4142400D01*
X6768799Y-4142400D01*
X6826990Y-4161307D01*
X6838803Y-4171396D01*
X7322455Y-4655048D01*
X7624641Y-4957233D01*
X7652418Y-5011750D01*
X7642847Y-5072182D01*
X7599582Y-5115447D01*
X7568118Y-5125315D01*
X7466888Y-5139229D01*
X7334389Y-5196781D01*
X7222334Y-5287945D01*
X7139029Y-5405962D01*
X7108156Y-5492832D01*
X7070853Y-5541331D01*
X7012168Y-5558642D01*
X6954515Y-5538152D01*
X6919917Y-5487689D01*
X6916541Y-5471172D01*
X6914751Y-5455858D01*
X6914749Y-5455853D01*
X6854787Y-5291110D01*
X6854782Y-5291100D01*
X6758449Y-5144632D01*
X6758444Y-5144627D01*
X6630919Y-5024313D01*
X6630919Y-5024312D01*
X6479081Y-4936650D01*
X6330000Y-4892017D01*
X6330000Y-5367342D01*
X6316038Y-5356799D01*
X6208160Y-5326105D01*
X6096479Y-5336454D01*
X6030000Y-5369556D01*
X6030000Y-4894878D01*
X6029999Y-4894877D01*
X5963434Y-4906615D01*
X5963430Y-4906616D01*
X5802452Y-4976056D01*
X5802443Y-4976061D01*
X5661815Y-5080755D01*
X5661813Y-5080757D01*
X5549119Y-5215059D01*
X5470432Y-5371737D01*
X5470432Y-5371738D01*
X5430000Y-5542340D01*
X5430000Y-6029999D01*
X5430001Y-6030000D01*
X5880000Y-6030000D01*
X5880000Y-6330000D01*
X5430001Y-6330000D01*
X5430000Y-6330001D01*
X5430000Y-6773680D01*
X5445248Y-6904141D01*
X5445250Y-6904146D01*
X5505212Y-7068889D01*
X5505217Y-7068899D01*
X5601550Y-7215367D01*
X5601555Y-7215372D01*
X5729080Y-7335686D01*
X5729080Y-7335687D01*
X5880917Y-7423349D01*
X6030000Y-7467981D01*
X6030000Y-6992657D01*
X6043962Y-7003201D01*
X6151840Y-7033895D01*
X6263521Y-7023546D01*
X6330000Y-6990443D01*
X6330000Y-7465121D01*
X6396562Y-7453385D01*
X6396568Y-7453383D01*
X6557547Y-7383943D01*
X6557556Y-7383938D01*
X6698184Y-7279244D01*
X6698186Y-7279242D01*
X6810880Y-7144940D01*
X6889567Y-6988262D01*
X6889567Y-6988261D01*
X6930000Y-6817659D01*
X6930000Y-6330001D01*
X6929999Y-6330000D01*
X6480000Y-6330000D01*
X6480000Y-6030000D01*
X6929999Y-6030000D01*
X6930000Y-6029999D01*
X6930000Y-5886138D01*
X6948907Y-5827947D01*
X6998407Y-5791983D01*
X7059593Y-5791983D01*
X7109093Y-5827947D01*
X7116893Y-5840579D01*
X7176646Y-5955895D01*
X7275245Y-6061469D01*
X7398672Y-6136526D01*
X7537772Y-6175500D01*
X7537773Y-6175500D01*
X7645943Y-6175500D01*
X7645949Y-6175500D01*
X7753111Y-6160771D01*
X7885609Y-6103219D01*
X7931024Y-6066270D01*
X7988092Y-6044215D01*
X8047229Y-6059915D01*
X8085843Y-6107377D01*
X8092500Y-6143067D01*
X8092500Y-7599099D01*
X8073593Y-7657290D01*
X8063504Y-7669103D01*
X7744515Y-7988092D01*
X7721950Y-8010658D01*
X7721948Y-8010660D01*
X7710997Y-8032151D01*
X7702887Y-8045385D01*
X7688706Y-8064906D01*
X7688701Y-8064915D01*
X7687561Y-8068425D01*
X7670889Y-8097948D01*
X7670944Y-8097984D01*
X7670331Y-8098936D01*
X7668240Y-8102641D01*
X7667120Y-8103933D01*
X7667117Y-8103938D01*
X7613302Y-8221774D01*
X7594867Y-8349997D01*
X7594867Y-8350002D01*
X7613302Y-8478225D01*
X7613302Y-8478227D01*
X7627527Y-8509374D01*
X7634502Y-8570160D01*
X7604416Y-8623437D01*
X7548759Y-8648855D01*
X7537474Y-8649500D01*
X5147784Y-8649500D01*
X5089593Y-8630593D01*
X5083356Y-8625666D01*
X4782469Y-8367763D01*
X4750592Y-8315538D01*
X4748905Y-8306685D01*
X4736698Y-8221777D01*
X4736696Y-8221772D01*
X4730967Y-8209228D01*
X4682882Y-8103937D01*
X4598049Y-8006033D01*
X4598048Y-8006032D01*
X4598047Y-8006031D01*
X4489073Y-7935998D01*
X4489070Y-7935996D01*
X4489069Y-7935996D01*
X4489066Y-7935995D01*
X4364774Y-7899500D01*
X4364772Y-7899500D01*
X4235228Y-7899500D01*
X4235225Y-7899500D01*
X4110933Y-7935995D01*
X4110926Y-7935998D01*
X4001952Y-8006031D01*
X3917117Y-8103937D01*
X3881046Y-8182920D01*
X3839673Y-8227997D01*
X3779706Y-8240146D01*
X3724050Y-8214728D01*
X3720989Y-8211796D01*
X3241396Y-7732203D01*
X3213619Y-7677686D01*
X3212400Y-7662199D01*
X3212400Y-7659308D01*
X3213619Y-7643820D01*
X3217392Y-7620003D01*
X3217392Y-7620000D01*
X3217391Y-7619996D01*
X3214082Y-7599099D01*
X3197546Y-7494696D01*
X3139950Y-7381658D01*
X3050242Y-7291950D01*
X2937204Y-7234354D01*
X2937205Y-7234354D01*
X2843419Y-7219500D01*
X2811901Y-7214508D01*
X2811900Y-7214508D01*
X2788078Y-7218281D01*
X2772591Y-7219500D01*
X2646416Y-7219500D01*
X2588225Y-7200593D01*
X2559106Y-7167169D01*
X2547224Y-7144940D01*
X2487685Y-7033550D01*
X2462778Y-7003201D01*
X2356414Y-6873595D01*
X2356410Y-6873590D01*
X2315785Y-6840250D01*
X2196452Y-6742316D01*
X2013954Y-6644768D01*
X1815934Y-6584699D01*
X1815929Y-6584698D01*
X1610003Y-6564417D01*
X1609997Y-6564417D01*
X1404070Y-6584698D01*
X1404065Y-6584699D01*
X1206045Y-6644768D01*
X1023547Y-6742316D01*
X863595Y-6873585D01*
X863585Y-6873595D01*
X732316Y-7033547D01*
X634768Y-7216045D01*
X574699Y-7414065D01*
X574698Y-7414070D01*
X554417Y-7619996D01*
X554417Y-7620003D01*
X300500Y-7620003D01*
X300500Y-5230000D01*
X519187Y-5230000D01*
X524097Y-5282989D01*
X579887Y-5479070D01*
X670750Y-5661548D01*
X670755Y-5661557D01*
X793608Y-5824240D01*
X944266Y-5961582D01*
X1117581Y-6068895D01*
X1117586Y-6068898D01*
X1307683Y-6142541D01*
X1459999Y-6171014D01*
X1460000Y-6171014D01*
X1460000Y-5561170D01*
X1467685Y-5564680D01*
X1574237Y-5580000D01*
X1645763Y-5580000D01*
X1752315Y-5564680D01*
X1760000Y-5561170D01*
X1760000Y-6171014D01*
X1912316Y-6142541D01*
X2102413Y-6068898D01*
X2102418Y-6068895D01*
X2275733Y-5961582D01*
X2426391Y-5824240D01*
X2549244Y-5661557D01*
X2549249Y-5661548D01*
X2640112Y-5479070D01*
X2695902Y-5282989D01*
X2700813Y-5230000D01*
X2087065Y-5230000D01*
X2110000Y-5151889D01*
X2110000Y-5008111D01*
X2087065Y-4930000D01*
X2700812Y-4930000D01*
X2695902Y-4877010D01*
X2640112Y-4680929D01*
X2549249Y-4498451D01*
X2549244Y-4498442D01*
X2426391Y-4335759D01*
X2275733Y-4198417D01*
X2102418Y-4091104D01*
X2102413Y-4091101D01*
X1912319Y-4017459D01*
X1912313Y-4017457D01*
X1760000Y-3988984D01*
X1760000Y-4598829D01*
X1752315Y-4595320D01*
X1645763Y-4580000D01*
X1574237Y-4580000D01*
X1467685Y-4595320D01*
X1460000Y-4598829D01*
X1460000Y-3988985D01*
X1459999Y-3988984D01*
X1307686Y-4017457D01*
X1307680Y-4017459D01*
X1117586Y-4091101D01*
X1117581Y-4091104D01*
X944266Y-4198417D01*
X793608Y-4335759D01*
X670755Y-4498442D01*
X670750Y-4498451D01*
X579887Y-4680929D01*
X524097Y-4877010D01*
X519187Y-4930000D01*
X1132935Y-4930000D01*
X1110000Y-5008111D01*
X1110000Y-5151889D01*
X1132935Y-5230000D01*
X519187Y-5230000D01*
X300500Y-5230000D01*
X300500Y-1004861D01*
X300977Y-995157D01*
X312985Y-873237D01*
X316771Y-854203D01*
X350915Y-741645D01*
X358342Y-723714D01*
X413791Y-619977D01*
X424573Y-603841D01*
X499196Y-512912D01*
X512912Y-499196D01*
X603842Y-424571D01*
X619977Y-413791D01*
X723716Y-358340D01*
X741643Y-350915D01*
X854207Y-316770D01*
X873233Y-312985D01*
X995157Y-300976D01*
X1004861Y-300500D01*
X1047595Y-300500D01*
X19952405Y-300500D01*
X19995139Y-300500D01*
X20004842Y-300976D01*
G37*
%TD.AperFunction*%
%TD*%
M02*
