%TF.GenerationSoftware,KiCad,Pcbnew,7.0.11+dfsg-1build4*%
%TF.CreationDate,2026-09-25T11:13:45+00:00*%
%TF.ProjectId,capcore,63617063-6f72-4652-9e6b-696361645f70,rev?*%
%TF.SameCoordinates,Original*%
%TF.FileFunction,Copper,L4,Bot*%
%TF.FilePolarity,Positive*%
%FSLAX46Y46*%
G04 Gerber Fmt 4.6, Leading zero omitted, Abs format (unit mm)*
G04 Created by KiCad (PCBNEW 7.0.11+dfsg-1build4) date 2026-09-25 11:13:45*
%MOMM*%
%LPD*%
G01*
G04 APERTURE LIST*
%TA.AperFunction,ComponentPad*%
%ADD10C,0.500000*%
%TD*%
%TA.AperFunction,ComponentPad*%
%ADD11O,1.000000X2.100000*%
%TD*%
%TA.AperFunction,ComponentPad*%
%ADD12O,1.000000X1.600000*%
%TD*%
%TA.AperFunction,ComponentPad*%
%ADD13R,1.700000X1.700000*%
%TD*%
%TA.AperFunction,ComponentPad*%
%ADD14O,1.700000X1.700000*%
%TD*%
%TA.AperFunction,ComponentPad*%
%ADD15R,1.800000X1.800000*%
%TD*%
%TA.AperFunction,ComponentPad*%
%ADD16R,1.600000X1.600000*%
%TD*%
%TA.AperFunction,ComponentPad*%
%ADD17C,1.600000*%
%TD*%
%TA.AperFunction,ComponentPad*%
%ADD18C,1.800000*%
%TD*%
%TA.AperFunction,ViaPad*%
%ADD19C,0.500000*%
%TD*%
%TA.AperFunction,ViaPad*%
%ADD20C,0.600000*%
%TD*%
%TA.AperFunction,Conductor*%
%ADD21C,0.400000*%
%TD*%
%TA.AperFunction,Conductor*%
%ADD22C,0.200000*%
%TD*%
G04 APERTURE END LIST*
D10*
%TO.P,U4,11*%
%TO.N,GND*%
X16300000Y-36550000D03*
X16300000Y-37200000D03*
X16300000Y-37850000D03*
%TD*%
D11*
%TO.P,J1,S1*%
%TO.N,GND*%
X14820000Y-6180000D03*
D12*
X14820000Y-2000000D03*
D11*
X6180000Y-6180000D03*
D12*
X6180000Y-2000000D03*
%TD*%
D13*
%TO.P,J2,1*%
%TO.N,VBUS*%
X1610000Y-2540000D03*
D14*
%TO.P,J2,2*%
%TO.N,GND*%
X1610000Y-5080000D03*
%TO.P,J2,3*%
%TO.N,3V3*%
X1610000Y-7620000D03*
%TO.P,J2,4*%
%TO.N,HOLD*%
X1610000Y-10160000D03*
%TO.P,J2,5*%
%TO.N,WAKE*%
X1610000Y-12700000D03*
%TO.P,J2,6*%
%TO.N,BTN*%
X1610000Y-15240000D03*
%TO.P,J2,7*%
%TO.N,SHIP*%
X1610000Y-17780000D03*
%TO.P,J2,8*%
%TO.N,GND*%
X1610000Y-20320000D03*
%TD*%
D10*
%TO.P,U2,9*%
%TO.N,GND*%
X14000000Y-11050000D03*
X14000000Y-12150000D03*
%TD*%
D15*
%TO.P,BT1,1*%
%TO.N,VCAP*%
X3600000Y-43400000D03*
D16*
X3600000Y-46400000D03*
D17*
%TO.P,BT1,2*%
%TO.N,GND*%
X7100000Y-46400000D03*
D18*
X8600000Y-43400000D03*
%TD*%
D13*
%TO.P,J3,1*%
%TO.N,DP*%
X19390000Y-2540000D03*
D14*
%TO.P,J3,2*%
%TO.N,DM*%
X19390000Y-5080000D03*
%TO.P,J3,3*%
%TO.N,SDA*%
X19390000Y-7620000D03*
%TO.P,J3,4*%
%TO.N,SCL*%
X19390000Y-10160000D03*
%TO.P,J3,5*%
%TO.N,VSENSE*%
X19390000Y-12700000D03*
%TO.P,J3,6*%
%TO.N,CHG*%
X19390000Y-15240000D03*
%TO.P,J3,7*%
%TO.N,3V3*%
X19390000Y-17780000D03*
%TO.P,J3,8*%
%TO.N,GND*%
X19390000Y-20320000D03*
%TD*%
D19*
%TO.N,GND*%
X9329999Y-40600000D03*
X16362500Y-32200000D03*
X19900000Y-34830000D03*
X16149999Y-33049999D03*
X16700000Y-5840000D03*
X10281040Y-14401040D03*
X17700000Y-12375000D03*
X8562500Y-22000000D03*
X10730000Y-12800000D03*
X17660000Y-20100000D03*
X4662500Y-19650000D03*
X14100000Y-8300000D03*
X19700000Y-39530000D03*
X10330000Y-15800000D03*
X12462500Y-20500000D03*
X19500000Y-28500000D03*
X7250000Y-8350000D03*
X5912500Y-14500000D03*
X4300000Y-5840000D03*
X12560000Y-13600000D03*
X1645000Y-35425000D03*
X9860000Y-25200000D03*
X6760000Y-20400000D03*
X10924999Y-26800000D03*
X16399999Y-40000000D03*
X20400000Y-36880000D03*
X7750000Y-10600000D03*
X19200000Y-32310000D03*
%TO.N,VBUS*%
X13095000Y-10400000D03*
D20*
X15310000Y-14684600D03*
X3371600Y-25734300D03*
D19*
X8050000Y-8350000D03*
%TO.N,CC1*%
X12150000Y-8350000D03*
X16700000Y-8400000D03*
%TO.N,CC2*%
X8800000Y-8350000D03*
X4300000Y-8350000D03*
%TO.N,DP*%
X12200000Y-9800000D03*
%TO.N,DM*%
X11400000Y-8600000D03*
X10350000Y-12200000D03*
X10150000Y-8550000D03*
D20*
%TO.N,VCAP*%
X17373200Y-15828700D03*
D19*
X16850000Y-9850000D03*
D20*
%TO.N,QA_G*%
X14337500Y-20972000D03*
X11909000Y-41495000D03*
%TO.N,VAON*%
X2572500Y-25821000D03*
X3550000Y-32112900D03*
X4326400Y-22236400D03*
X8190300Y-39918300D03*
%TO.N,UVLO_OK*%
X8562500Y-18657100D03*
X6000000Y-13359900D03*
%TO.N,SENSE*%
X6447900Y-10499300D03*
X7933900Y-16198700D03*
%TO.N,SHIP*%
X4457300Y-17811100D03*
%TO.N,VSYS*%
X18380200Y-38200000D03*
X19101500Y-29562300D03*
%TO.N,Q6_D*%
X19110000Y-45497500D03*
X14237500Y-31380200D03*
%TO.N,HOLD*%
X7465200Y-23947600D03*
%TO.N,WAKE_N*%
X11588800Y-24089200D03*
X4177500Y-32991700D03*
X5532700Y-24924100D03*
%TO.N,BTN*%
X6854400Y-25006900D03*
%TO.N,3V3*%
X16052400Y-34099700D03*
%TO.N,VSENSE*%
X17734700Y-31889500D03*
%TO.N,SDA*%
X6996800Y-38124000D03*
X8671300Y-36729800D03*
%TO.N,SCL*%
X10076100Y-35550800D03*
%TD*%
D21*
%TO.N,VBUS*%
X12600000Y-10850000D02*
X13095000Y-10400000D01*
X8050000Y-9900000D02*
X9000000Y-10850000D01*
X9478000Y-10850000D02*
X9478000Y-19627900D01*
X9000000Y-10850000D02*
X9478000Y-10850000D01*
X8050000Y-8350000D02*
X8050000Y-9900000D01*
X9478000Y-10850000D02*
X12600000Y-10850000D01*
X9478000Y-19627900D02*
X3371600Y-25734300D01*
D22*
%TO.N,DP*%
X12700000Y-9300000D02*
X12700000Y-4000000D01*
X17500000Y-4000000D02*
X18960000Y-2540000D01*
X12700000Y-4000000D02*
X17500000Y-4000000D01*
X12200000Y-9800000D02*
X12700000Y-9300000D01*
X18960000Y-2540000D02*
X19390000Y-2540000D01*
D21*
%TO.N,VCAP*%
X3600000Y-42148100D02*
X4400700Y-42148100D01*
X16070400Y-17131500D02*
X17373200Y-15828700D01*
X16070400Y-30478400D02*
X16070400Y-17131500D01*
X4400700Y-42148100D02*
X16070400Y-30478400D01*
X3600000Y-43400000D02*
X3600000Y-42148100D01*
D22*
%TO.N,SENSE*%
X7933900Y-11985300D02*
X6447900Y-10499300D01*
X7933900Y-16198700D02*
X7933900Y-11985300D01*
%TO.N,VSENSE*%
X18205600Y-14758000D02*
X19161700Y-13801900D01*
X18205600Y-31418600D02*
X18205600Y-14758000D01*
X17734700Y-31889500D02*
X18205600Y-31418600D01*
X19161700Y-13801900D02*
X19390000Y-13801900D01*
X19390000Y-12700000D02*
X19390000Y-13801900D01*
%TO.N,SDA*%
X12983900Y-14947100D02*
X12983900Y-30845800D01*
X19390000Y-7620000D02*
X19390000Y-8721900D01*
X19390000Y-8721900D02*
X19209100Y-8721900D01*
X8671300Y-35158400D02*
X8671300Y-36729800D01*
X19209100Y-8721900D02*
X12983900Y-14947100D01*
X12983900Y-30845800D02*
X8671300Y-35158400D01*
%TO.N,SCL*%
X19161700Y-11261900D02*
X19390000Y-11261900D01*
X18245000Y-12604900D02*
X18245000Y-12178600D01*
X18245000Y-12178600D02*
X19161700Y-11261900D01*
X13335800Y-17514100D02*
X18245000Y-12604900D01*
X10076100Y-35550800D02*
X13335800Y-32291100D01*
X19390000Y-10160000D02*
X19390000Y-11261900D01*
X13335800Y-32291100D02*
X13335800Y-17514100D01*
%TD*%
%TA.AperFunction,Conductor*%
%TO.N,GND*%
G36*
X18288942Y-10163770D02*
G01*
X18332207Y-10207035D01*
X18342520Y-10242276D01*
X18354698Y-10365929D01*
X18354699Y-10365934D01*
X18414768Y-10563954D01*
X18512316Y-10746452D01*
X18579958Y-10828874D01*
X18643590Y-10906410D01*
X18780425Y-11018707D01*
X18805561Y-11039335D01*
X18838548Y-11090866D01*
X18834946Y-11151945D01*
X18812760Y-11185867D01*
X18078590Y-11920037D01*
X18067361Y-11928150D01*
X18068090Y-11929115D01*
X18060771Y-11934641D01*
X18029141Y-11969337D01*
X18025989Y-11972638D01*
X18012830Y-11985798D01*
X18012818Y-11985812D01*
X18012749Y-11985914D01*
X18004255Y-11996635D01*
X17985083Y-12017666D01*
X17985083Y-12017667D01*
X17981529Y-12026840D01*
X17970896Y-12047012D01*
X17965346Y-12055115D01*
X17965341Y-12055124D01*
X17958830Y-12082806D01*
X17954777Y-12095896D01*
X17944501Y-12122423D01*
X17944500Y-12122429D01*
X17944500Y-12132251D01*
X17941870Y-12154918D01*
X17939621Y-12164479D01*
X17943551Y-12192653D01*
X17944500Y-12206330D01*
X17944500Y-12439420D01*
X17925593Y-12497611D01*
X17915504Y-12509424D01*
X15923459Y-14501469D01*
X15868942Y-14529246D01*
X15808510Y-14519675D01*
X15765245Y-14476410D01*
X15763402Y-14472592D01*
X15735377Y-14411228D01*
X15735377Y-14411227D01*
X15641128Y-14302457D01*
X15641127Y-14302456D01*
X15641126Y-14302455D01*
X15520057Y-14224649D01*
X15520054Y-14224647D01*
X15520053Y-14224647D01*
X15520050Y-14224646D01*
X15381964Y-14184100D01*
X15381961Y-14184100D01*
X15238039Y-14184100D01*
X15238035Y-14184100D01*
X15099949Y-14224646D01*
X15099942Y-14224649D01*
X14978873Y-14302455D01*
X14884622Y-14411228D01*
X14824834Y-14542143D01*
X14804353Y-14684597D01*
X14804353Y-14684602D01*
X14824834Y-14827056D01*
X14858490Y-14900751D01*
X14884623Y-14957973D01*
X14950561Y-15034070D01*
X14978873Y-15066744D01*
X15105903Y-15148381D01*
X15104146Y-15151114D01*
X15139154Y-15183202D01*
X15151343Y-15243161D01*
X15125961Y-15298833D01*
X15122985Y-15301943D01*
X13453404Y-16971525D01*
X13398887Y-16999302D01*
X13338455Y-16989731D01*
X13295190Y-16946466D01*
X13284400Y-16901521D01*
X13284400Y-15112578D01*
X13303307Y-15054387D01*
X13313390Y-15042580D01*
X18173995Y-10181974D01*
X18228510Y-10154199D01*
X18288942Y-10163770D01*
G37*
%TD.AperFunction*%
%TA.AperFunction,Conductor*%
G36*
X20004842Y-300976D02*
G01*
X20126764Y-312985D01*
X20145794Y-316770D01*
X20151133Y-318390D01*
X20258354Y-350915D01*
X20276285Y-358342D01*
X20380022Y-413791D01*
X20396158Y-424573D01*
X20487083Y-499193D01*
X20500806Y-512916D01*
X20575426Y-603841D01*
X20586208Y-619977D01*
X20641657Y-723714D01*
X20649084Y-741645D01*
X20683228Y-854203D01*
X20687014Y-873237D01*
X20699023Y-995157D01*
X20699500Y-1004861D01*
X20699500Y-46995138D01*
X20699023Y-47004842D01*
X20687014Y-47126762D01*
X20683228Y-47145796D01*
X20649084Y-47258354D01*
X20641657Y-47276285D01*
X20586208Y-47380022D01*
X20575426Y-47396158D01*
X20500806Y-47487083D01*
X20487083Y-47500806D01*
X20396158Y-47575426D01*
X20380022Y-47586208D01*
X20276285Y-47641657D01*
X20258354Y-47649084D01*
X20145796Y-47683228D01*
X20126763Y-47687014D01*
X20020719Y-47697459D01*
X20004841Y-47699023D01*
X19995139Y-47699500D01*
X1004861Y-47699500D01*
X995157Y-47699023D01*
X873237Y-47687014D01*
X854203Y-47683228D01*
X741645Y-47649084D01*
X723714Y-47641657D01*
X619977Y-47586208D01*
X603841Y-47575426D01*
X512916Y-47500806D01*
X499193Y-47487083D01*
X424573Y-47396158D01*
X413791Y-47380022D01*
X358342Y-47276285D01*
X350915Y-47258354D01*
X339203Y-47219746D01*
X2599500Y-47219746D01*
X2599501Y-47219758D01*
X2610746Y-47276285D01*
X2611133Y-47278231D01*
X2655448Y-47344552D01*
X2721769Y-47388867D01*
X2766231Y-47397711D01*
X2780241Y-47400498D01*
X2780246Y-47400498D01*
X2780252Y-47400500D01*
X2780253Y-47400500D01*
X4419747Y-47400500D01*
X4419748Y-47400500D01*
X4478231Y-47388867D01*
X4544552Y-47344552D01*
X4588867Y-47278231D01*
X4600500Y-47219748D01*
X4600500Y-46400004D01*
X6044919Y-46400004D01*
X6065190Y-46605830D01*
X6065191Y-46605836D01*
X6125232Y-46803762D01*
X6125234Y-46803767D01*
X6222724Y-46986160D01*
X6222731Y-46986170D01*
X6258324Y-47029541D01*
X6693044Y-46594820D01*
X6705887Y-46627541D01*
X6790465Y-46733599D01*
X6902290Y-46809840D01*
X6470457Y-47241674D01*
X6513828Y-47277268D01*
X6513834Y-47277272D01*
X6696232Y-47374765D01*
X6696237Y-47374767D01*
X6894163Y-47434808D01*
X6894169Y-47434809D01*
X7099996Y-47455081D01*
X7100004Y-47455081D01*
X7305830Y-47434809D01*
X7305836Y-47434808D01*
X7503762Y-47374767D01*
X7503767Y-47374765D01*
X7686166Y-47277270D01*
X7686177Y-47277263D01*
X7729541Y-47241674D01*
X7293935Y-46806068D01*
X7356357Y-46776007D01*
X7455798Y-46683740D01*
X7507068Y-46594935D01*
X7941674Y-47029541D01*
X7977263Y-46986177D01*
X7977270Y-46986166D01*
X8074765Y-46803767D01*
X8074767Y-46803762D01*
X8134808Y-46605836D01*
X8134809Y-46605830D01*
X8155081Y-46400004D01*
X8155081Y-46399995D01*
X8134809Y-46194169D01*
X8134808Y-46194163D01*
X8074767Y-45996237D01*
X8074765Y-45996232D01*
X7977272Y-45813834D01*
X7977268Y-45813828D01*
X7941674Y-45770457D01*
X7506953Y-46205177D01*
X7494113Y-46172459D01*
X7409535Y-46066401D01*
X7297707Y-45990157D01*
X7729541Y-45558324D01*
X7686170Y-45522731D01*
X7686160Y-45522724D01*
X7638972Y-45497502D01*
X18604353Y-45497502D01*
X18624834Y-45639956D01*
X18684433Y-45770457D01*
X18684623Y-45770873D01*
X18721849Y-45813834D01*
X18778873Y-45879644D01*
X18888350Y-45950000D01*
X18899947Y-45957453D01*
X19006403Y-45988711D01*
X19038035Y-45997999D01*
X19038036Y-45997999D01*
X19038039Y-45998000D01*
X19038041Y-45998000D01*
X19181959Y-45998000D01*
X19181961Y-45998000D01*
X19320053Y-45957453D01*
X19441128Y-45879643D01*
X19535377Y-45770873D01*
X19595165Y-45639957D01*
X19612019Y-45522734D01*
X19615647Y-45497502D01*
X19615647Y-45497497D01*
X19595165Y-45355043D01*
X19535377Y-45224128D01*
X19535377Y-45224127D01*
X19441128Y-45115357D01*
X19441127Y-45115356D01*
X19441126Y-45115355D01*
X19320057Y-45037549D01*
X19320054Y-45037547D01*
X19320053Y-45037547D01*
X19320050Y-45037546D01*
X19181964Y-44997000D01*
X19181961Y-44997000D01*
X19038039Y-44997000D01*
X19038035Y-44997000D01*
X18899949Y-45037546D01*
X18899942Y-45037549D01*
X18778873Y-45115355D01*
X18684622Y-45224128D01*
X18624834Y-45355043D01*
X18604353Y-45497497D01*
X18604353Y-45497502D01*
X7638972Y-45497502D01*
X7503767Y-45425234D01*
X7503762Y-45425232D01*
X7305836Y-45365191D01*
X7305830Y-45365190D01*
X7100004Y-45344919D01*
X7099996Y-45344919D01*
X6894169Y-45365190D01*
X6894163Y-45365191D01*
X6696237Y-45425232D01*
X6696232Y-45425234D01*
X6513834Y-45522728D01*
X6513824Y-45522734D01*
X6470457Y-45558324D01*
X6906064Y-45993931D01*
X6843643Y-46023993D01*
X6744202Y-46116260D01*
X6692931Y-46205064D01*
X6258324Y-45770457D01*
X6222734Y-45813824D01*
X6222728Y-45813834D01*
X6125234Y-45996232D01*
X6125232Y-45996237D01*
X6065191Y-46194163D01*
X6065190Y-46194169D01*
X6044919Y-46399995D01*
X6044919Y-46400004D01*
X4600500Y-46400004D01*
X4600500Y-45580252D01*
X4588867Y-45521769D01*
X4544552Y-45455448D01*
X4544548Y-45455445D01*
X4478233Y-45411134D01*
X4478231Y-45411133D01*
X4478228Y-45411132D01*
X4478227Y-45411132D01*
X4419758Y-45399501D01*
X4419748Y-45399500D01*
X2780252Y-45399500D01*
X2780251Y-45399500D01*
X2780241Y-45399501D01*
X2721772Y-45411132D01*
X2721766Y-45411134D01*
X2655451Y-45455445D01*
X2655445Y-45455451D01*
X2611134Y-45521766D01*
X2611132Y-45521772D01*
X2599501Y-45580241D01*
X2599500Y-45580253D01*
X2599500Y-47219746D01*
X339203Y-47219746D01*
X316771Y-47145796D01*
X312985Y-47126762D01*
X300977Y-47004842D01*
X300500Y-46995138D01*
X300500Y-44319746D01*
X2499500Y-44319746D01*
X2499501Y-44319758D01*
X2511132Y-44378227D01*
X2511133Y-44378231D01*
X2555448Y-44444552D01*
X2621769Y-44488867D01*
X2666231Y-44497711D01*
X2680241Y-44500498D01*
X2680246Y-44500498D01*
X2680252Y-44500500D01*
X2680253Y-44500500D01*
X4519747Y-44500500D01*
X4519748Y-44500500D01*
X4578231Y-44488867D01*
X4644552Y-44444552D01*
X4688867Y-44378231D01*
X4700500Y-44319748D01*
X4700500Y-43400000D01*
X7445073Y-43400000D01*
X7464738Y-43612216D01*
X7523064Y-43817210D01*
X7618059Y-44007987D01*
X7618068Y-44008002D01*
X7687681Y-44100183D01*
X8155183Y-43632681D01*
X8218239Y-43730798D01*
X8326900Y-43824952D01*
X8368280Y-43843850D01*
X7896927Y-44315204D01*
X7904003Y-44321653D01*
X7904005Y-44321654D01*
X8085202Y-44433846D01*
X8085204Y-44433847D01*
X8283941Y-44510838D01*
X8493437Y-44550000D01*
X8706563Y-44550000D01*
X8916058Y-44510838D01*
X9114793Y-44433847D01*
X9296001Y-44321649D01*
X9303071Y-44315204D01*
X8831717Y-43843850D01*
X8873100Y-43824952D01*
X8981761Y-43730798D01*
X9044815Y-43632682D01*
X9512316Y-44100183D01*
X9581937Y-44007992D01*
X9581942Y-44007983D01*
X9676935Y-43817210D01*
X9735261Y-43612216D01*
X9754926Y-43400000D01*
X9735261Y-43187783D01*
X9676935Y-42982789D01*
X9581940Y-42792012D01*
X9581935Y-42792003D01*
X9512316Y-42699815D01*
X9044814Y-43167316D01*
X8981761Y-43069202D01*
X8873100Y-42975048D01*
X8831716Y-42956148D01*
X9303071Y-42484794D01*
X9295996Y-42478346D01*
X9114797Y-42366153D01*
X9114795Y-42366152D01*
X8916058Y-42289161D01*
X8706563Y-42250000D01*
X8493437Y-42250000D01*
X8283941Y-42289161D01*
X8085204Y-42366152D01*
X8085202Y-42366153D01*
X7904002Y-42478347D01*
X7896927Y-42484794D01*
X8368282Y-42956149D01*
X8326900Y-42975048D01*
X8218239Y-43069202D01*
X8155184Y-43167317D01*
X7687682Y-42699815D01*
X7618062Y-42792007D01*
X7618057Y-42792016D01*
X7523064Y-42982789D01*
X7464738Y-43187783D01*
X7445073Y-43400000D01*
X4700500Y-43400000D01*
X4700500Y-42480252D01*
X4699948Y-42477476D01*
X4700100Y-42476191D01*
X4700023Y-42475408D01*
X4700194Y-42475391D01*
X4707135Y-42416715D01*
X4727037Y-42388154D01*
X5620189Y-41495002D01*
X11403353Y-41495002D01*
X11423834Y-41637456D01*
X11460894Y-41718604D01*
X11483623Y-41768373D01*
X11528401Y-41820050D01*
X11577873Y-41877144D01*
X11698942Y-41954950D01*
X11698947Y-41954953D01*
X11805403Y-41986211D01*
X11837035Y-41995499D01*
X11837036Y-41995499D01*
X11837039Y-41995500D01*
X11837041Y-41995500D01*
X11980959Y-41995500D01*
X11980961Y-41995500D01*
X12119053Y-41954953D01*
X12240128Y-41877143D01*
X12334377Y-41768373D01*
X12394165Y-41637457D01*
X12414647Y-41495000D01*
X12394165Y-41352543D01*
X12334377Y-41221627D01*
X12240128Y-41112857D01*
X12240127Y-41112856D01*
X12240126Y-41112855D01*
X12119057Y-41035049D01*
X12119054Y-41035047D01*
X12119053Y-41035047D01*
X12119050Y-41035046D01*
X11980964Y-40994500D01*
X11980961Y-40994500D01*
X11837039Y-40994500D01*
X11837035Y-40994500D01*
X11698949Y-41035046D01*
X11698942Y-41035049D01*
X11577873Y-41112855D01*
X11483622Y-41221628D01*
X11423834Y-41352543D01*
X11403353Y-41494997D01*
X11403353Y-41495002D01*
X5620189Y-41495002D01*
X7196889Y-39918302D01*
X7684653Y-39918302D01*
X7705134Y-40060756D01*
X7764922Y-40191671D01*
X7764923Y-40191673D01*
X7859172Y-40300443D01*
X7859173Y-40300444D01*
X7980242Y-40378250D01*
X7980247Y-40378253D01*
X8086703Y-40409511D01*
X8118335Y-40418799D01*
X8118336Y-40418799D01*
X8118339Y-40418800D01*
X8118341Y-40418800D01*
X8262259Y-40418800D01*
X8262261Y-40418800D01*
X8400353Y-40378253D01*
X8521428Y-40300443D01*
X8615677Y-40191673D01*
X8675465Y-40060757D01*
X8695947Y-39918300D01*
X8675465Y-39775843D01*
X8615677Y-39644927D01*
X8521428Y-39536157D01*
X8521427Y-39536156D01*
X8521426Y-39536155D01*
X8400357Y-39458349D01*
X8400354Y-39458347D01*
X8400353Y-39458347D01*
X8400350Y-39458346D01*
X8262264Y-39417800D01*
X8262261Y-39417800D01*
X8118339Y-39417800D01*
X8118335Y-39417800D01*
X7980249Y-39458346D01*
X7980242Y-39458349D01*
X7859172Y-39536156D01*
X7859167Y-39536160D01*
X7764923Y-39644926D01*
X7705134Y-39775843D01*
X7684653Y-39918297D01*
X7684653Y-39918302D01*
X7196889Y-39918302D01*
X7717455Y-39397736D01*
X7719498Y-39396695D01*
X7720750Y-39394441D01*
X8915189Y-38200002D01*
X17874553Y-38200002D01*
X17895034Y-38342456D01*
X17954822Y-38473371D01*
X17954823Y-38473373D01*
X18049072Y-38582143D01*
X18049073Y-38582144D01*
X18158850Y-38652693D01*
X18170147Y-38659953D01*
X18276603Y-38691211D01*
X18308235Y-38700499D01*
X18308236Y-38700499D01*
X18308239Y-38700500D01*
X18308241Y-38700500D01*
X18452159Y-38700500D01*
X18452161Y-38700500D01*
X18590253Y-38659953D01*
X18711328Y-38582143D01*
X18805577Y-38473373D01*
X18865365Y-38342457D01*
X18876292Y-38266456D01*
X18885847Y-38200002D01*
X18885847Y-38199997D01*
X18865365Y-38057543D01*
X18805577Y-37926627D01*
X18711328Y-37817857D01*
X18711327Y-37817856D01*
X18711326Y-37817855D01*
X18590257Y-37740049D01*
X18590254Y-37740047D01*
X18590253Y-37740047D01*
X18590250Y-37740046D01*
X18452164Y-37699500D01*
X18452161Y-37699500D01*
X18308239Y-37699500D01*
X18308235Y-37699500D01*
X18170149Y-37740046D01*
X18170142Y-37740049D01*
X18049073Y-37817855D01*
X17954822Y-37926628D01*
X17895034Y-38057543D01*
X17874553Y-38199997D01*
X17874553Y-38200002D01*
X8915189Y-38200002D01*
X13015490Y-34099702D01*
X15546753Y-34099702D01*
X15567234Y-34242156D01*
X15627022Y-34373071D01*
X15627023Y-34373073D01*
X15721272Y-34481843D01*
X15721273Y-34481844D01*
X15842342Y-34559650D01*
X15842347Y-34559653D01*
X15948803Y-34590911D01*
X15980435Y-34600199D01*
X15980436Y-34600199D01*
X15980439Y-34600200D01*
X15980441Y-34600200D01*
X16124359Y-34600200D01*
X16124361Y-34600200D01*
X16262453Y-34559653D01*
X16383528Y-34481843D01*
X16477777Y-34373073D01*
X16537565Y-34242157D01*
X16558047Y-34099700D01*
X16537565Y-33957243D01*
X16477777Y-33826327D01*
X16383528Y-33717557D01*
X16383527Y-33717556D01*
X16383526Y-33717555D01*
X16262457Y-33639749D01*
X16262454Y-33639747D01*
X16262453Y-33639747D01*
X16262450Y-33639746D01*
X16124364Y-33599200D01*
X16124361Y-33599200D01*
X15980439Y-33599200D01*
X15980435Y-33599200D01*
X15842349Y-33639746D01*
X15842342Y-33639749D01*
X15721273Y-33717555D01*
X15627022Y-33826328D01*
X15567234Y-33957243D01*
X15546753Y-34099697D01*
X15546753Y-34099702D01*
X13015490Y-34099702D01*
X16375884Y-30739309D01*
X16375885Y-30739306D01*
X16381527Y-30733665D01*
X16381529Y-30733661D01*
X16398450Y-30716742D01*
X16409400Y-30695249D01*
X16417511Y-30682012D01*
X16431696Y-30662490D01*
X16439148Y-30639551D01*
X16445090Y-30625202D01*
X16456046Y-30603704D01*
X16459821Y-30579865D01*
X16463443Y-30564782D01*
X16470900Y-30541833D01*
X16470900Y-30414967D01*
X16470900Y-17338400D01*
X16489807Y-17280209D01*
X16499896Y-17268396D01*
X16897701Y-16870591D01*
X17418704Y-16349587D01*
X17460812Y-16324604D01*
X17583253Y-16288653D01*
X17704328Y-16210843D01*
X17731280Y-16179737D01*
X17783675Y-16148141D01*
X17844636Y-16153376D01*
X17890878Y-16193443D01*
X17905100Y-16244568D01*
X17905100Y-31253121D01*
X17886193Y-31311312D01*
X17876105Y-31323122D01*
X17839223Y-31360004D01*
X17784708Y-31387781D01*
X17769221Y-31389000D01*
X17662735Y-31389000D01*
X17524649Y-31429546D01*
X17524642Y-31429549D01*
X17403573Y-31507355D01*
X17309322Y-31616128D01*
X17249534Y-31747043D01*
X17229053Y-31889497D01*
X17229053Y-31889502D01*
X17249534Y-32031956D01*
X17309322Y-32162871D01*
X17309323Y-32162873D01*
X17389460Y-32255357D01*
X17403573Y-32271644D01*
X17524642Y-32349450D01*
X17524647Y-32349453D01*
X17631103Y-32380711D01*
X17662735Y-32389999D01*
X17662736Y-32389999D01*
X17662739Y-32390000D01*
X17662741Y-32390000D01*
X17806659Y-32390000D01*
X17806661Y-32390000D01*
X17944753Y-32349453D01*
X18065828Y-32271643D01*
X18160077Y-32162873D01*
X18219865Y-32031957D01*
X18226692Y-31984471D01*
X18240347Y-31889502D01*
X18240347Y-31889500D01*
X18237258Y-31868018D01*
X18247690Y-31807728D01*
X18265243Y-31783926D01*
X18372005Y-31677164D01*
X18383264Y-31669093D01*
X18382505Y-31668087D01*
X18389821Y-31662561D01*
X18389828Y-31662558D01*
X18421477Y-31627839D01*
X18424595Y-31624574D01*
X18437774Y-31611397D01*
X18437838Y-31611302D01*
X18446353Y-31600553D01*
X18465516Y-31579533D01*
X18469065Y-31570370D01*
X18479706Y-31550182D01*
X18485256Y-31542081D01*
X18491769Y-31514385D01*
X18495820Y-31501306D01*
X18506100Y-31474773D01*
X18506100Y-31464948D01*
X18508729Y-31442283D01*
X18510979Y-31432719D01*
X18507049Y-31404544D01*
X18506100Y-31390868D01*
X18506100Y-29904885D01*
X18525007Y-29846694D01*
X18574507Y-29810730D01*
X18635693Y-29810730D01*
X18679917Y-29840052D01*
X18736095Y-29904885D01*
X18770373Y-29944444D01*
X18891442Y-30022250D01*
X18891447Y-30022253D01*
X18997903Y-30053511D01*
X19029535Y-30062799D01*
X19029536Y-30062799D01*
X19029539Y-30062800D01*
X19029541Y-30062800D01*
X19173459Y-30062800D01*
X19173461Y-30062800D01*
X19311553Y-30022253D01*
X19432628Y-29944443D01*
X19526877Y-29835673D01*
X19586665Y-29704757D01*
X19607147Y-29562300D01*
X19586665Y-29419843D01*
X19526877Y-29288927D01*
X19432628Y-29180157D01*
X19432627Y-29180156D01*
X19432626Y-29180155D01*
X19311557Y-29102349D01*
X19311554Y-29102347D01*
X19311553Y-29102347D01*
X19311550Y-29102346D01*
X19173464Y-29061800D01*
X19173461Y-29061800D01*
X19029539Y-29061800D01*
X19029535Y-29061800D01*
X18891449Y-29102346D01*
X18891442Y-29102349D01*
X18770372Y-29180156D01*
X18770370Y-29180158D01*
X18679919Y-29284545D01*
X18627523Y-29316141D01*
X18566562Y-29310905D01*
X18520322Y-29270838D01*
X18506100Y-29219714D01*
X18506100Y-21226912D01*
X18525007Y-21168721D01*
X18574507Y-21132757D01*
X18635693Y-21132757D01*
X18671796Y-21153750D01*
X18724266Y-21201582D01*
X18897581Y-21308895D01*
X18897586Y-21308898D01*
X19087683Y-21382541D01*
X19239999Y-21411014D01*
X19240000Y-21411014D01*
X19240000Y-20801170D01*
X19247685Y-20804680D01*
X19354237Y-20820000D01*
X19425763Y-20820000D01*
X19532315Y-20804680D01*
X19540000Y-20801170D01*
X19540000Y-21411014D01*
X19692316Y-21382541D01*
X19882413Y-21308898D01*
X19882418Y-21308895D01*
X20055733Y-21201582D01*
X20206391Y-21064240D01*
X20329244Y-20901557D01*
X20329249Y-20901548D01*
X20420112Y-20719070D01*
X20475902Y-20522989D01*
X20480813Y-20470000D01*
X19867065Y-20470000D01*
X19890000Y-20391889D01*
X19890000Y-20248111D01*
X19867065Y-20170000D01*
X20480812Y-20170000D01*
X20475902Y-20117010D01*
X20420112Y-19920929D01*
X20329249Y-19738451D01*
X20329244Y-19738442D01*
X20206391Y-19575759D01*
X20055733Y-19438417D01*
X19882418Y-19331104D01*
X19882413Y-19331101D01*
X19692319Y-19257459D01*
X19692313Y-19257457D01*
X19540000Y-19228984D01*
X19540000Y-19838829D01*
X19532315Y-19835320D01*
X19425763Y-19820000D01*
X19354237Y-19820000D01*
X19247685Y-19835320D01*
X19240000Y-19838829D01*
X19240000Y-19228985D01*
X19239999Y-19228984D01*
X19087686Y-19257457D01*
X19087680Y-19257459D01*
X18897586Y-19331101D01*
X18897581Y-19331104D01*
X18724266Y-19438417D01*
X18671795Y-19486250D01*
X18616054Y-19511479D01*
X18556128Y-19499126D01*
X18514908Y-19453909D01*
X18506100Y-19413087D01*
X18506100Y-18622892D01*
X18525007Y-18564701D01*
X18574507Y-18528737D01*
X18635693Y-18528737D01*
X18667902Y-18546362D01*
X18748973Y-18612895D01*
X18803547Y-18657683D01*
X18803548Y-18657683D01*
X18803550Y-18657685D01*
X18986046Y-18755232D01*
X19123997Y-18797078D01*
X19184065Y-18815300D01*
X19184070Y-18815301D01*
X19389997Y-18835583D01*
X19390000Y-18835583D01*
X19390003Y-18835583D01*
X19595929Y-18815301D01*
X19595934Y-18815300D01*
X19793954Y-18755232D01*
X19976450Y-18657685D01*
X20136410Y-18526410D01*
X20267685Y-18366450D01*
X20365232Y-18183954D01*
X20425300Y-17985934D01*
X20425301Y-17985929D01*
X20445583Y-17780003D01*
X20445583Y-17779996D01*
X20425301Y-17574070D01*
X20425300Y-17574065D01*
X20381282Y-17428957D01*
X20365232Y-17376046D01*
X20267685Y-17193550D01*
X20136410Y-17033590D01*
X20094630Y-16999302D01*
X19976452Y-16902316D01*
X19793954Y-16804768D01*
X19595934Y-16744699D01*
X19595929Y-16744698D01*
X19390003Y-16724417D01*
X19389997Y-16724417D01*
X19184070Y-16744698D01*
X19184065Y-16744699D01*
X18986045Y-16804768D01*
X18803547Y-16902316D01*
X18803547Y-16902317D01*
X18667905Y-17013635D01*
X18610928Y-17035935D01*
X18551725Y-17020486D01*
X18512910Y-16973189D01*
X18506100Y-16937107D01*
X18506100Y-16082892D01*
X18525007Y-16024701D01*
X18574507Y-15988737D01*
X18635693Y-15988737D01*
X18667902Y-16006362D01*
X18728682Y-16056243D01*
X18803547Y-16117683D01*
X18803548Y-16117683D01*
X18803550Y-16117685D01*
X18986046Y-16215232D01*
X19123997Y-16257078D01*
X19184065Y-16275300D01*
X19184070Y-16275301D01*
X19389997Y-16295583D01*
X19390000Y-16295583D01*
X19390003Y-16295583D01*
X19595929Y-16275301D01*
X19595934Y-16275300D01*
X19793954Y-16215232D01*
X19976450Y-16117685D01*
X20136410Y-15986410D01*
X20267685Y-15826450D01*
X20365232Y-15643954D01*
X20425300Y-15445934D01*
X20425301Y-15445929D01*
X20445583Y-15240003D01*
X20445583Y-15239996D01*
X20425301Y-15034070D01*
X20425300Y-15034065D01*
X20402217Y-14957971D01*
X20365232Y-14836046D01*
X20267685Y-14653550D01*
X20252063Y-14634515D01*
X20136414Y-14493595D01*
X20136410Y-14493590D01*
X20110824Y-14472592D01*
X19976452Y-14362316D01*
X19793954Y-14264768D01*
X19615580Y-14210659D01*
X19565383Y-14175674D01*
X19545337Y-14117866D01*
X19563098Y-14059315D01*
X19571153Y-14049230D01*
X19574225Y-14045859D01*
X19574228Y-14045858D01*
X19574527Y-14045529D01*
X19595576Y-14028051D01*
X19595952Y-14027819D01*
X19618671Y-13997731D01*
X19624515Y-13990695D01*
X19649916Y-13962833D01*
X19650076Y-13962421D01*
X19663395Y-13938509D01*
X19663656Y-13938164D01*
X19673976Y-13901889D01*
X19676869Y-13893254D01*
X19690500Y-13858073D01*
X19690500Y-13857626D01*
X19694279Y-13830535D01*
X19694401Y-13830107D01*
X19690922Y-13792562D01*
X19690500Y-13783428D01*
X19690500Y-13780037D01*
X19709407Y-13721846D01*
X19758907Y-13685882D01*
X19760739Y-13685307D01*
X19793954Y-13675232D01*
X19976450Y-13577685D01*
X20136410Y-13446410D01*
X20267685Y-13286450D01*
X20365232Y-13103954D01*
X20425300Y-12905934D01*
X20425301Y-12905929D01*
X20445583Y-12700003D01*
X20445583Y-12699996D01*
X20425301Y-12494070D01*
X20425300Y-12494065D01*
X20407078Y-12433997D01*
X20365232Y-12296046D01*
X20267685Y-12113550D01*
X20247940Y-12089491D01*
X20139498Y-11957353D01*
X20136410Y-11953590D01*
X20113322Y-11934642D01*
X19976452Y-11822316D01*
X19793954Y-11724768D01*
X19615580Y-11670659D01*
X19565383Y-11635674D01*
X19545337Y-11577866D01*
X19563098Y-11519315D01*
X19571153Y-11509230D01*
X19574225Y-11505859D01*
X19574228Y-11505858D01*
X19574527Y-11505529D01*
X19595576Y-11488051D01*
X19595952Y-11487819D01*
X19618671Y-11457731D01*
X19624515Y-11450695D01*
X19649916Y-11422833D01*
X19650076Y-11422421D01*
X19663395Y-11398509D01*
X19663656Y-11398164D01*
X19673976Y-11361889D01*
X19676869Y-11353254D01*
X19690500Y-11318073D01*
X19690500Y-11317626D01*
X19694279Y-11290535D01*
X19694401Y-11290107D01*
X19690922Y-11252562D01*
X19690500Y-11243428D01*
X19690500Y-11240037D01*
X19709407Y-11181846D01*
X19758907Y-11145882D01*
X19760739Y-11145307D01*
X19793954Y-11135232D01*
X19976450Y-11037685D01*
X20136410Y-10906410D01*
X20267685Y-10746450D01*
X20365232Y-10563954D01*
X20425300Y-10365934D01*
X20425301Y-10365929D01*
X20445583Y-10160003D01*
X20445583Y-10159996D01*
X20425301Y-9954070D01*
X20425300Y-9954065D01*
X20389657Y-9836567D01*
X20365232Y-9756046D01*
X20267685Y-9573550D01*
X20251589Y-9553937D01*
X20136414Y-9413595D01*
X20136410Y-9413590D01*
X20102789Y-9385998D01*
X19976452Y-9282316D01*
X19793954Y-9184768D01*
X19615580Y-9130659D01*
X19565383Y-9095674D01*
X19545337Y-9037866D01*
X19563098Y-8979315D01*
X19571153Y-8969230D01*
X19574225Y-8965859D01*
X19574228Y-8965858D01*
X19574527Y-8965529D01*
X19595576Y-8948051D01*
X19595952Y-8947819D01*
X19618671Y-8917731D01*
X19624515Y-8910695D01*
X19649916Y-8882833D01*
X19650076Y-8882421D01*
X19663395Y-8858509D01*
X19663656Y-8858164D01*
X19673976Y-8821889D01*
X19676869Y-8813254D01*
X19690500Y-8778073D01*
X19690500Y-8777626D01*
X19694279Y-8750535D01*
X19694401Y-8750107D01*
X19690922Y-8712562D01*
X19690500Y-8703428D01*
X19690500Y-8700037D01*
X19709407Y-8641846D01*
X19758907Y-8605882D01*
X19760739Y-8605307D01*
X19793954Y-8595232D01*
X19976450Y-8497685D01*
X20136410Y-8366410D01*
X20267685Y-8206450D01*
X20365232Y-8023954D01*
X20425300Y-7825934D01*
X20425301Y-7825929D01*
X20445583Y-7620003D01*
X20445583Y-7619996D01*
X20425301Y-7414070D01*
X20425300Y-7414065D01*
X20401524Y-7335686D01*
X20365232Y-7216046D01*
X20267685Y-7033550D01*
X20242778Y-7003201D01*
X20136414Y-6873595D01*
X20136410Y-6873590D01*
X20095785Y-6840250D01*
X19976452Y-6742316D01*
X19793954Y-6644768D01*
X19595934Y-6584699D01*
X19595929Y-6584698D01*
X19390003Y-6564417D01*
X19389997Y-6564417D01*
X19184070Y-6584698D01*
X19184065Y-6584699D01*
X18986045Y-6644768D01*
X18803547Y-6742316D01*
X18643595Y-6873585D01*
X18643585Y-6873595D01*
X18512316Y-7033547D01*
X18414768Y-7216045D01*
X18354699Y-7414065D01*
X18354698Y-7414070D01*
X18334417Y-7619996D01*
X18334417Y-7620003D01*
X18354698Y-7825929D01*
X18354699Y-7825934D01*
X18414768Y-8023954D01*
X18512316Y-8206452D01*
X18643585Y-8366404D01*
X18643590Y-8366410D01*
X18643595Y-8366414D01*
X18803552Y-8497687D01*
X18819282Y-8506095D01*
X18861689Y-8550201D01*
X18870072Y-8610809D01*
X18842618Y-8663409D01*
X17456538Y-10049489D01*
X17402021Y-10077266D01*
X17341589Y-10067695D01*
X17298324Y-10024430D01*
X17288542Y-9965396D01*
X17305133Y-9850002D01*
X17305133Y-9849997D01*
X17286697Y-9721774D01*
X17232882Y-9603938D01*
X17232882Y-9603937D01*
X17148049Y-9506033D01*
X17148048Y-9506032D01*
X17148047Y-9506031D01*
X17039073Y-9435998D01*
X17039070Y-9435996D01*
X17039069Y-9435996D01*
X17024009Y-9431574D01*
X16914774Y-9399500D01*
X16914772Y-9399500D01*
X16785228Y-9399500D01*
X16785225Y-9399500D01*
X16660933Y-9435995D01*
X16660926Y-9435998D01*
X16551952Y-9506031D01*
X16467117Y-9603938D01*
X16413302Y-9721774D01*
X16394867Y-9849997D01*
X16394867Y-9850002D01*
X16413302Y-9978225D01*
X16461649Y-10084088D01*
X16467118Y-10096063D01*
X16523303Y-10160905D01*
X16551952Y-10193968D01*
X16639918Y-10250500D01*
X16660931Y-10264004D01*
X16785228Y-10300500D01*
X16785230Y-10300500D01*
X16914770Y-10300500D01*
X16914772Y-10300500D01*
X16954224Y-10288916D01*
X17015381Y-10290663D01*
X17063834Y-10328025D01*
X17081073Y-10386732D01*
X17060512Y-10444359D01*
X17052117Y-10453910D01*
X12817490Y-14688537D01*
X12806261Y-14696650D01*
X12806990Y-14697615D01*
X12799671Y-14703141D01*
X12768041Y-14737837D01*
X12764889Y-14741138D01*
X12751730Y-14754298D01*
X12751718Y-14754312D01*
X12751649Y-14754414D01*
X12743155Y-14765135D01*
X12723983Y-14786166D01*
X12723983Y-14786167D01*
X12720429Y-14795340D01*
X12709796Y-14815512D01*
X12704246Y-14823615D01*
X12704241Y-14823624D01*
X12697730Y-14851306D01*
X12693677Y-14864396D01*
X12683401Y-14890923D01*
X12683400Y-14890929D01*
X12683400Y-14900751D01*
X12680770Y-14923418D01*
X12678521Y-14932979D01*
X12682451Y-14961153D01*
X12683400Y-14974830D01*
X12683400Y-30680320D01*
X12664493Y-30738511D01*
X12654404Y-30750324D01*
X8504890Y-34899837D01*
X8493661Y-34907950D01*
X8494390Y-34908915D01*
X8487071Y-34914441D01*
X8455441Y-34949137D01*
X8452289Y-34952438D01*
X8439130Y-34965598D01*
X8439118Y-34965612D01*
X8439049Y-34965714D01*
X8430555Y-34976435D01*
X8411383Y-34997466D01*
X8411383Y-34997467D01*
X8407829Y-35006640D01*
X8397196Y-35026812D01*
X8391646Y-35034915D01*
X8391641Y-35034924D01*
X8385130Y-35062606D01*
X8381077Y-35075696D01*
X8370801Y-35102223D01*
X8370800Y-35102229D01*
X8370800Y-35112051D01*
X8368170Y-35134718D01*
X8365921Y-35144279D01*
X8369851Y-35172453D01*
X8370800Y-35186130D01*
X8370800Y-36275905D01*
X8351893Y-36334096D01*
X8344558Y-36342089D01*
X8344809Y-36342306D01*
X8245922Y-36456428D01*
X8186134Y-36587343D01*
X8165653Y-36729797D01*
X8165653Y-36729802D01*
X8186134Y-36872256D01*
X8245922Y-37003171D01*
X8245923Y-37003173D01*
X8340172Y-37111943D01*
X8340173Y-37111944D01*
X8461242Y-37189750D01*
X8461247Y-37189753D01*
X8557333Y-37217966D01*
X8607839Y-37252502D01*
X8628401Y-37310129D01*
X8611163Y-37368836D01*
X8599445Y-37382960D01*
X7653001Y-38329404D01*
X7598484Y-38357181D01*
X7538052Y-38347610D01*
X7494787Y-38304345D01*
X7485005Y-38245310D01*
X7491520Y-38200002D01*
X7502447Y-38124000D01*
X7481965Y-37981543D01*
X7422177Y-37850627D01*
X7327928Y-37741857D01*
X7327927Y-37741856D01*
X7327926Y-37741855D01*
X7206857Y-37664049D01*
X7206854Y-37664047D01*
X7206853Y-37664047D01*
X7206850Y-37664046D01*
X7068764Y-37623500D01*
X7068761Y-37623500D01*
X6924839Y-37623500D01*
X6924835Y-37623500D01*
X6786749Y-37664046D01*
X6786742Y-37664049D01*
X6665673Y-37741855D01*
X6571422Y-37850628D01*
X6511634Y-37981543D01*
X6491153Y-38123997D01*
X6491153Y-38124002D01*
X6511634Y-38266456D01*
X6571422Y-38397371D01*
X6571423Y-38397373D01*
X6637275Y-38473371D01*
X6665673Y-38506144D01*
X6783932Y-38582144D01*
X6786747Y-38583953D01*
X6887669Y-38613586D01*
X6924835Y-38624499D01*
X6924836Y-38624499D01*
X6924839Y-38624500D01*
X6924841Y-38624500D01*
X7068759Y-38624500D01*
X7068761Y-38624500D01*
X7105930Y-38613586D01*
X7167089Y-38615332D01*
X7215543Y-38652693D01*
X7232782Y-38711400D01*
X7212222Y-38769027D01*
X7203826Y-38778579D01*
X4263803Y-41718604D01*
X4209286Y-41746381D01*
X4193799Y-41747600D01*
X3639309Y-41747600D01*
X3623822Y-41746381D01*
X3600000Y-41742608D01*
X3599999Y-41742608D01*
X3568481Y-41747600D01*
X3474694Y-41762454D01*
X3361659Y-41820049D01*
X3271949Y-41909759D01*
X3214355Y-42022792D01*
X3214354Y-42022796D01*
X3194508Y-42148099D01*
X3198281Y-42171920D01*
X3199500Y-42187408D01*
X3199500Y-42200500D01*
X3180593Y-42258691D01*
X3131093Y-42294655D01*
X3100500Y-42299500D01*
X2680252Y-42299500D01*
X2680251Y-42299500D01*
X2680241Y-42299501D01*
X2621772Y-42311132D01*
X2621766Y-42311134D01*
X2555451Y-42355445D01*
X2555445Y-42355451D01*
X2511134Y-42421766D01*
X2511132Y-42421772D01*
X2499501Y-42480241D01*
X2499500Y-42480253D01*
X2499500Y-44319746D01*
X300500Y-44319746D01*
X300500Y-32112902D01*
X3044353Y-32112902D01*
X3064834Y-32255356D01*
X3124622Y-32386271D01*
X3124623Y-32386273D01*
X3218872Y-32495043D01*
X3218873Y-32495044D01*
X3339942Y-32572850D01*
X3339947Y-32572853D01*
X3446403Y-32604111D01*
X3478035Y-32613399D01*
X3478036Y-32613399D01*
X3478039Y-32613400D01*
X3478041Y-32613400D01*
X3621959Y-32613400D01*
X3621961Y-32613400D01*
X3621962Y-32613399D01*
X3628970Y-32612392D01*
X3629253Y-32614364D01*
X3680771Y-32615831D01*
X3729227Y-32653189D01*
X3746471Y-32711894D01*
X3737565Y-32750203D01*
X3692333Y-32849245D01*
X3671853Y-32991697D01*
X3671853Y-32991702D01*
X3692334Y-33134156D01*
X3752122Y-33265071D01*
X3752123Y-33265073D01*
X3846372Y-33373843D01*
X3846373Y-33373844D01*
X3967442Y-33451650D01*
X3967447Y-33451653D01*
X4073903Y-33482911D01*
X4105535Y-33492199D01*
X4105536Y-33492199D01*
X4105539Y-33492200D01*
X4105541Y-33492200D01*
X4249459Y-33492200D01*
X4249461Y-33492200D01*
X4387553Y-33451653D01*
X4508628Y-33373843D01*
X4602877Y-33265073D01*
X4662665Y-33134157D01*
X4683147Y-32991700D01*
X4662665Y-32849243D01*
X4602877Y-32718327D01*
X4508628Y-32609557D01*
X4508627Y-32609556D01*
X4508626Y-32609555D01*
X4387557Y-32531749D01*
X4387554Y-32531747D01*
X4387553Y-32531747D01*
X4387550Y-32531746D01*
X4249464Y-32491200D01*
X4249461Y-32491200D01*
X4105539Y-32491200D01*
X4105537Y-32491200D01*
X4098530Y-32492208D01*
X4098247Y-32490239D01*
X4046703Y-32488759D01*
X3998257Y-32451388D01*
X3981029Y-32392678D01*
X3989935Y-32354395D01*
X3992192Y-32349453D01*
X4035165Y-32255357D01*
X4055647Y-32112900D01*
X4035165Y-31970443D01*
X3975377Y-31839527D01*
X3881128Y-31730757D01*
X3881127Y-31730756D01*
X3881126Y-31730755D01*
X3760057Y-31652949D01*
X3760054Y-31652947D01*
X3760053Y-31652947D01*
X3754308Y-31651260D01*
X3621964Y-31612400D01*
X3621961Y-31612400D01*
X3478039Y-31612400D01*
X3478035Y-31612400D01*
X3339949Y-31652946D01*
X3339942Y-31652949D01*
X3218873Y-31730755D01*
X3124622Y-31839528D01*
X3064834Y-31970443D01*
X3044353Y-32112897D01*
X3044353Y-32112902D01*
X300500Y-32112902D01*
X300500Y-25821002D01*
X2066853Y-25821002D01*
X2087334Y-25963456D01*
X2107528Y-26007673D01*
X2147123Y-26094373D01*
X2200348Y-26155798D01*
X2241373Y-26203144D01*
X2290631Y-26234800D01*
X2362447Y-26280953D01*
X2468903Y-26312211D01*
X2500535Y-26321499D01*
X2500536Y-26321499D01*
X2500539Y-26321500D01*
X2500541Y-26321500D01*
X2644459Y-26321500D01*
X2644461Y-26321500D01*
X2782553Y-26280953D01*
X2903628Y-26203143D01*
X2944652Y-26155797D01*
X2997048Y-26124201D01*
X3058009Y-26129436D01*
X3072988Y-26137340D01*
X3161547Y-26194253D01*
X3268003Y-26225511D01*
X3299635Y-26234799D01*
X3299636Y-26234799D01*
X3299639Y-26234800D01*
X3299641Y-26234800D01*
X3443559Y-26234800D01*
X3443561Y-26234800D01*
X3581653Y-26194253D01*
X3702728Y-26116443D01*
X3796977Y-26007673D01*
X3856765Y-25876757D01*
X3862356Y-25837862D01*
X3889349Y-25782957D01*
X3890277Y-25782014D01*
X4863553Y-24808738D01*
X4918068Y-24780963D01*
X4978500Y-24790534D01*
X5021765Y-24833799D01*
X5031548Y-24892830D01*
X5027053Y-24924099D01*
X5027053Y-24924102D01*
X5047534Y-25066556D01*
X5085348Y-25149356D01*
X5107323Y-25197473D01*
X5179069Y-25280273D01*
X5201573Y-25306244D01*
X5286852Y-25361049D01*
X5322647Y-25384053D01*
X5429103Y-25415311D01*
X5460735Y-25424599D01*
X5460736Y-25424599D01*
X5460739Y-25424600D01*
X5460741Y-25424600D01*
X5604659Y-25424600D01*
X5604661Y-25424600D01*
X5742753Y-25384053D01*
X5863828Y-25306243D01*
X5958077Y-25197473D01*
X6017865Y-25066557D01*
X6026442Y-25006902D01*
X6348753Y-25006902D01*
X6369234Y-25149356D01*
X6429022Y-25280271D01*
X6429023Y-25280273D01*
X6518946Y-25384050D01*
X6523273Y-25389044D01*
X6588711Y-25431098D01*
X6644347Y-25466853D01*
X6750803Y-25498111D01*
X6782435Y-25507399D01*
X6782436Y-25507399D01*
X6782439Y-25507400D01*
X6782441Y-25507400D01*
X6926359Y-25507400D01*
X6926361Y-25507400D01*
X7064453Y-25466853D01*
X7185528Y-25389043D01*
X7279777Y-25280273D01*
X7339565Y-25149357D01*
X7360047Y-25006900D01*
X7339565Y-24864443D01*
X7279777Y-24733527D01*
X7185528Y-24624757D01*
X7185527Y-24624756D01*
X7185526Y-24624755D01*
X7064457Y-24546949D01*
X7064454Y-24546947D01*
X7064453Y-24546947D01*
X7064450Y-24546946D01*
X6926364Y-24506400D01*
X6926361Y-24506400D01*
X6782439Y-24506400D01*
X6782435Y-24506400D01*
X6644349Y-24546946D01*
X6644342Y-24546949D01*
X6523273Y-24624755D01*
X6429022Y-24733528D01*
X6369234Y-24864443D01*
X6348753Y-25006897D01*
X6348753Y-25006902D01*
X6026442Y-25006902D01*
X6038347Y-24924100D01*
X6017865Y-24781643D01*
X5958077Y-24650727D01*
X5863828Y-24541957D01*
X5863827Y-24541956D01*
X5863826Y-24541955D01*
X5742757Y-24464149D01*
X5742754Y-24464147D01*
X5742753Y-24464147D01*
X5742750Y-24464146D01*
X5604664Y-24423600D01*
X5604661Y-24423600D01*
X5487700Y-24423600D01*
X5429509Y-24404693D01*
X5393545Y-24355193D01*
X5393545Y-24294007D01*
X5417696Y-24254596D01*
X5724690Y-23947602D01*
X6959553Y-23947602D01*
X6980034Y-24090056D01*
X7039822Y-24220971D01*
X7039823Y-24220973D01*
X7103107Y-24294007D01*
X7134073Y-24329744D01*
X7255142Y-24407550D01*
X7255147Y-24407553D01*
X7361603Y-24438811D01*
X7393235Y-24448099D01*
X7393236Y-24448099D01*
X7393239Y-24448100D01*
X7393241Y-24448100D01*
X7537159Y-24448100D01*
X7537161Y-24448100D01*
X7675253Y-24407553D01*
X7796328Y-24329743D01*
X7890577Y-24220973D01*
X7950365Y-24090057D01*
X7950488Y-24089202D01*
X11083153Y-24089202D01*
X11103634Y-24231656D01*
X11148430Y-24329743D01*
X11163423Y-24362573D01*
X11257672Y-24471343D01*
X11257673Y-24471344D01*
X11378742Y-24549150D01*
X11378747Y-24549153D01*
X11485203Y-24580411D01*
X11516835Y-24589699D01*
X11516836Y-24589699D01*
X11516839Y-24589700D01*
X11516841Y-24589700D01*
X11660759Y-24589700D01*
X11660761Y-24589700D01*
X11798853Y-24549153D01*
X11919928Y-24471343D01*
X12014177Y-24362573D01*
X12073965Y-24231657D01*
X12094447Y-24089200D01*
X12073965Y-23946743D01*
X12014177Y-23815827D01*
X11919928Y-23707057D01*
X11919927Y-23707056D01*
X11919926Y-23707055D01*
X11798857Y-23629249D01*
X11798854Y-23629247D01*
X11798853Y-23629247D01*
X11798850Y-23629246D01*
X11660764Y-23588700D01*
X11660761Y-23588700D01*
X11516839Y-23588700D01*
X11516835Y-23588700D01*
X11378749Y-23629246D01*
X11378742Y-23629249D01*
X11257673Y-23707055D01*
X11163422Y-23815828D01*
X11103634Y-23946743D01*
X11083153Y-24089197D01*
X11083153Y-24089202D01*
X7950488Y-24089202D01*
X7970847Y-23947600D01*
X7950365Y-23805143D01*
X7890577Y-23674227D01*
X7796328Y-23565457D01*
X7796327Y-23565456D01*
X7796326Y-23565455D01*
X7675257Y-23487649D01*
X7675254Y-23487647D01*
X7675253Y-23487647D01*
X7675250Y-23487646D01*
X7537164Y-23447100D01*
X7537161Y-23447100D01*
X7393239Y-23447100D01*
X7393235Y-23447100D01*
X7255149Y-23487646D01*
X7255142Y-23487649D01*
X7134073Y-23565455D01*
X7039822Y-23674228D01*
X6980034Y-23805143D01*
X6959553Y-23947597D01*
X6959553Y-23947602D01*
X5724690Y-23947602D01*
X6225192Y-23447100D01*
X9783484Y-19888809D01*
X9783485Y-19888807D01*
X9789127Y-19883165D01*
X9789129Y-19883161D01*
X9806050Y-19866242D01*
X9817004Y-19844741D01*
X9825110Y-19831513D01*
X9839296Y-19811989D01*
X9846750Y-19789046D01*
X9852691Y-19774702D01*
X9863646Y-19753204D01*
X9867421Y-19729367D01*
X9871046Y-19714271D01*
X9878500Y-19691333D01*
X9878500Y-19564467D01*
X9878500Y-12609223D01*
X9897407Y-12551032D01*
X9946907Y-12515068D01*
X10008093Y-12515068D01*
X10045898Y-12540135D01*
X10046598Y-12539329D01*
X10051951Y-12543967D01*
X10153491Y-12609223D01*
X10160931Y-12614004D01*
X10285228Y-12650500D01*
X10285230Y-12650500D01*
X10414770Y-12650500D01*
X10414772Y-12650500D01*
X10539069Y-12614004D01*
X10648049Y-12543967D01*
X10732882Y-12446063D01*
X10786697Y-12328226D01*
X10805133Y-12200000D01*
X10798651Y-12154918D01*
X10786697Y-12071774D01*
X10761986Y-12017666D01*
X10732882Y-11953937D01*
X10648049Y-11856033D01*
X10648048Y-11856032D01*
X10648047Y-11856031D01*
X10539073Y-11785998D01*
X10539070Y-11785996D01*
X10539069Y-11785996D01*
X10539066Y-11785995D01*
X10414774Y-11749500D01*
X10414772Y-11749500D01*
X10285228Y-11749500D01*
X10285225Y-11749500D01*
X10160933Y-11785995D01*
X10160926Y-11785998D01*
X10051951Y-11856032D01*
X10046598Y-11860671D01*
X10045680Y-11859611D01*
X9999918Y-11887204D01*
X9938957Y-11881965D01*
X9892719Y-11841895D01*
X9878500Y-11790776D01*
X9878500Y-11349500D01*
X9897407Y-11291309D01*
X9946907Y-11255345D01*
X9977500Y-11250500D01*
X12588116Y-11250500D01*
X12592823Y-11250611D01*
X12607695Y-11251320D01*
X12644309Y-11253064D01*
X12644309Y-11253063D01*
X12644312Y-11253064D01*
X12679100Y-11243563D01*
X12689690Y-11241285D01*
X12725304Y-11235646D01*
X12736123Y-11230132D01*
X12754977Y-11222843D01*
X12766696Y-11219644D01*
X12796845Y-11199859D01*
X12806213Y-11194419D01*
X12838342Y-11178050D01*
X12874802Y-11141588D01*
X12878168Y-11138378D01*
X13194714Y-10850609D01*
X13233412Y-10828877D01*
X13284069Y-10814004D01*
X13393049Y-10743967D01*
X13477882Y-10646063D01*
X13531697Y-10528226D01*
X13543755Y-10444359D01*
X13550133Y-10400002D01*
X13550133Y-10399997D01*
X13531697Y-10271774D01*
X13477882Y-10153937D01*
X13393049Y-10056033D01*
X13393048Y-10056032D01*
X13393047Y-10056031D01*
X13284073Y-9985998D01*
X13284070Y-9985996D01*
X13284069Y-9985996D01*
X13284066Y-9985995D01*
X13159774Y-9949500D01*
X13159772Y-9949500D01*
X13030228Y-9949500D01*
X13030225Y-9949500D01*
X12905933Y-9985995D01*
X12905926Y-9985998D01*
X12796951Y-10056032D01*
X12796950Y-10056033D01*
X12785616Y-10069113D01*
X12733219Y-10100707D01*
X12672258Y-10095469D01*
X12626019Y-10055400D01*
X12612162Y-9995804D01*
X12620747Y-9963151D01*
X12636697Y-9928226D01*
X12636697Y-9928225D01*
X12647944Y-9850000D01*
X12655133Y-9800000D01*
X12655133Y-9799997D01*
X12655508Y-9797389D01*
X12682503Y-9742481D01*
X12683429Y-9741540D01*
X12866405Y-9558564D01*
X12877664Y-9550493D01*
X12876905Y-9549487D01*
X12884221Y-9543961D01*
X12884228Y-9543958D01*
X12915877Y-9509239D01*
X12918995Y-9505974D01*
X12932174Y-9492797D01*
X12932238Y-9492702D01*
X12940753Y-9481953D01*
X12959916Y-9460933D01*
X12963466Y-9451767D01*
X12974107Y-9431581D01*
X12979657Y-9423480D01*
X12986170Y-9395786D01*
X12990218Y-9382712D01*
X13000500Y-9356173D01*
X13000500Y-9346348D01*
X13003129Y-9323683D01*
X13005379Y-9314119D01*
X13001449Y-9285944D01*
X13000500Y-9272268D01*
X13000500Y-8400002D01*
X16244867Y-8400002D01*
X16263302Y-8528225D01*
X16301018Y-8610809D01*
X16317118Y-8646063D01*
X16370793Y-8708008D01*
X16401952Y-8743968D01*
X16510926Y-8814001D01*
X16510931Y-8814004D01*
X16635228Y-8850500D01*
X16635230Y-8850500D01*
X16764770Y-8850500D01*
X16764772Y-8850500D01*
X16889069Y-8814004D01*
X16998049Y-8743967D01*
X17082882Y-8646063D01*
X17136697Y-8528226D01*
X17144814Y-8471774D01*
X17155133Y-8400002D01*
X17155133Y-8399997D01*
X17136697Y-8271774D01*
X17106864Y-8206450D01*
X17082882Y-8153937D01*
X16998049Y-8056033D01*
X16998048Y-8056032D01*
X16998047Y-8056031D01*
X16889073Y-7985998D01*
X16889070Y-7985996D01*
X16889069Y-7985996D01*
X16889066Y-7985995D01*
X16764774Y-7949500D01*
X16764772Y-7949500D01*
X16635228Y-7949500D01*
X16635225Y-7949500D01*
X16510933Y-7985995D01*
X16510926Y-7985998D01*
X16401952Y-8056031D01*
X16317117Y-8153938D01*
X16263302Y-8271774D01*
X16244867Y-8399997D01*
X16244867Y-8400002D01*
X13000500Y-8400002D01*
X13000500Y-6204248D01*
X13019407Y-6146057D01*
X13068907Y-6110093D01*
X13130093Y-6110093D01*
X13150933Y-6119658D01*
X13178672Y-6136526D01*
X13317772Y-6175500D01*
X13317773Y-6175500D01*
X13425943Y-6175500D01*
X13425949Y-6175500D01*
X13533111Y-6160771D01*
X13665609Y-6103219D01*
X13777665Y-6012054D01*
X13860971Y-5894037D01*
X13877716Y-5846919D01*
X13915018Y-5798421D01*
X13973704Y-5781110D01*
X14031356Y-5801599D01*
X14065955Y-5852063D01*
X14070000Y-5880073D01*
X14070000Y-6029999D01*
X14070001Y-6030000D01*
X14520000Y-6030000D01*
X14520000Y-6330000D01*
X14070001Y-6330000D01*
X14070000Y-6330001D01*
X14070000Y-6773680D01*
X14085248Y-6904141D01*
X14085250Y-6904146D01*
X14145212Y-7068889D01*
X14145217Y-7068899D01*
X14241550Y-7215367D01*
X14241555Y-7215372D01*
X14369080Y-7335686D01*
X14369080Y-7335687D01*
X14520917Y-7423349D01*
X14670000Y-7467981D01*
X14670000Y-6992657D01*
X14683962Y-7003201D01*
X14791840Y-7033895D01*
X14903521Y-7023546D01*
X14970000Y-6990443D01*
X14970000Y-7465121D01*
X15036562Y-7453385D01*
X15036568Y-7453383D01*
X15197547Y-7383943D01*
X15197556Y-7383938D01*
X15338184Y-7279244D01*
X15338186Y-7279242D01*
X15450880Y-7144940D01*
X15529567Y-6988262D01*
X15529567Y-6988261D01*
X15570000Y-6817659D01*
X15570000Y-6330001D01*
X15569999Y-6330000D01*
X15120000Y-6330000D01*
X15120000Y-6030000D01*
X15569999Y-6030000D01*
X15570000Y-6029999D01*
X15570000Y-5586319D01*
X15554751Y-5455858D01*
X15554749Y-5455853D01*
X15494787Y-5291110D01*
X15494782Y-5291100D01*
X15398449Y-5144632D01*
X15398444Y-5144627D01*
X15329947Y-5080003D01*
X18334417Y-5080003D01*
X18354698Y-5285929D01*
X18354699Y-5285934D01*
X18414768Y-5483954D01*
X18512316Y-5666452D01*
X18620620Y-5798421D01*
X18643590Y-5826410D01*
X18645463Y-5827947D01*
X18803547Y-5957683D01*
X18803548Y-5957683D01*
X18803550Y-5957685D01*
X18986046Y-6055232D01*
X19123997Y-6097078D01*
X19184065Y-6115300D01*
X19184070Y-6115301D01*
X19389997Y-6135583D01*
X19390000Y-6135583D01*
X19390003Y-6135583D01*
X19595929Y-6115301D01*
X19595934Y-6115300D01*
X19635763Y-6103218D01*
X19793954Y-6055232D01*
X19976450Y-5957685D01*
X20136410Y-5826410D01*
X20267685Y-5666450D01*
X20365232Y-5483954D01*
X20425300Y-5285934D01*
X20425301Y-5285929D01*
X20445583Y-5080003D01*
X20445583Y-5079996D01*
X20425301Y-4874070D01*
X20425300Y-4874065D01*
X20366713Y-4680929D01*
X20365232Y-4676046D01*
X20267685Y-4493550D01*
X20136410Y-4333590D01*
X20098809Y-4302732D01*
X19976452Y-4202316D01*
X19793954Y-4104768D01*
X19595934Y-4044699D01*
X19595929Y-4044698D01*
X19390003Y-4024417D01*
X19389997Y-4024417D01*
X19184070Y-4044698D01*
X19184065Y-4044699D01*
X18986045Y-4104768D01*
X18803547Y-4202316D01*
X18643595Y-4333585D01*
X18643585Y-4333595D01*
X18512316Y-4493547D01*
X18414768Y-4676045D01*
X18354699Y-4874065D01*
X18354698Y-4874070D01*
X18334417Y-5079996D01*
X18334417Y-5080003D01*
X15329947Y-5080003D01*
X15270919Y-5024313D01*
X15270919Y-5024312D01*
X15119081Y-4936650D01*
X14970000Y-4892017D01*
X14970000Y-5367342D01*
X14956038Y-5356799D01*
X14848160Y-5326105D01*
X14736479Y-5336454D01*
X14670000Y-5369556D01*
X14670000Y-4894878D01*
X14669999Y-4894877D01*
X14603434Y-4906615D01*
X14603430Y-4906616D01*
X14442452Y-4976056D01*
X14442443Y-4976061D01*
X14301815Y-5080755D01*
X14301813Y-5080757D01*
X14189119Y-5215059D01*
X14110432Y-5371737D01*
X14110430Y-5371744D01*
X14084415Y-5481509D01*
X14052598Y-5533771D01*
X13996138Y-5557350D01*
X13936602Y-5543239D01*
X13896730Y-5496829D01*
X13891155Y-5478822D01*
X13889814Y-5472366D01*
X13889812Y-5472363D01*
X13889813Y-5472363D01*
X13823355Y-5344107D01*
X13823353Y-5344104D01*
X13769022Y-5285929D01*
X13724755Y-5238531D01*
X13724754Y-5238530D01*
X13601328Y-5163474D01*
X13462228Y-5124500D01*
X13354051Y-5124500D01*
X13246888Y-5139228D01*
X13138942Y-5186117D01*
X13078036Y-5191958D01*
X13025329Y-5160884D01*
X13000952Y-5104764D01*
X13000500Y-5095313D01*
X13000500Y-4399500D01*
X13019407Y-4341309D01*
X13068907Y-4305345D01*
X13099500Y-4300500D01*
X17434836Y-4300500D01*
X17448511Y-4302732D01*
X17448683Y-4301506D01*
X17457764Y-4302772D01*
X17457765Y-4302773D01*
X17457765Y-4302772D01*
X17457766Y-4302773D01*
X17504642Y-4300606D01*
X17509214Y-4300500D01*
X17527842Y-4300500D01*
X17527844Y-4300500D01*
X17527948Y-4300480D01*
X17541571Y-4298898D01*
X17569992Y-4297585D01*
X17578976Y-4293617D01*
X17600777Y-4286865D01*
X17610433Y-4285061D01*
X17634618Y-4270086D01*
X17646728Y-4263701D01*
X17672765Y-4252206D01*
X17679709Y-4245260D01*
X17697601Y-4231089D01*
X17705952Y-4225919D01*
X17723089Y-4203223D01*
X17732082Y-4192887D01*
X18334984Y-3589985D01*
X18389499Y-3562210D01*
X18449931Y-3571781D01*
X18459989Y-3577677D01*
X18461769Y-3578867D01*
X18506231Y-3587711D01*
X18520241Y-3590498D01*
X18520246Y-3590498D01*
X18520252Y-3590500D01*
X18520253Y-3590500D01*
X20259747Y-3590500D01*
X20259748Y-3590500D01*
X20318231Y-3578867D01*
X20384552Y-3534552D01*
X20428867Y-3468231D01*
X20440500Y-3409748D01*
X20440500Y-1670252D01*
X20428867Y-1611769D01*
X20384552Y-1545448D01*
X20355234Y-1525858D01*
X20318233Y-1501134D01*
X20318231Y-1501133D01*
X20318228Y-1501132D01*
X20318227Y-1501132D01*
X20259758Y-1489501D01*
X20259748Y-1489500D01*
X18520252Y-1489500D01*
X18520251Y-1489500D01*
X18520241Y-1489501D01*
X18461772Y-1501132D01*
X18461766Y-1501134D01*
X18395451Y-1545445D01*
X18395445Y-1545451D01*
X18351134Y-1611766D01*
X18351132Y-1611772D01*
X18339501Y-1670241D01*
X18339500Y-1670253D01*
X18339500Y-2694521D01*
X18320593Y-2752712D01*
X18310504Y-2764525D01*
X17404525Y-3670504D01*
X17350008Y-3698281D01*
X17334521Y-3699500D01*
X12755727Y-3699500D01*
X12728636Y-3695721D01*
X12728207Y-3695599D01*
X12690661Y-3699078D01*
X12681529Y-3699500D01*
X12672156Y-3699500D01*
X12665164Y-3700806D01*
X12662941Y-3701222D01*
X12653896Y-3702483D01*
X12616344Y-3705964D01*
X12616334Y-3705966D01*
X12615929Y-3706169D01*
X12590012Y-3714855D01*
X12589570Y-3714937D01*
X12589569Y-3714937D01*
X12557517Y-3734783D01*
X12549533Y-3739230D01*
X12515769Y-3756043D01*
X12515465Y-3756378D01*
X12494435Y-3773840D01*
X12494053Y-3774076D01*
X12494047Y-3774081D01*
X12471321Y-3804174D01*
X12465482Y-3811205D01*
X12440086Y-3839063D01*
X12440081Y-3839070D01*
X12439918Y-3839493D01*
X12426616Y-3863374D01*
X12426348Y-3863728D01*
X12426344Y-3863736D01*
X12416024Y-3900003D01*
X12413120Y-3908668D01*
X12399500Y-3943826D01*
X12399500Y-3944272D01*
X12395722Y-3971361D01*
X12395599Y-3971790D01*
X12395599Y-3971794D01*
X12399078Y-4009337D01*
X12399500Y-4018471D01*
X12399500Y-7821492D01*
X12380593Y-7879683D01*
X12331093Y-7915647D01*
X12272609Y-7916482D01*
X12214774Y-7899500D01*
X12214772Y-7899500D01*
X12085228Y-7899500D01*
X12085225Y-7899500D01*
X11960933Y-7935995D01*
X11960926Y-7935998D01*
X11851952Y-8006031D01*
X11767117Y-8103937D01*
X11745207Y-8151913D01*
X11703834Y-8196990D01*
X11643867Y-8209139D01*
X11601631Y-8194069D01*
X11589069Y-8185996D01*
X11589066Y-8185995D01*
X11464774Y-8149500D01*
X11464772Y-8149500D01*
X11335228Y-8149500D01*
X11335225Y-8149500D01*
X11210933Y-8185995D01*
X11210926Y-8185998D01*
X11101952Y-8256031D01*
X11017117Y-8353938D01*
X10963302Y-8471774D01*
X10944867Y-8599997D01*
X10944867Y-8600002D01*
X10963302Y-8728225D01*
X11017117Y-8846061D01*
X11017118Y-8846063D01*
X11079221Y-8917735D01*
X11101952Y-8943968D01*
X11204047Y-9009580D01*
X11210931Y-9014004D01*
X11335228Y-9050500D01*
X11335230Y-9050500D01*
X11464770Y-9050500D01*
X11464772Y-9050500D01*
X11589069Y-9014004D01*
X11698049Y-8943967D01*
X11782882Y-8846063D01*
X11804792Y-8798086D01*
X11846161Y-8753011D01*
X11906128Y-8740859D01*
X11948367Y-8755930D01*
X11953023Y-8758922D01*
X11960931Y-8764004D01*
X12085228Y-8800500D01*
X12085230Y-8800500D01*
X12214770Y-8800500D01*
X12214772Y-8800500D01*
X12272611Y-8783517D01*
X12333768Y-8785264D01*
X12382221Y-8822626D01*
X12399500Y-8878507D01*
X12399500Y-9134521D01*
X12380593Y-9192712D01*
X12370504Y-9204525D01*
X12254525Y-9320504D01*
X12200008Y-9348281D01*
X12184521Y-9349500D01*
X12135225Y-9349500D01*
X12010933Y-9385995D01*
X12010926Y-9385998D01*
X11901952Y-9456031D01*
X11817117Y-9553938D01*
X11763302Y-9671774D01*
X11744867Y-9799997D01*
X11744867Y-9800002D01*
X11763302Y-9928225D01*
X11807638Y-10025306D01*
X11817118Y-10046063D01*
X11897076Y-10138341D01*
X11901952Y-10143968D01*
X11979754Y-10193968D01*
X12010931Y-10214004D01*
X12135228Y-10250500D01*
X12135230Y-10250500D01*
X12264770Y-10250500D01*
X12264772Y-10250500D01*
X12389069Y-10214004D01*
X12466968Y-10163941D01*
X12526140Y-10148387D01*
X12583157Y-10170585D01*
X12616236Y-10222058D01*
X12612744Y-10283143D01*
X12587084Y-10320480D01*
X12473484Y-10423754D01*
X12417708Y-10448907D01*
X12406889Y-10449500D01*
X9517309Y-10449500D01*
X9501822Y-10448281D01*
X9478000Y-10444508D01*
X9454178Y-10448281D01*
X9438691Y-10449500D01*
X9206901Y-10449500D01*
X9148710Y-10430593D01*
X9136897Y-10420504D01*
X8479496Y-9763103D01*
X8451719Y-9708586D01*
X8450500Y-9693099D01*
X8450500Y-8842206D01*
X8469407Y-8784015D01*
X8518907Y-8748051D01*
X8580093Y-8748051D01*
X8603021Y-8758920D01*
X8610931Y-8764004D01*
X8735228Y-8800500D01*
X8735230Y-8800500D01*
X8864770Y-8800500D01*
X8864772Y-8800500D01*
X8989069Y-8764004D01*
X9098049Y-8693967D01*
X9182882Y-8596063D01*
X9203918Y-8550002D01*
X9694867Y-8550002D01*
X9713302Y-8678225D01*
X9752477Y-8764004D01*
X9767118Y-8796063D01*
X9851951Y-8893967D01*
X9851952Y-8893968D01*
X9936101Y-8948047D01*
X9960931Y-8964004D01*
X10085228Y-9000500D01*
X10085230Y-9000500D01*
X10214770Y-9000500D01*
X10214772Y-9000500D01*
X10339069Y-8964004D01*
X10448049Y-8893967D01*
X10532882Y-8796063D01*
X10586697Y-8678226D01*
X10596390Y-8610809D01*
X10605133Y-8550002D01*
X10605133Y-8549997D01*
X10586697Y-8421774D01*
X10576752Y-8399997D01*
X10532882Y-8303937D01*
X10448049Y-8206033D01*
X10448048Y-8206032D01*
X10448047Y-8206031D01*
X10339073Y-8135998D01*
X10339070Y-8135996D01*
X10339069Y-8135996D01*
X10339066Y-8135995D01*
X10214774Y-8099500D01*
X10214772Y-8099500D01*
X10085228Y-8099500D01*
X10085225Y-8099500D01*
X9960933Y-8135995D01*
X9960926Y-8135998D01*
X9851952Y-8206031D01*
X9767117Y-8303938D01*
X9713302Y-8421774D01*
X9694867Y-8549997D01*
X9694867Y-8550002D01*
X9203918Y-8550002D01*
X9236697Y-8478226D01*
X9252774Y-8366410D01*
X9255133Y-8350002D01*
X9255133Y-8349997D01*
X9236697Y-8221774D01*
X9220358Y-8185998D01*
X9182882Y-8103937D01*
X9098049Y-8006033D01*
X9098048Y-8006032D01*
X9098047Y-8006031D01*
X8989073Y-7935998D01*
X8989070Y-7935996D01*
X8989069Y-7935996D01*
X8989066Y-7935995D01*
X8864774Y-7899500D01*
X8864772Y-7899500D01*
X8735228Y-7899500D01*
X8735225Y-7899500D01*
X8610933Y-7935995D01*
X8610926Y-7935998D01*
X8501951Y-8006032D01*
X8501946Y-8006036D01*
X8499816Y-8008495D01*
X8497492Y-8009896D01*
X8496598Y-8010671D01*
X8496463Y-8010516D01*
X8447419Y-8040089D01*
X8386458Y-8034851D01*
X8350184Y-8008495D01*
X8348053Y-8006036D01*
X8348048Y-8006032D01*
X8239073Y-7935998D01*
X8239070Y-7935996D01*
X8239069Y-7935996D01*
X8239066Y-7935995D01*
X8114774Y-7899500D01*
X8114772Y-7899500D01*
X7985228Y-7899500D01*
X7985225Y-7899500D01*
X7860933Y-7935995D01*
X7860926Y-7935998D01*
X7751952Y-8006031D01*
X7667117Y-8103938D01*
X7613302Y-8221774D01*
X7594867Y-8349997D01*
X7594867Y-8350002D01*
X7613302Y-8478224D01*
X7640553Y-8537894D01*
X7649500Y-8579021D01*
X7649500Y-9963437D01*
X7656953Y-9986374D01*
X7660579Y-10001474D01*
X7664354Y-10025306D01*
X7671509Y-10039346D01*
X7674931Y-10046063D01*
X7675301Y-10046788D01*
X7681247Y-10061142D01*
X7688703Y-10084088D01*
X7688702Y-10084088D01*
X7702884Y-10103608D01*
X7710997Y-10116847D01*
X7721950Y-10138342D01*
X7721951Y-10138343D01*
X7742030Y-10158423D01*
X7742031Y-10158423D01*
X7744513Y-10160905D01*
X7744516Y-10160909D01*
X8739091Y-11155484D01*
X8739094Y-11155486D01*
X8739093Y-11155486D01*
X8761656Y-11178048D01*
X8761658Y-11178050D01*
X8783147Y-11188999D01*
X8796392Y-11197115D01*
X8815910Y-11211296D01*
X8838851Y-11218749D01*
X8853201Y-11224694D01*
X8874691Y-11235644D01*
X8874693Y-11235644D01*
X8874696Y-11235646D01*
X8898517Y-11239418D01*
X8913613Y-11243042D01*
X8936567Y-11250500D01*
X8968481Y-11250500D01*
X8978500Y-11250500D01*
X9036691Y-11269407D01*
X9072655Y-11318907D01*
X9077500Y-11349500D01*
X9077500Y-18221727D01*
X9058593Y-18279918D01*
X9009093Y-18315882D01*
X8947907Y-18315882D01*
X8903681Y-18286558D01*
X8893629Y-18274958D01*
X8893627Y-18274956D01*
X8772557Y-18197149D01*
X8772554Y-18197147D01*
X8772553Y-18197147D01*
X8772550Y-18197146D01*
X8634464Y-18156600D01*
X8634461Y-18156600D01*
X8490539Y-18156600D01*
X8490535Y-18156600D01*
X8352449Y-18197146D01*
X8352442Y-18197149D01*
X8231373Y-18274955D01*
X8137122Y-18383728D01*
X8077334Y-18514643D01*
X8056853Y-18657097D01*
X8056853Y-18657102D01*
X8077334Y-18799556D01*
X8137122Y-18930471D01*
X8137123Y-18930473D01*
X8193941Y-18996045D01*
X8231373Y-19039244D01*
X8234644Y-19041346D01*
X8352447Y-19117053D01*
X8458903Y-19148311D01*
X8490535Y-19157599D01*
X8490536Y-19157599D01*
X8490539Y-19157600D01*
X8490541Y-19157600D01*
X8634459Y-19157600D01*
X8634461Y-19157600D01*
X8772553Y-19117053D01*
X8893628Y-19039243D01*
X8903679Y-19027642D01*
X8956074Y-18996045D01*
X9017035Y-19001280D01*
X9063277Y-19041346D01*
X9077500Y-19092472D01*
X9077500Y-19420999D01*
X9058593Y-19479190D01*
X9048504Y-19491003D01*
X3326096Y-25213410D01*
X3283984Y-25238396D01*
X3161547Y-25274347D01*
X3161542Y-25274349D01*
X3040472Y-25352156D01*
X2999446Y-25399503D01*
X2947049Y-25431098D01*
X2886089Y-25425862D01*
X2871104Y-25417955D01*
X2782557Y-25361049D01*
X2782554Y-25361047D01*
X2782553Y-25361047D01*
X2782550Y-25361046D01*
X2644464Y-25320500D01*
X2644461Y-25320500D01*
X2500539Y-25320500D01*
X2500535Y-25320500D01*
X2362449Y-25361046D01*
X2362442Y-25361049D01*
X2241373Y-25438855D01*
X2147122Y-25547628D01*
X2087334Y-25678543D01*
X2066853Y-25820997D01*
X2066853Y-25821002D01*
X300500Y-25821002D01*
X300500Y-22236402D01*
X3820753Y-22236402D01*
X3841234Y-22378856D01*
X3901022Y-22509771D01*
X3901023Y-22509773D01*
X3995272Y-22618543D01*
X3995273Y-22618544D01*
X4116342Y-22696350D01*
X4116347Y-22696353D01*
X4222803Y-22727611D01*
X4254435Y-22736899D01*
X4254436Y-22736899D01*
X4254439Y-22736900D01*
X4254441Y-22736900D01*
X4398359Y-22736900D01*
X4398361Y-22736900D01*
X4536453Y-22696353D01*
X4657528Y-22618543D01*
X4751777Y-22509773D01*
X4811565Y-22378857D01*
X4832047Y-22236400D01*
X4811565Y-22093943D01*
X4751777Y-21963027D01*
X4657528Y-21854257D01*
X4657527Y-21854256D01*
X4657526Y-21854255D01*
X4536457Y-21776449D01*
X4536454Y-21776447D01*
X4536453Y-21776447D01*
X4536450Y-21776446D01*
X4398364Y-21735900D01*
X4398361Y-21735900D01*
X4254439Y-21735900D01*
X4254435Y-21735900D01*
X4116349Y-21776446D01*
X4116342Y-21776449D01*
X3995273Y-21854255D01*
X3901022Y-21963028D01*
X3841234Y-22093943D01*
X3820753Y-22236397D01*
X3820753Y-22236402D01*
X300500Y-22236402D01*
X300500Y-20470000D01*
X519187Y-20470000D01*
X524097Y-20522989D01*
X579887Y-20719070D01*
X670750Y-20901548D01*
X670755Y-20901557D01*
X793608Y-21064240D01*
X944266Y-21201582D01*
X1117581Y-21308895D01*
X1117586Y-21308898D01*
X1307683Y-21382541D01*
X1459999Y-21411014D01*
X1460000Y-21411014D01*
X1460000Y-20801170D01*
X1467685Y-20804680D01*
X1574237Y-20820000D01*
X1645763Y-20820000D01*
X1752315Y-20804680D01*
X1760000Y-20801170D01*
X1760000Y-21411014D01*
X1912316Y-21382541D01*
X2102413Y-21308898D01*
X2102418Y-21308895D01*
X2275733Y-21201582D01*
X2426391Y-21064240D01*
X2549244Y-20901557D01*
X2549249Y-20901548D01*
X2640112Y-20719070D01*
X2695902Y-20522989D01*
X2700813Y-20470000D01*
X2087065Y-20470000D01*
X2110000Y-20391889D01*
X2110000Y-20248111D01*
X2087065Y-20170000D01*
X2700812Y-20170000D01*
X2695902Y-20117010D01*
X2640112Y-19920929D01*
X2549249Y-19738451D01*
X2549244Y-19738442D01*
X2426391Y-19575759D01*
X2275733Y-19438417D01*
X2102418Y-19331104D01*
X2102413Y-19331101D01*
X1912319Y-19257459D01*
X1912313Y-19257457D01*
X1760000Y-19228984D01*
X1760000Y-19838829D01*
X1752315Y-19835320D01*
X1645763Y-19820000D01*
X1574237Y-19820000D01*
X1467685Y-19835320D01*
X1460000Y-19838829D01*
X1460000Y-19228985D01*
X1459999Y-19228984D01*
X1307686Y-19257457D01*
X1307680Y-19257459D01*
X1117586Y-19331101D01*
X1117581Y-19331104D01*
X944266Y-19438417D01*
X793608Y-19575759D01*
X670755Y-19738442D01*
X670750Y-19738451D01*
X579887Y-19920929D01*
X524097Y-20117010D01*
X519187Y-20170000D01*
X1132935Y-20170000D01*
X1110000Y-20248111D01*
X1110000Y-20391889D01*
X1132935Y-20470000D01*
X519187Y-20470000D01*
X300500Y-20470000D01*
X300500Y-17780003D01*
X554417Y-17780003D01*
X574698Y-17985929D01*
X574699Y-17985934D01*
X634768Y-18183954D01*
X732316Y-18366452D01*
X853933Y-18514643D01*
X863590Y-18526410D01*
X887904Y-18546364D01*
X1023547Y-18657683D01*
X1023548Y-18657683D01*
X1023550Y-18657685D01*
X1206046Y-18755232D01*
X1343997Y-18797078D01*
X1404065Y-18815300D01*
X1404070Y-18815301D01*
X1609997Y-18835583D01*
X1610000Y-18835583D01*
X1610003Y-18835583D01*
X1815929Y-18815301D01*
X1815934Y-18815300D01*
X2013954Y-18755232D01*
X2196450Y-18657685D01*
X2356410Y-18526410D01*
X2487685Y-18366450D01*
X2585232Y-18183954D01*
X2645300Y-17985934D01*
X2645301Y-17985929D01*
X2662520Y-17811102D01*
X3951653Y-17811102D01*
X3972134Y-17953556D01*
X3986919Y-17985929D01*
X4031923Y-18084473D01*
X4094421Y-18156600D01*
X4126173Y-18193244D01*
X4170494Y-18221727D01*
X4247247Y-18271053D01*
X4353703Y-18302311D01*
X4385335Y-18311599D01*
X4385336Y-18311599D01*
X4385339Y-18311600D01*
X4385341Y-18311600D01*
X4529259Y-18311600D01*
X4529261Y-18311600D01*
X4667353Y-18271053D01*
X4788428Y-18193243D01*
X4882677Y-18084473D01*
X4942465Y-17953557D01*
X4962947Y-17811100D01*
X4942465Y-17668643D01*
X4882677Y-17537727D01*
X4788428Y-17428957D01*
X4788427Y-17428956D01*
X4788426Y-17428955D01*
X4667357Y-17351149D01*
X4667354Y-17351147D01*
X4667353Y-17351147D01*
X4667350Y-17351146D01*
X4529264Y-17310600D01*
X4529261Y-17310600D01*
X4385339Y-17310600D01*
X4385335Y-17310600D01*
X4247249Y-17351146D01*
X4247242Y-17351149D01*
X4126173Y-17428955D01*
X4031922Y-17537728D01*
X3972134Y-17668643D01*
X3951653Y-17811097D01*
X3951653Y-17811102D01*
X2662520Y-17811102D01*
X2665583Y-17780003D01*
X2665583Y-17779996D01*
X2645301Y-17574070D01*
X2645300Y-17574065D01*
X2601282Y-17428957D01*
X2585232Y-17376046D01*
X2487685Y-17193550D01*
X2356410Y-17033590D01*
X2314630Y-16999302D01*
X2196452Y-16902316D01*
X2013954Y-16804768D01*
X1815934Y-16744699D01*
X1815929Y-16744698D01*
X1610003Y-16724417D01*
X1609997Y-16724417D01*
X1404070Y-16744698D01*
X1404065Y-16744699D01*
X1206045Y-16804768D01*
X1023547Y-16902316D01*
X863595Y-17033585D01*
X863585Y-17033595D01*
X732316Y-17193547D01*
X634768Y-17376045D01*
X574699Y-17574065D01*
X574698Y-17574070D01*
X554417Y-17779996D01*
X554417Y-17780003D01*
X300500Y-17780003D01*
X300500Y-15240003D01*
X554417Y-15240003D01*
X574698Y-15445929D01*
X574699Y-15445934D01*
X634768Y-15643954D01*
X732316Y-15826452D01*
X851072Y-15971157D01*
X863590Y-15986410D01*
X887904Y-16006364D01*
X1023547Y-16117683D01*
X1023548Y-16117683D01*
X1023550Y-16117685D01*
X1206046Y-16215232D01*
X1343997Y-16257078D01*
X1404065Y-16275300D01*
X1404070Y-16275301D01*
X1609997Y-16295583D01*
X1610000Y-16295583D01*
X1610003Y-16295583D01*
X1815929Y-16275301D01*
X1815934Y-16275300D01*
X2013954Y-16215232D01*
X2196450Y-16117685D01*
X2356410Y-15986410D01*
X2487685Y-15826450D01*
X2585232Y-15643954D01*
X2645300Y-15445934D01*
X2645301Y-15445929D01*
X2665583Y-15240003D01*
X2665583Y-15239996D01*
X2645301Y-15034070D01*
X2645300Y-15034065D01*
X2622217Y-14957971D01*
X2585232Y-14836046D01*
X2487685Y-14653550D01*
X2472063Y-14634515D01*
X2356414Y-14493595D01*
X2356410Y-14493590D01*
X2330824Y-14472592D01*
X2196452Y-14362316D01*
X2013954Y-14264768D01*
X1815934Y-14204699D01*
X1815929Y-14204698D01*
X1610003Y-14184417D01*
X1609997Y-14184417D01*
X1404070Y-14204698D01*
X1404065Y-14204699D01*
X1206045Y-14264768D01*
X1023547Y-14362316D01*
X863595Y-14493585D01*
X863585Y-14493595D01*
X732316Y-14653547D01*
X634768Y-14836045D01*
X574699Y-15034065D01*
X574698Y-15034070D01*
X554417Y-15239996D01*
X554417Y-15240003D01*
X300500Y-15240003D01*
X300500Y-12700003D01*
X554417Y-12700003D01*
X574698Y-12905929D01*
X574699Y-12905934D01*
X634768Y-13103954D01*
X732316Y-13286452D01*
X792591Y-13359897D01*
X863590Y-13446410D01*
X863595Y-13446414D01*
X1023547Y-13577683D01*
X1023548Y-13577683D01*
X1023550Y-13577685D01*
X1206046Y-13675232D01*
X1309500Y-13706614D01*
X1404065Y-13735300D01*
X1404070Y-13735301D01*
X1609997Y-13755583D01*
X1610000Y-13755583D01*
X1610003Y-13755583D01*
X1815929Y-13735301D01*
X1815934Y-13735300D01*
X2013954Y-13675232D01*
X2196450Y-13577685D01*
X2356410Y-13446410D01*
X2427405Y-13359902D01*
X5494353Y-13359902D01*
X5514834Y-13502356D01*
X5549990Y-13579335D01*
X5574623Y-13633273D01*
X5654856Y-13725867D01*
X5668873Y-13742044D01*
X5727992Y-13780037D01*
X5789947Y-13819853D01*
X5871562Y-13843817D01*
X5928035Y-13860399D01*
X5928036Y-13860399D01*
X5928039Y-13860400D01*
X5928041Y-13860400D01*
X6071959Y-13860400D01*
X6071961Y-13860400D01*
X6210053Y-13819853D01*
X6331128Y-13742043D01*
X6425377Y-13633273D01*
X6485165Y-13502357D01*
X6505647Y-13359900D01*
X6485165Y-13217443D01*
X6425377Y-13086527D01*
X6331128Y-12977757D01*
X6331127Y-12977756D01*
X6331126Y-12977755D01*
X6210057Y-12899949D01*
X6210054Y-12899947D01*
X6210053Y-12899947D01*
X6210050Y-12899946D01*
X6071964Y-12859400D01*
X6071961Y-12859400D01*
X5928039Y-12859400D01*
X5928035Y-12859400D01*
X5789949Y-12899946D01*
X5789942Y-12899949D01*
X5668873Y-12977755D01*
X5574622Y-13086528D01*
X5514834Y-13217443D01*
X5494353Y-13359897D01*
X5494353Y-13359902D01*
X2427405Y-13359902D01*
X2487685Y-13286450D01*
X2585232Y-13103954D01*
X2645300Y-12905934D01*
X2645301Y-12905929D01*
X2665583Y-12700003D01*
X2665583Y-12699996D01*
X2645301Y-12494070D01*
X2645300Y-12494065D01*
X2627078Y-12433997D01*
X2585232Y-12296046D01*
X2487685Y-12113550D01*
X2467940Y-12089491D01*
X2359498Y-11957353D01*
X2356410Y-11953590D01*
X2333322Y-11934642D01*
X2196452Y-11822316D01*
X2013954Y-11724768D01*
X1815934Y-11664699D01*
X1815929Y-11664698D01*
X1610003Y-11644417D01*
X1609997Y-11644417D01*
X1404070Y-11664698D01*
X1404065Y-11664699D01*
X1206045Y-11724768D01*
X1023547Y-11822316D01*
X863595Y-11953585D01*
X863585Y-11953595D01*
X732316Y-12113547D01*
X634768Y-12296045D01*
X574699Y-12494065D01*
X574698Y-12494070D01*
X554417Y-12699996D01*
X554417Y-12700003D01*
X300500Y-12700003D01*
X300500Y-10160003D01*
X554417Y-10160003D01*
X574698Y-10365929D01*
X574699Y-10365934D01*
X634768Y-10563954D01*
X732316Y-10746452D01*
X799958Y-10828874D01*
X863590Y-10906410D01*
X863595Y-10906414D01*
X1023547Y-11037683D01*
X1023548Y-11037683D01*
X1023550Y-11037685D01*
X1206046Y-11135232D01*
X1309500Y-11166614D01*
X1404065Y-11195300D01*
X1404070Y-11195301D01*
X1609997Y-11215583D01*
X1610000Y-11215583D01*
X1610003Y-11215583D01*
X1815929Y-11195301D01*
X1815934Y-11195300D01*
X1836709Y-11188998D01*
X2013954Y-11135232D01*
X2196450Y-11037685D01*
X2356410Y-10906410D01*
X2487685Y-10746450D01*
X2585232Y-10563954D01*
X2604844Y-10499302D01*
X5942253Y-10499302D01*
X5962734Y-10641756D01*
X6009413Y-10743967D01*
X6022523Y-10772673D01*
X6090056Y-10850611D01*
X6116773Y-10881444D01*
X6237842Y-10959250D01*
X6237847Y-10959253D01*
X6344303Y-10990511D01*
X6375935Y-10999799D01*
X6375936Y-10999799D01*
X6375939Y-10999800D01*
X6375941Y-10999800D01*
X6482421Y-10999800D01*
X6540612Y-11018707D01*
X6552425Y-11028796D01*
X7604404Y-12080775D01*
X7632181Y-12135292D01*
X7633400Y-12150779D01*
X7633400Y-15744805D01*
X7614493Y-15802996D01*
X7607158Y-15810989D01*
X7607409Y-15811206D01*
X7508522Y-15925328D01*
X7448734Y-16056243D01*
X7428253Y-16198697D01*
X7428253Y-16198702D01*
X7448734Y-16341156D01*
X7508522Y-16472071D01*
X7508523Y-16472073D01*
X7602772Y-16580843D01*
X7602773Y-16580844D01*
X7723842Y-16658650D01*
X7723847Y-16658653D01*
X7830303Y-16689911D01*
X7861935Y-16699199D01*
X7861936Y-16699199D01*
X7861939Y-16699200D01*
X7861941Y-16699200D01*
X8005859Y-16699200D01*
X8005861Y-16699200D01*
X8143953Y-16658653D01*
X8265028Y-16580843D01*
X8359277Y-16472073D01*
X8419065Y-16341157D01*
X8437801Y-16210843D01*
X8439547Y-16198702D01*
X8439547Y-16198697D01*
X8419065Y-16056243D01*
X8396286Y-16006364D01*
X8359277Y-15925327D01*
X8265028Y-15816557D01*
X8265027Y-15816556D01*
X8260391Y-15811206D01*
X8262424Y-15809443D01*
X8236967Y-15767205D01*
X8234400Y-15744805D01*
X8234400Y-12050468D01*
X8236631Y-12036795D01*
X8235405Y-12036624D01*
X8236673Y-12027532D01*
X8234506Y-11980657D01*
X8234400Y-11976085D01*
X8234400Y-11957460D01*
X8234400Y-11957456D01*
X8234378Y-11957342D01*
X8232798Y-11943730D01*
X8231485Y-11915308D01*
X8227514Y-11906316D01*
X8220764Y-11884514D01*
X8218961Y-11874868D01*
X8218961Y-11874867D01*
X8203985Y-11850679D01*
X8197597Y-11838560D01*
X8190425Y-11822316D01*
X8186106Y-11812534D01*
X8186105Y-11812533D01*
X8186104Y-11812531D01*
X8179154Y-11805581D01*
X8164988Y-11787695D01*
X8159821Y-11779350D01*
X8159819Y-11779348D01*
X8137125Y-11762210D01*
X8126783Y-11753211D01*
X7555418Y-11181846D01*
X6978445Y-10604874D01*
X6950669Y-10550358D01*
X6950458Y-10520782D01*
X6953547Y-10499300D01*
X6933065Y-10356843D01*
X6873277Y-10225927D01*
X6779028Y-10117157D01*
X6779027Y-10117156D01*
X6779026Y-10117155D01*
X6657957Y-10039349D01*
X6657954Y-10039347D01*
X6657953Y-10039347D01*
X6657950Y-10039346D01*
X6519864Y-9998800D01*
X6519861Y-9998800D01*
X6375939Y-9998800D01*
X6375935Y-9998800D01*
X6237849Y-10039346D01*
X6237842Y-10039349D01*
X6116773Y-10117155D01*
X6022522Y-10225928D01*
X5962734Y-10356843D01*
X5942253Y-10499297D01*
X5942253Y-10499302D01*
X2604844Y-10499302D01*
X2645300Y-10365934D01*
X2645301Y-10365929D01*
X2665583Y-10160003D01*
X2665583Y-10159996D01*
X2645301Y-9954070D01*
X2645300Y-9954065D01*
X2609657Y-9836567D01*
X2585232Y-9756046D01*
X2487685Y-9573550D01*
X2471589Y-9553937D01*
X2356414Y-9413595D01*
X2356410Y-9413590D01*
X2322789Y-9385998D01*
X2196452Y-9282316D01*
X2013954Y-9184768D01*
X1815934Y-9124699D01*
X1815929Y-9124698D01*
X1610003Y-9104417D01*
X1609997Y-9104417D01*
X1404070Y-9124698D01*
X1404065Y-9124699D01*
X1206045Y-9184768D01*
X1023547Y-9282316D01*
X863595Y-9413585D01*
X863585Y-9413595D01*
X732316Y-9573547D01*
X634768Y-9756045D01*
X574699Y-9954065D01*
X574698Y-9954070D01*
X554417Y-10159996D01*
X554417Y-10160003D01*
X300500Y-10160003D01*
X300500Y-7620003D01*
X554417Y-7620003D01*
X574698Y-7825929D01*
X574699Y-7825934D01*
X634768Y-8023954D01*
X732316Y-8206452D01*
X863585Y-8366404D01*
X863590Y-8366410D01*
X863595Y-8366414D01*
X1023547Y-8497683D01*
X1023548Y-8497683D01*
X1023550Y-8497685D01*
X1206046Y-8595232D01*
X1309500Y-8626614D01*
X1404065Y-8655300D01*
X1404070Y-8655301D01*
X1609997Y-8675583D01*
X1610000Y-8675583D01*
X1610003Y-8675583D01*
X1815929Y-8655301D01*
X1815934Y-8655300D01*
X2013954Y-8595232D01*
X2196450Y-8497685D01*
X2356410Y-8366410D01*
X2369876Y-8350002D01*
X3844867Y-8350002D01*
X3863302Y-8478225D01*
X3896080Y-8549997D01*
X3917118Y-8596063D01*
X3988311Y-8678225D01*
X4001952Y-8693968D01*
X4103023Y-8758922D01*
X4110931Y-8764004D01*
X4235228Y-8800500D01*
X4235230Y-8800500D01*
X4364770Y-8800500D01*
X4364772Y-8800500D01*
X4489069Y-8764004D01*
X4598049Y-8693967D01*
X4682882Y-8596063D01*
X4736697Y-8478226D01*
X4752774Y-8366410D01*
X4755133Y-8350002D01*
X4755133Y-8349997D01*
X4736697Y-8221774D01*
X4720358Y-8185998D01*
X4682882Y-8103937D01*
X4598049Y-8006033D01*
X4598048Y-8006032D01*
X4598047Y-8006031D01*
X4489073Y-7935998D01*
X4489070Y-7935996D01*
X4489069Y-7935996D01*
X4489066Y-7935995D01*
X4364774Y-7899500D01*
X4364772Y-7899500D01*
X4235228Y-7899500D01*
X4235225Y-7899500D01*
X4110933Y-7935995D01*
X4110926Y-7935998D01*
X4001952Y-8006031D01*
X3917117Y-8103938D01*
X3863302Y-8221774D01*
X3844867Y-8349997D01*
X3844867Y-8350002D01*
X2369876Y-8350002D01*
X2487685Y-8206450D01*
X2585232Y-8023954D01*
X2645300Y-7825934D01*
X2645301Y-7825929D01*
X2665583Y-7620003D01*
X2665583Y-7619996D01*
X2645301Y-7414070D01*
X2645300Y-7414065D01*
X2621524Y-7335686D01*
X2585232Y-7216046D01*
X2487685Y-7033550D01*
X2462778Y-7003201D01*
X2356414Y-6873595D01*
X2356410Y-6873590D01*
X2315785Y-6840250D01*
X2234669Y-6773680D01*
X5430000Y-6773680D01*
X5445248Y-6904141D01*
X5445250Y-6904146D01*
X5505212Y-7068889D01*
X5505217Y-7068899D01*
X5601550Y-7215367D01*
X5601555Y-7215372D01*
X5729080Y-7335686D01*
X5729080Y-7335687D01*
X5880917Y-7423349D01*
X6030000Y-7467981D01*
X6030000Y-6992657D01*
X6043962Y-7003201D01*
X6151840Y-7033895D01*
X6263521Y-7023546D01*
X6330000Y-6990443D01*
X6330000Y-7465121D01*
X6396562Y-7453385D01*
X6396568Y-7453383D01*
X6557547Y-7383943D01*
X6557556Y-7383938D01*
X6698184Y-7279244D01*
X6698186Y-7279242D01*
X6810880Y-7144940D01*
X6889567Y-6988262D01*
X6889567Y-6988261D01*
X6930000Y-6817659D01*
X6930000Y-6330001D01*
X6929999Y-6330000D01*
X6480000Y-6330000D01*
X6480000Y-6030000D01*
X6929999Y-6030000D01*
X6930000Y-6029999D01*
X6930000Y-5886138D01*
X6948907Y-5827947D01*
X6998407Y-5791983D01*
X7059593Y-5791983D01*
X7109093Y-5827947D01*
X7116893Y-5840579D01*
X7176646Y-5955895D01*
X7275245Y-6061469D01*
X7398672Y-6136526D01*
X7537772Y-6175500D01*
X7537773Y-6175500D01*
X7645943Y-6175500D01*
X7645949Y-6175500D01*
X7753111Y-6160771D01*
X7885609Y-6103219D01*
X7997665Y-6012054D01*
X8080971Y-5894037D01*
X8129346Y-5757921D01*
X8139204Y-5613801D01*
X8133493Y-5586319D01*
X8109815Y-5472371D01*
X8109813Y-5472363D01*
X8043355Y-5344107D01*
X8043353Y-5344104D01*
X7989022Y-5285929D01*
X7944755Y-5238531D01*
X7944754Y-5238530D01*
X7821328Y-5163474D01*
X7682228Y-5124500D01*
X7574051Y-5124500D01*
X7466888Y-5139228D01*
X7334389Y-5196781D01*
X7222334Y-5287945D01*
X7139029Y-5405962D01*
X7108156Y-5492832D01*
X7070853Y-5541331D01*
X7012168Y-5558642D01*
X6954515Y-5538152D01*
X6919917Y-5487689D01*
X6916541Y-5471172D01*
X6914751Y-5455858D01*
X6914749Y-5455853D01*
X6854787Y-5291110D01*
X6854782Y-5291100D01*
X6758449Y-5144632D01*
X6758444Y-5144627D01*
X6630919Y-5024313D01*
X6630919Y-5024312D01*
X6479081Y-4936650D01*
X6330000Y-4892017D01*
X6330000Y-5367342D01*
X6316038Y-5356799D01*
X6208160Y-5326105D01*
X6096479Y-5336454D01*
X6030000Y-5369556D01*
X6030000Y-4894878D01*
X6029999Y-4894877D01*
X5963434Y-4906615D01*
X5963430Y-4906616D01*
X5802452Y-4976056D01*
X5802443Y-4976061D01*
X5661815Y-5080755D01*
X5661813Y-5080757D01*
X5549119Y-5215059D01*
X5470432Y-5371737D01*
X5470432Y-5371738D01*
X5430000Y-5542340D01*
X5430000Y-6029999D01*
X5430001Y-6030000D01*
X5880000Y-6030000D01*
X5880000Y-6330000D01*
X5430001Y-6330000D01*
X5430000Y-6330001D01*
X5430000Y-6773680D01*
X2234669Y-6773680D01*
X2196452Y-6742316D01*
X2013954Y-6644768D01*
X1815934Y-6584699D01*
X1815929Y-6584698D01*
X1610003Y-6564417D01*
X1609997Y-6564417D01*
X1404070Y-6584698D01*
X1404065Y-6584699D01*
X1206045Y-6644768D01*
X1023547Y-6742316D01*
X863595Y-6873585D01*
X863585Y-6873595D01*
X732316Y-7033547D01*
X634768Y-7216045D01*
X574699Y-7414065D01*
X574698Y-7414070D01*
X554417Y-7619996D01*
X554417Y-7620003D01*
X300500Y-7620003D01*
X300500Y-5230000D01*
X519187Y-5230000D01*
X524097Y-5282989D01*
X579887Y-5479070D01*
X670750Y-5661548D01*
X670755Y-5661557D01*
X793608Y-5824240D01*
X944266Y-5961582D01*
X1117581Y-6068895D01*
X1117586Y-6068898D01*
X1307683Y-6142541D01*
X1459999Y-6171014D01*
X1460000Y-6171014D01*
X1460000Y-5561170D01*
X1467685Y-5564680D01*
X1574237Y-5580000D01*
X1645763Y-5580000D01*
X1752315Y-5564680D01*
X1760000Y-5561170D01*
X1760000Y-6171014D01*
X1912316Y-6142541D01*
X2102413Y-6068898D01*
X2102418Y-6068895D01*
X2275733Y-5961582D01*
X2426391Y-5824240D01*
X2549244Y-5661557D01*
X2549249Y-5661548D01*
X2640112Y-5479070D01*
X2695902Y-5282989D01*
X2700813Y-5230000D01*
X2087065Y-5230000D01*
X2110000Y-5151889D01*
X2110000Y-5008111D01*
X2087065Y-4930000D01*
X2700812Y-4930000D01*
X2695902Y-4877010D01*
X2640112Y-4680929D01*
X2549249Y-4498451D01*
X2549244Y-4498442D01*
X2426391Y-4335759D01*
X2275733Y-4198417D01*
X2102418Y-4091104D01*
X2102413Y-4091101D01*
X1912319Y-4017459D01*
X1912313Y-4017457D01*
X1760000Y-3988984D01*
X1760000Y-4598829D01*
X1752315Y-4595320D01*
X1645763Y-4580000D01*
X1574237Y-4580000D01*
X1467685Y-4595320D01*
X1460000Y-4598829D01*
X1460000Y-3988985D01*
X1459999Y-3988984D01*
X1307686Y-4017457D01*
X1307680Y-4017459D01*
X1117586Y-4091101D01*
X1117581Y-4091104D01*
X944266Y-4198417D01*
X793608Y-4335759D01*
X670755Y-4498442D01*
X670750Y-4498451D01*
X579887Y-4680929D01*
X524097Y-4877010D01*
X519187Y-4930000D01*
X1132935Y-4930000D01*
X1110000Y-5008111D01*
X1110000Y-5151889D01*
X1132935Y-5230000D01*
X519187Y-5230000D01*
X300500Y-5230000D01*
X300500Y-3409746D01*
X559500Y-3409746D01*
X559501Y-3409758D01*
X571132Y-3468227D01*
X571133Y-3468231D01*
X615448Y-3534552D01*
X681769Y-3578867D01*
X726231Y-3587711D01*
X740241Y-3590498D01*
X740246Y-3590498D01*
X740252Y-3590500D01*
X740253Y-3590500D01*
X2479747Y-3590500D01*
X2479748Y-3590500D01*
X2538231Y-3578867D01*
X2604552Y-3534552D01*
X2648867Y-3468231D01*
X2660500Y-3409748D01*
X2660500Y-2343680D01*
X5430000Y-2343680D01*
X5445248Y-2474141D01*
X5445250Y-2474146D01*
X5505212Y-2638889D01*
X5505217Y-2638899D01*
X5601550Y-2785367D01*
X5601555Y-2785372D01*
X5729080Y-2905686D01*
X5729080Y-2905687D01*
X5880917Y-2993349D01*
X6030000Y-3037981D01*
X6030000Y-2562657D01*
X6043962Y-2573201D01*
X6151840Y-2603895D01*
X6263521Y-2593546D01*
X6330000Y-2560443D01*
X6330000Y-3035121D01*
X6396562Y-3023385D01*
X6396568Y-3023383D01*
X6557547Y-2953943D01*
X6557556Y-2953938D01*
X6698184Y-2849244D01*
X6698186Y-2849242D01*
X6810880Y-2714940D01*
X6889567Y-2558262D01*
X6889567Y-2558261D01*
X6930000Y-2387659D01*
X6930000Y-2343680D01*
X14070000Y-2343680D01*
X14085248Y-2474141D01*
X14085250Y-2474146D01*
X14145212Y-2638889D01*
X14145217Y-2638899D01*
X14241550Y-2785367D01*
X14241555Y-2785372D01*
X14369080Y-2905686D01*
X14369080Y-2905687D01*
X14520917Y-2993349D01*
X14670000Y-3037981D01*
X14670000Y-2562657D01*
X14683962Y-2573201D01*
X14791840Y-2603895D01*
X14903521Y-2593546D01*
X14970000Y-2560443D01*
X14970000Y-3035121D01*
X15036562Y-3023385D01*
X15036568Y-3023383D01*
X15197547Y-2953943D01*
X15197556Y-2953938D01*
X15338184Y-2849244D01*
X15338186Y-2849242D01*
X15450880Y-2714940D01*
X15529567Y-2558262D01*
X15529567Y-2558261D01*
X15570000Y-2387659D01*
X15570000Y-2150001D01*
X15569999Y-2150000D01*
X15120000Y-2150000D01*
X15120000Y-1850000D01*
X15569999Y-1850000D01*
X15570000Y-1849999D01*
X15570000Y-1656319D01*
X15554751Y-1525858D01*
X15554749Y-1525853D01*
X15494787Y-1361110D01*
X15494782Y-1361100D01*
X15398449Y-1214632D01*
X15398444Y-1214627D01*
X15270919Y-1094313D01*
X15270919Y-1094312D01*
X15119081Y-1006650D01*
X14970000Y-962017D01*
X14970000Y-1437342D01*
X14956038Y-1426799D01*
X14848160Y-1396105D01*
X14736479Y-1406454D01*
X14670000Y-1439556D01*
X14670000Y-964878D01*
X14669999Y-964877D01*
X14603434Y-976615D01*
X14603430Y-976616D01*
X14442452Y-1046056D01*
X14442443Y-1046061D01*
X14301815Y-1150755D01*
X14301813Y-1150757D01*
X14189119Y-1285059D01*
X14110432Y-1441737D01*
X14110432Y-1441738D01*
X14070000Y-1612340D01*
X14070000Y-1849999D01*
X14070001Y-1850000D01*
X14520000Y-1850000D01*
X14520000Y-2150000D01*
X14070001Y-2150000D01*
X14070000Y-2150001D01*
X14070000Y-2343680D01*
X6930000Y-2343680D01*
X6930000Y-2150001D01*
X6929999Y-2150000D01*
X6480000Y-2150000D01*
X6480000Y-1850000D01*
X6929999Y-1850000D01*
X6930000Y-1849999D01*
X6930000Y-1656319D01*
X6914751Y-1525858D01*
X6914749Y-1525853D01*
X6854787Y-1361110D01*
X6854782Y-1361100D01*
X6758449Y-1214632D01*
X6758444Y-1214627D01*
X6630919Y-1094313D01*
X6630919Y-1094312D01*
X6479081Y-1006650D01*
X6330000Y-962017D01*
X6330000Y-1437342D01*
X6316038Y-1426799D01*
X6208160Y-1396105D01*
X6096479Y-1406454D01*
X6030000Y-1439556D01*
X6030000Y-964878D01*
X6029999Y-964877D01*
X5963434Y-976615D01*
X5963430Y-976616D01*
X5802452Y-1046056D01*
X5802443Y-1046061D01*
X5661815Y-1150755D01*
X5661813Y-1150757D01*
X5549119Y-1285059D01*
X5470432Y-1441737D01*
X5470432Y-1441738D01*
X5430000Y-1612340D01*
X5430000Y-1849999D01*
X5430001Y-1850000D01*
X5880000Y-1850000D01*
X5880000Y-2150000D01*
X5430001Y-2150000D01*
X5430000Y-2150001D01*
X5430000Y-2343680D01*
X2660500Y-2343680D01*
X2660500Y-1670252D01*
X2648867Y-1611769D01*
X2604552Y-1545448D01*
X2575234Y-1525858D01*
X2538233Y-1501134D01*
X2538231Y-1501133D01*
X2538228Y-1501132D01*
X2538227Y-1501132D01*
X2479758Y-1489501D01*
X2479748Y-1489500D01*
X740252Y-1489500D01*
X740251Y-1489500D01*
X740241Y-1489501D01*
X681772Y-1501132D01*
X681766Y-1501134D01*
X615451Y-1545445D01*
X615445Y-1545451D01*
X571134Y-1611766D01*
X571132Y-1611772D01*
X559501Y-1670241D01*
X559500Y-1670253D01*
X559500Y-3409746D01*
X300500Y-3409746D01*
X300500Y-1004861D01*
X300977Y-995157D01*
X312985Y-873237D01*
X316771Y-854203D01*
X350915Y-741645D01*
X358342Y-723714D01*
X413791Y-619977D01*
X424573Y-603841D01*
X499196Y-512912D01*
X512912Y-499196D01*
X603842Y-424571D01*
X619977Y-413791D01*
X723716Y-358340D01*
X741643Y-350915D01*
X854207Y-316770D01*
X873233Y-312985D01*
X995157Y-300976D01*
X1004861Y-300500D01*
X1047595Y-300500D01*
X19952405Y-300500D01*
X19995139Y-300500D01*
X20004842Y-300976D01*
G37*
%TD.AperFunction*%
%TD*%
M02*
