%TF.GenerationSoftware,KiCad,Pcbnew,7.0.11+dfsg-1build4*%
%TF.CreationDate,2026-09-26T07:37:13+00:00*%
%TF.ProjectId,trinketcore,7472696e-6b65-4746-936f-72652e6b6963,rev?*%
%TF.SameCoordinates,Original*%
%TF.FileFunction,Copper,L4,Bot*%
%TF.FilePolarity,Positive*%
%FSLAX46Y46*%
G04 Gerber Fmt 4.6, Leading zero omitted, Abs format (unit mm)*
G04 Created by KiCad (PCBNEW 7.0.11+dfsg-1build4) date 2026-09-26 07:37:13*
%MOMM*%
%LPD*%
G01*
G04 APERTURE LIST*
G04 Aperture macros list*
%AMRoundRect*
0 Rectangle with rounded corners*
0 $1 Rounding radius*
0 $2 $3 $4 $5 $6 $7 $8 $9 X,Y pos of 4 corners*
0 Add a 4 corners polygon primitive as box body*
4,1,4,$2,$3,$4,$5,$6,$7,$8,$9,$2,$3,0*
0 Add four circle primitives for the rounded corners*
1,1,$1+$1,$2,$3*
1,1,$1+$1,$4,$5*
1,1,$1+$1,$6,$7*
1,1,$1+$1,$8,$9*
0 Add four rect primitives between the rounded corners*
20,1,$1+$1,$2,$3,$4,$5,0*
20,1,$1+$1,$4,$5,$6,$7,0*
20,1,$1+$1,$6,$7,$8,$9,0*
20,1,$1+$1,$8,$9,$2,$3,0*%
G04 Aperture macros list end*
%TA.AperFunction,ComponentPad*%
%ADD10R,1.700000X1.700000*%
%TD*%
%TA.AperFunction,ComponentPad*%
%ADD11O,1.700000X1.700000*%
%TD*%
%TA.AperFunction,ComponentPad*%
%ADD12R,1.800000X1.800000*%
%TD*%
%TA.AperFunction,ComponentPad*%
%ADD13R,1.600000X1.600000*%
%TD*%
%TA.AperFunction,ComponentPad*%
%ADD14C,1.600000*%
%TD*%
%TA.AperFunction,ComponentPad*%
%ADD15C,1.800000*%
%TD*%
%TA.AperFunction,ComponentPad*%
%ADD16C,0.600000*%
%TD*%
%TA.AperFunction,ComponentPad*%
%ADD17O,1.000000X2.100000*%
%TD*%
%TA.AperFunction,ComponentPad*%
%ADD18O,1.000000X1.600000*%
%TD*%
%TA.AperFunction,ComponentPad*%
%ADD19RoundRect,0.250000X-0.625000X0.350000X-0.625000X-0.350000X0.625000X-0.350000X0.625000X0.350000X0*%
%TD*%
%TA.AperFunction,ComponentPad*%
%ADD20O,1.750000X1.200000*%
%TD*%
%TA.AperFunction,ViaPad*%
%ADD21C,0.600000*%
%TD*%
%TA.AperFunction,Conductor*%
%ADD22C,0.400000*%
%TD*%
%TA.AperFunction,Conductor*%
%ADD23C,0.150000*%
%TD*%
%TA.AperFunction,Conductor*%
%ADD24C,0.500000*%
%TD*%
G04 APERTURE END LIST*
D10*
%TO.P,J6,1*%
%TO.N,GP7*%
X38000000Y44000000D03*
D11*
%TO.P,J6,2*%
%TO.N,GP6*%
X38000000Y41460000D03*
%TO.P,J6,3*%
%TO.N,GP5*%
X38000000Y38920000D03*
%TO.P,J6,4*%
%TO.N,GP4*%
X38000000Y36380000D03*
%TO.P,J6,5*%
%TO.N,GP3*%
X38000000Y33840000D03*
%TO.P,J6,6*%
%TO.N,GP2*%
X38000000Y31300000D03*
%TO.P,J6,7*%
%TO.N,GP1*%
X38000000Y28760000D03*
%TO.P,J6,8*%
%TO.N,GP0*%
X38000000Y26220000D03*
%TO.P,J6,9*%
%TO.N,GP29*%
X38000000Y23680000D03*
%TO.P,J6,10*%
%TO.N,GP28*%
X38000000Y21140000D03*
%TO.P,J6,11*%
%TO.N,WAKE*%
X38000000Y18600000D03*
%TO.P,J6,12*%
%TO.N,VSYS*%
X38000000Y16060000D03*
%TO.P,J6,13*%
%TO.N,3V3*%
X38000000Y13520000D03*
%TO.P,J6,14*%
%TO.N,GND*%
X38000000Y10980000D03*
%TD*%
D12*
%TO.P,BT1,1*%
%TO.N,VCAP*%
X5000000Y49000000D03*
D13*
X2000000Y49000000D03*
D14*
%TO.P,BT1,2*%
%TO.N,GND*%
X2000000Y45500000D03*
D15*
X5000000Y44000000D03*
%TD*%
D12*
%TO.P,BT2,1*%
%TO.N,VCAP*%
X5000000Y32000000D03*
D13*
X2000000Y32000000D03*
D14*
%TO.P,BT2,2*%
%TO.N,GND*%
X2000000Y28500000D03*
D15*
X5000000Y27000000D03*
%TD*%
D16*
%TO.P,U8,17*%
%TO.N,GND*%
X10300000Y19600000D03*
%TD*%
D17*
%TO.P,J1,S1*%
%TO.N,GND*%
X15680000Y6180000D03*
D18*
X15680000Y2000000D03*
D17*
X24320000Y6180000D03*
D18*
X24320000Y2000000D03*
%TD*%
D16*
%TO.P,U6,57*%
%TO.N,GND*%
X19500000Y43600000D03*
X20600000Y42500000D03*
X19500000Y42500000D03*
X18400000Y42500000D03*
X19500000Y41400000D03*
%TD*%
D19*
%TO.P,J7,1*%
%TO.N,SPK_P*%
X3500000Y20500000D03*
D20*
%TO.P,J7,2*%
%TO.N,SPK_N*%
X3500000Y18500000D03*
%TD*%
D10*
%TO.P,J5,1*%
%TO.N,GND*%
X16190000Y54200000D03*
D11*
%TO.P,J5,2*%
%TO.N,3V3*%
X18730000Y54200000D03*
%TO.P,J5,3*%
%TO.N,SCL*%
X21270000Y54200000D03*
%TO.P,J5,4*%
%TO.N,SDA*%
X23810000Y54200000D03*
%TD*%
D10*
%TO.P,J4,1*%
%TO.N,GND*%
X11110000Y58000000D03*
D11*
%TO.P,J4,2*%
%TO.N,3V3*%
X13650000Y58000000D03*
%TO.P,J4,3*%
%TO.N,TFT_SCK*%
X16190000Y58000000D03*
%TO.P,J4,4*%
%TO.N,TFT_MOSI*%
X18730000Y58000000D03*
%TO.P,J4,5*%
%TO.N,TFT_RST*%
X21270000Y58000000D03*
%TO.P,J4,6*%
%TO.N,TFT_DC*%
X23810000Y58000000D03*
%TO.P,J4,7*%
%TO.N,TFT_CS*%
X26350000Y58000000D03*
%TO.P,J4,8*%
%TO.N,TFT_BL*%
X28890000Y58000000D03*
%TD*%
D16*
%TO.P,U4,11*%
%TO.N,GND*%
X30500000Y20250000D03*
X30500000Y19600000D03*
X30500000Y18950000D03*
%TD*%
%TO.P,U2,9*%
%TO.N,GND*%
X10500000Y14500000D03*
X10500000Y13500000D03*
%TD*%
D21*
%TO.N,GND*%
X21462500Y24050000D03*
X26080000Y40100000D03*
X26080000Y38100000D03*
X8700000Y1250000D03*
X8362500Y24750000D03*
X13118826Y31086149D03*
X14399999Y22700000D03*
X9300000Y39780000D03*
X19712500Y11200000D03*
X27299999Y28475001D03*
X32549999Y35800000D03*
X10479999Y22600000D03*
X13300000Y27580001D03*
X33200000Y27680000D03*
X29019114Y28070556D03*
X13464222Y45228241D03*
X33900000Y17220000D03*
X11362500Y5150000D03*
X12549999Y16250000D03*
X19000000Y30980000D03*
X13120000Y41100000D03*
X17818826Y30986149D03*
X16862500Y33200000D03*
X30350000Y23750000D03*
X19118826Y27586149D03*
X34405885Y46629445D03*
X16618826Y10986149D03*
X9110000Y12000000D03*
X22100000Y36020000D03*
X15462499Y24750000D03*
X14250000Y13225000D03*
X32549999Y39400000D03*
X29387500Y1700000D03*
X30636827Y17613173D03*
X15200000Y49580000D03*
X37900000Y1250000D03*
X34650000Y19920000D03*
X9000000Y46580000D03*
X26080000Y39100000D03*
X23622182Y37857818D03*
X24880000Y47100000D03*
X22618826Y10986149D03*
X34194114Y50175556D03*
X12400000Y38720001D03*
X35650000Y14410000D03*
X8556614Y28225556D03*
X18500000Y36020000D03*
X9735777Y43028241D03*
X26150000Y37080000D03*
X13300000Y34580000D03*
X33800000Y15080001D03*
X24918826Y28886150D03*
X16912500Y43500000D03*
%TO.N,VBUS*%
X8090000Y9870900D03*
X10849300Y27633800D03*
X15400000Y9297900D03*
X23588300Y8851400D03*
%TO.N,DP*%
X19750000Y9569600D03*
X19472800Y12875100D03*
X20971000Y8335700D03*
%TO.N,USB_DP*%
X22232700Y15007400D03*
X21682500Y42192400D03*
%TO.N,USB_DM*%
X25102100Y41561400D03*
X19743300Y24102600D03*
X21358000Y15368000D03*
X25979500Y31064900D03*
%TO.N,PG_N*%
X16455700Y14559000D03*
X11011200Y11850000D03*
%TO.N,VCAP*%
X12082800Y9569800D03*
X13350000Y15750000D03*
%TO.N,LED_A*%
X14000000Y8100000D03*
X11900000Y4400000D03*
%TO.N,CHG*%
X19505700Y34723700D03*
X20854400Y16693000D03*
%TO.N,USB_DET*%
X20497000Y35356500D03*
X17564000Y20277700D03*
%TO.N,VAON*%
X20314500Y28847400D03*
X29994300Y25198100D03*
X8976500Y33400000D03*
X13484000Y25111600D03*
X20369000Y21912200D03*
%TO.N,UVLO_OK*%
X14413500Y31855400D03*
X11774600Y27873800D03*
%TO.N,SENSE*%
X19205600Y32866000D03*
X16732300Y31337000D03*
%TO.N,SHIP*%
X15462500Y26439100D03*
X9730300Y44299800D03*
%TO.N,VSYS*%
X28648900Y18000100D03*
X23900400Y31006900D03*
%TO.N,HOLD*%
X20748900Y40135300D03*
X25100000Y23704600D03*
X18404400Y23303700D03*
%TO.N,WAKE_N*%
X16400000Y16771700D03*
X20584700Y23563200D03*
X2100000Y6869300D03*
X27510300Y29478900D03*
%TO.N,WAKE*%
X18140900Y18482200D03*
%TO.N,BTN*%
X19402100Y40122000D03*
X16200200Y23597700D03*
%TO.N,3V3*%
X12475000Y34940674D03*
X33900000Y21580001D03*
X32549999Y21850000D03*
X22600000Y45937500D03*
X35200000Y51900000D03*
X8120000Y22600000D03*
X22600000Y39062500D03*
X16912500Y42300000D03*
X18500000Y39912500D03*
X9300000Y37420000D03*
X23787500Y41900000D03*
X30283429Y21175001D03*
X9000000Y21037500D03*
X24400000Y35420000D03*
X15200000Y47220000D03*
X12363172Y21886828D03*
X25400000Y35420000D03*
X23770480Y39725000D03*
X22520000Y47100000D03*
X34581173Y25313852D03*
X22116463Y40080004D03*
X32405320Y21000000D03*
X18500000Y45087500D03*
X27000000Y39020000D03*
X27594114Y41370556D03*
%TO.N,VSENSE*%
X23219700Y32098400D03*
X34788400Y17783700D03*
%TO.N,SDA*%
X34936300Y28040400D03*
X35351200Y31311900D03*
X15092000Y38706000D03*
%TO.N,SCL*%
X34000000Y54723000D03*
X15669000Y39285900D03*
%TO.N,GP0*%
X21700000Y44845500D03*
%TO.N,GP1*%
X21300000Y46879800D03*
%TO.N,GP2*%
X20491100Y46893300D03*
%TO.N,GP3*%
X21733300Y43482400D03*
%TO.N,GP4*%
X27186100Y47548300D03*
X26197200Y43997900D03*
%TO.N,GP5*%
X19700000Y44991200D03*
%TO.N,GP6*%
X26366100Y48203700D03*
%TO.N,GP7*%
X18962000Y47188600D03*
%TO.N,TFT_MOSI*%
X17104300Y47798100D03*
%TO.N,TFT_RST*%
X16688700Y50124700D03*
%TO.N,TFT_BLG*%
X16726800Y49144200D03*
X17020000Y44607200D03*
X28092900Y53671200D03*
%TO.N,BTN_B*%
X12747700Y19764500D03*
X30336500Y6813500D03*
X14939400Y44486700D03*
%TO.N,XOUT*%
X14900000Y42250000D03*
X15550000Y46100000D03*
%TO.N,1V1*%
X22835300Y35454900D03*
X14977700Y37010700D03*
X27449000Y34508200D03*
X28665600Y40753100D03*
X28232500Y37858600D03*
X23625100Y38791400D03*
%TO.N,RUN*%
X14999800Y37888700D03*
X27192000Y36547200D03*
X27192000Y32652400D03*
%TO.N,I2S_DIN*%
X12664900Y18838000D03*
X16853300Y37301200D03*
X17693100Y24744500D03*
%TO.N,I2S_BCLK*%
X14052700Y18527600D03*
X9852400Y35402400D03*
X14319000Y23626100D03*
%TO.N,I2S_LRCLK*%
X15462500Y19724100D03*
X17442900Y40405800D03*
%TO.N,AMP_EN*%
X16938800Y23202200D03*
X17875100Y35312500D03*
%TO.N,USER_LED*%
X24815900Y9005000D03*
X20278000Y27443200D03*
X20333200Y37987000D03*
%TO.N,GP28*%
X21629500Y41377400D03*
X36517100Y27731500D03*
%TO.N,GP29*%
X21653800Y35211600D03*
%TO.N,QSPI_SD1*%
X23958200Y44894600D03*
X32682600Y43555100D03*
%TD*%
D22*
%TO.N,VBUS*%
X10849300Y27633800D02*
X10849300Y24338700D01*
X8871600Y21901700D02*
X8090000Y21120100D01*
X8090000Y21120100D02*
X8090000Y9870900D01*
X10849300Y24338700D02*
X8871600Y22361000D01*
X8871600Y22361000D02*
X8871600Y21901700D01*
D23*
%TO.N,DP*%
X20971000Y8348600D02*
X20971000Y8335700D01*
X19750000Y9569600D02*
X20971000Y8348600D01*
%TO.N,USB_DP*%
X22232700Y32652700D02*
X22232700Y15007400D01*
X24385700Y42163900D02*
X24385700Y36439400D01*
X21968000Y42477900D02*
X24071700Y42477900D01*
X21682500Y42192400D02*
X21968000Y42477900D01*
X23501100Y35554800D02*
X23501100Y33921100D01*
X24071700Y42477900D02*
X24385700Y42163900D01*
X23501100Y33921100D02*
X22232700Y32652700D01*
X24385700Y36439400D02*
X23501100Y35554800D01*
%TO.N,USB_DM*%
X25979500Y36273900D02*
X25979500Y31064900D01*
X25102100Y37151300D02*
X25979500Y36273900D01*
X21358000Y15368000D02*
X19743300Y16982700D01*
X25102100Y41561400D02*
X25102100Y37151300D01*
X19743300Y16982700D02*
X19743300Y24102600D01*
D24*
%TO.N,VCAP*%
X12082800Y9569800D02*
X12082800Y14482800D01*
X12082800Y14482800D02*
X13350000Y15750000D01*
D23*
%TO.N,USB_DET*%
X19699600Y26593100D02*
X19699600Y31409400D01*
X17564000Y20277700D02*
X19021600Y21735300D01*
X18669800Y23854200D02*
X18669800Y25563300D01*
X19021600Y21735300D02*
X19021600Y23502400D01*
X18669800Y25563300D02*
X19699600Y26593100D01*
X19021600Y23502400D02*
X18669800Y23854200D01*
X20497000Y32206800D02*
X20497000Y35356500D01*
X19699600Y31409400D02*
X20497000Y32206800D01*
D22*
%TO.N,VSYS*%
X23900400Y22748600D02*
X23900400Y31006900D01*
X28648900Y18000100D02*
X23900400Y22748600D01*
D23*
%TO.N,HOLD*%
X20960200Y36994000D02*
X20960200Y39924000D01*
X18272900Y23435200D02*
X18272900Y25737900D01*
X18272900Y25737900D02*
X18398300Y25863300D01*
X20960200Y39924000D02*
X20748900Y40135300D01*
X18398300Y34432100D02*
X20960200Y36994000D01*
X18398300Y25863300D02*
X18398300Y34432100D01*
X18404400Y23303700D02*
X18272900Y23435200D01*
%TO.N,BTN*%
X16200200Y23597700D02*
X16146400Y23651500D01*
X17973300Y33395400D02*
X17973300Y34504800D01*
X16146400Y23651500D02*
X16146400Y31568500D01*
X17973300Y34504800D02*
X19402100Y35933600D01*
X16146400Y31568500D02*
X17973300Y33395400D01*
X19402100Y35933600D02*
X19402100Y40122000D01*
D22*
%TO.N,3V3*%
X12363200Y28277800D02*
X12363200Y34828900D01*
X22600000Y40712500D02*
X22600000Y39062500D01*
X33982700Y21580000D02*
X33900000Y21580000D01*
X12363200Y21886800D02*
X12476500Y22000100D01*
X37452200Y14771900D02*
X36748100Y15476000D01*
X12476500Y28164500D02*
X12363200Y28277800D01*
X12363200Y34828900D02*
X12475000Y34940700D01*
X23787500Y41900000D02*
X22600000Y40712500D01*
X36748100Y15476000D02*
X36748100Y18814600D01*
X38000000Y13520000D02*
X38000000Y14771900D01*
X12476500Y22000100D02*
X12476500Y28164500D01*
X36748100Y18814600D02*
X33982700Y21580000D01*
X38000000Y14771900D02*
X37452200Y14771900D01*
D23*
%TO.N,VSENSE*%
X23696700Y32098400D02*
X26381000Y29414100D01*
X23219700Y32098400D02*
X23696700Y32098400D01*
X26381000Y26191100D02*
X34788400Y17783700D01*
X26381000Y29414100D02*
X26381000Y26191100D01*
%TO.N,SCL*%
X21270000Y54200000D02*
X21270000Y51211100D01*
X15669000Y39964000D02*
X15669000Y39285900D01*
X21270000Y51211100D02*
X17706000Y47647100D01*
X17706000Y47647100D02*
X17706000Y42001000D01*
X17706000Y42001000D02*
X15669000Y39964000D01*
%TO.N,GP2*%
X22202000Y45301700D02*
X36203700Y31300000D01*
X36203700Y31300000D02*
X38000000Y31300000D01*
X20491100Y46893300D02*
X20491100Y46872500D01*
X20491100Y46872500D02*
X22061900Y45301700D01*
X22061900Y45301700D02*
X22202000Y45301700D01*
%TO.N,GP4*%
X26197200Y46559400D02*
X27186100Y47548300D01*
X26197200Y43997900D02*
X26197200Y46559400D01*
%TO.N,TFT_MOSI*%
X18730000Y56873100D02*
X17603100Y55746200D01*
X17603100Y48296900D02*
X17104300Y47798100D01*
X18730000Y58000000D02*
X18730000Y56873100D01*
X17603100Y55746200D02*
X17603100Y48296900D01*
%TO.N,TFT_BLG*%
X16527400Y45099800D02*
X17020000Y44607200D01*
X16726800Y49144200D02*
X16527400Y48944800D01*
X16527400Y48944800D02*
X16527400Y45099800D01*
%TO.N,BTN_B*%
X14298800Y43846100D02*
X14939400Y44486700D01*
X14298800Y35818600D02*
X14298800Y43846100D01*
X15027500Y30826100D02*
X15027500Y35089900D01*
X14192700Y29991300D02*
X15027500Y30826100D01*
X15027500Y35089900D02*
X14298800Y35818600D01*
X13138400Y23936600D02*
X14192700Y24990900D01*
X13138400Y20155200D02*
X13138400Y23936600D01*
X12747700Y19764500D02*
X13138400Y20155200D01*
X14192700Y24990900D02*
X14192700Y29991300D01*
%TO.N,1V1*%
X28232500Y37858600D02*
X28232500Y35291700D01*
X28232500Y35291700D02*
X27449000Y34508200D01*
X23625100Y38791400D02*
X22841300Y38007600D01*
X22835300Y38007600D02*
X21460400Y39382500D01*
X17200800Y40989200D02*
X16494400Y40282800D01*
X21460400Y39382500D02*
X21460400Y40248000D01*
X22835300Y38007600D02*
X22835300Y35454900D01*
X21460400Y40248000D02*
X20974700Y40733700D01*
X20974700Y40733700D02*
X17996700Y40733700D01*
X16494400Y40282800D02*
X16494400Y38527400D01*
X16494400Y38527400D02*
X14977700Y37010700D01*
X17996700Y40733700D02*
X17741200Y40989200D01*
X17741200Y40989200D02*
X17200800Y40989200D01*
X22841300Y38007600D02*
X22835300Y38007600D01*
%TO.N,RUN*%
X27192000Y36547200D02*
X26872100Y36227300D01*
X26872100Y36227300D02*
X26872100Y32972300D01*
X26872100Y32972300D02*
X27192000Y32652400D01*
%TO.N,I2S_DIN*%
X16039400Y19485100D02*
X16039400Y19666400D01*
X16039400Y19666400D02*
X17693100Y21320100D01*
X17693100Y21320100D02*
X17693100Y24744500D01*
X14501400Y17947100D02*
X16039400Y19485100D01*
X12664900Y18838000D02*
X13555800Y17947100D01*
X13555800Y17947100D02*
X14501400Y17947100D01*
%TO.N,I2S_BCLK*%
X14052700Y18527600D02*
X13793200Y18787100D01*
X13793200Y23100300D02*
X14319000Y23626100D01*
X13793200Y18787100D02*
X13793200Y23100300D01*
%TO.N,I2S_LRCLK*%
X14859600Y24124600D02*
X14859600Y29800900D01*
X15656600Y30597900D02*
X15656600Y36929200D01*
X15656600Y36929200D02*
X17442900Y38715500D01*
X14859600Y29800900D02*
X15656600Y30597900D01*
X17442900Y38715500D02*
X17442900Y40405800D01*
X15462500Y23521700D02*
X14859600Y24124600D01*
X15462500Y19724100D02*
X15462500Y23521700D01*
%TO.N,USER_LED*%
X19109100Y25403700D02*
X20278000Y26572600D01*
X24815900Y9005000D02*
X24815900Y10529000D01*
X19109100Y23912600D02*
X19109100Y25403700D01*
X24815900Y10529000D02*
X19373500Y15971400D01*
X19373500Y23648200D02*
X19109100Y23912600D01*
X20278000Y26572600D02*
X20278000Y27443200D01*
X19373500Y15971400D02*
X19373500Y23648200D01*
%TD*%
%TA.AperFunction,Conductor*%
%TO.N,GND*%
G36*
X21404704Y39048580D02*
G01*
X22530804Y37922480D01*
X22558581Y37867963D01*
X22559800Y37852476D01*
X22559800Y35926851D01*
X22540893Y35868660D01*
X22514324Y35843567D01*
X22504172Y35837043D01*
X22409922Y35728272D01*
X22350134Y35597357D01*
X22329653Y35454903D01*
X22329653Y35454898D01*
X22350134Y35312444D01*
X22408532Y35184572D01*
X22409923Y35181527D01*
X22495188Y35083125D01*
X22504173Y35072756D01*
X22614916Y35001586D01*
X22625247Y34994947D01*
X22731703Y34963689D01*
X22763335Y34954401D01*
X22763336Y34954401D01*
X22763339Y34954400D01*
X22763341Y34954400D01*
X22907259Y34954400D01*
X22907261Y34954400D01*
X23045353Y34994947D01*
X23073077Y35012765D01*
X23132251Y35028319D01*
X23189268Y35006120D01*
X23222347Y34954648D01*
X23225600Y34929480D01*
X23225600Y34076225D01*
X23206693Y34018034D01*
X23196604Y34006221D01*
X22063967Y32873585D01*
X22048969Y32861277D01*
X22034079Y32851327D01*
X22034076Y32851325D01*
X21973186Y32760199D01*
X21973186Y32760197D01*
X21973185Y32760195D01*
X21963001Y32708997D01*
X21957446Y32681069D01*
X21951803Y32652701D01*
X21955298Y32635131D01*
X21957200Y32615817D01*
X21957200Y15706200D01*
X21938293Y15648009D01*
X21888793Y15612045D01*
X21827607Y15612045D01*
X21783381Y15641369D01*
X21689129Y15750143D01*
X21689127Y15750144D01*
X21568057Y15827951D01*
X21568054Y15827953D01*
X21568053Y15827953D01*
X21568050Y15827954D01*
X21429964Y15868500D01*
X21429961Y15868500D01*
X21288124Y15868500D01*
X21229933Y15887407D01*
X21218120Y15897496D01*
X21040415Y16075201D01*
X21012638Y16129718D01*
X21022209Y16190150D01*
X21059585Y16227527D01*
X21058497Y16229219D01*
X21185526Y16310856D01*
X21185525Y16310856D01*
X21185528Y16310857D01*
X21279777Y16419627D01*
X21339565Y16550543D01*
X21360047Y16693000D01*
X21348731Y16771703D01*
X21339565Y16835457D01*
X21308258Y16904009D01*
X21279777Y16966373D01*
X21185528Y17075143D01*
X21185527Y17075144D01*
X21185526Y17075145D01*
X21064457Y17152951D01*
X21064454Y17152953D01*
X21064453Y17152953D01*
X21061422Y17153843D01*
X20926364Y17193500D01*
X20926361Y17193500D01*
X20782439Y17193500D01*
X20782435Y17193500D01*
X20644349Y17152954D01*
X20644342Y17152951D01*
X20523273Y17075145D01*
X20429021Y16966372D01*
X20400541Y16904009D01*
X20359168Y16858931D01*
X20299201Y16846781D01*
X20243546Y16872200D01*
X20240484Y16875132D01*
X20047796Y17067820D01*
X20020019Y17122337D01*
X20018800Y17137824D01*
X20018800Y21362204D01*
X20037707Y21420395D01*
X20087207Y21456359D01*
X20148393Y21456359D01*
X20158937Y21452253D01*
X20158939Y21452253D01*
X20158947Y21452247D01*
X20220356Y21434216D01*
X20297035Y21411701D01*
X20297036Y21411701D01*
X20297039Y21411700D01*
X20297041Y21411700D01*
X20440959Y21411700D01*
X20440961Y21411700D01*
X20579053Y21452247D01*
X20700128Y21530057D01*
X20794377Y21638827D01*
X20854165Y21769743D01*
X20868016Y21866079D01*
X20874647Y21912198D01*
X20874647Y21912203D01*
X20854165Y22054657D01*
X20825341Y22117771D01*
X20794377Y22185573D01*
X20700128Y22294343D01*
X20700127Y22294344D01*
X20700126Y22294345D01*
X20579057Y22372151D01*
X20579054Y22372153D01*
X20579053Y22372153D01*
X20579050Y22372154D01*
X20440964Y22412700D01*
X20440961Y22412700D01*
X20297039Y22412700D01*
X20297035Y22412700D01*
X20158946Y22372153D01*
X20158925Y22372143D01*
X20158905Y22372141D01*
X20152153Y22370158D01*
X20151809Y22371327D01*
X20098138Y22365169D01*
X20044862Y22395257D01*
X20019445Y22450913D01*
X20018800Y22462197D01*
X20018800Y23186570D01*
X20037707Y23244761D01*
X20087207Y23280725D01*
X20148393Y23280725D01*
X20192617Y23251403D01*
X20248795Y23186570D01*
X20253573Y23181056D01*
X20350933Y23118487D01*
X20374647Y23103247D01*
X20465815Y23076478D01*
X20512735Y23062701D01*
X20512736Y23062701D01*
X20512739Y23062700D01*
X20512741Y23062700D01*
X20656659Y23062700D01*
X20656661Y23062700D01*
X20794753Y23103247D01*
X20915828Y23181057D01*
X21010077Y23289827D01*
X21069865Y23420743D01*
X21084805Y23524655D01*
X21090347Y23563198D01*
X21090347Y23563203D01*
X21069865Y23705657D01*
X21054109Y23740157D01*
X21010077Y23836573D01*
X20915828Y23945343D01*
X20915827Y23945344D01*
X20915826Y23945345D01*
X20794757Y24023151D01*
X20794754Y24023153D01*
X20794753Y24023153D01*
X20788824Y24024894D01*
X20656664Y24063700D01*
X20656661Y24063700D01*
X20512739Y24063700D01*
X20512735Y24063700D01*
X20374622Y24023146D01*
X20313462Y24024894D01*
X20265009Y24062256D01*
X20248739Y24104047D01*
X20228465Y24245057D01*
X20168677Y24375972D01*
X20168677Y24375973D01*
X20074428Y24484743D01*
X20074427Y24484744D01*
X20074426Y24484745D01*
X19953357Y24562551D01*
X19953354Y24562553D01*
X19953353Y24562553D01*
X19953350Y24562554D01*
X19815264Y24603100D01*
X19815261Y24603100D01*
X19671339Y24603100D01*
X19671335Y24603100D01*
X19533249Y24562554D01*
X19526806Y24559611D01*
X19525698Y24562038D01*
X19477923Y24549492D01*
X19420913Y24571705D01*
X19387846Y24623185D01*
X19384600Y24648329D01*
X19384600Y25248577D01*
X19403507Y25306768D01*
X19413590Y25318575D01*
X20446733Y26351719D01*
X20461729Y26364025D01*
X20476624Y26373976D01*
X20505692Y26417478D01*
X20537515Y26465105D01*
X20558897Y26572600D01*
X20555402Y26590173D01*
X20553500Y26609485D01*
X20553500Y26971249D01*
X20572407Y27029440D01*
X20598978Y27054534D01*
X20600123Y27055271D01*
X20609128Y27061057D01*
X20703377Y27169827D01*
X20763165Y27300743D01*
X20779427Y27413850D01*
X20783647Y27443198D01*
X20783647Y27443203D01*
X20763165Y27585657D01*
X20752964Y27607993D01*
X20703377Y27716573D01*
X20609128Y27825343D01*
X20609127Y27825344D01*
X20609126Y27825345D01*
X20488057Y27903151D01*
X20488054Y27903153D01*
X20488053Y27903153D01*
X20488050Y27903154D01*
X20349964Y27943700D01*
X20349961Y27943700D01*
X20206039Y27943700D01*
X20206035Y27943700D01*
X20101991Y27913150D01*
X20040830Y27914898D01*
X19992378Y27952261D01*
X19975100Y28008140D01*
X19975100Y28293179D01*
X19994007Y28351370D01*
X20043507Y28387334D01*
X20101992Y28388169D01*
X20104443Y28387450D01*
X20104447Y28387447D01*
X20242539Y28346900D01*
X20242541Y28346900D01*
X20386459Y28346900D01*
X20386461Y28346900D01*
X20524553Y28387447D01*
X20645628Y28465257D01*
X20739877Y28574027D01*
X20799665Y28704943D01*
X20806492Y28752429D01*
X20820147Y28847398D01*
X20820147Y28847403D01*
X20799665Y28989857D01*
X20786380Y29018947D01*
X20739877Y29120773D01*
X20645628Y29229543D01*
X20645627Y29229544D01*
X20645626Y29229545D01*
X20524557Y29307351D01*
X20524554Y29307353D01*
X20524553Y29307353D01*
X20524550Y29307354D01*
X20386464Y29347900D01*
X20386461Y29347900D01*
X20242539Y29347900D01*
X20242535Y29347900D01*
X20101991Y29306632D01*
X20040831Y29308380D01*
X19992378Y29345742D01*
X19975100Y29401622D01*
X19975100Y31254277D01*
X19994007Y31312468D01*
X20004090Y31324275D01*
X20665733Y31985919D01*
X20680729Y31998225D01*
X20695624Y32008176D01*
X20721172Y32046410D01*
X20721176Y32046415D01*
X20723605Y32050052D01*
X20728471Y32057335D01*
X20756515Y32099305D01*
X20772500Y32179667D01*
X20772500Y32179668D01*
X20777897Y32206800D01*
X20774402Y32224373D01*
X20772500Y32243685D01*
X20772500Y34884549D01*
X20791407Y34942740D01*
X20817978Y34967834D01*
X20819123Y34968571D01*
X20828128Y34974357D01*
X20922377Y35083127D01*
X20968078Y35183200D01*
X21009449Y35228275D01*
X21069416Y35240426D01*
X21125072Y35215008D01*
X21155159Y35161731D01*
X21156123Y35156160D01*
X21168634Y35069144D01*
X21222926Y34950263D01*
X21228423Y34938227D01*
X21302662Y34852550D01*
X21322673Y34829456D01*
X21371282Y34798217D01*
X21443747Y34751647D01*
X21538917Y34723703D01*
X21581835Y34711101D01*
X21581836Y34711101D01*
X21581839Y34711100D01*
X21581841Y34711100D01*
X21725759Y34711100D01*
X21725761Y34711100D01*
X21863853Y34751647D01*
X21984928Y34829457D01*
X22079177Y34938227D01*
X22138965Y35069143D01*
X22155123Y35181527D01*
X22159447Y35211598D01*
X22159447Y35211603D01*
X22138965Y35354057D01*
X22124878Y35384903D01*
X22079177Y35484973D01*
X21984928Y35593743D01*
X21984927Y35593744D01*
X21984926Y35593745D01*
X21863857Y35671551D01*
X21863854Y35671553D01*
X21863853Y35671553D01*
X21863850Y35671554D01*
X21725764Y35712100D01*
X21725761Y35712100D01*
X21581839Y35712100D01*
X21581835Y35712100D01*
X21443749Y35671554D01*
X21443742Y35671551D01*
X21322673Y35593745D01*
X21228422Y35484972D01*
X21182721Y35384903D01*
X21141349Y35339826D01*
X21081382Y35327675D01*
X21025726Y35353093D01*
X20995640Y35406371D01*
X20994676Y35411942D01*
X20982166Y35498956D01*
X20931440Y35610028D01*
X20922377Y35629873D01*
X20828128Y35738643D01*
X20828127Y35738644D01*
X20828126Y35738645D01*
X20707057Y35816451D01*
X20707054Y35816453D01*
X20707053Y35816453D01*
X20699741Y35818600D01*
X20568964Y35857000D01*
X20568961Y35857000D01*
X20451823Y35857000D01*
X20393632Y35875907D01*
X20357668Y35925407D01*
X20357668Y35986593D01*
X20381819Y36026004D01*
X20737210Y36381395D01*
X21128933Y36773119D01*
X21143929Y36785425D01*
X21158824Y36795376D01*
X21175661Y36820573D01*
X21202074Y36860104D01*
X21219715Y36886505D01*
X21235700Y36966867D01*
X21235700Y36966868D01*
X21241097Y36994000D01*
X21237602Y37011573D01*
X21235700Y37030885D01*
X21235700Y38978576D01*
X21254607Y39036767D01*
X21304107Y39072731D01*
X21365293Y39072731D01*
X21404704Y39048580D01*
G37*
%TD.AperFunction*%
%TA.AperFunction,Conductor*%
G36*
X14956252Y23630846D02*
G01*
X14982577Y23612007D01*
X15158004Y23436580D01*
X15185781Y23382063D01*
X15187000Y23366576D01*
X15187000Y20196051D01*
X15168093Y20137860D01*
X15141524Y20112767D01*
X15131372Y20106243D01*
X15037122Y19997472D01*
X14977334Y19866557D01*
X14956853Y19724103D01*
X14956853Y19724098D01*
X14977334Y19581644D01*
X15037122Y19450729D01*
X15037123Y19450727D01*
X15127518Y19346405D01*
X15131373Y19341956D01*
X15165902Y19319766D01*
X15252447Y19264147D01*
X15256473Y19261560D01*
X15295204Y19214194D01*
X15298698Y19153109D01*
X15272954Y19108272D01*
X14715033Y18550351D01*
X14660516Y18522574D01*
X14600084Y18532145D01*
X14556819Y18575410D01*
X14547037Y18606267D01*
X14537866Y18670056D01*
X14498811Y18755573D01*
X14478077Y18800973D01*
X14383828Y18909743D01*
X14383827Y18909744D01*
X14383826Y18909745D01*
X14262757Y18987551D01*
X14262754Y18987552D01*
X14262753Y18987553D01*
X14206896Y19003954D01*
X14139808Y19023653D01*
X14089301Y19058189D01*
X14068740Y19115816D01*
X14068700Y19118643D01*
X14068700Y22945177D01*
X14087607Y23003368D01*
X14097696Y23015181D01*
X14179119Y23096604D01*
X14233636Y23124381D01*
X14249123Y23125600D01*
X14390959Y23125600D01*
X14390961Y23125600D01*
X14529053Y23166147D01*
X14650128Y23243957D01*
X14744377Y23352727D01*
X14804165Y23483643D01*
X14814581Y23556095D01*
X14841576Y23610999D01*
X14895690Y23639553D01*
X14956252Y23630846D01*
G37*
%TD.AperFunction*%
%TA.AperFunction,Conductor*%
G36*
X18068745Y33004487D02*
G01*
X18112010Y32961222D01*
X18122800Y32916277D01*
X18122800Y26021864D01*
X18103893Y25963673D01*
X18078807Y25939552D01*
X18074279Y25936527D01*
X18074276Y25936524D01*
X18058907Y25913524D01*
X18058906Y25913522D01*
X18058905Y25913523D01*
X18041429Y25887369D01*
X18041428Y25887366D01*
X18037412Y25881355D01*
X18013385Y25845395D01*
X18013384Y25845393D01*
X18007546Y25816048D01*
X18007547Y25816047D01*
X17992003Y25737901D01*
X17995498Y25720331D01*
X17997400Y25701017D01*
X17997400Y25309028D01*
X17978493Y25250837D01*
X17928993Y25214873D01*
X17870509Y25214038D01*
X17765064Y25245000D01*
X17765061Y25245000D01*
X17621139Y25245000D01*
X17621135Y25245000D01*
X17483049Y25204454D01*
X17483042Y25204451D01*
X17361973Y25126645D01*
X17267722Y25017872D01*
X17207934Y24886957D01*
X17187453Y24744503D01*
X17187453Y24744498D01*
X17207934Y24602044D01*
X17233711Y24545602D01*
X17267723Y24471127D01*
X17361972Y24362357D01*
X17370063Y24357157D01*
X17372122Y24355834D01*
X17410854Y24308468D01*
X17417600Y24272549D01*
X17417600Y23670745D01*
X17398693Y23612554D01*
X17349193Y23576590D01*
X17288007Y23576590D01*
X17265077Y23587461D01*
X17148857Y23662151D01*
X17148854Y23662153D01*
X17148853Y23662153D01*
X17148850Y23662154D01*
X17010764Y23702700D01*
X17010761Y23702700D01*
X16866839Y23702700D01*
X16866835Y23702700D01*
X16804214Y23684312D01*
X16743054Y23686060D01*
X16694601Y23723422D01*
X16686270Y23738176D01*
X16625578Y23871071D01*
X16625577Y23871072D01*
X16625577Y23871073D01*
X16531328Y23979843D01*
X16531327Y23979844D01*
X16531326Y23979845D01*
X16467377Y24020942D01*
X16428646Y24068308D01*
X16421900Y24104226D01*
X16421900Y30774264D01*
X16440807Y30832455D01*
X16490307Y30868419D01*
X16548788Y30869254D01*
X16660339Y30836500D01*
X16660341Y30836500D01*
X16804259Y30836500D01*
X16804261Y30836500D01*
X16942353Y30877047D01*
X17063428Y30954857D01*
X17157677Y31063627D01*
X17217465Y31194543D01*
X17234420Y31312468D01*
X17237947Y31336998D01*
X17237947Y31337003D01*
X17217465Y31479457D01*
X17169140Y31585273D01*
X17157677Y31610373D01*
X17063428Y31719143D01*
X17063427Y31719144D01*
X17063426Y31719145D01*
X16937412Y31800129D01*
X16898680Y31847495D01*
X16895187Y31908581D01*
X16920929Y31953415D01*
X17953797Y32986282D01*
X18008313Y33014058D01*
X18068745Y33004487D01*
G37*
%TD.AperFunction*%
%TA.AperFunction,Conductor*%
G36*
X15834568Y26001952D02*
G01*
X15867648Y25950480D01*
X15870900Y25925312D01*
X15870900Y24018878D01*
X15851993Y23960687D01*
X15846720Y23954047D01*
X15774822Y23871073D01*
X15748755Y23813994D01*
X15707382Y23768917D01*
X15647415Y23756767D01*
X15591759Y23782186D01*
X15588698Y23785118D01*
X15164096Y24209720D01*
X15136319Y24264237D01*
X15135100Y24279724D01*
X15135100Y25881355D01*
X15154007Y25939546D01*
X15203507Y25975510D01*
X15261989Y25976345D01*
X15390539Y25938600D01*
X15390541Y25938600D01*
X15534459Y25938600D01*
X15534461Y25938600D01*
X15672553Y25979147D01*
X15718377Y26008596D01*
X15777552Y26024151D01*
X15834568Y26001952D01*
G37*
%TD.AperFunction*%
%TA.AperFunction,Conductor*%
G36*
X20116140Y35022960D02*
G01*
X20142275Y35001589D01*
X20162204Y34978590D01*
X20165873Y34974356D01*
X20176022Y34967834D01*
X20214754Y34920468D01*
X20221500Y34884549D01*
X20221500Y32361925D01*
X20202593Y32303734D01*
X20192504Y32291921D01*
X19530867Y31630285D01*
X19515869Y31617977D01*
X19500979Y31608027D01*
X19500976Y31608025D01*
X19440084Y31516895D01*
X19426191Y31447045D01*
X19426191Y31447043D01*
X19418703Y31409400D01*
X19421478Y31395447D01*
X19422198Y31391831D01*
X19424100Y31372517D01*
X19424100Y26748224D01*
X19405193Y26690033D01*
X19395104Y26678220D01*
X18842804Y26125920D01*
X18788287Y26098143D01*
X18727855Y26107714D01*
X18684590Y26150979D01*
X18673800Y26195924D01*
X18673800Y32450016D01*
X18692707Y32508207D01*
X18742207Y32544171D01*
X18803393Y32544171D01*
X18847620Y32514846D01*
X18851868Y32509943D01*
X18874472Y32483857D01*
X18995547Y32406047D01*
X19086650Y32379297D01*
X19133635Y32365501D01*
X19133636Y32365501D01*
X19133639Y32365500D01*
X19133641Y32365500D01*
X19277559Y32365500D01*
X19277561Y32365500D01*
X19415653Y32406047D01*
X19536728Y32483857D01*
X19630977Y32592627D01*
X19690765Y32723543D01*
X19702433Y32804699D01*
X19711247Y32865998D01*
X19711247Y32866003D01*
X19690765Y33008457D01*
X19654043Y33088866D01*
X19630977Y33139373D01*
X19536728Y33248143D01*
X19536727Y33248144D01*
X19536726Y33248145D01*
X19415657Y33325951D01*
X19415654Y33325953D01*
X19415653Y33325953D01*
X19415650Y33325954D01*
X19277564Y33366500D01*
X19277561Y33366500D01*
X19133639Y33366500D01*
X19133635Y33366500D01*
X18995549Y33325954D01*
X18995542Y33325951D01*
X18874472Y33248144D01*
X18874470Y33248142D01*
X18847619Y33217154D01*
X18795223Y33185558D01*
X18734262Y33190794D01*
X18688021Y33230862D01*
X18673800Y33281985D01*
X18673800Y34276978D01*
X18692707Y34335169D01*
X18702790Y34346975D01*
X18893541Y34537727D01*
X18948056Y34565503D01*
X19008488Y34555932D01*
X19051753Y34512667D01*
X19053596Y34508849D01*
X19072290Y34467917D01*
X19080323Y34450327D01*
X19153614Y34365744D01*
X19174573Y34341556D01*
X19211252Y34317984D01*
X19295647Y34263747D01*
X19363057Y34243954D01*
X19433735Y34223201D01*
X19433736Y34223201D01*
X19433739Y34223200D01*
X19433741Y34223200D01*
X19577659Y34223200D01*
X19577661Y34223200D01*
X19715753Y34263747D01*
X19836828Y34341557D01*
X19931077Y34450327D01*
X19990865Y34581243D01*
X20005125Y34680424D01*
X20011347Y34723698D01*
X20011347Y34723703D01*
X19990865Y34866157D01*
X19990865Y34866159D01*
X19977406Y34895630D01*
X19970431Y34956416D01*
X20000518Y35009693D01*
X20056174Y35035111D01*
X20116140Y35022960D01*
G37*
%TD.AperFunction*%
%TA.AperFunction,Conductor*%
G36*
X17949906Y40122174D02*
G01*
X17996147Y40082106D01*
X18010006Y40022511D01*
X18009361Y40016894D01*
X17994353Y39912505D01*
X17994353Y39912498D01*
X18014834Y39770044D01*
X18058438Y39674567D01*
X18074623Y39639127D01*
X18153301Y39548327D01*
X18168873Y39530356D01*
X18247302Y39479953D01*
X18289947Y39452547D01*
X18372332Y39428357D01*
X18428035Y39412001D01*
X18428036Y39412001D01*
X18428039Y39412000D01*
X18428041Y39412000D01*
X18571959Y39412000D01*
X18571961Y39412000D01*
X18710053Y39452547D01*
X18831128Y39530357D01*
X18925377Y39639127D01*
X18937547Y39665777D01*
X18978918Y39710853D01*
X19038885Y39723004D01*
X19094541Y39697587D01*
X19124628Y39644310D01*
X19126600Y39624649D01*
X19126600Y36088725D01*
X19107693Y36030534D01*
X19097604Y36018721D01*
X18515507Y35436624D01*
X18460990Y35408847D01*
X18400558Y35418418D01*
X18357293Y35461683D01*
X18355450Y35465501D01*
X18332104Y35516620D01*
X18300477Y35585873D01*
X18206228Y35694643D01*
X18206227Y35694644D01*
X18206226Y35694645D01*
X18085157Y35772451D01*
X18085154Y35772453D01*
X18085153Y35772453D01*
X18085150Y35772454D01*
X17947064Y35813000D01*
X17947061Y35813000D01*
X17803139Y35813000D01*
X17803135Y35813000D01*
X17665049Y35772454D01*
X17665042Y35772451D01*
X17543973Y35694645D01*
X17449722Y35585872D01*
X17389934Y35454957D01*
X17369453Y35312503D01*
X17369453Y35312498D01*
X17389934Y35170044D01*
X17441449Y35057244D01*
X17449723Y35039127D01*
X17535034Y34940672D01*
X17543973Y34930356D01*
X17665042Y34852550D01*
X17665047Y34852547D01*
X17710711Y34839139D01*
X17761218Y34804603D01*
X17781780Y34746976D01*
X17765136Y34689149D01*
X17759305Y34680423D01*
X17759306Y34680422D01*
X17756027Y34675514D01*
X17756023Y34675509D01*
X17713784Y34612296D01*
X17713784Y34612295D01*
X17703091Y34558532D01*
X17703091Y34558531D01*
X17692403Y34504801D01*
X17695898Y34487231D01*
X17697800Y34467917D01*
X17697800Y33550525D01*
X17678893Y33492334D01*
X17668804Y33480521D01*
X16101104Y31912821D01*
X16046587Y31885044D01*
X15986155Y31894615D01*
X15942890Y31937880D01*
X15932100Y31982825D01*
X15932100Y36774078D01*
X15951007Y36832269D01*
X15961090Y36844075D01*
X16238351Y37121337D01*
X16292866Y37149113D01*
X16353298Y37139542D01*
X16396563Y37096277D01*
X16398406Y37092459D01*
X16427923Y37027827D01*
X16513259Y36929343D01*
X16522173Y36919056D01*
X16613908Y36860102D01*
X16643247Y36841247D01*
X16732351Y36815084D01*
X16781335Y36800701D01*
X16781336Y36800701D01*
X16781339Y36800700D01*
X16781341Y36800700D01*
X16925259Y36800700D01*
X16925261Y36800700D01*
X17063353Y36841247D01*
X17184428Y36919057D01*
X17278677Y37027827D01*
X17338465Y37158743D01*
X17350077Y37239508D01*
X17358947Y37301198D01*
X17358947Y37301203D01*
X17338465Y37443657D01*
X17332462Y37456802D01*
X17278677Y37574573D01*
X17184428Y37683343D01*
X17184427Y37683344D01*
X17184426Y37683345D01*
X17057397Y37764981D01*
X17058538Y37766757D01*
X17020845Y37801358D01*
X17008700Y37861326D01*
X17034123Y37916979D01*
X17037031Y37920016D01*
X17611633Y38494619D01*
X17626629Y38506925D01*
X17641524Y38516876D01*
X17702415Y38608005D01*
X17718400Y38688367D01*
X17718400Y38688368D01*
X17723797Y38715500D01*
X17720302Y38733073D01*
X17718400Y38752385D01*
X17718400Y39933849D01*
X17737307Y39992040D01*
X17763878Y40017134D01*
X17766137Y40018587D01*
X17774028Y40023657D01*
X17836553Y40095816D01*
X17888945Y40127409D01*
X17949906Y40122174D01*
G37*
%TD.AperFunction*%
%TA.AperFunction,Conductor*%
G36*
X24073868Y38403544D02*
G01*
X24106948Y38352072D01*
X24110200Y38326904D01*
X24110200Y36594525D01*
X24091293Y36536334D01*
X24081204Y36524521D01*
X23347137Y35790455D01*
X23292620Y35762678D01*
X23232188Y35772249D01*
X23202313Y35795629D01*
X23166429Y35837042D01*
X23166428Y35837043D01*
X23156275Y35843568D01*
X23117545Y35890933D01*
X23110800Y35926851D01*
X23110800Y37846478D01*
X23129707Y37904669D01*
X23139784Y37916469D01*
X23485220Y38261906D01*
X23539735Y38289681D01*
X23555222Y38290900D01*
X23697059Y38290900D01*
X23697061Y38290900D01*
X23835153Y38331447D01*
X23932824Y38394216D01*
X23957677Y38410188D01*
X24016852Y38425743D01*
X24073868Y38403544D01*
G37*
%TD.AperFunction*%
%TA.AperFunction,Conductor*%
G36*
X38503874Y59699195D02*
G01*
X38531912Y59696989D01*
X38679881Y59685343D01*
X38695210Y59682916D01*
X38863095Y59642610D01*
X38877865Y59637810D01*
X39037369Y59571742D01*
X39051201Y59564694D01*
X39198408Y59474485D01*
X39210967Y59465361D01*
X39342254Y59353232D01*
X39353231Y59342255D01*
X39465354Y59210975D01*
X39465356Y59210973D01*
X39474485Y59198407D01*
X39562008Y59055583D01*
X39564689Y59051209D01*
X39571742Y59037367D01*
X39637809Y58877866D01*
X39642610Y58863092D01*
X39682913Y58695219D01*
X39685343Y58679876D01*
X39699195Y58503877D01*
X39699500Y58496109D01*
X39699500Y1503893D01*
X39699195Y1496125D01*
X39685343Y1320125D01*
X39682913Y1304782D01*
X39642610Y1136909D01*
X39637809Y1122135D01*
X39571742Y962634D01*
X39564689Y948792D01*
X39474487Y801596D01*
X39465356Y789028D01*
X39353235Y657750D01*
X39342250Y646765D01*
X39210972Y534644D01*
X39198404Y525513D01*
X39051208Y435311D01*
X39037366Y428258D01*
X38877865Y362191D01*
X38863091Y357390D01*
X38695218Y317087D01*
X38679875Y314657D01*
X38503875Y300805D01*
X38496107Y300500D01*
X1503893Y300500D01*
X1496125Y300805D01*
X1320124Y314657D01*
X1304781Y317087D01*
X1136908Y357390D01*
X1122134Y362191D01*
X962633Y428258D01*
X948791Y435311D01*
X847226Y497550D01*
X801593Y525515D01*
X789027Y534644D01*
X657745Y646769D01*
X646768Y657746D01*
X534639Y789033D01*
X525515Y801592D01*
X435306Y948799D01*
X428257Y962634D01*
X362190Y1122135D01*
X357389Y1136909D01*
X354730Y1147986D01*
X317084Y1304790D01*
X314657Y1320119D01*
X300805Y1496126D01*
X300500Y1503893D01*
X300500Y4399998D01*
X11394353Y4399998D01*
X11414834Y4257544D01*
X11474622Y4126629D01*
X11474623Y4126627D01*
X11568872Y4017857D01*
X11568873Y4017856D01*
X11689942Y3940050D01*
X11689947Y3940047D01*
X11796403Y3908789D01*
X11828035Y3899501D01*
X11828036Y3899501D01*
X11828039Y3899500D01*
X11828041Y3899500D01*
X11971959Y3899500D01*
X11971961Y3899500D01*
X12110053Y3940047D01*
X12231128Y4017857D01*
X12325377Y4126627D01*
X12385165Y4257543D01*
X12405647Y4400000D01*
X12385165Y4542457D01*
X12325377Y4673373D01*
X12231128Y4782143D01*
X12231127Y4782144D01*
X12231126Y4782145D01*
X12110057Y4859951D01*
X12110054Y4859953D01*
X12110053Y4859953D01*
X12110050Y4859954D01*
X11971964Y4900500D01*
X11971961Y4900500D01*
X11828039Y4900500D01*
X11828035Y4900500D01*
X11689949Y4859954D01*
X11689942Y4859951D01*
X11568873Y4782145D01*
X11474622Y4673372D01*
X11414834Y4542457D01*
X11394353Y4400003D01*
X11394353Y4399998D01*
X300500Y4399998D01*
X300500Y5567977D01*
X16434500Y5567977D01*
X16473757Y5408707D01*
X16549993Y5263453D01*
X16658769Y5140669D01*
X16733190Y5089300D01*
X16793774Y5047482D01*
X16947155Y4989312D01*
X16989477Y4984174D01*
X17069131Y4974501D01*
X17069138Y4974501D01*
X17069143Y4974500D01*
X17069148Y4974500D01*
X17150852Y4974500D01*
X17150857Y4974500D01*
X17150862Y4974501D01*
X17150868Y4974501D01*
X17209360Y4981604D01*
X17272845Y4989312D01*
X17426226Y5047482D01*
X17561229Y5140668D01*
X17670008Y5263454D01*
X17746242Y5408705D01*
X17785500Y5567977D01*
X22214500Y5567977D01*
X22253757Y5408707D01*
X22329993Y5263453D01*
X22438769Y5140669D01*
X22513190Y5089300D01*
X22573774Y5047482D01*
X22727155Y4989312D01*
X22769477Y4984174D01*
X22849131Y4974501D01*
X22849138Y4974501D01*
X22849143Y4974500D01*
X22849148Y4974500D01*
X22930852Y4974500D01*
X22930857Y4974500D01*
X22930862Y4974501D01*
X22930868Y4974501D01*
X22989360Y4981604D01*
X23052845Y4989312D01*
X23206226Y5047482D01*
X23341229Y5140668D01*
X23450008Y5263454D01*
X23526242Y5408705D01*
X23565500Y5567979D01*
X23565500Y5732021D01*
X23526242Y5891295D01*
X23450008Y6036546D01*
X23429798Y6059358D01*
X23341230Y6159332D01*
X23206226Y6252518D01*
X23052845Y6310688D01*
X23052843Y6310689D01*
X23052842Y6310689D01*
X22930868Y6325500D01*
X22930857Y6325500D01*
X22849143Y6325500D01*
X22849131Y6325500D01*
X22727157Y6310689D01*
X22727155Y6310688D01*
X22573773Y6252518D01*
X22438770Y6159332D01*
X22438769Y6159332D01*
X22329993Y6036548D01*
X22253757Y5891294D01*
X22214500Y5732024D01*
X22214500Y5567977D01*
X17785500Y5567977D01*
X17785500Y5567979D01*
X17785500Y5732021D01*
X17746242Y5891295D01*
X17670008Y6036546D01*
X17649798Y6059358D01*
X17561230Y6159332D01*
X17426226Y6252518D01*
X17272845Y6310688D01*
X17272843Y6310689D01*
X17272842Y6310689D01*
X17150868Y6325500D01*
X17150857Y6325500D01*
X17069143Y6325500D01*
X17069131Y6325500D01*
X16947157Y6310689D01*
X16947155Y6310688D01*
X16793773Y6252518D01*
X16658770Y6159332D01*
X16658769Y6159332D01*
X16549993Y6036548D01*
X16473757Y5891294D01*
X16434500Y5732024D01*
X16434500Y5567977D01*
X300500Y5567977D01*
X300500Y6869298D01*
X1594353Y6869298D01*
X1614834Y6726844D01*
X1640318Y6671043D01*
X1674623Y6595927D01*
X1722972Y6540129D01*
X1768873Y6487156D01*
X1855700Y6431356D01*
X1889947Y6409347D01*
X1996403Y6378089D01*
X2028035Y6368801D01*
X2028036Y6368801D01*
X2028039Y6368800D01*
X2028041Y6368800D01*
X2171959Y6368800D01*
X2171961Y6368800D01*
X2310053Y6409347D01*
X2431128Y6487157D01*
X2525377Y6595927D01*
X2585165Y6726843D01*
X2597624Y6813498D01*
X29830853Y6813498D01*
X29851334Y6671044D01*
X29911122Y6540129D01*
X29911123Y6540127D01*
X30005372Y6431357D01*
X30005373Y6431356D01*
X30126442Y6353550D01*
X30126447Y6353547D01*
X30232903Y6322289D01*
X30264535Y6313001D01*
X30264536Y6313001D01*
X30264539Y6313000D01*
X30264541Y6313000D01*
X30408459Y6313000D01*
X30408461Y6313000D01*
X30546553Y6353547D01*
X30667628Y6431357D01*
X30761877Y6540127D01*
X30821665Y6671043D01*
X30842147Y6813500D01*
X30834124Y6869300D01*
X30821665Y6955957D01*
X30761877Y7086872D01*
X30761877Y7086873D01*
X30667628Y7195643D01*
X30667627Y7195644D01*
X30667626Y7195645D01*
X30546557Y7273451D01*
X30546554Y7273453D01*
X30546553Y7273453D01*
X30546550Y7273454D01*
X30408464Y7314000D01*
X30408461Y7314000D01*
X30264539Y7314000D01*
X30264535Y7314000D01*
X30126449Y7273454D01*
X30126442Y7273451D01*
X30005373Y7195645D01*
X29911122Y7086872D01*
X29851334Y6955957D01*
X29830853Y6813503D01*
X29830853Y6813498D01*
X2597624Y6813498D01*
X2605647Y6869300D01*
X2585165Y7011757D01*
X2525377Y7142673D01*
X2431128Y7251443D01*
X2431127Y7251444D01*
X2431126Y7251445D01*
X2310057Y7329251D01*
X2310054Y7329253D01*
X2310053Y7329253D01*
X2310050Y7329254D01*
X2171964Y7369800D01*
X2171961Y7369800D01*
X2028039Y7369800D01*
X2028035Y7369800D01*
X1889949Y7329254D01*
X1889942Y7329251D01*
X1768873Y7251445D01*
X1674622Y7142672D01*
X1614834Y7011757D01*
X1594353Y6869303D01*
X1594353Y6869298D01*
X300500Y6869298D01*
X300500Y8099998D01*
X13494353Y8099998D01*
X13514834Y7957544D01*
X13552189Y7875750D01*
X13574623Y7826627D01*
X13668872Y7717857D01*
X13668873Y7717856D01*
X13789942Y7640050D01*
X13789947Y7640047D01*
X13896403Y7608789D01*
X13928035Y7599501D01*
X13928036Y7599501D01*
X13928039Y7599500D01*
X13928041Y7599500D01*
X14071959Y7599500D01*
X14071961Y7599500D01*
X14210053Y7640047D01*
X14331128Y7717857D01*
X14425377Y7826627D01*
X14485165Y7957543D01*
X14491992Y8005029D01*
X14505647Y8099998D01*
X14505647Y8100003D01*
X14485165Y8242457D01*
X14425377Y8373373D01*
X14331128Y8482143D01*
X14331127Y8482144D01*
X14331126Y8482145D01*
X14210057Y8559951D01*
X14210054Y8559953D01*
X14210053Y8559953D01*
X14210050Y8559954D01*
X14071964Y8600500D01*
X14071961Y8600500D01*
X13928039Y8600500D01*
X13928035Y8600500D01*
X13789949Y8559954D01*
X13789942Y8559951D01*
X13668873Y8482145D01*
X13574622Y8373372D01*
X13514834Y8242457D01*
X13494353Y8100003D01*
X13494353Y8099998D01*
X300500Y8099998D01*
X300500Y9870898D01*
X7584353Y9870898D01*
X7604834Y9728444D01*
X7664622Y9597529D01*
X7664623Y9597527D01*
X7758872Y9488757D01*
X7758873Y9488756D01*
X7879942Y9410950D01*
X7879947Y9410947D01*
X7961017Y9387143D01*
X8018035Y9370401D01*
X8018036Y9370401D01*
X8018039Y9370400D01*
X8018041Y9370400D01*
X8161959Y9370400D01*
X8161961Y9370400D01*
X8300053Y9410947D01*
X8421128Y9488757D01*
X8515377Y9597527D01*
X8575165Y9728443D01*
X8595647Y9870900D01*
X8584023Y9951745D01*
X8575165Y10013357D01*
X8549251Y10070100D01*
X8515377Y10144273D01*
X8514679Y10145079D01*
X8514332Y10145899D01*
X8511549Y10150230D01*
X8512298Y10150712D01*
X8490863Y10201439D01*
X8490500Y10209908D01*
X8490500Y11849998D01*
X10505553Y11849998D01*
X10526034Y11707544D01*
X10585822Y11576630D01*
X10585823Y11576627D01*
X10669550Y11480000D01*
X10680073Y11467856D01*
X10777954Y11404952D01*
X10801147Y11390047D01*
X10907603Y11358789D01*
X10939235Y11349501D01*
X10939236Y11349501D01*
X10939239Y11349500D01*
X10939241Y11349500D01*
X11083159Y11349500D01*
X11083161Y11349500D01*
X11221253Y11390047D01*
X11342328Y11467857D01*
X11436577Y11576627D01*
X11439406Y11582824D01*
X11443247Y11591231D01*
X11484619Y11636309D01*
X11544585Y11648460D01*
X11600242Y11623042D01*
X11630328Y11569765D01*
X11632300Y11550105D01*
X11632300Y9809698D01*
X11623353Y9768571D01*
X11597634Y9712257D01*
X11577153Y9569803D01*
X11577153Y9569798D01*
X11597634Y9427344D01*
X11623640Y9370400D01*
X11657423Y9296427D01*
X11711912Y9233543D01*
X11751673Y9187656D01*
X11849523Y9124772D01*
X11872747Y9109847D01*
X11979203Y9078589D01*
X12010835Y9069301D01*
X12010836Y9069301D01*
X12010839Y9069300D01*
X12010841Y9069300D01*
X12154759Y9069300D01*
X12154761Y9069300D01*
X12292853Y9109847D01*
X12413928Y9187657D01*
X12508177Y9296427D01*
X12508849Y9297898D01*
X14894353Y9297898D01*
X14914834Y9155444D01*
X14967509Y9040104D01*
X14974623Y9024527D01*
X15068872Y8915757D01*
X15068873Y8915756D01*
X15189942Y8837950D01*
X15189947Y8837947D01*
X15296403Y8806689D01*
X15328035Y8797401D01*
X15328036Y8797401D01*
X15328039Y8797400D01*
X15328041Y8797400D01*
X15471959Y8797400D01*
X15471961Y8797400D01*
X15610053Y8837947D01*
X15731128Y8915757D01*
X15825377Y9024527D01*
X15885165Y9155443D01*
X15896394Y9233545D01*
X15905647Y9297898D01*
X15905647Y9297903D01*
X15885165Y9440357D01*
X15826142Y9569598D01*
X19244353Y9569598D01*
X19264834Y9427144D01*
X19323859Y9297900D01*
X19324623Y9296227D01*
X19378937Y9233545D01*
X19418873Y9187456D01*
X19539942Y9109650D01*
X19539947Y9109647D01*
X19646403Y9078389D01*
X19678035Y9069101D01*
X19678036Y9069101D01*
X19678039Y9069100D01*
X19678041Y9069100D01*
X19819876Y9069100D01*
X19878067Y9050193D01*
X19889880Y9040104D01*
X20446519Y8483465D01*
X20474296Y8428948D01*
X20474507Y8399372D01*
X20465353Y8335703D01*
X20465353Y8335698D01*
X20485834Y8193244D01*
X20528417Y8100003D01*
X20545623Y8062327D01*
X20636417Y7957544D01*
X20639873Y7953556D01*
X20760942Y7875750D01*
X20760947Y7875747D01*
X20867403Y7844489D01*
X20899035Y7835201D01*
X20899036Y7835201D01*
X20899039Y7835200D01*
X20899041Y7835200D01*
X21042959Y7835200D01*
X21042961Y7835200D01*
X21181053Y7875747D01*
X21302128Y7953557D01*
X21396377Y8062327D01*
X21456165Y8193243D01*
X21476647Y8335700D01*
X21474461Y8350901D01*
X21456165Y8478157D01*
X21425617Y8545047D01*
X21396377Y8609073D01*
X21302128Y8717843D01*
X21302127Y8717844D01*
X21302126Y8717845D01*
X21181057Y8795651D01*
X21181054Y8795653D01*
X21181053Y8795653D01*
X21181050Y8795654D01*
X21042964Y8836200D01*
X21042961Y8836200D01*
X20914024Y8836200D01*
X20867248Y8851398D01*
X23082653Y8851398D01*
X23103134Y8708944D01*
X23148745Y8609072D01*
X23162923Y8578027D01*
X23249460Y8478157D01*
X23257173Y8469256D01*
X23319894Y8428948D01*
X23378247Y8391447D01*
X23439806Y8373372D01*
X23516335Y8350901D01*
X23516336Y8350901D01*
X23516339Y8350900D01*
X23516341Y8350900D01*
X23660259Y8350900D01*
X23660261Y8350900D01*
X23798353Y8391447D01*
X23919428Y8469257D01*
X24013677Y8578027D01*
X24073465Y8708943D01*
X24086183Y8797401D01*
X24093947Y8851398D01*
X24093947Y8851403D01*
X24073465Y8993857D01*
X24035067Y9077935D01*
X24013677Y9124773D01*
X23919428Y9233543D01*
X23919427Y9233544D01*
X23919426Y9233545D01*
X23798357Y9311351D01*
X23798354Y9311353D01*
X23798353Y9311353D01*
X23798350Y9311354D01*
X23660264Y9351900D01*
X23660261Y9351900D01*
X23516339Y9351900D01*
X23516335Y9351900D01*
X23378249Y9311354D01*
X23378242Y9311351D01*
X23257173Y9233545D01*
X23162922Y9124772D01*
X23103134Y8993857D01*
X23082653Y8851403D01*
X23082653Y8851398D01*
X20867248Y8851398D01*
X20855833Y8855107D01*
X20844020Y8865196D01*
X20276102Y9433114D01*
X20248325Y9487631D01*
X20248114Y9517208D01*
X20255647Y9569599D01*
X20255647Y9569603D01*
X20235165Y9712057D01*
X20214250Y9757854D01*
X20175377Y9842973D01*
X20081128Y9951743D01*
X20081127Y9951744D01*
X20081126Y9951745D01*
X19960057Y10029551D01*
X19960054Y10029553D01*
X19960053Y10029553D01*
X19960050Y10029554D01*
X19821964Y10070100D01*
X19821961Y10070100D01*
X19678039Y10070100D01*
X19678035Y10070100D01*
X19539949Y10029554D01*
X19539942Y10029551D01*
X19418873Y9951745D01*
X19324622Y9842972D01*
X19264834Y9712057D01*
X19244353Y9569603D01*
X19244353Y9569598D01*
X15826142Y9569598D01*
X15826141Y9569600D01*
X15825377Y9571273D01*
X15731128Y9680043D01*
X15731127Y9680044D01*
X15731126Y9680045D01*
X15610057Y9757851D01*
X15610054Y9757853D01*
X15610053Y9757853D01*
X15610050Y9757854D01*
X15471964Y9798400D01*
X15471961Y9798400D01*
X15328039Y9798400D01*
X15328035Y9798400D01*
X15189949Y9757854D01*
X15189942Y9757851D01*
X15068873Y9680045D01*
X14974622Y9571272D01*
X14914834Y9440357D01*
X14894353Y9297903D01*
X14894353Y9297898D01*
X12508849Y9297898D01*
X12567965Y9427343D01*
X12576795Y9488757D01*
X12588447Y9569798D01*
X12588447Y9569803D01*
X12567965Y9712257D01*
X12542247Y9768571D01*
X12533300Y9809698D01*
X12533300Y12875098D01*
X18967153Y12875098D01*
X18987634Y12732644D01*
X19028886Y12642317D01*
X19047423Y12601727D01*
X19096777Y12544769D01*
X19141673Y12492956D01*
X19186081Y12464417D01*
X19262747Y12415147D01*
X19369203Y12383889D01*
X19400835Y12374601D01*
X19400836Y12374601D01*
X19400839Y12374600D01*
X19400841Y12374600D01*
X19544759Y12374600D01*
X19544761Y12374600D01*
X19682853Y12415147D01*
X19803928Y12492957D01*
X19898177Y12601727D01*
X19957965Y12732643D01*
X19978447Y12875100D01*
X19970043Y12933550D01*
X19957965Y13017557D01*
X19898177Y13148472D01*
X19898177Y13148473D01*
X19803928Y13257243D01*
X19803927Y13257244D01*
X19803926Y13257245D01*
X19682857Y13335051D01*
X19682854Y13335053D01*
X19682853Y13335053D01*
X19682850Y13335054D01*
X19544764Y13375600D01*
X19544761Y13375600D01*
X19400839Y13375600D01*
X19400835Y13375600D01*
X19262749Y13335054D01*
X19262742Y13335051D01*
X19141673Y13257245D01*
X19047422Y13148472D01*
X18987634Y13017557D01*
X18967153Y12875103D01*
X18967153Y12875098D01*
X12533300Y12875098D01*
X12533300Y14255189D01*
X12552207Y14313380D01*
X12562290Y14325187D01*
X12796101Y14558998D01*
X15950053Y14558998D01*
X15970534Y14416544D01*
X16017648Y14313380D01*
X16030323Y14285627D01*
X16124572Y14176857D01*
X16124573Y14176856D01*
X16245642Y14099050D01*
X16245647Y14099047D01*
X16352103Y14067789D01*
X16383735Y14058501D01*
X16383736Y14058501D01*
X16383739Y14058500D01*
X16383741Y14058500D01*
X16527659Y14058500D01*
X16527661Y14058500D01*
X16665753Y14099047D01*
X16786828Y14176857D01*
X16881077Y14285627D01*
X16940865Y14416543D01*
X16953856Y14506900D01*
X16961347Y14558998D01*
X16961347Y14559003D01*
X16940865Y14701457D01*
X16921651Y14743529D01*
X16881077Y14832373D01*
X16786828Y14941143D01*
X16786827Y14941144D01*
X16786826Y14941145D01*
X16665757Y15018951D01*
X16665754Y15018953D01*
X16665753Y15018953D01*
X16665750Y15018954D01*
X16527664Y15059500D01*
X16527661Y15059500D01*
X16383739Y15059500D01*
X16383735Y15059500D01*
X16245649Y15018954D01*
X16245642Y15018951D01*
X16124573Y14941145D01*
X16030322Y14832372D01*
X15970534Y14701457D01*
X15950053Y14559003D01*
X15950053Y14558998D01*
X12796101Y14558998D01*
X13495609Y15258507D01*
X13537718Y15283490D01*
X13560053Y15290047D01*
X13681128Y15367857D01*
X13775377Y15476627D01*
X13835165Y15607543D01*
X13855647Y15750000D01*
X13855626Y15750143D01*
X13835165Y15892457D01*
X13827195Y15909908D01*
X13775377Y16023373D01*
X13681128Y16132143D01*
X13681127Y16132144D01*
X13681126Y16132145D01*
X13560057Y16209951D01*
X13560054Y16209953D01*
X13560053Y16209953D01*
X13560050Y16209954D01*
X13421964Y16250500D01*
X13421961Y16250500D01*
X13278039Y16250500D01*
X13278035Y16250500D01*
X13139949Y16209954D01*
X13139942Y16209951D01*
X13018873Y16132145D01*
X12924621Y16023372D01*
X12880224Y15926157D01*
X12860175Y15897280D01*
X11786065Y14823170D01*
X11777788Y14815774D01*
X11748830Y14792681D01*
X11748829Y14792680D01*
X11716356Y14745052D01*
X11714216Y14742036D01*
X11680007Y14695684D01*
X11676542Y14689126D01*
X11676153Y14689332D01*
X11675150Y14687345D01*
X11675546Y14687154D01*
X11672326Y14680468D01*
X11655336Y14625390D01*
X11654180Y14621877D01*
X11635155Y14567505D01*
X11633776Y14560213D01*
X11633344Y14560295D01*
X11632971Y14558100D01*
X11633405Y14558034D01*
X11632300Y14550701D01*
X11632300Y14493085D01*
X11632231Y14489384D01*
X11630076Y14431790D01*
X11630907Y14424415D01*
X11630468Y14424366D01*
X11632300Y14410456D01*
X11632300Y12149896D01*
X11613393Y12091705D01*
X11563893Y12055741D01*
X11502707Y12055741D01*
X11453207Y12091705D01*
X11443247Y12108768D01*
X11436577Y12123373D01*
X11342326Y12232145D01*
X11221257Y12309951D01*
X11221254Y12309953D01*
X11221253Y12309953D01*
X11221250Y12309954D01*
X11083164Y12350500D01*
X11083161Y12350500D01*
X10939239Y12350500D01*
X10939235Y12350500D01*
X10801149Y12309954D01*
X10801142Y12309951D01*
X10680073Y12232145D01*
X10585822Y12123372D01*
X10526034Y11992457D01*
X10505553Y11850003D01*
X10505553Y11849998D01*
X8490500Y11849998D01*
X8490500Y16771698D01*
X15894353Y16771698D01*
X15914834Y16629244D01*
X15950776Y16550544D01*
X15974623Y16498327D01*
X16068872Y16389557D01*
X16068873Y16389556D01*
X16189942Y16311750D01*
X16189947Y16311747D01*
X16296403Y16280489D01*
X16328035Y16271201D01*
X16328036Y16271201D01*
X16328039Y16271200D01*
X16328041Y16271200D01*
X16471959Y16271200D01*
X16471961Y16271200D01*
X16610053Y16311747D01*
X16731128Y16389557D01*
X16825377Y16498327D01*
X16885165Y16629243D01*
X16893524Y16687384D01*
X16905647Y16771698D01*
X16905647Y16771703D01*
X16885165Y16914157D01*
X16825377Y17045072D01*
X16825377Y17045073D01*
X16731128Y17153843D01*
X16731127Y17153844D01*
X16731126Y17153845D01*
X16610057Y17231651D01*
X16610054Y17231653D01*
X16610053Y17231653D01*
X16610050Y17231654D01*
X16471964Y17272200D01*
X16471961Y17272200D01*
X16328039Y17272200D01*
X16328035Y17272200D01*
X16189949Y17231654D01*
X16189942Y17231651D01*
X16068873Y17153845D01*
X15974622Y17045072D01*
X15914834Y16914157D01*
X15894353Y16771703D01*
X15894353Y16771698D01*
X8490500Y16771698D01*
X8490500Y20595780D01*
X8509407Y20653971D01*
X8558907Y20689935D01*
X8620093Y20689935D01*
X8664320Y20660610D01*
X8668872Y20655357D01*
X8789947Y20577547D01*
X8871681Y20553548D01*
X8928035Y20537001D01*
X8928036Y20537001D01*
X8928039Y20537000D01*
X8928041Y20537000D01*
X9071959Y20537000D01*
X9071961Y20537000D01*
X9210053Y20577547D01*
X9331128Y20655357D01*
X9425377Y20764127D01*
X9485165Y20895043D01*
X9500255Y20999998D01*
X9505647Y21037498D01*
X9505647Y21037503D01*
X9485165Y21179957D01*
X9463173Y21228112D01*
X9425377Y21310873D01*
X9331128Y21419643D01*
X9331127Y21419644D01*
X9331126Y21419645D01*
X9206072Y21500012D01*
X9167340Y21547378D01*
X9163847Y21608464D01*
X9189594Y21653302D01*
X9199649Y21663357D01*
X9199650Y21663358D01*
X9210602Y21684857D01*
X9218715Y21698095D01*
X9232896Y21717610D01*
X9240351Y21740556D01*
X9246295Y21754905D01*
X9257246Y21776396D01*
X9261019Y21800227D01*
X9264648Y21815336D01*
X9268953Y21828587D01*
X9272099Y21838267D01*
X9272099Y21866079D01*
X9272100Y21866104D01*
X9272100Y22154100D01*
X9291007Y22212291D01*
X9301096Y22224104D01*
X10233663Y23156671D01*
X11154783Y24077791D01*
X11177350Y24100358D01*
X11188302Y24121857D01*
X11196415Y24135095D01*
X11210596Y24154610D01*
X11218051Y24177558D01*
X11223990Y24191898D01*
X11234946Y24213396D01*
X11238721Y24237235D01*
X11242343Y24252318D01*
X11249800Y24275267D01*
X11249800Y24402133D01*
X11249800Y27294792D01*
X11268707Y27352983D01*
X11273984Y27359627D01*
X11274095Y27359756D01*
X11274677Y27360427D01*
X11311848Y27441822D01*
X11353218Y27486896D01*
X11413185Y27499047D01*
X11455423Y27483976D01*
X11564542Y27413850D01*
X11564547Y27413847D01*
X11671003Y27382589D01*
X11702635Y27373301D01*
X11702636Y27373301D01*
X11702639Y27373300D01*
X11702641Y27373300D01*
X11846559Y27373300D01*
X11846561Y27373300D01*
X11949110Y27403411D01*
X12010269Y27401664D01*
X12058722Y27364301D01*
X12076000Y27308421D01*
X12076000Y22351278D01*
X12057093Y22293087D01*
X12036977Y22274089D01*
X12037394Y22273607D01*
X12032046Y22268974D01*
X11937794Y22160200D01*
X11878006Y22029285D01*
X11857525Y21886831D01*
X11857525Y21886826D01*
X11878006Y21744372D01*
X11937794Y21613457D01*
X11937795Y21613455D01*
X12010059Y21530057D01*
X12032045Y21504684D01*
X12141696Y21434216D01*
X12153119Y21426875D01*
X12226867Y21405221D01*
X12291207Y21386329D01*
X12291208Y21386329D01*
X12291211Y21386328D01*
X12291213Y21386328D01*
X12435131Y21386328D01*
X12435133Y21386328D01*
X12573225Y21426875D01*
X12694300Y21504685D01*
X12699069Y21508817D01*
X12755428Y21532635D01*
X12815023Y21518776D01*
X12855091Y21472536D01*
X12862900Y21433998D01*
X12862900Y20364000D01*
X12843993Y20305809D01*
X12794493Y20269845D01*
X12763900Y20265000D01*
X12675735Y20265000D01*
X12537649Y20224454D01*
X12537642Y20224451D01*
X12416573Y20146645D01*
X12322322Y20037872D01*
X12262534Y19906957D01*
X12242053Y19764503D01*
X12242053Y19764498D01*
X12262534Y19622044D01*
X12294393Y19552284D01*
X12322323Y19491127D01*
X12402420Y19398689D01*
X12426237Y19342330D01*
X12412378Y19282735D01*
X12381125Y19250576D01*
X12333773Y19220144D01*
X12239522Y19111372D01*
X12179734Y18980457D01*
X12159253Y18838003D01*
X12159253Y18837998D01*
X12179734Y18695544D01*
X12239522Y18564629D01*
X12239523Y18564627D01*
X12310946Y18482200D01*
X12333773Y18455856D01*
X12448318Y18382243D01*
X12454847Y18378047D01*
X12561303Y18346789D01*
X12592935Y18337501D01*
X12592936Y18337501D01*
X12592939Y18337500D01*
X12592941Y18337500D01*
X12734776Y18337500D01*
X12792967Y18318593D01*
X12804780Y18308504D01*
X13334915Y17778369D01*
X13347226Y17763367D01*
X13357176Y17748476D01*
X13376128Y17735813D01*
X13376140Y17735804D01*
X13380178Y17733106D01*
X13389725Y17726727D01*
X13448305Y17687585D01*
X13528667Y17671600D01*
X13528668Y17671600D01*
X13555800Y17666203D01*
X13573370Y17669699D01*
X13592684Y17671600D01*
X14464516Y17671600D01*
X14483829Y17669699D01*
X14501400Y17666203D01*
X14528532Y17671600D01*
X14528533Y17671600D01*
X14608895Y17687585D01*
X14667475Y17726727D01*
X14677022Y17733106D01*
X14677021Y17733106D01*
X14687744Y17740270D01*
X14687748Y17740274D01*
X14700024Y17748476D01*
X14709974Y17763370D01*
X14722284Y17778369D01*
X15426113Y18482198D01*
X17635253Y18482198D01*
X17655734Y18339744D01*
X17672466Y18303107D01*
X17715523Y18208827D01*
X17772946Y18142557D01*
X17809773Y18100056D01*
X17876658Y18057072D01*
X17930847Y18022247D01*
X18014318Y17997738D01*
X18068935Y17981701D01*
X18068936Y17981701D01*
X18068939Y17981700D01*
X18068941Y17981700D01*
X18212859Y17981700D01*
X18212861Y17981700D01*
X18350953Y18022247D01*
X18472028Y18100057D01*
X18566277Y18208827D01*
X18626065Y18339743D01*
X18633876Y18394071D01*
X18646547Y18482198D01*
X18646547Y18482203D01*
X18626065Y18624657D01*
X18615081Y18648708D01*
X18566277Y18755573D01*
X18472028Y18864343D01*
X18472027Y18864344D01*
X18472026Y18864345D01*
X18350957Y18942151D01*
X18350954Y18942153D01*
X18350953Y18942153D01*
X18350950Y18942154D01*
X18212864Y18982700D01*
X18212861Y18982700D01*
X18068939Y18982700D01*
X18068935Y18982700D01*
X17930849Y18942154D01*
X17930842Y18942151D01*
X17809773Y18864345D01*
X17715522Y18755572D01*
X17655734Y18624657D01*
X17635253Y18482203D01*
X17635253Y18482198D01*
X15426113Y18482198D01*
X16208133Y19264219D01*
X16223129Y19276525D01*
X16238024Y19286476D01*
X16298915Y19377605D01*
X16314900Y19457967D01*
X16314900Y19457972D01*
X16320296Y19485100D01*
X16318578Y19493737D01*
X16325768Y19554497D01*
X16345668Y19583053D01*
X16921274Y20158660D01*
X16975789Y20186435D01*
X17036221Y20176864D01*
X17079486Y20133599D01*
X17081329Y20129781D01*
X17118813Y20047705D01*
X17138623Y20004327D01*
X17199289Y19934314D01*
X17232873Y19895556D01*
X17353942Y19817750D01*
X17353947Y19817747D01*
X17460403Y19786489D01*
X17492035Y19777201D01*
X17492036Y19777201D01*
X17492039Y19777200D01*
X17492041Y19777200D01*
X17635959Y19777200D01*
X17635961Y19777200D01*
X17774053Y19817747D01*
X17895128Y19895557D01*
X17989377Y20004327D01*
X18049165Y20135243D01*
X18061991Y20224453D01*
X18069647Y20277698D01*
X18069647Y20277700D01*
X18065605Y20305809D01*
X18062113Y20330096D01*
X18072545Y20390381D01*
X18090098Y20414184D01*
X18928997Y21253082D01*
X18983513Y21280858D01*
X19043945Y21271287D01*
X19087210Y21228022D01*
X19098000Y21183077D01*
X19098000Y16008285D01*
X19096098Y15988973D01*
X19092603Y15971401D01*
X19092603Y15971398D01*
X19097043Y15949070D01*
X19097051Y15949038D01*
X19098000Y15944268D01*
X19098000Y15944267D01*
X19113985Y15863905D01*
X19113986Y15863904D01*
X19113986Y15863902D01*
X19174875Y15772777D01*
X19174876Y15772776D01*
X19189767Y15762826D01*
X19204769Y15750515D01*
X24511404Y10443880D01*
X24539181Y10389363D01*
X24540400Y10373876D01*
X24540400Y9476951D01*
X24521493Y9418760D01*
X24494924Y9393667D01*
X24484772Y9387143D01*
X24390522Y9278372D01*
X24330734Y9147457D01*
X24310253Y9005003D01*
X24310253Y9004998D01*
X24330734Y8862544D01*
X24361283Y8795653D01*
X24390523Y8731627D01*
X24402467Y8717843D01*
X24484773Y8622856D01*
X24605842Y8545050D01*
X24605847Y8545047D01*
X24712303Y8513789D01*
X24743935Y8504501D01*
X24743936Y8504501D01*
X24743939Y8504500D01*
X24743941Y8504500D01*
X24887859Y8504500D01*
X24887861Y8504500D01*
X25025953Y8545047D01*
X25147028Y8622857D01*
X25241277Y8731627D01*
X25301065Y8862543D01*
X25321547Y9005000D01*
X25318739Y9024527D01*
X25301065Y9147457D01*
X25282797Y9187457D01*
X25241277Y9278373D01*
X25147028Y9387143D01*
X25136875Y9393668D01*
X25098145Y9441033D01*
X25091400Y9476951D01*
X25091400Y10492117D01*
X25093302Y10511431D01*
X25096797Y10529000D01*
X25077316Y10626933D01*
X25076836Y10631807D01*
X25075415Y10636494D01*
X25075415Y10636495D01*
X25014524Y10727624D01*
X24999633Y10737574D01*
X24984631Y10749885D01*
X24904516Y10830000D01*
X36909187Y10830000D01*
X36914097Y10777011D01*
X36969887Y10580930D01*
X37060750Y10398452D01*
X37060755Y10398443D01*
X37183608Y10235760D01*
X37334266Y10098418D01*
X37507581Y9991105D01*
X37507586Y9991102D01*
X37697683Y9917459D01*
X37849999Y9888986D01*
X37850000Y9888986D01*
X37850000Y10498830D01*
X37857685Y10495320D01*
X37964237Y10480000D01*
X38035763Y10480000D01*
X38142315Y10495320D01*
X38150000Y10498830D01*
X38150000Y9888986D01*
X38302316Y9917459D01*
X38492413Y9991102D01*
X38492418Y9991105D01*
X38665733Y10098418D01*
X38816391Y10235760D01*
X38939244Y10398443D01*
X38939249Y10398452D01*
X39030112Y10580930D01*
X39085902Y10777011D01*
X39090813Y10830000D01*
X38477065Y10830000D01*
X38500000Y10908111D01*
X38500000Y11051889D01*
X38477065Y11130000D01*
X39090812Y11130000D01*
X39085902Y11182990D01*
X39030112Y11379071D01*
X38939249Y11561549D01*
X38939244Y11561558D01*
X38816391Y11724241D01*
X38665733Y11861583D01*
X38492418Y11968896D01*
X38492413Y11968899D01*
X38302319Y12042541D01*
X38302313Y12042543D01*
X38150000Y12071016D01*
X38150000Y11461171D01*
X38142315Y11464680D01*
X38035763Y11480000D01*
X37964237Y11480000D01*
X37857685Y11464680D01*
X37850000Y11461171D01*
X37850000Y12071015D01*
X37849999Y12071016D01*
X37697686Y12042543D01*
X37697680Y12042541D01*
X37507586Y11968899D01*
X37507581Y11968896D01*
X37334266Y11861583D01*
X37183608Y11724241D01*
X37060755Y11561558D01*
X37060750Y11561549D01*
X36969887Y11379071D01*
X36914097Y11182990D01*
X36909187Y11130000D01*
X37522935Y11130000D01*
X37500000Y11051889D01*
X37500000Y10908111D01*
X37522935Y10830000D01*
X36909187Y10830000D01*
X24904516Y10830000D01*
X20899433Y14835083D01*
X20890975Y14851683D01*
X20872665Y14861851D01*
X19677996Y16056520D01*
X19650219Y16111037D01*
X19649000Y16126524D01*
X19649000Y16448376D01*
X19667907Y16506567D01*
X19717407Y16542531D01*
X19778593Y16542531D01*
X19818004Y16518380D01*
X20831897Y15504487D01*
X20859674Y15449970D01*
X20859885Y15420396D01*
X20853292Y15374526D01*
X20852353Y15367997D01*
X20872834Y15225544D01*
X20907400Y15149857D01*
X20932623Y15094627D01*
X21008205Y15007400D01*
X21017489Y14996686D01*
X21020627Y14989261D01*
X21022960Y14988371D01*
X21147940Y14908051D01*
X21147947Y14908047D01*
X21254403Y14876789D01*
X21286035Y14867501D01*
X21286036Y14867501D01*
X21286039Y14867500D01*
X21286041Y14867500D01*
X21429959Y14867500D01*
X21429961Y14867500D01*
X21568053Y14908047D01*
X21597140Y14926740D01*
X21656315Y14942296D01*
X21713331Y14920098D01*
X21745654Y14871349D01*
X21747535Y14864941D01*
X21803665Y14742036D01*
X21807323Y14734027D01*
X21853732Y14680468D01*
X21901573Y14625256D01*
X22022642Y14547450D01*
X22022647Y14547447D01*
X22129103Y14516189D01*
X22160735Y14506901D01*
X22160736Y14506901D01*
X22160739Y14506900D01*
X22160741Y14506900D01*
X22304659Y14506900D01*
X22304661Y14506900D01*
X22442753Y14547447D01*
X22563828Y14625257D01*
X22658077Y14734027D01*
X22717865Y14864943D01*
X22728987Y14942296D01*
X22738347Y15007398D01*
X22738347Y15007403D01*
X22717865Y15149857D01*
X22683300Y15225543D01*
X22658077Y15280773D01*
X22563828Y15389543D01*
X22553675Y15396068D01*
X22514945Y15443433D01*
X22508200Y15479351D01*
X22508200Y32497577D01*
X22527107Y32555768D01*
X22537190Y32567575D01*
X23669833Y33700219D01*
X23684829Y33712525D01*
X23699724Y33722476D01*
X23739593Y33782143D01*
X23747305Y33793684D01*
X23751721Y33800295D01*
X23760615Y33813605D01*
X23775078Y33886317D01*
X23776600Y33893967D01*
X23776600Y33893972D01*
X23781996Y33921100D01*
X23778502Y33938668D01*
X23776600Y33957980D01*
X23776600Y35125142D01*
X23795507Y35183333D01*
X23845007Y35219297D01*
X23906193Y35219297D01*
X23955693Y35183333D01*
X23965652Y35166271D01*
X23974623Y35146627D01*
X24038632Y35072756D01*
X24068873Y35037856D01*
X24177830Y34967834D01*
X24189947Y34960047D01*
X24294050Y34929480D01*
X24328035Y34919501D01*
X24328036Y34919501D01*
X24328039Y34919500D01*
X24328041Y34919500D01*
X24471959Y34919500D01*
X24471961Y34919500D01*
X24610053Y34960047D01*
X24731128Y35037857D01*
X24825182Y35146403D01*
X24877576Y35177997D01*
X24938537Y35172762D01*
X24974816Y35146404D01*
X25062603Y35045092D01*
X25068873Y35037856D01*
X25177830Y34967834D01*
X25189947Y34960047D01*
X25294050Y34929480D01*
X25328035Y34919501D01*
X25328036Y34919501D01*
X25328039Y34919500D01*
X25328041Y34919500D01*
X25471959Y34919500D01*
X25471961Y34919500D01*
X25577109Y34950374D01*
X25638269Y34948627D01*
X25686722Y34911264D01*
X25704000Y34855384D01*
X25704000Y31536851D01*
X25685093Y31478660D01*
X25658524Y31453567D01*
X25648372Y31447043D01*
X25554122Y31338272D01*
X25494334Y31207357D01*
X25473853Y31064903D01*
X25473853Y31064897D01*
X25490971Y30945834D01*
X25480538Y30885544D01*
X25436659Y30842902D01*
X25376097Y30834195D01*
X25322975Y30861741D01*
X23917585Y32267131D01*
X23905273Y32282134D01*
X23895324Y32297024D01*
X23876370Y32309689D01*
X23876366Y32309692D01*
X23838040Y32335300D01*
X23838039Y32335301D01*
X23807685Y32355583D01*
X23804195Y32357915D01*
X23723833Y32373900D01*
X23719062Y32374849D01*
X23719030Y32374857D01*
X23696702Y32379297D01*
X23686949Y32379297D01*
X23686949Y32382622D01*
X23642768Y32387861D01*
X23609416Y32412928D01*
X23577279Y32450016D01*
X23550828Y32480543D01*
X23550827Y32480544D01*
X23429757Y32558351D01*
X23429754Y32558353D01*
X23429753Y32558353D01*
X23429750Y32558354D01*
X23291664Y32598900D01*
X23291661Y32598900D01*
X23147739Y32598900D01*
X23147735Y32598900D01*
X23009649Y32558354D01*
X23009642Y32558351D01*
X22888573Y32480545D01*
X22794322Y32371772D01*
X22734534Y32240857D01*
X22714053Y32098403D01*
X22714053Y32098398D01*
X22734534Y31955944D01*
X22780452Y31855400D01*
X22794323Y31825027D01*
X22840400Y31771851D01*
X22888573Y31716256D01*
X23009642Y31638450D01*
X23009647Y31638447D01*
X23105263Y31610372D01*
X23147735Y31597901D01*
X23147736Y31597901D01*
X23147739Y31597900D01*
X23147741Y31597900D01*
X23291659Y31597900D01*
X23291661Y31597900D01*
X23429753Y31638447D01*
X23550828Y31716257D01*
X23550837Y31716269D01*
X23555305Y31720139D01*
X23611661Y31743965D01*
X23671258Y31730115D01*
X23690151Y31715333D01*
X23764290Y31641194D01*
X23792067Y31586677D01*
X23782496Y31526245D01*
X23739231Y31482980D01*
X23722180Y31476201D01*
X23690351Y31466855D01*
X23690342Y31466851D01*
X23569273Y31389045D01*
X23475022Y31280272D01*
X23415234Y31149357D01*
X23394753Y31006903D01*
X23394753Y31006898D01*
X23415234Y30864444D01*
X23475023Y30733527D01*
X23475716Y30732727D01*
X23476060Y30731911D01*
X23478853Y30727566D01*
X23478101Y30727084D01*
X23499536Y30676369D01*
X23499900Y30667892D01*
X23499900Y22685163D01*
X23507353Y22662226D01*
X23510979Y22647126D01*
X23514754Y22623294D01*
X23525701Y22601812D01*
X23531647Y22587458D01*
X23539103Y22564512D01*
X23539102Y22564512D01*
X23553284Y22544992D01*
X23561397Y22531753D01*
X23572350Y22510258D01*
X23572351Y22510257D01*
X23592430Y22490177D01*
X23592431Y22490177D01*
X23594913Y22487695D01*
X23594916Y22487691D01*
X25886557Y20196051D01*
X28130154Y17952454D01*
X28157931Y17897937D01*
X28158142Y17896539D01*
X28163734Y17857644D01*
X28219378Y17735804D01*
X28223523Y17726727D01*
X28311870Y17624768D01*
X28317773Y17617956D01*
X28438842Y17540150D01*
X28438847Y17540147D01*
X28540399Y17510329D01*
X28576935Y17499601D01*
X28576936Y17499601D01*
X28576939Y17499600D01*
X28576941Y17499600D01*
X28720859Y17499600D01*
X28720861Y17499600D01*
X28858953Y17540147D01*
X28980028Y17617957D01*
X29074277Y17726727D01*
X29134065Y17857643D01*
X29151902Y17981701D01*
X29154547Y18000098D01*
X29154547Y18000103D01*
X29134065Y18142557D01*
X29130448Y18150478D01*
X29074277Y18273473D01*
X28980028Y18382243D01*
X28980027Y18382244D01*
X28980026Y18382245D01*
X28858957Y18460051D01*
X28858954Y18460052D01*
X28858953Y18460053D01*
X28736514Y18496004D01*
X28694402Y18520990D01*
X24329896Y22885497D01*
X24302119Y22940014D01*
X24300900Y22955501D01*
X24300900Y23704598D01*
X24594353Y23704598D01*
X24614834Y23562144D01*
X24655059Y23474066D01*
X24674623Y23431227D01*
X24742643Y23352727D01*
X24768873Y23322456D01*
X24889942Y23244650D01*
X24889947Y23244647D01*
X24989020Y23215557D01*
X25028035Y23204101D01*
X25028036Y23204101D01*
X25028039Y23204100D01*
X25028041Y23204100D01*
X25171959Y23204100D01*
X25171961Y23204100D01*
X25310053Y23244647D01*
X25431128Y23322457D01*
X25525377Y23431227D01*
X25585165Y23562143D01*
X25596295Y23639553D01*
X25605647Y23704598D01*
X25605647Y23704603D01*
X25585165Y23847057D01*
X25567410Y23885935D01*
X25525377Y23977973D01*
X25431128Y24086743D01*
X25431127Y24086744D01*
X25431126Y24086745D01*
X25310057Y24164551D01*
X25310054Y24164553D01*
X25310053Y24164553D01*
X25310050Y24164554D01*
X25171964Y24205100D01*
X25171961Y24205100D01*
X25028039Y24205100D01*
X25028035Y24205100D01*
X24889949Y24164554D01*
X24889942Y24164551D01*
X24768873Y24086745D01*
X24674622Y23977972D01*
X24614834Y23847057D01*
X24594353Y23704603D01*
X24594353Y23704598D01*
X24300900Y23704598D01*
X24300900Y30667892D01*
X24319807Y30726083D01*
X24325084Y30732727D01*
X24325195Y30732856D01*
X24325777Y30733527D01*
X24375076Y30841477D01*
X24416446Y30886552D01*
X24476413Y30898703D01*
X24532069Y30873285D01*
X24535132Y30870352D01*
X26076504Y29328980D01*
X26104281Y29274463D01*
X26105500Y29258976D01*
X26105500Y26227985D01*
X26103598Y26208673D01*
X26100103Y26191101D01*
X26100103Y26191098D01*
X26104543Y26168770D01*
X26104551Y26168738D01*
X26121485Y26083605D01*
X26125704Y26077291D01*
X26125703Y26077291D01*
X26154983Y26033472D01*
X26164788Y26018797D01*
X26182376Y25992476D01*
X26197266Y25982527D01*
X26212269Y25970215D01*
X30337979Y21844505D01*
X30365756Y21789988D01*
X30356185Y21729556D01*
X30312920Y21686291D01*
X30267975Y21675501D01*
X30211464Y21675501D01*
X30073378Y21634955D01*
X30073371Y21634952D01*
X29952302Y21557146D01*
X29858051Y21448373D01*
X29798263Y21317458D01*
X29777782Y21175004D01*
X29777782Y21174999D01*
X29798263Y21032545D01*
X29843238Y20934066D01*
X29858052Y20901628D01*
X29896251Y20857544D01*
X29952302Y20792857D01*
X30073371Y20715051D01*
X30073376Y20715048D01*
X30158904Y20689935D01*
X30211464Y20674502D01*
X30211465Y20674502D01*
X30211468Y20674501D01*
X30211470Y20674501D01*
X30355388Y20674501D01*
X30355390Y20674501D01*
X30493482Y20715048D01*
X30614557Y20792858D01*
X30708806Y20901628D01*
X30768594Y21032544D01*
X30768593Y21032544D01*
X30768595Y21032546D01*
X30788384Y21170188D01*
X30815379Y21225096D01*
X30869494Y21253650D01*
X30930056Y21244943D01*
X30956380Y21226104D01*
X34262297Y17920187D01*
X34290074Y17865670D01*
X34290285Y17836096D01*
X34282754Y17783703D01*
X34282753Y17783697D01*
X34303234Y17641244D01*
X34363022Y17510329D01*
X34363023Y17510327D01*
X34457272Y17401557D01*
X34457273Y17401556D01*
X34578342Y17323750D01*
X34578347Y17323747D01*
X34684803Y17292489D01*
X34716435Y17283201D01*
X34716436Y17283201D01*
X34716439Y17283200D01*
X34716441Y17283200D01*
X34860359Y17283200D01*
X34860361Y17283200D01*
X34998453Y17323747D01*
X35119528Y17401557D01*
X35213777Y17510327D01*
X35273565Y17641243D01*
X35281941Y17699501D01*
X35294047Y17783698D01*
X35294047Y17783703D01*
X35273565Y17926157D01*
X35248199Y17981700D01*
X35213777Y18057073D01*
X35119528Y18165843D01*
X35119527Y18165844D01*
X35119526Y18165845D01*
X34998457Y18243651D01*
X34998454Y18243653D01*
X34998453Y18243653D01*
X34998450Y18243654D01*
X34860364Y18284200D01*
X34860361Y18284200D01*
X34718524Y18284200D01*
X34660333Y18303107D01*
X34648520Y18313196D01*
X32583221Y20378495D01*
X32555444Y20433012D01*
X32565015Y20493444D01*
X32608280Y20536709D01*
X32612104Y20538555D01*
X32615362Y20540044D01*
X32615373Y20540047D01*
X32736448Y20617857D01*
X32830697Y20726627D01*
X32890485Y20857543D01*
X32910967Y21000000D01*
X32905575Y21037500D01*
X32890485Y21142457D01*
X32883470Y21157817D01*
X32830697Y21273373D01*
X32815310Y21291131D01*
X32791492Y21347490D01*
X32805351Y21407085D01*
X32836603Y21439244D01*
X32881127Y21467857D01*
X32975376Y21576627D01*
X32976916Y21579999D01*
X33394353Y21579999D01*
X33414834Y21437545D01*
X33468470Y21320101D01*
X33474623Y21306628D01*
X33548325Y21221571D01*
X33568873Y21197857D01*
X33687725Y21121476D01*
X33689947Y21120048D01*
X33796403Y21088790D01*
X33828035Y21079502D01*
X33828036Y21079502D01*
X33828039Y21079501D01*
X33875798Y21079501D01*
X33933989Y21060594D01*
X33945802Y21050505D01*
X36318604Y18677704D01*
X36346381Y18623187D01*
X36347600Y18607700D01*
X36347600Y15412563D01*
X36355053Y15389626D01*
X36358679Y15374526D01*
X36362454Y15350694D01*
X36373401Y15329212D01*
X36379347Y15314858D01*
X36386803Y15291912D01*
X36386802Y15291912D01*
X36400984Y15272392D01*
X36409097Y15259153D01*
X36420050Y15237658D01*
X36420051Y15237657D01*
X36440130Y15217577D01*
X36440131Y15217577D01*
X36442613Y15215095D01*
X36442616Y15215091D01*
X37191291Y14466416D01*
X37191294Y14466414D01*
X37191293Y14466414D01*
X37213856Y14443852D01*
X37213858Y14443850D01*
X37235345Y14432902D01*
X37248585Y14424789D01*
X37249923Y14423817D01*
X37285890Y14374319D01*
X37285893Y14313134D01*
X37256634Y14270255D01*
X37257034Y14269855D01*
X37254917Y14267739D01*
X37254551Y14267201D01*
X37253599Y14266420D01*
X37253592Y14266414D01*
X37122316Y14106453D01*
X37024768Y13923955D01*
X36964699Y13725935D01*
X36964698Y13725930D01*
X36944417Y13520004D01*
X36944417Y13519997D01*
X36964698Y13314071D01*
X36964699Y13314066D01*
X37024768Y13116046D01*
X37122316Y12933548D01*
X37170283Y12875100D01*
X37253590Y12773590D01*
X37253595Y12773586D01*
X37413547Y12642317D01*
X37413548Y12642317D01*
X37413550Y12642315D01*
X37596046Y12544768D01*
X37733997Y12502922D01*
X37794065Y12484700D01*
X37794070Y12484699D01*
X37999997Y12464417D01*
X38000000Y12464417D01*
X38000003Y12464417D01*
X38205929Y12484699D01*
X38205934Y12484700D01*
X38403954Y12544768D01*
X38586450Y12642315D01*
X38746410Y12773590D01*
X38877685Y12933550D01*
X38975232Y13116046D01*
X39035300Y13314066D01*
X39035301Y13314071D01*
X39055583Y13519997D01*
X39055583Y13520004D01*
X39035301Y13725930D01*
X39035300Y13725935D01*
X39017078Y13786003D01*
X38975232Y13923954D01*
X38877685Y14106450D01*
X38746410Y14266410D01*
X38722994Y14285627D01*
X38586452Y14397684D01*
X38452831Y14469107D01*
X38410425Y14513213D01*
X38400500Y14556417D01*
X38400500Y14732592D01*
X38401719Y14748080D01*
X38405492Y14771900D01*
X38399651Y14808776D01*
X38385646Y14897204D01*
X38358523Y14950434D01*
X38348952Y15010865D01*
X38376729Y15065382D01*
X38400064Y15082689D01*
X38403952Y15084768D01*
X38403954Y15084768D01*
X38586450Y15182315D01*
X38746410Y15313590D01*
X38877685Y15473550D01*
X38975232Y15656046D01*
X39035300Y15854066D01*
X39035301Y15854071D01*
X39055583Y16059997D01*
X39055583Y16060004D01*
X39035301Y16265930D01*
X39035300Y16265935D01*
X38997800Y16389556D01*
X38975232Y16463954D01*
X38877685Y16646450D01*
X38839484Y16692998D01*
X38746414Y16806405D01*
X38746410Y16806410D01*
X38746404Y16806415D01*
X38586452Y16937684D01*
X38403954Y17035232D01*
X38205934Y17095301D01*
X38205929Y17095302D01*
X38000003Y17115583D01*
X37999997Y17115583D01*
X37794070Y17095302D01*
X37794065Y17095301D01*
X37596045Y17035232D01*
X37413547Y16937684D01*
X37413547Y16937683D01*
X37310405Y16853037D01*
X37253428Y16830737D01*
X37194225Y16846186D01*
X37155410Y16893483D01*
X37148600Y16929565D01*
X37148600Y17730436D01*
X37167507Y17788627D01*
X37217007Y17824591D01*
X37278193Y17824591D01*
X37310402Y17806966D01*
X37345244Y17778372D01*
X37413547Y17722317D01*
X37413548Y17722317D01*
X37413550Y17722315D01*
X37596046Y17624768D01*
X37733997Y17582922D01*
X37794065Y17564700D01*
X37794070Y17564699D01*
X37999997Y17544417D01*
X38000000Y17544417D01*
X38000003Y17544417D01*
X38205929Y17564699D01*
X38205934Y17564700D01*
X38403954Y17624768D01*
X38586450Y17722315D01*
X38746410Y17853590D01*
X38877685Y18013550D01*
X38975232Y18196046D01*
X39035300Y18394066D01*
X39035301Y18394071D01*
X39055583Y18599997D01*
X39055583Y18600004D01*
X39035301Y18805930D01*
X39035300Y18805935D01*
X39003810Y18909743D01*
X38975232Y19003954D01*
X38877685Y19186450D01*
X38863437Y19203811D01*
X38746414Y19346405D01*
X38746410Y19346410D01*
X38746404Y19346415D01*
X38586452Y19477684D01*
X38403954Y19575232D01*
X38205934Y19635301D01*
X38205929Y19635302D01*
X38000003Y19655583D01*
X37999997Y19655583D01*
X37794070Y19635302D01*
X37794065Y19635301D01*
X37596045Y19575232D01*
X37413547Y19477684D01*
X37253595Y19346415D01*
X37253585Y19346405D01*
X37122313Y19186448D01*
X37119611Y19182403D01*
X37118534Y19183123D01*
X37078541Y19144676D01*
X37017932Y19136298D01*
X36965341Y19163751D01*
X34989096Y21139997D01*
X36944417Y21139997D01*
X36964698Y20934071D01*
X36964699Y20934066D01*
X37024768Y20736046D01*
X37122316Y20553548D01*
X37253585Y20393596D01*
X37253590Y20393590D01*
X37253595Y20393586D01*
X37413547Y20262317D01*
X37413548Y20262317D01*
X37413550Y20262315D01*
X37596046Y20164768D01*
X37698798Y20133599D01*
X37794065Y20104700D01*
X37794070Y20104699D01*
X37999997Y20084417D01*
X38000000Y20084417D01*
X38000003Y20084417D01*
X38205929Y20104699D01*
X38205934Y20104700D01*
X38211021Y20106243D01*
X38403954Y20164768D01*
X38586450Y20262315D01*
X38746410Y20393590D01*
X38877685Y20553550D01*
X38975232Y20736046D01*
X39035300Y20934066D01*
X39035301Y20934071D01*
X39055583Y21139997D01*
X39055583Y21140004D01*
X39035301Y21345930D01*
X39035300Y21345935D01*
X39004226Y21448373D01*
X38975232Y21543954D01*
X38877685Y21726450D01*
X38860031Y21747961D01*
X38746414Y21886405D01*
X38746410Y21886410D01*
X38714981Y21912203D01*
X38586452Y22017684D01*
X38403954Y22115232D01*
X38205934Y22175301D01*
X38205929Y22175302D01*
X38000003Y22195583D01*
X37999997Y22195583D01*
X37794070Y22175302D01*
X37794065Y22175301D01*
X37596045Y22115232D01*
X37413547Y22017684D01*
X37253595Y21886415D01*
X37253585Y21886405D01*
X37122316Y21726453D01*
X37024768Y21543955D01*
X36964699Y21345935D01*
X36964698Y21345930D01*
X36944417Y21140004D01*
X36944417Y21139997D01*
X34989096Y21139997D01*
X34379745Y21749348D01*
X34359698Y21778221D01*
X34325377Y21853374D01*
X34231128Y21962144D01*
X34231127Y21962145D01*
X34231126Y21962146D01*
X34110057Y22039952D01*
X34110054Y22039954D01*
X34110053Y22039954D01*
X34110050Y22039955D01*
X33971964Y22080501D01*
X33971961Y22080501D01*
X33828039Y22080501D01*
X33828035Y22080501D01*
X33689949Y22039955D01*
X33689942Y22039952D01*
X33568873Y21962146D01*
X33474622Y21853373D01*
X33414834Y21722458D01*
X33394353Y21580004D01*
X33394353Y21579999D01*
X32976916Y21579999D01*
X33035164Y21707543D01*
X33045063Y21776394D01*
X33055646Y21849998D01*
X33055646Y21850003D01*
X33035164Y21992457D01*
X33023643Y22017685D01*
X32975376Y22123373D01*
X32881127Y22232143D01*
X32881126Y22232144D01*
X32881125Y22232145D01*
X32760056Y22309951D01*
X32760053Y22309953D01*
X32760052Y22309953D01*
X32760049Y22309954D01*
X32621963Y22350500D01*
X32621960Y22350500D01*
X32478038Y22350500D01*
X32478034Y22350500D01*
X32339948Y22309954D01*
X32339941Y22309951D01*
X32218872Y22232145D01*
X32124621Y22123372D01*
X32064833Y21992457D01*
X32044352Y21850003D01*
X32044352Y21849998D01*
X32064833Y21707544D01*
X32107802Y21613457D01*
X32124622Y21576627D01*
X32140009Y21558869D01*
X32163826Y21502510D01*
X32149967Y21442915D01*
X32118713Y21410755D01*
X32074192Y21382143D01*
X31979942Y21273373D01*
X31947755Y21202894D01*
X31906382Y21157817D01*
X31846415Y21145668D01*
X31790759Y21171086D01*
X31787698Y21174018D01*
X29281719Y23679997D01*
X36944417Y23679997D01*
X36964698Y23474071D01*
X36964699Y23474066D01*
X37024768Y23276046D01*
X37122316Y23093548D01*
X37213742Y22982145D01*
X37253590Y22933590D01*
X37253595Y22933586D01*
X37413547Y22802317D01*
X37413548Y22802317D01*
X37413550Y22802315D01*
X37596046Y22704768D01*
X37733997Y22662922D01*
X37794065Y22644700D01*
X37794070Y22644699D01*
X37999997Y22624417D01*
X38000000Y22624417D01*
X38000003Y22624417D01*
X38205929Y22644699D01*
X38205934Y22644700D01*
X38403954Y22704768D01*
X38586450Y22802315D01*
X38746410Y22933590D01*
X38877685Y23093550D01*
X38975232Y23276046D01*
X39035300Y23474066D01*
X39035301Y23474071D01*
X39055583Y23679997D01*
X39055583Y23680004D01*
X39035301Y23885930D01*
X39035300Y23885935D01*
X39007381Y23977972D01*
X38975232Y24083954D01*
X38877685Y24266450D01*
X38870449Y24275267D01*
X38770413Y24397162D01*
X38746410Y24426410D01*
X38675331Y24484743D01*
X38586452Y24557684D01*
X38403954Y24655232D01*
X38205934Y24715301D01*
X38205929Y24715302D01*
X38000003Y24735583D01*
X37999997Y24735583D01*
X37794070Y24715302D01*
X37794065Y24715301D01*
X37596045Y24655232D01*
X37413547Y24557684D01*
X37253595Y24426415D01*
X37253585Y24426405D01*
X37122316Y24266453D01*
X37024768Y24083955D01*
X36964699Y23885935D01*
X36964698Y23885930D01*
X36944417Y23680004D01*
X36944417Y23679997D01*
X29281719Y23679997D01*
X27763618Y25198098D01*
X29488653Y25198098D01*
X29509134Y25055644D01*
X29565734Y24931709D01*
X29568923Y24924727D01*
X29639664Y24843087D01*
X29663173Y24815956D01*
X29784242Y24738150D01*
X29784247Y24738147D01*
X29862058Y24715300D01*
X29922335Y24697601D01*
X29922336Y24697601D01*
X29922339Y24697600D01*
X29922341Y24697600D01*
X30066259Y24697600D01*
X30066261Y24697600D01*
X30204353Y24738147D01*
X30325428Y24815957D01*
X30419677Y24924727D01*
X30479465Y25055643D01*
X30489673Y25126643D01*
X30499947Y25198098D01*
X30499947Y25198103D01*
X30483305Y25313850D01*
X34075526Y25313850D01*
X34096007Y25171396D01*
X34148870Y25055644D01*
X34155796Y25040479D01*
X34217609Y24969143D01*
X34250046Y24931708D01*
X34371115Y24853902D01*
X34371120Y24853899D01*
X34477576Y24822641D01*
X34509208Y24813353D01*
X34509209Y24813353D01*
X34509212Y24813352D01*
X34509214Y24813352D01*
X34653132Y24813352D01*
X34653134Y24813352D01*
X34791226Y24853899D01*
X34912301Y24931709D01*
X35006550Y25040479D01*
X35066338Y25171395D01*
X35076887Y25244768D01*
X35086820Y25313850D01*
X35086820Y25313855D01*
X35066338Y25456309D01*
X35013707Y25571553D01*
X35006550Y25587225D01*
X34912301Y25695995D01*
X34912300Y25695996D01*
X34912299Y25695997D01*
X34791230Y25773803D01*
X34791227Y25773805D01*
X34791226Y25773805D01*
X34791223Y25773806D01*
X34653137Y25814352D01*
X34653134Y25814352D01*
X34509212Y25814352D01*
X34509208Y25814352D01*
X34371122Y25773806D01*
X34371115Y25773803D01*
X34250046Y25695997D01*
X34155795Y25587224D01*
X34096007Y25456309D01*
X34075526Y25313855D01*
X34075526Y25313850D01*
X30483305Y25313850D01*
X30479465Y25340557D01*
X30461624Y25379622D01*
X30419677Y25471473D01*
X30325428Y25580243D01*
X30325427Y25580244D01*
X30325426Y25580245D01*
X30204357Y25658051D01*
X30204354Y25658053D01*
X30204353Y25658053D01*
X30204350Y25658054D01*
X30066264Y25698600D01*
X30066261Y25698600D01*
X29922339Y25698600D01*
X29922335Y25698600D01*
X29784249Y25658054D01*
X29784242Y25658051D01*
X29663173Y25580245D01*
X29568922Y25471472D01*
X29509134Y25340557D01*
X29488653Y25198103D01*
X29488653Y25198098D01*
X27763618Y25198098D01*
X26741719Y26219997D01*
X36944417Y26219997D01*
X36964698Y26014071D01*
X36964699Y26014066D01*
X37004957Y25881355D01*
X37024768Y25816046D01*
X37075929Y25720331D01*
X37122316Y25633548D01*
X37173194Y25571553D01*
X37253590Y25473590D01*
X37253595Y25473586D01*
X37413547Y25342317D01*
X37413548Y25342317D01*
X37413550Y25342315D01*
X37596046Y25244768D01*
X37728945Y25204454D01*
X37794065Y25184700D01*
X37794070Y25184699D01*
X37999997Y25164417D01*
X38000000Y25164417D01*
X38000003Y25164417D01*
X38205929Y25184699D01*
X38205934Y25184700D01*
X38403954Y25244768D01*
X38586450Y25342315D01*
X38746410Y25473590D01*
X38877685Y25633550D01*
X38975232Y25816046D01*
X39035300Y26014066D01*
X39035301Y26014071D01*
X39055583Y26219997D01*
X39055583Y26220004D01*
X39035301Y26425930D01*
X39035300Y26425935D01*
X39008185Y26515320D01*
X38975232Y26623954D01*
X38877685Y26806450D01*
X38863578Y26823639D01*
X38746414Y26966405D01*
X38746410Y26966410D01*
X38740514Y26971249D01*
X38586452Y27097684D01*
X38403954Y27195232D01*
X38205934Y27255301D01*
X38205929Y27255302D01*
X38000003Y27275583D01*
X37999997Y27275583D01*
X37794070Y27255302D01*
X37794065Y27255301D01*
X37596045Y27195232D01*
X37413547Y27097684D01*
X37253595Y26966415D01*
X37253585Y26966405D01*
X37122316Y26806453D01*
X37024768Y26623955D01*
X36964699Y26425935D01*
X36964698Y26425930D01*
X36944417Y26220004D01*
X36944417Y26219997D01*
X26741719Y26219997D01*
X26685496Y26276220D01*
X26657719Y26330737D01*
X26656500Y26346224D01*
X26656500Y28040398D01*
X34430653Y28040398D01*
X34451134Y27897944D01*
X34502820Y27784769D01*
X34510923Y27767027D01*
X34605112Y27658326D01*
X34605173Y27658256D01*
X34712871Y27589043D01*
X34726247Y27580447D01*
X34832703Y27549189D01*
X34864335Y27539901D01*
X34864336Y27539901D01*
X34864339Y27539900D01*
X34864341Y27539900D01*
X35008259Y27539900D01*
X35008261Y27539900D01*
X35146353Y27580447D01*
X35267428Y27658257D01*
X35330891Y27731498D01*
X36011453Y27731498D01*
X36031934Y27589044D01*
X36079918Y27483976D01*
X36091723Y27458127D01*
X36173023Y27364301D01*
X36185973Y27349356D01*
X36257686Y27303269D01*
X36307047Y27271547D01*
X36413503Y27240289D01*
X36445135Y27231001D01*
X36445136Y27231001D01*
X36445139Y27231000D01*
X36445141Y27231000D01*
X36589059Y27231000D01*
X36589061Y27231000D01*
X36727153Y27271547D01*
X36848228Y27349357D01*
X36942477Y27458127D01*
X37002265Y27589043D01*
X37021769Y27724699D01*
X37022747Y27731498D01*
X37022747Y27731503D01*
X37002265Y27873957D01*
X36987096Y27907172D01*
X36942477Y28004873D01*
X36848228Y28113643D01*
X36848227Y28113644D01*
X36848226Y28113645D01*
X36727157Y28191451D01*
X36727154Y28191453D01*
X36727153Y28191453D01*
X36727150Y28191454D01*
X36589064Y28232000D01*
X36589061Y28232000D01*
X36445139Y28232000D01*
X36445135Y28232000D01*
X36307049Y28191454D01*
X36307042Y28191451D01*
X36185973Y28113645D01*
X36091722Y28004872D01*
X36031934Y27873957D01*
X36011453Y27731503D01*
X36011453Y27731498D01*
X35330891Y27731498D01*
X35361677Y27767027D01*
X35421465Y27897943D01*
X35437309Y28008140D01*
X35441947Y28040398D01*
X35441947Y28040403D01*
X35421465Y28182857D01*
X35415451Y28196026D01*
X35361677Y28313773D01*
X35267428Y28422543D01*
X35267427Y28422544D01*
X35267426Y28422545D01*
X35146357Y28500351D01*
X35146354Y28500353D01*
X35146353Y28500353D01*
X35146350Y28500354D01*
X35008264Y28540900D01*
X35008261Y28540900D01*
X34864339Y28540900D01*
X34864335Y28540900D01*
X34726249Y28500354D01*
X34726242Y28500351D01*
X34605173Y28422545D01*
X34510922Y28313772D01*
X34451134Y28182857D01*
X34430653Y28040403D01*
X34430653Y28040398D01*
X26656500Y28040398D01*
X26656500Y28759997D01*
X36944417Y28759997D01*
X36964698Y28554071D01*
X36964699Y28554066D01*
X37024768Y28356046D01*
X37122316Y28173548D01*
X37247752Y28020704D01*
X37253590Y28013590D01*
X37253595Y28013586D01*
X37413547Y27882317D01*
X37413548Y27882317D01*
X37413550Y27882315D01*
X37596046Y27784768D01*
X37733997Y27742922D01*
X37794065Y27724700D01*
X37794070Y27724699D01*
X37999997Y27704417D01*
X38000000Y27704417D01*
X38000003Y27704417D01*
X38205929Y27724699D01*
X38205934Y27724700D01*
X38228344Y27731498D01*
X38403954Y27784768D01*
X38586450Y27882315D01*
X38746410Y28013590D01*
X38877685Y28173550D01*
X38975232Y28356046D01*
X39035300Y28554066D01*
X39035301Y28554071D01*
X39055583Y28759997D01*
X39055583Y28760004D01*
X39035301Y28965930D01*
X39035300Y28965935D01*
X38998828Y29086166D01*
X38975232Y29163954D01*
X38877685Y29346450D01*
X38852390Y29377272D01*
X38746414Y29506405D01*
X38746410Y29506410D01*
X38711806Y29534809D01*
X38586452Y29637684D01*
X38403954Y29735232D01*
X38205934Y29795301D01*
X38205929Y29795302D01*
X38000003Y29815583D01*
X37999997Y29815583D01*
X37794070Y29795302D01*
X37794065Y29795301D01*
X37596045Y29735232D01*
X37413547Y29637684D01*
X37253595Y29506415D01*
X37253585Y29506405D01*
X37122316Y29346453D01*
X37024768Y29163955D01*
X36964699Y28965935D01*
X36964698Y28965930D01*
X36944417Y28760004D01*
X36944417Y28759997D01*
X26656500Y28759997D01*
X26656500Y29377221D01*
X26658402Y29396535D01*
X26659414Y29401622D01*
X26661896Y29414100D01*
X26657449Y29436455D01*
X26657447Y29436473D01*
X26649008Y29478898D01*
X27004653Y29478898D01*
X27025134Y29336444D01*
X27060513Y29258976D01*
X27084923Y29205527D01*
X27120946Y29163954D01*
X27179173Y29096756D01*
X27300242Y29018950D01*
X27300247Y29018947D01*
X27399320Y28989857D01*
X27438335Y28978401D01*
X27438336Y28978401D01*
X27438339Y28978400D01*
X27438341Y28978400D01*
X27582259Y28978400D01*
X27582261Y28978400D01*
X27720353Y29018947D01*
X27841428Y29096757D01*
X27935677Y29205527D01*
X27995465Y29336443D01*
X28006630Y29414100D01*
X28015947Y29478898D01*
X28015947Y29478903D01*
X27995465Y29621357D01*
X27957737Y29703968D01*
X27935677Y29752273D01*
X27841428Y29861043D01*
X27841427Y29861044D01*
X27841426Y29861045D01*
X27720357Y29938851D01*
X27720354Y29938853D01*
X27720353Y29938853D01*
X27720350Y29938854D01*
X27582264Y29979400D01*
X27582261Y29979400D01*
X27438339Y29979400D01*
X27438335Y29979400D01*
X27300249Y29938854D01*
X27300242Y29938851D01*
X27179173Y29861045D01*
X27084922Y29752272D01*
X27025134Y29621357D01*
X27004653Y29478903D01*
X27004653Y29478898D01*
X26649008Y29478898D01*
X26640515Y29521594D01*
X26640515Y29521595D01*
X26627292Y29541385D01*
X26594994Y29589722D01*
X26592292Y29593766D01*
X26592292Y29593767D01*
X26592288Y29593771D01*
X26579627Y29612720D01*
X26579626Y29612721D01*
X26579624Y29612724D01*
X26564733Y29622674D01*
X26549731Y29634985D01*
X25775195Y30409521D01*
X25747418Y30464038D01*
X25756989Y30524470D01*
X25800254Y30567735D01*
X25860686Y30577306D01*
X25873090Y30574515D01*
X25907535Y30564401D01*
X25907536Y30564401D01*
X25907539Y30564400D01*
X25907541Y30564400D01*
X26051459Y30564400D01*
X26051461Y30564400D01*
X26189553Y30604947D01*
X26310628Y30682757D01*
X26404877Y30791527D01*
X26464665Y30922443D01*
X26471492Y30969929D01*
X26485147Y31064898D01*
X26485147Y31064903D01*
X26464665Y31207357D01*
X26431365Y31280273D01*
X26404877Y31338273D01*
X26310628Y31447043D01*
X26300475Y31453568D01*
X26261745Y31500933D01*
X26255000Y31536851D01*
X26255000Y32972298D01*
X26591203Y32972298D01*
X26595643Y32949970D01*
X26595651Y32949938D01*
X26596600Y32945168D01*
X26596600Y32945167D01*
X26612585Y32864805D01*
X26612586Y32864804D01*
X26612586Y32864803D01*
X26632157Y32835514D01*
X26632158Y32835512D01*
X26655552Y32800500D01*
X26677345Y32767885D01*
X26693954Y32708997D01*
X26693023Y32698796D01*
X26686354Y32652403D01*
X26686353Y32652398D01*
X26706834Y32509944D01*
X26764981Y32382622D01*
X26766623Y32379027D01*
X26837680Y32297022D01*
X26860873Y32270256D01*
X26906619Y32240857D01*
X26981947Y32192447D01*
X27088403Y32161189D01*
X27120035Y32151901D01*
X27120036Y32151901D01*
X27120039Y32151900D01*
X27120041Y32151900D01*
X27263959Y32151900D01*
X27263961Y32151900D01*
X27402053Y32192447D01*
X27523128Y32270257D01*
X27617377Y32379027D01*
X27677165Y32509943D01*
X27697647Y32652400D01*
X27690976Y32698796D01*
X27677165Y32794857D01*
X27665798Y32819747D01*
X27617377Y32925773D01*
X27523128Y33034543D01*
X27523127Y33034544D01*
X27523126Y33034545D01*
X27402057Y33112351D01*
X27402054Y33112353D01*
X27402053Y33112353D01*
X27402050Y33112354D01*
X27263964Y33152900D01*
X27263961Y33152900D01*
X27246600Y33152900D01*
X27188409Y33171807D01*
X27152445Y33221307D01*
X27147600Y33251900D01*
X27147600Y33942821D01*
X27166507Y34001012D01*
X27216007Y34036976D01*
X27274489Y34037811D01*
X27377039Y34007700D01*
X27377041Y34007700D01*
X27520959Y34007700D01*
X27520961Y34007700D01*
X27659053Y34048247D01*
X27780128Y34126057D01*
X27874377Y34234827D01*
X27934165Y34365743D01*
X27946326Y34450327D01*
X27954647Y34508198D01*
X27954647Y34508200D01*
X27954005Y34512667D01*
X27947113Y34560596D01*
X27957545Y34620881D01*
X27975098Y34644684D01*
X28401233Y35070819D01*
X28416229Y35083125D01*
X28431124Y35093076D01*
X28492015Y35184205D01*
X28508000Y35264567D01*
X28508000Y35264568D01*
X28513397Y35291700D01*
X28509902Y35309273D01*
X28508000Y35328585D01*
X28508000Y37386649D01*
X28526907Y37444840D01*
X28553478Y37469934D01*
X28554623Y37470671D01*
X28563628Y37476457D01*
X28657877Y37585227D01*
X28717665Y37716143D01*
X28730030Y37802145D01*
X28738147Y37858598D01*
X28738147Y37858603D01*
X28717665Y38001057D01*
X28683427Y38076026D01*
X28657877Y38131973D01*
X28563628Y38240743D01*
X28563627Y38240744D01*
X28563626Y38240745D01*
X28442557Y38318551D01*
X28442554Y38318553D01*
X28442553Y38318553D01*
X28442550Y38318554D01*
X28304464Y38359100D01*
X28304461Y38359100D01*
X28160539Y38359100D01*
X28160535Y38359100D01*
X28022449Y38318554D01*
X28022442Y38318551D01*
X27901373Y38240745D01*
X27807122Y38131972D01*
X27747334Y38001057D01*
X27726853Y37858603D01*
X27726853Y37858598D01*
X27747334Y37716144D01*
X27762314Y37683343D01*
X27807123Y37585227D01*
X27901372Y37476457D01*
X27909463Y37471257D01*
X27911522Y37469934D01*
X27950254Y37422568D01*
X27957000Y37386649D01*
X27957000Y35446824D01*
X27938093Y35388633D01*
X27928004Y35376821D01*
X27588878Y35037696D01*
X27534363Y35009919D01*
X27518876Y35008700D01*
X27377035Y35008700D01*
X27274491Y34978590D01*
X27213331Y34980338D01*
X27164878Y35017701D01*
X27147600Y35073580D01*
X27147600Y35947700D01*
X27166507Y36005891D01*
X27216007Y36041855D01*
X27246600Y36046700D01*
X27263959Y36046700D01*
X27263961Y36046700D01*
X27402053Y36087247D01*
X27523128Y36165057D01*
X27617377Y36273827D01*
X27677165Y36404743D01*
X27692327Y36510200D01*
X27697647Y36547198D01*
X27697647Y36547203D01*
X27677165Y36689657D01*
X27639051Y36773114D01*
X27617377Y36820573D01*
X27523128Y36929343D01*
X27523127Y36929344D01*
X27523126Y36929345D01*
X27402057Y37007151D01*
X27402054Y37007153D01*
X27402053Y37007153D01*
X27387000Y37011573D01*
X27263964Y37047700D01*
X27263961Y37047700D01*
X27120039Y37047700D01*
X27120035Y37047700D01*
X26981949Y37007154D01*
X26981942Y37007151D01*
X26860873Y36929345D01*
X26766622Y36820572D01*
X26706834Y36689657D01*
X26686353Y36547203D01*
X26686353Y36547199D01*
X26693023Y36500806D01*
X26682590Y36440517D01*
X26677346Y36431715D01*
X26612585Y36334796D01*
X26611163Y36330107D01*
X26610683Y36325232D01*
X26593884Y36240776D01*
X26591203Y36227300D01*
X26591579Y36225408D01*
X26594698Y36209731D01*
X26596600Y36190417D01*
X26596600Y33009185D01*
X26594698Y32989873D01*
X26591203Y32972301D01*
X26591203Y32972298D01*
X26255000Y32972298D01*
X26255000Y36237017D01*
X26256902Y36256331D01*
X26260397Y36273900D01*
X26248859Y36331905D01*
X26248284Y36334794D01*
X26239015Y36381395D01*
X26223414Y36404743D01*
X26200257Y36439400D01*
X26193494Y36449522D01*
X26193492Y36449524D01*
X26190794Y36453562D01*
X26190794Y36453563D01*
X26190791Y36453566D01*
X26178125Y36472522D01*
X26178124Y36472524D01*
X26172495Y36476285D01*
X26163233Y36482474D01*
X26148231Y36494785D01*
X25406596Y37236420D01*
X25378819Y37290937D01*
X25377600Y37306424D01*
X25377600Y39019998D01*
X26494353Y39019998D01*
X26514834Y38877544D01*
X26555402Y38788714D01*
X26574623Y38746627D01*
X26668872Y38637857D01*
X26668873Y38637856D01*
X26784507Y38563543D01*
X26789947Y38560047D01*
X26870469Y38536404D01*
X26928035Y38519501D01*
X26928036Y38519501D01*
X26928039Y38519500D01*
X26928041Y38519500D01*
X27071959Y38519500D01*
X27071961Y38519500D01*
X27210053Y38560047D01*
X27331128Y38637857D01*
X27425377Y38746627D01*
X27485165Y38877543D01*
X27505647Y39020000D01*
X27503236Y39036767D01*
X27485165Y39162457D01*
X27444567Y39251353D01*
X27425377Y39293373D01*
X27331128Y39402143D01*
X27331127Y39402144D01*
X27331126Y39402145D01*
X27210057Y39479951D01*
X27210054Y39479953D01*
X27210053Y39479953D01*
X27210050Y39479954D01*
X27071964Y39520500D01*
X27071961Y39520500D01*
X26928039Y39520500D01*
X26928035Y39520500D01*
X26789949Y39479954D01*
X26789942Y39479951D01*
X26668873Y39402145D01*
X26574622Y39293372D01*
X26514834Y39162457D01*
X26494353Y39020003D01*
X26494353Y39019998D01*
X25377600Y39019998D01*
X25377600Y41089449D01*
X25396507Y41147640D01*
X25423078Y41172734D01*
X25424223Y41173471D01*
X25433228Y41179257D01*
X25527477Y41288027D01*
X25561853Y41363300D01*
X25603223Y41408375D01*
X25663190Y41420526D01*
X25718846Y41395108D01*
X25721909Y41392175D01*
X35178604Y31935480D01*
X35206381Y31880963D01*
X35196810Y31820531D01*
X35153545Y31777266D01*
X35147548Y31774882D01*
X35147588Y31774794D01*
X35141142Y31771851D01*
X35020073Y31694045D01*
X34925822Y31585272D01*
X34866034Y31454357D01*
X34845553Y31311903D01*
X34845553Y31311898D01*
X34866034Y31169444D01*
X34918095Y31055448D01*
X34925823Y31038527D01*
X35009866Y30941536D01*
X35020073Y30929756D01*
X35125907Y30861741D01*
X35141147Y30851947D01*
X35229175Y30826100D01*
X35279235Y30811401D01*
X35279236Y30811401D01*
X35279239Y30811400D01*
X35279241Y30811400D01*
X35423159Y30811400D01*
X35423161Y30811400D01*
X35561253Y30851947D01*
X35682328Y30929757D01*
X35776577Y31038527D01*
X35811078Y31114074D01*
X35852448Y31159149D01*
X35912414Y31171301D01*
X35968071Y31145884D01*
X35971134Y31142950D01*
X35982815Y31131269D01*
X35995126Y31116267D01*
X36005076Y31101376D01*
X36005079Y31101374D01*
X36005080Y31101373D01*
X36024028Y31088712D01*
X36024036Y31088707D01*
X36027877Y31086141D01*
X36028076Y31086008D01*
X36028078Y31086006D01*
X36036682Y31080258D01*
X36036688Y31080250D01*
X36036690Y31080252D01*
X36096205Y31040485D01*
X36176567Y31024500D01*
X36176568Y31024500D01*
X36203700Y31019103D01*
X36221270Y31022599D01*
X36240584Y31024500D01*
X36912379Y31024500D01*
X36970570Y31005593D01*
X37006534Y30956093D01*
X37007116Y30954238D01*
X37024768Y30896046D01*
X37122316Y30713548D01*
X37253585Y30553596D01*
X37253590Y30553590D01*
X37253595Y30553586D01*
X37413547Y30422317D01*
X37413548Y30422317D01*
X37413550Y30422315D01*
X37596046Y30324768D01*
X37733997Y30282922D01*
X37794065Y30264700D01*
X37794070Y30264699D01*
X37999997Y30244417D01*
X38000000Y30244417D01*
X38000003Y30244417D01*
X38205929Y30264699D01*
X38205934Y30264700D01*
X38229297Y30271787D01*
X38403954Y30324768D01*
X38586450Y30422315D01*
X38746410Y30553590D01*
X38877685Y30713550D01*
X38975232Y30896046D01*
X39035300Y31094066D01*
X39035301Y31094071D01*
X39055583Y31299997D01*
X39055583Y31300004D01*
X39035301Y31505930D01*
X39035300Y31505935D01*
X39005402Y31604496D01*
X38975232Y31703954D01*
X38877685Y31886450D01*
X38870984Y31894615D01*
X38746414Y32046405D01*
X38746410Y32046410D01*
X38683056Y32098403D01*
X38586452Y32177684D01*
X38403954Y32275232D01*
X38205934Y32335301D01*
X38205929Y32335302D01*
X38000003Y32355583D01*
X37999997Y32355583D01*
X37794070Y32335302D01*
X37794065Y32335301D01*
X37596045Y32275232D01*
X37413547Y32177684D01*
X37253595Y32046415D01*
X37253585Y32046405D01*
X37122316Y31886453D01*
X37024768Y31703955D01*
X37007116Y31645762D01*
X36972131Y31595565D01*
X36914323Y31575519D01*
X36912379Y31575500D01*
X36358824Y31575500D01*
X36300633Y31594407D01*
X36288820Y31604496D01*
X34053319Y33839997D01*
X36944417Y33839997D01*
X36964698Y33634071D01*
X36964699Y33634066D01*
X37024768Y33436046D01*
X37122316Y33253548D01*
X37152184Y33217154D01*
X37253590Y33093590D01*
X37253595Y33093586D01*
X37413547Y32962317D01*
X37413548Y32962317D01*
X37413550Y32962315D01*
X37596046Y32864768D01*
X37733997Y32822922D01*
X37794065Y32804700D01*
X37794070Y32804699D01*
X37999997Y32784417D01*
X38000000Y32784417D01*
X38000003Y32784417D01*
X38205929Y32804699D01*
X38205934Y32804700D01*
X38403954Y32864768D01*
X38586450Y32962315D01*
X38746410Y33093590D01*
X38877685Y33253550D01*
X38975232Y33436046D01*
X39035300Y33634066D01*
X39035301Y33634071D01*
X39055583Y33839997D01*
X39055583Y33840004D01*
X39035301Y34045930D01*
X39035300Y34045935D01*
X39016790Y34106953D01*
X38975232Y34243954D01*
X38877685Y34426450D01*
X38858088Y34450329D01*
X38746414Y34586405D01*
X38746410Y34586410D01*
X38675399Y34644687D01*
X38586452Y34717684D01*
X38403954Y34815232D01*
X38205934Y34875301D01*
X38205929Y34875302D01*
X38000003Y34895583D01*
X37999997Y34895583D01*
X37794070Y34875302D01*
X37794065Y34875301D01*
X37596045Y34815232D01*
X37413547Y34717684D01*
X37253595Y34586415D01*
X37253585Y34586405D01*
X37122316Y34426453D01*
X37024768Y34243955D01*
X36964699Y34045935D01*
X36964698Y34045930D01*
X36944417Y33840004D01*
X36944417Y33839997D01*
X34053319Y33839997D01*
X31513319Y36379997D01*
X36944417Y36379997D01*
X36964698Y36174071D01*
X36964699Y36174066D01*
X37024768Y35976046D01*
X37122316Y35793548D01*
X37218972Y35675772D01*
X37253590Y35633590D01*
X37270178Y35619977D01*
X37413547Y35502317D01*
X37413548Y35502317D01*
X37413550Y35502315D01*
X37596046Y35404768D01*
X37710039Y35370189D01*
X37794065Y35344700D01*
X37794070Y35344699D01*
X37999997Y35324417D01*
X38000000Y35324417D01*
X38000003Y35324417D01*
X38205929Y35344699D01*
X38205934Y35344700D01*
X38244827Y35356498D01*
X38403954Y35404768D01*
X38586450Y35502315D01*
X38746410Y35633590D01*
X38877685Y35793550D01*
X38975232Y35976046D01*
X39035300Y36174066D01*
X39035301Y36174071D01*
X39055583Y36379997D01*
X39055583Y36380004D01*
X39035301Y36585930D01*
X39035300Y36585935D01*
X39003836Y36689657D01*
X38975232Y36783954D01*
X38877685Y36966450D01*
X38873427Y36971638D01*
X38746414Y37126405D01*
X38746410Y37126410D01*
X38730409Y37139542D01*
X38586452Y37257684D01*
X38403954Y37355232D01*
X38205934Y37415301D01*
X38205929Y37415302D01*
X38000003Y37435583D01*
X37999997Y37435583D01*
X37794070Y37415302D01*
X37794065Y37415301D01*
X37596045Y37355232D01*
X37413547Y37257684D01*
X37253595Y37126415D01*
X37253585Y37126405D01*
X37122316Y36966453D01*
X37024768Y36783955D01*
X36964699Y36585935D01*
X36964698Y36585930D01*
X36944417Y36380004D01*
X36944417Y36379997D01*
X31513319Y36379997D01*
X28973319Y38919997D01*
X36944417Y38919997D01*
X36964698Y38714071D01*
X36964699Y38714066D01*
X37024768Y38516046D01*
X37122316Y38333548D01*
X37247776Y38180674D01*
X37253590Y38173590D01*
X37253595Y38173586D01*
X37413547Y38042317D01*
X37413548Y38042317D01*
X37413550Y38042315D01*
X37596046Y37944768D01*
X37689294Y37916482D01*
X37794065Y37884700D01*
X37794070Y37884699D01*
X37999997Y37864417D01*
X38000000Y37864417D01*
X38000003Y37864417D01*
X38205929Y37884699D01*
X38205934Y37884700D01*
X38234891Y37893484D01*
X38403954Y37944768D01*
X38586450Y38042315D01*
X38746410Y38173590D01*
X38877685Y38333550D01*
X38975232Y38516046D01*
X39035300Y38714066D01*
X39035301Y38714071D01*
X39055583Y38919997D01*
X39055583Y38920004D01*
X39035301Y39125930D01*
X39035300Y39125935D01*
X39010421Y39207950D01*
X38975232Y39323954D01*
X38877685Y39506450D01*
X38873871Y39511097D01*
X38746414Y39666405D01*
X38746410Y39666410D01*
X38728637Y39680996D01*
X38586452Y39797684D01*
X38403954Y39895232D01*
X38205934Y39955301D01*
X38205929Y39955302D01*
X38000003Y39975583D01*
X37999997Y39975583D01*
X37794070Y39955302D01*
X37794065Y39955301D01*
X37596045Y39895232D01*
X37413547Y39797684D01*
X37253595Y39666415D01*
X37253585Y39666405D01*
X37122316Y39506453D01*
X37024768Y39323955D01*
X36964699Y39125935D01*
X36964698Y39125930D01*
X36944417Y38920004D01*
X36944417Y38919997D01*
X28973319Y38919997D01*
X27140218Y40753098D01*
X28159953Y40753098D01*
X28180434Y40610644D01*
X28237920Y40484769D01*
X28240223Y40479727D01*
X28288838Y40423622D01*
X28334473Y40370956D01*
X28375162Y40344807D01*
X28455547Y40293147D01*
X28553257Y40264457D01*
X28593635Y40252601D01*
X28593636Y40252601D01*
X28593639Y40252600D01*
X28593641Y40252600D01*
X28737559Y40252600D01*
X28737561Y40252600D01*
X28875653Y40293147D01*
X28996728Y40370957D01*
X29090977Y40479727D01*
X29150765Y40610643D01*
X29165566Y40713586D01*
X29171247Y40753098D01*
X29171247Y40753103D01*
X29150765Y40895557D01*
X29140767Y40917450D01*
X29090977Y41026473D01*
X28996728Y41135243D01*
X28996727Y41135244D01*
X28996726Y41135245D01*
X28875657Y41213051D01*
X28875654Y41213053D01*
X28875653Y41213053D01*
X28875650Y41213054D01*
X28737564Y41253600D01*
X28737561Y41253600D01*
X28593639Y41253600D01*
X28593635Y41253600D01*
X28455549Y41213054D01*
X28455542Y41213051D01*
X28334473Y41135245D01*
X28240222Y41026472D01*
X28180434Y40895557D01*
X28159953Y40753103D01*
X28159953Y40753098D01*
X27140218Y40753098D01*
X26522762Y41370554D01*
X27088467Y41370554D01*
X27108948Y41228100D01*
X27165611Y41104027D01*
X27168737Y41097183D01*
X27244152Y41010149D01*
X27262987Y40988412D01*
X27375484Y40916115D01*
X27384061Y40910603D01*
X27490517Y40879345D01*
X27522149Y40870057D01*
X27522150Y40870057D01*
X27522153Y40870056D01*
X27522155Y40870056D01*
X27666073Y40870056D01*
X27666075Y40870056D01*
X27804167Y40910603D01*
X27925242Y40988413D01*
X28019491Y41097183D01*
X28079279Y41228099D01*
X28087895Y41288027D01*
X28099761Y41370554D01*
X28099761Y41370559D01*
X28086902Y41459997D01*
X36944417Y41459997D01*
X36964698Y41254071D01*
X36964699Y41254066D01*
X37024768Y41056046D01*
X37122316Y40873548D01*
X37221165Y40753100D01*
X37253590Y40713590D01*
X37253595Y40713586D01*
X37413547Y40582317D01*
X37413548Y40582317D01*
X37413550Y40582315D01*
X37596046Y40484768D01*
X37733997Y40442922D01*
X37794065Y40424700D01*
X37794070Y40424699D01*
X37999997Y40404417D01*
X38000000Y40404417D01*
X38000003Y40404417D01*
X38205929Y40424699D01*
X38205934Y40424700D01*
X38403954Y40484768D01*
X38586450Y40582315D01*
X38746410Y40713590D01*
X38877685Y40873550D01*
X38975232Y41056046D01*
X39035300Y41254066D01*
X39035301Y41254071D01*
X39055583Y41459997D01*
X39055583Y41460004D01*
X39035301Y41665930D01*
X39035300Y41665935D01*
X39009951Y41749500D01*
X38975232Y41863954D01*
X38877685Y42046450D01*
X38874818Y42049943D01*
X38746414Y42206405D01*
X38746410Y42206410D01*
X38693295Y42250000D01*
X38586452Y42337684D01*
X38403954Y42435232D01*
X38205934Y42495301D01*
X38205929Y42495302D01*
X38000003Y42515583D01*
X37999997Y42515583D01*
X37794070Y42495302D01*
X37794065Y42495301D01*
X37596045Y42435232D01*
X37413547Y42337684D01*
X37253595Y42206415D01*
X37253585Y42206405D01*
X37122316Y42046453D01*
X37024768Y41863955D01*
X36964699Y41665935D01*
X36964698Y41665930D01*
X36944417Y41460004D01*
X36944417Y41459997D01*
X28086902Y41459997D01*
X28079279Y41513013D01*
X28076153Y41519857D01*
X28019491Y41643929D01*
X27925242Y41752699D01*
X27925241Y41752700D01*
X27925240Y41752701D01*
X27804171Y41830507D01*
X27804168Y41830509D01*
X27804167Y41830509D01*
X27804164Y41830510D01*
X27666078Y41871056D01*
X27666075Y41871056D01*
X27522153Y41871056D01*
X27522149Y41871056D01*
X27384063Y41830510D01*
X27384056Y41830507D01*
X27262987Y41752701D01*
X27168736Y41643928D01*
X27108948Y41513013D01*
X27088467Y41370559D01*
X27088467Y41370554D01*
X26522762Y41370554D01*
X23895418Y43997898D01*
X25691553Y43997898D01*
X25712034Y43855444D01*
X25733146Y43809217D01*
X25771823Y43724527D01*
X25819762Y43669202D01*
X25866073Y43615756D01*
X25960456Y43555100D01*
X25987147Y43537947D01*
X26093603Y43506689D01*
X26125235Y43497401D01*
X26125236Y43497401D01*
X26125239Y43497400D01*
X26125241Y43497400D01*
X26269159Y43497400D01*
X26269161Y43497400D01*
X26407253Y43537947D01*
X26433941Y43555098D01*
X32176953Y43555098D01*
X32197434Y43412644D01*
X32206863Y43391998D01*
X32257223Y43281727D01*
X32351472Y43172957D01*
X32351473Y43172956D01*
X32464597Y43100256D01*
X32472547Y43095147D01*
X32552173Y43071767D01*
X32610635Y43054601D01*
X32610636Y43054601D01*
X32610639Y43054600D01*
X32610641Y43054600D01*
X32754559Y43054600D01*
X32754561Y43054600D01*
X32892653Y43095147D01*
X32947281Y43130254D01*
X36949500Y43130254D01*
X36949501Y43130242D01*
X36961132Y43071773D01*
X36961133Y43071769D01*
X37005448Y43005448D01*
X37071769Y42961133D01*
X37116231Y42952289D01*
X37130241Y42949502D01*
X37130246Y42949502D01*
X37130252Y42949500D01*
X37130253Y42949500D01*
X38869747Y42949500D01*
X38869748Y42949500D01*
X38928231Y42961133D01*
X38994552Y43005448D01*
X39038867Y43071769D01*
X39050500Y43130252D01*
X39050500Y44869748D01*
X39038867Y44928231D01*
X38994552Y44994552D01*
X38935744Y45033847D01*
X38928233Y45038866D01*
X38928231Y45038867D01*
X38928228Y45038868D01*
X38928227Y45038868D01*
X38869758Y45050499D01*
X38869748Y45050500D01*
X37130252Y45050500D01*
X37130251Y45050500D01*
X37130241Y45050499D01*
X37071772Y45038868D01*
X37071766Y45038866D01*
X37005451Y44994555D01*
X37005445Y44994549D01*
X36961134Y44928234D01*
X36961132Y44928228D01*
X36949501Y44869759D01*
X36949500Y44869747D01*
X36949500Y43130254D01*
X32947281Y43130254D01*
X33013728Y43172957D01*
X33107977Y43281727D01*
X33167765Y43412643D01*
X33188247Y43555100D01*
X33167765Y43697557D01*
X33107977Y43828473D01*
X33013728Y43937243D01*
X33013727Y43937244D01*
X33013726Y43937245D01*
X32892657Y44015051D01*
X32892654Y44015053D01*
X32892653Y44015053D01*
X32892650Y44015054D01*
X32754564Y44055600D01*
X32754561Y44055600D01*
X32610639Y44055600D01*
X32610635Y44055600D01*
X32472549Y44015054D01*
X32472542Y44015051D01*
X32351473Y43937245D01*
X32257222Y43828472D01*
X32197434Y43697557D01*
X32176953Y43555103D01*
X32176953Y43555098D01*
X26433941Y43555098D01*
X26528328Y43615757D01*
X26622577Y43724527D01*
X26682365Y43855443D01*
X26696996Y43957204D01*
X26702847Y43997898D01*
X26702847Y43997903D01*
X26682365Y44140357D01*
X26622577Y44271272D01*
X26622577Y44271273D01*
X26528328Y44380043D01*
X26518175Y44386568D01*
X26479445Y44433933D01*
X26472700Y44469851D01*
X26472700Y46404277D01*
X26491607Y46462468D01*
X26501690Y46474275D01*
X27046219Y47018805D01*
X27100736Y47046581D01*
X27116223Y47047800D01*
X27258059Y47047800D01*
X27258061Y47047800D01*
X27396153Y47088347D01*
X27517228Y47166157D01*
X27611477Y47274927D01*
X27671265Y47405843D01*
X27682235Y47482143D01*
X27691747Y47548298D01*
X27691747Y47548303D01*
X27671265Y47690757D01*
X27647065Y47743747D01*
X27611477Y47821673D01*
X27517228Y47930443D01*
X27517227Y47930444D01*
X27517226Y47930445D01*
X27396157Y48008251D01*
X27396154Y48008253D01*
X27396153Y48008253D01*
X27380630Y48012811D01*
X27258064Y48048800D01*
X27258061Y48048800D01*
X27114139Y48048800D01*
X27114135Y48048800D01*
X26985616Y48011063D01*
X26924456Y48012811D01*
X26876003Y48050173D01*
X26858765Y48108880D01*
X26859733Y48120143D01*
X26859968Y48121773D01*
X26871747Y48203700D01*
X26863932Y48258053D01*
X26851265Y48346157D01*
X26791477Y48477073D01*
X26697228Y48585843D01*
X26697227Y48585844D01*
X26697226Y48585845D01*
X26576157Y48663651D01*
X26576154Y48663653D01*
X26576153Y48663653D01*
X26568858Y48665795D01*
X26438064Y48704200D01*
X26438061Y48704200D01*
X26294139Y48704200D01*
X26294135Y48704200D01*
X26156049Y48663654D01*
X26156042Y48663651D01*
X26034973Y48585845D01*
X25940722Y48477072D01*
X25880934Y48346157D01*
X25860453Y48203703D01*
X25860453Y48203698D01*
X25880934Y48061244D01*
X25929250Y47955448D01*
X25940723Y47930327D01*
X26034872Y47821672D01*
X26034973Y47821556D01*
X26156042Y47743750D01*
X26156047Y47743747D01*
X26235220Y47720500D01*
X26294135Y47703201D01*
X26294136Y47703201D01*
X26294139Y47703200D01*
X26294141Y47703200D01*
X26438059Y47703200D01*
X26438061Y47703200D01*
X26566585Y47740938D01*
X26627742Y47739191D01*
X26676195Y47701828D01*
X26693434Y47643121D01*
X26692466Y47631859D01*
X26680453Y47548304D01*
X26680453Y47548297D01*
X26687985Y47495907D01*
X26677551Y47435618D01*
X26659997Y47411815D01*
X26028467Y46780285D01*
X26013469Y46767977D01*
X25998580Y46758028D01*
X25998574Y46758022D01*
X25983205Y46735023D01*
X25983206Y46735022D01*
X25972835Y46719500D01*
X25972834Y46719499D01*
X25937685Y46666896D01*
X25937685Y46666895D01*
X25928343Y46619927D01*
X25921700Y46586532D01*
X25916303Y46559401D01*
X25919798Y46541831D01*
X25921700Y46522517D01*
X25921700Y44469851D01*
X25902793Y44411660D01*
X25876225Y44386568D01*
X25874182Y44385255D01*
X25866072Y44380043D01*
X25771822Y44271272D01*
X25712034Y44140357D01*
X25691553Y43997903D01*
X25691553Y43997898D01*
X23895418Y43997898D01*
X23589184Y44304132D01*
X23561407Y44358649D01*
X23570978Y44419081D01*
X23614243Y44462346D01*
X23674675Y44471917D01*
X23712711Y44457420D01*
X23748142Y44434650D01*
X23748147Y44434647D01*
X23854603Y44403389D01*
X23886235Y44394101D01*
X23886236Y44394101D01*
X23886239Y44394100D01*
X23886241Y44394100D01*
X24030159Y44394100D01*
X24030161Y44394100D01*
X24168253Y44434647D01*
X24289328Y44512457D01*
X24383577Y44621227D01*
X24443365Y44752143D01*
X24460274Y44869748D01*
X24463847Y44894598D01*
X24463847Y44894603D01*
X24443365Y45037057D01*
X24416340Y45096233D01*
X24383577Y45167973D01*
X24289328Y45276743D01*
X24289327Y45276744D01*
X24289326Y45276745D01*
X24168257Y45354551D01*
X24168254Y45354553D01*
X24168253Y45354553D01*
X24168250Y45354554D01*
X24030164Y45395100D01*
X24030161Y45395100D01*
X23886239Y45395100D01*
X23886235Y45395100D01*
X23748149Y45354554D01*
X23748142Y45354551D01*
X23627073Y45276745D01*
X23532822Y45167972D01*
X23473034Y45037057D01*
X23452553Y44894603D01*
X23452553Y44894598D01*
X23473034Y44752144D01*
X23524035Y44640469D01*
X23531010Y44579682D01*
X23500924Y44526405D01*
X23445268Y44500987D01*
X23385301Y44513138D01*
X23363978Y44529338D01*
X22623248Y45270068D01*
X22595471Y45324585D01*
X22605042Y45385017D01*
X22648307Y45428282D01*
X22665361Y45435062D01*
X22671961Y45437000D01*
X22810053Y45477547D01*
X22931128Y45555357D01*
X23025377Y45664127D01*
X23085165Y45795043D01*
X23096806Y45876007D01*
X23105647Y45937498D01*
X23105647Y45937503D01*
X23085165Y46079957D01*
X23076012Y46099998D01*
X23025377Y46210873D01*
X22931128Y46319643D01*
X22931127Y46319644D01*
X22931126Y46319645D01*
X22810057Y46397451D01*
X22810054Y46397453D01*
X22810053Y46397453D01*
X22786812Y46404277D01*
X22687808Y46433347D01*
X22680457Y46435506D01*
X22629951Y46470041D01*
X22609389Y46527668D01*
X22626627Y46586375D01*
X22675080Y46623737D01*
X22680450Y46625483D01*
X22730053Y46640047D01*
X22851128Y46717857D01*
X22945377Y46826627D01*
X23005165Y46957543D01*
X23022418Y47077543D01*
X23025647Y47099998D01*
X23025647Y47100003D01*
X23005165Y47242457D01*
X22997605Y47259011D01*
X22945377Y47373373D01*
X22851128Y47482143D01*
X22851127Y47482144D01*
X22851126Y47482145D01*
X22730057Y47559951D01*
X22730054Y47559953D01*
X22730053Y47559953D01*
X22730050Y47559954D01*
X22591964Y47600500D01*
X22591961Y47600500D01*
X22448039Y47600500D01*
X22448035Y47600500D01*
X22309949Y47559954D01*
X22309942Y47559951D01*
X22188873Y47482145D01*
X22094622Y47373372D01*
X22034834Y47242457D01*
X22014353Y47100003D01*
X22014353Y47099998D01*
X22034834Y46957544D01*
X22064174Y46893300D01*
X22094623Y46826627D01*
X22187448Y46719500D01*
X22188873Y46717856D01*
X22292759Y46651093D01*
X22309947Y46640047D01*
X22439543Y46601995D01*
X22490048Y46567461D01*
X22510610Y46509834D01*
X22493372Y46451127D01*
X22444920Y46413764D01*
X22439543Y46412017D01*
X22389952Y46397456D01*
X22389942Y46397451D01*
X22268873Y46319645D01*
X22174622Y46210872D01*
X22114834Y46079957D01*
X22094353Y45937503D01*
X22094353Y45937496D01*
X22098810Y45906494D01*
X22088376Y45846205D01*
X22044498Y45803563D01*
X21983935Y45794856D01*
X21930814Y45822402D01*
X21489362Y46263854D01*
X21461585Y46318371D01*
X21471156Y46378803D01*
X21505843Y46417142D01*
X21510051Y46419847D01*
X21510053Y46419847D01*
X21631128Y46497657D01*
X21725377Y46606427D01*
X21785165Y46737343D01*
X21798002Y46826629D01*
X21805647Y46879798D01*
X21805647Y46879803D01*
X21785165Y47022257D01*
X21779000Y47035757D01*
X21725377Y47153173D01*
X21631128Y47261943D01*
X21631127Y47261944D01*
X21631126Y47261945D01*
X21510057Y47339751D01*
X21510054Y47339753D01*
X21510053Y47339753D01*
X21510050Y47339754D01*
X21371964Y47380300D01*
X21371961Y47380300D01*
X21228039Y47380300D01*
X21228035Y47380300D01*
X21089949Y47339754D01*
X21089942Y47339751D01*
X20968871Y47261944D01*
X20966608Y47259982D01*
X20964308Y47259011D01*
X20962915Y47258115D01*
X20962759Y47258357D01*
X20910246Y47236170D01*
X20850652Y47250035D01*
X20826965Y47269977D01*
X20822229Y47275442D01*
X20822227Y47275444D01*
X20701157Y47353251D01*
X20701154Y47353253D01*
X20701153Y47353253D01*
X20701150Y47353254D01*
X20563064Y47393800D01*
X20563061Y47393800D01*
X20419139Y47393800D01*
X20419135Y47393800D01*
X20281049Y47353254D01*
X20281042Y47353251D01*
X20159973Y47275445D01*
X20065722Y47166672D01*
X20005934Y47035757D01*
X19985453Y46893303D01*
X19985453Y46893298D01*
X20005934Y46750844D01*
X20044273Y46666895D01*
X20065723Y46619927D01*
X20145665Y46527668D01*
X20159973Y46511156D01*
X20277689Y46435505D01*
X20281047Y46433347D01*
X20387503Y46402089D01*
X20419135Y46392801D01*
X20419136Y46392801D01*
X20419139Y46392800D01*
X20419141Y46392800D01*
X20540176Y46392800D01*
X20598367Y46373893D01*
X20610180Y46363804D01*
X21511794Y45462190D01*
X21539571Y45407673D01*
X21530000Y45347241D01*
X21495313Y45308902D01*
X21368873Y45227645D01*
X21274622Y45118872D01*
X21214834Y44987957D01*
X21194353Y44845503D01*
X21194353Y44845498D01*
X21214834Y44703044D01*
X21258607Y44607197D01*
X21274623Y44572127D01*
X21348647Y44486698D01*
X21368873Y44463356D01*
X21476638Y44394100D01*
X21489947Y44385547D01*
X21596403Y44354289D01*
X21628035Y44345001D01*
X21628036Y44345001D01*
X21628039Y44345000D01*
X21628041Y44345000D01*
X21771959Y44345000D01*
X21771961Y44345000D01*
X21910053Y44385547D01*
X22031128Y44463357D01*
X22125377Y44572127D01*
X22185165Y44703043D01*
X22185411Y44704756D01*
X22186050Y44706056D01*
X22187161Y44709838D01*
X22187815Y44709646D01*
X22212402Y44759663D01*
X22266514Y44788221D01*
X22327077Y44779518D01*
X22353408Y44760676D01*
X24194930Y42919154D01*
X24222707Y42864637D01*
X24213136Y42804205D01*
X24169871Y42760940D01*
X24109439Y42751369D01*
X24105614Y42752052D01*
X24094065Y42754349D01*
X24094061Y42754350D01*
X24071702Y42758797D01*
X24071701Y42758797D01*
X24071700Y42758797D01*
X24054130Y42755302D01*
X24034816Y42753400D01*
X22004884Y42753400D01*
X21985570Y42755302D01*
X21968000Y42758797D01*
X21967999Y42758797D01*
X21967997Y42758797D01*
X21945656Y42754354D01*
X21945638Y42754349D01*
X21940867Y42753400D01*
X21860505Y42737415D01*
X21860503Y42737415D01*
X21860503Y42737414D01*
X21860502Y42737414D01*
X21819406Y42709953D01*
X21819379Y42709935D01*
X21818419Y42709294D01*
X21761541Y42693273D01*
X21761541Y42692900D01*
X21760217Y42692900D01*
X21759525Y42692705D01*
X21757388Y42692900D01*
X21754461Y42692900D01*
X21610539Y42692900D01*
X21610535Y42692900D01*
X21472449Y42652354D01*
X21472442Y42652351D01*
X21351373Y42574545D01*
X21257122Y42465772D01*
X21197334Y42334857D01*
X21176853Y42192403D01*
X21176853Y42192398D01*
X21197334Y42049944D01*
X21240483Y41955463D01*
X21257123Y41919027D01*
X21290668Y41880314D01*
X21314485Y41823954D01*
X21300626Y41764359D01*
X21290668Y41750652D01*
X21204122Y41650772D01*
X21144334Y41519857D01*
X21123853Y41377403D01*
X21123853Y41377398D01*
X21144334Y41234944D01*
X21144334Y41234942D01*
X21191607Y41131431D01*
X21198582Y41070645D01*
X21168496Y41017368D01*
X21112840Y40991950D01*
X21082241Y40993207D01*
X20997064Y41010149D01*
X20997048Y41010153D01*
X20974702Y41014597D01*
X20974701Y41014597D01*
X20974700Y41014597D01*
X20957130Y41011102D01*
X20937816Y41009200D01*
X18151824Y41009200D01*
X18093633Y41028107D01*
X18081820Y41038196D01*
X17962085Y41157931D01*
X17949773Y41172934D01*
X17939825Y41187822D01*
X17939824Y41187824D01*
X17939820Y41187827D01*
X17939819Y41187828D01*
X17920956Y41200432D01*
X17920866Y41200492D01*
X17890666Y41220671D01*
X17879549Y41228099D01*
X17848695Y41248715D01*
X17848694Y41248716D01*
X17848695Y41248716D01*
X17763563Y41265649D01*
X17763539Y41265655D01*
X17741202Y41270097D01*
X17741201Y41270097D01*
X17741200Y41270097D01*
X17723630Y41266602D01*
X17704316Y41264700D01*
X17598324Y41264700D01*
X17540133Y41283607D01*
X17504169Y41333107D01*
X17504169Y41394293D01*
X17528320Y41433703D01*
X17874728Y41780113D01*
X17889729Y41792425D01*
X17904624Y41802376D01*
X17965515Y41893505D01*
X17981500Y41973867D01*
X17981500Y41973868D01*
X17986897Y42001000D01*
X17983402Y42018573D01*
X17981500Y42037885D01*
X17981500Y43482398D01*
X21227653Y43482398D01*
X21248134Y43339944D01*
X21307922Y43209029D01*
X21307923Y43209027D01*
X21376190Y43130242D01*
X21402173Y43100256D01*
X21523242Y43022450D01*
X21523247Y43022447D01*
X21629703Y42991189D01*
X21661335Y42981901D01*
X21661336Y42981901D01*
X21661339Y42981900D01*
X21661341Y42981900D01*
X21805259Y42981900D01*
X21805261Y42981900D01*
X21943353Y43022447D01*
X22064428Y43100257D01*
X22158677Y43209027D01*
X22218465Y43339943D01*
X22238947Y43482400D01*
X22236790Y43497400D01*
X22218465Y43624857D01*
X22188268Y43690978D01*
X22158677Y43755773D01*
X22064428Y43864543D01*
X22064427Y43864544D01*
X22064426Y43864545D01*
X21943357Y43942351D01*
X21943354Y43942353D01*
X21943353Y43942353D01*
X21943350Y43942354D01*
X21805264Y43982900D01*
X21805261Y43982900D01*
X21661339Y43982900D01*
X21661335Y43982900D01*
X21523249Y43942354D01*
X21523242Y43942351D01*
X21402173Y43864545D01*
X21307922Y43755772D01*
X21248134Y43624857D01*
X21227653Y43482403D01*
X21227653Y43482398D01*
X17981500Y43482398D01*
X17981500Y44656167D01*
X18000407Y44714358D01*
X18049907Y44750322D01*
X18111093Y44750322D01*
X18155320Y44720997D01*
X18168871Y44705358D01*
X18168872Y44705357D01*
X18287441Y44629157D01*
X18289947Y44627547D01*
X18359254Y44607197D01*
X18428035Y44587001D01*
X18428036Y44587001D01*
X18428039Y44587000D01*
X18428041Y44587000D01*
X18571959Y44587000D01*
X18571961Y44587000D01*
X18710053Y44627547D01*
X18831128Y44705357D01*
X18925377Y44814127D01*
X18985165Y44945043D01*
X18991801Y44991198D01*
X19194353Y44991198D01*
X19214834Y44848744D01*
X19255330Y44760072D01*
X19274623Y44717827D01*
X19357026Y44622728D01*
X19368873Y44609056D01*
X19424710Y44573172D01*
X19489947Y44531247D01*
X19593004Y44500987D01*
X19628035Y44490701D01*
X19628036Y44490701D01*
X19628039Y44490700D01*
X19628041Y44490700D01*
X19771959Y44490700D01*
X19771961Y44490700D01*
X19910053Y44531247D01*
X20031128Y44609057D01*
X20125377Y44717827D01*
X20185165Y44848743D01*
X20205647Y44991200D01*
X20205488Y44992304D01*
X20185165Y45133657D01*
X20161754Y45184920D01*
X20125377Y45264573D01*
X20031128Y45373343D01*
X20031127Y45373344D01*
X20031126Y45373345D01*
X19910057Y45451151D01*
X19910054Y45451153D01*
X19910053Y45451153D01*
X19910050Y45451154D01*
X19771964Y45491700D01*
X19771961Y45491700D01*
X19628039Y45491700D01*
X19628035Y45491700D01*
X19489949Y45451154D01*
X19489942Y45451151D01*
X19368873Y45373345D01*
X19274622Y45264572D01*
X19214834Y45133657D01*
X19194353Y44991203D01*
X19194353Y44991198D01*
X18991801Y44991198D01*
X18997933Y45033848D01*
X19005647Y45087498D01*
X19005647Y45087503D01*
X18985165Y45229957D01*
X18963797Y45276745D01*
X18925377Y45360873D01*
X18831128Y45469643D01*
X18831127Y45469644D01*
X18831126Y45469645D01*
X18710057Y45547451D01*
X18710054Y45547453D01*
X18710053Y45547453D01*
X18683138Y45555356D01*
X18571964Y45588000D01*
X18571961Y45588000D01*
X18428039Y45588000D01*
X18428035Y45588000D01*
X18289949Y45547454D01*
X18289942Y45547451D01*
X18168872Y45469644D01*
X18155319Y45454002D01*
X18102923Y45422407D01*
X18041962Y45427643D01*
X17995721Y45467711D01*
X17981500Y45518834D01*
X17981500Y47188598D01*
X18456353Y47188598D01*
X18476834Y47046144D01*
X18522282Y46946629D01*
X18536623Y46915227D01*
X18603664Y46837857D01*
X18630873Y46806456D01*
X18742027Y46735022D01*
X18751947Y46728647D01*
X18847491Y46700593D01*
X18890035Y46688101D01*
X18890036Y46688101D01*
X18890039Y46688100D01*
X18890041Y46688100D01*
X19033959Y46688100D01*
X19033961Y46688100D01*
X19172053Y46728647D01*
X19293128Y46806457D01*
X19387377Y46915227D01*
X19447165Y47046143D01*
X19462553Y47153172D01*
X19467647Y47188598D01*
X19467647Y47188603D01*
X19447165Y47331057D01*
X19418511Y47393800D01*
X19387377Y47461973D01*
X19293128Y47570743D01*
X19293127Y47570744D01*
X19293126Y47570745D01*
X19172057Y47648551D01*
X19172054Y47648553D01*
X19172053Y47648553D01*
X19172050Y47648554D01*
X19033964Y47689100D01*
X19033961Y47689100D01*
X18890039Y47689100D01*
X18890035Y47689100D01*
X18751949Y47648554D01*
X18751942Y47648551D01*
X18630873Y47570745D01*
X18536622Y47461972D01*
X18476834Y47331057D01*
X18456353Y47188603D01*
X18456353Y47188598D01*
X17981500Y47188598D01*
X17981500Y47491977D01*
X18000407Y47550168D01*
X18010490Y47561975D01*
X21438733Y50990219D01*
X21453729Y51002525D01*
X21468624Y51012476D01*
X21529515Y51103605D01*
X21545500Y51183967D01*
X21545500Y51183968D01*
X21550897Y51211100D01*
X21547402Y51228673D01*
X21545500Y51247985D01*
X21545500Y51899998D01*
X34694353Y51899998D01*
X34714834Y51757544D01*
X34774622Y51626629D01*
X34774623Y51626627D01*
X34868872Y51517857D01*
X34868873Y51517856D01*
X34989942Y51440050D01*
X34989947Y51440047D01*
X35096403Y51408789D01*
X35128035Y51399501D01*
X35128036Y51399501D01*
X35128039Y51399500D01*
X35128041Y51399500D01*
X35271959Y51399500D01*
X35271961Y51399500D01*
X35410053Y51440047D01*
X35531128Y51517857D01*
X35625377Y51626627D01*
X35685165Y51757543D01*
X35705647Y51900000D01*
X35685165Y52042457D01*
X35625377Y52173373D01*
X35531128Y52282143D01*
X35531127Y52282144D01*
X35531126Y52282145D01*
X35410057Y52359951D01*
X35410054Y52359953D01*
X35410053Y52359953D01*
X35410050Y52359954D01*
X35271964Y52400500D01*
X35271961Y52400500D01*
X35128039Y52400500D01*
X35128035Y52400500D01*
X34989949Y52359954D01*
X34989942Y52359951D01*
X34868873Y52282145D01*
X34774622Y52173372D01*
X34714834Y52042457D01*
X34694353Y51900003D01*
X34694353Y51899998D01*
X21545500Y51899998D01*
X21545500Y53112380D01*
X21564407Y53170571D01*
X21613907Y53206535D01*
X21615619Y53207073D01*
X21673954Y53224768D01*
X21856450Y53322315D01*
X22016410Y53453590D01*
X22147685Y53613550D01*
X22245232Y53796046D01*
X22305300Y53994066D01*
X22305301Y53994071D01*
X22325583Y54199997D01*
X22754417Y54199997D01*
X22774698Y53994071D01*
X22774699Y53994066D01*
X22834768Y53796046D01*
X22932316Y53613548D01*
X23001913Y53528744D01*
X23063590Y53453590D01*
X23063595Y53453586D01*
X23223547Y53322317D01*
X23223548Y53322317D01*
X23223550Y53322315D01*
X23406046Y53224768D01*
X23534498Y53185803D01*
X23604065Y53164700D01*
X23604070Y53164699D01*
X23809997Y53144417D01*
X23810000Y53144417D01*
X23810003Y53144417D01*
X24015929Y53164699D01*
X24015934Y53164700D01*
X24032611Y53169759D01*
X24213954Y53224768D01*
X24396450Y53322315D01*
X24556410Y53453590D01*
X24687685Y53613550D01*
X24718499Y53671198D01*
X27587253Y53671198D01*
X27607734Y53528744D01*
X27642058Y53453586D01*
X27667523Y53397827D01*
X27732954Y53322315D01*
X27761773Y53289056D01*
X27882842Y53211250D01*
X27882847Y53211247D01*
X27989303Y53179989D01*
X28020935Y53170701D01*
X28020936Y53170701D01*
X28020939Y53170700D01*
X28020941Y53170700D01*
X28164859Y53170700D01*
X28164861Y53170700D01*
X28302953Y53211247D01*
X28424028Y53289057D01*
X28518277Y53397827D01*
X28578065Y53528743D01*
X28598547Y53671200D01*
X28594406Y53700000D01*
X28578065Y53813657D01*
X28518277Y53944572D01*
X28518277Y53944573D01*
X28424028Y54053343D01*
X28424027Y54053344D01*
X28424026Y54053345D01*
X28302957Y54131151D01*
X28302954Y54131153D01*
X28302953Y54131153D01*
X28302950Y54131154D01*
X28164864Y54171700D01*
X28164861Y54171700D01*
X28020939Y54171700D01*
X28020935Y54171700D01*
X27882849Y54131154D01*
X27882842Y54131151D01*
X27761773Y54053345D01*
X27667522Y53944572D01*
X27607734Y53813657D01*
X27587253Y53671203D01*
X27587253Y53671198D01*
X24718499Y53671198D01*
X24785232Y53796046D01*
X24845300Y53994066D01*
X24845301Y53994071D01*
X24865583Y54199997D01*
X24865583Y54200004D01*
X24845301Y54405930D01*
X24845300Y54405935D01*
X24807423Y54530798D01*
X24785232Y54603954D01*
X24721601Y54722998D01*
X33494353Y54722998D01*
X33514834Y54580544D01*
X33537553Y54530798D01*
X33574623Y54449627D01*
X33660949Y54350001D01*
X33668873Y54340856D01*
X33789942Y54263050D01*
X33789947Y54263047D01*
X33896403Y54231789D01*
X33928035Y54222501D01*
X33928036Y54222501D01*
X33928039Y54222500D01*
X33928041Y54222500D01*
X34071959Y54222500D01*
X34071961Y54222500D01*
X34210053Y54263047D01*
X34331128Y54340857D01*
X34425377Y54449627D01*
X34485165Y54580543D01*
X34491992Y54628029D01*
X34505647Y54722998D01*
X34505647Y54723003D01*
X34485165Y54865457D01*
X34448197Y54946405D01*
X34425377Y54996373D01*
X34331128Y55105143D01*
X34331127Y55105144D01*
X34331126Y55105145D01*
X34210057Y55182951D01*
X34210054Y55182953D01*
X34210053Y55182953D01*
X34210050Y55182954D01*
X34071964Y55223500D01*
X34071961Y55223500D01*
X33928039Y55223500D01*
X33928035Y55223500D01*
X33789949Y55182954D01*
X33789942Y55182951D01*
X33668873Y55105145D01*
X33574622Y54996372D01*
X33514834Y54865457D01*
X33494353Y54723003D01*
X33494353Y54722998D01*
X24721601Y54722998D01*
X24687685Y54786450D01*
X24556410Y54946410D01*
X24556404Y54946415D01*
X24396452Y55077684D01*
X24213954Y55175232D01*
X24015934Y55235301D01*
X24015929Y55235302D01*
X23810003Y55255583D01*
X23809997Y55255583D01*
X23604070Y55235302D01*
X23604065Y55235301D01*
X23406045Y55175232D01*
X23223547Y55077684D01*
X23063595Y54946415D01*
X23063585Y54946405D01*
X22932316Y54786453D01*
X22834768Y54603955D01*
X22774699Y54405935D01*
X22774698Y54405930D01*
X22754417Y54200004D01*
X22754417Y54199997D01*
X22325583Y54199997D01*
X22325583Y54200004D01*
X22305301Y54405930D01*
X22305300Y54405935D01*
X22267423Y54530798D01*
X22245232Y54603954D01*
X22147685Y54786450D01*
X22016410Y54946410D01*
X22016404Y54946415D01*
X21856452Y55077684D01*
X21673954Y55175232D01*
X21475934Y55235301D01*
X21475929Y55235302D01*
X21270003Y55255583D01*
X21269997Y55255583D01*
X21064070Y55235302D01*
X21064065Y55235301D01*
X20866045Y55175232D01*
X20683547Y55077684D01*
X20523595Y54946415D01*
X20523585Y54946405D01*
X20392316Y54786453D01*
X20294768Y54603955D01*
X20234699Y54405935D01*
X20234698Y54405930D01*
X20214417Y54200004D01*
X20214417Y54199997D01*
X20234698Y53994071D01*
X20234699Y53994066D01*
X20294768Y53796046D01*
X20392316Y53613548D01*
X20461913Y53528744D01*
X20523590Y53453590D01*
X20523595Y53453586D01*
X20683547Y53322317D01*
X20683548Y53322317D01*
X20683550Y53322315D01*
X20866046Y53224768D01*
X20924240Y53207116D01*
X20974434Y53172133D01*
X20994481Y53114325D01*
X20994500Y53112380D01*
X20994500Y51366225D01*
X20975593Y51308034D01*
X20965504Y51296221D01*
X18047604Y48378321D01*
X17993087Y48350544D01*
X17932655Y48360115D01*
X17889390Y48403380D01*
X17878600Y48448325D01*
X17878600Y53330436D01*
X17897507Y53388627D01*
X17947007Y53424591D01*
X18008193Y53424591D01*
X18040402Y53406966D01*
X18098192Y53359539D01*
X18143547Y53322317D01*
X18143548Y53322317D01*
X18143550Y53322315D01*
X18326046Y53224768D01*
X18454498Y53185803D01*
X18524065Y53164700D01*
X18524070Y53164699D01*
X18729997Y53144417D01*
X18730000Y53144417D01*
X18730003Y53144417D01*
X18935929Y53164699D01*
X18935934Y53164700D01*
X18952611Y53169759D01*
X19133954Y53224768D01*
X19316450Y53322315D01*
X19476410Y53453590D01*
X19607685Y53613550D01*
X19705232Y53796046D01*
X19765300Y53994066D01*
X19765301Y53994071D01*
X19785583Y54199997D01*
X19785583Y54200004D01*
X19765301Y54405930D01*
X19765300Y54405935D01*
X19727423Y54530798D01*
X19705232Y54603954D01*
X19607685Y54786450D01*
X19476410Y54946410D01*
X19476404Y54946415D01*
X19316452Y55077684D01*
X19133954Y55175232D01*
X18935934Y55235301D01*
X18935929Y55235302D01*
X18730003Y55255583D01*
X18729997Y55255583D01*
X18524070Y55235302D01*
X18524065Y55235301D01*
X18326045Y55175232D01*
X18143547Y55077684D01*
X18143547Y55077683D01*
X18040405Y54993037D01*
X17983428Y54970737D01*
X17924225Y54986186D01*
X17885410Y55033483D01*
X17878600Y55069565D01*
X17878600Y55591077D01*
X17897507Y55649268D01*
X17907590Y55661075D01*
X18898733Y56652219D01*
X18913729Y56664525D01*
X18928624Y56674476D01*
X18989515Y56765605D01*
X19005500Y56845967D01*
X19005500Y56845968D01*
X19010897Y56873100D01*
X19007402Y56890673D01*
X19005500Y56909985D01*
X19005500Y56912380D01*
X19024407Y56970571D01*
X19073907Y57006535D01*
X19075619Y57007073D01*
X19133954Y57024768D01*
X19316450Y57122315D01*
X19476410Y57253590D01*
X19607685Y57413550D01*
X19705232Y57596046D01*
X19765300Y57794066D01*
X19765301Y57794071D01*
X19785583Y57999997D01*
X20214417Y57999997D01*
X20234698Y57794071D01*
X20234699Y57794066D01*
X20294768Y57596046D01*
X20392316Y57413548D01*
X20523585Y57253596D01*
X20523590Y57253590D01*
X20523595Y57253586D01*
X20683547Y57122317D01*
X20683548Y57122317D01*
X20683550Y57122315D01*
X20866046Y57024768D01*
X20994498Y56985803D01*
X21064065Y56964700D01*
X21064070Y56964699D01*
X21269997Y56944417D01*
X21270000Y56944417D01*
X21270003Y56944417D01*
X21475929Y56964699D01*
X21475934Y56964700D01*
X21492611Y56969759D01*
X21673954Y57024768D01*
X21856450Y57122315D01*
X22016410Y57253590D01*
X22147685Y57413550D01*
X22245232Y57596046D01*
X22305300Y57794066D01*
X22305301Y57794071D01*
X22325583Y57999997D01*
X22754417Y57999997D01*
X22774698Y57794071D01*
X22774699Y57794066D01*
X22834768Y57596046D01*
X22932316Y57413548D01*
X23063585Y57253596D01*
X23063590Y57253590D01*
X23063595Y57253586D01*
X23223547Y57122317D01*
X23223548Y57122317D01*
X23223550Y57122315D01*
X23406046Y57024768D01*
X23534498Y56985803D01*
X23604065Y56964700D01*
X23604070Y56964699D01*
X23809997Y56944417D01*
X23810000Y56944417D01*
X23810003Y56944417D01*
X24015929Y56964699D01*
X24015934Y56964700D01*
X24032611Y56969759D01*
X24213954Y57024768D01*
X24396450Y57122315D01*
X24556410Y57253590D01*
X24687685Y57413550D01*
X24785232Y57596046D01*
X24845300Y57794066D01*
X24845301Y57794071D01*
X24865583Y57999997D01*
X25294417Y57999997D01*
X25314698Y57794071D01*
X25314699Y57794066D01*
X25374768Y57596046D01*
X25472316Y57413548D01*
X25603585Y57253596D01*
X25603590Y57253590D01*
X25603595Y57253586D01*
X25763547Y57122317D01*
X25763548Y57122317D01*
X25763550Y57122315D01*
X25946046Y57024768D01*
X26074498Y56985803D01*
X26144065Y56964700D01*
X26144070Y56964699D01*
X26349997Y56944417D01*
X26350000Y56944417D01*
X26350003Y56944417D01*
X26555929Y56964699D01*
X26555934Y56964700D01*
X26572611Y56969759D01*
X26753954Y57024768D01*
X26936450Y57122315D01*
X27096410Y57253590D01*
X27227685Y57413550D01*
X27325232Y57596046D01*
X27385300Y57794066D01*
X27385301Y57794071D01*
X27405583Y57999997D01*
X27834417Y57999997D01*
X27854698Y57794071D01*
X27854699Y57794066D01*
X27914768Y57596046D01*
X28012316Y57413548D01*
X28143585Y57253596D01*
X28143590Y57253590D01*
X28143595Y57253586D01*
X28303547Y57122317D01*
X28303548Y57122317D01*
X28303550Y57122315D01*
X28486046Y57024768D01*
X28614498Y56985803D01*
X28684065Y56964700D01*
X28684070Y56964699D01*
X28889997Y56944417D01*
X28890000Y56944417D01*
X28890003Y56944417D01*
X29095929Y56964699D01*
X29095934Y56964700D01*
X29112611Y56969759D01*
X29293954Y57024768D01*
X29476450Y57122315D01*
X29636410Y57253590D01*
X29767685Y57413550D01*
X29865232Y57596046D01*
X29925300Y57794066D01*
X29925301Y57794071D01*
X29945583Y57999997D01*
X29945583Y58000004D01*
X29925301Y58205930D01*
X29925300Y58205935D01*
X29887423Y58330798D01*
X29865232Y58403954D01*
X29767685Y58586450D01*
X29636410Y58746410D01*
X29636404Y58746415D01*
X29476452Y58877684D01*
X29293954Y58975232D01*
X29095934Y59035301D01*
X29095929Y59035302D01*
X28890003Y59055583D01*
X28889997Y59055583D01*
X28684070Y59035302D01*
X28684065Y59035301D01*
X28486045Y58975232D01*
X28303547Y58877684D01*
X28143595Y58746415D01*
X28143585Y58746405D01*
X28012316Y58586453D01*
X27914768Y58403955D01*
X27854699Y58205935D01*
X27854698Y58205930D01*
X27834417Y58000004D01*
X27834417Y57999997D01*
X27405583Y57999997D01*
X27405583Y58000004D01*
X27385301Y58205930D01*
X27385300Y58205935D01*
X27347423Y58330798D01*
X27325232Y58403954D01*
X27227685Y58586450D01*
X27096410Y58746410D01*
X27096404Y58746415D01*
X26936452Y58877684D01*
X26753954Y58975232D01*
X26555934Y59035301D01*
X26555929Y59035302D01*
X26350003Y59055583D01*
X26349997Y59055583D01*
X26144070Y59035302D01*
X26144065Y59035301D01*
X25946045Y58975232D01*
X25763547Y58877684D01*
X25603595Y58746415D01*
X25603585Y58746405D01*
X25472316Y58586453D01*
X25374768Y58403955D01*
X25314699Y58205935D01*
X25314698Y58205930D01*
X25294417Y58000004D01*
X25294417Y57999997D01*
X24865583Y57999997D01*
X24865583Y58000004D01*
X24845301Y58205930D01*
X24845300Y58205935D01*
X24807423Y58330798D01*
X24785232Y58403954D01*
X24687685Y58586450D01*
X24556410Y58746410D01*
X24556404Y58746415D01*
X24396452Y58877684D01*
X24213954Y58975232D01*
X24015934Y59035301D01*
X24015929Y59035302D01*
X23810003Y59055583D01*
X23809997Y59055583D01*
X23604070Y59035302D01*
X23604065Y59035301D01*
X23406045Y58975232D01*
X23223547Y58877684D01*
X23063595Y58746415D01*
X23063585Y58746405D01*
X22932316Y58586453D01*
X22834768Y58403955D01*
X22774699Y58205935D01*
X22774698Y58205930D01*
X22754417Y58000004D01*
X22754417Y57999997D01*
X22325583Y57999997D01*
X22325583Y58000004D01*
X22305301Y58205930D01*
X22305300Y58205935D01*
X22267423Y58330798D01*
X22245232Y58403954D01*
X22147685Y58586450D01*
X22016410Y58746410D01*
X22016404Y58746415D01*
X21856452Y58877684D01*
X21673954Y58975232D01*
X21475934Y59035301D01*
X21475929Y59035302D01*
X21270003Y59055583D01*
X21269997Y59055583D01*
X21064070Y59035302D01*
X21064065Y59035301D01*
X20866045Y58975232D01*
X20683547Y58877684D01*
X20523595Y58746415D01*
X20523585Y58746405D01*
X20392316Y58586453D01*
X20294768Y58403955D01*
X20234699Y58205935D01*
X20234698Y58205930D01*
X20214417Y58000004D01*
X20214417Y57999997D01*
X19785583Y57999997D01*
X19785583Y58000004D01*
X19765301Y58205930D01*
X19765300Y58205935D01*
X19727423Y58330798D01*
X19705232Y58403954D01*
X19607685Y58586450D01*
X19476410Y58746410D01*
X19476404Y58746415D01*
X19316452Y58877684D01*
X19133954Y58975232D01*
X18935934Y59035301D01*
X18935929Y59035302D01*
X18730003Y59055583D01*
X18729997Y59055583D01*
X18524070Y59035302D01*
X18524065Y59035301D01*
X18326045Y58975232D01*
X18143547Y58877684D01*
X17983595Y58746415D01*
X17983585Y58746405D01*
X17852316Y58586453D01*
X17754768Y58403955D01*
X17694699Y58205935D01*
X17694698Y58205930D01*
X17674417Y58000004D01*
X17674417Y57999997D01*
X17694698Y57794071D01*
X17694699Y57794066D01*
X17754768Y57596046D01*
X17852316Y57413548D01*
X17983585Y57253596D01*
X17983590Y57253590D01*
X17983595Y57253586D01*
X18143547Y57122317D01*
X18143548Y57122317D01*
X18143550Y57122315D01*
X18227629Y57077373D01*
X18316502Y57029869D01*
X18358908Y56985763D01*
X18367291Y56925154D01*
X18339837Y56872555D01*
X17434367Y55967085D01*
X17419369Y55954777D01*
X17404479Y55944827D01*
X17404476Y55944825D01*
X17343585Y55853696D01*
X17342163Y55849007D01*
X17341683Y55844132D01*
X17322203Y55746201D01*
X17325698Y55728631D01*
X17327600Y55709317D01*
X17327600Y55343721D01*
X17308693Y55285530D01*
X17259193Y55249566D01*
X17198007Y55249566D01*
X17173599Y55261405D01*
X17137547Y55285494D01*
X17064624Y55300000D01*
X16340001Y55300000D01*
X16340000Y55299999D01*
X16340000Y54681171D01*
X16332315Y54684680D01*
X16225763Y54700000D01*
X16154237Y54700000D01*
X16047685Y54684680D01*
X16040000Y54681171D01*
X16040000Y55299999D01*
X16039999Y55300000D01*
X15315375Y55300000D01*
X15242453Y55285494D01*
X15242451Y55285493D01*
X15159762Y55230242D01*
X15159758Y55230238D01*
X15104507Y55147549D01*
X15104506Y55147547D01*
X15090000Y55074625D01*
X15090000Y54350001D01*
X15090001Y54350000D01*
X15712935Y54350000D01*
X15690000Y54271889D01*
X15690000Y54128111D01*
X15712935Y54050000D01*
X15090001Y54050000D01*
X15090000Y54049999D01*
X15090000Y53325376D01*
X15104506Y53252454D01*
X15104507Y53252452D01*
X15159758Y53169763D01*
X15159762Y53169759D01*
X15242451Y53114508D01*
X15242453Y53114507D01*
X15315375Y53100001D01*
X15315377Y53100000D01*
X16039999Y53100000D01*
X16040000Y53100001D01*
X16040000Y53718830D01*
X16047685Y53715320D01*
X16154237Y53700000D01*
X16225763Y53700000D01*
X16332315Y53715320D01*
X16340000Y53718830D01*
X16340000Y53100001D01*
X16340001Y53100000D01*
X17064623Y53100000D01*
X17064624Y53100001D01*
X17137546Y53114507D01*
X17137548Y53114507D01*
X17173598Y53138595D01*
X17232486Y53155204D01*
X17289890Y53134027D01*
X17323883Y53083153D01*
X17327600Y53056280D01*
X17327600Y50385620D01*
X17308693Y50327429D01*
X17259193Y50291465D01*
X17198007Y50291465D01*
X17148507Y50327429D01*
X17138547Y50344493D01*
X17114077Y50398072D01*
X17114077Y50398073D01*
X17019828Y50506843D01*
X17019827Y50506844D01*
X17019826Y50506845D01*
X16898757Y50584651D01*
X16898754Y50584653D01*
X16898753Y50584653D01*
X16898750Y50584654D01*
X16760664Y50625200D01*
X16760661Y50625200D01*
X16616739Y50625200D01*
X16616735Y50625200D01*
X16478649Y50584654D01*
X16478642Y50584651D01*
X16357573Y50506845D01*
X16263322Y50398072D01*
X16203534Y50267157D01*
X16183053Y50124703D01*
X16183053Y50124698D01*
X16203534Y49982244D01*
X16257635Y49863781D01*
X16263323Y49851327D01*
X16357572Y49742557D01*
X16357573Y49742556D01*
X16415246Y49705492D01*
X16453977Y49658126D01*
X16457471Y49597041D01*
X16424391Y49545568D01*
X16415249Y49538926D01*
X16395674Y49526346D01*
X16301422Y49417572D01*
X16241634Y49286657D01*
X16221153Y49144203D01*
X16221153Y49144198D01*
X16241633Y49001748D01*
X16243629Y48994953D01*
X16241032Y48994191D01*
X16245649Y48954550D01*
X16246503Y48954550D01*
X16246503Y48947215D01*
X16246680Y48945695D01*
X16246503Y48944805D01*
X16246503Y48944802D01*
X16249998Y48927231D01*
X16251900Y48907917D01*
X16251900Y46119232D01*
X16246494Y46102596D01*
X16251900Y46080769D01*
X16251900Y45136685D01*
X16249998Y45117373D01*
X16246503Y45099801D01*
X16246503Y45099798D01*
X16250943Y45077470D01*
X16250951Y45077438D01*
X16251900Y45072668D01*
X16251900Y45072667D01*
X16267885Y44992305D01*
X16267886Y44992304D01*
X16267886Y44992302D01*
X16320325Y44913823D01*
X16328776Y44901176D01*
X16343667Y44891226D01*
X16358669Y44878915D01*
X16493897Y44743687D01*
X16521674Y44689170D01*
X16521885Y44659596D01*
X16514467Y44607988D01*
X16514353Y44607197D01*
X16534834Y44464744D01*
X16576268Y44374018D01*
X16594623Y44333827D01*
X16648826Y44271273D01*
X16688873Y44225056D01*
X16794237Y44157343D01*
X16809947Y44147247D01*
X16902981Y44119930D01*
X16948035Y44106701D01*
X16948036Y44106701D01*
X16948039Y44106700D01*
X16948041Y44106700D01*
X17091959Y44106700D01*
X17091961Y44106700D01*
X17230053Y44147247D01*
X17277978Y44178047D01*
X17337151Y44193601D01*
X17394168Y44171402D01*
X17427247Y44119930D01*
X17430500Y44094762D01*
X17430500Y42731911D01*
X17411593Y42673720D01*
X17362093Y42637756D01*
X17300907Y42637756D01*
X17256681Y42667079D01*
X17252091Y42672376D01*
X17243628Y42682143D01*
X17243627Y42682144D01*
X17122557Y42759951D01*
X17122554Y42759953D01*
X17122553Y42759953D01*
X17119192Y42760940D01*
X16984464Y42800500D01*
X16984461Y42800500D01*
X16840539Y42800500D01*
X16840535Y42800500D01*
X16702449Y42759954D01*
X16702442Y42759951D01*
X16581373Y42682145D01*
X16487122Y42573372D01*
X16427334Y42442457D01*
X16406853Y42300003D01*
X16406853Y42299998D01*
X16427334Y42157544D01*
X16485978Y42029135D01*
X16487123Y42026627D01*
X16580358Y41919027D01*
X16581373Y41917856D01*
X16702442Y41840050D01*
X16702447Y41840047D01*
X16803904Y41810257D01*
X16840535Y41799501D01*
X16840536Y41799501D01*
X16840539Y41799500D01*
X16840541Y41799500D01*
X16875875Y41799500D01*
X16934066Y41780593D01*
X16970030Y41731093D01*
X16970030Y41669907D01*
X16945879Y41630496D01*
X15500267Y40184885D01*
X15485269Y40172577D01*
X15470380Y40162628D01*
X15470375Y40162623D01*
X15453282Y40137042D01*
X15453281Y40137043D01*
X15443235Y40122005D01*
X15443232Y40122000D01*
X15409485Y40071497D01*
X15409485Y40071495D01*
X15395642Y40001903D01*
X15395642Y40001902D01*
X15395641Y40001903D01*
X15389250Y39969768D01*
X15388103Y39964000D01*
X15389833Y39955301D01*
X15391598Y39946431D01*
X15393500Y39927117D01*
X15393500Y39757851D01*
X15374593Y39699660D01*
X15348024Y39674567D01*
X15337872Y39668043D01*
X15243622Y39559272D01*
X15183834Y39428357D01*
X15164145Y39291411D01*
X15137149Y39236503D01*
X15083035Y39207950D01*
X15066153Y39206500D01*
X15020035Y39206500D01*
X14881949Y39165954D01*
X14881942Y39165951D01*
X14760872Y39088144D01*
X14760870Y39088142D01*
X14748119Y39073426D01*
X14695723Y39041830D01*
X14634762Y39047066D01*
X14588521Y39087134D01*
X14574300Y39138257D01*
X14574300Y41691756D01*
X14593207Y41749947D01*
X14642707Y41785911D01*
X14701189Y41786746D01*
X14828039Y41749500D01*
X14828041Y41749500D01*
X14971959Y41749500D01*
X14971961Y41749500D01*
X15110053Y41790047D01*
X15231128Y41867857D01*
X15325377Y41976627D01*
X15385165Y42107543D01*
X15397365Y42192398D01*
X15405647Y42249998D01*
X15405647Y42250003D01*
X15385165Y42392457D01*
X15365630Y42435232D01*
X15325377Y42523373D01*
X15231128Y42632143D01*
X15231127Y42632144D01*
X15231126Y42632145D01*
X15110057Y42709951D01*
X15110054Y42709953D01*
X15110053Y42709953D01*
X15110050Y42709954D01*
X14971964Y42750500D01*
X14971961Y42750500D01*
X14828039Y42750500D01*
X14828035Y42750500D01*
X14701191Y42713255D01*
X14640031Y42715003D01*
X14591578Y42752366D01*
X14574300Y42808245D01*
X14574300Y43690978D01*
X14593207Y43749169D01*
X14603284Y43760970D01*
X14799520Y43957206D01*
X14854035Y43984981D01*
X14869522Y43986200D01*
X15011359Y43986200D01*
X15011361Y43986200D01*
X15149453Y44026747D01*
X15270528Y44104557D01*
X15364777Y44213327D01*
X15424565Y44344243D01*
X15437563Y44434647D01*
X15445047Y44486698D01*
X15445047Y44486703D01*
X15424565Y44629157D01*
X15400457Y44681945D01*
X15364777Y44760073D01*
X15270528Y44868843D01*
X15270527Y44868844D01*
X15270526Y44868845D01*
X15149457Y44946651D01*
X15149454Y44946653D01*
X15149453Y44946653D01*
X15149450Y44946654D01*
X15011364Y44987200D01*
X15011361Y44987200D01*
X14867439Y44987200D01*
X14867435Y44987200D01*
X14729349Y44946654D01*
X14729342Y44946651D01*
X14608273Y44868845D01*
X14514022Y44760072D01*
X14454234Y44629157D01*
X14433753Y44486703D01*
X14433753Y44486697D01*
X14441285Y44434307D01*
X14430851Y44374018D01*
X14413297Y44350215D01*
X14130067Y44066985D01*
X14115069Y44054677D01*
X14100179Y44044727D01*
X14100176Y44044725D01*
X14039284Y43953595D01*
X14026716Y43890406D01*
X14026716Y43890405D01*
X14017903Y43846101D01*
X14021398Y43828531D01*
X14023300Y43809217D01*
X14023300Y35855485D01*
X14021398Y35836173D01*
X14017903Y35818601D01*
X14017903Y35818598D01*
X14022343Y35796270D01*
X14022351Y35796238D01*
X14023300Y35791468D01*
X14023300Y35791467D01*
X14039285Y35711105D01*
X14039286Y35711104D01*
X14039286Y35711102D01*
X14100175Y35619977D01*
X14100176Y35619976D01*
X14115067Y35610026D01*
X14130069Y35597715D01*
X14723004Y35004780D01*
X14750781Y34950263D01*
X14752000Y34934776D01*
X14752000Y32409887D01*
X14733093Y32351696D01*
X14683593Y32315732D01*
X14625109Y32314897D01*
X14485464Y32355900D01*
X14485461Y32355900D01*
X14341539Y32355900D01*
X14341535Y32355900D01*
X14203449Y32315354D01*
X14203442Y32315351D01*
X14082373Y32237545D01*
X13988122Y32128772D01*
X13928334Y31997857D01*
X13907853Y31855403D01*
X13907853Y31855398D01*
X13928334Y31712944D01*
X13986641Y31585272D01*
X13988123Y31582027D01*
X14054061Y31505930D01*
X14082373Y31473256D01*
X14202736Y31395904D01*
X14203447Y31395447D01*
X14309903Y31364189D01*
X14341535Y31354901D01*
X14341536Y31354901D01*
X14341539Y31354900D01*
X14341541Y31354900D01*
X14485459Y31354900D01*
X14485461Y31354900D01*
X14623553Y31395447D01*
X14623553Y31395448D01*
X14625109Y31395904D01*
X14686269Y31394157D01*
X14734722Y31356794D01*
X14752000Y31300914D01*
X14752000Y30981225D01*
X14733093Y30923034D01*
X14723004Y30911221D01*
X14023967Y30212185D01*
X14008969Y30199877D01*
X13994079Y30189927D01*
X13994076Y30189925D01*
X13933185Y30098796D01*
X13931763Y30094107D01*
X13931283Y30089232D01*
X13911803Y29991301D01*
X13915298Y29973731D01*
X13917200Y29954417D01*
X13917200Y25609451D01*
X13898293Y25551260D01*
X13848793Y25515296D01*
X13787607Y25515296D01*
X13764677Y25526166D01*
X13748881Y25536317D01*
X13694053Y25571553D01*
X13694050Y25571554D01*
X13555964Y25612100D01*
X13555961Y25612100D01*
X13412039Y25612100D01*
X13412035Y25612100D01*
X13273949Y25571554D01*
X13273942Y25571551D01*
X13152873Y25493745D01*
X13105893Y25439526D01*
X13058623Y25384973D01*
X13058622Y25384972D01*
X13053987Y25379622D01*
X13052771Y25380675D01*
X13011910Y25347268D01*
X12950824Y25343781D01*
X12899354Y25376864D01*
X12877161Y25433883D01*
X12877000Y25439526D01*
X12877000Y28199517D01*
X12876999Y28199547D01*
X12876999Y28227933D01*
X12876998Y28227935D01*
X12869547Y28250867D01*
X12865919Y28265977D01*
X12864893Y28272459D01*
X12862146Y28289804D01*
X12851190Y28311305D01*
X12845250Y28325648D01*
X12837797Y28348587D01*
X12837796Y28348588D01*
X12837796Y28348590D01*
X12823617Y28368105D01*
X12815500Y28381351D01*
X12806642Y28398735D01*
X12804550Y28402842D01*
X12792694Y28414698D01*
X12764918Y28469216D01*
X12763700Y28484700D01*
X12763700Y34477206D01*
X12782607Y34535397D01*
X12801410Y34553155D01*
X12800773Y34553890D01*
X12806125Y34558528D01*
X12806128Y34558531D01*
X12900377Y34667301D01*
X12960165Y34798217D01*
X12969933Y34866157D01*
X12980647Y34940672D01*
X12980647Y34940677D01*
X12960165Y35083131D01*
X12924269Y35161731D01*
X12900377Y35214047D01*
X12806128Y35322817D01*
X12806127Y35322818D01*
X12806126Y35322819D01*
X12685057Y35400625D01*
X12685054Y35400627D01*
X12685053Y35400627D01*
X12685050Y35400628D01*
X12546964Y35441174D01*
X12546961Y35441174D01*
X12403039Y35441174D01*
X12403035Y35441174D01*
X12264949Y35400628D01*
X12264942Y35400625D01*
X12143873Y35322819D01*
X12049622Y35214046D01*
X11989834Y35083131D01*
X11969353Y34940677D01*
X11969353Y34933595D01*
X11967952Y34933595D01*
X11965017Y34899469D01*
X11962701Y34892341D01*
X11962700Y34892332D01*
X11962700Y28471855D01*
X11943793Y28413664D01*
X11894293Y28377700D01*
X11849622Y28373861D01*
X11846566Y28374300D01*
X11846561Y28374300D01*
X11702639Y28374300D01*
X11702635Y28374300D01*
X11564549Y28333754D01*
X11564542Y28333751D01*
X11443473Y28255945D01*
X11349222Y28147173D01*
X11312051Y28065781D01*
X11270678Y28020704D01*
X11210711Y28008555D01*
X11168475Y28023625D01*
X11059357Y28093751D01*
X11059354Y28093753D01*
X11059353Y28093753D01*
X11050890Y28096238D01*
X10921264Y28134300D01*
X10921261Y28134300D01*
X10777339Y28134300D01*
X10777335Y28134300D01*
X10639249Y28093754D01*
X10639242Y28093751D01*
X10518173Y28015945D01*
X10423922Y27907172D01*
X10364134Y27776257D01*
X10343653Y27633803D01*
X10343653Y27633798D01*
X10364134Y27491344D01*
X10423923Y27360427D01*
X10424616Y27359627D01*
X10424960Y27358811D01*
X10427753Y27354466D01*
X10427001Y27353984D01*
X10448436Y27303269D01*
X10448800Y27294792D01*
X10448800Y24545602D01*
X10429893Y24487411D01*
X10419804Y24475598D01*
X8731539Y22787334D01*
X8677022Y22759557D01*
X8616590Y22769128D01*
X8573325Y22812393D01*
X8571496Y22816180D01*
X8545377Y22873373D01*
X8451128Y22982143D01*
X8451127Y22982144D01*
X8451126Y22982145D01*
X8330057Y23059951D01*
X8330054Y23059953D01*
X8330053Y23059953D01*
X8330050Y23059954D01*
X8191964Y23100500D01*
X8191961Y23100500D01*
X8048039Y23100500D01*
X8048035Y23100500D01*
X7909949Y23059954D01*
X7909942Y23059951D01*
X7788873Y22982145D01*
X7694622Y22873372D01*
X7634834Y22742457D01*
X7614353Y22600003D01*
X7614353Y22599998D01*
X7634834Y22457544D01*
X7673836Y22372143D01*
X7694623Y22326627D01*
X7776493Y22232143D01*
X7788873Y22217856D01*
X7878588Y22160200D01*
X7909947Y22140047D01*
X8016403Y22108789D01*
X8048035Y22099501D01*
X8048036Y22099501D01*
X8048039Y22099500D01*
X8048041Y22099500D01*
X8191959Y22099500D01*
X8191961Y22099500D01*
X8260136Y22119518D01*
X8321294Y22117771D01*
X8369747Y22080408D01*
X8386986Y22021701D01*
X8366425Y21964074D01*
X8358030Y21954524D01*
X7784516Y21381009D01*
X7784515Y21381008D01*
X7761950Y21358442D01*
X7761948Y21358440D01*
X7750997Y21336949D01*
X7742887Y21323715D01*
X7728706Y21304194D01*
X7728701Y21304185D01*
X7721249Y21281248D01*
X7715305Y21266898D01*
X7704355Y21245409D01*
X7704352Y21245399D01*
X7700577Y21221571D01*
X7696953Y21206476D01*
X7689501Y21183538D01*
X7689500Y21183531D01*
X7689500Y10209908D01*
X7670593Y10151717D01*
X7665321Y10145079D01*
X7664623Y10144274D01*
X7604834Y10013357D01*
X7584353Y9870903D01*
X7584353Y9870898D01*
X300500Y9870898D01*
X300500Y18500000D01*
X2419435Y18500000D01*
X2439632Y18320743D01*
X2439633Y18320739D01*
X2499211Y18150478D01*
X2499211Y18150477D01*
X2593701Y18000098D01*
X2595184Y17997738D01*
X2722738Y17870184D01*
X2722740Y17870183D01*
X2722741Y17870182D01*
X2868860Y17778369D01*
X2875478Y17774211D01*
X2943657Y17750354D01*
X3045738Y17714634D01*
X3045742Y17714633D01*
X3045745Y17714632D01*
X3045746Y17714632D01*
X3045750Y17714631D01*
X3180029Y17699501D01*
X3180045Y17699501D01*
X3180046Y17699500D01*
X3180047Y17699500D01*
X3819953Y17699500D01*
X3819954Y17699500D01*
X3819955Y17699501D01*
X3819970Y17699501D01*
X3954249Y17714631D01*
X3954251Y17714632D01*
X3954255Y17714632D01*
X4124522Y17774211D01*
X4277262Y17870184D01*
X4404816Y17997738D01*
X4500789Y18150478D01*
X4556085Y18308504D01*
X4560366Y18320739D01*
X4560367Y18320743D01*
X4560368Y18320745D01*
X4580565Y18500000D01*
X4560368Y18679255D01*
X4554668Y18695544D01*
X4536014Y18748855D01*
X4500789Y18849522D01*
X4491476Y18864343D01*
X4404818Y19002259D01*
X4404817Y19002260D01*
X4404816Y19002262D01*
X4277262Y19129816D01*
X4277259Y19129818D01*
X4277258Y19129819D01*
X4124523Y19225789D01*
X3954261Y19285367D01*
X3954249Y19285370D01*
X3819970Y19300500D01*
X3819954Y19300500D01*
X3180046Y19300500D01*
X3180029Y19300500D01*
X3045750Y19285370D01*
X3045738Y19285367D01*
X2875477Y19225789D01*
X2875476Y19225789D01*
X2722741Y19129819D01*
X2595181Y19002259D01*
X2499211Y18849524D01*
X2499211Y18849523D01*
X2439633Y18679262D01*
X2439632Y18679258D01*
X2419435Y18500000D01*
X300500Y18500000D01*
X300500Y20095726D01*
X2424500Y20095726D01*
X2427353Y20065306D01*
X2427355Y20065297D01*
X2472207Y19937117D01*
X2552845Y19827856D01*
X2552847Y19827854D01*
X2552850Y19827850D01*
X2552853Y19827848D01*
X2552855Y19827846D01*
X2662116Y19747208D01*
X2662117Y19747208D01*
X2662118Y19747207D01*
X2790301Y19702354D01*
X2820725Y19699501D01*
X2820727Y19699500D01*
X2820734Y19699500D01*
X4179273Y19699500D01*
X4179273Y19699501D01*
X4209699Y19702354D01*
X4337882Y19747207D01*
X4447150Y19827850D01*
X4527793Y19937118D01*
X4572646Y20065301D01*
X4575499Y20095727D01*
X4575500Y20095727D01*
X4575500Y20904273D01*
X4575499Y20904275D01*
X4572646Y20934695D01*
X4572646Y20934699D01*
X4527793Y21062882D01*
X4469064Y21142457D01*
X4447154Y21172145D01*
X4447152Y21172147D01*
X4447150Y21172150D01*
X4447146Y21172153D01*
X4447144Y21172155D01*
X4337883Y21252793D01*
X4209703Y21297645D01*
X4209694Y21297647D01*
X4179274Y21300500D01*
X4179266Y21300500D01*
X2820734Y21300500D01*
X2820725Y21300500D01*
X2790305Y21297647D01*
X2790296Y21297645D01*
X2662116Y21252793D01*
X2552855Y21172155D01*
X2552845Y21172145D01*
X2472207Y21062884D01*
X2427355Y20934704D01*
X2427353Y20934695D01*
X2424500Y20904275D01*
X2424500Y20095726D01*
X300500Y20095726D01*
X300500Y27000000D01*
X3845073Y27000000D01*
X3864738Y26787784D01*
X3923064Y26582790D01*
X4018059Y26392013D01*
X4018068Y26391998D01*
X4087681Y26299817D01*
X4555183Y26767319D01*
X4618239Y26669202D01*
X4726900Y26575048D01*
X4768280Y26556150D01*
X4296927Y26084796D01*
X4304003Y26078347D01*
X4304005Y26078346D01*
X4485202Y25966154D01*
X4485204Y25966153D01*
X4683941Y25889162D01*
X4893437Y25850000D01*
X5106563Y25850000D01*
X5316058Y25889162D01*
X5514793Y25966153D01*
X5696001Y26078351D01*
X5703071Y26084796D01*
X5231717Y26556150D01*
X5273100Y26575048D01*
X5381761Y26669202D01*
X5444815Y26767318D01*
X5912316Y26299817D01*
X5981937Y26392008D01*
X5981942Y26392017D01*
X6076935Y26582790D01*
X6135261Y26787784D01*
X6154926Y27000000D01*
X6135261Y27212217D01*
X6076935Y27417211D01*
X5981940Y27607988D01*
X5981935Y27607997D01*
X5912316Y27700185D01*
X5444814Y27232684D01*
X5381761Y27330798D01*
X5273100Y27424952D01*
X5231716Y27443852D01*
X5703071Y27915206D01*
X5695996Y27921654D01*
X5514797Y28033847D01*
X5514795Y28033848D01*
X5316058Y28110839D01*
X5106563Y28150000D01*
X4893437Y28150000D01*
X4683941Y28110839D01*
X4485204Y28033848D01*
X4485202Y28033847D01*
X4304002Y27921653D01*
X4296927Y27915206D01*
X4768282Y27443851D01*
X4726900Y27424952D01*
X4618239Y27330798D01*
X4555184Y27232683D01*
X4087682Y27700185D01*
X4018062Y27607993D01*
X4018057Y27607984D01*
X3923064Y27417211D01*
X3864738Y27212217D01*
X3845073Y27000000D01*
X300500Y27000000D01*
X300500Y28499996D01*
X944919Y28499996D01*
X965190Y28294170D01*
X965191Y28294164D01*
X1025232Y28096238D01*
X1025234Y28096233D01*
X1122724Y27913840D01*
X1122731Y27913830D01*
X1158324Y27870459D01*
X1593044Y28305180D01*
X1605887Y28272459D01*
X1690465Y28166401D01*
X1802290Y28090160D01*
X1370457Y27658326D01*
X1413828Y27622732D01*
X1413834Y27622728D01*
X1596232Y27525235D01*
X1596237Y27525233D01*
X1794163Y27465192D01*
X1794169Y27465191D01*
X1999996Y27444919D01*
X2000004Y27444919D01*
X2205830Y27465191D01*
X2205836Y27465192D01*
X2403762Y27525233D01*
X2403767Y27525235D01*
X2586166Y27622730D01*
X2586177Y27622737D01*
X2629541Y27658326D01*
X2193935Y28093932D01*
X2256357Y28123993D01*
X2355798Y28216260D01*
X2407068Y28305065D01*
X2841674Y27870459D01*
X2877263Y27913823D01*
X2877270Y27913834D01*
X2974765Y28096233D01*
X2974767Y28096238D01*
X3034808Y28294164D01*
X3034809Y28294170D01*
X3055081Y28499996D01*
X3055081Y28500005D01*
X3034809Y28705831D01*
X3034808Y28705837D01*
X2974767Y28903763D01*
X2974765Y28903768D01*
X2877272Y29086166D01*
X2877268Y29086172D01*
X2841674Y29129543D01*
X2406953Y28694823D01*
X2394113Y28727541D01*
X2309535Y28833599D01*
X2197707Y28909843D01*
X2629541Y29341676D01*
X2586170Y29377269D01*
X2586160Y29377276D01*
X2403767Y29474766D01*
X2403762Y29474768D01*
X2205836Y29534809D01*
X2205830Y29534810D01*
X2000004Y29555081D01*
X1999996Y29555081D01*
X1794169Y29534810D01*
X1794163Y29534809D01*
X1596237Y29474768D01*
X1596232Y29474766D01*
X1413834Y29377272D01*
X1413824Y29377266D01*
X1370457Y29341676D01*
X1806064Y28906069D01*
X1743643Y28876007D01*
X1644202Y28783740D01*
X1592931Y28694936D01*
X1158324Y29129543D01*
X1122734Y29086176D01*
X1122728Y29086166D01*
X1025234Y28903768D01*
X1025232Y28903763D01*
X965191Y28705837D01*
X965190Y28705831D01*
X944919Y28500005D01*
X944919Y28499996D01*
X300500Y28499996D01*
X300500Y31180254D01*
X999500Y31180254D01*
X999501Y31180242D01*
X1011132Y31121773D01*
X1011134Y31121767D01*
X1049983Y31063627D01*
X1055448Y31055448D01*
X1121769Y31011133D01*
X1166231Y31002289D01*
X1180241Y30999502D01*
X1180246Y30999502D01*
X1180252Y30999500D01*
X1180253Y30999500D01*
X2819747Y30999500D01*
X2819748Y30999500D01*
X2878231Y31011133D01*
X2944552Y31055448D01*
X2961127Y31080254D01*
X3899500Y31080254D01*
X3899501Y31080242D01*
X3911132Y31021773D01*
X3911134Y31021767D01*
X3926013Y30999500D01*
X3955448Y30955448D01*
X4021769Y30911133D01*
X4066231Y30902289D01*
X4080241Y30899502D01*
X4080246Y30899502D01*
X4080252Y30899500D01*
X4080253Y30899500D01*
X5919747Y30899500D01*
X5919748Y30899500D01*
X5978231Y30911133D01*
X6044552Y30955448D01*
X6088867Y31021769D01*
X6100500Y31080252D01*
X6100500Y32919748D01*
X6088867Y32978231D01*
X6044552Y33044552D01*
X6044548Y33044555D01*
X5978233Y33088866D01*
X5978231Y33088867D01*
X5978228Y33088868D01*
X5978227Y33088868D01*
X5919758Y33100499D01*
X5919748Y33100500D01*
X4080252Y33100500D01*
X4080251Y33100500D01*
X4080241Y33100499D01*
X4021772Y33088868D01*
X4021766Y33088866D01*
X3955451Y33044555D01*
X3955445Y33044549D01*
X3911134Y32978234D01*
X3911132Y32978228D01*
X3899501Y32919759D01*
X3899500Y32919747D01*
X3899500Y31080254D01*
X2961127Y31080254D01*
X2988867Y31121769D01*
X3000500Y31180252D01*
X3000500Y32819748D01*
X2988867Y32878231D01*
X2944552Y32944552D01*
X2943632Y32945167D01*
X2878233Y32988866D01*
X2878231Y32988867D01*
X2878228Y32988868D01*
X2878227Y32988868D01*
X2819758Y33000499D01*
X2819748Y33000500D01*
X1180252Y33000500D01*
X1180251Y33000500D01*
X1180241Y33000499D01*
X1121772Y32988868D01*
X1121766Y32988866D01*
X1055451Y32944555D01*
X1055445Y32944549D01*
X1011134Y32878234D01*
X1011132Y32878228D01*
X999501Y32819759D01*
X999500Y32819747D01*
X999500Y31180254D01*
X300500Y31180254D01*
X300500Y33399998D01*
X8470853Y33399998D01*
X8491334Y33257544D01*
X8539124Y33152900D01*
X8551123Y33126627D01*
X8630912Y33034545D01*
X8645373Y33017856D01*
X8766442Y32940050D01*
X8766447Y32940047D01*
X8872903Y32908789D01*
X8904535Y32899501D01*
X8904536Y32899501D01*
X8904539Y32899500D01*
X8904541Y32899500D01*
X9048459Y32899500D01*
X9048461Y32899500D01*
X9186553Y32940047D01*
X9307628Y33017857D01*
X9401877Y33126627D01*
X9461665Y33257543D01*
X9468492Y33305029D01*
X9482147Y33399998D01*
X9482147Y33400003D01*
X9461665Y33542457D01*
X9401877Y33673372D01*
X9401877Y33673373D01*
X9307628Y33782143D01*
X9307627Y33782144D01*
X9307626Y33782145D01*
X9186557Y33859951D01*
X9186554Y33859953D01*
X9186553Y33859953D01*
X9186550Y33859954D01*
X9048464Y33900500D01*
X9048461Y33900500D01*
X8904539Y33900500D01*
X8904535Y33900500D01*
X8766449Y33859954D01*
X8766442Y33859951D01*
X8645373Y33782145D01*
X8551122Y33673372D01*
X8491334Y33542457D01*
X8470853Y33400003D01*
X8470853Y33399998D01*
X300500Y33399998D01*
X300500Y35402398D01*
X9346753Y35402398D01*
X9367234Y35259944D01*
X9418984Y35146629D01*
X9427023Y35129027D01*
X9506161Y35037696D01*
X9521273Y35020256D01*
X9641891Y34942740D01*
X9642347Y34942447D01*
X9748548Y34911264D01*
X9780435Y34901901D01*
X9780436Y34901901D01*
X9780439Y34901900D01*
X9780441Y34901900D01*
X9924359Y34901900D01*
X9924361Y34901900D01*
X10062453Y34942447D01*
X10183528Y35020257D01*
X10277777Y35129027D01*
X10337565Y35259943D01*
X10350958Y35353093D01*
X10358047Y35402398D01*
X10358047Y35402403D01*
X10337565Y35544857D01*
X10318833Y35585873D01*
X10277777Y35675773D01*
X10183528Y35784543D01*
X10183527Y35784544D01*
X10183526Y35784545D01*
X10062457Y35862351D01*
X10062454Y35862353D01*
X10062453Y35862353D01*
X10062450Y35862354D01*
X9924364Y35902900D01*
X9924361Y35902900D01*
X9780439Y35902900D01*
X9780435Y35902900D01*
X9642349Y35862354D01*
X9642342Y35862351D01*
X9521273Y35784545D01*
X9427022Y35675772D01*
X9367234Y35544857D01*
X9346753Y35402403D01*
X9346753Y35402398D01*
X300500Y35402398D01*
X300500Y37419998D01*
X8794353Y37419998D01*
X8814834Y37277544D01*
X8869089Y37158744D01*
X8874623Y37146627D01*
X8922882Y37090933D01*
X8968873Y37037856D01*
X9089942Y36960050D01*
X9089947Y36960047D01*
X9194510Y36929345D01*
X9228035Y36919501D01*
X9228036Y36919501D01*
X9228039Y36919500D01*
X9228041Y36919500D01*
X9371959Y36919500D01*
X9371961Y36919500D01*
X9510053Y36960047D01*
X9631128Y37037857D01*
X9725377Y37146627D01*
X9785165Y37277543D01*
X9800852Y37386649D01*
X9805647Y37419998D01*
X9805647Y37420003D01*
X9785165Y37562457D01*
X9761020Y37615327D01*
X9725377Y37693373D01*
X9631128Y37802143D01*
X9631127Y37802144D01*
X9631126Y37802145D01*
X9510057Y37879951D01*
X9510054Y37879953D01*
X9510053Y37879953D01*
X9510050Y37879954D01*
X9371964Y37920500D01*
X9371961Y37920500D01*
X9228039Y37920500D01*
X9228035Y37920500D01*
X9089949Y37879954D01*
X9089942Y37879951D01*
X8968873Y37802145D01*
X8874622Y37693372D01*
X8814834Y37562457D01*
X8794353Y37420003D01*
X8794353Y37419998D01*
X300500Y37419998D01*
X300500Y44000000D01*
X3845073Y44000000D01*
X3864738Y43787784D01*
X3923064Y43582790D01*
X4018059Y43392013D01*
X4018068Y43391998D01*
X4087681Y43299817D01*
X4555183Y43767319D01*
X4618239Y43669202D01*
X4726900Y43575048D01*
X4768280Y43556150D01*
X4296927Y43084796D01*
X4304003Y43078347D01*
X4304005Y43078346D01*
X4485202Y42966154D01*
X4485204Y42966153D01*
X4683941Y42889162D01*
X4893437Y42850000D01*
X5106563Y42850000D01*
X5316058Y42889162D01*
X5514793Y42966153D01*
X5696001Y43078351D01*
X5703071Y43084796D01*
X5231717Y43556150D01*
X5273100Y43575048D01*
X5381761Y43669202D01*
X5444815Y43767318D01*
X5912316Y43299817D01*
X5981937Y43392008D01*
X5981942Y43392017D01*
X6076935Y43582790D01*
X6135261Y43787784D01*
X6154926Y44000000D01*
X6135261Y44212217D01*
X6110342Y44299798D01*
X9224653Y44299798D01*
X9245134Y44157344D01*
X9296566Y44044725D01*
X9304923Y44026427D01*
X9364905Y43957204D01*
X9399173Y43917656D01*
X9510517Y43846100D01*
X9520247Y43839847D01*
X9624564Y43809217D01*
X9658335Y43799301D01*
X9658336Y43799301D01*
X9658339Y43799300D01*
X9658341Y43799300D01*
X9802259Y43799300D01*
X9802261Y43799300D01*
X9940353Y43839847D01*
X10061428Y43917657D01*
X10155677Y44026427D01*
X10215465Y44157343D01*
X10223514Y44213327D01*
X10235947Y44299798D01*
X10235947Y44299803D01*
X10215465Y44442257D01*
X10208540Y44457420D01*
X10155677Y44573173D01*
X10061428Y44681943D01*
X10061427Y44681944D01*
X10061426Y44681945D01*
X9940357Y44759751D01*
X9940354Y44759753D01*
X9940353Y44759753D01*
X9939267Y44760072D01*
X9802264Y44800300D01*
X9802261Y44800300D01*
X9658339Y44800300D01*
X9658335Y44800300D01*
X9520249Y44759754D01*
X9520242Y44759751D01*
X9399173Y44681945D01*
X9304922Y44573172D01*
X9245134Y44442257D01*
X9224653Y44299803D01*
X9224653Y44299798D01*
X6110342Y44299798D01*
X6076935Y44417211D01*
X5981940Y44607988D01*
X5981935Y44607997D01*
X5912316Y44700185D01*
X5444814Y44232684D01*
X5381761Y44330798D01*
X5273100Y44424952D01*
X5231716Y44443852D01*
X5703071Y44915206D01*
X5695996Y44921654D01*
X5514797Y45033847D01*
X5514795Y45033848D01*
X5316058Y45110839D01*
X5106563Y45150000D01*
X4893437Y45150000D01*
X4683941Y45110839D01*
X4485204Y45033848D01*
X4485202Y45033847D01*
X4304002Y44921653D01*
X4296927Y44915206D01*
X4768282Y44443851D01*
X4726900Y44424952D01*
X4618239Y44330798D01*
X4555184Y44232683D01*
X4087682Y44700185D01*
X4018062Y44607993D01*
X4018057Y44607984D01*
X3923064Y44417211D01*
X3864738Y44212217D01*
X3845073Y44000000D01*
X300500Y44000000D01*
X300500Y45499996D01*
X944919Y45499996D01*
X965190Y45294170D01*
X965191Y45294164D01*
X1025232Y45096238D01*
X1025234Y45096233D01*
X1122724Y44913840D01*
X1122731Y44913830D01*
X1158324Y44870459D01*
X1593044Y45305180D01*
X1605887Y45272459D01*
X1690465Y45166401D01*
X1802290Y45090160D01*
X1370457Y44658326D01*
X1413828Y44622732D01*
X1413834Y44622728D01*
X1596232Y44525235D01*
X1596237Y44525233D01*
X1794163Y44465192D01*
X1794169Y44465191D01*
X1999996Y44444919D01*
X2000004Y44444919D01*
X2205830Y44465191D01*
X2205836Y44465192D01*
X2403762Y44525233D01*
X2403767Y44525235D01*
X2586166Y44622730D01*
X2586177Y44622737D01*
X2629541Y44658326D01*
X2193935Y45093932D01*
X2256357Y45123993D01*
X2355798Y45216260D01*
X2407068Y45305065D01*
X2841674Y44870459D01*
X2877263Y44913823D01*
X2877270Y44913834D01*
X2974765Y45096233D01*
X2974767Y45096238D01*
X3034808Y45294164D01*
X3034809Y45294170D01*
X3055081Y45499996D01*
X3055081Y45500005D01*
X3034809Y45705831D01*
X3034808Y45705837D01*
X2974767Y45903763D01*
X2974765Y45903768D01*
X2877272Y46086166D01*
X2877268Y46086172D01*
X2841674Y46129543D01*
X2406953Y45694823D01*
X2394113Y45727541D01*
X2309535Y45833599D01*
X2197707Y45909843D01*
X2629541Y46341676D01*
X2586170Y46377269D01*
X2586160Y46377276D01*
X2403767Y46474766D01*
X2403762Y46474768D01*
X2205836Y46534809D01*
X2205830Y46534810D01*
X2000004Y46555081D01*
X1999996Y46555081D01*
X1794169Y46534810D01*
X1794163Y46534809D01*
X1596237Y46474768D01*
X1596232Y46474766D01*
X1413834Y46377272D01*
X1413824Y46377266D01*
X1370457Y46341676D01*
X1806064Y45906069D01*
X1743643Y45876007D01*
X1644202Y45783740D01*
X1592931Y45694936D01*
X1158324Y46129543D01*
X1122734Y46086176D01*
X1122728Y46086166D01*
X1025234Y45903768D01*
X1025232Y45903763D01*
X965191Y45705837D01*
X965190Y45705831D01*
X944919Y45500005D01*
X944919Y45499996D01*
X300500Y45499996D01*
X300500Y47219998D01*
X14694353Y47219998D01*
X14714834Y47077544D01*
X14769637Y46957544D01*
X14774623Y46946627D01*
X14868872Y46837857D01*
X14868873Y46837856D01*
X14989942Y46760050D01*
X14989947Y46760047D01*
X15091962Y46730093D01*
X15128035Y46719501D01*
X15128036Y46719501D01*
X15128039Y46719500D01*
X15128041Y46719500D01*
X15251044Y46719500D01*
X15309235Y46700593D01*
X15345199Y46651093D01*
X15345199Y46589907D01*
X15309235Y46540407D01*
X15304567Y46537216D01*
X15218873Y46482145D01*
X15124622Y46373372D01*
X15064834Y46242457D01*
X15044353Y46100003D01*
X15044353Y46099998D01*
X15064834Y45957544D01*
X15115682Y45846205D01*
X15124623Y45826627D01*
X15152153Y45794856D01*
X15218873Y45717856D01*
X15339942Y45640050D01*
X15339947Y45640047D01*
X15446403Y45608789D01*
X15478035Y45599501D01*
X15478036Y45599501D01*
X15478039Y45599500D01*
X15478041Y45599500D01*
X15621959Y45599500D01*
X15621961Y45599500D01*
X15760053Y45640047D01*
X15881128Y45717857D01*
X15975377Y45826627D01*
X16035165Y45957543D01*
X16041563Y46002043D01*
X16054908Y46094858D01*
X16057194Y46099509D01*
X16054908Y46105143D01*
X16035165Y46242457D01*
X15999914Y46319645D01*
X15975377Y46373373D01*
X15881128Y46482143D01*
X15881127Y46482144D01*
X15881126Y46482145D01*
X15760057Y46559951D01*
X15760054Y46559953D01*
X15760053Y46559953D01*
X15760050Y46559954D01*
X15621964Y46600500D01*
X15621961Y46600500D01*
X15498956Y46600500D01*
X15440765Y46619407D01*
X15404801Y46668907D01*
X15404801Y46730093D01*
X15440765Y46779593D01*
X15445433Y46782784D01*
X15488878Y46810706D01*
X15531128Y46837857D01*
X15625377Y46946627D01*
X15685165Y47077543D01*
X15696039Y47153173D01*
X15705647Y47219998D01*
X15705647Y47220003D01*
X15685165Y47362457D01*
X15665351Y47405843D01*
X15625377Y47493373D01*
X15531128Y47602143D01*
X15531127Y47602144D01*
X15531126Y47602145D01*
X15410057Y47679951D01*
X15410054Y47679953D01*
X15410053Y47679953D01*
X15410050Y47679954D01*
X15271964Y47720500D01*
X15271961Y47720500D01*
X15128039Y47720500D01*
X15128035Y47720500D01*
X14989949Y47679954D01*
X14989942Y47679951D01*
X14868873Y47602145D01*
X14774622Y47493372D01*
X14714834Y47362457D01*
X14694353Y47220003D01*
X14694353Y47219998D01*
X300500Y47219998D01*
X300500Y48180254D01*
X999500Y48180254D01*
X999501Y48180242D01*
X1011132Y48121773D01*
X1011133Y48121769D01*
X1055448Y48055448D01*
X1121769Y48011133D01*
X1166231Y48002289D01*
X1180241Y47999502D01*
X1180246Y47999502D01*
X1180252Y47999500D01*
X1180253Y47999500D01*
X2819747Y47999500D01*
X2819748Y47999500D01*
X2878231Y48011133D01*
X2944552Y48055448D01*
X2961127Y48080254D01*
X3899500Y48080254D01*
X3899501Y48080242D01*
X3911132Y48021773D01*
X3911134Y48021767D01*
X3926013Y47999500D01*
X3955448Y47955448D01*
X4021769Y47911133D01*
X4066231Y47902289D01*
X4080241Y47899502D01*
X4080246Y47899502D01*
X4080252Y47899500D01*
X4080253Y47899500D01*
X5919747Y47899500D01*
X5919748Y47899500D01*
X5978231Y47911133D01*
X6044552Y47955448D01*
X6088867Y48021769D01*
X6100500Y48080252D01*
X6100500Y49919748D01*
X6088867Y49978231D01*
X6044552Y50044552D01*
X6044548Y50044555D01*
X5978233Y50088866D01*
X5978231Y50088867D01*
X5978228Y50088868D01*
X5978227Y50088868D01*
X5919758Y50100499D01*
X5919748Y50100500D01*
X4080252Y50100500D01*
X4080251Y50100500D01*
X4080241Y50100499D01*
X4021772Y50088868D01*
X4021766Y50088866D01*
X3955451Y50044555D01*
X3955445Y50044549D01*
X3911134Y49978234D01*
X3911132Y49978228D01*
X3899501Y49919759D01*
X3899500Y49919747D01*
X3899500Y48080254D01*
X2961127Y48080254D01*
X2988867Y48121769D01*
X3000500Y48180252D01*
X3000500Y49819748D01*
X2988867Y49878231D01*
X2944552Y49944552D01*
X2944548Y49944555D01*
X2878233Y49988866D01*
X2878231Y49988867D01*
X2878228Y49988868D01*
X2878227Y49988868D01*
X2819758Y50000499D01*
X2819748Y50000500D01*
X1180252Y50000500D01*
X1180251Y50000500D01*
X1180241Y50000499D01*
X1121772Y49988868D01*
X1121766Y49988866D01*
X1055451Y49944555D01*
X1055445Y49944549D01*
X1011134Y49878234D01*
X1011132Y49878228D01*
X999501Y49819759D01*
X999500Y49819747D01*
X999500Y48180254D01*
X300500Y48180254D01*
X300500Y57125376D01*
X10010000Y57125376D01*
X10024506Y57052454D01*
X10024507Y57052452D01*
X10079758Y56969763D01*
X10079762Y56969759D01*
X10162451Y56914508D01*
X10162453Y56914507D01*
X10235375Y56900001D01*
X10235377Y56900000D01*
X10959999Y56900000D01*
X10960000Y56900001D01*
X10960000Y57518830D01*
X10967685Y57515320D01*
X11074237Y57500000D01*
X11145763Y57500000D01*
X11252315Y57515320D01*
X11260000Y57518830D01*
X11260000Y56900001D01*
X11260001Y56900000D01*
X11984623Y56900000D01*
X11984624Y56900001D01*
X12057546Y56914507D01*
X12057548Y56914508D01*
X12140237Y56969759D01*
X12140241Y56969763D01*
X12195492Y57052452D01*
X12195493Y57052454D01*
X12209999Y57125376D01*
X12210000Y57125378D01*
X12210000Y57849999D01*
X12209999Y57850000D01*
X11587065Y57850000D01*
X11610000Y57928111D01*
X11610000Y57999997D01*
X12594417Y57999997D01*
X12614698Y57794071D01*
X12614699Y57794066D01*
X12674768Y57596046D01*
X12772316Y57413548D01*
X12903585Y57253596D01*
X12903590Y57253590D01*
X12903595Y57253586D01*
X13063547Y57122317D01*
X13063548Y57122317D01*
X13063550Y57122315D01*
X13246046Y57024768D01*
X13374498Y56985803D01*
X13444065Y56964700D01*
X13444070Y56964699D01*
X13649997Y56944417D01*
X13650000Y56944417D01*
X13650003Y56944417D01*
X13855929Y56964699D01*
X13855934Y56964700D01*
X13872611Y56969759D01*
X14053954Y57024768D01*
X14236450Y57122315D01*
X14396410Y57253590D01*
X14527685Y57413550D01*
X14625232Y57596046D01*
X14685300Y57794066D01*
X14685301Y57794071D01*
X14705583Y57999997D01*
X15134417Y57999997D01*
X15154698Y57794071D01*
X15154699Y57794066D01*
X15214768Y57596046D01*
X15312316Y57413548D01*
X15443585Y57253596D01*
X15443590Y57253590D01*
X15443595Y57253586D01*
X15603547Y57122317D01*
X15603548Y57122317D01*
X15603550Y57122315D01*
X15786046Y57024768D01*
X15914498Y56985803D01*
X15984065Y56964700D01*
X15984070Y56964699D01*
X16189997Y56944417D01*
X16190000Y56944417D01*
X16190003Y56944417D01*
X16395929Y56964699D01*
X16395934Y56964700D01*
X16412611Y56969759D01*
X16593954Y57024768D01*
X16776450Y57122315D01*
X16936410Y57253590D01*
X17067685Y57413550D01*
X17165232Y57596046D01*
X17225300Y57794066D01*
X17225301Y57794071D01*
X17245583Y57999997D01*
X17245583Y58000004D01*
X17225301Y58205930D01*
X17225300Y58205935D01*
X17187423Y58330798D01*
X17165232Y58403954D01*
X17067685Y58586450D01*
X16936410Y58746410D01*
X16936404Y58746415D01*
X16776452Y58877684D01*
X16593954Y58975232D01*
X16395934Y59035301D01*
X16395929Y59035302D01*
X16190003Y59055583D01*
X16189997Y59055583D01*
X15984070Y59035302D01*
X15984065Y59035301D01*
X15786045Y58975232D01*
X15603547Y58877684D01*
X15443595Y58746415D01*
X15443585Y58746405D01*
X15312316Y58586453D01*
X15214768Y58403955D01*
X15154699Y58205935D01*
X15154698Y58205930D01*
X15134417Y58000004D01*
X15134417Y57999997D01*
X14705583Y57999997D01*
X14705583Y58000004D01*
X14685301Y58205930D01*
X14685300Y58205935D01*
X14647423Y58330798D01*
X14625232Y58403954D01*
X14527685Y58586450D01*
X14396410Y58746410D01*
X14396404Y58746415D01*
X14236452Y58877684D01*
X14053954Y58975232D01*
X13855934Y59035301D01*
X13855929Y59035302D01*
X13650003Y59055583D01*
X13649997Y59055583D01*
X13444070Y59035302D01*
X13444065Y59035301D01*
X13246045Y58975232D01*
X13063547Y58877684D01*
X12903595Y58746415D01*
X12903585Y58746405D01*
X12772316Y58586453D01*
X12674768Y58403955D01*
X12614699Y58205935D01*
X12614698Y58205930D01*
X12594417Y58000004D01*
X12594417Y57999997D01*
X11610000Y57999997D01*
X11610000Y58071889D01*
X11587065Y58150000D01*
X12209999Y58150000D01*
X12210000Y58150001D01*
X12210000Y58874623D01*
X12209999Y58874625D01*
X12195493Y58947547D01*
X12195492Y58947549D01*
X12140241Y59030238D01*
X12140237Y59030242D01*
X12057548Y59085493D01*
X12057546Y59085494D01*
X11984624Y59100000D01*
X11260001Y59100000D01*
X11260000Y59099999D01*
X11260000Y58481171D01*
X11252315Y58484680D01*
X11145763Y58500000D01*
X11074237Y58500000D01*
X10967685Y58484680D01*
X10960000Y58481171D01*
X10960000Y59099999D01*
X10959999Y59100000D01*
X10235375Y59100000D01*
X10162453Y59085494D01*
X10162451Y59085493D01*
X10079762Y59030242D01*
X10079758Y59030238D01*
X10024507Y58947549D01*
X10024506Y58947547D01*
X10010000Y58874625D01*
X10010000Y58150001D01*
X10010001Y58150000D01*
X10632935Y58150000D01*
X10610000Y58071889D01*
X10610000Y57928111D01*
X10632935Y57850000D01*
X10010001Y57850000D01*
X10010000Y57849999D01*
X10010000Y57125376D01*
X300500Y57125376D01*
X300500Y58496110D01*
X300805Y58503877D01*
X302691Y58527844D01*
X314656Y58679885D01*
X317083Y58695210D01*
X357390Y58863101D01*
X362186Y58877860D01*
X428259Y59037375D01*
X435300Y59051193D01*
X525518Y59198417D01*
X534635Y59210965D01*
X646767Y59342254D01*
X657749Y59353235D01*
X789035Y59465365D01*
X801583Y59474482D01*
X948807Y59564700D01*
X962625Y59571741D01*
X1122140Y59637814D01*
X1136899Y59642610D01*
X1304790Y59682917D01*
X1320115Y59685344D01*
X1496123Y59699196D01*
X1503890Y59699500D01*
X1547594Y59699500D01*
X38452405Y59699500D01*
X38496107Y59699500D01*
X38503874Y59699195D01*
G37*
%TD.AperFunction*%
%TD*%
M02*
