%TF.GenerationSoftware,KiCad,Pcbnew,7.0.11+dfsg-1build4*%
%TF.CreationDate,2026-09-26T07:37:13+00:00*%
%TF.ProjectId,trinketcore,7472696e-6b65-4746-936f-72652e6b6963,rev?*%
%TF.SameCoordinates,Original*%
%TF.FileFunction,Soldermask,Top*%
%TF.FilePolarity,Negative*%
%FSLAX46Y46*%
G04 Gerber Fmt 4.6, Leading zero omitted, Abs format (unit mm)*
G04 Created by KiCad (PCBNEW 7.0.11+dfsg-1build4) date 2026-09-26 07:37:13*
%MOMM*%
%LPD*%
G01*
G04 APERTURE LIST*
G04 Aperture macros list*
%AMRoundRect*
0 Rectangle with rounded corners*
0 $1 Rounding radius*
0 $2 $3 $4 $5 $6 $7 $8 $9 X,Y pos of 4 corners*
0 Add a 4 corners polygon primitive as box body*
4,1,4,$2,$3,$4,$5,$6,$7,$8,$9,$2,$3,0*
0 Add four circle primitives for the rounded corners*
1,1,$1+$1,$2,$3*
1,1,$1+$1,$4,$5*
1,1,$1+$1,$6,$7*
1,1,$1+$1,$8,$9*
0 Add four rect primitives between the rounded corners*
20,1,$1+$1,$2,$3,$4,$5,0*
20,1,$1+$1,$4,$5,$6,$7,0*
20,1,$1+$1,$6,$7,$8,$9,0*
20,1,$1+$1,$8,$9,$2,$3,0*%
%AMFreePoly0*
4,1,19,0.500000,-0.750000,0.000000,-0.750000,0.000000,-0.744911,-0.071157,-0.744911,-0.207708,-0.704816,-0.327430,-0.627875,-0.420627,-0.520320,-0.479746,-0.390866,-0.500000,-0.250000,-0.500000,0.250000,-0.479746,0.390866,-0.420627,0.520320,-0.327430,0.627875,-0.207708,0.704816,-0.071157,0.744911,0.000000,0.744911,0.000000,0.750000,0.500000,0.750000,0.500000,-0.750000,0.500000,-0.750000,
$1*%
%AMFreePoly1*
4,1,19,0.000000,0.744911,0.071157,0.744911,0.207708,0.704816,0.327430,0.627875,0.420627,0.520320,0.479746,0.390866,0.500000,0.250000,0.500000,-0.250000,0.479746,-0.390866,0.420627,-0.520320,0.327430,-0.627875,0.207708,-0.704816,0.071157,-0.744911,0.000000,-0.744911,0.000000,-0.750000,-0.500000,-0.750000,-0.500000,0.750000,0.000000,0.750000,0.000000,0.744911,0.000000,0.744911,
$1*%
G04 Aperture macros list end*
%ADD10RoundRect,0.140000X-0.170000X0.140000X-0.170000X-0.140000X0.170000X-0.140000X0.170000X0.140000X0*%
%ADD11RoundRect,0.250000X0.475000X-0.250000X0.475000X0.250000X-0.475000X0.250000X-0.475000X-0.250000X0*%
%ADD12RoundRect,0.140000X-0.140000X-0.170000X0.140000X-0.170000X0.140000X0.170000X-0.140000X0.170000X0*%
%ADD13RoundRect,0.140000X0.170000X-0.140000X0.170000X0.140000X-0.170000X0.140000X-0.170000X-0.140000X0*%
%ADD14FreePoly0,90.000000*%
%ADD15FreePoly1,90.000000*%
%ADD16R,1.700000X1.700000*%
%ADD17O,1.700000X1.700000*%
%ADD18RoundRect,0.135000X-0.135000X-0.185000X0.135000X-0.185000X0.135000X0.185000X-0.135000X0.185000X0*%
%ADD19RoundRect,0.112500X0.112500X-0.187500X0.112500X0.187500X-0.112500X0.187500X-0.112500X-0.187500X0*%
%ADD20RoundRect,0.135000X0.185000X-0.135000X0.185000X0.135000X-0.185000X0.135000X-0.185000X-0.135000X0*%
%ADD21RoundRect,0.150000X-0.587500X-0.150000X0.587500X-0.150000X0.587500X0.150000X-0.587500X0.150000X0*%
%ADD22C,2.000000*%
%ADD23RoundRect,0.140000X0.140000X0.170000X-0.140000X0.170000X-0.140000X-0.170000X0.140000X-0.170000X0*%
%ADD24R,1.000000X1.800000*%
%ADD25R,1.800000X1.800000*%
%ADD26R,1.600000X1.600000*%
%ADD27C,1.600000*%
%ADD28C,1.800000*%
%ADD29RoundRect,0.135000X0.135000X0.185000X-0.135000X0.185000X-0.135000X-0.185000X0.135000X-0.185000X0*%
%ADD30RoundRect,0.218750X0.218750X0.256250X-0.218750X0.256250X-0.218750X-0.256250X0.218750X-0.256250X0*%
%ADD31R,0.900000X1.700000*%
%ADD32RoundRect,0.225000X0.250000X-0.225000X0.250000X0.225000X-0.250000X0.225000X-0.250000X-0.225000X0*%
%ADD33RoundRect,0.062500X0.350000X0.062500X-0.350000X0.062500X-0.350000X-0.062500X0.350000X-0.062500X0*%
%ADD34RoundRect,0.062500X0.062500X0.350000X-0.062500X0.350000X-0.062500X-0.350000X0.062500X-0.350000X0*%
%ADD35R,1.230000X1.230000*%
%ADD36C,0.650000*%
%ADD37R,0.600000X1.450000*%
%ADD38R,0.300000X1.450000*%
%ADD39O,1.000000X2.100000*%
%ADD40O,1.000000X1.600000*%
%ADD41RoundRect,0.250000X-0.250000X-0.475000X0.250000X-0.475000X0.250000X0.475000X-0.250000X0.475000X0*%
%ADD42RoundRect,0.250000X-0.600000X-0.250000X0.600000X-0.250000X0.600000X0.250000X-0.600000X0.250000X0*%
%ADD43RoundRect,0.050000X-0.050000X0.387500X-0.050000X-0.387500X0.050000X-0.387500X0.050000X0.387500X0*%
%ADD44RoundRect,0.050000X-0.387500X0.050000X-0.387500X-0.050000X0.387500X-0.050000X0.387500X0.050000X0*%
%ADD45R,3.200000X3.200000*%
%ADD46R,1.200000X1.400000*%
%ADD47RoundRect,0.250000X-0.625000X0.350000X-0.625000X-0.350000X0.625000X-0.350000X0.625000X0.350000X0*%
%ADD48O,1.750000X1.200000*%
%ADD49RoundRect,0.150000X0.650000X0.150000X-0.650000X0.150000X-0.650000X-0.150000X0.650000X-0.150000X0*%
%ADD50RoundRect,0.150000X-0.825000X-0.150000X0.825000X-0.150000X0.825000X0.150000X-0.825000X0.150000X0*%
%ADD51RoundRect,0.225000X-0.250000X0.225000X-0.250000X-0.225000X0.250000X-0.225000X0.250000X0.225000X0*%
%ADD52R,3.200000X1.400000*%
%ADD53RoundRect,0.150000X-0.512500X-0.150000X0.512500X-0.150000X0.512500X0.150000X-0.512500X0.150000X0*%
%ADD54RoundRect,0.150000X0.625000X-0.150000X0.625000X0.150000X-0.625000X0.150000X-0.625000X-0.150000X0*%
%ADD55RoundRect,0.250000X0.650000X-0.350000X0.650000X0.350000X-0.650000X0.350000X-0.650000X-0.350000X0*%
%ADD56RoundRect,0.062500X-0.350000X-0.062500X0.350000X-0.062500X0.350000X0.062500X-0.350000X0.062500X0*%
%ADD57R,1.200000X2.000000*%
%ADD58RoundRect,0.062500X-0.187500X-0.062500X0.187500X-0.062500X0.187500X0.062500X-0.187500X0.062500X0*%
%ADD59R,0.900000X1.600000*%
G04 APERTURE END LIST*
D10*
%TO.C,C22*%
X22100000Y37680000D03*
X22100000Y36720000D03*
%TD*%
D11*
%TO.C,C30*%
X13000000Y35850000D03*
X13000000Y37750000D03*
%TD*%
D12*
%TO.C,C18*%
X23220000Y47100000D03*
X24180000Y47100000D03*
%TD*%
D13*
%TO.C,C6*%
X13300000Y25920000D03*
X13300000Y26880000D03*
%TD*%
D14*
%TO.C,JP1*%
X28400000Y12350000D03*
D15*
X28400000Y13650000D03*
%TD*%
D16*
%TO.C,J6*%
X38000000Y44000000D03*
D17*
X38000000Y41460000D03*
X38000000Y38920000D03*
X38000000Y36380000D03*
X38000000Y33840000D03*
X38000000Y31300000D03*
X38000000Y28760000D03*
X38000000Y26220000D03*
X38000000Y23680000D03*
X38000000Y21140000D03*
X38000000Y18600000D03*
X38000000Y16060000D03*
X38000000Y13520000D03*
X38000000Y10980000D03*
%TD*%
D18*
%TO.C,R3*%
X7390000Y12000000D03*
X8410000Y12000000D03*
%TD*%
D19*
%TO.C,D6*%
X17200000Y14650000D03*
X17200000Y16750000D03*
%TD*%
D20*
%TO.C,R11*%
X16000000Y29290000D03*
X16000000Y30310000D03*
%TD*%
D21*
%TO.C,Q7*%
X20662500Y22750000D03*
X20662500Y20850000D03*
X22537500Y21800000D03*
%TD*%
D20*
%TO.C,R10*%
X15000000Y29290000D03*
X15000000Y30310000D03*
%TD*%
D22*
%TO.C,FID1*%
X1600000Y58000000D03*
%TD*%
D23*
%TO.C,C28*%
X14780000Y41100000D03*
X13820000Y41100000D03*
%TD*%
D20*
%TO.C,R35*%
X26400000Y35090000D03*
X26400000Y36110000D03*
%TD*%
%TO.C,R33*%
X20600000Y13590000D03*
X20600000Y14610000D03*
%TD*%
%TO.C,R1*%
X16800000Y9290000D03*
X16800000Y10310000D03*
%TD*%
%TO.C,R4*%
X13100000Y9890000D03*
X13100000Y10910000D03*
%TD*%
D24*
%TO.C,Y1*%
X30850000Y26500000D03*
X28350000Y26500000D03*
%TD*%
D20*
%TO.C,R26*%
X34900000Y15490000D03*
X34900000Y16510000D03*
%TD*%
D13*
%TO.C,C31*%
X27000000Y39720000D03*
X27000000Y40680000D03*
%TD*%
D25*
%TO.C,BT1*%
X5000000Y49000000D03*
D26*
X2000000Y49000000D03*
D27*
X2000000Y45500000D03*
D28*
X5000000Y44000000D03*
%TD*%
D19*
%TO.C,D3*%
X16399999Y20450000D03*
X16399999Y22550000D03*
%TD*%
D29*
%TO.C,R5*%
X12810000Y11850000D03*
X11790000Y11850000D03*
%TD*%
D25*
%TO.C,BT2*%
X5000000Y32000000D03*
D26*
X2000000Y32000000D03*
D27*
X2000000Y28500000D03*
D28*
X5000000Y27000000D03*
%TD*%
D30*
%TO.C,D7*%
X28537500Y1700000D03*
X26962500Y1700000D03*
%TD*%
D31*
%TO.C,SW4*%
X28300000Y35800000D03*
X31700000Y35800000D03*
%TD*%
D32*
%TO.C,C8*%
X26400000Y26925001D03*
X26400000Y28475001D03*
%TD*%
D20*
%TO.C,R16*%
X25100000Y33190000D03*
X25100000Y34210000D03*
%TD*%
D33*
%TO.C,U8*%
X11737500Y18850000D03*
X11737500Y19350000D03*
X11737500Y19850000D03*
X11737500Y20350000D03*
D34*
X11050000Y21037500D03*
X10550000Y21037500D03*
X10050000Y21037500D03*
X9550000Y21037500D03*
D33*
X8862500Y20350000D03*
X8862500Y19850000D03*
X8862500Y19350000D03*
X8862500Y18850000D03*
D34*
X9550000Y18162500D03*
X10050000Y18162500D03*
X10550000Y18162500D03*
X11050000Y18162500D03*
D35*
X10300000Y19600000D03*
%TD*%
D11*
%TO.C,C12*%
X31400000Y21850000D03*
X31400000Y23750000D03*
%TD*%
D13*
%TO.C,C26*%
X24400000Y36120000D03*
X24400000Y37080000D03*
%TD*%
D36*
%TO.C,J1*%
X17110000Y5650000D03*
X22890000Y5650000D03*
D37*
X16750000Y7095000D03*
X17550000Y7095000D03*
D38*
X18750000Y7095000D03*
X19750000Y7095000D03*
X20250000Y7095000D03*
X21250000Y7095000D03*
D37*
X22450000Y7095000D03*
X23250000Y7095000D03*
X23250000Y7095000D03*
X22450000Y7095000D03*
D38*
X21750000Y7095000D03*
X20750000Y7095000D03*
X19250000Y7095000D03*
X18250000Y7095000D03*
D37*
X17550000Y7095000D03*
X16750000Y7095000D03*
D39*
X15680000Y6180000D03*
D40*
X15680000Y2000000D03*
D39*
X24320000Y6180000D03*
D40*
X24320000Y2000000D03*
%TD*%
D21*
%TO.C,Q2*%
X8362500Y30850000D03*
X8362500Y28950000D03*
X10237500Y29900000D03*
%TD*%
D18*
%TO.C,R37*%
X27240000Y3300000D03*
X28260000Y3300000D03*
%TD*%
D21*
%TO.C,Q1*%
X8362500Y34350000D03*
X8362500Y32450000D03*
X10237500Y33400000D03*
%TD*%
D20*
%TO.C,R7*%
X12200000Y32890000D03*
X12200000Y33910000D03*
%TD*%
D41*
%TO.C,C9*%
X29550000Y16800000D03*
X31450000Y16800000D03*
%TD*%
D13*
%TO.C,C27*%
X23400000Y36120000D03*
X23400000Y37080000D03*
%TD*%
D41*
%TO.C,C1*%
X9700000Y16250000D03*
X11600000Y16250000D03*
%TD*%
D42*
%TO.C,SW2*%
X31300000Y5850000D03*
X37900000Y5850000D03*
X31300000Y2150000D03*
X37900000Y2150000D03*
%TD*%
D12*
%TO.C,C33*%
X8820000Y22600000D03*
X9780000Y22600000D03*
%TD*%
D21*
%TO.C,Q6*%
X21462500Y30150000D03*
X21462500Y28250000D03*
X23337500Y29200000D03*
%TD*%
D10*
%TO.C,C16*%
X12400000Y40380000D03*
X12400000Y39420000D03*
%TD*%
D20*
%TO.C,R15*%
X19300000Y25890000D03*
X19300000Y26910000D03*
%TD*%
%TO.C,R25*%
X17900000Y21290000D03*
X17900000Y22310000D03*
%TD*%
D13*
%TO.C,C14*%
X33800000Y13420000D03*
X33800000Y14380000D03*
%TD*%
D10*
%TO.C,C10*%
X33900000Y18880000D03*
X33900000Y17920000D03*
%TD*%
D20*
%TO.C,R36*%
X13500000Y19290000D03*
X13500000Y20310000D03*
%TD*%
%TO.C,R27*%
X34900000Y13390000D03*
X34900000Y14410000D03*
%TD*%
D43*
%TO.C,U6*%
X22100000Y45937500D03*
X21700000Y45937500D03*
X21300000Y45937500D03*
X20900000Y45937500D03*
X20500000Y45937500D03*
X20100000Y45937500D03*
X19700000Y45937500D03*
X19300000Y45937500D03*
X18900000Y45937500D03*
X18500000Y45937500D03*
X18100000Y45937500D03*
X17700000Y45937500D03*
X17300000Y45937500D03*
X16900000Y45937500D03*
D44*
X16062500Y45100000D03*
X16062500Y44700000D03*
X16062500Y44300000D03*
X16062500Y43900000D03*
X16062500Y43500000D03*
X16062500Y43100000D03*
X16062500Y42700000D03*
X16062500Y42300000D03*
X16062500Y41900000D03*
X16062500Y41500000D03*
X16062500Y41100000D03*
X16062500Y40700000D03*
X16062500Y40300000D03*
X16062500Y39900000D03*
D43*
X16900000Y39062500D03*
X17300000Y39062500D03*
X17700000Y39062500D03*
X18100000Y39062500D03*
X18500000Y39062500D03*
X18900000Y39062500D03*
X19300000Y39062500D03*
X19700000Y39062500D03*
X20100000Y39062500D03*
X20500000Y39062500D03*
X20900000Y39062500D03*
X21300000Y39062500D03*
X21700000Y39062500D03*
X22100000Y39062500D03*
D44*
X22937500Y39900000D03*
X22937500Y40300000D03*
X22937500Y40700000D03*
X22937500Y41100000D03*
X22937500Y41500000D03*
X22937500Y41900000D03*
X22937500Y42300000D03*
X22937500Y42700000D03*
X22937500Y43100000D03*
X22937500Y43500000D03*
X22937500Y43900000D03*
X22937500Y44300000D03*
X22937500Y44700000D03*
X22937500Y45100000D03*
D45*
X19500000Y42500000D03*
%TD*%
D46*
%TO.C,Y2*%
X12450000Y43300000D03*
X12450000Y45500000D03*
X10750000Y45500000D03*
X10750000Y43300000D03*
%TD*%
D20*
%TO.C,R18*%
X25100000Y27190001D03*
X25100000Y28210001D03*
%TD*%
D21*
%TO.C,Q3*%
X8362500Y27350000D03*
X8362500Y25450000D03*
X10237500Y26400000D03*
%TD*%
D12*
%TO.C,C23*%
X24420000Y40100000D03*
X25380000Y40100000D03*
%TD*%
D20*
%TO.C,R8*%
X12200000Y29390000D03*
X12200000Y30410000D03*
%TD*%
D13*
%TO.C,C15*%
X33200000Y26020000D03*
X33200000Y26980000D03*
%TD*%
%TO.C,C3*%
X19000000Y29320000D03*
X19000000Y30280000D03*
%TD*%
D47*
%TO.C,J7*%
X3500000Y20500000D03*
D48*
X3500000Y18500000D03*
%TD*%
D42*
%TO.C,SW1*%
X2100000Y5850000D03*
X8700000Y5850000D03*
X2100000Y2150000D03*
X8700000Y2150000D03*
%TD*%
D19*
%TO.C,D4*%
X15200000Y14650000D03*
X15200000Y16750000D03*
%TD*%
D30*
%TO.C,D5*%
X13037500Y1700000D03*
X11462500Y1700000D03*
%TD*%
D20*
%TO.C,R28*%
X34400000Y25990000D03*
X34400000Y27010000D03*
%TD*%
D13*
%TO.C,C19*%
X15200000Y47920000D03*
X15200000Y48880000D03*
%TD*%
D49*
%TO.C,U7*%
X34600000Y42095000D03*
X34600000Y43365000D03*
X34600000Y44635000D03*
X34600000Y45905000D03*
X27400000Y45905000D03*
X27400000Y44635000D03*
X27400000Y43365000D03*
X27400000Y42095000D03*
%TD*%
D20*
%TO.C,R12*%
X17000000Y29290000D03*
X17000000Y30310000D03*
%TD*%
%TO.C,R34*%
X32900000Y37090000D03*
X32900000Y38110000D03*
%TD*%
D31*
%TO.C,SW3*%
X28300000Y39400000D03*
X31700000Y39400000D03*
%TD*%
D12*
%TO.C,C29*%
X24420000Y38100000D03*
X25380000Y38100000D03*
%TD*%
D20*
%TO.C,R24*%
X19000000Y21290000D03*
X19000000Y22310000D03*
%TD*%
%TO.C,R2*%
X22800000Y9290000D03*
X22800000Y10310000D03*
%TD*%
D21*
%TO.C,Q8*%
X21462500Y26650000D03*
X21462500Y24750000D03*
X23337500Y25700000D03*
%TD*%
D13*
%TO.C,C5*%
X13300000Y32920000D03*
X13300000Y33880000D03*
%TD*%
D10*
%TO.C,C13*%
X33900000Y20880000D03*
X33900000Y19920000D03*
%TD*%
D16*
%TO.C,J5*%
X16190000Y54200000D03*
D17*
X18730000Y54200000D03*
X21270000Y54200000D03*
X23810000Y54200000D03*
%TD*%
D11*
%TO.C,C11*%
X29300000Y21850000D03*
X29300000Y23750000D03*
%TD*%
D50*
%TO.C,U5*%
X28825000Y32605000D03*
X28825000Y31335000D03*
X28825000Y30065000D03*
X28825000Y28795000D03*
X33775000Y28795000D03*
X33775000Y30065000D03*
X33775000Y31335000D03*
X33775000Y32605000D03*
%TD*%
D20*
%TO.C,R9*%
X13300000Y29390000D03*
X13300000Y30410000D03*
%TD*%
D22*
%TO.C,FID3*%
X1600000Y9500000D03*
%TD*%
D13*
%TO.C,C17*%
X9000000Y44920000D03*
X9000000Y45880000D03*
%TD*%
D20*
%TO.C,R14*%
X12200000Y25890000D03*
X12200000Y26910000D03*
%TD*%
%TO.C,R29*%
X35400000Y25990000D03*
X35400000Y27010000D03*
%TD*%
D51*
%TO.C,C2*%
X13350000Y14775000D03*
X13350000Y13225000D03*
%TD*%
D20*
%TO.C,R17*%
X25100000Y30090000D03*
X25100000Y31110000D03*
%TD*%
D52*
%TO.C,L1*%
X26400000Y18400000D03*
X26400000Y20800000D03*
%TD*%
D13*
%TO.C,C20*%
X9300000Y38120000D03*
X9300000Y39080000D03*
%TD*%
D21*
%TO.C,Q4*%
X15462499Y27350000D03*
X15462499Y25450000D03*
X17337499Y26400000D03*
%TD*%
D20*
%TO.C,R32*%
X18900000Y13590000D03*
X18900000Y14610000D03*
%TD*%
D16*
%TO.C,J4*%
X11110000Y58000000D03*
D17*
X13650000Y58000000D03*
X16190000Y58000000D03*
X18730000Y58000000D03*
X21270000Y58000000D03*
X23810000Y58000000D03*
X26350000Y58000000D03*
X28890000Y58000000D03*
%TD*%
D12*
%TO.C,C24*%
X24420000Y39100000D03*
X25380000Y39100000D03*
%TD*%
D20*
%TO.C,R38*%
X28900000Y54090000D03*
X28900000Y55110000D03*
%TD*%
D53*
%TO.C,U1*%
X18612500Y12150000D03*
X18612500Y11200000D03*
X18612500Y10250000D03*
X20887500Y10250000D03*
X20887500Y11200000D03*
X20887500Y12150000D03*
%TD*%
D54*
%TO.C,J8*%
X34000000Y50900000D03*
X34000000Y51900000D03*
X34000000Y52900000D03*
X34000000Y53900000D03*
D55*
X37875000Y49600000D03*
X37875000Y55200000D03*
%TD*%
D18*
%TO.C,R21*%
X21090000Y19000000D03*
X22110000Y19000000D03*
%TD*%
D56*
%TO.C,U4*%
X29287500Y20600000D03*
X29287500Y20100000D03*
X29287500Y19600000D03*
X29287500Y19100000D03*
X29287500Y18600000D03*
X31712500Y18600000D03*
X31712500Y19100000D03*
X31712500Y19600000D03*
X31712500Y20100000D03*
X31712500Y20600000D03*
D57*
X30500000Y19600000D03*
%TD*%
D20*
%TO.C,R20*%
X25100000Y24490000D03*
X25100000Y25510000D03*
%TD*%
D21*
%TO.C,Q5*%
X21262500Y34150000D03*
X21262500Y32250000D03*
X23137500Y33200000D03*
%TD*%
%TO.C,Q9*%
X11362500Y7750000D03*
X11362500Y5850000D03*
X13237500Y6800000D03*
%TD*%
D30*
%TO.C,D1*%
X13037500Y3300000D03*
X11462500Y3300000D03*
%TD*%
D41*
%TO.C,C32*%
X11550000Y22700000D03*
X13450000Y22700000D03*
%TD*%
D18*
%TO.C,R23*%
X27890000Y9500000D03*
X28910000Y9500000D03*
%TD*%
D22*
%TO.C,FID2*%
X38400000Y57800000D03*
%TD*%
D19*
%TO.C,D2*%
X24900000Y11950000D03*
X24900000Y14050000D03*
%TD*%
D13*
%TO.C,C7*%
X26200000Y33220000D03*
X26200000Y34180000D03*
%TD*%
D10*
%TO.C,C21*%
X18500000Y37680000D03*
X18500000Y36720000D03*
%TD*%
D14*
%TO.C,JP2*%
X31000000Y12350000D03*
D15*
X31000000Y13650000D03*
%TD*%
D20*
%TO.C,R6*%
X15400000Y10090000D03*
X15400000Y11110000D03*
%TD*%
D13*
%TO.C,C25*%
X25400000Y36120000D03*
X25400000Y37080000D03*
%TD*%
D20*
%TO.C,R13*%
X18000000Y29290000D03*
X18000000Y30310000D03*
%TD*%
D18*
%TO.C,R30*%
X8090000Y9000000D03*
X9110000Y9000000D03*
%TD*%
D53*
%TO.C,U3*%
X15762500Y34150000D03*
X15762500Y33200000D03*
X15762500Y32250000D03*
X18037500Y32250000D03*
X18037500Y33200000D03*
X18037500Y34150000D03*
%TD*%
D29*
%TO.C,R31*%
X14810000Y46100000D03*
X13790000Y46100000D03*
%TD*%
D58*
%TO.C,U2*%
X9550000Y14750000D03*
X9550000Y14250000D03*
X9550000Y13750000D03*
X9550000Y13250000D03*
X11450000Y13250000D03*
X11450000Y13750000D03*
X11450000Y14250000D03*
X11450000Y14750000D03*
D59*
X10500000Y14000000D03*
%TD*%
D20*
%TO.C,R22*%
X26400000Y12490000D03*
X26400000Y13510000D03*
%TD*%
M02*
