M48
; DRILL file {KiCad 7.0.11+dfsg-1build4} date Sat Sep 26 07:37:13 2026
; FORMAT={-:-/ absolute / metric / decimal}
; #@! TF.CreationDate,2026-09-26T07:37:13+00:00
; #@! TF.GenerationSoftware,Kicad,Pcbnew,7.0.11+dfsg-1build4
; #@! TF.FileFunction,Plated,1,4,PTH
FMAT,2
METRIC
; #@! TA.AperFunction,Plated,PTH,ViaDrill
T1C0.300
; #@! TA.AperFunction,Plated,PTH,ComponentDrill
T2C0.300
; #@! TA.AperFunction,Plated,PTH,ComponentDrill
T3C0.600
; #@! TA.AperFunction,Plated,PTH,ComponentDrill
T4C0.750
; #@! TA.AperFunction,Plated,PTH,ComponentDrill
T5C0.900
; #@! TA.AperFunction,Plated,PTH,ComponentDrill
T6C1.000
%
G90
G05
T1
X2.1Y6.869
X8.09Y9.871
X8.12Y22.6
X8.362Y24.75
X8.557Y28.226
X8.7Y1.25
X8.976Y33.4
X9.0Y46.58
X9.0Y21.037
X9.11Y12.0
X9.3Y39.78
X9.3Y37.42
X9.73Y44.3
X9.736Y43.028
X9.852Y35.402
X10.48Y22.6
X10.849Y27.634
X11.011Y11.85
X11.362Y5.15
X11.775Y27.874
X11.9Y4.4
X12.083Y9.57
X12.363Y21.887
X12.4Y38.72
X12.475Y34.941
X12.55Y16.25
X12.665Y18.838
X12.748Y19.764
X13.119Y31.086
X13.12Y41.1
X13.3Y34.58
X13.3Y27.58
X13.35Y15.75
X13.464Y45.228
X13.484Y25.112
X14.0Y8.1
X14.053Y18.528
X14.25Y13.225
X14.319Y23.626
X14.4Y22.7
X14.413Y31.855
X14.9Y42.25
X14.939Y44.487
X14.978Y37.011
X15.0Y37.889
X15.092Y38.706
X15.2Y49.58
X15.2Y47.22
X15.4Y9.298
X15.462Y24.75
X15.462Y26.439
X15.462Y19.724
X15.55Y46.1
X15.669Y39.286
X16.2Y23.598
X16.4Y16.772
X16.456Y14.559
X16.619Y10.986
X16.689Y50.125
X16.727Y49.144
X16.732Y31.337
X16.853Y37.301
X16.863Y33.2
X16.912Y43.5
X16.912Y42.3
X16.939Y23.202
X17.02Y44.607
X17.104Y47.798
X17.443Y40.406
X17.564Y20.278
X17.693Y24.744
X17.819Y30.986
X17.875Y35.312
X18.141Y18.482
X18.404Y23.304
X18.5Y45.087
X18.5Y39.913
X18.5Y36.02
X18.962Y47.189
X19.0Y30.98
X19.119Y27.586
X19.206Y32.866
X19.402Y40.122
X19.473Y12.875
X19.506Y34.724
X19.7Y44.991
X19.712Y11.2
X19.743Y24.103
X19.75Y9.57
X20.278Y27.443
X20.314Y28.847
X20.333Y37.987
X20.369Y21.912
X20.491Y46.893
X20.497Y35.356
X20.585Y23.563
X20.749Y40.135
X20.854Y16.693
X20.971Y8.336
X21.3Y46.88
X21.358Y15.368
X21.462Y24.05
X21.63Y41.377
X21.654Y35.212
X21.682Y42.192
X21.7Y44.846
X21.733Y43.482
X22.1Y36.02
X22.116Y40.08
X22.233Y15.007
X22.52Y47.1
X22.6Y45.938
X22.6Y39.062
X22.619Y10.986
X22.835Y35.455
X23.22Y32.098
X23.588Y8.851
X23.622Y37.858
X23.625Y38.791
X23.77Y39.725
X23.787Y41.9
X23.9Y31.007
X23.958Y44.895
X24.4Y35.42
X24.816Y9.005
X24.88Y47.1
X24.919Y28.886
X25.1Y23.705
X25.102Y41.561
X25.4Y35.42
X25.979Y31.065
X26.08Y40.1
X26.08Y39.1
X26.08Y38.1
X26.15Y37.08
X26.197Y43.998
X26.366Y48.204
X27.0Y39.02
X27.186Y47.548
X27.192Y36.547
X27.192Y32.652
X27.3Y28.475
X27.449Y34.508
X27.51Y29.479
X27.594Y41.371
X28.093Y53.671
X28.232Y37.859
X28.649Y18.0
X28.666Y40.753
X29.019Y28.071
X29.387Y1.7
X29.994Y25.198
X30.283Y21.175
X30.336Y6.813
X30.35Y23.75
X30.637Y17.613
X32.405Y21.0
X32.55Y39.4
X32.55Y35.8
X32.55Y21.85
X32.683Y43.555
X33.2Y27.68
X33.8Y15.08
X33.9Y21.58
X33.9Y17.22
X34.0Y54.723
X34.194Y50.176
X34.406Y46.629
X34.581Y25.314
X34.65Y19.92
X34.788Y17.784
X34.936Y28.04
X35.2Y51.9
X35.351Y31.312
X35.65Y14.41
X36.517Y27.732
X37.9Y1.25
T2
X10.3Y19.6
X10.5Y14.5
X10.5Y13.5
X18.4Y42.5
X19.5Y43.6
X19.5Y42.5
X19.5Y41.4
X20.6Y42.5
X30.5Y20.25
X30.5Y19.6
X30.5Y18.95
T4
X3.5Y20.5
X3.5Y18.5
T5
X2.0Y49.0
X2.0Y45.5
X2.0Y32.0
X2.0Y28.5
T6
X5.0Y49.0
X5.0Y44.0
X5.0Y32.0
X5.0Y27.0
X11.11Y58.0
X13.65Y58.0
X16.19Y58.0
X16.19Y54.2
X18.73Y58.0
X18.73Y54.2
X21.27Y58.0
X21.27Y54.2
X23.81Y58.0
X23.81Y54.2
X26.35Y58.0
X28.89Y58.0
X38.0Y44.0
X38.0Y41.46
X38.0Y38.92
X38.0Y36.38
X38.0Y33.84
X38.0Y31.3
X38.0Y28.76
X38.0Y26.22
X38.0Y23.68
X38.0Y21.14
X38.0Y18.6
X38.0Y16.06
X38.0Y13.52
X38.0Y10.98
T3
X15.68Y6.73G85X15.68Y5.63
G05
X15.68Y2.3G85X15.68Y1.7
G05
X24.32Y6.73G85X24.32Y5.63
G05
X24.32Y2.3G85X24.32Y1.7
G05
M30
