%TF.GenerationSoftware,KiCad,Pcbnew,7.0.11+dfsg-1build4*%
%TF.CreationDate,2026-09-26T07:37:13+00:00*%
%TF.ProjectId,trinketcore,7472696e-6b65-4746-936f-72652e6b6963,rev?*%
%TF.SameCoordinates,Original*%
%TF.FileFunction,Copper,L2,Inr*%
%TF.FilePolarity,Positive*%
%FSLAX46Y46*%
G04 Gerber Fmt 4.6, Leading zero omitted, Abs format (unit mm)*
G04 Created by KiCad (PCBNEW 7.0.11+dfsg-1build4) date 2026-09-26 07:37:13*
%MOMM*%
%LPD*%
G01*
G04 APERTURE LIST*
G04 Aperture macros list*
%AMRoundRect*
0 Rectangle with rounded corners*
0 $1 Rounding radius*
0 $2 $3 $4 $5 $6 $7 $8 $9 X,Y pos of 4 corners*
0 Add a 4 corners polygon primitive as box body*
4,1,4,$2,$3,$4,$5,$6,$7,$8,$9,$2,$3,0*
0 Add four circle primitives for the rounded corners*
1,1,$1+$1,$2,$3*
1,1,$1+$1,$4,$5*
1,1,$1+$1,$6,$7*
1,1,$1+$1,$8,$9*
0 Add four rect primitives between the rounded corners*
20,1,$1+$1,$2,$3,$4,$5,0*
20,1,$1+$1,$4,$5,$6,$7,0*
20,1,$1+$1,$6,$7,$8,$9,0*
20,1,$1+$1,$8,$9,$2,$3,0*%
G04 Aperture macros list end*
%TA.AperFunction,ComponentPad*%
%ADD10R,1.700000X1.700000*%
%TD*%
%TA.AperFunction,ComponentPad*%
%ADD11O,1.700000X1.700000*%
%TD*%
%TA.AperFunction,ComponentPad*%
%ADD12R,1.800000X1.800000*%
%TD*%
%TA.AperFunction,ComponentPad*%
%ADD13R,1.600000X1.600000*%
%TD*%
%TA.AperFunction,ComponentPad*%
%ADD14C,1.600000*%
%TD*%
%TA.AperFunction,ComponentPad*%
%ADD15C,1.800000*%
%TD*%
%TA.AperFunction,ComponentPad*%
%ADD16C,0.600000*%
%TD*%
%TA.AperFunction,ComponentPad*%
%ADD17O,1.000000X2.100000*%
%TD*%
%TA.AperFunction,ComponentPad*%
%ADD18O,1.000000X1.600000*%
%TD*%
%TA.AperFunction,ComponentPad*%
%ADD19RoundRect,0.250000X-0.625000X0.350000X-0.625000X-0.350000X0.625000X-0.350000X0.625000X0.350000X0*%
%TD*%
%TA.AperFunction,ComponentPad*%
%ADD20O,1.750000X1.200000*%
%TD*%
%TA.AperFunction,ViaPad*%
%ADD21C,0.600000*%
%TD*%
G04 APERTURE END LIST*
D10*
%TO.N,GP7*%
%TO.C,J6*%
X38000000Y44000000D03*
D11*
%TO.N,GP6*%
X38000000Y41460000D03*
%TO.N,GP5*%
X38000000Y38920000D03*
%TO.N,GP4*%
X38000000Y36380000D03*
%TO.N,GP3*%
X38000000Y33840000D03*
%TO.N,GP2*%
X38000000Y31300000D03*
%TO.N,GP1*%
X38000000Y28760000D03*
%TO.N,GP0*%
X38000000Y26220000D03*
%TO.N,GP29*%
X38000000Y23680000D03*
%TO.N,GP28*%
X38000000Y21140000D03*
%TO.N,WAKE*%
X38000000Y18600000D03*
%TO.N,VSYS*%
X38000000Y16060000D03*
%TO.N,3V3*%
X38000000Y13520000D03*
%TO.N,GND*%
X38000000Y10980000D03*
%TD*%
D12*
%TO.N,VCAP*%
%TO.C,BT1*%
X5000000Y49000000D03*
D13*
X2000000Y49000000D03*
D14*
%TO.N,GND*%
X2000000Y45500000D03*
D15*
X5000000Y44000000D03*
%TD*%
D12*
%TO.N,VCAP*%
%TO.C,BT2*%
X5000000Y32000000D03*
D13*
X2000000Y32000000D03*
D14*
%TO.N,GND*%
X2000000Y28500000D03*
D15*
X5000000Y27000000D03*
%TD*%
D16*
%TO.N,GND*%
%TO.C,U8*%
X10300000Y19600000D03*
%TD*%
D17*
%TO.N,GND*%
%TO.C,J1*%
X15680000Y6180000D03*
D18*
X15680000Y2000000D03*
D17*
X24320000Y6180000D03*
D18*
X24320000Y2000000D03*
%TD*%
D16*
%TO.N,GND*%
%TO.C,U6*%
X19500000Y43600000D03*
X20600000Y42500000D03*
X19500000Y42500000D03*
X18400000Y42500000D03*
X19500000Y41400000D03*
%TD*%
D19*
%TO.N,SPK_P*%
%TO.C,J7*%
X3500000Y20500000D03*
D20*
%TO.N,SPK_N*%
X3500000Y18500000D03*
%TD*%
D10*
%TO.N,GND*%
%TO.C,J5*%
X16190000Y54200000D03*
D11*
%TO.N,3V3*%
X18730000Y54200000D03*
%TO.N,SCL*%
X21270000Y54200000D03*
%TO.N,SDA*%
X23810000Y54200000D03*
%TD*%
D10*
%TO.N,GND*%
%TO.C,J4*%
X11110000Y58000000D03*
D11*
%TO.N,3V3*%
X13650000Y58000000D03*
%TO.N,TFT_SCK*%
X16190000Y58000000D03*
%TO.N,TFT_MOSI*%
X18730000Y58000000D03*
%TO.N,TFT_RST*%
X21270000Y58000000D03*
%TO.N,TFT_DC*%
X23810000Y58000000D03*
%TO.N,TFT_CS*%
X26350000Y58000000D03*
%TO.N,TFT_BL*%
X28890000Y58000000D03*
%TD*%
D16*
%TO.N,GND*%
%TO.C,U4*%
X30500000Y20250000D03*
X30500000Y19600000D03*
X30500000Y18950000D03*
%TD*%
%TO.N,GND*%
%TO.C,U2*%
X10500000Y14500000D03*
X10500000Y13500000D03*
%TD*%
D21*
%TO.N,GND*%
X21462500Y24050000D03*
X26080000Y40100000D03*
X26080000Y38100000D03*
X8700000Y1250000D03*
X8362500Y24750000D03*
X13118826Y31086149D03*
X14399999Y22700000D03*
X9300000Y39780000D03*
X19712500Y11200000D03*
X27299999Y28475001D03*
X32549999Y35800000D03*
X10479999Y22600000D03*
X13300000Y27580001D03*
X33200000Y27680000D03*
X29019114Y28070556D03*
X13464222Y45228241D03*
X33900000Y17220000D03*
X11362500Y5150000D03*
X12549999Y16250000D03*
X19000000Y30980000D03*
X13120000Y41100000D03*
X17818826Y30986149D03*
X16862500Y33200000D03*
X30350000Y23750000D03*
X19118826Y27586149D03*
X34405885Y46629445D03*
X16618826Y10986149D03*
X9110000Y12000000D03*
X22100000Y36020000D03*
X15462499Y24750000D03*
X14250000Y13225000D03*
X32549999Y39400000D03*
X29387500Y1700000D03*
X30636827Y17613173D03*
X15200000Y49580000D03*
X37900000Y1250000D03*
X34650000Y19920000D03*
X9000000Y46580000D03*
X26080000Y39100000D03*
X23622182Y37857818D03*
X24880000Y47100000D03*
X22618826Y10986149D03*
X34194114Y50175556D03*
X12400000Y38720001D03*
X35650000Y14410000D03*
X8556614Y28225556D03*
X18500000Y36020000D03*
X9735777Y43028241D03*
X26150000Y37080000D03*
X13300000Y34580000D03*
X33800000Y15080001D03*
X24918826Y28886150D03*
X16912500Y43500000D03*
%TO.N,VBUS*%
X8090000Y9870900D03*
X10849300Y27633800D03*
X15400000Y9297900D03*
X23588300Y8851400D03*
%TO.N,DP*%
X19750000Y9569600D03*
X19472800Y12875100D03*
X20971000Y8335700D03*
%TO.N,USB_DP*%
X22232700Y15007400D03*
X21682500Y42192400D03*
%TO.N,USB_DM*%
X25102100Y41561400D03*
X19743300Y24102600D03*
X21358000Y15368000D03*
X25979500Y31064900D03*
%TO.N,PG_N*%
X16455700Y14559000D03*
X11011200Y11850000D03*
%TO.N,VCAP*%
X12082800Y9569800D03*
X13350000Y15750000D03*
%TO.N,LED_A*%
X14000000Y8100000D03*
X11900000Y4400000D03*
%TO.N,CHG*%
X19505700Y34723700D03*
X20854400Y16693000D03*
%TO.N,USB_DET*%
X20497000Y35356500D03*
X17564000Y20277700D03*
%TO.N,VAON*%
X20314500Y28847400D03*
X29994300Y25198100D03*
X8976500Y33400000D03*
X13484000Y25111600D03*
X20369000Y21912200D03*
%TO.N,UVLO_OK*%
X14413500Y31855400D03*
X11774600Y27873800D03*
%TO.N,SENSE*%
X19205600Y32866000D03*
X16732300Y31337000D03*
%TO.N,SHIP*%
X15462500Y26439100D03*
X9730300Y44299800D03*
%TO.N,VSYS*%
X28648900Y18000100D03*
X23900400Y31006900D03*
%TO.N,HOLD*%
X20748900Y40135300D03*
X25100000Y23704600D03*
X18404400Y23303700D03*
%TO.N,WAKE_N*%
X16400000Y16771700D03*
X20584700Y23563200D03*
X2100000Y6869300D03*
X27510300Y29478900D03*
%TO.N,WAKE*%
X18140900Y18482200D03*
%TO.N,BTN*%
X19402100Y40122000D03*
X16200200Y23597700D03*
%TO.N,3V3*%
X12475000Y34940674D03*
X33900000Y21580001D03*
X32549999Y21850000D03*
X22600000Y45937500D03*
X35200000Y51900000D03*
X8120000Y22600000D03*
X22600000Y39062500D03*
X16912500Y42300000D03*
X18500000Y39912500D03*
X9300000Y37420000D03*
X23787500Y41900000D03*
X30283429Y21175001D03*
X9000000Y21037500D03*
X24400000Y35420000D03*
X15200000Y47220000D03*
X12363172Y21886828D03*
X25400000Y35420000D03*
X23770480Y39725000D03*
X22520000Y47100000D03*
X34581173Y25313852D03*
X22116463Y40080004D03*
X32405320Y21000000D03*
X18500000Y45087500D03*
X27000000Y39020000D03*
X27594114Y41370556D03*
%TO.N,VSENSE*%
X23219700Y32098400D03*
X34788400Y17783700D03*
%TO.N,SDA*%
X34936300Y28040400D03*
X35351200Y31311900D03*
X15092000Y38706000D03*
%TO.N,SCL*%
X34000000Y54723000D03*
X15669000Y39285900D03*
%TO.N,GP0*%
X21700000Y44845500D03*
%TO.N,GP1*%
X21300000Y46879800D03*
%TO.N,GP2*%
X20491100Y46893300D03*
%TO.N,GP3*%
X21733300Y43482400D03*
%TO.N,GP4*%
X27186100Y47548300D03*
X26197200Y43997900D03*
%TO.N,GP5*%
X19700000Y44991200D03*
%TO.N,GP6*%
X26366100Y48203700D03*
%TO.N,GP7*%
X18962000Y47188600D03*
%TO.N,TFT_MOSI*%
X17104300Y47798100D03*
%TO.N,TFT_RST*%
X16688700Y50124700D03*
%TO.N,TFT_BLG*%
X16726800Y49144200D03*
X17020000Y44607200D03*
X28092900Y53671200D03*
%TO.N,BTN_B*%
X12747700Y19764500D03*
X30336500Y6813500D03*
X14939400Y44486700D03*
%TO.N,XOUT*%
X14900000Y42250000D03*
X15550000Y46100000D03*
%TO.N,1V1*%
X22835300Y35454900D03*
X14977700Y37010700D03*
X27449000Y34508200D03*
X28665600Y40753100D03*
X28232500Y37858600D03*
X23625100Y38791400D03*
%TO.N,RUN*%
X14999800Y37888700D03*
X27192000Y36547200D03*
X27192000Y32652400D03*
%TO.N,I2S_DIN*%
X12664900Y18838000D03*
X16853300Y37301200D03*
X17693100Y24744500D03*
%TO.N,I2S_BCLK*%
X14052700Y18527600D03*
X9852400Y35402400D03*
X14319000Y23626100D03*
%TO.N,I2S_LRCLK*%
X15462500Y19724100D03*
X17442900Y40405800D03*
%TO.N,AMP_EN*%
X16938800Y23202200D03*
X17875100Y35312500D03*
%TO.N,USER_LED*%
X24815900Y9005000D03*
X20278000Y27443200D03*
X20333200Y37987000D03*
%TO.N,GP28*%
X21629500Y41377400D03*
X36517100Y27731500D03*
%TO.N,GP29*%
X21653800Y35211600D03*
%TO.N,QSPI_SD1*%
X23958200Y44894600D03*
X32682600Y43555100D03*
%TD*%
%TA.AperFunction,Conductor*%
%TO.N,GND*%
G36*
X38503874Y59699195D02*
G01*
X38531912Y59696989D01*
X38679881Y59685343D01*
X38695210Y59682916D01*
X38863095Y59642610D01*
X38877865Y59637810D01*
X39037369Y59571742D01*
X39051201Y59564694D01*
X39198408Y59474485D01*
X39210967Y59465361D01*
X39342254Y59353232D01*
X39353231Y59342255D01*
X39465354Y59210975D01*
X39465356Y59210973D01*
X39474485Y59198407D01*
X39562008Y59055583D01*
X39564689Y59051209D01*
X39571742Y59037367D01*
X39637809Y58877866D01*
X39642610Y58863092D01*
X39682913Y58695219D01*
X39685343Y58679876D01*
X39699195Y58503877D01*
X39699500Y58496109D01*
X39699500Y1503893D01*
X39699195Y1496125D01*
X39685343Y1320125D01*
X39682913Y1304782D01*
X39642610Y1136909D01*
X39637809Y1122135D01*
X39571742Y962634D01*
X39564689Y948792D01*
X39474487Y801596D01*
X39465356Y789028D01*
X39353235Y657750D01*
X39342250Y646765D01*
X39210972Y534644D01*
X39198404Y525513D01*
X39051208Y435311D01*
X39037366Y428258D01*
X38877865Y362191D01*
X38863091Y357390D01*
X38695218Y317087D01*
X38679875Y314657D01*
X38503875Y300805D01*
X38496107Y300500D01*
X1503893Y300500D01*
X1496125Y300805D01*
X1320124Y314657D01*
X1304781Y317087D01*
X1136908Y357390D01*
X1122134Y362191D01*
X962633Y428258D01*
X948791Y435311D01*
X847226Y497550D01*
X801593Y525515D01*
X789027Y534644D01*
X657745Y646769D01*
X646768Y657746D01*
X534639Y789033D01*
X525515Y801592D01*
X435306Y948799D01*
X428257Y962634D01*
X362190Y1122135D01*
X357389Y1136909D01*
X354730Y1147986D01*
X317084Y1304790D01*
X314657Y1320119D01*
X300805Y1496126D01*
X300500Y1503893D01*
X300500Y4399998D01*
X11394353Y4399998D01*
X11414834Y4257544D01*
X11474622Y4126629D01*
X11474623Y4126627D01*
X11568872Y4017857D01*
X11568873Y4017856D01*
X11689942Y3940050D01*
X11689947Y3940047D01*
X11796403Y3908789D01*
X11828035Y3899501D01*
X11828036Y3899501D01*
X11828039Y3899500D01*
X11828041Y3899500D01*
X11971959Y3899500D01*
X11971961Y3899500D01*
X12110053Y3940047D01*
X12231128Y4017857D01*
X12325377Y4126627D01*
X12385165Y4257543D01*
X12405647Y4400000D01*
X12385165Y4542457D01*
X12325377Y4673373D01*
X12231128Y4782143D01*
X12231127Y4782144D01*
X12231126Y4782145D01*
X12110057Y4859951D01*
X12110054Y4859953D01*
X12110053Y4859953D01*
X12110050Y4859954D01*
X11971964Y4900500D01*
X11971961Y4900500D01*
X11828039Y4900500D01*
X11828035Y4900500D01*
X11689949Y4859954D01*
X11689942Y4859951D01*
X11568873Y4782145D01*
X11474622Y4673372D01*
X11414834Y4542457D01*
X11394353Y4400003D01*
X11394353Y4399998D01*
X300500Y4399998D01*
X300500Y5567977D01*
X16434500Y5567977D01*
X16473757Y5408707D01*
X16549993Y5263453D01*
X16658769Y5140669D01*
X16733190Y5089300D01*
X16793774Y5047482D01*
X16947155Y4989312D01*
X16989477Y4984174D01*
X17069131Y4974501D01*
X17069138Y4974501D01*
X17069143Y4974500D01*
X17069148Y4974500D01*
X17150852Y4974500D01*
X17150857Y4974500D01*
X17150862Y4974501D01*
X17150868Y4974501D01*
X17209360Y4981604D01*
X17272845Y4989312D01*
X17426226Y5047482D01*
X17561229Y5140668D01*
X17670008Y5263454D01*
X17746242Y5408705D01*
X17785500Y5567977D01*
X22214500Y5567977D01*
X22253757Y5408707D01*
X22329993Y5263453D01*
X22438769Y5140669D01*
X22513190Y5089300D01*
X22573774Y5047482D01*
X22727155Y4989312D01*
X22769477Y4984174D01*
X22849131Y4974501D01*
X22849138Y4974501D01*
X22849143Y4974500D01*
X22849148Y4974500D01*
X22930852Y4974500D01*
X22930857Y4974500D01*
X22930862Y4974501D01*
X22930868Y4974501D01*
X22989360Y4981604D01*
X23052845Y4989312D01*
X23206226Y5047482D01*
X23341229Y5140668D01*
X23450008Y5263454D01*
X23526242Y5408705D01*
X23565500Y5567979D01*
X23565500Y5732021D01*
X23526242Y5891295D01*
X23450008Y6036546D01*
X23429798Y6059358D01*
X23341230Y6159332D01*
X23206226Y6252518D01*
X23052845Y6310688D01*
X23052843Y6310689D01*
X23052842Y6310689D01*
X22930868Y6325500D01*
X22930857Y6325500D01*
X22849143Y6325500D01*
X22849131Y6325500D01*
X22727157Y6310689D01*
X22727155Y6310688D01*
X22573773Y6252518D01*
X22438770Y6159332D01*
X22438769Y6159332D01*
X22329993Y6036548D01*
X22253757Y5891294D01*
X22214500Y5732024D01*
X22214500Y5567977D01*
X17785500Y5567977D01*
X17785500Y5567979D01*
X17785500Y5732021D01*
X17746242Y5891295D01*
X17670008Y6036546D01*
X17649798Y6059358D01*
X17561230Y6159332D01*
X17426226Y6252518D01*
X17272845Y6310688D01*
X17272843Y6310689D01*
X17272842Y6310689D01*
X17150868Y6325500D01*
X17150857Y6325500D01*
X17069143Y6325500D01*
X17069131Y6325500D01*
X16947157Y6310689D01*
X16947155Y6310688D01*
X16793773Y6252518D01*
X16658770Y6159332D01*
X16658769Y6159332D01*
X16549993Y6036548D01*
X16473757Y5891294D01*
X16434500Y5732024D01*
X16434500Y5567977D01*
X300500Y5567977D01*
X300500Y6869298D01*
X1594353Y6869298D01*
X1614834Y6726844D01*
X1640318Y6671043D01*
X1674623Y6595927D01*
X1722972Y6540129D01*
X1768873Y6487156D01*
X1855700Y6431356D01*
X1889947Y6409347D01*
X1996403Y6378089D01*
X2028035Y6368801D01*
X2028036Y6368801D01*
X2028039Y6368800D01*
X2028041Y6368800D01*
X2171959Y6368800D01*
X2171961Y6368800D01*
X2310053Y6409347D01*
X2431128Y6487157D01*
X2525377Y6595927D01*
X2585165Y6726843D01*
X2597624Y6813498D01*
X29830853Y6813498D01*
X29851334Y6671044D01*
X29911122Y6540129D01*
X29911123Y6540127D01*
X30005372Y6431357D01*
X30005373Y6431356D01*
X30126442Y6353550D01*
X30126447Y6353547D01*
X30232903Y6322289D01*
X30264535Y6313001D01*
X30264536Y6313001D01*
X30264539Y6313000D01*
X30264541Y6313000D01*
X30408459Y6313000D01*
X30408461Y6313000D01*
X30546553Y6353547D01*
X30667628Y6431357D01*
X30761877Y6540127D01*
X30821665Y6671043D01*
X30842147Y6813500D01*
X30834124Y6869300D01*
X30821665Y6955957D01*
X30761877Y7086872D01*
X30761877Y7086873D01*
X30667628Y7195643D01*
X30667627Y7195644D01*
X30667626Y7195645D01*
X30546557Y7273451D01*
X30546554Y7273453D01*
X30546553Y7273453D01*
X30546550Y7273454D01*
X30408464Y7314000D01*
X30408461Y7314000D01*
X30264539Y7314000D01*
X30264535Y7314000D01*
X30126449Y7273454D01*
X30126442Y7273451D01*
X30005373Y7195645D01*
X29911122Y7086872D01*
X29851334Y6955957D01*
X29830853Y6813503D01*
X29830853Y6813498D01*
X2597624Y6813498D01*
X2605647Y6869300D01*
X2585165Y7011757D01*
X2525377Y7142673D01*
X2431128Y7251443D01*
X2431127Y7251444D01*
X2431126Y7251445D01*
X2310057Y7329251D01*
X2310054Y7329253D01*
X2310053Y7329253D01*
X2310050Y7329254D01*
X2171964Y7369800D01*
X2171961Y7369800D01*
X2028039Y7369800D01*
X2028035Y7369800D01*
X1889949Y7329254D01*
X1889942Y7329251D01*
X1768873Y7251445D01*
X1674622Y7142672D01*
X1614834Y7011757D01*
X1594353Y6869303D01*
X1594353Y6869298D01*
X300500Y6869298D01*
X300500Y8099998D01*
X13494353Y8099998D01*
X13514834Y7957544D01*
X13552189Y7875750D01*
X13574623Y7826627D01*
X13668872Y7717857D01*
X13668873Y7717856D01*
X13789942Y7640050D01*
X13789947Y7640047D01*
X13896403Y7608789D01*
X13928035Y7599501D01*
X13928036Y7599501D01*
X13928039Y7599500D01*
X13928041Y7599500D01*
X14071959Y7599500D01*
X14071961Y7599500D01*
X14210053Y7640047D01*
X14331128Y7717857D01*
X14425377Y7826627D01*
X14485165Y7957543D01*
X14491992Y8005029D01*
X14505647Y8099998D01*
X14505647Y8100003D01*
X14485165Y8242457D01*
X14442583Y8335698D01*
X20465353Y8335698D01*
X20485834Y8193244D01*
X20528417Y8100003D01*
X20545623Y8062327D01*
X20636417Y7957544D01*
X20639873Y7953556D01*
X20760942Y7875750D01*
X20760947Y7875747D01*
X20867403Y7844489D01*
X20899035Y7835201D01*
X20899036Y7835201D01*
X20899039Y7835200D01*
X20899041Y7835200D01*
X21042959Y7835200D01*
X21042961Y7835200D01*
X21181053Y7875747D01*
X21302128Y7953557D01*
X21396377Y8062327D01*
X21456165Y8193243D01*
X21476647Y8335700D01*
X21474461Y8350901D01*
X21456165Y8478157D01*
X21425617Y8545047D01*
X21396377Y8609073D01*
X21302128Y8717843D01*
X21302127Y8717844D01*
X21302126Y8717845D01*
X21181057Y8795651D01*
X21181054Y8795653D01*
X21181053Y8795653D01*
X21181050Y8795654D01*
X21042964Y8836200D01*
X21042961Y8836200D01*
X20899039Y8836200D01*
X20899035Y8836200D01*
X20760949Y8795654D01*
X20760942Y8795651D01*
X20639873Y8717845D01*
X20545622Y8609072D01*
X20485834Y8478157D01*
X20465353Y8335703D01*
X20465353Y8335698D01*
X14442583Y8335698D01*
X14425377Y8373373D01*
X14331128Y8482143D01*
X14331127Y8482144D01*
X14331126Y8482145D01*
X14210057Y8559951D01*
X14210054Y8559953D01*
X14210053Y8559953D01*
X14210050Y8559954D01*
X14071964Y8600500D01*
X14071961Y8600500D01*
X13928039Y8600500D01*
X13928035Y8600500D01*
X13789949Y8559954D01*
X13789942Y8559951D01*
X13668873Y8482145D01*
X13574622Y8373372D01*
X13514834Y8242457D01*
X13494353Y8100003D01*
X13494353Y8099998D01*
X300500Y8099998D01*
X300500Y9870898D01*
X7584353Y9870898D01*
X7604834Y9728444D01*
X7664622Y9597529D01*
X7664623Y9597527D01*
X7744364Y9505500D01*
X7758873Y9488756D01*
X7854434Y9427343D01*
X7879947Y9410947D01*
X7961017Y9387143D01*
X8018035Y9370401D01*
X8018036Y9370401D01*
X8018039Y9370400D01*
X8018041Y9370400D01*
X8161959Y9370400D01*
X8161961Y9370400D01*
X8300053Y9410947D01*
X8421128Y9488757D01*
X8491350Y9569798D01*
X11577153Y9569798D01*
X11597634Y9427344D01*
X11623640Y9370400D01*
X11657423Y9296427D01*
X11711912Y9233543D01*
X11751673Y9187656D01*
X11849523Y9124772D01*
X11872747Y9109847D01*
X11979203Y9078589D01*
X12010835Y9069301D01*
X12010836Y9069301D01*
X12010839Y9069300D01*
X12010841Y9069300D01*
X12154759Y9069300D01*
X12154761Y9069300D01*
X12292853Y9109847D01*
X12413928Y9187657D01*
X12508177Y9296427D01*
X12508849Y9297898D01*
X14894353Y9297898D01*
X14914834Y9155444D01*
X14954267Y9069100D01*
X14974623Y9024527D01*
X15068872Y8915757D01*
X15068873Y8915756D01*
X15189942Y8837950D01*
X15189947Y8837947D01*
X15296403Y8806689D01*
X15328035Y8797401D01*
X15328036Y8797401D01*
X15328039Y8797400D01*
X15328041Y8797400D01*
X15471959Y8797400D01*
X15471961Y8797400D01*
X15610053Y8837947D01*
X15630983Y8851398D01*
X23082653Y8851398D01*
X23103134Y8708944D01*
X23148745Y8609072D01*
X23162923Y8578027D01*
X23249460Y8478157D01*
X23257173Y8469256D01*
X23378242Y8391450D01*
X23378247Y8391447D01*
X23439806Y8373372D01*
X23516335Y8350901D01*
X23516336Y8350901D01*
X23516339Y8350900D01*
X23516341Y8350900D01*
X23660259Y8350900D01*
X23660261Y8350900D01*
X23798353Y8391447D01*
X23919428Y8469257D01*
X24013677Y8578027D01*
X24073465Y8708943D01*
X24093947Y8851400D01*
X24073465Y8993857D01*
X24068377Y9004998D01*
X24310253Y9004998D01*
X24330734Y8862544D01*
X24361283Y8795653D01*
X24390523Y8731627D01*
X24402467Y8717843D01*
X24484773Y8622856D01*
X24605842Y8545050D01*
X24605847Y8545047D01*
X24712303Y8513789D01*
X24743935Y8504501D01*
X24743936Y8504501D01*
X24743939Y8504500D01*
X24743941Y8504500D01*
X24887859Y8504500D01*
X24887861Y8504500D01*
X25025953Y8545047D01*
X25147028Y8622857D01*
X25241277Y8731627D01*
X25301065Y8862543D01*
X25321547Y9005000D01*
X25318739Y9024527D01*
X25301065Y9147457D01*
X25282797Y9187457D01*
X25241277Y9278373D01*
X25147028Y9387143D01*
X25147027Y9387144D01*
X25147026Y9387145D01*
X25025957Y9464951D01*
X25025954Y9464953D01*
X25025953Y9464953D01*
X25025950Y9464954D01*
X24887864Y9505500D01*
X24887861Y9505500D01*
X24743939Y9505500D01*
X24743935Y9505500D01*
X24605849Y9464954D01*
X24605842Y9464951D01*
X24484773Y9387145D01*
X24390522Y9278372D01*
X24330734Y9147457D01*
X24310253Y9005003D01*
X24310253Y9004998D01*
X24068377Y9004998D01*
X24013677Y9124773D01*
X23919428Y9233543D01*
X23919427Y9233544D01*
X23919426Y9233545D01*
X23798357Y9311351D01*
X23798354Y9311353D01*
X23798353Y9311353D01*
X23798350Y9311354D01*
X23660264Y9351900D01*
X23660261Y9351900D01*
X23516339Y9351900D01*
X23516335Y9351900D01*
X23378249Y9311354D01*
X23378242Y9311351D01*
X23257173Y9233545D01*
X23162922Y9124772D01*
X23103134Y8993857D01*
X23082653Y8851403D01*
X23082653Y8851398D01*
X15630983Y8851398D01*
X15731128Y8915757D01*
X15825377Y9024527D01*
X15885165Y9155443D01*
X15896394Y9233545D01*
X15905647Y9297898D01*
X15905647Y9297903D01*
X15885165Y9440357D01*
X15826142Y9569598D01*
X19244353Y9569598D01*
X19264834Y9427144D01*
X19323859Y9297900D01*
X19324623Y9296227D01*
X19378937Y9233545D01*
X19418873Y9187456D01*
X19539942Y9109650D01*
X19539947Y9109647D01*
X19646403Y9078389D01*
X19678035Y9069101D01*
X19678036Y9069101D01*
X19678039Y9069100D01*
X19678041Y9069100D01*
X19821959Y9069100D01*
X19821961Y9069100D01*
X19960053Y9109647D01*
X20081128Y9187457D01*
X20175377Y9296227D01*
X20235165Y9427143D01*
X20255647Y9569600D01*
X20255618Y9569800D01*
X20235165Y9712057D01*
X20175377Y9842972D01*
X20175377Y9842973D01*
X20081128Y9951743D01*
X20081127Y9951744D01*
X20081126Y9951745D01*
X19960057Y10029551D01*
X19960054Y10029553D01*
X19960053Y10029553D01*
X19959372Y10029753D01*
X19821964Y10070100D01*
X19821961Y10070100D01*
X19678039Y10070100D01*
X19678035Y10070100D01*
X19539949Y10029554D01*
X19539942Y10029551D01*
X19418873Y9951745D01*
X19324622Y9842972D01*
X19264834Y9712057D01*
X19244353Y9569603D01*
X19244353Y9569598D01*
X15826142Y9569598D01*
X15826141Y9569600D01*
X15825377Y9571273D01*
X15731128Y9680043D01*
X15731127Y9680044D01*
X15731126Y9680045D01*
X15610057Y9757851D01*
X15610054Y9757853D01*
X15610053Y9757853D01*
X15610050Y9757854D01*
X15471964Y9798400D01*
X15471961Y9798400D01*
X15328039Y9798400D01*
X15328035Y9798400D01*
X15189949Y9757854D01*
X15189942Y9757851D01*
X15068873Y9680045D01*
X14974622Y9571272D01*
X14914834Y9440357D01*
X14894353Y9297903D01*
X14894353Y9297898D01*
X12508849Y9297898D01*
X12567965Y9427343D01*
X12588418Y9569598D01*
X12588447Y9569798D01*
X12588447Y9569803D01*
X12567965Y9712257D01*
X12528624Y9798400D01*
X12508177Y9843173D01*
X12413928Y9951943D01*
X12413927Y9951944D01*
X12413926Y9951945D01*
X12292857Y10029751D01*
X12292854Y10029753D01*
X12292853Y10029753D01*
X12292850Y10029754D01*
X12154764Y10070300D01*
X12154761Y10070300D01*
X12010839Y10070300D01*
X12010835Y10070300D01*
X11872749Y10029754D01*
X11872742Y10029751D01*
X11751673Y9951945D01*
X11657422Y9843172D01*
X11597634Y9712257D01*
X11577153Y9569803D01*
X11577153Y9569798D01*
X8491350Y9569798D01*
X8515377Y9597527D01*
X8575165Y9728443D01*
X8591632Y9842973D01*
X8595647Y9870898D01*
X8595647Y9870903D01*
X8575165Y10013357D01*
X8549160Y10070300D01*
X8515377Y10144273D01*
X8421128Y10253043D01*
X8421127Y10253044D01*
X8421126Y10253045D01*
X8300057Y10330851D01*
X8300054Y10330853D01*
X8300053Y10330853D01*
X8300050Y10330854D01*
X8161964Y10371400D01*
X8161961Y10371400D01*
X8018039Y10371400D01*
X8018035Y10371400D01*
X7879949Y10330854D01*
X7879942Y10330851D01*
X7758873Y10253045D01*
X7664622Y10144272D01*
X7604834Y10013357D01*
X7584353Y9870903D01*
X7584353Y9870898D01*
X300500Y9870898D01*
X300500Y10830000D01*
X36909187Y10830000D01*
X36914097Y10777011D01*
X36969887Y10580930D01*
X37060750Y10398452D01*
X37060755Y10398443D01*
X37183608Y10235760D01*
X37334266Y10098418D01*
X37507581Y9991105D01*
X37507586Y9991102D01*
X37697683Y9917459D01*
X37849999Y9888986D01*
X37850000Y9888986D01*
X37850000Y10498830D01*
X37857685Y10495320D01*
X37964237Y10480000D01*
X38035763Y10480000D01*
X38142315Y10495320D01*
X38150000Y10498830D01*
X38150000Y9888986D01*
X38302316Y9917459D01*
X38492413Y9991102D01*
X38492418Y9991105D01*
X38665733Y10098418D01*
X38816391Y10235760D01*
X38939244Y10398443D01*
X38939249Y10398452D01*
X39030112Y10580930D01*
X39085902Y10777011D01*
X39090813Y10830000D01*
X38477065Y10830000D01*
X38500000Y10908111D01*
X38500000Y11051889D01*
X38477065Y11130000D01*
X39090812Y11130000D01*
X39085902Y11182990D01*
X39030112Y11379071D01*
X38939249Y11561549D01*
X38939244Y11561558D01*
X38816391Y11724241D01*
X38665733Y11861583D01*
X38492418Y11968896D01*
X38492413Y11968899D01*
X38302319Y12042541D01*
X38302313Y12042543D01*
X38150000Y12071016D01*
X38150000Y11461171D01*
X38142315Y11464680D01*
X38035763Y11480000D01*
X37964237Y11480000D01*
X37857685Y11464680D01*
X37850000Y11461171D01*
X37850000Y12071015D01*
X37849999Y12071016D01*
X37697686Y12042543D01*
X37697680Y12042541D01*
X37507586Y11968899D01*
X37507581Y11968896D01*
X37334266Y11861583D01*
X37183608Y11724241D01*
X37060755Y11561558D01*
X37060750Y11561549D01*
X36969887Y11379071D01*
X36914097Y11182990D01*
X36909187Y11130000D01*
X37522935Y11130000D01*
X37500000Y11051889D01*
X37500000Y10908111D01*
X37522935Y10830000D01*
X36909187Y10830000D01*
X300500Y10830000D01*
X300500Y11849998D01*
X10505553Y11849998D01*
X10526034Y11707544D01*
X10585822Y11576629D01*
X10585823Y11576627D01*
X10669550Y11480000D01*
X10680073Y11467856D01*
X10777954Y11404952D01*
X10801147Y11390047D01*
X10907603Y11358789D01*
X10939235Y11349501D01*
X10939236Y11349501D01*
X10939239Y11349500D01*
X10939241Y11349500D01*
X11083159Y11349500D01*
X11083161Y11349500D01*
X11221253Y11390047D01*
X11342328Y11467857D01*
X11436577Y11576627D01*
X11496365Y11707543D01*
X11516847Y11850000D01*
X11496365Y11992457D01*
X11436577Y12123373D01*
X11342328Y12232143D01*
X11342327Y12232144D01*
X11342326Y12232145D01*
X11221257Y12309951D01*
X11221254Y12309953D01*
X11221253Y12309953D01*
X11221250Y12309954D01*
X11083164Y12350500D01*
X11083161Y12350500D01*
X10939239Y12350500D01*
X10939235Y12350500D01*
X10801149Y12309954D01*
X10801142Y12309951D01*
X10680073Y12232145D01*
X10585822Y12123372D01*
X10526034Y11992457D01*
X10505553Y11850003D01*
X10505553Y11849998D01*
X300500Y11849998D01*
X300500Y12875098D01*
X18967153Y12875098D01*
X18987634Y12732644D01*
X19028886Y12642317D01*
X19047423Y12601727D01*
X19096777Y12544769D01*
X19141673Y12492956D01*
X19186081Y12464417D01*
X19262747Y12415147D01*
X19369203Y12383889D01*
X19400835Y12374601D01*
X19400836Y12374601D01*
X19400839Y12374600D01*
X19400841Y12374600D01*
X19544759Y12374600D01*
X19544761Y12374600D01*
X19682853Y12415147D01*
X19803928Y12492957D01*
X19898177Y12601727D01*
X19957965Y12732643D01*
X19978447Y12875100D01*
X19970043Y12933550D01*
X19957965Y13017557D01*
X19898177Y13148472D01*
X19898177Y13148473D01*
X19803928Y13257243D01*
X19803927Y13257244D01*
X19803926Y13257245D01*
X19682857Y13335051D01*
X19682854Y13335053D01*
X19682853Y13335053D01*
X19682850Y13335054D01*
X19544764Y13375600D01*
X19544761Y13375600D01*
X19400839Y13375600D01*
X19400835Y13375600D01*
X19262749Y13335054D01*
X19262742Y13335051D01*
X19141673Y13257245D01*
X19047422Y13148472D01*
X18987634Y13017557D01*
X18967153Y12875103D01*
X18967153Y12875098D01*
X300500Y12875098D01*
X300500Y13519997D01*
X36944417Y13519997D01*
X36964698Y13314071D01*
X36964699Y13314066D01*
X37024768Y13116046D01*
X37122316Y12933548D01*
X37170283Y12875100D01*
X37253590Y12773590D01*
X37253595Y12773586D01*
X37413547Y12642317D01*
X37413548Y12642317D01*
X37413550Y12642315D01*
X37596046Y12544768D01*
X37733997Y12502922D01*
X37794065Y12484700D01*
X37794070Y12484699D01*
X37999997Y12464417D01*
X38000000Y12464417D01*
X38000003Y12464417D01*
X38205929Y12484699D01*
X38205934Y12484700D01*
X38403954Y12544768D01*
X38586450Y12642315D01*
X38746410Y12773590D01*
X38877685Y12933550D01*
X38975232Y13116046D01*
X39035300Y13314066D01*
X39035301Y13314071D01*
X39055583Y13519997D01*
X39055583Y13520004D01*
X39035301Y13725930D01*
X39035300Y13725935D01*
X39017078Y13786003D01*
X38975232Y13923954D01*
X38877685Y14106450D01*
X38746410Y14266410D01*
X38722994Y14285627D01*
X38586452Y14397684D01*
X38403954Y14495232D01*
X38205934Y14555301D01*
X38205929Y14555302D01*
X38000003Y14575583D01*
X37999997Y14575583D01*
X37794070Y14555302D01*
X37794065Y14555301D01*
X37596045Y14495232D01*
X37413547Y14397684D01*
X37253595Y14266415D01*
X37253585Y14266405D01*
X37122316Y14106453D01*
X37024768Y13923955D01*
X36964699Y13725935D01*
X36964698Y13725930D01*
X36944417Y13520004D01*
X36944417Y13519997D01*
X300500Y13519997D01*
X300500Y14558998D01*
X15950053Y14558998D01*
X15970534Y14416544D01*
X16030322Y14285629D01*
X16030323Y14285627D01*
X16046979Y14266405D01*
X16124573Y14176856D01*
X16245642Y14099050D01*
X16245647Y14099047D01*
X16352103Y14067789D01*
X16383735Y14058501D01*
X16383736Y14058501D01*
X16383739Y14058500D01*
X16383741Y14058500D01*
X16527659Y14058500D01*
X16527661Y14058500D01*
X16665753Y14099047D01*
X16786828Y14176857D01*
X16881077Y14285627D01*
X16940865Y14416543D01*
X16953856Y14506900D01*
X16961347Y14558998D01*
X16961347Y14559003D01*
X16940865Y14701457D01*
X16881077Y14832372D01*
X16881077Y14832373D01*
X16786828Y14941143D01*
X16786827Y14941144D01*
X16786826Y14941145D01*
X16665757Y15018951D01*
X16665754Y15018953D01*
X16665753Y15018953D01*
X16646184Y15024699D01*
X16527664Y15059500D01*
X16527661Y15059500D01*
X16383739Y15059500D01*
X16383735Y15059500D01*
X16245649Y15018954D01*
X16245642Y15018951D01*
X16124573Y14941145D01*
X16030322Y14832372D01*
X15970534Y14701457D01*
X15950053Y14559003D01*
X15950053Y14558998D01*
X300500Y14558998D01*
X300500Y15749998D01*
X12844353Y15749998D01*
X12864834Y15607544D01*
X12909171Y15510462D01*
X12924623Y15476627D01*
X13018748Y15368000D01*
X13018873Y15367856D01*
X13139942Y15290050D01*
X13139947Y15290047D01*
X13246403Y15258789D01*
X13278035Y15249501D01*
X13278036Y15249501D01*
X13278039Y15249500D01*
X13278041Y15249500D01*
X13421959Y15249500D01*
X13421961Y15249500D01*
X13560053Y15290047D01*
X13681128Y15367857D01*
X13681250Y15367998D01*
X20852353Y15367998D01*
X20872834Y15225544D01*
X20907400Y15149857D01*
X20932623Y15094627D01*
X21008205Y15007400D01*
X21026873Y14985856D01*
X21147942Y14908050D01*
X21147947Y14908047D01*
X21254403Y14876789D01*
X21286035Y14867501D01*
X21286036Y14867501D01*
X21286039Y14867500D01*
X21286041Y14867500D01*
X21429959Y14867500D01*
X21429961Y14867500D01*
X21568053Y14908047D01*
X21597140Y14926740D01*
X21656315Y14942296D01*
X21713331Y14920098D01*
X21745654Y14871349D01*
X21747535Y14864941D01*
X21807322Y14734029D01*
X21807323Y14734027D01*
X21835545Y14701457D01*
X21901573Y14625256D01*
X21978866Y14575583D01*
X22022647Y14547447D01*
X22129103Y14516189D01*
X22160735Y14506901D01*
X22160736Y14506901D01*
X22160739Y14506900D01*
X22160741Y14506900D01*
X22304659Y14506900D01*
X22304661Y14506900D01*
X22442753Y14547447D01*
X22563828Y14625257D01*
X22658077Y14734027D01*
X22717865Y14864943D01*
X22728987Y14942296D01*
X22738347Y15007398D01*
X22738347Y15007403D01*
X22717865Y15149857D01*
X22683300Y15225543D01*
X22658077Y15280773D01*
X22563828Y15389543D01*
X22563827Y15389544D01*
X22563826Y15389545D01*
X22442757Y15467351D01*
X22442754Y15467353D01*
X22442753Y15467353D01*
X22421655Y15473548D01*
X22304664Y15507900D01*
X22304661Y15507900D01*
X22160739Y15507900D01*
X22160735Y15507900D01*
X22022649Y15467354D01*
X22022643Y15467351D01*
X21993557Y15448659D01*
X21934381Y15433106D01*
X21877365Y15455305D01*
X21845044Y15504056D01*
X21843165Y15510454D01*
X21843165Y15510457D01*
X21783377Y15641373D01*
X21689128Y15750143D01*
X21689127Y15750144D01*
X21689126Y15750145D01*
X21568057Y15827951D01*
X21568054Y15827953D01*
X21568053Y15827953D01*
X21568050Y15827954D01*
X21429964Y15868500D01*
X21429961Y15868500D01*
X21286039Y15868500D01*
X21286035Y15868500D01*
X21147949Y15827954D01*
X21147942Y15827951D01*
X21026873Y15750145D01*
X20932622Y15641372D01*
X20872834Y15510457D01*
X20852353Y15368003D01*
X20852353Y15367998D01*
X13681250Y15367998D01*
X13775377Y15476627D01*
X13835165Y15607543D01*
X13855647Y15750000D01*
X13855626Y15750143D01*
X13835165Y15892457D01*
X13775377Y16023372D01*
X13775377Y16023373D01*
X13743642Y16059997D01*
X36944417Y16059997D01*
X36964698Y15854071D01*
X36964699Y15854066D01*
X37024768Y15656046D01*
X37122316Y15473548D01*
X37208937Y15368000D01*
X37253590Y15313590D01*
X37253595Y15313586D01*
X37413547Y15182317D01*
X37413548Y15182317D01*
X37413550Y15182315D01*
X37596046Y15084768D01*
X37733997Y15042922D01*
X37794065Y15024700D01*
X37794070Y15024699D01*
X37999997Y15004417D01*
X38000000Y15004417D01*
X38000003Y15004417D01*
X38205929Y15024699D01*
X38205934Y15024700D01*
X38236747Y15034047D01*
X38403954Y15084768D01*
X38586450Y15182315D01*
X38746410Y15313590D01*
X38877685Y15473550D01*
X38975232Y15656046D01*
X39035300Y15854066D01*
X39035301Y15854071D01*
X39055583Y16059997D01*
X39055583Y16060004D01*
X39035301Y16265930D01*
X39035300Y16265935D01*
X38997800Y16389556D01*
X38975232Y16463954D01*
X38877685Y16646450D01*
X38839484Y16692998D01*
X38746414Y16806405D01*
X38746410Y16806410D01*
X38711016Y16835457D01*
X38586452Y16937684D01*
X38403954Y17035232D01*
X38205934Y17095301D01*
X38205929Y17095302D01*
X38000003Y17115583D01*
X37999997Y17115583D01*
X37794070Y17095302D01*
X37794065Y17095301D01*
X37596045Y17035232D01*
X37413547Y16937684D01*
X37253595Y16806415D01*
X37253585Y16806405D01*
X37122316Y16646453D01*
X37024768Y16463955D01*
X36964699Y16265935D01*
X36964698Y16265930D01*
X36944417Y16060004D01*
X36944417Y16059997D01*
X13743642Y16059997D01*
X13681128Y16132143D01*
X13681127Y16132144D01*
X13681126Y16132145D01*
X13560057Y16209951D01*
X13560054Y16209953D01*
X13560053Y16209953D01*
X13560050Y16209954D01*
X13421964Y16250500D01*
X13421961Y16250500D01*
X13278039Y16250500D01*
X13278035Y16250500D01*
X13139949Y16209954D01*
X13139942Y16209951D01*
X13018873Y16132145D01*
X12924622Y16023372D01*
X12864834Y15892457D01*
X12844353Y15750003D01*
X12844353Y15749998D01*
X300500Y15749998D01*
X300500Y16771698D01*
X15894353Y16771698D01*
X15914834Y16629244D01*
X15950776Y16550544D01*
X15974623Y16498327D01*
X16068872Y16389557D01*
X16068873Y16389556D01*
X16189942Y16311750D01*
X16189947Y16311747D01*
X16296403Y16280489D01*
X16328035Y16271201D01*
X16328036Y16271201D01*
X16328039Y16271200D01*
X16328041Y16271200D01*
X16471959Y16271200D01*
X16471961Y16271200D01*
X16610053Y16311747D01*
X16731128Y16389557D01*
X16825377Y16498327D01*
X16885165Y16629243D01*
X16891992Y16676729D01*
X16894331Y16692998D01*
X20348753Y16692998D01*
X20369234Y16550544D01*
X20408779Y16463955D01*
X20429023Y16419627D01*
X20522498Y16311750D01*
X20523273Y16310856D01*
X20644342Y16233050D01*
X20644347Y16233047D01*
X20722999Y16209953D01*
X20782435Y16192501D01*
X20782436Y16192501D01*
X20782439Y16192500D01*
X20782441Y16192500D01*
X20926359Y16192500D01*
X20926361Y16192500D01*
X21064453Y16233047D01*
X21185528Y16310857D01*
X21279777Y16419627D01*
X21339565Y16550543D01*
X21360047Y16693000D01*
X21348731Y16771703D01*
X21339565Y16835457D01*
X21279777Y16966373D01*
X21185528Y17075143D01*
X21185527Y17075144D01*
X21185526Y17075145D01*
X21064457Y17152951D01*
X21064454Y17152953D01*
X21064453Y17152953D01*
X21061422Y17153843D01*
X20926364Y17193500D01*
X20926361Y17193500D01*
X20782439Y17193500D01*
X20782435Y17193500D01*
X20644349Y17152954D01*
X20644342Y17152951D01*
X20523273Y17075145D01*
X20429022Y16966372D01*
X20369234Y16835457D01*
X20348753Y16693003D01*
X20348753Y16692998D01*
X16894331Y16692998D01*
X16905647Y16771698D01*
X16905647Y16771703D01*
X16885165Y16914157D01*
X16825377Y17045072D01*
X16825377Y17045073D01*
X16731128Y17153843D01*
X16731127Y17153844D01*
X16731126Y17153845D01*
X16610057Y17231651D01*
X16610054Y17231653D01*
X16610053Y17231653D01*
X16610050Y17231654D01*
X16471964Y17272200D01*
X16471961Y17272200D01*
X16328039Y17272200D01*
X16328035Y17272200D01*
X16189949Y17231654D01*
X16189942Y17231651D01*
X16068873Y17153845D01*
X15974622Y17045072D01*
X15914834Y16914157D01*
X15894353Y16771703D01*
X15894353Y16771698D01*
X300500Y16771698D01*
X300500Y18500000D01*
X2419435Y18500000D01*
X2439632Y18320743D01*
X2439633Y18320739D01*
X2499211Y18150478D01*
X2499211Y18150477D01*
X2593701Y18000098D01*
X2595184Y17997738D01*
X2722738Y17870184D01*
X2722740Y17870183D01*
X2722741Y17870182D01*
X2860379Y17783698D01*
X2875478Y17774211D01*
X2943657Y17750354D01*
X3045738Y17714634D01*
X3045742Y17714633D01*
X3045745Y17714632D01*
X3045746Y17714632D01*
X3045750Y17714631D01*
X3180029Y17699501D01*
X3180045Y17699501D01*
X3180046Y17699500D01*
X3180047Y17699500D01*
X3819953Y17699500D01*
X3819954Y17699500D01*
X3819955Y17699501D01*
X3819970Y17699501D01*
X3954249Y17714631D01*
X3954251Y17714632D01*
X3954255Y17714632D01*
X4124522Y17774211D01*
X4277262Y17870184D01*
X4404816Y17997738D01*
X4500789Y18150478D01*
X4560368Y18320745D01*
X4580565Y18500000D01*
X4560368Y18679255D01*
X4554668Y18695544D01*
X4536014Y18748855D01*
X4504821Y18837998D01*
X12159253Y18837998D01*
X12179734Y18695544D01*
X12223370Y18599997D01*
X12239523Y18564627D01*
X12310946Y18482200D01*
X12333773Y18455856D01*
X12448318Y18382243D01*
X12454847Y18378047D01*
X12561303Y18346789D01*
X12592935Y18337501D01*
X12592936Y18337501D01*
X12592939Y18337500D01*
X12592941Y18337500D01*
X12736859Y18337500D01*
X12736861Y18337500D01*
X12874953Y18378047D01*
X12996028Y18455857D01*
X13058191Y18527598D01*
X13547053Y18527598D01*
X13567534Y18385144D01*
X13618534Y18273472D01*
X13627323Y18254227D01*
X13666662Y18208827D01*
X13721573Y18145456D01*
X13726084Y18142557D01*
X13842647Y18067647D01*
X13949103Y18036389D01*
X13980735Y18027101D01*
X13980736Y18027101D01*
X13980739Y18027100D01*
X13980741Y18027100D01*
X14124659Y18027100D01*
X14124661Y18027100D01*
X14262753Y18067647D01*
X14383828Y18145457D01*
X14478077Y18254227D01*
X14537865Y18385143D01*
X14548635Y18460053D01*
X14551819Y18482198D01*
X17635253Y18482198D01*
X17655734Y18339744D01*
X17681101Y18284200D01*
X17715523Y18208827D01*
X17770433Y18145457D01*
X17809773Y18100056D01*
X17930842Y18022250D01*
X17930847Y18022247D01*
X18014318Y17997738D01*
X18068935Y17981701D01*
X18068936Y17981701D01*
X18068939Y17981700D01*
X18068941Y17981700D01*
X18212859Y17981700D01*
X18212861Y17981700D01*
X18275520Y18000098D01*
X28143253Y18000098D01*
X28163734Y17857644D01*
X28223522Y17726729D01*
X28223523Y17726727D01*
X28311870Y17624768D01*
X28317773Y17617956D01*
X28438842Y17540150D01*
X28438847Y17540147D01*
X28540399Y17510329D01*
X28576935Y17499601D01*
X28576936Y17499601D01*
X28576939Y17499600D01*
X28576941Y17499600D01*
X28720859Y17499600D01*
X28720861Y17499600D01*
X28858953Y17540147D01*
X28980028Y17617957D01*
X29074277Y17726727D01*
X29100295Y17783698D01*
X34282753Y17783698D01*
X34303234Y17641244D01*
X34363022Y17510329D01*
X34363023Y17510327D01*
X34457272Y17401557D01*
X34457273Y17401556D01*
X34578342Y17323750D01*
X34578347Y17323747D01*
X34684803Y17292489D01*
X34716435Y17283201D01*
X34716436Y17283201D01*
X34716439Y17283200D01*
X34716441Y17283200D01*
X34860359Y17283200D01*
X34860361Y17283200D01*
X34998453Y17323747D01*
X35119528Y17401557D01*
X35213777Y17510327D01*
X35273565Y17641243D01*
X35281941Y17699501D01*
X35294047Y17783698D01*
X35294047Y17783703D01*
X35273565Y17926157D01*
X35248199Y17981700D01*
X35213777Y18057073D01*
X35119528Y18165843D01*
X35119527Y18165844D01*
X35119526Y18165845D01*
X34998457Y18243651D01*
X34998454Y18243653D01*
X34998453Y18243653D01*
X34998450Y18243654D01*
X34860364Y18284200D01*
X34860361Y18284200D01*
X34716439Y18284200D01*
X34716435Y18284200D01*
X34578349Y18243654D01*
X34578342Y18243651D01*
X34457273Y18165845D01*
X34363022Y18057072D01*
X34303234Y17926157D01*
X34282753Y17783703D01*
X34282753Y17783698D01*
X29100295Y17783698D01*
X29134065Y17857643D01*
X29151902Y17981701D01*
X29154547Y18000098D01*
X29154547Y18000103D01*
X29134065Y18142557D01*
X29130448Y18150478D01*
X29074277Y18273473D01*
X28980028Y18382243D01*
X28980027Y18382244D01*
X28980026Y18382245D01*
X28858957Y18460051D01*
X28858954Y18460053D01*
X28858953Y18460053D01*
X28858950Y18460054D01*
X28720864Y18500600D01*
X28720861Y18500600D01*
X28576939Y18500600D01*
X28576935Y18500600D01*
X28438849Y18460054D01*
X28438842Y18460051D01*
X28317773Y18382245D01*
X28223522Y18273472D01*
X28163734Y18142557D01*
X28143253Y18000103D01*
X28143253Y18000098D01*
X18275520Y18000098D01*
X18350953Y18022247D01*
X18472028Y18100057D01*
X18566277Y18208827D01*
X18626065Y18339743D01*
X18633876Y18394071D01*
X18646547Y18482198D01*
X18646547Y18482203D01*
X18629611Y18599997D01*
X36944417Y18599997D01*
X36964698Y18394071D01*
X36964699Y18394066D01*
X37024768Y18196046D01*
X37122316Y18013548D01*
X37148453Y17981700D01*
X37253590Y17853590D01*
X37253595Y17853586D01*
X37413547Y17722317D01*
X37413548Y17722317D01*
X37413550Y17722315D01*
X37596046Y17624768D01*
X37733997Y17582922D01*
X37794065Y17564700D01*
X37794070Y17564699D01*
X37999997Y17544417D01*
X38000000Y17544417D01*
X38000003Y17544417D01*
X38205929Y17564699D01*
X38205934Y17564700D01*
X38403954Y17624768D01*
X38586450Y17722315D01*
X38746410Y17853590D01*
X38877685Y18013550D01*
X38975232Y18196046D01*
X39035300Y18394066D01*
X39035301Y18394071D01*
X39055583Y18599997D01*
X39055583Y18600004D01*
X39035301Y18805930D01*
X39035300Y18805935D01*
X39003810Y18909743D01*
X38975232Y19003954D01*
X38877685Y19186450D01*
X38863437Y19203811D01*
X38746414Y19346405D01*
X38746410Y19346410D01*
X38746404Y19346415D01*
X38586452Y19477684D01*
X38403954Y19575232D01*
X38205934Y19635301D01*
X38205929Y19635302D01*
X38000003Y19655583D01*
X37999997Y19655583D01*
X37794070Y19635302D01*
X37794065Y19635301D01*
X37596045Y19575232D01*
X37413547Y19477684D01*
X37253595Y19346415D01*
X37253585Y19346405D01*
X37122316Y19186453D01*
X37024768Y19003955D01*
X36964699Y18805935D01*
X36964698Y18805930D01*
X36944417Y18600004D01*
X36944417Y18599997D01*
X18629611Y18599997D01*
X18626065Y18624657D01*
X18605331Y18670057D01*
X18566277Y18755573D01*
X18472028Y18864343D01*
X18472027Y18864344D01*
X18472026Y18864345D01*
X18350957Y18942151D01*
X18350954Y18942153D01*
X18350953Y18942153D01*
X18350950Y18942154D01*
X18212864Y18982700D01*
X18212861Y18982700D01*
X18068939Y18982700D01*
X18068935Y18982700D01*
X17930849Y18942154D01*
X17930842Y18942151D01*
X17809773Y18864345D01*
X17715522Y18755572D01*
X17655734Y18624657D01*
X17635253Y18482203D01*
X17635253Y18482198D01*
X14551819Y18482198D01*
X14558347Y18527598D01*
X14558347Y18527603D01*
X14537865Y18670057D01*
X14498811Y18755572D01*
X14478077Y18800973D01*
X14383828Y18909743D01*
X14383827Y18909744D01*
X14383826Y18909745D01*
X14262757Y18987551D01*
X14262754Y18987553D01*
X14262753Y18987553D01*
X14262750Y18987554D01*
X14124664Y19028100D01*
X14124661Y19028100D01*
X13980739Y19028100D01*
X13980735Y19028100D01*
X13842649Y18987554D01*
X13842642Y18987551D01*
X13721573Y18909745D01*
X13627322Y18800972D01*
X13567534Y18670057D01*
X13547053Y18527603D01*
X13547053Y18527598D01*
X13058191Y18527598D01*
X13090277Y18564627D01*
X13150065Y18695543D01*
X13165223Y18800972D01*
X13170547Y18837998D01*
X13170547Y18838003D01*
X13150065Y18980457D01*
X13090277Y19111372D01*
X13090277Y19111373D01*
X13025223Y19186450D01*
X13010180Y19203811D01*
X12986362Y19260170D01*
X13000221Y19319766D01*
X13031472Y19351924D01*
X13078828Y19382357D01*
X13173077Y19491127D01*
X13232865Y19622043D01*
X13247538Y19724098D01*
X14956853Y19724098D01*
X14977334Y19581644D01*
X15024812Y19477684D01*
X15037123Y19450727D01*
X15127518Y19346405D01*
X15131373Y19341956D01*
X15219423Y19285370D01*
X15252447Y19264147D01*
X15358903Y19232889D01*
X15390535Y19223601D01*
X15390536Y19223601D01*
X15390539Y19223600D01*
X15390541Y19223600D01*
X15534459Y19223600D01*
X15534461Y19223600D01*
X15672553Y19264147D01*
X15793628Y19341957D01*
X15887877Y19450727D01*
X15947665Y19581643D01*
X15964610Y19699501D01*
X15968147Y19724098D01*
X15968147Y19724103D01*
X15947665Y19866557D01*
X15915441Y19937117D01*
X15887877Y19997473D01*
X15793628Y20106243D01*
X15793627Y20106244D01*
X15793626Y20106245D01*
X15672557Y20184051D01*
X15672554Y20184053D01*
X15672553Y20184053D01*
X15672550Y20184054D01*
X15534464Y20224600D01*
X15534461Y20224600D01*
X15390539Y20224600D01*
X15390535Y20224600D01*
X15252449Y20184054D01*
X15252442Y20184051D01*
X15131373Y20106245D01*
X15037122Y19997472D01*
X14977334Y19866557D01*
X14956853Y19724103D01*
X14956853Y19724098D01*
X13247538Y19724098D01*
X13253347Y19764498D01*
X13253347Y19764503D01*
X13232865Y19906957D01*
X13219091Y19937118D01*
X13173077Y20037873D01*
X13078828Y20146643D01*
X13078827Y20146644D01*
X13078826Y20146645D01*
X12957757Y20224451D01*
X12957754Y20224453D01*
X12957753Y20224453D01*
X12957750Y20224454D01*
X12819664Y20265000D01*
X12819661Y20265000D01*
X12675739Y20265000D01*
X12675735Y20265000D01*
X12537649Y20224454D01*
X12537642Y20224451D01*
X12416573Y20146645D01*
X12322322Y20037872D01*
X12262534Y19906957D01*
X12242053Y19764503D01*
X12242053Y19764498D01*
X12262534Y19622044D01*
X12280985Y19581643D01*
X12322323Y19491127D01*
X12402420Y19398689D01*
X12426237Y19342330D01*
X12412378Y19282735D01*
X12381125Y19250576D01*
X12333773Y19220144D01*
X12239522Y19111372D01*
X12179734Y18980457D01*
X12159253Y18838003D01*
X12159253Y18837998D01*
X4504821Y18837998D01*
X4500789Y18849522D01*
X4491476Y18864343D01*
X4404818Y19002259D01*
X4404817Y19002260D01*
X4404816Y19002262D01*
X4277262Y19129816D01*
X4277259Y19129818D01*
X4277258Y19129819D01*
X4124523Y19225789D01*
X3954261Y19285367D01*
X3954249Y19285370D01*
X3819970Y19300500D01*
X3819954Y19300500D01*
X3180046Y19300500D01*
X3180029Y19300500D01*
X3045750Y19285370D01*
X3045738Y19285367D01*
X2875477Y19225789D01*
X2875476Y19225789D01*
X2722741Y19129819D01*
X2595181Y19002259D01*
X2499211Y18849524D01*
X2499211Y18849523D01*
X2439633Y18679262D01*
X2439632Y18679258D01*
X2419435Y18500000D01*
X300500Y18500000D01*
X300500Y20095726D01*
X2424500Y20095726D01*
X2427353Y20065306D01*
X2427355Y20065297D01*
X2472207Y19937117D01*
X2552845Y19827856D01*
X2552847Y19827854D01*
X2552850Y19827850D01*
X2552853Y19827848D01*
X2552855Y19827846D01*
X2662116Y19747208D01*
X2662117Y19747208D01*
X2662118Y19747207D01*
X2790301Y19702354D01*
X2820725Y19699501D01*
X2820727Y19699500D01*
X2820734Y19699500D01*
X4179273Y19699500D01*
X4179273Y19699501D01*
X4209699Y19702354D01*
X4337882Y19747207D01*
X4447150Y19827850D01*
X4527793Y19937118D01*
X4572646Y20065301D01*
X4575499Y20095727D01*
X4575500Y20095727D01*
X4575500Y20277698D01*
X17058353Y20277698D01*
X17078834Y20135244D01*
X17123303Y20037873D01*
X17138623Y20004327D01*
X17222994Y19906957D01*
X17232873Y19895556D01*
X17353942Y19817750D01*
X17353947Y19817747D01*
X17460403Y19786489D01*
X17492035Y19777201D01*
X17492036Y19777201D01*
X17492039Y19777200D01*
X17492041Y19777200D01*
X17635959Y19777200D01*
X17635961Y19777200D01*
X17774053Y19817747D01*
X17895128Y19895557D01*
X17989377Y20004327D01*
X18049165Y20135243D01*
X18061991Y20224453D01*
X18069647Y20277698D01*
X18069647Y20277703D01*
X18049165Y20420157D01*
X17995804Y20537000D01*
X17989377Y20551073D01*
X17895128Y20659843D01*
X17895127Y20659844D01*
X17895126Y20659845D01*
X17774057Y20737651D01*
X17774054Y20737653D01*
X17774053Y20737653D01*
X17774050Y20737654D01*
X17635964Y20778200D01*
X17635961Y20778200D01*
X17492039Y20778200D01*
X17492035Y20778200D01*
X17353949Y20737654D01*
X17353942Y20737651D01*
X17232873Y20659845D01*
X17138622Y20551072D01*
X17078834Y20420157D01*
X17058353Y20277703D01*
X17058353Y20277698D01*
X4575500Y20277698D01*
X4575500Y20904273D01*
X4575499Y20904275D01*
X4572646Y20934695D01*
X4572646Y20934699D01*
X4536675Y21037498D01*
X8494353Y21037498D01*
X8514834Y20895044D01*
X8561502Y20792858D01*
X8574623Y20764127D01*
X8617150Y20715048D01*
X8668873Y20655356D01*
X8789942Y20577550D01*
X8789947Y20577547D01*
X8880114Y20551072D01*
X8928035Y20537001D01*
X8928036Y20537001D01*
X8928039Y20537000D01*
X8928041Y20537000D01*
X9071959Y20537000D01*
X9071961Y20537000D01*
X9210053Y20577547D01*
X9331128Y20655357D01*
X9425377Y20764127D01*
X9485165Y20895043D01*
X9500255Y20999998D01*
X9505647Y21037498D01*
X9505647Y21037503D01*
X9485878Y21174999D01*
X29777782Y21174999D01*
X29798263Y21032545D01*
X29843238Y20934066D01*
X29858052Y20901628D01*
X29896251Y20857544D01*
X29952302Y20792857D01*
X30073371Y20715051D01*
X30073376Y20715048D01*
X30179832Y20683790D01*
X30211464Y20674502D01*
X30211465Y20674502D01*
X30211468Y20674501D01*
X30211470Y20674501D01*
X30355388Y20674501D01*
X30355390Y20674501D01*
X30493482Y20715048D01*
X30614557Y20792858D01*
X30708806Y20901628D01*
X30753731Y20999998D01*
X31899673Y20999998D01*
X31920154Y20857544D01*
X31974908Y20737651D01*
X31979943Y20726627D01*
X32074192Y20617857D01*
X32074193Y20617856D01*
X32195262Y20540050D01*
X32195267Y20540047D01*
X32301723Y20508789D01*
X32333355Y20499501D01*
X32333356Y20499501D01*
X32333359Y20499500D01*
X32333361Y20499500D01*
X32477279Y20499500D01*
X32477281Y20499500D01*
X32615373Y20540047D01*
X32736448Y20617857D01*
X32830697Y20726627D01*
X32890485Y20857543D01*
X32910967Y21000000D01*
X32905575Y21037500D01*
X32890485Y21142457D01*
X32876927Y21172145D01*
X32830697Y21273373D01*
X32815310Y21291131D01*
X32791492Y21347490D01*
X32805351Y21407085D01*
X32836603Y21439244D01*
X32881127Y21467857D01*
X32975376Y21576627D01*
X32976916Y21579999D01*
X33394353Y21579999D01*
X33414834Y21437545D01*
X33440136Y21382143D01*
X33474623Y21306628D01*
X33521271Y21252793D01*
X33568873Y21197857D01*
X33689942Y21120051D01*
X33689947Y21120048D01*
X33796403Y21088790D01*
X33828035Y21079502D01*
X33828036Y21079502D01*
X33828039Y21079501D01*
X33828041Y21079501D01*
X33971959Y21079501D01*
X33971961Y21079501D01*
X34110053Y21120048D01*
X34141094Y21139997D01*
X36944417Y21139997D01*
X36964698Y20934071D01*
X36964699Y20934066D01*
X37024768Y20736046D01*
X37122316Y20553548D01*
X37166672Y20499500D01*
X37253590Y20393590D01*
X37253595Y20393586D01*
X37413547Y20262317D01*
X37413548Y20262317D01*
X37413550Y20262315D01*
X37596046Y20164768D01*
X37733997Y20122922D01*
X37794065Y20104700D01*
X37794070Y20104699D01*
X37999997Y20084417D01*
X38000000Y20084417D01*
X38000003Y20084417D01*
X38205929Y20104699D01*
X38205934Y20104700D01*
X38211027Y20106245D01*
X38403954Y20164768D01*
X38586450Y20262315D01*
X38746410Y20393590D01*
X38877685Y20553550D01*
X38975232Y20736046D01*
X39035300Y20934066D01*
X39035301Y20934071D01*
X39055583Y21139997D01*
X39055583Y21140004D01*
X39035301Y21345930D01*
X39035300Y21345935D01*
X39004226Y21448373D01*
X38975232Y21543954D01*
X38877685Y21726450D01*
X38746410Y21886410D01*
X38714981Y21912203D01*
X38586452Y22017684D01*
X38403954Y22115232D01*
X38205934Y22175301D01*
X38205929Y22175302D01*
X38000003Y22195583D01*
X37999997Y22195583D01*
X37794070Y22175302D01*
X37794065Y22175301D01*
X37596045Y22115232D01*
X37413547Y22017684D01*
X37253595Y21886415D01*
X37253585Y21886405D01*
X37122316Y21726453D01*
X37024768Y21543955D01*
X36964699Y21345935D01*
X36964698Y21345930D01*
X36944417Y21140004D01*
X36944417Y21139997D01*
X34141094Y21139997D01*
X34231128Y21197858D01*
X34325377Y21306628D01*
X34385165Y21437544D01*
X34400464Y21543954D01*
X34405647Y21579999D01*
X34405647Y21580004D01*
X34385165Y21722458D01*
X34383341Y21726453D01*
X34325377Y21853374D01*
X34231128Y21962144D01*
X34231127Y21962145D01*
X34231126Y21962146D01*
X34110057Y22039952D01*
X34110054Y22039954D01*
X34110053Y22039954D01*
X34110050Y22039955D01*
X33971964Y22080501D01*
X33971961Y22080501D01*
X33828039Y22080501D01*
X33828035Y22080501D01*
X33689949Y22039955D01*
X33689942Y22039952D01*
X33568873Y21962146D01*
X33474622Y21853373D01*
X33414834Y21722458D01*
X33394353Y21580004D01*
X33394353Y21579999D01*
X32976916Y21579999D01*
X33035164Y21707543D01*
X33055646Y21850000D01*
X33050410Y21886415D01*
X33035164Y21992457D01*
X33018345Y22029285D01*
X32975376Y22123373D01*
X32881127Y22232143D01*
X32881126Y22232144D01*
X32881125Y22232145D01*
X32760056Y22309951D01*
X32760053Y22309953D01*
X32760052Y22309953D01*
X32760049Y22309954D01*
X32621963Y22350500D01*
X32621960Y22350500D01*
X32478038Y22350500D01*
X32478034Y22350500D01*
X32339948Y22309954D01*
X32339941Y22309951D01*
X32218872Y22232145D01*
X32124621Y22123372D01*
X32064833Y21992457D01*
X32044352Y21850003D01*
X32044352Y21849998D01*
X32064833Y21707544D01*
X32107802Y21613457D01*
X32124622Y21576627D01*
X32140009Y21558869D01*
X32163826Y21502510D01*
X32149967Y21442915D01*
X32118713Y21410755D01*
X32074192Y21382143D01*
X31979942Y21273372D01*
X31920154Y21142457D01*
X31899673Y21000003D01*
X31899673Y20999998D01*
X30753731Y20999998D01*
X30768594Y21032544D01*
X30781175Y21120048D01*
X30789076Y21174999D01*
X30789076Y21175004D01*
X30768594Y21317458D01*
X30725986Y21410755D01*
X30708806Y21448374D01*
X30614557Y21557144D01*
X30614556Y21557145D01*
X30614555Y21557146D01*
X30493486Y21634952D01*
X30493483Y21634954D01*
X30493482Y21634954D01*
X30480285Y21638829D01*
X30355393Y21675501D01*
X30355390Y21675501D01*
X30211468Y21675501D01*
X30211464Y21675501D01*
X30073378Y21634955D01*
X30073371Y21634952D01*
X29952302Y21557146D01*
X29858051Y21448373D01*
X29798263Y21317458D01*
X29777782Y21175004D01*
X29777782Y21174999D01*
X9485878Y21174999D01*
X9485165Y21179957D01*
X9476990Y21197858D01*
X9425377Y21310873D01*
X9331128Y21419643D01*
X9331127Y21419644D01*
X9331126Y21419645D01*
X9210057Y21497451D01*
X9210054Y21497453D01*
X9210053Y21497453D01*
X9210050Y21497454D01*
X9071964Y21538000D01*
X9071961Y21538000D01*
X8928039Y21538000D01*
X8928035Y21538000D01*
X8789949Y21497454D01*
X8789942Y21497451D01*
X8668873Y21419645D01*
X8574622Y21310872D01*
X8514834Y21179957D01*
X8494353Y21037503D01*
X8494353Y21037498D01*
X4536675Y21037498D01*
X4527793Y21062882D01*
X4469064Y21142457D01*
X4447154Y21172145D01*
X4447152Y21172147D01*
X4447150Y21172150D01*
X4447146Y21172153D01*
X4447144Y21172155D01*
X4337883Y21252793D01*
X4209703Y21297645D01*
X4209694Y21297647D01*
X4179274Y21300500D01*
X4179266Y21300500D01*
X2820734Y21300500D01*
X2820725Y21300500D01*
X2790305Y21297647D01*
X2790296Y21297645D01*
X2662116Y21252793D01*
X2552855Y21172155D01*
X2552845Y21172145D01*
X2472207Y21062884D01*
X2427355Y20934704D01*
X2427353Y20934695D01*
X2424500Y20904275D01*
X2424500Y20095726D01*
X300500Y20095726D01*
X300500Y21886826D01*
X11857525Y21886826D01*
X11878006Y21744372D01*
X11937794Y21613457D01*
X11937795Y21613455D01*
X12003177Y21538000D01*
X12032045Y21504684D01*
X12153114Y21426878D01*
X12153119Y21426875D01*
X12259575Y21395617D01*
X12291207Y21386329D01*
X12291208Y21386329D01*
X12291211Y21386328D01*
X12291213Y21386328D01*
X12435131Y21386328D01*
X12435133Y21386328D01*
X12573225Y21426875D01*
X12694300Y21504685D01*
X12788549Y21613455D01*
X12848337Y21744371D01*
X12863524Y21850000D01*
X12868819Y21886826D01*
X12868819Y21886831D01*
X12865172Y21912198D01*
X19863353Y21912198D01*
X19883834Y21769744D01*
X19912241Y21707543D01*
X19943623Y21638827D01*
X20037872Y21530057D01*
X20037873Y21530056D01*
X20146956Y21459953D01*
X20158947Y21452247D01*
X20245347Y21426878D01*
X20297035Y21411701D01*
X20297036Y21411701D01*
X20297039Y21411700D01*
X20297041Y21411700D01*
X20440959Y21411700D01*
X20440961Y21411700D01*
X20579053Y21452247D01*
X20700128Y21530057D01*
X20794377Y21638827D01*
X20854165Y21769743D01*
X20874647Y21912200D01*
X20854165Y22054657D01*
X20794377Y22185573D01*
X20700128Y22294343D01*
X20700127Y22294344D01*
X20700126Y22294345D01*
X20579057Y22372151D01*
X20579054Y22372153D01*
X20579053Y22372153D01*
X20579050Y22372154D01*
X20440964Y22412700D01*
X20440961Y22412700D01*
X20297039Y22412700D01*
X20297035Y22412700D01*
X20158949Y22372154D01*
X20158942Y22372151D01*
X20037873Y22294345D01*
X19943622Y22185572D01*
X19883834Y22054657D01*
X19863353Y21912203D01*
X19863353Y21912198D01*
X12865172Y21912198D01*
X12848337Y22029285D01*
X12824947Y22080501D01*
X12788549Y22160201D01*
X12694300Y22268971D01*
X12694299Y22268972D01*
X12694298Y22268973D01*
X12573229Y22346779D01*
X12573226Y22346781D01*
X12573225Y22346781D01*
X12573222Y22346782D01*
X12435136Y22387328D01*
X12435133Y22387328D01*
X12291211Y22387328D01*
X12291207Y22387328D01*
X12153121Y22346782D01*
X12153114Y22346779D01*
X12032045Y22268973D01*
X11937794Y22160200D01*
X11878006Y22029285D01*
X11857525Y21886831D01*
X11857525Y21886826D01*
X300500Y21886826D01*
X300500Y22599998D01*
X7614353Y22599998D01*
X7634834Y22457544D01*
X7683720Y22350500D01*
X7694623Y22326627D01*
X7776493Y22232143D01*
X7788873Y22217856D01*
X7878588Y22160200D01*
X7909947Y22140047D01*
X8016403Y22108789D01*
X8048035Y22099501D01*
X8048036Y22099501D01*
X8048039Y22099500D01*
X8048041Y22099500D01*
X8191959Y22099500D01*
X8191961Y22099500D01*
X8330053Y22140047D01*
X8451128Y22217857D01*
X8545377Y22326627D01*
X8605165Y22457543D01*
X8625647Y22600000D01*
X8622136Y22624417D01*
X8605165Y22742457D01*
X8577828Y22802315D01*
X8545377Y22873373D01*
X8451128Y22982143D01*
X8451127Y22982144D01*
X8451126Y22982145D01*
X8330057Y23059951D01*
X8330054Y23059953D01*
X8330053Y23059953D01*
X8330050Y23059954D01*
X8191964Y23100500D01*
X8191961Y23100500D01*
X8048039Y23100500D01*
X8048035Y23100500D01*
X7909949Y23059954D01*
X7909942Y23059951D01*
X7788873Y22982145D01*
X7694622Y22873372D01*
X7634834Y22742457D01*
X7614353Y22600003D01*
X7614353Y22599998D01*
X300500Y22599998D01*
X300500Y23626098D01*
X13813353Y23626098D01*
X13833834Y23483644D01*
X13893622Y23352729D01*
X13893623Y23352727D01*
X13936105Y23303700D01*
X13987873Y23243956D01*
X14085748Y23181056D01*
X14108947Y23166147D01*
X14205670Y23137747D01*
X14247035Y23125601D01*
X14247036Y23125601D01*
X14247039Y23125600D01*
X14247041Y23125600D01*
X14390959Y23125600D01*
X14390961Y23125600D01*
X14529053Y23166147D01*
X14650128Y23243957D01*
X14744377Y23352727D01*
X14804165Y23483643D01*
X14815396Y23561754D01*
X14820564Y23597698D01*
X15694553Y23597698D01*
X15715034Y23455244D01*
X15761852Y23352729D01*
X15774823Y23324327D01*
X15869072Y23215557D01*
X15869073Y23215556D01*
X15990142Y23137750D01*
X15990147Y23137747D01*
X16096603Y23106489D01*
X16128235Y23097201D01*
X16128236Y23097201D01*
X16128239Y23097200D01*
X16128241Y23097200D01*
X16272159Y23097200D01*
X16272161Y23097200D01*
X16334785Y23115588D01*
X16395945Y23113841D01*
X16444398Y23076478D01*
X16452729Y23061725D01*
X16513422Y22928829D01*
X16513423Y22928827D01*
X16561474Y22873373D01*
X16607673Y22820056D01*
X16633902Y22803200D01*
X16728747Y22742247D01*
X16835203Y22710989D01*
X16866835Y22701701D01*
X16866836Y22701701D01*
X16866839Y22701700D01*
X16866841Y22701700D01*
X17010759Y22701700D01*
X17010761Y22701700D01*
X17148853Y22742247D01*
X17269928Y22820057D01*
X17364177Y22928827D01*
X17423965Y23059743D01*
X17437901Y23156671D01*
X17444447Y23202198D01*
X17444447Y23202203D01*
X17429854Y23303698D01*
X17898753Y23303698D01*
X17919234Y23161244D01*
X17965589Y23059743D01*
X17979023Y23030327D01*
X18062849Y22933586D01*
X18073273Y22921556D01*
X18148248Y22873373D01*
X18194347Y22843747D01*
X18300803Y22812489D01*
X18332435Y22803201D01*
X18332436Y22803201D01*
X18332439Y22803200D01*
X18332441Y22803200D01*
X18476359Y22803200D01*
X18476361Y22803200D01*
X18614453Y22843747D01*
X18735528Y22921557D01*
X18829777Y23030327D01*
X18889565Y23161243D01*
X18906071Y23276046D01*
X18910047Y23303698D01*
X18910047Y23303703D01*
X18889565Y23446157D01*
X18829777Y23577073D01*
X18735528Y23685843D01*
X18735527Y23685844D01*
X18735526Y23685845D01*
X18614457Y23763651D01*
X18614454Y23763653D01*
X18614453Y23763653D01*
X18614450Y23763654D01*
X18476364Y23804200D01*
X18476361Y23804200D01*
X18332439Y23804200D01*
X18332435Y23804200D01*
X18194349Y23763654D01*
X18194342Y23763651D01*
X18073273Y23685845D01*
X17979022Y23577072D01*
X17919234Y23446157D01*
X17898753Y23303703D01*
X17898753Y23303698D01*
X17429854Y23303698D01*
X17423965Y23344657D01*
X17364177Y23475573D01*
X17269928Y23584343D01*
X17269927Y23584344D01*
X17269926Y23584345D01*
X17148857Y23662151D01*
X17148854Y23662153D01*
X17148853Y23662153D01*
X17148850Y23662154D01*
X17010764Y23702700D01*
X17010761Y23702700D01*
X16866839Y23702700D01*
X16866835Y23702700D01*
X16804214Y23684312D01*
X16743054Y23686060D01*
X16694601Y23723422D01*
X16686270Y23738176D01*
X16625578Y23871071D01*
X16625577Y23871072D01*
X16625577Y23871073D01*
X16531328Y23979843D01*
X16531327Y23979844D01*
X16531326Y23979845D01*
X16410257Y24057651D01*
X16410254Y24057653D01*
X16410253Y24057653D01*
X16410250Y24057654D01*
X16272164Y24098200D01*
X16272161Y24098200D01*
X16128239Y24098200D01*
X16128235Y24098200D01*
X15990149Y24057654D01*
X15990142Y24057651D01*
X15869073Y23979845D01*
X15774822Y23871072D01*
X15715034Y23740157D01*
X15694553Y23597703D01*
X15694553Y23597698D01*
X14820564Y23597698D01*
X14824647Y23626098D01*
X14824647Y23626103D01*
X14804165Y23768557D01*
X14787887Y23804200D01*
X14744377Y23899473D01*
X14650128Y24008243D01*
X14650127Y24008244D01*
X14650126Y24008245D01*
X14529057Y24086051D01*
X14529054Y24086053D01*
X14529053Y24086053D01*
X14526703Y24086743D01*
X14472706Y24102598D01*
X19237653Y24102598D01*
X19258134Y23960144D01*
X19292025Y23885935D01*
X19317923Y23829227D01*
X19395102Y23740157D01*
X19412173Y23720456D01*
X19533242Y23642650D01*
X19533247Y23642647D01*
X19639703Y23611389D01*
X19671335Y23602101D01*
X19671336Y23602101D01*
X19671339Y23602100D01*
X19671341Y23602100D01*
X19815259Y23602100D01*
X19815261Y23602100D01*
X19953353Y23642647D01*
X19953356Y23642650D01*
X19953376Y23642655D01*
X20014537Y23640908D01*
X20062990Y23603545D01*
X20079260Y23561754D01*
X20099534Y23420744D01*
X20152986Y23303703D01*
X20159323Y23289827D01*
X20253572Y23181057D01*
X20253573Y23181056D01*
X20339863Y23125601D01*
X20374647Y23103247D01*
X20465815Y23076478D01*
X20512735Y23062701D01*
X20512736Y23062701D01*
X20512739Y23062700D01*
X20512741Y23062700D01*
X20656659Y23062700D01*
X20656661Y23062700D01*
X20794753Y23103247D01*
X20915828Y23181057D01*
X21010077Y23289827D01*
X21069865Y23420743D01*
X21090347Y23563200D01*
X21088352Y23577073D01*
X21070017Y23704598D01*
X24594353Y23704598D01*
X24614834Y23562144D01*
X24674622Y23431229D01*
X24674623Y23431227D01*
X24742643Y23352727D01*
X24768873Y23322456D01*
X24819642Y23289829D01*
X24889947Y23244647D01*
X24989020Y23215557D01*
X25028035Y23204101D01*
X25028036Y23204101D01*
X25028039Y23204100D01*
X25028041Y23204100D01*
X25171959Y23204100D01*
X25171961Y23204100D01*
X25310053Y23244647D01*
X25431128Y23322457D01*
X25525377Y23431227D01*
X25585165Y23562143D01*
X25596741Y23642655D01*
X25602110Y23679997D01*
X36944417Y23679997D01*
X36964698Y23474071D01*
X36964699Y23474066D01*
X37024768Y23276046D01*
X37122316Y23093548D01*
X37174200Y23030327D01*
X37253590Y22933590D01*
X37253595Y22933586D01*
X37413547Y22802317D01*
X37413548Y22802317D01*
X37413550Y22802315D01*
X37596046Y22704768D01*
X37733997Y22662922D01*
X37794065Y22644700D01*
X37794070Y22644699D01*
X37999997Y22624417D01*
X38000000Y22624417D01*
X38000003Y22624417D01*
X38205929Y22644699D01*
X38205934Y22644700D01*
X38403954Y22704768D01*
X38586450Y22802315D01*
X38746410Y22933590D01*
X38877685Y23093550D01*
X38975232Y23276046D01*
X39035300Y23474066D01*
X39035301Y23474071D01*
X39055583Y23679997D01*
X39055583Y23680004D01*
X39035301Y23885930D01*
X39035300Y23885935D01*
X39007381Y23977972D01*
X38975232Y24083954D01*
X38877685Y24266450D01*
X38862833Y24284547D01*
X38746414Y24426405D01*
X38746410Y24426410D01*
X38691922Y24471127D01*
X38586452Y24557684D01*
X38403954Y24655232D01*
X38205934Y24715301D01*
X38205929Y24715302D01*
X38000003Y24735583D01*
X37999997Y24735583D01*
X37794070Y24715302D01*
X37794065Y24715301D01*
X37596045Y24655232D01*
X37413547Y24557684D01*
X37253595Y24426415D01*
X37253585Y24426405D01*
X37122316Y24266453D01*
X37024768Y24083955D01*
X36964699Y23885935D01*
X36964698Y23885930D01*
X36944417Y23680004D01*
X36944417Y23679997D01*
X25602110Y23679997D01*
X25605647Y23704598D01*
X25605647Y23704603D01*
X25585165Y23847057D01*
X25567410Y23885935D01*
X25525377Y23977973D01*
X25431128Y24086743D01*
X25431127Y24086744D01*
X25431126Y24086745D01*
X25310057Y24164551D01*
X25310054Y24164553D01*
X25310053Y24164553D01*
X25310050Y24164554D01*
X25171964Y24205100D01*
X25171961Y24205100D01*
X25028039Y24205100D01*
X25028035Y24205100D01*
X24889949Y24164554D01*
X24889942Y24164551D01*
X24768873Y24086745D01*
X24674622Y23977972D01*
X24614834Y23847057D01*
X24594353Y23704603D01*
X24594353Y23704598D01*
X21070017Y23704598D01*
X21069865Y23705657D01*
X21024861Y23804200D01*
X21010077Y23836573D01*
X20915828Y23945343D01*
X20915827Y23945344D01*
X20915826Y23945345D01*
X20794757Y24023151D01*
X20794754Y24023153D01*
X20794753Y24023153D01*
X20788824Y24024894D01*
X20656664Y24063700D01*
X20656661Y24063700D01*
X20512739Y24063700D01*
X20512735Y24063700D01*
X20374622Y24023146D01*
X20313462Y24024894D01*
X20265009Y24062256D01*
X20248739Y24104047D01*
X20228465Y24245057D01*
X20210429Y24284550D01*
X20168677Y24375973D01*
X20074428Y24484743D01*
X20074427Y24484744D01*
X20074426Y24484745D01*
X19953357Y24562551D01*
X19953354Y24562553D01*
X19953353Y24562553D01*
X19953350Y24562554D01*
X19815264Y24603100D01*
X19815261Y24603100D01*
X19671339Y24603100D01*
X19671335Y24603100D01*
X19533249Y24562554D01*
X19533242Y24562551D01*
X19412173Y24484745D01*
X19317922Y24375972D01*
X19258134Y24245057D01*
X19237653Y24102603D01*
X19237653Y24102598D01*
X14472706Y24102598D01*
X14390964Y24126600D01*
X14390961Y24126600D01*
X14247039Y24126600D01*
X14247035Y24126600D01*
X14108949Y24086054D01*
X14108942Y24086051D01*
X13987873Y24008245D01*
X13893622Y23899472D01*
X13833834Y23768557D01*
X13813353Y23626103D01*
X13813353Y23626098D01*
X300500Y23626098D01*
X300500Y25111598D01*
X12978353Y25111598D01*
X12998834Y24969144D01*
X13051464Y24853902D01*
X13058623Y24838227D01*
X13139835Y24744503D01*
X13152873Y24729456D01*
X13273942Y24651650D01*
X13273947Y24651647D01*
X13380403Y24620389D01*
X13412035Y24611101D01*
X13412036Y24611101D01*
X13412039Y24611100D01*
X13412041Y24611100D01*
X13555959Y24611100D01*
X13555961Y24611100D01*
X13694053Y24651647D01*
X13815128Y24729457D01*
X13828161Y24744498D01*
X17187453Y24744498D01*
X17207934Y24602044D01*
X17228193Y24557684D01*
X17267723Y24471127D01*
X17306475Y24426405D01*
X17361973Y24362356D01*
X17483042Y24284550D01*
X17483047Y24284547D01*
X17589503Y24253289D01*
X17621135Y24244001D01*
X17621136Y24244001D01*
X17621139Y24244000D01*
X17621141Y24244000D01*
X17765059Y24244000D01*
X17765061Y24244000D01*
X17903153Y24284547D01*
X18024228Y24362357D01*
X18118477Y24471127D01*
X18178265Y24602043D01*
X18198747Y24744500D01*
X18188473Y24815956D01*
X18178265Y24886957D01*
X18118477Y25017872D01*
X18118477Y25017873D01*
X18024228Y25126643D01*
X18024227Y25126644D01*
X18024226Y25126645D01*
X17913043Y25198098D01*
X29488653Y25198098D01*
X29509134Y25055644D01*
X29565734Y24931709D01*
X29568923Y24924727D01*
X29643875Y24838227D01*
X29663173Y24815956D01*
X29784242Y24738150D01*
X29784247Y24738147D01*
X29862058Y24715300D01*
X29922335Y24697601D01*
X29922336Y24697601D01*
X29922339Y24697600D01*
X29922341Y24697600D01*
X30066259Y24697600D01*
X30066261Y24697600D01*
X30204353Y24738147D01*
X30325428Y24815957D01*
X30419677Y24924727D01*
X30479465Y25055643D01*
X30489673Y25126643D01*
X30499947Y25198098D01*
X30499947Y25198103D01*
X30483305Y25313850D01*
X34075526Y25313850D01*
X34096007Y25171396D01*
X34148870Y25055644D01*
X34155796Y25040479D01*
X34217608Y24969144D01*
X34250046Y24931708D01*
X34371115Y24853902D01*
X34371120Y24853899D01*
X34477576Y24822641D01*
X34509208Y24813353D01*
X34509209Y24813353D01*
X34509212Y24813352D01*
X34509214Y24813352D01*
X34653132Y24813352D01*
X34653134Y24813352D01*
X34791226Y24853899D01*
X34912301Y24931709D01*
X35006550Y25040479D01*
X35066338Y25171395D01*
X35076887Y25244768D01*
X35086820Y25313850D01*
X35086820Y25313855D01*
X35066338Y25456309D01*
X35013707Y25571553D01*
X35006550Y25587225D01*
X34912301Y25695995D01*
X34912300Y25695996D01*
X34912299Y25695997D01*
X34791230Y25773803D01*
X34791227Y25773805D01*
X34791226Y25773805D01*
X34791223Y25773806D01*
X34653137Y25814352D01*
X34653134Y25814352D01*
X34509212Y25814352D01*
X34509208Y25814352D01*
X34371122Y25773806D01*
X34371115Y25773803D01*
X34250046Y25695997D01*
X34155795Y25587224D01*
X34096007Y25456309D01*
X34075526Y25313855D01*
X34075526Y25313850D01*
X30483305Y25313850D01*
X30479465Y25340557D01*
X30419677Y25471472D01*
X30419677Y25471473D01*
X30325428Y25580243D01*
X30325427Y25580244D01*
X30325426Y25580245D01*
X30204357Y25658051D01*
X30204354Y25658053D01*
X30204353Y25658053D01*
X30204350Y25658054D01*
X30066264Y25698600D01*
X30066261Y25698600D01*
X29922339Y25698600D01*
X29922335Y25698600D01*
X29784249Y25658054D01*
X29784242Y25658051D01*
X29663173Y25580245D01*
X29568922Y25471472D01*
X29509134Y25340557D01*
X29488653Y25198103D01*
X29488653Y25198098D01*
X17913043Y25198098D01*
X17903157Y25204451D01*
X17903154Y25204453D01*
X17903153Y25204453D01*
X17903150Y25204454D01*
X17765064Y25245000D01*
X17765061Y25245000D01*
X17621139Y25245000D01*
X17621135Y25245000D01*
X17483049Y25204454D01*
X17483042Y25204451D01*
X17361973Y25126645D01*
X17267722Y25017872D01*
X17207934Y24886957D01*
X17187453Y24744503D01*
X17187453Y24744498D01*
X13828161Y24744498D01*
X13909377Y24838227D01*
X13969165Y24969143D01*
X13976171Y25017873D01*
X13989647Y25111598D01*
X13989647Y25111603D01*
X13969165Y25254057D01*
X13928858Y25342315D01*
X13909377Y25384973D01*
X13815128Y25493743D01*
X13815127Y25493744D01*
X13815126Y25493745D01*
X13694057Y25571551D01*
X13694054Y25571553D01*
X13694053Y25571553D01*
X13694050Y25571554D01*
X13555964Y25612100D01*
X13555961Y25612100D01*
X13412039Y25612100D01*
X13412035Y25612100D01*
X13273949Y25571554D01*
X13273942Y25571551D01*
X13152873Y25493745D01*
X13058622Y25384972D01*
X12998834Y25254057D01*
X12978353Y25111603D01*
X12978353Y25111598D01*
X300500Y25111598D01*
X300500Y27000000D01*
X3845073Y27000000D01*
X3864738Y26787784D01*
X3923064Y26582790D01*
X4018059Y26392013D01*
X4018068Y26391998D01*
X4087681Y26299817D01*
X4555183Y26767319D01*
X4618239Y26669202D01*
X4726900Y26575048D01*
X4768280Y26556150D01*
X4296927Y26084796D01*
X4304003Y26078347D01*
X4304005Y26078346D01*
X4485202Y25966154D01*
X4485204Y25966153D01*
X4683941Y25889162D01*
X4893437Y25850000D01*
X5106563Y25850000D01*
X5316058Y25889162D01*
X5514793Y25966153D01*
X5696001Y26078351D01*
X5703071Y26084796D01*
X5231717Y26556150D01*
X5273100Y26575048D01*
X5381761Y26669202D01*
X5444815Y26767318D01*
X5912316Y26299817D01*
X5981937Y26392008D01*
X5981942Y26392017D01*
X6005385Y26439098D01*
X14956853Y26439098D01*
X14977334Y26296644D01*
X15012335Y26220004D01*
X15037123Y26165727D01*
X15131372Y26056957D01*
X15131373Y26056956D01*
X15252442Y25979150D01*
X15252447Y25979147D01*
X15358903Y25947889D01*
X15390535Y25938601D01*
X15390536Y25938601D01*
X15390539Y25938600D01*
X15390541Y25938600D01*
X15534459Y25938600D01*
X15534461Y25938600D01*
X15672553Y25979147D01*
X15793628Y26056957D01*
X15887877Y26165727D01*
X15912662Y26219997D01*
X36944417Y26219997D01*
X36964698Y26014071D01*
X36964699Y26014066D01*
X37024768Y25816046D01*
X37122316Y25633548D01*
X37173194Y25571553D01*
X37253590Y25473590D01*
X37253595Y25473586D01*
X37413547Y25342317D01*
X37413548Y25342317D01*
X37413550Y25342315D01*
X37596046Y25244768D01*
X37728945Y25204454D01*
X37794065Y25184700D01*
X37794070Y25184699D01*
X37999997Y25164417D01*
X38000000Y25164417D01*
X38000003Y25164417D01*
X38205929Y25184699D01*
X38205934Y25184700D01*
X38403954Y25244768D01*
X38586450Y25342315D01*
X38746410Y25473590D01*
X38877685Y25633550D01*
X38975232Y25816046D01*
X39035300Y26014066D01*
X39035301Y26014071D01*
X39055583Y26219997D01*
X39055583Y26220004D01*
X39035301Y26425930D01*
X39035300Y26425935D01*
X38990067Y26575048D01*
X38975232Y26623954D01*
X38877685Y26806450D01*
X38865543Y26821245D01*
X38746414Y26966405D01*
X38746410Y26966410D01*
X38617883Y27071889D01*
X38586452Y27097684D01*
X38403954Y27195232D01*
X38205934Y27255301D01*
X38205929Y27255302D01*
X38000003Y27275583D01*
X37999997Y27275583D01*
X37794070Y27255302D01*
X37794065Y27255301D01*
X37596045Y27195232D01*
X37413547Y27097684D01*
X37253595Y26966415D01*
X37253585Y26966405D01*
X37122316Y26806453D01*
X37024768Y26623955D01*
X36964699Y26425935D01*
X36964698Y26425930D01*
X36944417Y26220004D01*
X36944417Y26219997D01*
X15912662Y26219997D01*
X15947665Y26296643D01*
X15961378Y26392017D01*
X15968147Y26439098D01*
X15968147Y26439103D01*
X15947665Y26581557D01*
X15887877Y26712472D01*
X15887877Y26712473D01*
X15793628Y26821243D01*
X15793627Y26821244D01*
X15793626Y26821245D01*
X15672557Y26899051D01*
X15672554Y26899053D01*
X15672553Y26899053D01*
X15672550Y26899054D01*
X15534464Y26939600D01*
X15534461Y26939600D01*
X15390539Y26939600D01*
X15390535Y26939600D01*
X15252449Y26899054D01*
X15252442Y26899051D01*
X15131373Y26821245D01*
X15037122Y26712472D01*
X14977334Y26581557D01*
X14956853Y26439103D01*
X14956853Y26439098D01*
X6005385Y26439098D01*
X6076935Y26582790D01*
X6135261Y26787784D01*
X6154926Y27000000D01*
X6135261Y27212217D01*
X6076935Y27417211D01*
X5981940Y27607988D01*
X5981935Y27607997D01*
X5962450Y27633798D01*
X10343653Y27633798D01*
X10364134Y27491344D01*
X10418044Y27373300D01*
X10423923Y27360427D01*
X10518172Y27251657D01*
X10518173Y27251656D01*
X10579542Y27212217D01*
X10639247Y27173847D01*
X10745703Y27142589D01*
X10777335Y27133301D01*
X10777336Y27133301D01*
X10777339Y27133300D01*
X10777341Y27133300D01*
X10921259Y27133300D01*
X10921261Y27133300D01*
X11059353Y27173847D01*
X11180428Y27251657D01*
X11274677Y27360427D01*
X11311848Y27441822D01*
X11353218Y27486896D01*
X11413185Y27499047D01*
X11455423Y27483976D01*
X11564542Y27413850D01*
X11564547Y27413847D01*
X11671003Y27382589D01*
X11702635Y27373301D01*
X11702636Y27373301D01*
X11702639Y27373300D01*
X11702641Y27373300D01*
X11846559Y27373300D01*
X11846561Y27373300D01*
X11984653Y27413847D01*
X12030324Y27443198D01*
X19772353Y27443198D01*
X19792834Y27300744D01*
X19841021Y27195232D01*
X19852623Y27169827D01*
X19884273Y27133301D01*
X19946873Y27061056D01*
X20067942Y26983250D01*
X20067947Y26983247D01*
X20174403Y26951989D01*
X20206035Y26942701D01*
X20206036Y26942701D01*
X20206039Y26942700D01*
X20206041Y26942700D01*
X20349959Y26942700D01*
X20349961Y26942700D01*
X20488053Y26983247D01*
X20609128Y27061057D01*
X20703377Y27169827D01*
X20763165Y27300743D01*
X20779427Y27413850D01*
X20783647Y27443198D01*
X20783647Y27443203D01*
X20763165Y27585657D01*
X20752964Y27607993D01*
X20703377Y27716573D01*
X20609128Y27825343D01*
X20609127Y27825344D01*
X20609126Y27825345D01*
X20488057Y27903151D01*
X20488054Y27903153D01*
X20488053Y27903153D01*
X20488050Y27903154D01*
X20349964Y27943700D01*
X20349961Y27943700D01*
X20206039Y27943700D01*
X20206035Y27943700D01*
X20067949Y27903154D01*
X20067942Y27903151D01*
X19946873Y27825345D01*
X19852622Y27716572D01*
X19792834Y27585657D01*
X19772353Y27443203D01*
X19772353Y27443198D01*
X12030324Y27443198D01*
X12105728Y27491657D01*
X12199977Y27600427D01*
X12259765Y27731343D01*
X12280247Y27873800D01*
X12280224Y27873957D01*
X12259765Y28016257D01*
X12248740Y28040398D01*
X34430653Y28040398D01*
X34451134Y27897944D01*
X34502820Y27784769D01*
X34510923Y27767027D01*
X34605112Y27658326D01*
X34605173Y27658256D01*
X34712871Y27589043D01*
X34726247Y27580447D01*
X34832703Y27549189D01*
X34864335Y27539901D01*
X34864336Y27539901D01*
X34864339Y27539900D01*
X34864341Y27539900D01*
X35008259Y27539900D01*
X35008261Y27539900D01*
X35146353Y27580447D01*
X35267428Y27658257D01*
X35330891Y27731498D01*
X36011453Y27731498D01*
X36031934Y27589044D01*
X36079918Y27483976D01*
X36091723Y27458127D01*
X36176378Y27360429D01*
X36185973Y27349356D01*
X36214850Y27330798D01*
X36307047Y27271547D01*
X36413503Y27240289D01*
X36445135Y27231001D01*
X36445136Y27231001D01*
X36445139Y27231000D01*
X36445141Y27231000D01*
X36589059Y27231000D01*
X36589061Y27231000D01*
X36727153Y27271547D01*
X36848228Y27349357D01*
X36942477Y27458127D01*
X37002265Y27589043D01*
X37021769Y27724699D01*
X37022747Y27731498D01*
X37022747Y27731503D01*
X37002265Y27873957D01*
X36987096Y27907172D01*
X36942477Y28004873D01*
X36848228Y28113643D01*
X36848227Y28113644D01*
X36848226Y28113645D01*
X36727157Y28191451D01*
X36727154Y28191453D01*
X36727153Y28191453D01*
X36727150Y28191454D01*
X36589064Y28232000D01*
X36589061Y28232000D01*
X36445139Y28232000D01*
X36445135Y28232000D01*
X36307049Y28191454D01*
X36307042Y28191451D01*
X36185973Y28113645D01*
X36091722Y28004872D01*
X36031934Y27873957D01*
X36011453Y27731503D01*
X36011453Y27731498D01*
X35330891Y27731498D01*
X35361677Y27767027D01*
X35421465Y27897943D01*
X35436839Y28004873D01*
X35441947Y28040398D01*
X35441947Y28040403D01*
X35421465Y28182857D01*
X35388086Y28255945D01*
X35361677Y28313773D01*
X35267428Y28422543D01*
X35267427Y28422544D01*
X35267426Y28422545D01*
X35146357Y28500351D01*
X35146354Y28500353D01*
X35146353Y28500353D01*
X35146350Y28500354D01*
X35008264Y28540900D01*
X35008261Y28540900D01*
X34864339Y28540900D01*
X34864335Y28540900D01*
X34726249Y28500354D01*
X34726242Y28500351D01*
X34605173Y28422545D01*
X34510922Y28313772D01*
X34451134Y28182857D01*
X34430653Y28040403D01*
X34430653Y28040398D01*
X12248740Y28040398D01*
X12237148Y28065781D01*
X12199977Y28147173D01*
X12105728Y28255943D01*
X12105727Y28255944D01*
X12105726Y28255945D01*
X11984657Y28333751D01*
X11984654Y28333753D01*
X11984653Y28333753D01*
X11984650Y28333754D01*
X11846564Y28374300D01*
X11846561Y28374300D01*
X11702639Y28374300D01*
X11702635Y28374300D01*
X11564549Y28333754D01*
X11564542Y28333751D01*
X11443473Y28255945D01*
X11349222Y28147173D01*
X11312051Y28065781D01*
X11270678Y28020704D01*
X11210711Y28008555D01*
X11168475Y28023625D01*
X11059357Y28093751D01*
X11059354Y28093753D01*
X11059353Y28093753D01*
X11050890Y28096238D01*
X10921264Y28134300D01*
X10921261Y28134300D01*
X10777339Y28134300D01*
X10777335Y28134300D01*
X10639249Y28093754D01*
X10639242Y28093751D01*
X10518173Y28015945D01*
X10423922Y27907172D01*
X10364134Y27776257D01*
X10343653Y27633803D01*
X10343653Y27633798D01*
X5962450Y27633798D01*
X5912316Y27700185D01*
X5444814Y27232684D01*
X5381761Y27330798D01*
X5273100Y27424952D01*
X5231716Y27443852D01*
X5703071Y27915206D01*
X5695996Y27921654D01*
X5514797Y28033847D01*
X5514795Y28033848D01*
X5316058Y28110839D01*
X5106563Y28150000D01*
X4893437Y28150000D01*
X4683941Y28110839D01*
X4485204Y28033848D01*
X4485202Y28033847D01*
X4304002Y27921653D01*
X4296927Y27915206D01*
X4768282Y27443851D01*
X4726900Y27424952D01*
X4618239Y27330798D01*
X4555184Y27232683D01*
X4087682Y27700185D01*
X4018062Y27607993D01*
X4018057Y27607984D01*
X3923064Y27417211D01*
X3864738Y27212217D01*
X3845073Y27000000D01*
X300500Y27000000D01*
X300500Y28499996D01*
X944919Y28499996D01*
X965190Y28294170D01*
X965191Y28294164D01*
X1025232Y28096238D01*
X1025234Y28096233D01*
X1122724Y27913840D01*
X1122731Y27913830D01*
X1158324Y27870459D01*
X1593044Y28305180D01*
X1605887Y28272459D01*
X1690465Y28166401D01*
X1802290Y28090160D01*
X1370457Y27658326D01*
X1413828Y27622732D01*
X1413834Y27622728D01*
X1596232Y27525235D01*
X1596237Y27525233D01*
X1794163Y27465192D01*
X1794169Y27465191D01*
X1999996Y27444919D01*
X2000004Y27444919D01*
X2205830Y27465191D01*
X2205836Y27465192D01*
X2403762Y27525233D01*
X2403767Y27525235D01*
X2586166Y27622730D01*
X2586177Y27622737D01*
X2629541Y27658326D01*
X2193935Y28093932D01*
X2256357Y28123993D01*
X2355798Y28216260D01*
X2407068Y28305065D01*
X2841674Y27870459D01*
X2877263Y27913823D01*
X2877270Y27913834D01*
X2974765Y28096233D01*
X2974767Y28096238D01*
X3034808Y28294164D01*
X3034809Y28294170D01*
X3055081Y28499996D01*
X3055081Y28500005D01*
X3034809Y28705831D01*
X3034808Y28705837D01*
X2991865Y28847398D01*
X19808853Y28847398D01*
X19829334Y28704944D01*
X19847001Y28666260D01*
X19889123Y28574027D01*
X19953271Y28499996D01*
X19983373Y28465256D01*
X20049833Y28422545D01*
X20104447Y28387447D01*
X20210903Y28356189D01*
X20242535Y28346901D01*
X20242536Y28346901D01*
X20242539Y28346900D01*
X20242541Y28346900D01*
X20386459Y28346900D01*
X20386461Y28346900D01*
X20524553Y28387447D01*
X20645628Y28465257D01*
X20739877Y28574027D01*
X20799665Y28704943D01*
X20806492Y28752429D01*
X20807580Y28759997D01*
X36944417Y28759997D01*
X36964698Y28554071D01*
X36964699Y28554066D01*
X37024768Y28356046D01*
X37122316Y28173548D01*
X37247752Y28020704D01*
X37253590Y28013590D01*
X37253595Y28013586D01*
X37413547Y27882317D01*
X37413548Y27882317D01*
X37413550Y27882315D01*
X37596046Y27784768D01*
X37733997Y27742922D01*
X37794065Y27724700D01*
X37794070Y27724699D01*
X37999997Y27704417D01*
X38000000Y27704417D01*
X38000003Y27704417D01*
X38205929Y27724699D01*
X38205934Y27724700D01*
X38227833Y27731343D01*
X38403954Y27784768D01*
X38586450Y27882315D01*
X38746410Y28013590D01*
X38877685Y28173550D01*
X38975232Y28356046D01*
X39035300Y28554066D01*
X39035301Y28554071D01*
X39055583Y28759997D01*
X39055583Y28760004D01*
X39035301Y28965930D01*
X39035300Y28965935D01*
X38998828Y29086166D01*
X38975232Y29163954D01*
X38877685Y29346450D01*
X38852390Y29377272D01*
X38746414Y29506405D01*
X38746410Y29506410D01*
X38711806Y29534809D01*
X38586452Y29637684D01*
X38403954Y29735232D01*
X38205934Y29795301D01*
X38205929Y29795302D01*
X38000003Y29815583D01*
X37999997Y29815583D01*
X37794070Y29795302D01*
X37794065Y29795301D01*
X37596045Y29735232D01*
X37413547Y29637684D01*
X37253595Y29506415D01*
X37253585Y29506405D01*
X37122316Y29346453D01*
X37024768Y29163955D01*
X36964699Y28965935D01*
X36964698Y28965930D01*
X36944417Y28760004D01*
X36944417Y28759997D01*
X20807580Y28759997D01*
X20820147Y28847398D01*
X20820147Y28847403D01*
X20799665Y28989857D01*
X20786380Y29018947D01*
X20739877Y29120773D01*
X20645628Y29229543D01*
X20645627Y29229544D01*
X20645626Y29229545D01*
X20524557Y29307351D01*
X20524554Y29307353D01*
X20524553Y29307353D01*
X20524550Y29307354D01*
X20386464Y29347900D01*
X20386461Y29347900D01*
X20242539Y29347900D01*
X20242535Y29347900D01*
X20104449Y29307354D01*
X20104442Y29307351D01*
X19983373Y29229545D01*
X19889122Y29120772D01*
X19829334Y28989857D01*
X19808853Y28847403D01*
X19808853Y28847398D01*
X2991865Y28847398D01*
X2974767Y28903763D01*
X2974765Y28903768D01*
X2877272Y29086166D01*
X2877268Y29086172D01*
X2841674Y29129543D01*
X2406953Y28694823D01*
X2394113Y28727541D01*
X2309535Y28833599D01*
X2197707Y28909843D01*
X2629541Y29341676D01*
X2586170Y29377269D01*
X2586160Y29377276D01*
X2403767Y29474766D01*
X2403762Y29474768D01*
X2390147Y29478898D01*
X27004653Y29478898D01*
X27025134Y29336444D01*
X27038420Y29307353D01*
X27084923Y29205527D01*
X27120946Y29163954D01*
X27179173Y29096756D01*
X27300242Y29018950D01*
X27300247Y29018947D01*
X27399320Y28989857D01*
X27438335Y28978401D01*
X27438336Y28978401D01*
X27438339Y28978400D01*
X27438341Y28978400D01*
X27582259Y28978400D01*
X27582261Y28978400D01*
X27720353Y29018947D01*
X27841428Y29096757D01*
X27935677Y29205527D01*
X27995465Y29336443D01*
X28015947Y29478900D01*
X28011992Y29506405D01*
X27995465Y29621357D01*
X27935677Y29752272D01*
X27935677Y29752273D01*
X27841428Y29861043D01*
X27841427Y29861044D01*
X27841426Y29861045D01*
X27720357Y29938851D01*
X27720354Y29938853D01*
X27720353Y29938853D01*
X27720350Y29938854D01*
X27582264Y29979400D01*
X27582261Y29979400D01*
X27438339Y29979400D01*
X27438335Y29979400D01*
X27300249Y29938854D01*
X27300242Y29938851D01*
X27179173Y29861045D01*
X27084922Y29752272D01*
X27025134Y29621357D01*
X27004653Y29478903D01*
X27004653Y29478898D01*
X2390147Y29478898D01*
X2205836Y29534809D01*
X2205830Y29534810D01*
X2000004Y29555081D01*
X1999996Y29555081D01*
X1794169Y29534810D01*
X1794163Y29534809D01*
X1596237Y29474768D01*
X1596232Y29474766D01*
X1413834Y29377272D01*
X1413824Y29377266D01*
X1370457Y29341676D01*
X1806064Y28906069D01*
X1743643Y28876007D01*
X1644202Y28783740D01*
X1592931Y28694936D01*
X1158324Y29129543D01*
X1122734Y29086176D01*
X1122728Y29086166D01*
X1025234Y28903768D01*
X1025232Y28903763D01*
X965191Y28705837D01*
X965190Y28705831D01*
X944919Y28500005D01*
X944919Y28499996D01*
X300500Y28499996D01*
X300500Y31180254D01*
X999500Y31180254D01*
X999501Y31180242D01*
X1011132Y31121773D01*
X1011134Y31121767D01*
X1049983Y31063627D01*
X1055448Y31055448D01*
X1121769Y31011133D01*
X1166231Y31002289D01*
X1180241Y30999502D01*
X1180246Y30999502D01*
X1180252Y30999500D01*
X1180253Y30999500D01*
X2819747Y30999500D01*
X2819748Y30999500D01*
X2878231Y31011133D01*
X2944552Y31055448D01*
X2961127Y31080254D01*
X3899500Y31080254D01*
X3899501Y31080242D01*
X3911132Y31021773D01*
X3911134Y31021767D01*
X3926013Y30999500D01*
X3955448Y30955448D01*
X4021769Y30911133D01*
X4066231Y30902289D01*
X4080241Y30899502D01*
X4080246Y30899502D01*
X4080252Y30899500D01*
X4080253Y30899500D01*
X5919747Y30899500D01*
X5919748Y30899500D01*
X5978231Y30911133D01*
X6044552Y30955448D01*
X6088867Y31021769D01*
X6100500Y31080252D01*
X6100500Y31336998D01*
X16226653Y31336998D01*
X16247134Y31194544D01*
X16306922Y31063629D01*
X16306923Y31063627D01*
X16400660Y30955448D01*
X16401173Y30954856D01*
X16469208Y30911133D01*
X16522247Y30877047D01*
X16607721Y30851950D01*
X16660335Y30836501D01*
X16660336Y30836501D01*
X16660339Y30836500D01*
X16660341Y30836500D01*
X16804259Y30836500D01*
X16804261Y30836500D01*
X16942353Y30877047D01*
X17063428Y30954857D01*
X17108521Y31006898D01*
X23394753Y31006898D01*
X23415234Y30864444D01*
X23439459Y30811400D01*
X23475023Y30733527D01*
X23519016Y30682756D01*
X23569273Y30624756D01*
X23680001Y30553596D01*
X23690347Y30546947D01*
X23796803Y30515689D01*
X23828435Y30506401D01*
X23828436Y30506401D01*
X23828439Y30506400D01*
X23828441Y30506400D01*
X23972359Y30506400D01*
X23972361Y30506400D01*
X24110453Y30546947D01*
X24231528Y30624757D01*
X24325777Y30733527D01*
X24385565Y30864443D01*
X24393904Y30922444D01*
X24406047Y31006898D01*
X24406047Y31006903D01*
X24397708Y31064898D01*
X25473853Y31064898D01*
X25494334Y30922444D01*
X25520823Y30864443D01*
X25554123Y30791527D01*
X25604380Y30733527D01*
X25648373Y30682756D01*
X25769442Y30604950D01*
X25769447Y30604947D01*
X25875903Y30573689D01*
X25907535Y30564401D01*
X25907536Y30564401D01*
X25907539Y30564400D01*
X25907541Y30564400D01*
X26051459Y30564400D01*
X26051461Y30564400D01*
X26189553Y30604947D01*
X26310628Y30682757D01*
X26404877Y30791527D01*
X26464665Y30922443D01*
X26477417Y31011135D01*
X26485147Y31064898D01*
X26485147Y31064903D01*
X26464665Y31207357D01*
X26416922Y31311898D01*
X34845553Y31311898D01*
X34866034Y31169444D01*
X34918095Y31055448D01*
X34925823Y31038527D01*
X34997811Y30955448D01*
X35020073Y30929756D01*
X35141142Y30851950D01*
X35141147Y30851947D01*
X35247603Y30820689D01*
X35279235Y30811401D01*
X35279236Y30811401D01*
X35279239Y30811400D01*
X35279241Y30811400D01*
X35423159Y30811400D01*
X35423161Y30811400D01*
X35561253Y30851947D01*
X35682328Y30929757D01*
X35776577Y31038527D01*
X35836365Y31169443D01*
X35855136Y31299997D01*
X36944417Y31299997D01*
X36964698Y31094071D01*
X36964699Y31094066D01*
X37024768Y30896046D01*
X37122316Y30713548D01*
X37253585Y30553596D01*
X37253590Y30553590D01*
X37253595Y30553586D01*
X37413547Y30422317D01*
X37413548Y30422317D01*
X37413550Y30422315D01*
X37596046Y30324768D01*
X37733997Y30282922D01*
X37794065Y30264700D01*
X37794070Y30264699D01*
X37999997Y30244417D01*
X38000000Y30244417D01*
X38000003Y30244417D01*
X38205929Y30264699D01*
X38205934Y30264700D01*
X38403954Y30324768D01*
X38586450Y30422315D01*
X38746410Y30553590D01*
X38877685Y30713550D01*
X38975232Y30896046D01*
X39035300Y31094066D01*
X39035301Y31094071D01*
X39055583Y31299997D01*
X39055583Y31300004D01*
X39035301Y31505930D01*
X39035300Y31505935D01*
X38978238Y31694043D01*
X38975232Y31703954D01*
X38877685Y31886450D01*
X38746410Y32046410D01*
X38683056Y32098403D01*
X38586452Y32177684D01*
X38403954Y32275232D01*
X38205934Y32335301D01*
X38205929Y32335302D01*
X38000003Y32355583D01*
X37999997Y32355583D01*
X37794070Y32335302D01*
X37794065Y32335301D01*
X37596045Y32275232D01*
X37413547Y32177684D01*
X37253595Y32046415D01*
X37253585Y32046405D01*
X37122316Y31886453D01*
X37024768Y31703955D01*
X36964699Y31505935D01*
X36964698Y31505930D01*
X36944417Y31300004D01*
X36944417Y31299997D01*
X35855136Y31299997D01*
X35856847Y31311900D01*
X35853238Y31336998D01*
X35836365Y31454357D01*
X35827734Y31473256D01*
X35776577Y31585273D01*
X35682328Y31694043D01*
X35682327Y31694044D01*
X35682326Y31694045D01*
X35561257Y31771851D01*
X35561254Y31771853D01*
X35561253Y31771853D01*
X35561250Y31771854D01*
X35423164Y31812400D01*
X35423161Y31812400D01*
X35279239Y31812400D01*
X35279235Y31812400D01*
X35141149Y31771854D01*
X35141142Y31771851D01*
X35020073Y31694045D01*
X34925822Y31585272D01*
X34866034Y31454357D01*
X34845553Y31311903D01*
X34845553Y31311898D01*
X26416922Y31311898D01*
X26404877Y31338272D01*
X26404877Y31338273D01*
X26310628Y31447043D01*
X26310627Y31447044D01*
X26310626Y31447045D01*
X26189557Y31524851D01*
X26189554Y31524853D01*
X26189553Y31524853D01*
X26189550Y31524854D01*
X26051464Y31565400D01*
X26051461Y31565400D01*
X25907539Y31565400D01*
X25907535Y31565400D01*
X25769449Y31524854D01*
X25769442Y31524851D01*
X25648373Y31447045D01*
X25554122Y31338272D01*
X25494334Y31207357D01*
X25473853Y31064903D01*
X25473853Y31064898D01*
X24397708Y31064898D01*
X24385565Y31149357D01*
X24371460Y31180242D01*
X24325777Y31280273D01*
X24231528Y31389043D01*
X24231527Y31389044D01*
X24231526Y31389045D01*
X24110457Y31466851D01*
X24110454Y31466853D01*
X24110453Y31466853D01*
X24110450Y31466854D01*
X23972364Y31507400D01*
X23972361Y31507400D01*
X23828439Y31507400D01*
X23828435Y31507400D01*
X23690349Y31466854D01*
X23690342Y31466851D01*
X23569273Y31389045D01*
X23475022Y31280272D01*
X23415234Y31149357D01*
X23394753Y31006903D01*
X23394753Y31006898D01*
X17108521Y31006898D01*
X17157677Y31063627D01*
X17217465Y31194543D01*
X17237947Y31337000D01*
X17237764Y31338272D01*
X17217465Y31479457D01*
X17196733Y31524853D01*
X17157677Y31610373D01*
X17063428Y31719143D01*
X17063427Y31719144D01*
X17063426Y31719145D01*
X16942357Y31796951D01*
X16942354Y31796953D01*
X16942353Y31796953D01*
X16942350Y31796954D01*
X16804264Y31837500D01*
X16804261Y31837500D01*
X16660339Y31837500D01*
X16660335Y31837500D01*
X16522249Y31796954D01*
X16522242Y31796951D01*
X16401173Y31719145D01*
X16306922Y31610372D01*
X16247134Y31479457D01*
X16226653Y31337003D01*
X16226653Y31336998D01*
X6100500Y31336998D01*
X6100500Y31855398D01*
X13907853Y31855398D01*
X13928334Y31712944D01*
X13986641Y31585272D01*
X13988123Y31582027D01*
X14054061Y31505930D01*
X14082373Y31473256D01*
X14203442Y31395450D01*
X14203447Y31395447D01*
X14309903Y31364189D01*
X14341535Y31354901D01*
X14341536Y31354901D01*
X14341539Y31354900D01*
X14341541Y31354900D01*
X14485459Y31354900D01*
X14485461Y31354900D01*
X14623553Y31395447D01*
X14744628Y31473257D01*
X14838877Y31582027D01*
X14898665Y31712943D01*
X14907135Y31771854D01*
X14919147Y31855398D01*
X14919147Y31855403D01*
X14898665Y31997857D01*
X14852749Y32098398D01*
X22714053Y32098398D01*
X22734534Y31955944D01*
X22780452Y31855400D01*
X22794323Y31825027D01*
X22840400Y31771851D01*
X22888573Y31716256D01*
X23009642Y31638450D01*
X23009647Y31638447D01*
X23105263Y31610372D01*
X23147735Y31597901D01*
X23147736Y31597901D01*
X23147739Y31597900D01*
X23147741Y31597900D01*
X23291659Y31597900D01*
X23291661Y31597900D01*
X23429753Y31638447D01*
X23550828Y31716257D01*
X23645077Y31825027D01*
X23704865Y31955943D01*
X23725347Y32098400D01*
X23720980Y32128772D01*
X23704865Y32240857D01*
X23661733Y32335302D01*
X23645077Y32371773D01*
X23550828Y32480543D01*
X23550827Y32480544D01*
X23550826Y32480545D01*
X23429757Y32558351D01*
X23429754Y32558353D01*
X23429753Y32558353D01*
X23429750Y32558354D01*
X23291664Y32598900D01*
X23291661Y32598900D01*
X23147739Y32598900D01*
X23147735Y32598900D01*
X23009649Y32558354D01*
X23009642Y32558351D01*
X22888573Y32480545D01*
X22794322Y32371772D01*
X22734534Y32240857D01*
X22714053Y32098403D01*
X22714053Y32098398D01*
X14852749Y32098398D01*
X14838877Y32128773D01*
X14744628Y32237543D01*
X14744627Y32237544D01*
X14744626Y32237545D01*
X14623557Y32315351D01*
X14623554Y32315353D01*
X14623553Y32315353D01*
X14623550Y32315354D01*
X14485464Y32355900D01*
X14485461Y32355900D01*
X14341539Y32355900D01*
X14341535Y32355900D01*
X14203449Y32315354D01*
X14203442Y32315351D01*
X14082373Y32237545D01*
X13988122Y32128772D01*
X13928334Y31997857D01*
X13907853Y31855403D01*
X13907853Y31855398D01*
X6100500Y31855398D01*
X6100500Y32865998D01*
X18699953Y32865998D01*
X18720434Y32723544D01*
X18752924Y32652403D01*
X18780223Y32592627D01*
X18851868Y32509944D01*
X18874473Y32483856D01*
X18995542Y32406050D01*
X18995547Y32406047D01*
X19087563Y32379029D01*
X19133635Y32365501D01*
X19133636Y32365501D01*
X19133639Y32365500D01*
X19133641Y32365500D01*
X19277559Y32365500D01*
X19277561Y32365500D01*
X19415653Y32406047D01*
X19536728Y32483857D01*
X19630977Y32592627D01*
X19658274Y32652398D01*
X26686353Y32652398D01*
X26706834Y32509944D01*
X26754282Y32406050D01*
X26766623Y32379027D01*
X26856561Y32275232D01*
X26860873Y32270256D01*
X26906619Y32240857D01*
X26981947Y32192447D01*
X27088403Y32161189D01*
X27120035Y32151901D01*
X27120036Y32151901D01*
X27120039Y32151900D01*
X27120041Y32151900D01*
X27263959Y32151900D01*
X27263961Y32151900D01*
X27402053Y32192447D01*
X27523128Y32270257D01*
X27617377Y32379027D01*
X27677165Y32509943D01*
X27697647Y32652400D01*
X27687418Y32723543D01*
X27677165Y32794857D01*
X27665798Y32819747D01*
X27617377Y32925773D01*
X27523128Y33034543D01*
X27523127Y33034544D01*
X27523126Y33034545D01*
X27402057Y33112351D01*
X27402054Y33112353D01*
X27402053Y33112353D01*
X27402050Y33112354D01*
X27263964Y33152900D01*
X27263961Y33152900D01*
X27120039Y33152900D01*
X27120035Y33152900D01*
X26981949Y33112354D01*
X26981942Y33112351D01*
X26860873Y33034545D01*
X26766622Y32925772D01*
X26706834Y32794857D01*
X26686353Y32652403D01*
X26686353Y32652398D01*
X19658274Y32652398D01*
X19690765Y32723543D01*
X19702433Y32804699D01*
X19711247Y32865998D01*
X19711247Y32866003D01*
X19690765Y33008457D01*
X19654043Y33088866D01*
X19630977Y33139373D01*
X19536728Y33248143D01*
X19536727Y33248144D01*
X19536726Y33248145D01*
X19415657Y33325951D01*
X19415654Y33325953D01*
X19415653Y33325953D01*
X19415650Y33325954D01*
X19277564Y33366500D01*
X19277561Y33366500D01*
X19133639Y33366500D01*
X19133635Y33366500D01*
X18995549Y33325954D01*
X18995542Y33325951D01*
X18874473Y33248145D01*
X18780222Y33139372D01*
X18720434Y33008457D01*
X18699953Y32866003D01*
X18699953Y32865998D01*
X6100500Y32865998D01*
X6100500Y32919748D01*
X6088867Y32978231D01*
X6044552Y33044552D01*
X6044548Y33044555D01*
X5978233Y33088866D01*
X5978231Y33088867D01*
X5978228Y33088868D01*
X5978227Y33088868D01*
X5919758Y33100499D01*
X5919748Y33100500D01*
X4080252Y33100500D01*
X4080251Y33100500D01*
X4080241Y33100499D01*
X4021772Y33088868D01*
X4021766Y33088866D01*
X3955451Y33044555D01*
X3955445Y33044549D01*
X3911134Y32978234D01*
X3911132Y32978228D01*
X3899501Y32919759D01*
X3899500Y32919747D01*
X3899500Y31080254D01*
X2961127Y31080254D01*
X2988867Y31121769D01*
X3000500Y31180252D01*
X3000500Y32819748D01*
X2988867Y32878231D01*
X2944552Y32944552D01*
X2944548Y32944555D01*
X2878233Y32988866D01*
X2878231Y32988867D01*
X2878228Y32988868D01*
X2878227Y32988868D01*
X2819758Y33000499D01*
X2819748Y33000500D01*
X1180252Y33000500D01*
X1180251Y33000500D01*
X1180241Y33000499D01*
X1121772Y32988868D01*
X1121766Y32988866D01*
X1055451Y32944555D01*
X1055445Y32944549D01*
X1011134Y32878234D01*
X1011132Y32878228D01*
X999501Y32819759D01*
X999500Y32819747D01*
X999500Y31180254D01*
X300500Y31180254D01*
X300500Y33399998D01*
X8470853Y33399998D01*
X8491334Y33257544D01*
X8539124Y33152900D01*
X8551123Y33126627D01*
X8630912Y33034545D01*
X8645373Y33017856D01*
X8766442Y32940050D01*
X8766447Y32940047D01*
X8872903Y32908789D01*
X8904535Y32899501D01*
X8904536Y32899501D01*
X8904539Y32899500D01*
X8904541Y32899500D01*
X9048459Y32899500D01*
X9048461Y32899500D01*
X9186553Y32940047D01*
X9307628Y33017857D01*
X9401877Y33126627D01*
X9461665Y33257543D01*
X9468492Y33305029D01*
X9482147Y33399998D01*
X9482147Y33400003D01*
X9461665Y33542457D01*
X9401877Y33673372D01*
X9401877Y33673373D01*
X9307628Y33782143D01*
X9307627Y33782144D01*
X9307626Y33782145D01*
X9217606Y33839997D01*
X36944417Y33839997D01*
X36964698Y33634071D01*
X36964699Y33634066D01*
X37024768Y33436046D01*
X37122316Y33253548D01*
X37126752Y33248143D01*
X37253590Y33093590D01*
X37253595Y33093586D01*
X37413547Y32962317D01*
X37413548Y32962317D01*
X37413550Y32962315D01*
X37596046Y32864768D01*
X37733997Y32822922D01*
X37794065Y32804700D01*
X37794070Y32804699D01*
X37999997Y32784417D01*
X38000000Y32784417D01*
X38000003Y32784417D01*
X38205929Y32804699D01*
X38205934Y32804700D01*
X38403954Y32864768D01*
X38586450Y32962315D01*
X38746410Y33093590D01*
X38877685Y33253550D01*
X38975232Y33436046D01*
X39035300Y33634066D01*
X39035301Y33634071D01*
X39055583Y33839997D01*
X39055583Y33840004D01*
X39035301Y34045930D01*
X39035300Y34045935D01*
X39017078Y34106003D01*
X38975232Y34243954D01*
X38877685Y34426450D01*
X38866421Y34440175D01*
X38746414Y34586405D01*
X38746410Y34586410D01*
X38746404Y34586415D01*
X38586452Y34717684D01*
X38403954Y34815232D01*
X38205934Y34875301D01*
X38205929Y34875302D01*
X38000003Y34895583D01*
X37999997Y34895583D01*
X37794070Y34875302D01*
X37794065Y34875301D01*
X37596045Y34815232D01*
X37413547Y34717684D01*
X37253595Y34586415D01*
X37253585Y34586405D01*
X37122316Y34426453D01*
X37024768Y34243955D01*
X36964699Y34045935D01*
X36964698Y34045930D01*
X36944417Y33840004D01*
X36944417Y33839997D01*
X9217606Y33839997D01*
X9186557Y33859951D01*
X9186554Y33859953D01*
X9186553Y33859953D01*
X9186550Y33859954D01*
X9048464Y33900500D01*
X9048461Y33900500D01*
X8904539Y33900500D01*
X8904535Y33900500D01*
X8766449Y33859954D01*
X8766442Y33859951D01*
X8645373Y33782145D01*
X8551122Y33673372D01*
X8491334Y33542457D01*
X8470853Y33400003D01*
X8470853Y33399998D01*
X300500Y33399998D01*
X300500Y35402398D01*
X9346753Y35402398D01*
X9367234Y35259944D01*
X9418984Y35146629D01*
X9427023Y35129027D01*
X9508403Y35035109D01*
X9521273Y35020256D01*
X9642342Y34942450D01*
X9642347Y34942447D01*
X9748803Y34911189D01*
X9780435Y34901901D01*
X9780436Y34901901D01*
X9780439Y34901900D01*
X9780441Y34901900D01*
X9924359Y34901900D01*
X9924361Y34901900D01*
X10056408Y34940672D01*
X11969353Y34940672D01*
X11989834Y34798218D01*
X12029620Y34711101D01*
X12049623Y34667301D01*
X12124191Y34581244D01*
X12143873Y34558530D01*
X12264942Y34480724D01*
X12264947Y34480721D01*
X12368454Y34450329D01*
X12403035Y34440175D01*
X12403036Y34440175D01*
X12403039Y34440174D01*
X12403041Y34440174D01*
X12546959Y34440174D01*
X12546961Y34440174D01*
X12685053Y34480721D01*
X12806128Y34558531D01*
X12900377Y34667301D01*
X12926133Y34723698D01*
X19000053Y34723698D01*
X19020534Y34581244D01*
X19053893Y34508200D01*
X19080323Y34450327D01*
X19153614Y34365744D01*
X19174573Y34341556D01*
X19295642Y34263750D01*
X19295647Y34263747D01*
X19363057Y34243954D01*
X19433735Y34223201D01*
X19433736Y34223201D01*
X19433739Y34223200D01*
X19433741Y34223200D01*
X19577659Y34223200D01*
X19577661Y34223200D01*
X19715753Y34263747D01*
X19836828Y34341557D01*
X19931077Y34450327D01*
X19957506Y34508198D01*
X26943353Y34508198D01*
X26963834Y34365744D01*
X27019454Y34243955D01*
X27023623Y34234827D01*
X27033698Y34223200D01*
X27117873Y34126056D01*
X27238942Y34048250D01*
X27238947Y34048247D01*
X27345403Y34016989D01*
X27377035Y34007701D01*
X27377036Y34007701D01*
X27377039Y34007700D01*
X27377041Y34007700D01*
X27520959Y34007700D01*
X27520961Y34007700D01*
X27659053Y34048247D01*
X27780128Y34126057D01*
X27874377Y34234827D01*
X27934165Y34365743D01*
X27942894Y34426453D01*
X27954647Y34508198D01*
X27954647Y34508203D01*
X27934165Y34650657D01*
X27900807Y34723700D01*
X27874377Y34781573D01*
X27780128Y34890343D01*
X27780127Y34890344D01*
X27780126Y34890345D01*
X27659057Y34968151D01*
X27659054Y34968153D01*
X27659053Y34968153D01*
X27659050Y34968154D01*
X27520964Y35008700D01*
X27520961Y35008700D01*
X27377039Y35008700D01*
X27377035Y35008700D01*
X27238949Y34968154D01*
X27238942Y34968151D01*
X27117873Y34890345D01*
X27023622Y34781572D01*
X26963834Y34650657D01*
X26943353Y34508203D01*
X26943353Y34508198D01*
X19957506Y34508198D01*
X19990865Y34581243D01*
X20003238Y34667301D01*
X20011347Y34723698D01*
X20011347Y34723703D01*
X19990866Y34866155D01*
X19977406Y34895628D01*
X19970432Y34956414D01*
X20000519Y35009691D01*
X20056175Y35035109D01*
X20116142Y35022958D01*
X20142279Y35001585D01*
X20148028Y34994950D01*
X20165871Y34974358D01*
X20165872Y34974357D01*
X20278617Y34901900D01*
X20286947Y34896547D01*
X20390447Y34866157D01*
X20425035Y34856001D01*
X20425036Y34856001D01*
X20425039Y34856000D01*
X20425041Y34856000D01*
X20568959Y34856000D01*
X20568961Y34856000D01*
X20707053Y34896547D01*
X20828128Y34974357D01*
X20922377Y35083127D01*
X20968078Y35183200D01*
X21009449Y35228275D01*
X21069416Y35240426D01*
X21125072Y35215008D01*
X21155159Y35161731D01*
X21156123Y35156160D01*
X21168634Y35069144D01*
X21218458Y34960047D01*
X21228423Y34938227D01*
X21299672Y34856001D01*
X21322673Y34829456D01*
X21443742Y34751650D01*
X21443747Y34751647D01*
X21538917Y34723703D01*
X21581835Y34711101D01*
X21581836Y34711101D01*
X21581839Y34711100D01*
X21581841Y34711100D01*
X21725759Y34711100D01*
X21725761Y34711100D01*
X21863853Y34751647D01*
X21984928Y34829457D01*
X22079177Y34938227D01*
X22138965Y35069143D01*
X22155123Y35181527D01*
X22159447Y35211598D01*
X22159447Y35211603D01*
X22138965Y35354057D01*
X22115074Y35406371D01*
X22092912Y35454898D01*
X22329653Y35454898D01*
X22350134Y35312444D01*
X22396189Y35211600D01*
X22409923Y35181527D01*
X22499094Y35078617D01*
X22504173Y35072756D01*
X22621939Y34997073D01*
X22625247Y34994947D01*
X22716497Y34968154D01*
X22763335Y34954401D01*
X22763336Y34954401D01*
X22763339Y34954400D01*
X22763341Y34954400D01*
X22907259Y34954400D01*
X22907261Y34954400D01*
X23045353Y34994947D01*
X23166428Y35072757D01*
X23260677Y35181527D01*
X23320465Y35312443D01*
X23333144Y35400628D01*
X23335929Y35419998D01*
X23894353Y35419998D01*
X23914834Y35277544D01*
X23962687Y35172762D01*
X23974623Y35146627D01*
X24038632Y35072756D01*
X24068873Y35037856D01*
X24177337Y34968151D01*
X24189947Y34960047D01*
X24296403Y34928789D01*
X24328035Y34919501D01*
X24328036Y34919501D01*
X24328039Y34919500D01*
X24328041Y34919500D01*
X24471959Y34919500D01*
X24471961Y34919500D01*
X24610053Y34960047D01*
X24731128Y35037857D01*
X24825182Y35146403D01*
X24877576Y35177997D01*
X24938537Y35172762D01*
X24974816Y35146404D01*
X25062603Y35045092D01*
X25068873Y35037856D01*
X25177337Y34968151D01*
X25189947Y34960047D01*
X25296403Y34928789D01*
X25328035Y34919501D01*
X25328036Y34919501D01*
X25328039Y34919500D01*
X25328041Y34919500D01*
X25471959Y34919500D01*
X25471961Y34919500D01*
X25610053Y34960047D01*
X25731128Y35037857D01*
X25825377Y35146627D01*
X25885165Y35277543D01*
X25894120Y35339826D01*
X25905647Y35419998D01*
X25905647Y35420003D01*
X25885165Y35562457D01*
X25870876Y35593745D01*
X25825377Y35693373D01*
X25731128Y35802143D01*
X25731127Y35802144D01*
X25731126Y35802145D01*
X25610057Y35879951D01*
X25610054Y35879953D01*
X25610053Y35879953D01*
X25610050Y35879954D01*
X25471964Y35920500D01*
X25471961Y35920500D01*
X25328039Y35920500D01*
X25328035Y35920500D01*
X25189949Y35879954D01*
X25189942Y35879951D01*
X25068872Y35802144D01*
X25068870Y35802142D01*
X24974819Y35693600D01*
X24922424Y35662004D01*
X24861463Y35667240D01*
X24825181Y35693600D01*
X24731129Y35802142D01*
X24731127Y35802144D01*
X24610057Y35879951D01*
X24610054Y35879953D01*
X24610053Y35879953D01*
X24610050Y35879954D01*
X24471964Y35920500D01*
X24471961Y35920500D01*
X24328039Y35920500D01*
X24328035Y35920500D01*
X24189949Y35879954D01*
X24189942Y35879951D01*
X24068873Y35802145D01*
X23974622Y35693372D01*
X23914834Y35562457D01*
X23894353Y35420003D01*
X23894353Y35419998D01*
X23335929Y35419998D01*
X23340947Y35454898D01*
X23340947Y35454903D01*
X23320465Y35597357D01*
X23305615Y35629873D01*
X23260677Y35728273D01*
X23166428Y35837043D01*
X23166427Y35837044D01*
X23166426Y35837045D01*
X23045357Y35914851D01*
X23045354Y35914853D01*
X23045353Y35914853D01*
X23045350Y35914854D01*
X22907264Y35955400D01*
X22907261Y35955400D01*
X22763339Y35955400D01*
X22763335Y35955400D01*
X22625249Y35914854D01*
X22625242Y35914851D01*
X22504173Y35837045D01*
X22409922Y35728272D01*
X22350134Y35597357D01*
X22329653Y35454903D01*
X22329653Y35454898D01*
X22092912Y35454898D01*
X22079177Y35484973D01*
X21984928Y35593743D01*
X21984927Y35593744D01*
X21984926Y35593745D01*
X21863857Y35671551D01*
X21863854Y35671553D01*
X21863853Y35671553D01*
X21863850Y35671554D01*
X21725764Y35712100D01*
X21725761Y35712100D01*
X21581839Y35712100D01*
X21581835Y35712100D01*
X21443749Y35671554D01*
X21443742Y35671551D01*
X21322673Y35593745D01*
X21228422Y35484972D01*
X21182721Y35384903D01*
X21141349Y35339826D01*
X21081382Y35327675D01*
X21025726Y35353093D01*
X20995640Y35406371D01*
X20994676Y35411942D01*
X20982166Y35498956D01*
X20922377Y35629872D01*
X20922377Y35629873D01*
X20828128Y35738643D01*
X20828127Y35738644D01*
X20828126Y35738645D01*
X20707057Y35816451D01*
X20707054Y35816453D01*
X20707053Y35816453D01*
X20707050Y35816454D01*
X20568964Y35857000D01*
X20568961Y35857000D01*
X20425039Y35857000D01*
X20425035Y35857000D01*
X20286949Y35816454D01*
X20286942Y35816451D01*
X20165873Y35738645D01*
X20071622Y35629872D01*
X20011834Y35498957D01*
X19991353Y35356503D01*
X19991353Y35356498D01*
X20011834Y35214044D01*
X20025293Y35184572D01*
X20032267Y35123785D01*
X20002179Y35070509D01*
X19946523Y35045092D01*
X19886556Y35057244D01*
X19860419Y35078617D01*
X19856510Y35083128D01*
X19836828Y35105843D01*
X19836827Y35105844D01*
X19715757Y35183651D01*
X19715754Y35183653D01*
X19715753Y35183653D01*
X19715750Y35183654D01*
X19577664Y35224200D01*
X19577661Y35224200D01*
X19433739Y35224200D01*
X19433735Y35224200D01*
X19295649Y35183654D01*
X19295642Y35183651D01*
X19174573Y35105845D01*
X19080322Y34997072D01*
X19020534Y34866157D01*
X19000053Y34723703D01*
X19000053Y34723698D01*
X12926133Y34723698D01*
X12960165Y34798217D01*
X12974164Y34895583D01*
X12980647Y34940672D01*
X12980647Y34940677D01*
X12960165Y35083131D01*
X12920473Y35170043D01*
X12900377Y35214047D01*
X12815069Y35312498D01*
X17369453Y35312498D01*
X17389934Y35170044D01*
X17436015Y35069143D01*
X17449723Y35039127D01*
X17535034Y34940672D01*
X17543973Y34930356D01*
X17643869Y34866157D01*
X17665047Y34852547D01*
X17743689Y34829456D01*
X17803135Y34812001D01*
X17803136Y34812001D01*
X17803139Y34812000D01*
X17803141Y34812000D01*
X17947059Y34812000D01*
X17947061Y34812000D01*
X18085153Y34852547D01*
X18206228Y34930357D01*
X18300477Y35039127D01*
X18360265Y35170043D01*
X18368637Y35228275D01*
X18380747Y35312498D01*
X18380747Y35312503D01*
X18360265Y35454957D01*
X18340171Y35498956D01*
X18300477Y35585873D01*
X18206228Y35694643D01*
X18206227Y35694644D01*
X18206226Y35694645D01*
X18085157Y35772451D01*
X18085154Y35772453D01*
X18085153Y35772453D01*
X18085150Y35772454D01*
X17947064Y35813000D01*
X17947061Y35813000D01*
X17803139Y35813000D01*
X17803135Y35813000D01*
X17665049Y35772454D01*
X17665042Y35772451D01*
X17543973Y35694645D01*
X17449722Y35585872D01*
X17389934Y35454957D01*
X17369453Y35312503D01*
X17369453Y35312498D01*
X12815069Y35312498D01*
X12806128Y35322817D01*
X12806127Y35322818D01*
X12806126Y35322819D01*
X12685057Y35400625D01*
X12685054Y35400627D01*
X12685053Y35400627D01*
X12685050Y35400628D01*
X12546964Y35441174D01*
X12546961Y35441174D01*
X12403039Y35441174D01*
X12403035Y35441174D01*
X12264949Y35400628D01*
X12264942Y35400625D01*
X12143873Y35322819D01*
X12049622Y35214046D01*
X11989834Y35083131D01*
X11969353Y34940677D01*
X11969353Y34940672D01*
X10056408Y34940672D01*
X10062453Y34942447D01*
X10183528Y35020257D01*
X10277777Y35129027D01*
X10337565Y35259943D01*
X10350958Y35353093D01*
X10358047Y35402398D01*
X10358047Y35402403D01*
X10337565Y35544857D01*
X10313589Y35597357D01*
X10277777Y35675773D01*
X10183528Y35784543D01*
X10183527Y35784544D01*
X10183526Y35784545D01*
X10062457Y35862351D01*
X10062454Y35862353D01*
X10062453Y35862353D01*
X10062450Y35862354D01*
X9924364Y35902900D01*
X9924361Y35902900D01*
X9780439Y35902900D01*
X9780435Y35902900D01*
X9642349Y35862354D01*
X9642342Y35862351D01*
X9521273Y35784545D01*
X9427022Y35675772D01*
X9367234Y35544857D01*
X9346753Y35402403D01*
X9346753Y35402398D01*
X300500Y35402398D01*
X300500Y37419998D01*
X8794353Y37419998D01*
X8814834Y37277544D01*
X8823904Y37257684D01*
X8874623Y37146627D01*
X8960343Y37047700D01*
X8968873Y37037856D01*
X9089942Y36960050D01*
X9089947Y36960047D01*
X9194510Y36929345D01*
X9228035Y36919501D01*
X9228036Y36919501D01*
X9228039Y36919500D01*
X9228041Y36919500D01*
X9371959Y36919500D01*
X9371961Y36919500D01*
X9510053Y36960047D01*
X9588868Y37010698D01*
X14472053Y37010698D01*
X14492534Y36868244D01*
X14523381Y36800700D01*
X14552323Y36737327D01*
X14593629Y36689657D01*
X14646573Y36628556D01*
X14712901Y36585930D01*
X14767647Y36550747D01*
X14874103Y36519489D01*
X14905735Y36510201D01*
X14905736Y36510201D01*
X14905739Y36510200D01*
X14905741Y36510200D01*
X15049659Y36510200D01*
X15049661Y36510200D01*
X15175666Y36547198D01*
X26686353Y36547198D01*
X26706834Y36404744D01*
X26718136Y36379997D01*
X26766623Y36273827D01*
X26853066Y36174066D01*
X26860873Y36165056D01*
X26981942Y36087250D01*
X26981947Y36087247D01*
X27088403Y36055989D01*
X27120035Y36046701D01*
X27120036Y36046701D01*
X27120039Y36046700D01*
X27120041Y36046700D01*
X27263959Y36046700D01*
X27263961Y36046700D01*
X27402053Y36087247D01*
X27523128Y36165057D01*
X27617377Y36273827D01*
X27665864Y36379997D01*
X36944417Y36379997D01*
X36964698Y36174071D01*
X36964699Y36174066D01*
X37024768Y35976046D01*
X37122316Y35793548D01*
X37218972Y35675772D01*
X37253590Y35633590D01*
X37282838Y35609587D01*
X37413547Y35502317D01*
X37413548Y35502317D01*
X37413550Y35502315D01*
X37596046Y35404768D01*
X37733997Y35362922D01*
X37794065Y35344700D01*
X37794070Y35344699D01*
X37999997Y35324417D01*
X38000000Y35324417D01*
X38000003Y35324417D01*
X38205929Y35344699D01*
X38205934Y35344700D01*
X38244827Y35356498D01*
X38403954Y35404768D01*
X38586450Y35502315D01*
X38746410Y35633590D01*
X38877685Y35793550D01*
X38975232Y35976046D01*
X39035300Y36174066D01*
X39035301Y36174071D01*
X39055583Y36379997D01*
X39055583Y36380004D01*
X39035301Y36585930D01*
X39035300Y36585935D01*
X38989375Y36737329D01*
X38975232Y36783954D01*
X38877685Y36966450D01*
X38844280Y37007154D01*
X38746414Y37126405D01*
X38746410Y37126410D01*
X38746404Y37126415D01*
X38586452Y37257684D01*
X38403954Y37355232D01*
X38205934Y37415301D01*
X38205929Y37415302D01*
X38000003Y37435583D01*
X37999997Y37435583D01*
X37794070Y37415302D01*
X37794065Y37415301D01*
X37596045Y37355232D01*
X37413547Y37257684D01*
X37253595Y37126415D01*
X37253585Y37126405D01*
X37122316Y36966453D01*
X37024768Y36783955D01*
X36964699Y36585935D01*
X36964698Y36585930D01*
X36944417Y36380004D01*
X36944417Y36379997D01*
X27665864Y36379997D01*
X27677165Y36404743D01*
X27692327Y36510200D01*
X27697647Y36547198D01*
X27697647Y36547203D01*
X27677165Y36689657D01*
X27617377Y36820573D01*
X27523128Y36929343D01*
X27523127Y36929344D01*
X27523126Y36929345D01*
X27402057Y37007151D01*
X27402054Y37007153D01*
X27402053Y37007153D01*
X27389980Y37010698D01*
X27263964Y37047700D01*
X27263961Y37047700D01*
X27120039Y37047700D01*
X27120035Y37047700D01*
X26981949Y37007154D01*
X26981942Y37007151D01*
X26860873Y36929345D01*
X26766622Y36820572D01*
X26706834Y36689657D01*
X26686353Y36547203D01*
X26686353Y36547198D01*
X15175666Y36547198D01*
X15187753Y36550747D01*
X15308828Y36628557D01*
X15403077Y36737327D01*
X15462865Y36868243D01*
X15483347Y37010700D01*
X15480884Y37027829D01*
X15462865Y37153157D01*
X15460313Y37158744D01*
X15403077Y37284073D01*
X15388238Y37301198D01*
X16347653Y37301198D01*
X16368134Y37158744D01*
X16382901Y37126410D01*
X16427923Y37027827D01*
X16513259Y36929343D01*
X16522173Y36919056D01*
X16601240Y36868243D01*
X16643247Y36841247D01*
X16749703Y36809989D01*
X16781335Y36800701D01*
X16781336Y36800701D01*
X16781339Y36800700D01*
X16781341Y36800700D01*
X16925259Y36800700D01*
X16925261Y36800700D01*
X17063353Y36841247D01*
X17184428Y36919057D01*
X17278677Y37027827D01*
X17338465Y37158743D01*
X17345292Y37206229D01*
X17358947Y37301198D01*
X17358947Y37301203D01*
X17338465Y37443657D01*
X17323486Y37476456D01*
X17278677Y37574573D01*
X17184428Y37683343D01*
X17184427Y37683344D01*
X17184426Y37683345D01*
X17063357Y37761151D01*
X17063354Y37761153D01*
X17063353Y37761153D01*
X17063350Y37761154D01*
X16925264Y37801700D01*
X16925261Y37801700D01*
X16781339Y37801700D01*
X16781335Y37801700D01*
X16643249Y37761154D01*
X16643242Y37761151D01*
X16522173Y37683345D01*
X16427922Y37574572D01*
X16368134Y37443657D01*
X16347653Y37301203D01*
X16347653Y37301198D01*
X15388238Y37301198D01*
X15326785Y37372119D01*
X15302969Y37428478D01*
X15316828Y37488073D01*
X15326787Y37501781D01*
X15330922Y37506554D01*
X15330928Y37506557D01*
X15425177Y37615327D01*
X15484965Y37746243D01*
X15499098Y37844543D01*
X15505447Y37888698D01*
X15505447Y37888703D01*
X15491314Y37986998D01*
X19827553Y37986998D01*
X19848034Y37844544D01*
X19906674Y37716143D01*
X19907823Y37713627D01*
X19992998Y37615329D01*
X20002073Y37604856D01*
X20122778Y37527284D01*
X20123147Y37527047D01*
X20209196Y37501781D01*
X20261235Y37486501D01*
X20261236Y37486501D01*
X20261239Y37486500D01*
X20261241Y37486500D01*
X20405159Y37486500D01*
X20405161Y37486500D01*
X20543253Y37527047D01*
X20664328Y37604857D01*
X20758577Y37713627D01*
X20818365Y37844543D01*
X20820386Y37858598D01*
X27726853Y37858598D01*
X27747334Y37716144D01*
X27807122Y37585229D01*
X27807123Y37585227D01*
X27879429Y37501781D01*
X27901373Y37476456D01*
X27996534Y37415300D01*
X28022447Y37398647D01*
X28112798Y37372118D01*
X28160535Y37358101D01*
X28160536Y37358101D01*
X28160539Y37358100D01*
X28160541Y37358100D01*
X28304459Y37358100D01*
X28304461Y37358100D01*
X28442553Y37398647D01*
X28563628Y37476457D01*
X28657877Y37585227D01*
X28717665Y37716143D01*
X28738147Y37858600D01*
X28735077Y37879951D01*
X28717665Y38001057D01*
X28657877Y38131972D01*
X28657877Y38131973D01*
X28563628Y38240743D01*
X28563627Y38240744D01*
X28563626Y38240745D01*
X28442557Y38318551D01*
X28442554Y38318553D01*
X28442553Y38318553D01*
X28442550Y38318554D01*
X28304464Y38359100D01*
X28304461Y38359100D01*
X28160539Y38359100D01*
X28160535Y38359100D01*
X28022449Y38318554D01*
X28022442Y38318551D01*
X27901373Y38240745D01*
X27807122Y38131972D01*
X27747334Y38001057D01*
X27726853Y37858603D01*
X27726853Y37858598D01*
X20820386Y37858598D01*
X20838847Y37987000D01*
X20832498Y38031157D01*
X20818365Y38129457D01*
X20803470Y38162072D01*
X20758577Y38260373D01*
X20664328Y38369143D01*
X20664327Y38369144D01*
X20664326Y38369145D01*
X20543257Y38446951D01*
X20543254Y38446953D01*
X20543253Y38446953D01*
X20543250Y38446954D01*
X20405164Y38487500D01*
X20405161Y38487500D01*
X20261239Y38487500D01*
X20261235Y38487500D01*
X20123149Y38446954D01*
X20123142Y38446951D01*
X20002073Y38369145D01*
X19907822Y38260372D01*
X19848034Y38129457D01*
X19827553Y37987003D01*
X19827553Y37986998D01*
X15491314Y37986998D01*
X15484965Y38031157D01*
X15440072Y38129457D01*
X15425177Y38162073D01*
X15415198Y38173590D01*
X15409060Y38180674D01*
X15385243Y38237034D01*
X15399102Y38296629D01*
X15419049Y38320324D01*
X15423117Y38323851D01*
X15423128Y38323857D01*
X15517377Y38432627D01*
X15577165Y38563543D01*
X15582857Y38603139D01*
X15596855Y38700489D01*
X15623851Y38755397D01*
X15677965Y38783950D01*
X15694847Y38785400D01*
X15740959Y38785400D01*
X15740961Y38785400D01*
X15879053Y38825947D01*
X16000128Y38903757D01*
X16094377Y39012527D01*
X16154165Y39143443D01*
X16174647Y39285900D01*
X16169154Y39324103D01*
X16154165Y39428357D01*
X16146726Y39444645D01*
X16094377Y39559273D01*
X16000128Y39668043D01*
X16000127Y39668044D01*
X16000126Y39668045D01*
X15879057Y39745851D01*
X15879054Y39745853D01*
X15879053Y39745853D01*
X15879050Y39745854D01*
X15740964Y39786400D01*
X15740961Y39786400D01*
X15597039Y39786400D01*
X15597035Y39786400D01*
X15458949Y39745854D01*
X15458942Y39745851D01*
X15337873Y39668045D01*
X15243622Y39559272D01*
X15183834Y39428357D01*
X15164145Y39291411D01*
X15137149Y39236503D01*
X15083035Y39207950D01*
X15066153Y39206500D01*
X15020035Y39206500D01*
X14881949Y39165954D01*
X14881942Y39165951D01*
X14760873Y39088145D01*
X14666622Y38979372D01*
X14606834Y38848457D01*
X14586353Y38706003D01*
X14586353Y38705998D01*
X14606834Y38563544D01*
X14666623Y38432627D01*
X14682739Y38414027D01*
X14706556Y38357667D01*
X14692697Y38298072D01*
X14672754Y38274381D01*
X14668675Y38270847D01*
X14574422Y38162072D01*
X14514634Y38031157D01*
X14494153Y37888703D01*
X14494153Y37888698D01*
X14514634Y37746244D01*
X14574422Y37615329D01*
X14574423Y37615327D01*
X14609737Y37574572D01*
X14650712Y37527284D01*
X14674529Y37470924D01*
X14660670Y37411329D01*
X14650712Y37397623D01*
X14552323Y37284074D01*
X14492534Y37153157D01*
X14472053Y37010703D01*
X14472053Y37010698D01*
X9588868Y37010698D01*
X9631128Y37037857D01*
X9725377Y37146627D01*
X9785165Y37277543D01*
X9798763Y37372118D01*
X9805647Y37419998D01*
X9805647Y37420003D01*
X9785165Y37562457D01*
X9761019Y37615329D01*
X9725377Y37693373D01*
X9631128Y37802143D01*
X9631127Y37802144D01*
X9631126Y37802145D01*
X9510057Y37879951D01*
X9510054Y37879953D01*
X9510053Y37879953D01*
X9510050Y37879954D01*
X9371964Y37920500D01*
X9371961Y37920500D01*
X9228039Y37920500D01*
X9228035Y37920500D01*
X9089949Y37879954D01*
X9089942Y37879951D01*
X8968873Y37802145D01*
X8874622Y37693372D01*
X8814834Y37562457D01*
X8794353Y37420003D01*
X8794353Y37419998D01*
X300500Y37419998D01*
X300500Y40405798D01*
X16937253Y40405798D01*
X16957734Y40263344D01*
X17016211Y40135300D01*
X17017523Y40132427D01*
X17084651Y40054957D01*
X17111773Y40023656D01*
X17232842Y39945850D01*
X17232847Y39945847D01*
X17339303Y39914589D01*
X17370935Y39905301D01*
X17370936Y39905301D01*
X17370939Y39905300D01*
X17370941Y39905300D01*
X17514859Y39905300D01*
X17514861Y39905300D01*
X17652953Y39945847D01*
X17774028Y40023657D01*
X17836549Y40095812D01*
X17888945Y40127408D01*
X17949906Y40122173D01*
X17996147Y40082105D01*
X18010006Y40022510D01*
X18009361Y40016893D01*
X17994353Y39912505D01*
X17994353Y39912498D01*
X18014834Y39770044D01*
X18061416Y39668045D01*
X18074623Y39639127D01*
X18143817Y39559272D01*
X18168873Y39530356D01*
X18247302Y39479953D01*
X18289947Y39452547D01*
X18372332Y39428357D01*
X18428035Y39412001D01*
X18428036Y39412001D01*
X18428039Y39412000D01*
X18428041Y39412000D01*
X18571959Y39412000D01*
X18571961Y39412000D01*
X18710053Y39452547D01*
X18831128Y39530357D01*
X18925377Y39639127D01*
X18946515Y39685414D01*
X18987886Y39730490D01*
X19047853Y39742641D01*
X19090089Y39727571D01*
X19192047Y39662047D01*
X19298503Y39630789D01*
X19330135Y39621501D01*
X19330136Y39621501D01*
X19330139Y39621500D01*
X19330141Y39621500D01*
X19474059Y39621500D01*
X19474061Y39621500D01*
X19612153Y39662047D01*
X19733228Y39739857D01*
X19827477Y39848627D01*
X19887265Y39979543D01*
X19901709Y40080004D01*
X19907747Y40121998D01*
X19907747Y40122003D01*
X19905835Y40135298D01*
X20243253Y40135298D01*
X20263734Y39992844D01*
X20323522Y39861929D01*
X20323523Y39861927D01*
X20417772Y39753157D01*
X20417773Y39753156D01*
X20538842Y39675350D01*
X20538847Y39675347D01*
X20645303Y39644089D01*
X20676935Y39634801D01*
X20676936Y39634801D01*
X20676939Y39634800D01*
X20676941Y39634800D01*
X20820859Y39634800D01*
X20820861Y39634800D01*
X20958953Y39675347D01*
X21080028Y39753157D01*
X21174277Y39861927D01*
X21234065Y39992843D01*
X21242996Y40054957D01*
X21246597Y40080002D01*
X21610816Y40080002D01*
X21631297Y39937548D01*
X21663307Y39867457D01*
X21691086Y39806631D01*
X21760233Y39726831D01*
X21785336Y39697860D01*
X21904155Y39621500D01*
X21906410Y39620051D01*
X22012866Y39588793D01*
X22044498Y39579505D01*
X22044499Y39579505D01*
X22044502Y39579504D01*
X22044504Y39579504D01*
X22168950Y39579504D01*
X22227141Y39560597D01*
X22263105Y39511097D01*
X22263105Y39449911D01*
X22243770Y39415673D01*
X22174622Y39335872D01*
X22114834Y39204957D01*
X22094353Y39062503D01*
X22094353Y39062498D01*
X22114834Y38920044D01*
X22173585Y38791400D01*
X22174623Y38789127D01*
X22246654Y38705998D01*
X22268873Y38680356D01*
X22317753Y38648943D01*
X22389947Y38602547D01*
X22496403Y38571289D01*
X22528035Y38562001D01*
X22528036Y38562001D01*
X22528039Y38562000D01*
X22528041Y38562000D01*
X22671959Y38562000D01*
X22671961Y38562000D01*
X22810053Y38602547D01*
X22931128Y38680357D01*
X22964383Y38718737D01*
X23016778Y38750333D01*
X23077739Y38745098D01*
X23123981Y38705031D01*
X23137195Y38667995D01*
X23139934Y38648944D01*
X23180533Y38560047D01*
X23199723Y38518027D01*
X23273722Y38432627D01*
X23293973Y38409256D01*
X23415042Y38331450D01*
X23415047Y38331447D01*
X23521503Y38300189D01*
X23553135Y38290901D01*
X23553136Y38290901D01*
X23553139Y38290900D01*
X23553141Y38290900D01*
X23697059Y38290900D01*
X23697061Y38290900D01*
X23835153Y38331447D01*
X23956228Y38409257D01*
X24050477Y38518027D01*
X24110265Y38648943D01*
X24129676Y38783950D01*
X24130747Y38791398D01*
X24130747Y38791403D01*
X24110265Y38933857D01*
X24070925Y39019998D01*
X26494353Y39019998D01*
X26514834Y38877544D01*
X26574622Y38746629D01*
X26574623Y38746627D01*
X26659265Y38648944D01*
X26668873Y38637856D01*
X26786908Y38562000D01*
X26789947Y38560047D01*
X26896403Y38528789D01*
X26928035Y38519501D01*
X26928036Y38519501D01*
X26928039Y38519500D01*
X26928041Y38519500D01*
X27071959Y38519500D01*
X27071961Y38519500D01*
X27210053Y38560047D01*
X27331128Y38637857D01*
X27425377Y38746627D01*
X27485165Y38877543D01*
X27491269Y38919997D01*
X36944417Y38919997D01*
X36964698Y38714071D01*
X36964699Y38714066D01*
X37024768Y38516046D01*
X37122316Y38333548D01*
X37198479Y38240743D01*
X37253590Y38173590D01*
X37253595Y38173586D01*
X37413547Y38042317D01*
X37413548Y38042317D01*
X37413550Y38042315D01*
X37596046Y37944768D01*
X37733997Y37902922D01*
X37794065Y37884700D01*
X37794070Y37884699D01*
X37999997Y37864417D01*
X38000000Y37864417D01*
X38000003Y37864417D01*
X38205929Y37884699D01*
X38205934Y37884700D01*
X38219130Y37888703D01*
X38403954Y37944768D01*
X38586450Y38042315D01*
X38746410Y38173590D01*
X38877685Y38333550D01*
X38975232Y38516046D01*
X39035300Y38714066D01*
X39035301Y38714071D01*
X39055583Y38919997D01*
X39055583Y38920004D01*
X39035301Y39125930D01*
X39035300Y39125935D01*
X39010421Y39207950D01*
X38975232Y39323954D01*
X38877685Y39506450D01*
X38873871Y39511097D01*
X38746414Y39666405D01*
X38746410Y39666410D01*
X38675020Y39724998D01*
X38586452Y39797684D01*
X38403954Y39895232D01*
X38205934Y39955301D01*
X38205929Y39955302D01*
X38000003Y39975583D01*
X37999997Y39975583D01*
X37794070Y39955302D01*
X37794065Y39955301D01*
X37596045Y39895232D01*
X37413547Y39797684D01*
X37253595Y39666415D01*
X37253585Y39666405D01*
X37122316Y39506453D01*
X37024768Y39323955D01*
X36964699Y39125935D01*
X36964698Y39125930D01*
X36944417Y38920004D01*
X36944417Y38919997D01*
X27491269Y38919997D01*
X27505647Y39020000D01*
X27499536Y39062500D01*
X27485165Y39162457D01*
X27444320Y39251894D01*
X27425377Y39293373D01*
X27331128Y39402143D01*
X27331127Y39402144D01*
X27331126Y39402145D01*
X27210057Y39479951D01*
X27210054Y39479953D01*
X27210053Y39479953D01*
X27210050Y39479954D01*
X27071964Y39520500D01*
X27071961Y39520500D01*
X26928039Y39520500D01*
X26928035Y39520500D01*
X26789949Y39479954D01*
X26789942Y39479951D01*
X26668873Y39402145D01*
X26574622Y39293372D01*
X26514834Y39162457D01*
X26494353Y39020003D01*
X26494353Y39019998D01*
X24070925Y39019998D01*
X24070923Y39020003D01*
X24050477Y39064773D01*
X23988812Y39135939D01*
X23964994Y39192298D01*
X23978853Y39251894D01*
X24010107Y39284054D01*
X24101608Y39342857D01*
X24195857Y39451627D01*
X24255645Y39582543D01*
X24267076Y39662050D01*
X24276127Y39724998D01*
X24276127Y39725003D01*
X24255645Y39867457D01*
X24235072Y39912505D01*
X24195857Y39998373D01*
X24101608Y40107143D01*
X24101607Y40107144D01*
X24101606Y40107145D01*
X23980537Y40184951D01*
X23980534Y40184953D01*
X23980533Y40184953D01*
X23977400Y40185873D01*
X23842444Y40225500D01*
X23842441Y40225500D01*
X23698519Y40225500D01*
X23698515Y40225500D01*
X23560429Y40184954D01*
X23560422Y40184951D01*
X23439353Y40107145D01*
X23345102Y39998372D01*
X23285314Y39867457D01*
X23264833Y39725003D01*
X23264833Y39724998D01*
X23285314Y39582544D01*
X23345103Y39451627D01*
X23406767Y39380462D01*
X23430585Y39324103D01*
X23416726Y39264507D01*
X23385472Y39232347D01*
X23293971Y39173543D01*
X23260715Y39135163D01*
X23208318Y39103568D01*
X23147357Y39108804D01*
X23101117Y39148872D01*
X23087904Y39185906D01*
X23085165Y39204957D01*
X23025377Y39335873D01*
X22931128Y39444643D01*
X22931127Y39444644D01*
X22931126Y39444645D01*
X22810057Y39522451D01*
X22810054Y39522453D01*
X22810053Y39522453D01*
X22783138Y39530356D01*
X22671964Y39563000D01*
X22671961Y39563000D01*
X22547513Y39563000D01*
X22489322Y39581907D01*
X22453358Y39631407D01*
X22453358Y39692593D01*
X22472693Y39726831D01*
X22541840Y39806631D01*
X22601628Y39937547D01*
X22613844Y40022510D01*
X22622110Y40080002D01*
X22622110Y40080007D01*
X22601628Y40222461D01*
X22587863Y40252601D01*
X22541840Y40353377D01*
X22447591Y40462147D01*
X22447590Y40462148D01*
X22447589Y40462149D01*
X22326520Y40539955D01*
X22326517Y40539957D01*
X22326516Y40539957D01*
X22326513Y40539958D01*
X22188427Y40580504D01*
X22188424Y40580504D01*
X22044502Y40580504D01*
X22044498Y40580504D01*
X21906412Y40539958D01*
X21906405Y40539955D01*
X21785336Y40462149D01*
X21691085Y40353376D01*
X21631297Y40222461D01*
X21610816Y40080007D01*
X21610816Y40080002D01*
X21246597Y40080002D01*
X21254547Y40135298D01*
X21254547Y40135303D01*
X21234065Y40277757D01*
X21227624Y40291861D01*
X21174277Y40408673D01*
X21080028Y40517443D01*
X21080027Y40517444D01*
X21080026Y40517445D01*
X20958957Y40595251D01*
X20958954Y40595253D01*
X20958953Y40595253D01*
X20958950Y40595254D01*
X20820864Y40635800D01*
X20820861Y40635800D01*
X20676939Y40635800D01*
X20676935Y40635800D01*
X20538849Y40595254D01*
X20538842Y40595251D01*
X20417773Y40517445D01*
X20323522Y40408672D01*
X20263734Y40277757D01*
X20243253Y40135303D01*
X20243253Y40135298D01*
X19905835Y40135298D01*
X19887265Y40264457D01*
X19874750Y40291861D01*
X19827477Y40395373D01*
X19733228Y40504143D01*
X19733227Y40504144D01*
X19733226Y40504145D01*
X19612157Y40581951D01*
X19612154Y40581953D01*
X19612153Y40581953D01*
X19612150Y40581954D01*
X19474064Y40622500D01*
X19474061Y40622500D01*
X19330139Y40622500D01*
X19330135Y40622500D01*
X19192049Y40581954D01*
X19192042Y40581951D01*
X19070973Y40504145D01*
X18976722Y40395373D01*
X18955584Y40349087D01*
X18914211Y40304010D01*
X18854244Y40291861D01*
X18812008Y40306931D01*
X18710057Y40372451D01*
X18710054Y40372453D01*
X18710053Y40372453D01*
X18710050Y40372454D01*
X18571964Y40413000D01*
X18571961Y40413000D01*
X18428039Y40413000D01*
X18428035Y40413000D01*
X18289949Y40372454D01*
X18289942Y40372451D01*
X18168872Y40294644D01*
X18106349Y40222488D01*
X18053953Y40190893D01*
X17992992Y40196129D01*
X17946751Y40236197D01*
X17932893Y40295792D01*
X17933538Y40301409D01*
X17948547Y40405798D01*
X17948547Y40405803D01*
X17928065Y40548257D01*
X17868277Y40679172D01*
X17868277Y40679173D01*
X17804221Y40753098D01*
X28159953Y40753098D01*
X28180434Y40610644D01*
X28229072Y40504143D01*
X28240223Y40479727D01*
X28334472Y40370957D01*
X28334473Y40370956D01*
X28453219Y40294643D01*
X28455547Y40293147D01*
X28553257Y40264457D01*
X28593635Y40252601D01*
X28593636Y40252601D01*
X28593639Y40252600D01*
X28593641Y40252600D01*
X28737559Y40252600D01*
X28737561Y40252600D01*
X28875653Y40293147D01*
X28996728Y40370957D01*
X29090977Y40479727D01*
X29150765Y40610643D01*
X29165566Y40713586D01*
X29171247Y40753098D01*
X29171247Y40753103D01*
X29150765Y40895557D01*
X29108359Y40988412D01*
X29090977Y41026473D01*
X28996728Y41135243D01*
X28996727Y41135244D01*
X28996726Y41135245D01*
X28875657Y41213051D01*
X28875654Y41213053D01*
X28875653Y41213053D01*
X28875650Y41213054D01*
X28737564Y41253600D01*
X28737561Y41253600D01*
X28593639Y41253600D01*
X28593635Y41253600D01*
X28455549Y41213054D01*
X28455542Y41213051D01*
X28334473Y41135245D01*
X28240222Y41026472D01*
X28180434Y40895557D01*
X28159953Y40753103D01*
X28159953Y40753098D01*
X17804221Y40753098D01*
X17774028Y40787943D01*
X17774027Y40787944D01*
X17774026Y40787945D01*
X17652957Y40865751D01*
X17652954Y40865753D01*
X17652953Y40865753D01*
X17652950Y40865754D01*
X17514864Y40906300D01*
X17514861Y40906300D01*
X17370939Y40906300D01*
X17370935Y40906300D01*
X17232849Y40865754D01*
X17232842Y40865751D01*
X17111773Y40787945D01*
X17017522Y40679172D01*
X16957734Y40548257D01*
X16937253Y40405803D01*
X16937253Y40405798D01*
X300500Y40405798D01*
X300500Y41377398D01*
X21123853Y41377398D01*
X21144334Y41234944D01*
X21189866Y41135245D01*
X21204123Y41104027D01*
X21298372Y40995257D01*
X21298373Y40995256D01*
X21309021Y40988413D01*
X21419447Y40917447D01*
X21525903Y40886189D01*
X21557535Y40876901D01*
X21557536Y40876901D01*
X21557539Y40876900D01*
X21557541Y40876900D01*
X21701459Y40876900D01*
X21701461Y40876900D01*
X21839553Y40917447D01*
X21960628Y40995257D01*
X22054877Y41104027D01*
X22114665Y41234943D01*
X22134163Y41370556D01*
X22135147Y41377398D01*
X22135147Y41377403D01*
X22114665Y41519857D01*
X22058003Y41643928D01*
X22054877Y41650773D01*
X22021330Y41689488D01*
X21997514Y41745847D01*
X22011373Y41805442D01*
X22021327Y41819143D01*
X22091388Y41899998D01*
X23281853Y41899998D01*
X23302334Y41757544D01*
X23351096Y41650773D01*
X23362123Y41626627D01*
X23418642Y41561400D01*
X23456373Y41517856D01*
X23463909Y41513013D01*
X23577447Y41440047D01*
X23683903Y41408789D01*
X23715535Y41399501D01*
X23715536Y41399501D01*
X23715539Y41399500D01*
X23715541Y41399500D01*
X23859459Y41399500D01*
X23859461Y41399500D01*
X23997553Y41440047D01*
X24118628Y41517857D01*
X24156356Y41561398D01*
X24596453Y41561398D01*
X24616934Y41418944D01*
X24676722Y41288029D01*
X24676723Y41288027D01*
X24741687Y41213054D01*
X24770973Y41179256D01*
X24839456Y41135245D01*
X24892047Y41101447D01*
X24998503Y41070189D01*
X25030135Y41060901D01*
X25030136Y41060901D01*
X25030139Y41060900D01*
X25030141Y41060900D01*
X25174059Y41060900D01*
X25174061Y41060900D01*
X25312153Y41101447D01*
X25433228Y41179257D01*
X25527477Y41288027D01*
X25565166Y41370554D01*
X27088467Y41370554D01*
X27108948Y41228100D01*
X27165611Y41104027D01*
X27168737Y41097183D01*
X27230007Y41026473D01*
X27262987Y40988412D01*
X27384056Y40910606D01*
X27384061Y40910603D01*
X27490517Y40879345D01*
X27522149Y40870057D01*
X27522150Y40870057D01*
X27522153Y40870056D01*
X27522155Y40870056D01*
X27666073Y40870056D01*
X27666075Y40870056D01*
X27804167Y40910603D01*
X27925242Y40988413D01*
X28019491Y41097183D01*
X28079279Y41228099D01*
X28099761Y41370556D01*
X28098777Y41377398D01*
X28086901Y41459997D01*
X36944417Y41459997D01*
X36964698Y41254071D01*
X36964699Y41254066D01*
X37024768Y41056046D01*
X37122316Y40873548D01*
X37221165Y40753100D01*
X37253590Y40713590D01*
X37253595Y40713586D01*
X37413547Y40582317D01*
X37413548Y40582317D01*
X37413550Y40582315D01*
X37596046Y40484768D01*
X37733997Y40442922D01*
X37794065Y40424700D01*
X37794070Y40424699D01*
X37999997Y40404417D01*
X38000000Y40404417D01*
X38000003Y40404417D01*
X38205929Y40424699D01*
X38205934Y40424700D01*
X38403954Y40484768D01*
X38586450Y40582315D01*
X38746410Y40713590D01*
X38877685Y40873550D01*
X38975232Y41056046D01*
X39035300Y41254066D01*
X39035301Y41254071D01*
X39055583Y41459997D01*
X39055583Y41460004D01*
X39035301Y41665930D01*
X39035300Y41665935D01*
X39009951Y41749500D01*
X38975232Y41863954D01*
X38877685Y42046450D01*
X38874818Y42049943D01*
X38746414Y42206405D01*
X38746410Y42206410D01*
X38693295Y42250000D01*
X38586452Y42337684D01*
X38403954Y42435232D01*
X38205934Y42495301D01*
X38205929Y42495302D01*
X38000003Y42515583D01*
X37999997Y42515583D01*
X37794070Y42495302D01*
X37794065Y42495301D01*
X37596045Y42435232D01*
X37413547Y42337684D01*
X37253595Y42206415D01*
X37253585Y42206405D01*
X37122316Y42046453D01*
X37024768Y41863955D01*
X36964699Y41665935D01*
X36964698Y41665930D01*
X36944417Y41460004D01*
X36944417Y41459997D01*
X28086901Y41459997D01*
X28079279Y41513013D01*
X28057180Y41561403D01*
X28019491Y41643929D01*
X27925242Y41752699D01*
X27925241Y41752700D01*
X27925240Y41752701D01*
X27804171Y41830507D01*
X27804168Y41830509D01*
X27804167Y41830509D01*
X27804164Y41830510D01*
X27666078Y41871056D01*
X27666075Y41871056D01*
X27522153Y41871056D01*
X27522149Y41871056D01*
X27384063Y41830510D01*
X27384056Y41830507D01*
X27262987Y41752701D01*
X27168736Y41643928D01*
X27108948Y41513013D01*
X27088467Y41370559D01*
X27088467Y41370554D01*
X25565166Y41370554D01*
X25587265Y41418943D01*
X25600790Y41513013D01*
X25607747Y41561398D01*
X25607747Y41561403D01*
X25587265Y41703857D01*
X25527477Y41834773D01*
X25433228Y41943543D01*
X25433227Y41943544D01*
X25433226Y41943545D01*
X25312157Y42021351D01*
X25312154Y42021353D01*
X25312153Y42021353D01*
X25312150Y42021354D01*
X25174064Y42061900D01*
X25174061Y42061900D01*
X25030139Y42061900D01*
X25030135Y42061900D01*
X24892049Y42021354D01*
X24892042Y42021351D01*
X24770973Y41943545D01*
X24676722Y41834772D01*
X24616934Y41703857D01*
X24596453Y41561403D01*
X24596453Y41561398D01*
X24156356Y41561398D01*
X24212877Y41626627D01*
X24272665Y41757543D01*
X24284528Y41840050D01*
X24293147Y41899998D01*
X24293147Y41900003D01*
X24272665Y42042457D01*
X24212877Y42173372D01*
X24212877Y42173373D01*
X24118628Y42282143D01*
X24118627Y42282144D01*
X24118626Y42282145D01*
X23997557Y42359951D01*
X23997554Y42359953D01*
X23997553Y42359953D01*
X23997550Y42359954D01*
X23859464Y42400500D01*
X23859461Y42400500D01*
X23715539Y42400500D01*
X23715535Y42400500D01*
X23577449Y42359954D01*
X23577442Y42359951D01*
X23456373Y42282145D01*
X23362122Y42173372D01*
X23302334Y42042457D01*
X23281853Y41900003D01*
X23281853Y41899998D01*
X22091388Y41899998D01*
X22107877Y41919027D01*
X22167665Y42049943D01*
X22175947Y42107544D01*
X22188147Y42192398D01*
X22188147Y42192403D01*
X22167665Y42334857D01*
X22156203Y42359954D01*
X22107877Y42465773D01*
X22013628Y42574543D01*
X22013627Y42574544D01*
X22013626Y42574545D01*
X21892557Y42652351D01*
X21892554Y42652353D01*
X21892553Y42652353D01*
X21892550Y42652354D01*
X21754464Y42692900D01*
X21754461Y42692900D01*
X21610539Y42692900D01*
X21610535Y42692900D01*
X21472449Y42652354D01*
X21472442Y42652351D01*
X21351373Y42574545D01*
X21257122Y42465772D01*
X21197334Y42334857D01*
X21176853Y42192403D01*
X21176853Y42192398D01*
X21197334Y42049944D01*
X21245926Y41943545D01*
X21257123Y41919027D01*
X21273610Y41900000D01*
X21290668Y41880314D01*
X21314485Y41823954D01*
X21300626Y41764359D01*
X21290668Y41750652D01*
X21204122Y41650772D01*
X21144334Y41519857D01*
X21123853Y41377403D01*
X21123853Y41377398D01*
X300500Y41377398D01*
X300500Y42249998D01*
X14394353Y42249998D01*
X14414834Y42107544D01*
X14454197Y42021353D01*
X14474623Y41976627D01*
X14525548Y41917856D01*
X14568873Y41867856D01*
X14689942Y41790050D01*
X14689947Y41790047D01*
X14793835Y41759543D01*
X14828035Y41749501D01*
X14828036Y41749501D01*
X14828039Y41749500D01*
X14828041Y41749500D01*
X14971959Y41749500D01*
X14971961Y41749500D01*
X15110053Y41790047D01*
X15231128Y41867857D01*
X15325377Y41976627D01*
X15385165Y42107543D01*
X15397365Y42192398D01*
X15405647Y42249998D01*
X15405647Y42250003D01*
X15398459Y42299998D01*
X16406853Y42299998D01*
X16427334Y42157544D01*
X16487122Y42026629D01*
X16487123Y42026627D01*
X16580358Y41919027D01*
X16581373Y41917856D01*
X16702442Y41840050D01*
X16702447Y41840047D01*
X16803904Y41810257D01*
X16840535Y41799501D01*
X16840536Y41799501D01*
X16840539Y41799500D01*
X16840541Y41799500D01*
X16984459Y41799500D01*
X16984461Y41799500D01*
X17122553Y41840047D01*
X17243628Y41917857D01*
X17337877Y42026627D01*
X17397665Y42157543D01*
X17418147Y42300000D01*
X17413135Y42334857D01*
X17397665Y42442457D01*
X17337877Y42573372D01*
X17337877Y42573373D01*
X17243628Y42682143D01*
X17243627Y42682144D01*
X17243626Y42682145D01*
X17122557Y42759951D01*
X17122554Y42759953D01*
X17122553Y42759953D01*
X17122550Y42759954D01*
X16984464Y42800500D01*
X16984461Y42800500D01*
X16840539Y42800500D01*
X16840535Y42800500D01*
X16702449Y42759954D01*
X16702442Y42759951D01*
X16581373Y42682145D01*
X16487122Y42573372D01*
X16427334Y42442457D01*
X16406853Y42300003D01*
X16406853Y42299998D01*
X15398459Y42299998D01*
X15385165Y42392457D01*
X15365630Y42435232D01*
X15325377Y42523373D01*
X15231128Y42632143D01*
X15231127Y42632144D01*
X15231126Y42632145D01*
X15110057Y42709951D01*
X15110054Y42709953D01*
X15110053Y42709953D01*
X15110050Y42709954D01*
X14971964Y42750500D01*
X14971961Y42750500D01*
X14828039Y42750500D01*
X14828035Y42750500D01*
X14689949Y42709954D01*
X14689942Y42709951D01*
X14568873Y42632145D01*
X14474622Y42523372D01*
X14414834Y42392457D01*
X14394353Y42250003D01*
X14394353Y42249998D01*
X300500Y42249998D01*
X300500Y44000000D01*
X3845073Y44000000D01*
X3864738Y43787784D01*
X3923064Y43582790D01*
X4018059Y43392013D01*
X4018068Y43391998D01*
X4087681Y43299817D01*
X4555183Y43767319D01*
X4618239Y43669202D01*
X4726900Y43575048D01*
X4768280Y43556150D01*
X4296927Y43084796D01*
X4304003Y43078347D01*
X4304005Y43078346D01*
X4485202Y42966154D01*
X4485204Y42966153D01*
X4683941Y42889162D01*
X4893437Y42850000D01*
X5106563Y42850000D01*
X5316058Y42889162D01*
X5514793Y42966153D01*
X5696001Y43078351D01*
X5703071Y43084796D01*
X5231717Y43556150D01*
X5273100Y43575048D01*
X5381761Y43669202D01*
X5444815Y43767318D01*
X5912316Y43299817D01*
X5981937Y43392008D01*
X5981942Y43392017D01*
X6026946Y43482398D01*
X21227653Y43482398D01*
X21248134Y43339944D01*
X21307922Y43209029D01*
X21307923Y43209027D01*
X21376190Y43130242D01*
X21402173Y43100256D01*
X21523242Y43022450D01*
X21523247Y43022447D01*
X21629703Y42991189D01*
X21661335Y42981901D01*
X21661336Y42981901D01*
X21661339Y42981900D01*
X21661341Y42981900D01*
X21805259Y42981900D01*
X21805261Y42981900D01*
X21943353Y43022447D01*
X22064428Y43100257D01*
X22158677Y43209027D01*
X22218465Y43339943D01*
X22238947Y43482400D01*
X22236790Y43497400D01*
X22218465Y43624857D01*
X22198213Y43669202D01*
X22158677Y43755773D01*
X22064428Y43864543D01*
X22064427Y43864544D01*
X22064426Y43864545D01*
X21943357Y43942351D01*
X21943354Y43942353D01*
X21943353Y43942353D01*
X21943350Y43942354D01*
X21805264Y43982900D01*
X21805261Y43982900D01*
X21661339Y43982900D01*
X21661335Y43982900D01*
X21523249Y43942354D01*
X21523242Y43942351D01*
X21402173Y43864545D01*
X21307922Y43755772D01*
X21248134Y43624857D01*
X21227653Y43482403D01*
X21227653Y43482398D01*
X6026946Y43482398D01*
X6076935Y43582790D01*
X6135261Y43787784D01*
X6154926Y44000000D01*
X6135261Y44212217D01*
X6110342Y44299798D01*
X9224653Y44299798D01*
X9245134Y44157344D01*
X9269242Y44104556D01*
X9304923Y44026427D01*
X9377772Y43942354D01*
X9399173Y43917656D01*
X9495979Y43855443D01*
X9520247Y43839847D01*
X9626703Y43808589D01*
X9658335Y43799301D01*
X9658336Y43799301D01*
X9658339Y43799300D01*
X9658341Y43799300D01*
X9802259Y43799300D01*
X9802261Y43799300D01*
X9940353Y43839847D01*
X10061428Y43917657D01*
X10155677Y44026427D01*
X10215465Y44157343D01*
X10223514Y44213327D01*
X10235947Y44299798D01*
X10235947Y44299803D01*
X10215465Y44442257D01*
X10195169Y44486698D01*
X14433753Y44486698D01*
X14454234Y44344244D01*
X14487560Y44271272D01*
X14514023Y44213327D01*
X14606414Y44106701D01*
X14608273Y44104556D01*
X14729342Y44026750D01*
X14729347Y44026747D01*
X14820437Y44000001D01*
X14867435Y43986201D01*
X14867436Y43986201D01*
X14867439Y43986200D01*
X14867441Y43986200D01*
X15011359Y43986200D01*
X15011361Y43986200D01*
X15051201Y43997898D01*
X25691553Y43997898D01*
X25712034Y43855444D01*
X25724352Y43828472D01*
X25771823Y43724527D01*
X25819762Y43669202D01*
X25866073Y43615756D01*
X25960456Y43555100D01*
X25987147Y43537947D01*
X26093603Y43506689D01*
X26125235Y43497401D01*
X26125236Y43497401D01*
X26125239Y43497400D01*
X26125241Y43497400D01*
X26269159Y43497400D01*
X26269161Y43497400D01*
X26407253Y43537947D01*
X26433941Y43555098D01*
X32176953Y43555098D01*
X32197434Y43412644D01*
X32206863Y43391998D01*
X32257223Y43281727D01*
X32351472Y43172957D01*
X32351473Y43172956D01*
X32464597Y43100256D01*
X32472547Y43095147D01*
X32552173Y43071767D01*
X32610635Y43054601D01*
X32610636Y43054601D01*
X32610639Y43054600D01*
X32610641Y43054600D01*
X32754559Y43054600D01*
X32754561Y43054600D01*
X32892653Y43095147D01*
X32947281Y43130254D01*
X36949500Y43130254D01*
X36949501Y43130242D01*
X36961132Y43071773D01*
X36961133Y43071769D01*
X37005448Y43005448D01*
X37071769Y42961133D01*
X37116231Y42952289D01*
X37130241Y42949502D01*
X37130246Y42949502D01*
X37130252Y42949500D01*
X37130253Y42949500D01*
X38869747Y42949500D01*
X38869748Y42949500D01*
X38928231Y42961133D01*
X38994552Y43005448D01*
X39038867Y43071769D01*
X39050500Y43130252D01*
X39050500Y44869748D01*
X39038867Y44928231D01*
X38994552Y44994552D01*
X38935744Y45033847D01*
X38928233Y45038866D01*
X38928231Y45038867D01*
X38928228Y45038868D01*
X38928227Y45038868D01*
X38869758Y45050499D01*
X38869748Y45050500D01*
X37130252Y45050500D01*
X37130251Y45050500D01*
X37130241Y45050499D01*
X37071772Y45038868D01*
X37071766Y45038866D01*
X37005451Y44994555D01*
X37005445Y44994549D01*
X36961134Y44928234D01*
X36961132Y44928228D01*
X36949501Y44869759D01*
X36949500Y44869747D01*
X36949500Y43130254D01*
X32947281Y43130254D01*
X33013728Y43172957D01*
X33107977Y43281727D01*
X33167765Y43412643D01*
X33188247Y43555100D01*
X33167765Y43697557D01*
X33107977Y43828473D01*
X33013728Y43937243D01*
X33013727Y43937244D01*
X33013726Y43937245D01*
X32892657Y44015051D01*
X32892654Y44015053D01*
X32892653Y44015053D01*
X32892650Y44015054D01*
X32754564Y44055600D01*
X32754561Y44055600D01*
X32610639Y44055600D01*
X32610635Y44055600D01*
X32472549Y44015054D01*
X32472542Y44015051D01*
X32351473Y43937245D01*
X32257222Y43828472D01*
X32197434Y43697557D01*
X32176953Y43555103D01*
X32176953Y43555098D01*
X26433941Y43555098D01*
X26528328Y43615757D01*
X26622577Y43724527D01*
X26682365Y43855443D01*
X26694861Y43942354D01*
X26702847Y43997898D01*
X26702847Y43997903D01*
X26682365Y44140357D01*
X26622577Y44271272D01*
X26622577Y44271273D01*
X26528328Y44380043D01*
X26528327Y44380044D01*
X26528326Y44380045D01*
X26407257Y44457851D01*
X26407254Y44457853D01*
X26407253Y44457853D01*
X26407250Y44457854D01*
X26269164Y44498400D01*
X26269161Y44498400D01*
X26125239Y44498400D01*
X26125235Y44498400D01*
X25987149Y44457854D01*
X25987142Y44457851D01*
X25866073Y44380045D01*
X25771822Y44271272D01*
X25712034Y44140357D01*
X25691553Y43997903D01*
X25691553Y43997898D01*
X15051201Y43997898D01*
X15149453Y44026747D01*
X15270528Y44104557D01*
X15364777Y44213327D01*
X15424565Y44344243D01*
X15437563Y44434647D01*
X15445047Y44486698D01*
X15445047Y44486703D01*
X15427722Y44607198D01*
X16514353Y44607198D01*
X16534834Y44464744D01*
X16589520Y44345001D01*
X16594623Y44333827D01*
X16648826Y44271273D01*
X16688873Y44225056D01*
X16794237Y44157343D01*
X16809947Y44147247D01*
X16916403Y44115989D01*
X16948035Y44106701D01*
X16948036Y44106701D01*
X16948039Y44106700D01*
X16948041Y44106700D01*
X17091959Y44106700D01*
X17091961Y44106700D01*
X17230053Y44147247D01*
X17351128Y44225057D01*
X17445377Y44333827D01*
X17505165Y44464743D01*
X17514727Y44531250D01*
X17525647Y44607198D01*
X17525647Y44607203D01*
X17505165Y44749657D01*
X17450321Y44869747D01*
X17445377Y44880573D01*
X17351128Y44989343D01*
X17351127Y44989344D01*
X17351126Y44989345D01*
X17230057Y45067151D01*
X17230054Y45067153D01*
X17230053Y45067153D01*
X17230050Y45067154D01*
X17160765Y45087498D01*
X17994353Y45087498D01*
X18014834Y44945044D01*
X18058814Y44848744D01*
X18074623Y44814127D01*
X18158065Y44717829D01*
X18168873Y44705356D01*
X18289942Y44627550D01*
X18289947Y44627547D01*
X18396403Y44596289D01*
X18428035Y44587001D01*
X18428036Y44587001D01*
X18428039Y44587000D01*
X18428041Y44587000D01*
X18571959Y44587000D01*
X18571961Y44587000D01*
X18710053Y44627547D01*
X18831128Y44705357D01*
X18925377Y44814127D01*
X18985165Y44945043D01*
X18991801Y44991198D01*
X19194353Y44991198D01*
X19214834Y44848744D01*
X19274622Y44717829D01*
X19274623Y44717827D01*
X19357026Y44622728D01*
X19368873Y44609056D01*
X19424710Y44573172D01*
X19489947Y44531247D01*
X19596366Y44500000D01*
X19628035Y44490701D01*
X19628036Y44490701D01*
X19628039Y44490700D01*
X19628041Y44490700D01*
X19771959Y44490700D01*
X19771961Y44490700D01*
X19910053Y44531247D01*
X20031128Y44609057D01*
X20125377Y44717827D01*
X20183683Y44845498D01*
X21194353Y44845498D01*
X21214834Y44703044D01*
X21258606Y44607198D01*
X21274623Y44572127D01*
X21348647Y44486698D01*
X21368873Y44463356D01*
X21476638Y44394100D01*
X21489947Y44385547D01*
X21596403Y44354289D01*
X21628035Y44345001D01*
X21628036Y44345001D01*
X21628039Y44345000D01*
X21628041Y44345000D01*
X21771959Y44345000D01*
X21771961Y44345000D01*
X21910053Y44385547D01*
X22031128Y44463357D01*
X22125377Y44572127D01*
X22185165Y44703043D01*
X22205647Y44845500D01*
X22202058Y44870459D01*
X22198587Y44894598D01*
X23452553Y44894598D01*
X23473034Y44752144D01*
X23532822Y44621229D01*
X23532823Y44621227D01*
X23610788Y44531250D01*
X23627073Y44512456D01*
X23748142Y44434650D01*
X23748147Y44434647D01*
X23854603Y44403389D01*
X23886235Y44394101D01*
X23886236Y44394101D01*
X23886239Y44394100D01*
X23886241Y44394100D01*
X24030159Y44394100D01*
X24030161Y44394100D01*
X24168253Y44434647D01*
X24289328Y44512457D01*
X24383577Y44621227D01*
X24443365Y44752143D01*
X24460274Y44869748D01*
X24463847Y44894598D01*
X24463847Y44894603D01*
X24443365Y45037057D01*
X24416340Y45096233D01*
X24383577Y45167973D01*
X24289328Y45276743D01*
X24289327Y45276744D01*
X24289326Y45276745D01*
X24168257Y45354551D01*
X24168254Y45354553D01*
X24168253Y45354553D01*
X24168250Y45354554D01*
X24030164Y45395100D01*
X24030161Y45395100D01*
X23886239Y45395100D01*
X23886235Y45395100D01*
X23748149Y45354554D01*
X23748142Y45354551D01*
X23627073Y45276745D01*
X23532822Y45167972D01*
X23473034Y45037057D01*
X23452553Y44894603D01*
X23452553Y44894598D01*
X22198587Y44894598D01*
X22185165Y44987957D01*
X22183683Y44991203D01*
X22125377Y45118873D01*
X22031128Y45227643D01*
X22031127Y45227644D01*
X22031126Y45227645D01*
X21910057Y45305451D01*
X21910054Y45305453D01*
X21910053Y45305453D01*
X21910050Y45305454D01*
X21771964Y45346000D01*
X21771961Y45346000D01*
X21628039Y45346000D01*
X21628035Y45346000D01*
X21489949Y45305454D01*
X21489942Y45305451D01*
X21368873Y45227645D01*
X21274622Y45118872D01*
X21214834Y44987957D01*
X21194353Y44845503D01*
X21194353Y44845498D01*
X20183683Y44845498D01*
X20185165Y44848743D01*
X20205380Y44989343D01*
X20205647Y44991198D01*
X20205647Y44991203D01*
X20185165Y45133657D01*
X20147441Y45216260D01*
X20125377Y45264573D01*
X20031128Y45373343D01*
X20031127Y45373344D01*
X20031126Y45373345D01*
X19910057Y45451151D01*
X19910054Y45451153D01*
X19910053Y45451153D01*
X19910050Y45451154D01*
X19771964Y45491700D01*
X19771961Y45491700D01*
X19628039Y45491700D01*
X19628035Y45491700D01*
X19489949Y45451154D01*
X19489942Y45451151D01*
X19368873Y45373345D01*
X19274622Y45264572D01*
X19214834Y45133657D01*
X19194353Y44991203D01*
X19194353Y44991198D01*
X18991801Y44991198D01*
X18997933Y45033848D01*
X19005647Y45087498D01*
X19005647Y45087503D01*
X18985165Y45229957D01*
X18963797Y45276745D01*
X18925377Y45360873D01*
X18831128Y45469643D01*
X18831127Y45469644D01*
X18831126Y45469645D01*
X18710057Y45547451D01*
X18710054Y45547453D01*
X18710053Y45547453D01*
X18683138Y45555356D01*
X18571964Y45588000D01*
X18571961Y45588000D01*
X18428039Y45588000D01*
X18428035Y45588000D01*
X18289949Y45547454D01*
X18289942Y45547451D01*
X18168873Y45469645D01*
X18074622Y45360872D01*
X18014834Y45229957D01*
X17994353Y45087503D01*
X17994353Y45087498D01*
X17160765Y45087498D01*
X17091964Y45107700D01*
X17091961Y45107700D01*
X16948039Y45107700D01*
X16948035Y45107700D01*
X16809949Y45067154D01*
X16809942Y45067151D01*
X16688873Y44989345D01*
X16594622Y44880572D01*
X16534834Y44749657D01*
X16514353Y44607203D01*
X16514353Y44607198D01*
X15427722Y44607198D01*
X15424565Y44629157D01*
X15390822Y44703043D01*
X15364777Y44760073D01*
X15270528Y44868843D01*
X15270527Y44868844D01*
X15270526Y44868845D01*
X15149457Y44946651D01*
X15149454Y44946653D01*
X15149453Y44946653D01*
X15149450Y44946654D01*
X15011364Y44987200D01*
X15011361Y44987200D01*
X14867439Y44987200D01*
X14867435Y44987200D01*
X14729349Y44946654D01*
X14729342Y44946651D01*
X14608273Y44868845D01*
X14514022Y44760072D01*
X14454234Y44629157D01*
X14433753Y44486703D01*
X14433753Y44486698D01*
X10195169Y44486698D01*
X10195167Y44486703D01*
X10155677Y44573173D01*
X10061428Y44681943D01*
X10061427Y44681944D01*
X10061426Y44681945D01*
X9940357Y44759751D01*
X9940354Y44759753D01*
X9940353Y44759753D01*
X9939267Y44760072D01*
X9802264Y44800300D01*
X9802261Y44800300D01*
X9658339Y44800300D01*
X9658335Y44800300D01*
X9520249Y44759754D01*
X9520242Y44759751D01*
X9399173Y44681945D01*
X9304922Y44573172D01*
X9245134Y44442257D01*
X9224653Y44299803D01*
X9224653Y44299798D01*
X6110342Y44299798D01*
X6076935Y44417211D01*
X5981940Y44607988D01*
X5981935Y44607997D01*
X5912316Y44700185D01*
X5444814Y44232684D01*
X5381761Y44330798D01*
X5273100Y44424952D01*
X5231716Y44443852D01*
X5703071Y44915206D01*
X5695996Y44921654D01*
X5514797Y45033847D01*
X5514795Y45033848D01*
X5316058Y45110839D01*
X5106563Y45150000D01*
X4893437Y45150000D01*
X4683941Y45110839D01*
X4485204Y45033848D01*
X4485202Y45033847D01*
X4304002Y44921653D01*
X4296927Y44915206D01*
X4768282Y44443851D01*
X4726900Y44424952D01*
X4618239Y44330798D01*
X4555184Y44232683D01*
X4087682Y44700185D01*
X4018062Y44607993D01*
X4018057Y44607984D01*
X3923064Y44417211D01*
X3864738Y44212217D01*
X3845073Y44000000D01*
X300500Y44000000D01*
X300500Y45499996D01*
X944919Y45499996D01*
X965190Y45294170D01*
X965191Y45294164D01*
X1025232Y45096238D01*
X1025234Y45096233D01*
X1122724Y44913840D01*
X1122731Y44913830D01*
X1158324Y44870459D01*
X1593044Y45305180D01*
X1605887Y45272459D01*
X1690465Y45166401D01*
X1802290Y45090160D01*
X1370457Y44658326D01*
X1413828Y44622732D01*
X1413834Y44622728D01*
X1596232Y44525235D01*
X1596237Y44525233D01*
X1794163Y44465192D01*
X1794169Y44465191D01*
X1999996Y44444919D01*
X2000004Y44444919D01*
X2205830Y44465191D01*
X2205836Y44465192D01*
X2403762Y44525233D01*
X2403767Y44525235D01*
X2586166Y44622730D01*
X2586177Y44622737D01*
X2629541Y44658326D01*
X2193935Y45093932D01*
X2256357Y45123993D01*
X2355798Y45216260D01*
X2407068Y45305065D01*
X2841674Y44870459D01*
X2877263Y44913823D01*
X2877270Y44913834D01*
X2974765Y45096233D01*
X2974767Y45096238D01*
X3034808Y45294164D01*
X3034809Y45294170D01*
X3055081Y45499996D01*
X3055081Y45500005D01*
X3034809Y45705831D01*
X3034808Y45705837D01*
X2974767Y45903763D01*
X2974765Y45903768D01*
X2877272Y46086166D01*
X2877268Y46086172D01*
X2841674Y46129543D01*
X2406953Y45694823D01*
X2394113Y45727541D01*
X2309535Y45833599D01*
X2197707Y45909843D01*
X2629541Y46341676D01*
X2586170Y46377269D01*
X2586160Y46377276D01*
X2403767Y46474766D01*
X2403762Y46474768D01*
X2205836Y46534809D01*
X2205830Y46534810D01*
X2000004Y46555081D01*
X1999996Y46555081D01*
X1794169Y46534810D01*
X1794163Y46534809D01*
X1596237Y46474768D01*
X1596232Y46474766D01*
X1413834Y46377272D01*
X1413824Y46377266D01*
X1370457Y46341676D01*
X1806064Y45906069D01*
X1743643Y45876007D01*
X1644202Y45783740D01*
X1592931Y45694936D01*
X1158324Y46129543D01*
X1122734Y46086176D01*
X1122728Y46086166D01*
X1025234Y45903768D01*
X1025232Y45903763D01*
X965191Y45705837D01*
X965190Y45705831D01*
X944919Y45500005D01*
X944919Y45499996D01*
X300500Y45499996D01*
X300500Y47219998D01*
X14694353Y47219998D01*
X14714834Y47077544D01*
X14769637Y46957544D01*
X14774623Y46946627D01*
X14868872Y46837857D01*
X14868873Y46837856D01*
X14989942Y46760050D01*
X14989947Y46760047D01*
X15067271Y46737343D01*
X15128035Y46719501D01*
X15128036Y46719501D01*
X15128039Y46719500D01*
X15128041Y46719500D01*
X15251044Y46719500D01*
X15309235Y46700593D01*
X15345199Y46651093D01*
X15345199Y46589907D01*
X15309235Y46540407D01*
X15304567Y46537216D01*
X15218873Y46482145D01*
X15124622Y46373372D01*
X15064834Y46242457D01*
X15044353Y46100003D01*
X15044353Y46099998D01*
X15064834Y45957544D01*
X15121439Y45833599D01*
X15124623Y45826627D01*
X15161785Y45783740D01*
X15218873Y45717856D01*
X15339942Y45640050D01*
X15339947Y45640047D01*
X15446403Y45608789D01*
X15478035Y45599501D01*
X15478036Y45599501D01*
X15478039Y45599500D01*
X15478041Y45599500D01*
X15621959Y45599500D01*
X15621961Y45599500D01*
X15760053Y45640047D01*
X15881128Y45717857D01*
X15975377Y45826627D01*
X16035165Y45957543D01*
X16041992Y46005029D01*
X16055647Y46099998D01*
X16055647Y46100003D01*
X16035165Y46242457D01*
X15999914Y46319645D01*
X15975377Y46373373D01*
X15881128Y46482143D01*
X15881127Y46482144D01*
X15881126Y46482145D01*
X15760057Y46559951D01*
X15760054Y46559953D01*
X15760053Y46559953D01*
X15760050Y46559954D01*
X15621964Y46600500D01*
X15621961Y46600500D01*
X15498956Y46600500D01*
X15440765Y46619407D01*
X15404801Y46668907D01*
X15404801Y46730093D01*
X15440765Y46779593D01*
X15445433Y46782784D01*
X15488878Y46810706D01*
X15531128Y46837857D01*
X15625377Y46946627D01*
X15685165Y47077543D01*
X15696039Y47153173D01*
X15701132Y47188598D01*
X18456353Y47188598D01*
X18476834Y47046144D01*
X18522282Y46946629D01*
X18536623Y46915227D01*
X18603664Y46837857D01*
X18630873Y46806456D01*
X18749697Y46730093D01*
X18751947Y46728647D01*
X18847491Y46700593D01*
X18890035Y46688101D01*
X18890036Y46688101D01*
X18890039Y46688100D01*
X18890041Y46688100D01*
X19033959Y46688100D01*
X19033961Y46688100D01*
X19172053Y46728647D01*
X19293128Y46806457D01*
X19368376Y46893298D01*
X19985453Y46893298D01*
X20005934Y46750844D01*
X20034589Y46688100D01*
X20065723Y46619927D01*
X20158280Y46513110D01*
X20159973Y46511156D01*
X20277689Y46435505D01*
X20281047Y46433347D01*
X20387503Y46402089D01*
X20419135Y46392801D01*
X20419136Y46392801D01*
X20419139Y46392800D01*
X20419141Y46392800D01*
X20563059Y46392800D01*
X20563061Y46392800D01*
X20701153Y46433347D01*
X20822228Y46511157D01*
X20822232Y46511163D01*
X20824481Y46513110D01*
X20826778Y46514081D01*
X20828185Y46514985D01*
X20828341Y46514742D01*
X20880839Y46536930D01*
X20940435Y46523073D01*
X20964134Y46503125D01*
X20968872Y46497657D01*
X21068940Y46433347D01*
X21089947Y46419847D01*
X21182062Y46392800D01*
X21228035Y46379301D01*
X21228036Y46379301D01*
X21228039Y46379300D01*
X21228041Y46379300D01*
X21371959Y46379300D01*
X21371961Y46379300D01*
X21510053Y46419847D01*
X21631128Y46497657D01*
X21725377Y46606427D01*
X21785165Y46737343D01*
X21798002Y46826629D01*
X21805647Y46879798D01*
X21805647Y46879803D01*
X21785165Y47022257D01*
X21779000Y47035757D01*
X21749662Y47099998D01*
X22014353Y47099998D01*
X22034834Y46957544D01*
X22064174Y46893300D01*
X22094623Y46826627D01*
X22187448Y46719500D01*
X22188873Y46717856D01*
X22292759Y46651093D01*
X22309947Y46640047D01*
X22439543Y46601995D01*
X22490048Y46567461D01*
X22510610Y46509834D01*
X22493372Y46451127D01*
X22444920Y46413764D01*
X22439543Y46412017D01*
X22389952Y46397456D01*
X22389942Y46397451D01*
X22268873Y46319645D01*
X22174622Y46210872D01*
X22114834Y46079957D01*
X22094353Y45937503D01*
X22094353Y45937498D01*
X22114834Y45795044D01*
X22155574Y45705837D01*
X22174623Y45664127D01*
X22240587Y45588000D01*
X22268873Y45555356D01*
X22367924Y45491700D01*
X22389947Y45477547D01*
X22479838Y45451153D01*
X22528035Y45437001D01*
X22528036Y45437001D01*
X22528039Y45437000D01*
X22528041Y45437000D01*
X22671959Y45437000D01*
X22671961Y45437000D01*
X22810053Y45477547D01*
X22931128Y45555357D01*
X23025377Y45664127D01*
X23085165Y45795043D01*
X23096806Y45876007D01*
X23105647Y45937498D01*
X23105647Y45937503D01*
X23085165Y46079957D01*
X23076012Y46099998D01*
X23025377Y46210873D01*
X22931128Y46319643D01*
X22931127Y46319644D01*
X22931126Y46319645D01*
X22810057Y46397451D01*
X22810054Y46397453D01*
X22810053Y46397453D01*
X22680457Y46435506D01*
X22629951Y46470041D01*
X22609389Y46527668D01*
X22626627Y46586375D01*
X22675080Y46623737D01*
X22680450Y46625483D01*
X22730053Y46640047D01*
X22851128Y46717857D01*
X22945377Y46826627D01*
X23005165Y46957543D01*
X23022418Y47077543D01*
X23025647Y47099998D01*
X23025647Y47100003D01*
X23005165Y47242457D01*
X22997605Y47259011D01*
X22945377Y47373373D01*
X22851128Y47482143D01*
X22851127Y47482144D01*
X22851126Y47482145D01*
X22730057Y47559951D01*
X22730054Y47559953D01*
X22730053Y47559953D01*
X22730050Y47559954D01*
X22591964Y47600500D01*
X22591961Y47600500D01*
X22448039Y47600500D01*
X22448035Y47600500D01*
X22309949Y47559954D01*
X22309942Y47559951D01*
X22188873Y47482145D01*
X22094622Y47373372D01*
X22034834Y47242457D01*
X22014353Y47100003D01*
X22014353Y47099998D01*
X21749662Y47099998D01*
X21725377Y47153173D01*
X21631128Y47261943D01*
X21631127Y47261944D01*
X21631126Y47261945D01*
X21510057Y47339751D01*
X21510054Y47339753D01*
X21510053Y47339753D01*
X21510050Y47339754D01*
X21371964Y47380300D01*
X21371961Y47380300D01*
X21228039Y47380300D01*
X21228035Y47380300D01*
X21089949Y47339754D01*
X21089942Y47339751D01*
X20968871Y47261944D01*
X20966608Y47259982D01*
X20964308Y47259011D01*
X20962915Y47258115D01*
X20962759Y47258357D01*
X20910246Y47236170D01*
X20850652Y47250035D01*
X20826965Y47269977D01*
X20822229Y47275442D01*
X20822227Y47275444D01*
X20701157Y47353251D01*
X20701154Y47353253D01*
X20701153Y47353253D01*
X20701150Y47353254D01*
X20563064Y47393800D01*
X20563061Y47393800D01*
X20419139Y47393800D01*
X20419135Y47393800D01*
X20281049Y47353254D01*
X20281042Y47353251D01*
X20159973Y47275445D01*
X20065722Y47166672D01*
X20005934Y47035757D01*
X19985453Y46893303D01*
X19985453Y46893298D01*
X19368376Y46893298D01*
X19387377Y46915227D01*
X19447165Y47046143D01*
X19462553Y47153172D01*
X19467647Y47188598D01*
X19467647Y47188603D01*
X19447165Y47331057D01*
X19413011Y47405843D01*
X19387377Y47461973D01*
X19293128Y47570743D01*
X19293127Y47570744D01*
X19293126Y47570745D01*
X19172057Y47648551D01*
X19172054Y47648553D01*
X19172053Y47648553D01*
X19172050Y47648554D01*
X19033964Y47689100D01*
X19033961Y47689100D01*
X18890039Y47689100D01*
X18890035Y47689100D01*
X18751949Y47648554D01*
X18751942Y47648551D01*
X18630873Y47570745D01*
X18536622Y47461972D01*
X18476834Y47331057D01*
X18456353Y47188603D01*
X18456353Y47188598D01*
X15701132Y47188598D01*
X15705647Y47219998D01*
X15705647Y47220003D01*
X15685165Y47362457D01*
X15665351Y47405843D01*
X15625377Y47493373D01*
X15531128Y47602143D01*
X15531127Y47602144D01*
X15531126Y47602145D01*
X15410057Y47679951D01*
X15410054Y47679953D01*
X15410053Y47679953D01*
X15410050Y47679954D01*
X15271964Y47720500D01*
X15271961Y47720500D01*
X15128039Y47720500D01*
X15128035Y47720500D01*
X14989949Y47679954D01*
X14989942Y47679951D01*
X14868873Y47602145D01*
X14774622Y47493372D01*
X14714834Y47362457D01*
X14694353Y47220003D01*
X14694353Y47219998D01*
X300500Y47219998D01*
X300500Y47798098D01*
X16598653Y47798098D01*
X16619134Y47655644D01*
X16668156Y47548303D01*
X16678923Y47524727D01*
X16733300Y47461972D01*
X16773173Y47415956D01*
X16891746Y47339754D01*
X16894247Y47338147D01*
X17000703Y47306889D01*
X17032335Y47297601D01*
X17032336Y47297601D01*
X17032339Y47297600D01*
X17032341Y47297600D01*
X17176259Y47297600D01*
X17176261Y47297600D01*
X17314353Y47338147D01*
X17435428Y47415957D01*
X17529677Y47524727D01*
X17589465Y47655643D01*
X17601477Y47739191D01*
X17609947Y47798098D01*
X17609947Y47798103D01*
X17589465Y47940557D01*
X17558548Y48008254D01*
X17529677Y48071473D01*
X17435428Y48180243D01*
X17435427Y48180244D01*
X17435426Y48180245D01*
X17398932Y48203698D01*
X25860453Y48203698D01*
X25880934Y48061244D01*
X25929250Y47955448D01*
X25940723Y47930327D01*
X26034872Y47821672D01*
X26034973Y47821556D01*
X26071475Y47798098D01*
X26156047Y47743747D01*
X26235220Y47720500D01*
X26294135Y47703201D01*
X26294136Y47703201D01*
X26294139Y47703200D01*
X26294141Y47703200D01*
X26438059Y47703200D01*
X26438061Y47703200D01*
X26566585Y47740938D01*
X26627742Y47739191D01*
X26676195Y47701828D01*
X26693434Y47643121D01*
X26692466Y47631859D01*
X26680453Y47548304D01*
X26680453Y47548298D01*
X26700934Y47405844D01*
X26731851Y47338147D01*
X26760723Y47274927D01*
X26808319Y47219998D01*
X26854973Y47166156D01*
X26976042Y47088350D01*
X26976047Y47088347D01*
X27082503Y47057089D01*
X27114135Y47047801D01*
X27114136Y47047801D01*
X27114139Y47047800D01*
X27114141Y47047800D01*
X27258059Y47047800D01*
X27258061Y47047800D01*
X27396153Y47088347D01*
X27517228Y47166157D01*
X27611477Y47274927D01*
X27671265Y47405843D01*
X27682235Y47482143D01*
X27691747Y47548298D01*
X27691747Y47548303D01*
X27671265Y47690757D01*
X27647065Y47743747D01*
X27611477Y47821673D01*
X27517228Y47930443D01*
X27517227Y47930444D01*
X27517226Y47930445D01*
X27396157Y48008251D01*
X27396154Y48008253D01*
X27396153Y48008253D01*
X27380630Y48012811D01*
X27258064Y48048800D01*
X27258061Y48048800D01*
X27114139Y48048800D01*
X27114135Y48048800D01*
X26985616Y48011063D01*
X26924456Y48012811D01*
X26876003Y48050173D01*
X26858765Y48108880D01*
X26859733Y48120143D01*
X26859968Y48121773D01*
X26871747Y48203700D01*
X26863932Y48258053D01*
X26851265Y48346157D01*
X26791477Y48477072D01*
X26791477Y48477073D01*
X26697228Y48585843D01*
X26697227Y48585844D01*
X26697226Y48585845D01*
X26576157Y48663651D01*
X26576154Y48663653D01*
X26576153Y48663653D01*
X26576150Y48663654D01*
X26438064Y48704200D01*
X26438061Y48704200D01*
X26294139Y48704200D01*
X26294135Y48704200D01*
X26156049Y48663654D01*
X26156042Y48663651D01*
X26034973Y48585845D01*
X25940722Y48477072D01*
X25880934Y48346157D01*
X25860453Y48203703D01*
X25860453Y48203698D01*
X17398932Y48203698D01*
X17314357Y48258051D01*
X17314354Y48258053D01*
X17314353Y48258053D01*
X17314350Y48258054D01*
X17176264Y48298600D01*
X17176261Y48298600D01*
X17032339Y48298600D01*
X17032335Y48298600D01*
X16894249Y48258054D01*
X16894242Y48258051D01*
X16773173Y48180245D01*
X16678922Y48071472D01*
X16619134Y47940557D01*
X16598653Y47798103D01*
X16598653Y47798098D01*
X300500Y47798098D01*
X300500Y48180254D01*
X999500Y48180254D01*
X999501Y48180242D01*
X1011132Y48121773D01*
X1011133Y48121769D01*
X1055448Y48055448D01*
X1121769Y48011133D01*
X1166231Y48002289D01*
X1180241Y47999502D01*
X1180246Y47999502D01*
X1180252Y47999500D01*
X1180253Y47999500D01*
X2819747Y47999500D01*
X2819748Y47999500D01*
X2878231Y48011133D01*
X2944552Y48055448D01*
X2961127Y48080254D01*
X3899500Y48080254D01*
X3899501Y48080242D01*
X3911132Y48021773D01*
X3911134Y48021767D01*
X3926013Y47999500D01*
X3955448Y47955448D01*
X4021769Y47911133D01*
X4066231Y47902289D01*
X4080241Y47899502D01*
X4080246Y47899502D01*
X4080252Y47899500D01*
X4080253Y47899500D01*
X5919747Y47899500D01*
X5919748Y47899500D01*
X5978231Y47911133D01*
X6044552Y47955448D01*
X6088867Y48021769D01*
X6100500Y48080252D01*
X6100500Y49919748D01*
X6088867Y49978231D01*
X6044552Y50044552D01*
X6044548Y50044555D01*
X5978233Y50088866D01*
X5978231Y50088867D01*
X5978228Y50088868D01*
X5978227Y50088868D01*
X5919758Y50100499D01*
X5919748Y50100500D01*
X4080252Y50100500D01*
X4080251Y50100500D01*
X4080241Y50100499D01*
X4021772Y50088868D01*
X4021766Y50088866D01*
X3955451Y50044555D01*
X3955445Y50044549D01*
X3911134Y49978234D01*
X3911132Y49978228D01*
X3899501Y49919759D01*
X3899500Y49919747D01*
X3899500Y48080254D01*
X2961127Y48080254D01*
X2988867Y48121769D01*
X3000500Y48180252D01*
X3000500Y49819748D01*
X2988867Y49878231D01*
X2944552Y49944552D01*
X2944548Y49944555D01*
X2878233Y49988866D01*
X2878231Y49988867D01*
X2878228Y49988868D01*
X2878227Y49988868D01*
X2819758Y50000499D01*
X2819748Y50000500D01*
X1180252Y50000500D01*
X1180251Y50000500D01*
X1180241Y50000499D01*
X1121772Y49988868D01*
X1121766Y49988866D01*
X1055451Y49944555D01*
X1055445Y49944549D01*
X1011134Y49878234D01*
X1011132Y49878228D01*
X999501Y49819759D01*
X999500Y49819747D01*
X999500Y48180254D01*
X300500Y48180254D01*
X300500Y50124698D01*
X16183053Y50124698D01*
X16203534Y49982244D01*
X16263322Y49851329D01*
X16263323Y49851327D01*
X16357572Y49742557D01*
X16357573Y49742556D01*
X16415246Y49705492D01*
X16453977Y49658126D01*
X16457471Y49597041D01*
X16424391Y49545568D01*
X16415249Y49538926D01*
X16395674Y49526346D01*
X16301422Y49417572D01*
X16241634Y49286657D01*
X16221153Y49144203D01*
X16221153Y49144198D01*
X16241634Y49001744D01*
X16301422Y48870829D01*
X16301423Y48870827D01*
X16395672Y48762057D01*
X16395673Y48762056D01*
X16485699Y48704200D01*
X16516747Y48684247D01*
X16623203Y48652989D01*
X16654835Y48643701D01*
X16654836Y48643701D01*
X16654839Y48643700D01*
X16654841Y48643700D01*
X16798759Y48643700D01*
X16798761Y48643700D01*
X16936853Y48684247D01*
X17057928Y48762057D01*
X17152177Y48870827D01*
X17211965Y49001743D01*
X17232447Y49144200D01*
X17211965Y49286657D01*
X17152177Y49417573D01*
X17057928Y49526343D01*
X17000251Y49563410D01*
X16961521Y49610775D01*
X16958029Y49671861D01*
X16991108Y49723333D01*
X17000249Y49729975D01*
X17019828Y49742557D01*
X17114077Y49851327D01*
X17173865Y49982243D01*
X17189195Y50088868D01*
X17194347Y50124698D01*
X17194347Y50124703D01*
X17173865Y50267157D01*
X17114077Y50398072D01*
X17114077Y50398073D01*
X17019828Y50506843D01*
X17019827Y50506844D01*
X17019826Y50506845D01*
X16898757Y50584651D01*
X16898754Y50584653D01*
X16898753Y50584653D01*
X16898750Y50584654D01*
X16760664Y50625200D01*
X16760661Y50625200D01*
X16616739Y50625200D01*
X16616735Y50625200D01*
X16478649Y50584654D01*
X16478642Y50584651D01*
X16357573Y50506845D01*
X16263322Y50398072D01*
X16203534Y50267157D01*
X16183053Y50124703D01*
X16183053Y50124698D01*
X300500Y50124698D01*
X300500Y51899998D01*
X34694353Y51899998D01*
X34714834Y51757544D01*
X34774622Y51626629D01*
X34774623Y51626627D01*
X34868872Y51517857D01*
X34868873Y51517856D01*
X34989942Y51440050D01*
X34989947Y51440047D01*
X35096403Y51408789D01*
X35128035Y51399501D01*
X35128036Y51399501D01*
X35128039Y51399500D01*
X35128041Y51399500D01*
X35271959Y51399500D01*
X35271961Y51399500D01*
X35410053Y51440047D01*
X35531128Y51517857D01*
X35625377Y51626627D01*
X35685165Y51757543D01*
X35705647Y51900000D01*
X35685165Y52042457D01*
X35625377Y52173373D01*
X35531128Y52282143D01*
X35531127Y52282144D01*
X35531126Y52282145D01*
X35410057Y52359951D01*
X35410054Y52359953D01*
X35410053Y52359953D01*
X35410050Y52359954D01*
X35271964Y52400500D01*
X35271961Y52400500D01*
X35128039Y52400500D01*
X35128035Y52400500D01*
X34989949Y52359954D01*
X34989942Y52359951D01*
X34868873Y52282145D01*
X34774622Y52173372D01*
X34714834Y52042457D01*
X34694353Y51900003D01*
X34694353Y51899998D01*
X300500Y51899998D01*
X300500Y53325376D01*
X15090000Y53325376D01*
X15104506Y53252454D01*
X15104507Y53252452D01*
X15159758Y53169763D01*
X15159762Y53169759D01*
X15242451Y53114508D01*
X15242453Y53114507D01*
X15315375Y53100001D01*
X15315377Y53100000D01*
X16039999Y53100000D01*
X16040000Y53100001D01*
X16040000Y53718830D01*
X16047685Y53715320D01*
X16154237Y53700000D01*
X16225763Y53700000D01*
X16332315Y53715320D01*
X16340000Y53718830D01*
X16340000Y53100001D01*
X16340001Y53100000D01*
X17064623Y53100000D01*
X17064624Y53100001D01*
X17137546Y53114507D01*
X17137548Y53114508D01*
X17220237Y53169759D01*
X17220241Y53169763D01*
X17275492Y53252452D01*
X17275493Y53252454D01*
X17289999Y53325376D01*
X17290000Y53325378D01*
X17290000Y54049999D01*
X17289999Y54050000D01*
X16667065Y54050000D01*
X16690000Y54128111D01*
X16690000Y54199997D01*
X17674417Y54199997D01*
X17694698Y53994071D01*
X17694699Y53994066D01*
X17754768Y53796046D01*
X17852316Y53613548D01*
X17921913Y53528744D01*
X17983590Y53453590D01*
X17983595Y53453586D01*
X18143547Y53322317D01*
X18143548Y53322317D01*
X18143550Y53322315D01*
X18326046Y53224768D01*
X18463997Y53182922D01*
X18524065Y53164700D01*
X18524070Y53164699D01*
X18729997Y53144417D01*
X18730000Y53144417D01*
X18730003Y53144417D01*
X18935929Y53164699D01*
X18935934Y53164700D01*
X18952611Y53169759D01*
X19133954Y53224768D01*
X19316450Y53322315D01*
X19476410Y53453590D01*
X19607685Y53613550D01*
X19705232Y53796046D01*
X19765300Y53994066D01*
X19765301Y53994071D01*
X19785583Y54199997D01*
X20214417Y54199997D01*
X20234698Y53994071D01*
X20234699Y53994066D01*
X20294768Y53796046D01*
X20392316Y53613548D01*
X20461913Y53528744D01*
X20523590Y53453590D01*
X20523595Y53453586D01*
X20683547Y53322317D01*
X20683548Y53322317D01*
X20683550Y53322315D01*
X20866046Y53224768D01*
X21003997Y53182922D01*
X21064065Y53164700D01*
X21064070Y53164699D01*
X21269997Y53144417D01*
X21270000Y53144417D01*
X21270003Y53144417D01*
X21475929Y53164699D01*
X21475934Y53164700D01*
X21492611Y53169759D01*
X21673954Y53224768D01*
X21856450Y53322315D01*
X22016410Y53453590D01*
X22147685Y53613550D01*
X22245232Y53796046D01*
X22305300Y53994066D01*
X22305301Y53994071D01*
X22325583Y54199997D01*
X22754417Y54199997D01*
X22774698Y53994071D01*
X22774699Y53994066D01*
X22834768Y53796046D01*
X22932316Y53613548D01*
X23001913Y53528744D01*
X23063590Y53453590D01*
X23063595Y53453586D01*
X23223547Y53322317D01*
X23223548Y53322317D01*
X23223550Y53322315D01*
X23406046Y53224768D01*
X23543997Y53182922D01*
X23604065Y53164700D01*
X23604070Y53164699D01*
X23809997Y53144417D01*
X23810000Y53144417D01*
X23810003Y53144417D01*
X24015929Y53164699D01*
X24015934Y53164700D01*
X24032611Y53169759D01*
X24213954Y53224768D01*
X24396450Y53322315D01*
X24556410Y53453590D01*
X24687685Y53613550D01*
X24718499Y53671198D01*
X27587253Y53671198D01*
X27607734Y53528744D01*
X27642058Y53453586D01*
X27667523Y53397827D01*
X27732954Y53322315D01*
X27761773Y53289056D01*
X27882842Y53211250D01*
X27882847Y53211247D01*
X27989303Y53179989D01*
X28020935Y53170701D01*
X28020936Y53170701D01*
X28020939Y53170700D01*
X28020941Y53170700D01*
X28164859Y53170700D01*
X28164861Y53170700D01*
X28302953Y53211247D01*
X28424028Y53289057D01*
X28518277Y53397827D01*
X28578065Y53528743D01*
X28598547Y53671200D01*
X28594406Y53700000D01*
X28578065Y53813657D01*
X28518277Y53944572D01*
X28518277Y53944573D01*
X28424028Y54053343D01*
X28424027Y54053344D01*
X28424026Y54053345D01*
X28302957Y54131151D01*
X28302954Y54131153D01*
X28302953Y54131153D01*
X28302950Y54131154D01*
X28164864Y54171700D01*
X28164861Y54171700D01*
X28020939Y54171700D01*
X28020935Y54171700D01*
X27882849Y54131154D01*
X27882842Y54131151D01*
X27761773Y54053345D01*
X27667522Y53944572D01*
X27607734Y53813657D01*
X27587253Y53671203D01*
X27587253Y53671198D01*
X24718499Y53671198D01*
X24785232Y53796046D01*
X24845300Y53994066D01*
X24845301Y53994071D01*
X24865583Y54199997D01*
X24865583Y54200004D01*
X24845301Y54405930D01*
X24845300Y54405935D01*
X24807423Y54530798D01*
X24785232Y54603954D01*
X24721601Y54722998D01*
X33494353Y54722998D01*
X33514834Y54580544D01*
X33537553Y54530798D01*
X33574623Y54449627D01*
X33660949Y54350001D01*
X33668873Y54340856D01*
X33789942Y54263050D01*
X33789947Y54263047D01*
X33896403Y54231789D01*
X33928035Y54222501D01*
X33928036Y54222501D01*
X33928039Y54222500D01*
X33928041Y54222500D01*
X34071959Y54222500D01*
X34071961Y54222500D01*
X34210053Y54263047D01*
X34331128Y54340857D01*
X34425377Y54449627D01*
X34485165Y54580543D01*
X34491992Y54628029D01*
X34505647Y54722998D01*
X34505647Y54723003D01*
X34485165Y54865457D01*
X34448197Y54946405D01*
X34425377Y54996373D01*
X34331128Y55105143D01*
X34331127Y55105144D01*
X34331126Y55105145D01*
X34210057Y55182951D01*
X34210054Y55182953D01*
X34210053Y55182953D01*
X34210050Y55182954D01*
X34071964Y55223500D01*
X34071961Y55223500D01*
X33928039Y55223500D01*
X33928035Y55223500D01*
X33789949Y55182954D01*
X33789942Y55182951D01*
X33668873Y55105145D01*
X33574622Y54996372D01*
X33514834Y54865457D01*
X33494353Y54723003D01*
X33494353Y54722998D01*
X24721601Y54722998D01*
X24687685Y54786450D01*
X24556410Y54946410D01*
X24495530Y54996373D01*
X24396452Y55077684D01*
X24213954Y55175232D01*
X24015934Y55235301D01*
X24015929Y55235302D01*
X23810003Y55255583D01*
X23809997Y55255583D01*
X23604070Y55235302D01*
X23604065Y55235301D01*
X23406045Y55175232D01*
X23223547Y55077684D01*
X23063595Y54946415D01*
X23063585Y54946405D01*
X22932316Y54786453D01*
X22834768Y54603955D01*
X22774699Y54405935D01*
X22774698Y54405930D01*
X22754417Y54200004D01*
X22754417Y54199997D01*
X22325583Y54199997D01*
X22325583Y54200004D01*
X22305301Y54405930D01*
X22305300Y54405935D01*
X22267423Y54530798D01*
X22245232Y54603954D01*
X22147685Y54786450D01*
X22016410Y54946410D01*
X21955530Y54996373D01*
X21856452Y55077684D01*
X21673954Y55175232D01*
X21475934Y55235301D01*
X21475929Y55235302D01*
X21270003Y55255583D01*
X21269997Y55255583D01*
X21064070Y55235302D01*
X21064065Y55235301D01*
X20866045Y55175232D01*
X20683547Y55077684D01*
X20523595Y54946415D01*
X20523585Y54946405D01*
X20392316Y54786453D01*
X20294768Y54603955D01*
X20234699Y54405935D01*
X20234698Y54405930D01*
X20214417Y54200004D01*
X20214417Y54199997D01*
X19785583Y54199997D01*
X19785583Y54200004D01*
X19765301Y54405930D01*
X19765300Y54405935D01*
X19727423Y54530798D01*
X19705232Y54603954D01*
X19607685Y54786450D01*
X19476410Y54946410D01*
X19415530Y54996373D01*
X19316452Y55077684D01*
X19133954Y55175232D01*
X18935934Y55235301D01*
X18935929Y55235302D01*
X18730003Y55255583D01*
X18729997Y55255583D01*
X18524070Y55235302D01*
X18524065Y55235301D01*
X18326045Y55175232D01*
X18143547Y55077684D01*
X17983595Y54946415D01*
X17983585Y54946405D01*
X17852316Y54786453D01*
X17754768Y54603955D01*
X17694699Y54405935D01*
X17694698Y54405930D01*
X17674417Y54200004D01*
X17674417Y54199997D01*
X16690000Y54199997D01*
X16690000Y54271889D01*
X16667065Y54350000D01*
X17289999Y54350000D01*
X17290000Y54350001D01*
X17290000Y55074623D01*
X17289999Y55074625D01*
X17275493Y55147547D01*
X17275492Y55147549D01*
X17220241Y55230238D01*
X17220237Y55230242D01*
X17137548Y55285493D01*
X17137546Y55285494D01*
X17064624Y55300000D01*
X16340001Y55300000D01*
X16340000Y55299999D01*
X16340000Y54681171D01*
X16332315Y54684680D01*
X16225763Y54700000D01*
X16154237Y54700000D01*
X16047685Y54684680D01*
X16040000Y54681171D01*
X16040000Y55299999D01*
X16039999Y55300000D01*
X15315375Y55300000D01*
X15242453Y55285494D01*
X15242451Y55285493D01*
X15159762Y55230242D01*
X15159758Y55230238D01*
X15104507Y55147549D01*
X15104506Y55147547D01*
X15090000Y55074625D01*
X15090000Y54350001D01*
X15090001Y54350000D01*
X15712935Y54350000D01*
X15690000Y54271889D01*
X15690000Y54128111D01*
X15712935Y54050000D01*
X15090001Y54050000D01*
X15090000Y54049999D01*
X15090000Y53325376D01*
X300500Y53325376D01*
X300500Y57125376D01*
X10010000Y57125376D01*
X10024506Y57052454D01*
X10024507Y57052452D01*
X10079758Y56969763D01*
X10079762Y56969759D01*
X10162451Y56914508D01*
X10162453Y56914507D01*
X10235375Y56900001D01*
X10235377Y56900000D01*
X10959999Y56900000D01*
X10960000Y56900001D01*
X10960000Y57518830D01*
X10967685Y57515320D01*
X11074237Y57500000D01*
X11145763Y57500000D01*
X11252315Y57515320D01*
X11260000Y57518830D01*
X11260000Y56900001D01*
X11260001Y56900000D01*
X11984623Y56900000D01*
X11984624Y56900001D01*
X12057546Y56914507D01*
X12057548Y56914508D01*
X12140237Y56969759D01*
X12140241Y56969763D01*
X12195492Y57052452D01*
X12195493Y57052454D01*
X12209999Y57125376D01*
X12210000Y57125378D01*
X12210000Y57849999D01*
X12209999Y57850000D01*
X11587065Y57850000D01*
X11610000Y57928111D01*
X11610000Y57999997D01*
X12594417Y57999997D01*
X12614698Y57794071D01*
X12614699Y57794066D01*
X12674768Y57596046D01*
X12772316Y57413548D01*
X12903585Y57253596D01*
X12903590Y57253590D01*
X12903595Y57253586D01*
X13063547Y57122317D01*
X13063548Y57122317D01*
X13063550Y57122315D01*
X13246046Y57024768D01*
X13383997Y56982922D01*
X13444065Y56964700D01*
X13444070Y56964699D01*
X13649997Y56944417D01*
X13650000Y56944417D01*
X13650003Y56944417D01*
X13855929Y56964699D01*
X13855934Y56964700D01*
X13872611Y56969759D01*
X14053954Y57024768D01*
X14236450Y57122315D01*
X14396410Y57253590D01*
X14527685Y57413550D01*
X14625232Y57596046D01*
X14685300Y57794066D01*
X14685301Y57794071D01*
X14705583Y57999997D01*
X15134417Y57999997D01*
X15154698Y57794071D01*
X15154699Y57794066D01*
X15214768Y57596046D01*
X15312316Y57413548D01*
X15443585Y57253596D01*
X15443590Y57253590D01*
X15443595Y57253586D01*
X15603547Y57122317D01*
X15603548Y57122317D01*
X15603550Y57122315D01*
X15786046Y57024768D01*
X15923997Y56982922D01*
X15984065Y56964700D01*
X15984070Y56964699D01*
X16189997Y56944417D01*
X16190000Y56944417D01*
X16190003Y56944417D01*
X16395929Y56964699D01*
X16395934Y56964700D01*
X16412611Y56969759D01*
X16593954Y57024768D01*
X16776450Y57122315D01*
X16936410Y57253590D01*
X17067685Y57413550D01*
X17165232Y57596046D01*
X17225300Y57794066D01*
X17225301Y57794071D01*
X17245583Y57999997D01*
X17674417Y57999997D01*
X17694698Y57794071D01*
X17694699Y57794066D01*
X17754768Y57596046D01*
X17852316Y57413548D01*
X17983585Y57253596D01*
X17983590Y57253590D01*
X17983595Y57253586D01*
X18143547Y57122317D01*
X18143548Y57122317D01*
X18143550Y57122315D01*
X18326046Y57024768D01*
X18463997Y56982922D01*
X18524065Y56964700D01*
X18524070Y56964699D01*
X18729997Y56944417D01*
X18730000Y56944417D01*
X18730003Y56944417D01*
X18935929Y56964699D01*
X18935934Y56964700D01*
X18952611Y56969759D01*
X19133954Y57024768D01*
X19316450Y57122315D01*
X19476410Y57253590D01*
X19607685Y57413550D01*
X19705232Y57596046D01*
X19765300Y57794066D01*
X19765301Y57794071D01*
X19785583Y57999997D01*
X20214417Y57999997D01*
X20234698Y57794071D01*
X20234699Y57794066D01*
X20294768Y57596046D01*
X20392316Y57413548D01*
X20523585Y57253596D01*
X20523590Y57253590D01*
X20523595Y57253586D01*
X20683547Y57122317D01*
X20683548Y57122317D01*
X20683550Y57122315D01*
X20866046Y57024768D01*
X21003997Y56982922D01*
X21064065Y56964700D01*
X21064070Y56964699D01*
X21269997Y56944417D01*
X21270000Y56944417D01*
X21270003Y56944417D01*
X21475929Y56964699D01*
X21475934Y56964700D01*
X21492611Y56969759D01*
X21673954Y57024768D01*
X21856450Y57122315D01*
X22016410Y57253590D01*
X22147685Y57413550D01*
X22245232Y57596046D01*
X22305300Y57794066D01*
X22305301Y57794071D01*
X22325583Y57999997D01*
X22754417Y57999997D01*
X22774698Y57794071D01*
X22774699Y57794066D01*
X22834768Y57596046D01*
X22932316Y57413548D01*
X23063585Y57253596D01*
X23063590Y57253590D01*
X23063595Y57253586D01*
X23223547Y57122317D01*
X23223548Y57122317D01*
X23223550Y57122315D01*
X23406046Y57024768D01*
X23543997Y56982922D01*
X23604065Y56964700D01*
X23604070Y56964699D01*
X23809997Y56944417D01*
X23810000Y56944417D01*
X23810003Y56944417D01*
X24015929Y56964699D01*
X24015934Y56964700D01*
X24032611Y56969759D01*
X24213954Y57024768D01*
X24396450Y57122315D01*
X24556410Y57253590D01*
X24687685Y57413550D01*
X24785232Y57596046D01*
X24845300Y57794066D01*
X24845301Y57794071D01*
X24865583Y57999997D01*
X25294417Y57999997D01*
X25314698Y57794071D01*
X25314699Y57794066D01*
X25374768Y57596046D01*
X25472316Y57413548D01*
X25603585Y57253596D01*
X25603590Y57253590D01*
X25603595Y57253586D01*
X25763547Y57122317D01*
X25763548Y57122317D01*
X25763550Y57122315D01*
X25946046Y57024768D01*
X26083997Y56982922D01*
X26144065Y56964700D01*
X26144070Y56964699D01*
X26349997Y56944417D01*
X26350000Y56944417D01*
X26350003Y56944417D01*
X26555929Y56964699D01*
X26555934Y56964700D01*
X26572611Y56969759D01*
X26753954Y57024768D01*
X26936450Y57122315D01*
X27096410Y57253590D01*
X27227685Y57413550D01*
X27325232Y57596046D01*
X27385300Y57794066D01*
X27385301Y57794071D01*
X27405583Y57999997D01*
X27834417Y57999997D01*
X27854698Y57794071D01*
X27854699Y57794066D01*
X27914768Y57596046D01*
X28012316Y57413548D01*
X28143585Y57253596D01*
X28143590Y57253590D01*
X28143595Y57253586D01*
X28303547Y57122317D01*
X28303548Y57122317D01*
X28303550Y57122315D01*
X28486046Y57024768D01*
X28623997Y56982922D01*
X28684065Y56964700D01*
X28684070Y56964699D01*
X28889997Y56944417D01*
X28890000Y56944417D01*
X28890003Y56944417D01*
X29095929Y56964699D01*
X29095934Y56964700D01*
X29112611Y56969759D01*
X29293954Y57024768D01*
X29476450Y57122315D01*
X29636410Y57253590D01*
X29767685Y57413550D01*
X29865232Y57596046D01*
X29925300Y57794066D01*
X29925301Y57794071D01*
X29945583Y57999997D01*
X29945583Y58000004D01*
X29925301Y58205930D01*
X29925300Y58205935D01*
X29887423Y58330798D01*
X29865232Y58403954D01*
X29767685Y58586450D01*
X29636410Y58746410D01*
X29636404Y58746415D01*
X29476452Y58877684D01*
X29293954Y58975232D01*
X29095934Y59035301D01*
X29095929Y59035302D01*
X28890003Y59055583D01*
X28889997Y59055583D01*
X28684070Y59035302D01*
X28684065Y59035301D01*
X28486045Y58975232D01*
X28303547Y58877684D01*
X28143595Y58746415D01*
X28143585Y58746405D01*
X28012316Y58586453D01*
X27914768Y58403955D01*
X27854699Y58205935D01*
X27854698Y58205930D01*
X27834417Y58000004D01*
X27834417Y57999997D01*
X27405583Y57999997D01*
X27405583Y58000004D01*
X27385301Y58205930D01*
X27385300Y58205935D01*
X27347423Y58330798D01*
X27325232Y58403954D01*
X27227685Y58586450D01*
X27096410Y58746410D01*
X27096404Y58746415D01*
X26936452Y58877684D01*
X26753954Y58975232D01*
X26555934Y59035301D01*
X26555929Y59035302D01*
X26350003Y59055583D01*
X26349997Y59055583D01*
X26144070Y59035302D01*
X26144065Y59035301D01*
X25946045Y58975232D01*
X25763547Y58877684D01*
X25603595Y58746415D01*
X25603585Y58746405D01*
X25472316Y58586453D01*
X25374768Y58403955D01*
X25314699Y58205935D01*
X25314698Y58205930D01*
X25294417Y58000004D01*
X25294417Y57999997D01*
X24865583Y57999997D01*
X24865583Y58000004D01*
X24845301Y58205930D01*
X24845300Y58205935D01*
X24807423Y58330798D01*
X24785232Y58403954D01*
X24687685Y58586450D01*
X24556410Y58746410D01*
X24556404Y58746415D01*
X24396452Y58877684D01*
X24213954Y58975232D01*
X24015934Y59035301D01*
X24015929Y59035302D01*
X23810003Y59055583D01*
X23809997Y59055583D01*
X23604070Y59035302D01*
X23604065Y59035301D01*
X23406045Y58975232D01*
X23223547Y58877684D01*
X23063595Y58746415D01*
X23063585Y58746405D01*
X22932316Y58586453D01*
X22834768Y58403955D01*
X22774699Y58205935D01*
X22774698Y58205930D01*
X22754417Y58000004D01*
X22754417Y57999997D01*
X22325583Y57999997D01*
X22325583Y58000004D01*
X22305301Y58205930D01*
X22305300Y58205935D01*
X22267423Y58330798D01*
X22245232Y58403954D01*
X22147685Y58586450D01*
X22016410Y58746410D01*
X22016404Y58746415D01*
X21856452Y58877684D01*
X21673954Y58975232D01*
X21475934Y59035301D01*
X21475929Y59035302D01*
X21270003Y59055583D01*
X21269997Y59055583D01*
X21064070Y59035302D01*
X21064065Y59035301D01*
X20866045Y58975232D01*
X20683547Y58877684D01*
X20523595Y58746415D01*
X20523585Y58746405D01*
X20392316Y58586453D01*
X20294768Y58403955D01*
X20234699Y58205935D01*
X20234698Y58205930D01*
X20214417Y58000004D01*
X20214417Y57999997D01*
X19785583Y57999997D01*
X19785583Y58000004D01*
X19765301Y58205930D01*
X19765300Y58205935D01*
X19727423Y58330798D01*
X19705232Y58403954D01*
X19607685Y58586450D01*
X19476410Y58746410D01*
X19476404Y58746415D01*
X19316452Y58877684D01*
X19133954Y58975232D01*
X18935934Y59035301D01*
X18935929Y59035302D01*
X18730003Y59055583D01*
X18729997Y59055583D01*
X18524070Y59035302D01*
X18524065Y59035301D01*
X18326045Y58975232D01*
X18143547Y58877684D01*
X17983595Y58746415D01*
X17983585Y58746405D01*
X17852316Y58586453D01*
X17754768Y58403955D01*
X17694699Y58205935D01*
X17694698Y58205930D01*
X17674417Y58000004D01*
X17674417Y57999997D01*
X17245583Y57999997D01*
X17245583Y58000004D01*
X17225301Y58205930D01*
X17225300Y58205935D01*
X17187423Y58330798D01*
X17165232Y58403954D01*
X17067685Y58586450D01*
X16936410Y58746410D01*
X16936404Y58746415D01*
X16776452Y58877684D01*
X16593954Y58975232D01*
X16395934Y59035301D01*
X16395929Y59035302D01*
X16190003Y59055583D01*
X16189997Y59055583D01*
X15984070Y59035302D01*
X15984065Y59035301D01*
X15786045Y58975232D01*
X15603547Y58877684D01*
X15443595Y58746415D01*
X15443585Y58746405D01*
X15312316Y58586453D01*
X15214768Y58403955D01*
X15154699Y58205935D01*
X15154698Y58205930D01*
X15134417Y58000004D01*
X15134417Y57999997D01*
X14705583Y57999997D01*
X14705583Y58000004D01*
X14685301Y58205930D01*
X14685300Y58205935D01*
X14647423Y58330798D01*
X14625232Y58403954D01*
X14527685Y58586450D01*
X14396410Y58746410D01*
X14396404Y58746415D01*
X14236452Y58877684D01*
X14053954Y58975232D01*
X13855934Y59035301D01*
X13855929Y59035302D01*
X13650003Y59055583D01*
X13649997Y59055583D01*
X13444070Y59035302D01*
X13444065Y59035301D01*
X13246045Y58975232D01*
X13063547Y58877684D01*
X12903595Y58746415D01*
X12903585Y58746405D01*
X12772316Y58586453D01*
X12674768Y58403955D01*
X12614699Y58205935D01*
X12614698Y58205930D01*
X12594417Y58000004D01*
X12594417Y57999997D01*
X11610000Y57999997D01*
X11610000Y58071889D01*
X11587065Y58150000D01*
X12209999Y58150000D01*
X12210000Y58150001D01*
X12210000Y58874623D01*
X12209999Y58874625D01*
X12195493Y58947547D01*
X12195492Y58947549D01*
X12140241Y59030238D01*
X12140237Y59030242D01*
X12057548Y59085493D01*
X12057546Y59085494D01*
X11984624Y59100000D01*
X11260001Y59100000D01*
X11260000Y59099999D01*
X11260000Y58481171D01*
X11252315Y58484680D01*
X11145763Y58500000D01*
X11074237Y58500000D01*
X10967685Y58484680D01*
X10960000Y58481171D01*
X10960000Y59099999D01*
X10959999Y59100000D01*
X10235375Y59100000D01*
X10162453Y59085494D01*
X10162451Y59085493D01*
X10079762Y59030242D01*
X10079758Y59030238D01*
X10024507Y58947549D01*
X10024506Y58947547D01*
X10010000Y58874625D01*
X10010000Y58150001D01*
X10010001Y58150000D01*
X10632935Y58150000D01*
X10610000Y58071889D01*
X10610000Y57928111D01*
X10632935Y57850000D01*
X10010001Y57850000D01*
X10010000Y57849999D01*
X10010000Y57125376D01*
X300500Y57125376D01*
X300500Y58496110D01*
X300805Y58503877D01*
X302691Y58527844D01*
X314656Y58679885D01*
X317083Y58695210D01*
X357390Y58863101D01*
X362186Y58877860D01*
X428259Y59037375D01*
X435300Y59051193D01*
X525518Y59198417D01*
X534635Y59210965D01*
X646767Y59342254D01*
X657749Y59353235D01*
X789035Y59465365D01*
X801583Y59474482D01*
X948807Y59564700D01*
X962625Y59571741D01*
X1122140Y59637814D01*
X1136899Y59642610D01*
X1304790Y59682917D01*
X1320115Y59685344D01*
X1496123Y59699196D01*
X1503890Y59699500D01*
X1547594Y59699500D01*
X38452405Y59699500D01*
X38496107Y59699500D01*
X38503874Y59699195D01*
G37*
%TD.AperFunction*%
%TD*%
M02*
