%TF.GenerationSoftware,KiCad,Pcbnew,7.0.11+dfsg-1build4*%
%TF.CreationDate,2026-09-26T07:37:13+00:00*%
%TF.ProjectId,trinketcore,7472696e-6b65-4746-936f-72652e6b6963,rev?*%
%TF.SameCoordinates,Original*%
%TF.FileFunction,Soldermask,Bot*%
%TF.FilePolarity,Negative*%
%FSLAX46Y46*%
G04 Gerber Fmt 4.6, Leading zero omitted, Abs format (unit mm)*
G04 Created by KiCad (PCBNEW 7.0.11+dfsg-1build4) date 2026-09-26 07:37:13*
%MOMM*%
%LPD*%
G01*
G04 APERTURE LIST*
G04 Aperture macros list*
%AMRoundRect*
0 Rectangle with rounded corners*
0 $1 Rounding radius*
0 $2 $3 $4 $5 $6 $7 $8 $9 X,Y pos of 4 corners*
0 Add a 4 corners polygon primitive as box body*
4,1,4,$2,$3,$4,$5,$6,$7,$8,$9,$2,$3,0*
0 Add four circle primitives for the rounded corners*
1,1,$1+$1,$2,$3*
1,1,$1+$1,$4,$5*
1,1,$1+$1,$6,$7*
1,1,$1+$1,$8,$9*
0 Add four rect primitives between the rounded corners*
20,1,$1+$1,$2,$3,$4,$5,0*
20,1,$1+$1,$4,$5,$6,$7,0*
20,1,$1+$1,$6,$7,$8,$9,0*
20,1,$1+$1,$8,$9,$2,$3,0*%
G04 Aperture macros list end*
%ADD10R,1.700000X1.700000*%
%ADD11O,1.700000X1.700000*%
%ADD12R,1.800000X1.800000*%
%ADD13R,1.600000X1.600000*%
%ADD14C,1.600000*%
%ADD15C,1.800000*%
%ADD16C,0.650000*%
%ADD17O,1.000000X2.100000*%
%ADD18O,1.000000X1.600000*%
%ADD19RoundRect,0.250000X-0.625000X0.350000X-0.625000X-0.350000X0.625000X-0.350000X0.625000X0.350000X0*%
%ADD20O,1.750000X1.200000*%
G04 APERTURE END LIST*
D10*
%TO.C,J6*%
X38000000Y44000000D03*
D11*
X38000000Y41460000D03*
X38000000Y38920000D03*
X38000000Y36380000D03*
X38000000Y33840000D03*
X38000000Y31300000D03*
X38000000Y28760000D03*
X38000000Y26220000D03*
X38000000Y23680000D03*
X38000000Y21140000D03*
X38000000Y18600000D03*
X38000000Y16060000D03*
X38000000Y13520000D03*
X38000000Y10980000D03*
%TD*%
D12*
%TO.C,BT1*%
X5000000Y49000000D03*
D13*
X2000000Y49000000D03*
D14*
X2000000Y45500000D03*
D15*
X5000000Y44000000D03*
%TD*%
D12*
%TO.C,BT2*%
X5000000Y32000000D03*
D13*
X2000000Y32000000D03*
D14*
X2000000Y28500000D03*
D15*
X5000000Y27000000D03*
%TD*%
D16*
%TO.C,J1*%
X17110000Y5650000D03*
X22890000Y5650000D03*
D17*
X15680000Y6180000D03*
D18*
X15680000Y2000000D03*
D17*
X24320000Y6180000D03*
D18*
X24320000Y2000000D03*
%TD*%
D19*
%TO.C,J7*%
X3500000Y20500000D03*
D20*
X3500000Y18500000D03*
%TD*%
D10*
%TO.C,J5*%
X16190000Y54200000D03*
D11*
X18730000Y54200000D03*
X21270000Y54200000D03*
X23810000Y54200000D03*
%TD*%
D10*
%TO.C,J4*%
X11110000Y58000000D03*
D11*
X13650000Y58000000D03*
X16190000Y58000000D03*
X18730000Y58000000D03*
X21270000Y58000000D03*
X23810000Y58000000D03*
X26350000Y58000000D03*
X28890000Y58000000D03*
%TD*%
M02*
