%TF.GenerationSoftware,KiCad,Pcbnew,7.0.11+dfsg-1build4*%
%TF.CreationDate,2026-09-26T07:37:13+00:00*%
%TF.ProjectId,trinketcore,7472696e-6b65-4746-936f-72652e6b6963,rev?*%
%TF.SameCoordinates,Original*%
%TF.FileFunction,Legend,Bot*%
%TF.FilePolarity,Positive*%
%FSLAX46Y46*%
G04 Gerber Fmt 4.6, Leading zero omitted, Abs format (unit mm)*
G04 Created by KiCad (PCBNEW 7.0.11+dfsg-1build4) date 2026-09-26 07:37:13*
%MOMM*%
%LPD*%
G01*
G04 APERTURE LIST*
G04 Aperture macros list*
%AMRoundRect*
0 Rectangle with rounded corners*
0 $1 Rounding radius*
0 $2 $3 $4 $5 $6 $7 $8 $9 X,Y pos of 4 corners*
0 Add a 4 corners polygon primitive as box body*
4,1,4,$2,$3,$4,$5,$6,$7,$8,$9,$2,$3,0*
0 Add four circle primitives for the rounded corners*
1,1,$1+$1,$2,$3*
1,1,$1+$1,$4,$5*
1,1,$1+$1,$6,$7*
1,1,$1+$1,$8,$9*
0 Add four rect primitives between the rounded corners*
20,1,$1+$1,$2,$3,$4,$5,0*
20,1,$1+$1,$4,$5,$6,$7,0*
20,1,$1+$1,$6,$7,$8,$9,0*
20,1,$1+$1,$8,$9,$2,$3,0*%
G04 Aperture macros list end*
%ADD10C,0.150000*%
%ADD11C,0.200000*%
%ADD12C,0.250000*%
%ADD13R,1.700000X1.700000*%
%ADD14O,1.700000X1.700000*%
%ADD15R,1.800000X1.800000*%
%ADD16R,1.600000X1.600000*%
%ADD17C,1.600000*%
%ADD18C,1.800000*%
%ADD19C,0.650000*%
%ADD20O,1.000000X2.100000*%
%ADD21O,1.000000X1.600000*%
%ADD22RoundRect,0.250000X-0.625000X0.350000X-0.625000X-0.350000X0.625000X-0.350000X0.625000X0.350000X0*%
%ADD23O,1.750000X1.200000*%
G04 APERTURE END LIST*
D10*
X8199999Y12800000D02*
X9200000Y12800000D01*
X9200000Y11800000D01*
X8199999Y11800000D01*
X8199999Y12800000D01*
X8199999Y14400000D02*
X9200000Y14400000D01*
X9200000Y13400000D01*
X8199999Y13400000D01*
X8199999Y14400000D01*
X7600000Y37400000D02*
X33000000Y37400000D01*
X33000000Y21600000D01*
X7600000Y21600000D01*
X7600000Y37400000D01*
X7600000Y51500000D02*
X33000000Y51500000D01*
X33000000Y38800000D01*
X7600000Y38800000D01*
X7600000Y51500000D01*
X8780951Y48926134D02*
X8019047Y48926134D01*
X8399999Y48545181D02*
X8399999Y49307086D01*
X35891792Y29159610D02*
X35967982Y29197705D01*
X35967982Y29197705D02*
X36082268Y29197705D01*
X36082268Y29197705D02*
X36196554Y29159610D01*
X36196554Y29159610D02*
X36272744Y29083420D01*
X36272744Y29083420D02*
X36310839Y29007229D01*
X36310839Y29007229D02*
X36348935Y28854848D01*
X36348935Y28854848D02*
X36348935Y28740562D01*
X36348935Y28740562D02*
X36310839Y28588181D01*
X36310839Y28588181D02*
X36272744Y28511991D01*
X36272744Y28511991D02*
X36196554Y28435800D01*
X36196554Y28435800D02*
X36082268Y28397705D01*
X36082268Y28397705D02*
X36006077Y28397705D01*
X36006077Y28397705D02*
X35891792Y28435800D01*
X35891792Y28435800D02*
X35853696Y28473896D01*
X35853696Y28473896D02*
X35853696Y28740562D01*
X35853696Y28740562D02*
X36006077Y28740562D01*
X35510839Y28397705D02*
X35510839Y29197705D01*
X35510839Y29197705D02*
X35206077Y29197705D01*
X35206077Y29197705D02*
X35129887Y29159610D01*
X35129887Y29159610D02*
X35091792Y29121515D01*
X35091792Y29121515D02*
X35053696Y29045324D01*
X35053696Y29045324D02*
X35053696Y28931039D01*
X35053696Y28931039D02*
X35091792Y28854848D01*
X35091792Y28854848D02*
X35129887Y28816753D01*
X35129887Y28816753D02*
X35206077Y28778658D01*
X35206077Y28778658D02*
X35510839Y28778658D01*
X34291792Y28397705D02*
X34748935Y28397705D01*
X34520363Y28397705D02*
X34520363Y29197705D01*
X34520363Y29197705D02*
X34596554Y29083420D01*
X34596554Y29083420D02*
X34672744Y29007229D01*
X34672744Y29007229D02*
X34748935Y28969134D01*
X15779636Y12356753D02*
X15512970Y12356753D01*
X15398684Y11937705D02*
X15779636Y11937705D01*
X15779636Y11937705D02*
X15779636Y12737705D01*
X15779636Y12737705D02*
X15398684Y12737705D01*
X15055826Y11937705D02*
X15055826Y12737705D01*
X15055826Y12737705D02*
X14865350Y12737705D01*
X14865350Y12737705D02*
X14751064Y12699610D01*
X14751064Y12699610D02*
X14674874Y12623420D01*
X14674874Y12623420D02*
X14636779Y12547229D01*
X14636779Y12547229D02*
X14598683Y12394848D01*
X14598683Y12394848D02*
X14598683Y12280562D01*
X14598683Y12280562D02*
X14636779Y12128181D01*
X14636779Y12128181D02*
X14674874Y12051991D01*
X14674874Y12051991D02*
X14751064Y11975800D01*
X14751064Y11975800D02*
X14865350Y11937705D01*
X14865350Y11937705D02*
X15055826Y11937705D01*
X13874874Y11937705D02*
X14255826Y11937705D01*
X14255826Y11937705D02*
X14255826Y12737705D01*
X13151064Y12013896D02*
X13189160Y11975800D01*
X13189160Y11975800D02*
X13303445Y11937705D01*
X13303445Y11937705D02*
X13379636Y11937705D01*
X13379636Y11937705D02*
X13493922Y11975800D01*
X13493922Y11975800D02*
X13570112Y12051991D01*
X13570112Y12051991D02*
X13608207Y12128181D01*
X13608207Y12128181D02*
X13646303Y12280562D01*
X13646303Y12280562D02*
X13646303Y12394848D01*
X13646303Y12394848D02*
X13608207Y12547229D01*
X13608207Y12547229D02*
X13570112Y12623420D01*
X13570112Y12623420D02*
X13493922Y12699610D01*
X13493922Y12699610D02*
X13379636Y12737705D01*
X13379636Y12737705D02*
X13303445Y12737705D01*
X13303445Y12737705D02*
X13189160Y12699610D01*
X13189160Y12699610D02*
X13151064Y12661515D01*
X12236779Y12661515D02*
X12198683Y12699610D01*
X12198683Y12699610D02*
X12122493Y12737705D01*
X12122493Y12737705D02*
X11932017Y12737705D01*
X11932017Y12737705D02*
X11855826Y12699610D01*
X11855826Y12699610D02*
X11817731Y12661515D01*
X11817731Y12661515D02*
X11779636Y12585324D01*
X11779636Y12585324D02*
X11779636Y12509134D01*
X11779636Y12509134D02*
X11817731Y12394848D01*
X11817731Y12394848D02*
X12274874Y11937705D01*
X12274874Y11937705D02*
X11779636Y11937705D01*
X11436778Y12013896D02*
X11398683Y11975800D01*
X11398683Y11975800D02*
X11436778Y11937705D01*
X11436778Y11937705D02*
X11474874Y11975800D01*
X11474874Y11975800D02*
X11436778Y12013896D01*
X11436778Y12013896D02*
X11436778Y11937705D01*
X11132017Y12737705D02*
X10598683Y12737705D01*
X10598683Y12737705D02*
X10941541Y11937705D01*
X10408207Y12737705D02*
X10141540Y11937705D01*
X10141540Y11937705D02*
X9874874Y12737705D01*
X32123811Y44087706D02*
X32504763Y44087706D01*
X32504763Y44087706D02*
X32504763Y44887706D01*
X31857144Y44087706D02*
X31857144Y44887706D01*
X31019049Y44163897D02*
X31057145Y44125801D01*
X31057145Y44125801D02*
X31171430Y44087706D01*
X31171430Y44087706D02*
X31247621Y44087706D01*
X31247621Y44087706D02*
X31361907Y44125801D01*
X31361907Y44125801D02*
X31438097Y44201992D01*
X31438097Y44201992D02*
X31476192Y44278182D01*
X31476192Y44278182D02*
X31514288Y44430563D01*
X31514288Y44430563D02*
X31514288Y44544849D01*
X31514288Y44544849D02*
X31476192Y44697230D01*
X31476192Y44697230D02*
X31438097Y44773421D01*
X31438097Y44773421D02*
X31361907Y44849611D01*
X31361907Y44849611D02*
X31247621Y44887706D01*
X31247621Y44887706D02*
X31171430Y44887706D01*
X31171430Y44887706D02*
X31057145Y44849611D01*
X31057145Y44849611D02*
X31019049Y44811516D01*
X30142859Y44887706D02*
X29647621Y44887706D01*
X29647621Y44887706D02*
X29914287Y44582944D01*
X29914287Y44582944D02*
X29800002Y44582944D01*
X29800002Y44582944D02*
X29723811Y44544849D01*
X29723811Y44544849D02*
X29685716Y44506754D01*
X29685716Y44506754D02*
X29647621Y44430563D01*
X29647621Y44430563D02*
X29647621Y44240087D01*
X29647621Y44240087D02*
X29685716Y44163897D01*
X29685716Y44163897D02*
X29723811Y44125801D01*
X29723811Y44125801D02*
X29800002Y44087706D01*
X29800002Y44087706D02*
X30028573Y44087706D01*
X30028573Y44087706D02*
X30104764Y44125801D01*
X30104764Y44125801D02*
X30142859Y44163897D01*
X29304763Y44163897D02*
X29266668Y44125801D01*
X29266668Y44125801D02*
X29304763Y44087706D01*
X29304763Y44087706D02*
X29342859Y44125801D01*
X29342859Y44125801D02*
X29304763Y44163897D01*
X29304763Y44163897D02*
X29304763Y44087706D01*
X28809526Y44544849D02*
X28885716Y44582944D01*
X28885716Y44582944D02*
X28923811Y44621040D01*
X28923811Y44621040D02*
X28961907Y44697230D01*
X28961907Y44697230D02*
X28961907Y44735325D01*
X28961907Y44735325D02*
X28923811Y44811516D01*
X28923811Y44811516D02*
X28885716Y44849611D01*
X28885716Y44849611D02*
X28809526Y44887706D01*
X28809526Y44887706D02*
X28657145Y44887706D01*
X28657145Y44887706D02*
X28580954Y44849611D01*
X28580954Y44849611D02*
X28542859Y44811516D01*
X28542859Y44811516D02*
X28504764Y44735325D01*
X28504764Y44735325D02*
X28504764Y44697230D01*
X28504764Y44697230D02*
X28542859Y44621040D01*
X28542859Y44621040D02*
X28580954Y44582944D01*
X28580954Y44582944D02*
X28657145Y44544849D01*
X28657145Y44544849D02*
X28809526Y44544849D01*
X28809526Y44544849D02*
X28885716Y44506754D01*
X28885716Y44506754D02*
X28923811Y44468659D01*
X28923811Y44468659D02*
X28961907Y44392468D01*
X28961907Y44392468D02*
X28961907Y44240087D01*
X28961907Y44240087D02*
X28923811Y44163897D01*
X28923811Y44163897D02*
X28885716Y44125801D01*
X28885716Y44125801D02*
X28809526Y44087706D01*
X28809526Y44087706D02*
X28657145Y44087706D01*
X28657145Y44087706D02*
X28580954Y44125801D01*
X28580954Y44125801D02*
X28542859Y44163897D01*
X28542859Y44163897D02*
X28504764Y44240087D01*
X28504764Y44240087D02*
X28504764Y44392468D01*
X28504764Y44392468D02*
X28542859Y44468659D01*
X28542859Y44468659D02*
X28580954Y44506754D01*
X28580954Y44506754D02*
X28657145Y44544849D01*
X27666668Y44887706D02*
X27400001Y44087706D01*
X27400001Y44087706D02*
X27133335Y44887706D01*
X26028573Y43782944D02*
X26066668Y43821040D01*
X26066668Y43821040D02*
X26142859Y43935325D01*
X26142859Y43935325D02*
X26180954Y44011516D01*
X26180954Y44011516D02*
X26219049Y44125801D01*
X26219049Y44125801D02*
X26257144Y44316278D01*
X26257144Y44316278D02*
X26257144Y44468659D01*
X26257144Y44468659D02*
X26219049Y44659135D01*
X26219049Y44659135D02*
X26180954Y44773421D01*
X26180954Y44773421D02*
X26142859Y44849611D01*
X26142859Y44849611D02*
X26066668Y44963897D01*
X26066668Y44963897D02*
X26028573Y45001992D01*
X25609526Y44087706D02*
X25685716Y44125801D01*
X25685716Y44125801D02*
X25723811Y44163897D01*
X25723811Y44163897D02*
X25761907Y44240087D01*
X25761907Y44240087D02*
X25761907Y44468659D01*
X25761907Y44468659D02*
X25723811Y44544849D01*
X25723811Y44544849D02*
X25685716Y44582944D01*
X25685716Y44582944D02*
X25609526Y44621040D01*
X25609526Y44621040D02*
X25495240Y44621040D01*
X25495240Y44621040D02*
X25419049Y44582944D01*
X25419049Y44582944D02*
X25380954Y44544849D01*
X25380954Y44544849D02*
X25342859Y44468659D01*
X25342859Y44468659D02*
X25342859Y44240087D01*
X25342859Y44240087D02*
X25380954Y44163897D01*
X25380954Y44163897D02*
X25419049Y44125801D01*
X25419049Y44125801D02*
X25495240Y44087706D01*
X25495240Y44087706D02*
X25609526Y44087706D01*
X25000001Y44087706D02*
X25000001Y44621040D01*
X25000001Y44468659D02*
X24961906Y44544849D01*
X24961906Y44544849D02*
X24923811Y44582944D01*
X24923811Y44582944D02*
X24847620Y44621040D01*
X24847620Y44621040D02*
X24771430Y44621040D01*
X23895239Y44506754D02*
X23628573Y44506754D01*
X23514287Y44087706D02*
X23895239Y44087706D01*
X23895239Y44087706D02*
X23895239Y44887706D01*
X23895239Y44887706D02*
X23514287Y44887706D01*
X23171429Y44087706D02*
X23171429Y44887706D01*
X23171429Y44887706D02*
X22980953Y44887706D01*
X22980953Y44887706D02*
X22866667Y44849611D01*
X22866667Y44849611D02*
X22790477Y44773421D01*
X22790477Y44773421D02*
X22752382Y44697230D01*
X22752382Y44697230D02*
X22714286Y44544849D01*
X22714286Y44544849D02*
X22714286Y44430563D01*
X22714286Y44430563D02*
X22752382Y44278182D01*
X22752382Y44278182D02*
X22790477Y44201992D01*
X22790477Y44201992D02*
X22866667Y44125801D01*
X22866667Y44125801D02*
X22980953Y44087706D01*
X22980953Y44087706D02*
X23171429Y44087706D01*
X21990477Y44087706D02*
X22371429Y44087706D01*
X22371429Y44087706D02*
X22371429Y44887706D01*
X21266667Y44163897D02*
X21304763Y44125801D01*
X21304763Y44125801D02*
X21419048Y44087706D01*
X21419048Y44087706D02*
X21495239Y44087706D01*
X21495239Y44087706D02*
X21609525Y44125801D01*
X21609525Y44125801D02*
X21685715Y44201992D01*
X21685715Y44201992D02*
X21723810Y44278182D01*
X21723810Y44278182D02*
X21761906Y44430563D01*
X21761906Y44430563D02*
X21761906Y44544849D01*
X21761906Y44544849D02*
X21723810Y44697230D01*
X21723810Y44697230D02*
X21685715Y44773421D01*
X21685715Y44773421D02*
X21609525Y44849611D01*
X21609525Y44849611D02*
X21495239Y44887706D01*
X21495239Y44887706D02*
X21419048Y44887706D01*
X21419048Y44887706D02*
X21304763Y44849611D01*
X21304763Y44849611D02*
X21266667Y44811516D01*
X20200001Y44087706D02*
X20276191Y44125801D01*
X20276191Y44125801D02*
X20314286Y44163897D01*
X20314286Y44163897D02*
X20352382Y44240087D01*
X20352382Y44240087D02*
X20352382Y44468659D01*
X20352382Y44468659D02*
X20314286Y44544849D01*
X20314286Y44544849D02*
X20276191Y44582944D01*
X20276191Y44582944D02*
X20200001Y44621040D01*
X20200001Y44621040D02*
X20085715Y44621040D01*
X20085715Y44621040D02*
X20009524Y44582944D01*
X20009524Y44582944D02*
X19971429Y44544849D01*
X19971429Y44544849D02*
X19933334Y44468659D01*
X19933334Y44468659D02*
X19933334Y44240087D01*
X19933334Y44240087D02*
X19971429Y44163897D01*
X19971429Y44163897D02*
X20009524Y44125801D01*
X20009524Y44125801D02*
X20085715Y44087706D01*
X20085715Y44087706D02*
X20200001Y44087706D01*
X19590476Y44621040D02*
X19590476Y44087706D01*
X19590476Y44544849D02*
X19552381Y44582944D01*
X19552381Y44582944D02*
X19476191Y44621040D01*
X19476191Y44621040D02*
X19361905Y44621040D01*
X19361905Y44621040D02*
X19285714Y44582944D01*
X19285714Y44582944D02*
X19247619Y44506754D01*
X19247619Y44506754D02*
X19247619Y44087706D01*
X17914285Y44087706D02*
X17914285Y44506754D01*
X17914285Y44506754D02*
X17952380Y44582944D01*
X17952380Y44582944D02*
X18028571Y44621040D01*
X18028571Y44621040D02*
X18180952Y44621040D01*
X18180952Y44621040D02*
X18257142Y44582944D01*
X17914285Y44125801D02*
X17990476Y44087706D01*
X17990476Y44087706D02*
X18180952Y44087706D01*
X18180952Y44087706D02*
X18257142Y44125801D01*
X18257142Y44125801D02*
X18295238Y44201992D01*
X18295238Y44201992D02*
X18295238Y44278182D01*
X18295238Y44278182D02*
X18257142Y44354373D01*
X18257142Y44354373D02*
X18180952Y44392468D01*
X18180952Y44392468D02*
X17990476Y44392468D01*
X17990476Y44392468D02*
X17914285Y44430563D01*
X17533332Y44621040D02*
X17533332Y44087706D01*
X17533332Y44544849D02*
X17495237Y44582944D01*
X17495237Y44582944D02*
X17419047Y44621040D01*
X17419047Y44621040D02*
X17304761Y44621040D01*
X17304761Y44621040D02*
X17228570Y44582944D01*
X17228570Y44582944D02*
X17190475Y44506754D01*
X17190475Y44506754D02*
X17190475Y44087706D01*
X16199998Y44506754D02*
X15933332Y44506754D01*
X15819046Y44087706D02*
X16199998Y44087706D01*
X16199998Y44087706D02*
X16199998Y44887706D01*
X16199998Y44887706D02*
X15819046Y44887706D01*
X15476188Y44087706D02*
X15476188Y44887706D01*
X15476188Y44887706D02*
X15285712Y44887706D01*
X15285712Y44887706D02*
X15171426Y44849611D01*
X15171426Y44849611D02*
X15095236Y44773421D01*
X15095236Y44773421D02*
X15057141Y44697230D01*
X15057141Y44697230D02*
X15019045Y44544849D01*
X15019045Y44544849D02*
X15019045Y44430563D01*
X15019045Y44430563D02*
X15057141Y44278182D01*
X15057141Y44278182D02*
X15095236Y44201992D01*
X15095236Y44201992D02*
X15171426Y44125801D01*
X15171426Y44125801D02*
X15285712Y44087706D01*
X15285712Y44087706D02*
X15476188Y44087706D01*
X14295236Y44087706D02*
X14676188Y44087706D01*
X14676188Y44087706D02*
X14676188Y44887706D01*
X13571426Y44163897D02*
X13609522Y44125801D01*
X13609522Y44125801D02*
X13723807Y44087706D01*
X13723807Y44087706D02*
X13799998Y44087706D01*
X13799998Y44087706D02*
X13914284Y44125801D01*
X13914284Y44125801D02*
X13990474Y44201992D01*
X13990474Y44201992D02*
X14028569Y44278182D01*
X14028569Y44278182D02*
X14066665Y44430563D01*
X14066665Y44430563D02*
X14066665Y44544849D01*
X14066665Y44544849D02*
X14028569Y44697230D01*
X14028569Y44697230D02*
X13990474Y44773421D01*
X13990474Y44773421D02*
X13914284Y44849611D01*
X13914284Y44849611D02*
X13799998Y44887706D01*
X13799998Y44887706D02*
X13723807Y44887706D01*
X13723807Y44887706D02*
X13609522Y44849611D01*
X13609522Y44849611D02*
X13571426Y44811516D01*
X12619045Y44087706D02*
X12619045Y44887706D01*
X12619045Y44582944D02*
X12542855Y44621040D01*
X12542855Y44621040D02*
X12390474Y44621040D01*
X12390474Y44621040D02*
X12314283Y44582944D01*
X12314283Y44582944D02*
X12276188Y44544849D01*
X12276188Y44544849D02*
X12238093Y44468659D01*
X12238093Y44468659D02*
X12238093Y44240087D01*
X12238093Y44240087D02*
X12276188Y44163897D01*
X12276188Y44163897D02*
X12314283Y44125801D01*
X12314283Y44125801D02*
X12390474Y44087706D01*
X12390474Y44087706D02*
X12542855Y44087706D01*
X12542855Y44087706D02*
X12619045Y44125801D01*
X11552378Y44621040D02*
X11552378Y44087706D01*
X11895235Y44621040D02*
X11895235Y44201992D01*
X11895235Y44201992D02*
X11857140Y44125801D01*
X11857140Y44125801D02*
X11780950Y44087706D01*
X11780950Y44087706D02*
X11666664Y44087706D01*
X11666664Y44087706D02*
X11590473Y44125801D01*
X11590473Y44125801D02*
X11552378Y44163897D01*
X11171425Y44087706D02*
X11171425Y44621040D01*
X11171425Y44887706D02*
X11209521Y44849611D01*
X11209521Y44849611D02*
X11171425Y44811516D01*
X11171425Y44811516D02*
X11133330Y44849611D01*
X11133330Y44849611D02*
X11171425Y44887706D01*
X11171425Y44887706D02*
X11171425Y44811516D01*
X10676188Y44087706D02*
X10752378Y44125801D01*
X10752378Y44125801D02*
X10790473Y44201992D01*
X10790473Y44201992D02*
X10790473Y44887706D01*
X10028568Y44087706D02*
X10028568Y44887706D01*
X10028568Y44125801D02*
X10104759Y44087706D01*
X10104759Y44087706D02*
X10257140Y44087706D01*
X10257140Y44087706D02*
X10333330Y44125801D01*
X10333330Y44125801D02*
X10371425Y44163897D01*
X10371425Y44163897D02*
X10409521Y44240087D01*
X10409521Y44240087D02*
X10409521Y44468659D01*
X10409521Y44468659D02*
X10371425Y44544849D01*
X10371425Y44544849D02*
X10333330Y44582944D01*
X10333330Y44582944D02*
X10257140Y44621040D01*
X10257140Y44621040D02*
X10104759Y44621040D01*
X10104759Y44621040D02*
X10028568Y44582944D01*
X9723806Y43782944D02*
X9685711Y43821040D01*
X9685711Y43821040D02*
X9609520Y43935325D01*
X9609520Y43935325D02*
X9571425Y44011516D01*
X9571425Y44011516D02*
X9533330Y44125801D01*
X9533330Y44125801D02*
X9495234Y44316278D01*
X9495234Y44316278D02*
X9495234Y44468659D01*
X9495234Y44468659D02*
X9533330Y44659135D01*
X9533330Y44659135D02*
X9571425Y44773421D01*
X9571425Y44773421D02*
X9609520Y44849611D01*
X9609520Y44849611D02*
X9685711Y44963897D01*
X9685711Y44963897D02*
X9723806Y45001992D01*
X17142380Y55725800D02*
X17028094Y55687705D01*
X17028094Y55687705D02*
X16837618Y55687705D01*
X16837618Y55687705D02*
X16761427Y55725800D01*
X16761427Y55725800D02*
X16723332Y55763896D01*
X16723332Y55763896D02*
X16685237Y55840086D01*
X16685237Y55840086D02*
X16685237Y55916277D01*
X16685237Y55916277D02*
X16723332Y55992467D01*
X16723332Y55992467D02*
X16761427Y56030562D01*
X16761427Y56030562D02*
X16837618Y56068658D01*
X16837618Y56068658D02*
X16989999Y56106753D01*
X16989999Y56106753D02*
X17066189Y56144848D01*
X17066189Y56144848D02*
X17104284Y56182943D01*
X17104284Y56182943D02*
X17142380Y56259134D01*
X17142380Y56259134D02*
X17142380Y56335324D01*
X17142380Y56335324D02*
X17104284Y56411515D01*
X17104284Y56411515D02*
X17066189Y56449610D01*
X17066189Y56449610D02*
X16989999Y56487705D01*
X16989999Y56487705D02*
X16799522Y56487705D01*
X16799522Y56487705D02*
X16685237Y56449610D01*
X15885236Y55763896D02*
X15923332Y55725800D01*
X15923332Y55725800D02*
X16037617Y55687705D01*
X16037617Y55687705D02*
X16113808Y55687705D01*
X16113808Y55687705D02*
X16228094Y55725800D01*
X16228094Y55725800D02*
X16304284Y55801991D01*
X16304284Y55801991D02*
X16342379Y55878181D01*
X16342379Y55878181D02*
X16380475Y56030562D01*
X16380475Y56030562D02*
X16380475Y56144848D01*
X16380475Y56144848D02*
X16342379Y56297229D01*
X16342379Y56297229D02*
X16304284Y56373420D01*
X16304284Y56373420D02*
X16228094Y56449610D01*
X16228094Y56449610D02*
X16113808Y56487705D01*
X16113808Y56487705D02*
X16037617Y56487705D01*
X16037617Y56487705D02*
X15923332Y56449610D01*
X15923332Y56449610D02*
X15885236Y56411515D01*
X15161427Y55687705D02*
X15542379Y55687705D01*
X15542379Y55687705D02*
X15542379Y56487705D01*
X24781428Y52025800D02*
X24667142Y51987705D01*
X24667142Y51987705D02*
X24476666Y51987705D01*
X24476666Y51987705D02*
X24400475Y52025800D01*
X24400475Y52025800D02*
X24362380Y52063896D01*
X24362380Y52063896D02*
X24324285Y52140086D01*
X24324285Y52140086D02*
X24324285Y52216277D01*
X24324285Y52216277D02*
X24362380Y52292467D01*
X24362380Y52292467D02*
X24400475Y52330562D01*
X24400475Y52330562D02*
X24476666Y52368658D01*
X24476666Y52368658D02*
X24629047Y52406753D01*
X24629047Y52406753D02*
X24705237Y52444848D01*
X24705237Y52444848D02*
X24743332Y52482943D01*
X24743332Y52482943D02*
X24781428Y52559134D01*
X24781428Y52559134D02*
X24781428Y52635324D01*
X24781428Y52635324D02*
X24743332Y52711515D01*
X24743332Y52711515D02*
X24705237Y52749610D01*
X24705237Y52749610D02*
X24629047Y52787705D01*
X24629047Y52787705D02*
X24438570Y52787705D01*
X24438570Y52787705D02*
X24324285Y52749610D01*
X23981427Y51987705D02*
X23981427Y52787705D01*
X23981427Y52787705D02*
X23790951Y52787705D01*
X23790951Y52787705D02*
X23676665Y52749610D01*
X23676665Y52749610D02*
X23600475Y52673420D01*
X23600475Y52673420D02*
X23562380Y52597229D01*
X23562380Y52597229D02*
X23524284Y52444848D01*
X23524284Y52444848D02*
X23524284Y52330562D01*
X23524284Y52330562D02*
X23562380Y52178181D01*
X23562380Y52178181D02*
X23600475Y52101991D01*
X23600475Y52101991D02*
X23676665Y52025800D01*
X23676665Y52025800D02*
X23790951Y51987705D01*
X23790951Y51987705D02*
X23981427Y51987705D01*
X23219523Y52216277D02*
X22838570Y52216277D01*
X23295713Y51987705D02*
X23029046Y52787705D01*
X23029046Y52787705D02*
X22762380Y51987705D01*
X8780951Y31926134D02*
X8019047Y31926134D01*
X8399999Y31545181D02*
X8399999Y32307086D01*
X24419523Y55687705D02*
X24419523Y56487705D01*
X24419523Y56487705D02*
X24229047Y56487705D01*
X24229047Y56487705D02*
X24114761Y56449610D01*
X24114761Y56449610D02*
X24038571Y56373420D01*
X24038571Y56373420D02*
X24000476Y56297229D01*
X24000476Y56297229D02*
X23962380Y56144848D01*
X23962380Y56144848D02*
X23962380Y56030562D01*
X23962380Y56030562D02*
X24000476Y55878181D01*
X24000476Y55878181D02*
X24038571Y55801991D01*
X24038571Y55801991D02*
X24114761Y55725800D01*
X24114761Y55725800D02*
X24229047Y55687705D01*
X24229047Y55687705D02*
X24419523Y55687705D01*
X23162380Y55763896D02*
X23200476Y55725800D01*
X23200476Y55725800D02*
X23314761Y55687705D01*
X23314761Y55687705D02*
X23390952Y55687705D01*
X23390952Y55687705D02*
X23505238Y55725800D01*
X23505238Y55725800D02*
X23581428Y55801991D01*
X23581428Y55801991D02*
X23619523Y55878181D01*
X23619523Y55878181D02*
X23657619Y56030562D01*
X23657619Y56030562D02*
X23657619Y56144848D01*
X23657619Y56144848D02*
X23619523Y56297229D01*
X23619523Y56297229D02*
X23581428Y56373420D01*
X23581428Y56373420D02*
X23505238Y56449610D01*
X23505238Y56449610D02*
X23390952Y56487705D01*
X23390952Y56487705D02*
X23314761Y56487705D01*
X23314761Y56487705D02*
X23200476Y56449610D01*
X23200476Y56449610D02*
X23162380Y56411515D01*
X29556666Y56106753D02*
X29442380Y56068658D01*
X29442380Y56068658D02*
X29404285Y56030562D01*
X29404285Y56030562D02*
X29366189Y55954372D01*
X29366189Y55954372D02*
X29366189Y55840086D01*
X29366189Y55840086D02*
X29404285Y55763896D01*
X29404285Y55763896D02*
X29442380Y55725800D01*
X29442380Y55725800D02*
X29518570Y55687705D01*
X29518570Y55687705D02*
X29823332Y55687705D01*
X29823332Y55687705D02*
X29823332Y56487705D01*
X29823332Y56487705D02*
X29556666Y56487705D01*
X29556666Y56487705D02*
X29480475Y56449610D01*
X29480475Y56449610D02*
X29442380Y56411515D01*
X29442380Y56411515D02*
X29404285Y56335324D01*
X29404285Y56335324D02*
X29404285Y56259134D01*
X29404285Y56259134D02*
X29442380Y56182943D01*
X29442380Y56182943D02*
X29480475Y56144848D01*
X29480475Y56144848D02*
X29556666Y56106753D01*
X29556666Y56106753D02*
X29823332Y56106753D01*
X28642380Y55687705D02*
X29023332Y55687705D01*
X29023332Y55687705D02*
X29023332Y56487705D01*
X28375713Y55687705D02*
X28375713Y56487705D01*
X27918570Y55687705D02*
X28261428Y56144848D01*
X27918570Y56487705D02*
X28375713Y56030562D01*
X19701428Y55725800D02*
X19587142Y55687705D01*
X19587142Y55687705D02*
X19396666Y55687705D01*
X19396666Y55687705D02*
X19320475Y55725800D01*
X19320475Y55725800D02*
X19282380Y55763896D01*
X19282380Y55763896D02*
X19244285Y55840086D01*
X19244285Y55840086D02*
X19244285Y55916277D01*
X19244285Y55916277D02*
X19282380Y55992467D01*
X19282380Y55992467D02*
X19320475Y56030562D01*
X19320475Y56030562D02*
X19396666Y56068658D01*
X19396666Y56068658D02*
X19549047Y56106753D01*
X19549047Y56106753D02*
X19625237Y56144848D01*
X19625237Y56144848D02*
X19663332Y56182943D01*
X19663332Y56182943D02*
X19701428Y56259134D01*
X19701428Y56259134D02*
X19701428Y56335324D01*
X19701428Y56335324D02*
X19663332Y56411515D01*
X19663332Y56411515D02*
X19625237Y56449610D01*
X19625237Y56449610D02*
X19549047Y56487705D01*
X19549047Y56487705D02*
X19358570Y56487705D01*
X19358570Y56487705D02*
X19244285Y56449610D01*
X18901427Y55687705D02*
X18901427Y56487705D01*
X18901427Y56487705D02*
X18710951Y56487705D01*
X18710951Y56487705D02*
X18596665Y56449610D01*
X18596665Y56449610D02*
X18520475Y56373420D01*
X18520475Y56373420D02*
X18482380Y56297229D01*
X18482380Y56297229D02*
X18444284Y56144848D01*
X18444284Y56144848D02*
X18444284Y56030562D01*
X18444284Y56030562D02*
X18482380Y55878181D01*
X18482380Y55878181D02*
X18520475Y55801991D01*
X18520475Y55801991D02*
X18596665Y55725800D01*
X18596665Y55725800D02*
X18710951Y55687705D01*
X18710951Y55687705D02*
X18901427Y55687705D01*
X18139523Y55916277D02*
X17758570Y55916277D01*
X18215713Y55687705D02*
X17949046Y56487705D01*
X17949046Y56487705D02*
X17682380Y55687705D01*
X21765237Y55687705D02*
X22031904Y56068658D01*
X22222380Y55687705D02*
X22222380Y56487705D01*
X22222380Y56487705D02*
X21917618Y56487705D01*
X21917618Y56487705D02*
X21841428Y56449610D01*
X21841428Y56449610D02*
X21803333Y56411515D01*
X21803333Y56411515D02*
X21765237Y56335324D01*
X21765237Y56335324D02*
X21765237Y56221039D01*
X21765237Y56221039D02*
X21803333Y56144848D01*
X21803333Y56144848D02*
X21841428Y56106753D01*
X21841428Y56106753D02*
X21917618Y56068658D01*
X21917618Y56068658D02*
X22222380Y56068658D01*
X21422380Y56106753D02*
X21155714Y56106753D01*
X21041428Y55687705D02*
X21422380Y55687705D01*
X21422380Y55687705D02*
X21422380Y56487705D01*
X21422380Y56487705D02*
X21041428Y56487705D01*
X20736666Y55725800D02*
X20622380Y55687705D01*
X20622380Y55687705D02*
X20431904Y55687705D01*
X20431904Y55687705D02*
X20355713Y55725800D01*
X20355713Y55725800D02*
X20317618Y55763896D01*
X20317618Y55763896D02*
X20279523Y55840086D01*
X20279523Y55840086D02*
X20279523Y55916277D01*
X20279523Y55916277D02*
X20317618Y55992467D01*
X20317618Y55992467D02*
X20355713Y56030562D01*
X20355713Y56030562D02*
X20431904Y56068658D01*
X20431904Y56068658D02*
X20584285Y56106753D01*
X20584285Y56106753D02*
X20660475Y56144848D01*
X20660475Y56144848D02*
X20698570Y56182943D01*
X20698570Y56182943D02*
X20736666Y56259134D01*
X20736666Y56259134D02*
X20736666Y56335324D01*
X20736666Y56335324D02*
X20698570Y56411515D01*
X20698570Y56411515D02*
X20660475Y56449610D01*
X20660475Y56449610D02*
X20584285Y56487705D01*
X20584285Y56487705D02*
X20393808Y56487705D01*
X20393808Y56487705D02*
X20279523Y56449610D01*
X35891792Y26619610D02*
X35967982Y26657705D01*
X35967982Y26657705D02*
X36082268Y26657705D01*
X36082268Y26657705D02*
X36196554Y26619610D01*
X36196554Y26619610D02*
X36272744Y26543420D01*
X36272744Y26543420D02*
X36310839Y26467229D01*
X36310839Y26467229D02*
X36348935Y26314848D01*
X36348935Y26314848D02*
X36348935Y26200562D01*
X36348935Y26200562D02*
X36310839Y26048181D01*
X36310839Y26048181D02*
X36272744Y25971991D01*
X36272744Y25971991D02*
X36196554Y25895800D01*
X36196554Y25895800D02*
X36082268Y25857705D01*
X36082268Y25857705D02*
X36006077Y25857705D01*
X36006077Y25857705D02*
X35891792Y25895800D01*
X35891792Y25895800D02*
X35853696Y25933896D01*
X35853696Y25933896D02*
X35853696Y26200562D01*
X35853696Y26200562D02*
X36006077Y26200562D01*
X35510839Y25857705D02*
X35510839Y26657705D01*
X35510839Y26657705D02*
X35206077Y26657705D01*
X35206077Y26657705D02*
X35129887Y26619610D01*
X35129887Y26619610D02*
X35091792Y26581515D01*
X35091792Y26581515D02*
X35053696Y26505324D01*
X35053696Y26505324D02*
X35053696Y26391039D01*
X35053696Y26391039D02*
X35091792Y26314848D01*
X35091792Y26314848D02*
X35129887Y26276753D01*
X35129887Y26276753D02*
X35206077Y26238658D01*
X35206077Y26238658D02*
X35510839Y26238658D01*
X34558458Y26657705D02*
X34482268Y26657705D01*
X34482268Y26657705D02*
X34406077Y26619610D01*
X34406077Y26619610D02*
X34367982Y26581515D01*
X34367982Y26581515D02*
X34329887Y26505324D01*
X34329887Y26505324D02*
X34291792Y26352943D01*
X34291792Y26352943D02*
X34291792Y26162467D01*
X34291792Y26162467D02*
X34329887Y26010086D01*
X34329887Y26010086D02*
X34367982Y25933896D01*
X34367982Y25933896D02*
X34406077Y25895800D01*
X34406077Y25895800D02*
X34482268Y25857705D01*
X34482268Y25857705D02*
X34558458Y25857705D01*
X34558458Y25857705D02*
X34634649Y25895800D01*
X34634649Y25895800D02*
X34672744Y25933896D01*
X34672744Y25933896D02*
X34710839Y26010086D01*
X34710839Y26010086D02*
X34748935Y26162467D01*
X34748935Y26162467D02*
X34748935Y26352943D01*
X34748935Y26352943D02*
X34710839Y26505324D01*
X34710839Y26505324D02*
X34672744Y26581515D01*
X34672744Y26581515D02*
X34634649Y26619610D01*
X34634649Y26619610D02*
X34558458Y26657705D01*
X35891792Y31699610D02*
X35967982Y31737705D01*
X35967982Y31737705D02*
X36082268Y31737705D01*
X36082268Y31737705D02*
X36196554Y31699610D01*
X36196554Y31699610D02*
X36272744Y31623420D01*
X36272744Y31623420D02*
X36310839Y31547229D01*
X36310839Y31547229D02*
X36348935Y31394848D01*
X36348935Y31394848D02*
X36348935Y31280562D01*
X36348935Y31280562D02*
X36310839Y31128181D01*
X36310839Y31128181D02*
X36272744Y31051991D01*
X36272744Y31051991D02*
X36196554Y30975800D01*
X36196554Y30975800D02*
X36082268Y30937705D01*
X36082268Y30937705D02*
X36006077Y30937705D01*
X36006077Y30937705D02*
X35891792Y30975800D01*
X35891792Y30975800D02*
X35853696Y31013896D01*
X35853696Y31013896D02*
X35853696Y31280562D01*
X35853696Y31280562D02*
X36006077Y31280562D01*
X35510839Y30937705D02*
X35510839Y31737705D01*
X35510839Y31737705D02*
X35206077Y31737705D01*
X35206077Y31737705D02*
X35129887Y31699610D01*
X35129887Y31699610D02*
X35091792Y31661515D01*
X35091792Y31661515D02*
X35053696Y31585324D01*
X35053696Y31585324D02*
X35053696Y31471039D01*
X35053696Y31471039D02*
X35091792Y31394848D01*
X35091792Y31394848D02*
X35129887Y31356753D01*
X35129887Y31356753D02*
X35206077Y31318658D01*
X35206077Y31318658D02*
X35510839Y31318658D01*
X34748935Y31661515D02*
X34710839Y31699610D01*
X34710839Y31699610D02*
X34634649Y31737705D01*
X34634649Y31737705D02*
X34444173Y31737705D01*
X34444173Y31737705D02*
X34367982Y31699610D01*
X34367982Y31699610D02*
X34329887Y31661515D01*
X34329887Y31661515D02*
X34291792Y31585324D01*
X34291792Y31585324D02*
X34291792Y31509134D01*
X34291792Y31509134D02*
X34329887Y31394848D01*
X34329887Y31394848D02*
X34787030Y30937705D01*
X34787030Y30937705D02*
X34291792Y30937705D01*
X8780951Y43926134D02*
X8019047Y43926134D01*
X35891792Y34239610D02*
X35967982Y34277705D01*
X35967982Y34277705D02*
X36082268Y34277705D01*
X36082268Y34277705D02*
X36196554Y34239610D01*
X36196554Y34239610D02*
X36272744Y34163420D01*
X36272744Y34163420D02*
X36310839Y34087229D01*
X36310839Y34087229D02*
X36348935Y33934848D01*
X36348935Y33934848D02*
X36348935Y33820562D01*
X36348935Y33820562D02*
X36310839Y33668181D01*
X36310839Y33668181D02*
X36272744Y33591991D01*
X36272744Y33591991D02*
X36196554Y33515800D01*
X36196554Y33515800D02*
X36082268Y33477705D01*
X36082268Y33477705D02*
X36006077Y33477705D01*
X36006077Y33477705D02*
X35891792Y33515800D01*
X35891792Y33515800D02*
X35853696Y33553896D01*
X35853696Y33553896D02*
X35853696Y33820562D01*
X35853696Y33820562D02*
X36006077Y33820562D01*
X35510839Y33477705D02*
X35510839Y34277705D01*
X35510839Y34277705D02*
X35206077Y34277705D01*
X35206077Y34277705D02*
X35129887Y34239610D01*
X35129887Y34239610D02*
X35091792Y34201515D01*
X35091792Y34201515D02*
X35053696Y34125324D01*
X35053696Y34125324D02*
X35053696Y34011039D01*
X35053696Y34011039D02*
X35091792Y33934848D01*
X35091792Y33934848D02*
X35129887Y33896753D01*
X35129887Y33896753D02*
X35206077Y33858658D01*
X35206077Y33858658D02*
X35510839Y33858658D01*
X34787030Y34277705D02*
X34291792Y34277705D01*
X34291792Y34277705D02*
X34558458Y33972943D01*
X34558458Y33972943D02*
X34444173Y33972943D01*
X34444173Y33972943D02*
X34367982Y33934848D01*
X34367982Y33934848D02*
X34329887Y33896753D01*
X34329887Y33896753D02*
X34291792Y33820562D01*
X34291792Y33820562D02*
X34291792Y33630086D01*
X34291792Y33630086D02*
X34329887Y33553896D01*
X34329887Y33553896D02*
X34367982Y33515800D01*
X34367982Y33515800D02*
X34444173Y33477705D01*
X34444173Y33477705D02*
X34672744Y33477705D01*
X34672744Y33477705D02*
X34748935Y33515800D01*
X34748935Y33515800D02*
X34787030Y33553896D01*
X28666667Y10437705D02*
X28666667Y9866277D01*
X28666667Y9866277D02*
X28704762Y9751991D01*
X28704762Y9751991D02*
X28780953Y9675800D01*
X28780953Y9675800D02*
X28895238Y9637705D01*
X28895238Y9637705D02*
X28971429Y9637705D01*
X28285714Y9637705D02*
X28285714Y10437705D01*
X28285714Y10437705D02*
X27980952Y10437705D01*
X27980952Y10437705D02*
X27904762Y10399610D01*
X27904762Y10399610D02*
X27866667Y10361515D01*
X27866667Y10361515D02*
X27828571Y10285324D01*
X27828571Y10285324D02*
X27828571Y10171039D01*
X27828571Y10171039D02*
X27866667Y10094848D01*
X27866667Y10094848D02*
X27904762Y10056753D01*
X27904762Y10056753D02*
X27980952Y10018658D01*
X27980952Y10018658D02*
X28285714Y10018658D01*
X27066667Y9637705D02*
X27523810Y9637705D01*
X27295238Y9637705D02*
X27295238Y10437705D01*
X27295238Y10437705D02*
X27371429Y10323420D01*
X27371429Y10323420D02*
X27447619Y10247229D01*
X27447619Y10247229D02*
X27523810Y10209134D01*
X25771428Y9675800D02*
X25847619Y9637705D01*
X25847619Y9637705D02*
X26000000Y9637705D01*
X26000000Y9637705D02*
X26076190Y9675800D01*
X26076190Y9675800D02*
X26114285Y9713896D01*
X26114285Y9713896D02*
X26152381Y9790086D01*
X26152381Y9790086D02*
X26152381Y10018658D01*
X26152381Y10018658D02*
X26114285Y10094848D01*
X26114285Y10094848D02*
X26076190Y10132943D01*
X26076190Y10132943D02*
X26000000Y10171039D01*
X26000000Y10171039D02*
X25847619Y10171039D01*
X25847619Y10171039D02*
X25771428Y10132943D01*
X25085714Y10171039D02*
X25085714Y9637705D01*
X25428571Y10171039D02*
X25428571Y9751991D01*
X25428571Y9751991D02*
X25390476Y9675800D01*
X25390476Y9675800D02*
X25314286Y9637705D01*
X25314286Y9637705D02*
X25200000Y9637705D01*
X25200000Y9637705D02*
X25123809Y9675800D01*
X25123809Y9675800D02*
X25085714Y9713896D01*
X24819047Y10171039D02*
X24514285Y10171039D01*
X24704761Y10437705D02*
X24704761Y9751991D01*
X24704761Y9751991D02*
X24666666Y9675800D01*
X24666666Y9675800D02*
X24590476Y9637705D01*
X24590476Y9637705D02*
X24514285Y9637705D01*
X24247618Y9713896D02*
X24209523Y9675800D01*
X24209523Y9675800D02*
X24247618Y9637705D01*
X24247618Y9637705D02*
X24285714Y9675800D01*
X24285714Y9675800D02*
X24247618Y9713896D01*
X24247618Y9713896D02*
X24247618Y9637705D01*
X24247618Y10132943D02*
X24209523Y10094848D01*
X24209523Y10094848D02*
X24247618Y10056753D01*
X24247618Y10056753D02*
X24285714Y10094848D01*
X24285714Y10094848D02*
X24247618Y10132943D01*
X24247618Y10132943D02*
X24247618Y10056753D01*
X23257142Y10437705D02*
X23257142Y9790086D01*
X23257142Y9790086D02*
X23219047Y9713896D01*
X23219047Y9713896D02*
X23180952Y9675800D01*
X23180952Y9675800D02*
X23104761Y9637705D01*
X23104761Y9637705D02*
X22952380Y9637705D01*
X22952380Y9637705D02*
X22876190Y9675800D01*
X22876190Y9675800D02*
X22838095Y9713896D01*
X22838095Y9713896D02*
X22799999Y9790086D01*
X22799999Y9790086D02*
X22799999Y10437705D01*
X22457143Y9675800D02*
X22342857Y9637705D01*
X22342857Y9637705D02*
X22152381Y9637705D01*
X22152381Y9637705D02*
X22076190Y9675800D01*
X22076190Y9675800D02*
X22038095Y9713896D01*
X22038095Y9713896D02*
X22000000Y9790086D01*
X22000000Y9790086D02*
X22000000Y9866277D01*
X22000000Y9866277D02*
X22038095Y9942467D01*
X22038095Y9942467D02*
X22076190Y9980562D01*
X22076190Y9980562D02*
X22152381Y10018658D01*
X22152381Y10018658D02*
X22304762Y10056753D01*
X22304762Y10056753D02*
X22380952Y10094848D01*
X22380952Y10094848D02*
X22419047Y10132943D01*
X22419047Y10132943D02*
X22457143Y10209134D01*
X22457143Y10209134D02*
X22457143Y10285324D01*
X22457143Y10285324D02*
X22419047Y10361515D01*
X22419047Y10361515D02*
X22380952Y10399610D01*
X22380952Y10399610D02*
X22304762Y10437705D01*
X22304762Y10437705D02*
X22114285Y10437705D01*
X22114285Y10437705D02*
X22000000Y10399610D01*
X21390476Y10056753D02*
X21276190Y10018658D01*
X21276190Y10018658D02*
X21238095Y9980562D01*
X21238095Y9980562D02*
X21199999Y9904372D01*
X21199999Y9904372D02*
X21199999Y9790086D01*
X21199999Y9790086D02*
X21238095Y9713896D01*
X21238095Y9713896D02*
X21276190Y9675800D01*
X21276190Y9675800D02*
X21352380Y9637705D01*
X21352380Y9637705D02*
X21657142Y9637705D01*
X21657142Y9637705D02*
X21657142Y10437705D01*
X21657142Y10437705D02*
X21390476Y10437705D01*
X21390476Y10437705D02*
X21314285Y10399610D01*
X21314285Y10399610D02*
X21276190Y10361515D01*
X21276190Y10361515D02*
X21238095Y10285324D01*
X21238095Y10285324D02*
X21238095Y10209134D01*
X21238095Y10209134D02*
X21276190Y10132943D01*
X21276190Y10132943D02*
X21314285Y10094848D01*
X21314285Y10094848D02*
X21390476Y10056753D01*
X21390476Y10056753D02*
X21657142Y10056753D01*
X20323809Y10171039D02*
X20171428Y9637705D01*
X20171428Y9637705D02*
X20019047Y10018658D01*
X20019047Y10018658D02*
X19866666Y9637705D01*
X19866666Y9637705D02*
X19714285Y10171039D01*
X19295238Y9637705D02*
X19371428Y9675800D01*
X19371428Y9675800D02*
X19409523Y9713896D01*
X19409523Y9713896D02*
X19447619Y9790086D01*
X19447619Y9790086D02*
X19447619Y10018658D01*
X19447619Y10018658D02*
X19409523Y10094848D01*
X19409523Y10094848D02*
X19371428Y10132943D01*
X19371428Y10132943D02*
X19295238Y10171039D01*
X19295238Y10171039D02*
X19180952Y10171039D01*
X19180952Y10171039D02*
X19104761Y10132943D01*
X19104761Y10132943D02*
X19066666Y10094848D01*
X19066666Y10094848D02*
X19028571Y10018658D01*
X19028571Y10018658D02*
X19028571Y9790086D01*
X19028571Y9790086D02*
X19066666Y9713896D01*
X19066666Y9713896D02*
X19104761Y9675800D01*
X19104761Y9675800D02*
X19180952Y9637705D01*
X19180952Y9637705D02*
X19295238Y9637705D01*
X18685713Y10171039D02*
X18685713Y9637705D01*
X18685713Y10094848D02*
X18647618Y10132943D01*
X18647618Y10132943D02*
X18571428Y10171039D01*
X18571428Y10171039D02*
X18457142Y10171039D01*
X18457142Y10171039D02*
X18380951Y10132943D01*
X18380951Y10132943D02*
X18342856Y10056753D01*
X18342856Y10056753D02*
X18342856Y9637705D01*
X17923808Y10437705D02*
X17999999Y10285324D01*
X17695237Y10171039D02*
X17390475Y10171039D01*
X17580951Y10437705D02*
X17580951Y9751991D01*
X17580951Y9751991D02*
X17542856Y9675800D01*
X17542856Y9675800D02*
X17466666Y9637705D01*
X17466666Y9637705D02*
X17390475Y9637705D01*
X16552380Y9675800D02*
X16476189Y9637705D01*
X16476189Y9637705D02*
X16323808Y9637705D01*
X16323808Y9637705D02*
X16247618Y9675800D01*
X16247618Y9675800D02*
X16209522Y9751991D01*
X16209522Y9751991D02*
X16209522Y9790086D01*
X16209522Y9790086D02*
X16247618Y9866277D01*
X16247618Y9866277D02*
X16323808Y9904372D01*
X16323808Y9904372D02*
X16438094Y9904372D01*
X16438094Y9904372D02*
X16514284Y9942467D01*
X16514284Y9942467D02*
X16552380Y10018658D01*
X16552380Y10018658D02*
X16552380Y10056753D01*
X16552380Y10056753D02*
X16514284Y10132943D01*
X16514284Y10132943D02*
X16438094Y10171039D01*
X16438094Y10171039D02*
X16323808Y10171039D01*
X16323808Y10171039D02*
X16247618Y10132943D01*
X15942856Y10171039D02*
X15790475Y9637705D01*
X15790475Y9637705D02*
X15638094Y10018658D01*
X15638094Y10018658D02*
X15485713Y9637705D01*
X15485713Y9637705D02*
X15333332Y10171039D01*
X15028570Y9637705D02*
X15028570Y10171039D01*
X15028570Y10437705D02*
X15066666Y10399610D01*
X15066666Y10399610D02*
X15028570Y10361515D01*
X15028570Y10361515D02*
X14990475Y10399610D01*
X14990475Y10399610D02*
X15028570Y10437705D01*
X15028570Y10437705D02*
X15028570Y10361515D01*
X14761904Y10171039D02*
X14457142Y10171039D01*
X14647618Y10437705D02*
X14647618Y9751991D01*
X14647618Y9751991D02*
X14609523Y9675800D01*
X14609523Y9675800D02*
X14533333Y9637705D01*
X14533333Y9637705D02*
X14457142Y9637705D01*
X13847618Y9675800D02*
X13923809Y9637705D01*
X13923809Y9637705D02*
X14076190Y9637705D01*
X14076190Y9637705D02*
X14152380Y9675800D01*
X14152380Y9675800D02*
X14190475Y9713896D01*
X14190475Y9713896D02*
X14228571Y9790086D01*
X14228571Y9790086D02*
X14228571Y10018658D01*
X14228571Y10018658D02*
X14190475Y10094848D01*
X14190475Y10094848D02*
X14152380Y10132943D01*
X14152380Y10132943D02*
X14076190Y10171039D01*
X14076190Y10171039D02*
X13923809Y10171039D01*
X13923809Y10171039D02*
X13847618Y10132943D01*
X13504761Y9637705D02*
X13504761Y10437705D01*
X13161904Y9637705D02*
X13161904Y10056753D01*
X13161904Y10056753D02*
X13199999Y10132943D01*
X13199999Y10132943D02*
X13276190Y10171039D01*
X13276190Y10171039D02*
X13390476Y10171039D01*
X13390476Y10171039D02*
X13466666Y10132943D01*
X13466666Y10132943D02*
X13504761Y10094848D01*
X12057142Y9637705D02*
X12133332Y9675800D01*
X12133332Y9675800D02*
X12171427Y9713896D01*
X12171427Y9713896D02*
X12209523Y9790086D01*
X12209523Y9790086D02*
X12209523Y10018658D01*
X12209523Y10018658D02*
X12171427Y10094848D01*
X12171427Y10094848D02*
X12133332Y10132943D01*
X12133332Y10132943D02*
X12057142Y10171039D01*
X12057142Y10171039D02*
X11942856Y10171039D01*
X11942856Y10171039D02*
X11866665Y10132943D01*
X11866665Y10132943D02*
X11828570Y10094848D01*
X11828570Y10094848D02*
X11790475Y10018658D01*
X11790475Y10018658D02*
X11790475Y9790086D01*
X11790475Y9790086D02*
X11828570Y9713896D01*
X11828570Y9713896D02*
X11866665Y9675800D01*
X11866665Y9675800D02*
X11942856Y9637705D01*
X11942856Y9637705D02*
X12057142Y9637705D01*
X11447617Y10171039D02*
X11447617Y9637705D01*
X11447617Y10094848D02*
X11409522Y10132943D01*
X11409522Y10132943D02*
X11333332Y10171039D01*
X11333332Y10171039D02*
X11219046Y10171039D01*
X11219046Y10171039D02*
X11142855Y10132943D01*
X11142855Y10132943D02*
X11104760Y10056753D01*
X11104760Y10056753D02*
X11104760Y9637705D01*
X19796666Y52787705D02*
X19529999Y51987705D01*
X19529999Y51987705D02*
X19263333Y52787705D01*
X18539523Y52063896D02*
X18577619Y52025800D01*
X18577619Y52025800D02*
X18691904Y51987705D01*
X18691904Y51987705D02*
X18768095Y51987705D01*
X18768095Y51987705D02*
X18882381Y52025800D01*
X18882381Y52025800D02*
X18958571Y52101991D01*
X18958571Y52101991D02*
X18996666Y52178181D01*
X18996666Y52178181D02*
X19034762Y52330562D01*
X19034762Y52330562D02*
X19034762Y52444848D01*
X19034762Y52444848D02*
X18996666Y52597229D01*
X18996666Y52597229D02*
X18958571Y52673420D01*
X18958571Y52673420D02*
X18882381Y52749610D01*
X18882381Y52749610D02*
X18768095Y52787705D01*
X18768095Y52787705D02*
X18691904Y52787705D01*
X18691904Y52787705D02*
X18577619Y52749610D01*
X18577619Y52749610D02*
X18539523Y52711515D01*
X17739523Y52063896D02*
X17777619Y52025800D01*
X17777619Y52025800D02*
X17891904Y51987705D01*
X17891904Y51987705D02*
X17968095Y51987705D01*
X17968095Y51987705D02*
X18082381Y52025800D01*
X18082381Y52025800D02*
X18158571Y52101991D01*
X18158571Y52101991D02*
X18196666Y52178181D01*
X18196666Y52178181D02*
X18234762Y52330562D01*
X18234762Y52330562D02*
X18234762Y52444848D01*
X18234762Y52444848D02*
X18196666Y52597229D01*
X18196666Y52597229D02*
X18158571Y52673420D01*
X18158571Y52673420D02*
X18082381Y52749610D01*
X18082381Y52749610D02*
X17968095Y52787705D01*
X17968095Y52787705D02*
X17891904Y52787705D01*
X17891904Y52787705D02*
X17777619Y52749610D01*
X17777619Y52749610D02*
X17739523Y52711515D01*
X36387030Y19037705D02*
X36196554Y18237705D01*
X36196554Y18237705D02*
X36044173Y18809134D01*
X36044173Y18809134D02*
X35891792Y18237705D01*
X35891792Y18237705D02*
X35701316Y19037705D01*
X35434649Y18466277D02*
X35053696Y18466277D01*
X35510839Y18237705D02*
X35244172Y19037705D01*
X35244172Y19037705D02*
X34977506Y18237705D01*
X34710839Y18237705D02*
X34710839Y19037705D01*
X34253696Y18237705D02*
X34596554Y18694848D01*
X34253696Y19037705D02*
X34710839Y18580562D01*
X33910839Y18656753D02*
X33644173Y18656753D01*
X33529887Y18237705D02*
X33910839Y18237705D01*
X33910839Y18237705D02*
X33910839Y19037705D01*
X33910839Y19037705D02*
X33529887Y19037705D01*
X14716665Y56487705D02*
X14449998Y55687705D01*
X14449998Y55687705D02*
X14183332Y56487705D01*
X13459522Y55763896D02*
X13497618Y55725800D01*
X13497618Y55725800D02*
X13611903Y55687705D01*
X13611903Y55687705D02*
X13688094Y55687705D01*
X13688094Y55687705D02*
X13802380Y55725800D01*
X13802380Y55725800D02*
X13878570Y55801991D01*
X13878570Y55801991D02*
X13916665Y55878181D01*
X13916665Y55878181D02*
X13954761Y56030562D01*
X13954761Y56030562D02*
X13954761Y56144848D01*
X13954761Y56144848D02*
X13916665Y56297229D01*
X13916665Y56297229D02*
X13878570Y56373420D01*
X13878570Y56373420D02*
X13802380Y56449610D01*
X13802380Y56449610D02*
X13688094Y56487705D01*
X13688094Y56487705D02*
X13611903Y56487705D01*
X13611903Y56487705D02*
X13497618Y56449610D01*
X13497618Y56449610D02*
X13459522Y56411515D01*
X12659522Y55763896D02*
X12697618Y55725800D01*
X12697618Y55725800D02*
X12811903Y55687705D01*
X12811903Y55687705D02*
X12888094Y55687705D01*
X12888094Y55687705D02*
X13002380Y55725800D01*
X13002380Y55725800D02*
X13078570Y55801991D01*
X13078570Y55801991D02*
X13116665Y55878181D01*
X13116665Y55878181D02*
X13154761Y56030562D01*
X13154761Y56030562D02*
X13154761Y56144848D01*
X13154761Y56144848D02*
X13116665Y56297229D01*
X13116665Y56297229D02*
X13078570Y56373420D01*
X13078570Y56373420D02*
X13002380Y56449610D01*
X13002380Y56449610D02*
X12888094Y56487705D01*
X12888094Y56487705D02*
X12811903Y56487705D01*
X12811903Y56487705D02*
X12697618Y56449610D01*
X12697618Y56449610D02*
X12659522Y56411515D01*
X35891792Y21539610D02*
X35967982Y21577705D01*
X35967982Y21577705D02*
X36082268Y21577705D01*
X36082268Y21577705D02*
X36196554Y21539610D01*
X36196554Y21539610D02*
X36272744Y21463420D01*
X36272744Y21463420D02*
X36310839Y21387229D01*
X36310839Y21387229D02*
X36348935Y21234848D01*
X36348935Y21234848D02*
X36348935Y21120562D01*
X36348935Y21120562D02*
X36310839Y20968181D01*
X36310839Y20968181D02*
X36272744Y20891991D01*
X36272744Y20891991D02*
X36196554Y20815800D01*
X36196554Y20815800D02*
X36082268Y20777705D01*
X36082268Y20777705D02*
X36006077Y20777705D01*
X36006077Y20777705D02*
X35891792Y20815800D01*
X35891792Y20815800D02*
X35853696Y20853896D01*
X35853696Y20853896D02*
X35853696Y21120562D01*
X35853696Y21120562D02*
X36006077Y21120562D01*
X35510839Y20777705D02*
X35510839Y21577705D01*
X35510839Y21577705D02*
X35206077Y21577705D01*
X35206077Y21577705D02*
X35129887Y21539610D01*
X35129887Y21539610D02*
X35091792Y21501515D01*
X35091792Y21501515D02*
X35053696Y21425324D01*
X35053696Y21425324D02*
X35053696Y21311039D01*
X35053696Y21311039D02*
X35091792Y21234848D01*
X35091792Y21234848D02*
X35129887Y21196753D01*
X35129887Y21196753D02*
X35206077Y21158658D01*
X35206077Y21158658D02*
X35510839Y21158658D01*
X34748935Y21501515D02*
X34710839Y21539610D01*
X34710839Y21539610D02*
X34634649Y21577705D01*
X34634649Y21577705D02*
X34444173Y21577705D01*
X34444173Y21577705D02*
X34367982Y21539610D01*
X34367982Y21539610D02*
X34329887Y21501515D01*
X34329887Y21501515D02*
X34291792Y21425324D01*
X34291792Y21425324D02*
X34291792Y21349134D01*
X34291792Y21349134D02*
X34329887Y21234848D01*
X34329887Y21234848D02*
X34787030Y20777705D01*
X34787030Y20777705D02*
X34291792Y20777705D01*
X33834649Y21234848D02*
X33910839Y21272943D01*
X33910839Y21272943D02*
X33948934Y21311039D01*
X33948934Y21311039D02*
X33987030Y21387229D01*
X33987030Y21387229D02*
X33987030Y21425324D01*
X33987030Y21425324D02*
X33948934Y21501515D01*
X33948934Y21501515D02*
X33910839Y21539610D01*
X33910839Y21539610D02*
X33834649Y21577705D01*
X33834649Y21577705D02*
X33682268Y21577705D01*
X33682268Y21577705D02*
X33606077Y21539610D01*
X33606077Y21539610D02*
X33567982Y21501515D01*
X33567982Y21501515D02*
X33529887Y21425324D01*
X33529887Y21425324D02*
X33529887Y21387229D01*
X33529887Y21387229D02*
X33567982Y21311039D01*
X33567982Y21311039D02*
X33606077Y21272943D01*
X33606077Y21272943D02*
X33682268Y21234848D01*
X33682268Y21234848D02*
X33834649Y21234848D01*
X33834649Y21234848D02*
X33910839Y21196753D01*
X33910839Y21196753D02*
X33948934Y21158658D01*
X33948934Y21158658D02*
X33987030Y21082467D01*
X33987030Y21082467D02*
X33987030Y20930086D01*
X33987030Y20930086D02*
X33948934Y20853896D01*
X33948934Y20853896D02*
X33910839Y20815800D01*
X33910839Y20815800D02*
X33834649Y20777705D01*
X33834649Y20777705D02*
X33682268Y20777705D01*
X33682268Y20777705D02*
X33606077Y20815800D01*
X33606077Y20815800D02*
X33567982Y20853896D01*
X33567982Y20853896D02*
X33529887Y20930086D01*
X33529887Y20930086D02*
X33529887Y21082467D01*
X33529887Y21082467D02*
X33567982Y21158658D01*
X33567982Y21158658D02*
X33606077Y21196753D01*
X33606077Y21196753D02*
X33682268Y21234848D01*
X28342859Y15675800D02*
X28266668Y15637705D01*
X28266668Y15637705D02*
X28114287Y15637705D01*
X28114287Y15637705D02*
X28038097Y15675800D01*
X28038097Y15675800D02*
X28000001Y15751991D01*
X28000001Y15751991D02*
X28000001Y15790086D01*
X28000001Y15790086D02*
X28038097Y15866277D01*
X28038097Y15866277D02*
X28114287Y15904372D01*
X28114287Y15904372D02*
X28228573Y15904372D01*
X28228573Y15904372D02*
X28304763Y15942467D01*
X28304763Y15942467D02*
X28342859Y16018658D01*
X28342859Y16018658D02*
X28342859Y16056753D01*
X28342859Y16056753D02*
X28304763Y16132943D01*
X28304763Y16132943D02*
X28228573Y16171039D01*
X28228573Y16171039D02*
X28114287Y16171039D01*
X28114287Y16171039D02*
X28038097Y16132943D01*
X27314287Y16171039D02*
X27314287Y15637705D01*
X27657144Y16171039D02*
X27657144Y15751991D01*
X27657144Y15751991D02*
X27619049Y15675800D01*
X27619049Y15675800D02*
X27542859Y15637705D01*
X27542859Y15637705D02*
X27428573Y15637705D01*
X27428573Y15637705D02*
X27352382Y15675800D01*
X27352382Y15675800D02*
X27314287Y15713896D01*
X26933334Y16171039D02*
X26933334Y15371039D01*
X26933334Y16132943D02*
X26857144Y16171039D01*
X26857144Y16171039D02*
X26704763Y16171039D01*
X26704763Y16171039D02*
X26628572Y16132943D01*
X26628572Y16132943D02*
X26590477Y16094848D01*
X26590477Y16094848D02*
X26552382Y16018658D01*
X26552382Y16018658D02*
X26552382Y15790086D01*
X26552382Y15790086D02*
X26590477Y15713896D01*
X26590477Y15713896D02*
X26628572Y15675800D01*
X26628572Y15675800D02*
X26704763Y15637705D01*
X26704763Y15637705D02*
X26857144Y15637705D01*
X26857144Y15637705D02*
X26933334Y15675800D01*
X25904762Y15675800D02*
X25980953Y15637705D01*
X25980953Y15637705D02*
X26133334Y15637705D01*
X26133334Y15637705D02*
X26209524Y15675800D01*
X26209524Y15675800D02*
X26247620Y15751991D01*
X26247620Y15751991D02*
X26247620Y16056753D01*
X26247620Y16056753D02*
X26209524Y16132943D01*
X26209524Y16132943D02*
X26133334Y16171039D01*
X26133334Y16171039D02*
X25980953Y16171039D01*
X25980953Y16171039D02*
X25904762Y16132943D01*
X25904762Y16132943D02*
X25866667Y16056753D01*
X25866667Y16056753D02*
X25866667Y15980562D01*
X25866667Y15980562D02*
X26247620Y15904372D01*
X25523810Y15637705D02*
X25523810Y16171039D01*
X25523810Y16018658D02*
X25485715Y16094848D01*
X25485715Y16094848D02*
X25447620Y16132943D01*
X25447620Y16132943D02*
X25371429Y16171039D01*
X25371429Y16171039D02*
X25295239Y16171039D01*
X24685715Y15675800D02*
X24761906Y15637705D01*
X24761906Y15637705D02*
X24914287Y15637705D01*
X24914287Y15637705D02*
X24990477Y15675800D01*
X24990477Y15675800D02*
X25028572Y15713896D01*
X25028572Y15713896D02*
X25066668Y15790086D01*
X25066668Y15790086D02*
X25066668Y16018658D01*
X25066668Y16018658D02*
X25028572Y16094848D01*
X25028572Y16094848D02*
X24990477Y16132943D01*
X24990477Y16132943D02*
X24914287Y16171039D01*
X24914287Y16171039D02*
X24761906Y16171039D01*
X24761906Y16171039D02*
X24685715Y16132943D01*
X24000001Y15637705D02*
X24000001Y16056753D01*
X24000001Y16056753D02*
X24038096Y16132943D01*
X24038096Y16132943D02*
X24114287Y16171039D01*
X24114287Y16171039D02*
X24266668Y16171039D01*
X24266668Y16171039D02*
X24342858Y16132943D01*
X24000001Y15675800D02*
X24076192Y15637705D01*
X24076192Y15637705D02*
X24266668Y15637705D01*
X24266668Y15637705D02*
X24342858Y15675800D01*
X24342858Y15675800D02*
X24380954Y15751991D01*
X24380954Y15751991D02*
X24380954Y15828181D01*
X24380954Y15828181D02*
X24342858Y15904372D01*
X24342858Y15904372D02*
X24266668Y15942467D01*
X24266668Y15942467D02*
X24076192Y15942467D01*
X24076192Y15942467D02*
X24000001Y15980562D01*
X23619048Y16171039D02*
X23619048Y15371039D01*
X23619048Y16132943D02*
X23542858Y16171039D01*
X23542858Y16171039D02*
X23390477Y16171039D01*
X23390477Y16171039D02*
X23314286Y16132943D01*
X23314286Y16132943D02*
X23276191Y16094848D01*
X23276191Y16094848D02*
X23238096Y16018658D01*
X23238096Y16018658D02*
X23238096Y15790086D01*
X23238096Y15790086D02*
X23276191Y15713896D01*
X23276191Y15713896D02*
X23314286Y15675800D01*
X23314286Y15675800D02*
X23390477Y15637705D01*
X23390477Y15637705D02*
X23542858Y15637705D01*
X23542858Y15637705D02*
X23619048Y15675800D01*
X22400000Y16171039D02*
X22095238Y16171039D01*
X22285714Y16437705D02*
X22285714Y15751991D01*
X22285714Y15751991D02*
X22247619Y15675800D01*
X22247619Y15675800D02*
X22171429Y15637705D01*
X22171429Y15637705D02*
X22095238Y15637705D01*
X21828571Y15637705D02*
X21828571Y16171039D01*
X21828571Y16018658D02*
X21790476Y16094848D01*
X21790476Y16094848D02*
X21752381Y16132943D01*
X21752381Y16132943D02*
X21676190Y16171039D01*
X21676190Y16171039D02*
X21600000Y16171039D01*
X21333333Y15637705D02*
X21333333Y16171039D01*
X21333333Y16437705D02*
X21371429Y16399610D01*
X21371429Y16399610D02*
X21333333Y16361515D01*
X21333333Y16361515D02*
X21295238Y16399610D01*
X21295238Y16399610D02*
X21333333Y16437705D01*
X21333333Y16437705D02*
X21333333Y16361515D01*
X20952381Y16171039D02*
X20952381Y15637705D01*
X20952381Y16094848D02*
X20914286Y16132943D01*
X20914286Y16132943D02*
X20838096Y16171039D01*
X20838096Y16171039D02*
X20723810Y16171039D01*
X20723810Y16171039D02*
X20647619Y16132943D01*
X20647619Y16132943D02*
X20609524Y16056753D01*
X20609524Y16056753D02*
X20609524Y15637705D01*
X20228571Y15637705D02*
X20228571Y16437705D01*
X20152381Y15942467D02*
X19923809Y15637705D01*
X19923809Y16171039D02*
X20228571Y15866277D01*
X19276190Y15675800D02*
X19352381Y15637705D01*
X19352381Y15637705D02*
X19504762Y15637705D01*
X19504762Y15637705D02*
X19580952Y15675800D01*
X19580952Y15675800D02*
X19619048Y15751991D01*
X19619048Y15751991D02*
X19619048Y16056753D01*
X19619048Y16056753D02*
X19580952Y16132943D01*
X19580952Y16132943D02*
X19504762Y16171039D01*
X19504762Y16171039D02*
X19352381Y16171039D01*
X19352381Y16171039D02*
X19276190Y16132943D01*
X19276190Y16132943D02*
X19238095Y16056753D01*
X19238095Y16056753D02*
X19238095Y15980562D01*
X19238095Y15980562D02*
X19619048Y15904372D01*
X19009524Y16171039D02*
X18704762Y16171039D01*
X18895238Y16437705D02*
X18895238Y15751991D01*
X18895238Y15751991D02*
X18857143Y15675800D01*
X18857143Y15675800D02*
X18780953Y15637705D01*
X18780953Y15637705D02*
X18704762Y15637705D01*
X17828571Y15637705D02*
X17828571Y16437705D01*
X17828571Y16132943D02*
X17752381Y16171039D01*
X17752381Y16171039D02*
X17600000Y16171039D01*
X17600000Y16171039D02*
X17523809Y16132943D01*
X17523809Y16132943D02*
X17485714Y16094848D01*
X17485714Y16094848D02*
X17447619Y16018658D01*
X17447619Y16018658D02*
X17447619Y15790086D01*
X17447619Y15790086D02*
X17485714Y15713896D01*
X17485714Y15713896D02*
X17523809Y15675800D01*
X17523809Y15675800D02*
X17600000Y15637705D01*
X17600000Y15637705D02*
X17752381Y15637705D01*
X17752381Y15637705D02*
X17828571Y15675800D01*
X16990476Y15637705D02*
X17066666Y15675800D01*
X17066666Y15675800D02*
X17104761Y15713896D01*
X17104761Y15713896D02*
X17142857Y15790086D01*
X17142857Y15790086D02*
X17142857Y16018658D01*
X17142857Y16018658D02*
X17104761Y16094848D01*
X17104761Y16094848D02*
X17066666Y16132943D01*
X17066666Y16132943D02*
X16990476Y16171039D01*
X16990476Y16171039D02*
X16876190Y16171039D01*
X16876190Y16171039D02*
X16799999Y16132943D01*
X16799999Y16132943D02*
X16761904Y16094848D01*
X16761904Y16094848D02*
X16723809Y16018658D01*
X16723809Y16018658D02*
X16723809Y15790086D01*
X16723809Y15790086D02*
X16761904Y15713896D01*
X16761904Y15713896D02*
X16799999Y15675800D01*
X16799999Y15675800D02*
X16876190Y15637705D01*
X16876190Y15637705D02*
X16990476Y15637705D01*
X16038094Y15637705D02*
X16038094Y16056753D01*
X16038094Y16056753D02*
X16076189Y16132943D01*
X16076189Y16132943D02*
X16152380Y16171039D01*
X16152380Y16171039D02*
X16304761Y16171039D01*
X16304761Y16171039D02*
X16380951Y16132943D01*
X16038094Y15675800D02*
X16114285Y15637705D01*
X16114285Y15637705D02*
X16304761Y15637705D01*
X16304761Y15637705D02*
X16380951Y15675800D01*
X16380951Y15675800D02*
X16419047Y15751991D01*
X16419047Y15751991D02*
X16419047Y15828181D01*
X16419047Y15828181D02*
X16380951Y15904372D01*
X16380951Y15904372D02*
X16304761Y15942467D01*
X16304761Y15942467D02*
X16114285Y15942467D01*
X16114285Y15942467D02*
X16038094Y15980562D01*
X15657141Y15637705D02*
X15657141Y16171039D01*
X15657141Y16018658D02*
X15619046Y16094848D01*
X15619046Y16094848D02*
X15580951Y16132943D01*
X15580951Y16132943D02*
X15504760Y16171039D01*
X15504760Y16171039D02*
X15428570Y16171039D01*
X14819046Y15637705D02*
X14819046Y16437705D01*
X14819046Y15675800D02*
X14895237Y15637705D01*
X14895237Y15637705D02*
X15047618Y15637705D01*
X15047618Y15637705D02*
X15123808Y15675800D01*
X15123808Y15675800D02*
X15161903Y15713896D01*
X15161903Y15713896D02*
X15199999Y15790086D01*
X15199999Y15790086D02*
X15199999Y16018658D01*
X15199999Y16018658D02*
X15161903Y16094848D01*
X15161903Y16094848D02*
X15123808Y16132943D01*
X15123808Y16132943D02*
X15047618Y16171039D01*
X15047618Y16171039D02*
X14895237Y16171039D01*
X14895237Y16171039D02*
X14819046Y16132943D01*
X13904760Y16171039D02*
X13714284Y15637705D01*
X13714284Y15637705D02*
X13523807Y16171039D01*
X12799998Y15637705D02*
X13257141Y15637705D01*
X13028569Y15637705D02*
X13028569Y16437705D01*
X13028569Y16437705D02*
X13104760Y16323420D01*
X13104760Y16323420D02*
X13180950Y16247229D01*
X13180950Y16247229D02*
X13257141Y16209134D01*
X12457140Y15713896D02*
X12419045Y15675800D01*
X12419045Y15675800D02*
X12457140Y15637705D01*
X12457140Y15637705D02*
X12495236Y15675800D01*
X12495236Y15675800D02*
X12457140Y15713896D01*
X12457140Y15713896D02*
X12457140Y15637705D01*
X11923807Y16437705D02*
X11847617Y16437705D01*
X11847617Y16437705D02*
X11771426Y16399610D01*
X11771426Y16399610D02*
X11733331Y16361515D01*
X11733331Y16361515D02*
X11695236Y16285324D01*
X11695236Y16285324D02*
X11657141Y16132943D01*
X11657141Y16132943D02*
X11657141Y15942467D01*
X11657141Y15942467D02*
X11695236Y15790086D01*
X11695236Y15790086D02*
X11733331Y15713896D01*
X11733331Y15713896D02*
X11771426Y15675800D01*
X11771426Y15675800D02*
X11847617Y15637705D01*
X11847617Y15637705D02*
X11923807Y15637705D01*
X11923807Y15637705D02*
X11999998Y15675800D01*
X11999998Y15675800D02*
X12038093Y15713896D01*
X12038093Y15713896D02*
X12076188Y15790086D01*
X12076188Y15790086D02*
X12114284Y15942467D01*
X12114284Y15942467D02*
X12114284Y16132943D01*
X12114284Y16132943D02*
X12076188Y16285324D01*
X12076188Y16285324D02*
X12038093Y16361515D01*
X12038093Y16361515D02*
X11999998Y16399610D01*
X11999998Y16399610D02*
X11923807Y16437705D01*
X14255826Y13537705D02*
X14636778Y13537705D01*
X14636778Y13537705D02*
X14636778Y14337705D01*
X13989159Y13537705D02*
X13989159Y14337705D01*
X13151064Y13613896D02*
X13189160Y13575800D01*
X13189160Y13575800D02*
X13303445Y13537705D01*
X13303445Y13537705D02*
X13379636Y13537705D01*
X13379636Y13537705D02*
X13493922Y13575800D01*
X13493922Y13575800D02*
X13570112Y13651991D01*
X13570112Y13651991D02*
X13608207Y13728181D01*
X13608207Y13728181D02*
X13646303Y13880562D01*
X13646303Y13880562D02*
X13646303Y13994848D01*
X13646303Y13994848D02*
X13608207Y14147229D01*
X13608207Y14147229D02*
X13570112Y14223420D01*
X13570112Y14223420D02*
X13493922Y14299610D01*
X13493922Y14299610D02*
X13379636Y14337705D01*
X13379636Y14337705D02*
X13303445Y14337705D01*
X13303445Y14337705D02*
X13189160Y14299610D01*
X13189160Y14299610D02*
X13151064Y14261515D01*
X12274874Y14337705D02*
X11779636Y14337705D01*
X11779636Y14337705D02*
X12046302Y14032943D01*
X12046302Y14032943D02*
X11932017Y14032943D01*
X11932017Y14032943D02*
X11855826Y13994848D01*
X11855826Y13994848D02*
X11817731Y13956753D01*
X11817731Y13956753D02*
X11779636Y13880562D01*
X11779636Y13880562D02*
X11779636Y13690086D01*
X11779636Y13690086D02*
X11817731Y13613896D01*
X11817731Y13613896D02*
X11855826Y13575800D01*
X11855826Y13575800D02*
X11932017Y13537705D01*
X11932017Y13537705D02*
X12160588Y13537705D01*
X12160588Y13537705D02*
X12236779Y13575800D01*
X12236779Y13575800D02*
X12274874Y13613896D01*
X11436778Y13613896D02*
X11398683Y13575800D01*
X11398683Y13575800D02*
X11436778Y13537705D01*
X11436778Y13537705D02*
X11474874Y13575800D01*
X11474874Y13575800D02*
X11436778Y13613896D01*
X11436778Y13613896D02*
X11436778Y13537705D01*
X10941541Y13994848D02*
X11017731Y14032943D01*
X11017731Y14032943D02*
X11055826Y14071039D01*
X11055826Y14071039D02*
X11093922Y14147229D01*
X11093922Y14147229D02*
X11093922Y14185324D01*
X11093922Y14185324D02*
X11055826Y14261515D01*
X11055826Y14261515D02*
X11017731Y14299610D01*
X11017731Y14299610D02*
X10941541Y14337705D01*
X10941541Y14337705D02*
X10789160Y14337705D01*
X10789160Y14337705D02*
X10712969Y14299610D01*
X10712969Y14299610D02*
X10674874Y14261515D01*
X10674874Y14261515D02*
X10636779Y14185324D01*
X10636779Y14185324D02*
X10636779Y14147229D01*
X10636779Y14147229D02*
X10674874Y14071039D01*
X10674874Y14071039D02*
X10712969Y14032943D01*
X10712969Y14032943D02*
X10789160Y13994848D01*
X10789160Y13994848D02*
X10941541Y13994848D01*
X10941541Y13994848D02*
X11017731Y13956753D01*
X11017731Y13956753D02*
X11055826Y13918658D01*
X11055826Y13918658D02*
X11093922Y13842467D01*
X11093922Y13842467D02*
X11093922Y13690086D01*
X11093922Y13690086D02*
X11055826Y13613896D01*
X11055826Y13613896D02*
X11017731Y13575800D01*
X11017731Y13575800D02*
X10941541Y13537705D01*
X10941541Y13537705D02*
X10789160Y13537705D01*
X10789160Y13537705D02*
X10712969Y13575800D01*
X10712969Y13575800D02*
X10674874Y13613896D01*
X10674874Y13613896D02*
X10636779Y13690086D01*
X10636779Y13690086D02*
X10636779Y13842467D01*
X10636779Y13842467D02*
X10674874Y13918658D01*
X10674874Y13918658D02*
X10712969Y13956753D01*
X10712969Y13956753D02*
X10789160Y13994848D01*
X10408207Y14337705D02*
X10141540Y13537705D01*
X10141540Y13537705D02*
X9874874Y14337705D01*
X16799523Y52749610D02*
X16875713Y52787705D01*
X16875713Y52787705D02*
X16989999Y52787705D01*
X16989999Y52787705D02*
X17104285Y52749610D01*
X17104285Y52749610D02*
X17180475Y52673420D01*
X17180475Y52673420D02*
X17218570Y52597229D01*
X17218570Y52597229D02*
X17256666Y52444848D01*
X17256666Y52444848D02*
X17256666Y52330562D01*
X17256666Y52330562D02*
X17218570Y52178181D01*
X17218570Y52178181D02*
X17180475Y52101991D01*
X17180475Y52101991D02*
X17104285Y52025800D01*
X17104285Y52025800D02*
X16989999Y51987705D01*
X16989999Y51987705D02*
X16913808Y51987705D01*
X16913808Y51987705D02*
X16799523Y52025800D01*
X16799523Y52025800D02*
X16761427Y52063896D01*
X16761427Y52063896D02*
X16761427Y52330562D01*
X16761427Y52330562D02*
X16913808Y52330562D01*
X16418570Y51987705D02*
X16418570Y52787705D01*
X16418570Y52787705D02*
X15961427Y51987705D01*
X15961427Y51987705D02*
X15961427Y52787705D01*
X15580475Y51987705D02*
X15580475Y52787705D01*
X15580475Y52787705D02*
X15389999Y52787705D01*
X15389999Y52787705D02*
X15275713Y52749610D01*
X15275713Y52749610D02*
X15199523Y52673420D01*
X15199523Y52673420D02*
X15161428Y52597229D01*
X15161428Y52597229D02*
X15123332Y52444848D01*
X15123332Y52444848D02*
X15123332Y52330562D01*
X15123332Y52330562D02*
X15161428Y52178181D01*
X15161428Y52178181D02*
X15199523Y52101991D01*
X15199523Y52101991D02*
X15275713Y52025800D01*
X15275713Y52025800D02*
X15389999Y51987705D01*
X15389999Y51987705D02*
X15580475Y51987705D01*
X35891792Y44399610D02*
X35967982Y44437705D01*
X35967982Y44437705D02*
X36082268Y44437705D01*
X36082268Y44437705D02*
X36196554Y44399610D01*
X36196554Y44399610D02*
X36272744Y44323420D01*
X36272744Y44323420D02*
X36310839Y44247229D01*
X36310839Y44247229D02*
X36348935Y44094848D01*
X36348935Y44094848D02*
X36348935Y43980562D01*
X36348935Y43980562D02*
X36310839Y43828181D01*
X36310839Y43828181D02*
X36272744Y43751991D01*
X36272744Y43751991D02*
X36196554Y43675800D01*
X36196554Y43675800D02*
X36082268Y43637705D01*
X36082268Y43637705D02*
X36006077Y43637705D01*
X36006077Y43637705D02*
X35891792Y43675800D01*
X35891792Y43675800D02*
X35853696Y43713896D01*
X35853696Y43713896D02*
X35853696Y43980562D01*
X35853696Y43980562D02*
X36006077Y43980562D01*
X35510839Y43637705D02*
X35510839Y44437705D01*
X35510839Y44437705D02*
X35206077Y44437705D01*
X35206077Y44437705D02*
X35129887Y44399610D01*
X35129887Y44399610D02*
X35091792Y44361515D01*
X35091792Y44361515D02*
X35053696Y44285324D01*
X35053696Y44285324D02*
X35053696Y44171039D01*
X35053696Y44171039D02*
X35091792Y44094848D01*
X35091792Y44094848D02*
X35129887Y44056753D01*
X35129887Y44056753D02*
X35206077Y44018658D01*
X35206077Y44018658D02*
X35510839Y44018658D01*
X34787030Y44437705D02*
X34253696Y44437705D01*
X34253696Y44437705D02*
X34596554Y43637705D01*
X26342858Y9237705D02*
X26342858Y8666277D01*
X26342858Y8666277D02*
X26380953Y8551991D01*
X26380953Y8551991D02*
X26457144Y8475800D01*
X26457144Y8475800D02*
X26571429Y8437705D01*
X26571429Y8437705D02*
X26647620Y8437705D01*
X25961905Y8437705D02*
X25961905Y9237705D01*
X25961905Y9237705D02*
X25657143Y9237705D01*
X25657143Y9237705D02*
X25580953Y9199610D01*
X25580953Y9199610D02*
X25542858Y9161515D01*
X25542858Y9161515D02*
X25504762Y9085324D01*
X25504762Y9085324D02*
X25504762Y8971039D01*
X25504762Y8971039D02*
X25542858Y8894848D01*
X25542858Y8894848D02*
X25580953Y8856753D01*
X25580953Y8856753D02*
X25657143Y8818658D01*
X25657143Y8818658D02*
X25961905Y8818658D01*
X25200001Y9161515D02*
X25161905Y9199610D01*
X25161905Y9199610D02*
X25085715Y9237705D01*
X25085715Y9237705D02*
X24895239Y9237705D01*
X24895239Y9237705D02*
X24819048Y9199610D01*
X24819048Y9199610D02*
X24780953Y9161515D01*
X24780953Y9161515D02*
X24742858Y9085324D01*
X24742858Y9085324D02*
X24742858Y9009134D01*
X24742858Y9009134D02*
X24780953Y8894848D01*
X24780953Y8894848D02*
X25238096Y8437705D01*
X25238096Y8437705D02*
X24742858Y8437705D01*
X23790476Y8437705D02*
X23790476Y9237705D01*
X23790476Y8932943D02*
X23714286Y8971039D01*
X23714286Y8971039D02*
X23561905Y8971039D01*
X23561905Y8971039D02*
X23485714Y8932943D01*
X23485714Y8932943D02*
X23447619Y8894848D01*
X23447619Y8894848D02*
X23409524Y8818658D01*
X23409524Y8818658D02*
X23409524Y8590086D01*
X23409524Y8590086D02*
X23447619Y8513896D01*
X23447619Y8513896D02*
X23485714Y8475800D01*
X23485714Y8475800D02*
X23561905Y8437705D01*
X23561905Y8437705D02*
X23714286Y8437705D01*
X23714286Y8437705D02*
X23790476Y8475800D01*
X23066666Y8437705D02*
X23066666Y8971039D01*
X23066666Y8818658D02*
X23028571Y8894848D01*
X23028571Y8894848D02*
X22990476Y8932943D01*
X22990476Y8932943D02*
X22914285Y8971039D01*
X22914285Y8971039D02*
X22838095Y8971039D01*
X22571428Y8437705D02*
X22571428Y8971039D01*
X22571428Y9237705D02*
X22609524Y9199610D01*
X22609524Y9199610D02*
X22571428Y9161515D01*
X22571428Y9161515D02*
X22533333Y9199610D01*
X22533333Y9199610D02*
X22571428Y9237705D01*
X22571428Y9237705D02*
X22571428Y9161515D01*
X21847619Y8437705D02*
X21847619Y9237705D01*
X21847619Y8475800D02*
X21923810Y8437705D01*
X21923810Y8437705D02*
X22076191Y8437705D01*
X22076191Y8437705D02*
X22152381Y8475800D01*
X22152381Y8475800D02*
X22190476Y8513896D01*
X22190476Y8513896D02*
X22228572Y8590086D01*
X22228572Y8590086D02*
X22228572Y8818658D01*
X22228572Y8818658D02*
X22190476Y8894848D01*
X22190476Y8894848D02*
X22152381Y8932943D01*
X22152381Y8932943D02*
X22076191Y8971039D01*
X22076191Y8971039D02*
X21923810Y8971039D01*
X21923810Y8971039D02*
X21847619Y8932943D01*
X21123809Y8971039D02*
X21123809Y8323420D01*
X21123809Y8323420D02*
X21161904Y8247229D01*
X21161904Y8247229D02*
X21200000Y8209134D01*
X21200000Y8209134D02*
X21276190Y8171039D01*
X21276190Y8171039D02*
X21390476Y8171039D01*
X21390476Y8171039D02*
X21466666Y8209134D01*
X21123809Y8475800D02*
X21200000Y8437705D01*
X21200000Y8437705D02*
X21352381Y8437705D01*
X21352381Y8437705D02*
X21428571Y8475800D01*
X21428571Y8475800D02*
X21466666Y8513896D01*
X21466666Y8513896D02*
X21504762Y8590086D01*
X21504762Y8590086D02*
X21504762Y8818658D01*
X21504762Y8818658D02*
X21466666Y8894848D01*
X21466666Y8894848D02*
X21428571Y8932943D01*
X21428571Y8932943D02*
X21352381Y8971039D01*
X21352381Y8971039D02*
X21200000Y8971039D01*
X21200000Y8971039D02*
X21123809Y8932943D01*
X20438094Y8475800D02*
X20514285Y8437705D01*
X20514285Y8437705D02*
X20666666Y8437705D01*
X20666666Y8437705D02*
X20742856Y8475800D01*
X20742856Y8475800D02*
X20780952Y8551991D01*
X20780952Y8551991D02*
X20780952Y8856753D01*
X20780952Y8856753D02*
X20742856Y8932943D01*
X20742856Y8932943D02*
X20666666Y8971039D01*
X20666666Y8971039D02*
X20514285Y8971039D01*
X20514285Y8971039D02*
X20438094Y8932943D01*
X20438094Y8932943D02*
X20399999Y8856753D01*
X20399999Y8856753D02*
X20399999Y8780562D01*
X20399999Y8780562D02*
X20780952Y8704372D01*
X20057142Y8513896D02*
X20019047Y8475800D01*
X20019047Y8475800D02*
X20057142Y8437705D01*
X20057142Y8437705D02*
X20095238Y8475800D01*
X20095238Y8475800D02*
X20057142Y8513896D01*
X20057142Y8513896D02*
X20057142Y8437705D01*
X20057142Y8932943D02*
X20019047Y8894848D01*
X20019047Y8894848D02*
X20057142Y8856753D01*
X20057142Y8856753D02*
X20095238Y8894848D01*
X20095238Y8894848D02*
X20057142Y8932943D01*
X20057142Y8932943D02*
X20057142Y8856753D01*
X18723809Y8437705D02*
X18723809Y8856753D01*
X18723809Y8856753D02*
X18761904Y8932943D01*
X18761904Y8932943D02*
X18838095Y8971039D01*
X18838095Y8971039D02*
X18990476Y8971039D01*
X18990476Y8971039D02*
X19066666Y8932943D01*
X18723809Y8475800D02*
X18800000Y8437705D01*
X18800000Y8437705D02*
X18990476Y8437705D01*
X18990476Y8437705D02*
X19066666Y8475800D01*
X19066666Y8475800D02*
X19104762Y8551991D01*
X19104762Y8551991D02*
X19104762Y8628181D01*
X19104762Y8628181D02*
X19066666Y8704372D01*
X19066666Y8704372D02*
X18990476Y8742467D01*
X18990476Y8742467D02*
X18800000Y8742467D01*
X18800000Y8742467D02*
X18723809Y8780562D01*
X18228571Y8437705D02*
X18304761Y8475800D01*
X18304761Y8475800D02*
X18342856Y8551991D01*
X18342856Y8551991D02*
X18342856Y9237705D01*
X17999999Y8971039D02*
X17847618Y8437705D01*
X17847618Y8437705D02*
X17695237Y8818658D01*
X17695237Y8818658D02*
X17542856Y8437705D01*
X17542856Y8437705D02*
X17390475Y8971039D01*
X16742856Y8437705D02*
X16742856Y8856753D01*
X16742856Y8856753D02*
X16780951Y8932943D01*
X16780951Y8932943D02*
X16857142Y8971039D01*
X16857142Y8971039D02*
X17009523Y8971039D01*
X17009523Y8971039D02*
X17085713Y8932943D01*
X16742856Y8475800D02*
X16819047Y8437705D01*
X16819047Y8437705D02*
X17009523Y8437705D01*
X17009523Y8437705D02*
X17085713Y8475800D01*
X17085713Y8475800D02*
X17123809Y8551991D01*
X17123809Y8551991D02*
X17123809Y8628181D01*
X17123809Y8628181D02*
X17085713Y8704372D01*
X17085713Y8704372D02*
X17009523Y8742467D01*
X17009523Y8742467D02*
X16819047Y8742467D01*
X16819047Y8742467D02*
X16742856Y8780562D01*
X16438094Y8971039D02*
X16247618Y8437705D01*
X16057141Y8971039D02*
X16247618Y8437705D01*
X16247618Y8437705D02*
X16323808Y8247229D01*
X16323808Y8247229D02*
X16361903Y8209134D01*
X16361903Y8209134D02*
X16438094Y8171039D01*
X15790475Y8475800D02*
X15714284Y8437705D01*
X15714284Y8437705D02*
X15561903Y8437705D01*
X15561903Y8437705D02*
X15485713Y8475800D01*
X15485713Y8475800D02*
X15447617Y8551991D01*
X15447617Y8551991D02*
X15447617Y8590086D01*
X15447617Y8590086D02*
X15485713Y8666277D01*
X15485713Y8666277D02*
X15561903Y8704372D01*
X15561903Y8704372D02*
X15676189Y8704372D01*
X15676189Y8704372D02*
X15752379Y8742467D01*
X15752379Y8742467D02*
X15790475Y8818658D01*
X15790475Y8818658D02*
X15790475Y8856753D01*
X15790475Y8856753D02*
X15752379Y8932943D01*
X15752379Y8932943D02*
X15676189Y8971039D01*
X15676189Y8971039D02*
X15561903Y8971039D01*
X15561903Y8971039D02*
X15485713Y8932943D01*
X14380951Y8437705D02*
X14457141Y8475800D01*
X14457141Y8475800D02*
X14495236Y8513896D01*
X14495236Y8513896D02*
X14533332Y8590086D01*
X14533332Y8590086D02*
X14533332Y8818658D01*
X14533332Y8818658D02*
X14495236Y8894848D01*
X14495236Y8894848D02*
X14457141Y8932943D01*
X14457141Y8932943D02*
X14380951Y8971039D01*
X14380951Y8971039D02*
X14266665Y8971039D01*
X14266665Y8971039D02*
X14190474Y8932943D01*
X14190474Y8932943D02*
X14152379Y8894848D01*
X14152379Y8894848D02*
X14114284Y8818658D01*
X14114284Y8818658D02*
X14114284Y8590086D01*
X14114284Y8590086D02*
X14152379Y8513896D01*
X14152379Y8513896D02*
X14190474Y8475800D01*
X14190474Y8475800D02*
X14266665Y8437705D01*
X14266665Y8437705D02*
X14380951Y8437705D01*
X13771426Y8971039D02*
X13771426Y8437705D01*
X13771426Y8894848D02*
X13733331Y8932943D01*
X13733331Y8932943D02*
X13657141Y8971039D01*
X13657141Y8971039D02*
X13542855Y8971039D01*
X13542855Y8971039D02*
X13466664Y8932943D01*
X13466664Y8932943D02*
X13428569Y8856753D01*
X13428569Y8856753D02*
X13428569Y8437705D01*
X30247620Y19837705D02*
X30628572Y19837705D01*
X30628572Y19837705D02*
X30628572Y20637705D01*
X29980953Y20256753D02*
X29714287Y20256753D01*
X29600001Y19837705D02*
X29980953Y19837705D01*
X29980953Y19837705D02*
X29980953Y20637705D01*
X29980953Y20637705D02*
X29600001Y20637705D01*
X29257143Y19837705D02*
X29257143Y20637705D01*
X29257143Y20637705D02*
X29066667Y20637705D01*
X29066667Y20637705D02*
X28952381Y20599610D01*
X28952381Y20599610D02*
X28876191Y20523420D01*
X28876191Y20523420D02*
X28838096Y20447229D01*
X28838096Y20447229D02*
X28800000Y20294848D01*
X28800000Y20294848D02*
X28800000Y20180562D01*
X28800000Y20180562D02*
X28838096Y20028181D01*
X28838096Y20028181D02*
X28876191Y19951991D01*
X28876191Y19951991D02*
X28952381Y19875800D01*
X28952381Y19875800D02*
X29066667Y19837705D01*
X29066667Y19837705D02*
X29257143Y19837705D01*
X28495239Y19875800D02*
X28419048Y19837705D01*
X28419048Y19837705D02*
X28266667Y19837705D01*
X28266667Y19837705D02*
X28190477Y19875800D01*
X28190477Y19875800D02*
X28152381Y19951991D01*
X28152381Y19951991D02*
X28152381Y19990086D01*
X28152381Y19990086D02*
X28190477Y20066277D01*
X28190477Y20066277D02*
X28266667Y20104372D01*
X28266667Y20104372D02*
X28380953Y20104372D01*
X28380953Y20104372D02*
X28457143Y20142467D01*
X28457143Y20142467D02*
X28495239Y20218658D01*
X28495239Y20218658D02*
X28495239Y20256753D01*
X28495239Y20256753D02*
X28457143Y20332943D01*
X28457143Y20332943D02*
X28380953Y20371039D01*
X28380953Y20371039D02*
X28266667Y20371039D01*
X28266667Y20371039D02*
X28190477Y20332943D01*
X27809524Y19913896D02*
X27771429Y19875800D01*
X27771429Y19875800D02*
X27809524Y19837705D01*
X27809524Y19837705D02*
X27847620Y19875800D01*
X27847620Y19875800D02*
X27809524Y19913896D01*
X27809524Y19913896D02*
X27809524Y19837705D01*
X27809524Y20332943D02*
X27771429Y20294848D01*
X27771429Y20294848D02*
X27809524Y20256753D01*
X27809524Y20256753D02*
X27847620Y20294848D01*
X27847620Y20294848D02*
X27809524Y20332943D01*
X27809524Y20332943D02*
X27809524Y20256753D01*
X26819048Y19837705D02*
X26819048Y20371039D01*
X26819048Y20218658D02*
X26780953Y20294848D01*
X26780953Y20294848D02*
X26742858Y20332943D01*
X26742858Y20332943D02*
X26666667Y20371039D01*
X26666667Y20371039D02*
X26590477Y20371039D01*
X26019048Y19875800D02*
X26095239Y19837705D01*
X26095239Y19837705D02*
X26247620Y19837705D01*
X26247620Y19837705D02*
X26323810Y19875800D01*
X26323810Y19875800D02*
X26361906Y19951991D01*
X26361906Y19951991D02*
X26361906Y20256753D01*
X26361906Y20256753D02*
X26323810Y20332943D01*
X26323810Y20332943D02*
X26247620Y20371039D01*
X26247620Y20371039D02*
X26095239Y20371039D01*
X26095239Y20371039D02*
X26019048Y20332943D01*
X26019048Y20332943D02*
X25980953Y20256753D01*
X25980953Y20256753D02*
X25980953Y20180562D01*
X25980953Y20180562D02*
X26361906Y20104372D01*
X25295239Y19837705D02*
X25295239Y20637705D01*
X25295239Y19875800D02*
X25371430Y19837705D01*
X25371430Y19837705D02*
X25523811Y19837705D01*
X25523811Y19837705D02*
X25600001Y19875800D01*
X25600001Y19875800D02*
X25638096Y19913896D01*
X25638096Y19913896D02*
X25676192Y19990086D01*
X25676192Y19990086D02*
X25676192Y20218658D01*
X25676192Y20218658D02*
X25638096Y20294848D01*
X25638096Y20294848D02*
X25600001Y20332943D01*
X25600001Y20332943D02*
X25523811Y20371039D01*
X25523811Y20371039D02*
X25371430Y20371039D01*
X25371430Y20371039D02*
X25295239Y20332943D01*
X24304762Y20256753D02*
X23695239Y20256753D01*
X23695239Y20028181D02*
X24304762Y20028181D01*
X22361905Y19875800D02*
X22438096Y19837705D01*
X22438096Y19837705D02*
X22590477Y19837705D01*
X22590477Y19837705D02*
X22666667Y19875800D01*
X22666667Y19875800D02*
X22704762Y19913896D01*
X22704762Y19913896D02*
X22742858Y19990086D01*
X22742858Y19990086D02*
X22742858Y20218658D01*
X22742858Y20218658D02*
X22704762Y20294848D01*
X22704762Y20294848D02*
X22666667Y20332943D01*
X22666667Y20332943D02*
X22590477Y20371039D01*
X22590477Y20371039D02*
X22438096Y20371039D01*
X22438096Y20371039D02*
X22361905Y20332943D01*
X22019048Y19837705D02*
X22019048Y20637705D01*
X21676191Y19837705D02*
X21676191Y20256753D01*
X21676191Y20256753D02*
X21714286Y20332943D01*
X21714286Y20332943D02*
X21790477Y20371039D01*
X21790477Y20371039D02*
X21904763Y20371039D01*
X21904763Y20371039D02*
X21980953Y20332943D01*
X21980953Y20332943D02*
X22019048Y20294848D01*
X20952381Y19837705D02*
X20952381Y20256753D01*
X20952381Y20256753D02*
X20990476Y20332943D01*
X20990476Y20332943D02*
X21066667Y20371039D01*
X21066667Y20371039D02*
X21219048Y20371039D01*
X21219048Y20371039D02*
X21295238Y20332943D01*
X20952381Y19875800D02*
X21028572Y19837705D01*
X21028572Y19837705D02*
X21219048Y19837705D01*
X21219048Y19837705D02*
X21295238Y19875800D01*
X21295238Y19875800D02*
X21333334Y19951991D01*
X21333334Y19951991D02*
X21333334Y20028181D01*
X21333334Y20028181D02*
X21295238Y20104372D01*
X21295238Y20104372D02*
X21219048Y20142467D01*
X21219048Y20142467D02*
X21028572Y20142467D01*
X21028572Y20142467D02*
X20952381Y20180562D01*
X20571428Y19837705D02*
X20571428Y20371039D01*
X20571428Y20218658D02*
X20533333Y20294848D01*
X20533333Y20294848D02*
X20495238Y20332943D01*
X20495238Y20332943D02*
X20419047Y20371039D01*
X20419047Y20371039D02*
X20342857Y20371039D01*
X19733333Y20371039D02*
X19733333Y19723420D01*
X19733333Y19723420D02*
X19771428Y19647229D01*
X19771428Y19647229D02*
X19809524Y19609134D01*
X19809524Y19609134D02*
X19885714Y19571039D01*
X19885714Y19571039D02*
X20000000Y19571039D01*
X20000000Y19571039D02*
X20076190Y19609134D01*
X19733333Y19875800D02*
X19809524Y19837705D01*
X19809524Y19837705D02*
X19961905Y19837705D01*
X19961905Y19837705D02*
X20038095Y19875800D01*
X20038095Y19875800D02*
X20076190Y19913896D01*
X20076190Y19913896D02*
X20114286Y19990086D01*
X20114286Y19990086D02*
X20114286Y20218658D01*
X20114286Y20218658D02*
X20076190Y20294848D01*
X20076190Y20294848D02*
X20038095Y20332943D01*
X20038095Y20332943D02*
X19961905Y20371039D01*
X19961905Y20371039D02*
X19809524Y20371039D01*
X19809524Y20371039D02*
X19733333Y20332943D01*
X19352380Y19837705D02*
X19352380Y20371039D01*
X19352380Y20637705D02*
X19390476Y20599610D01*
X19390476Y20599610D02*
X19352380Y20561515D01*
X19352380Y20561515D02*
X19314285Y20599610D01*
X19314285Y20599610D02*
X19352380Y20637705D01*
X19352380Y20637705D02*
X19352380Y20561515D01*
X18971428Y20371039D02*
X18971428Y19837705D01*
X18971428Y20294848D02*
X18933333Y20332943D01*
X18933333Y20332943D02*
X18857143Y20371039D01*
X18857143Y20371039D02*
X18742857Y20371039D01*
X18742857Y20371039D02*
X18666666Y20332943D01*
X18666666Y20332943D02*
X18628571Y20256753D01*
X18628571Y20256753D02*
X18628571Y19837705D01*
X17904761Y20371039D02*
X17904761Y19723420D01*
X17904761Y19723420D02*
X17942856Y19647229D01*
X17942856Y19647229D02*
X17980952Y19609134D01*
X17980952Y19609134D02*
X18057142Y19571039D01*
X18057142Y19571039D02*
X18171428Y19571039D01*
X18171428Y19571039D02*
X18247618Y19609134D01*
X17904761Y19875800D02*
X17980952Y19837705D01*
X17980952Y19837705D02*
X18133333Y19837705D01*
X18133333Y19837705D02*
X18209523Y19875800D01*
X18209523Y19875800D02*
X18247618Y19913896D01*
X18247618Y19913896D02*
X18285714Y19990086D01*
X18285714Y19990086D02*
X18285714Y20218658D01*
X18285714Y20218658D02*
X18247618Y20294848D01*
X18247618Y20294848D02*
X18209523Y20332943D01*
X18209523Y20332943D02*
X18133333Y20371039D01*
X18133333Y20371039D02*
X17980952Y20371039D01*
X17980952Y20371039D02*
X17904761Y20332943D01*
X17485713Y19875800D02*
X17485713Y19837705D01*
X17485713Y19837705D02*
X17523808Y19761515D01*
X17523808Y19761515D02*
X17561904Y19723420D01*
X16190475Y20371039D02*
X16190475Y19723420D01*
X16190475Y19723420D02*
X16228570Y19647229D01*
X16228570Y19647229D02*
X16266666Y19609134D01*
X16266666Y19609134D02*
X16342856Y19571039D01*
X16342856Y19571039D02*
X16457142Y19571039D01*
X16457142Y19571039D02*
X16533332Y19609134D01*
X16190475Y19875800D02*
X16266666Y19837705D01*
X16266666Y19837705D02*
X16419047Y19837705D01*
X16419047Y19837705D02*
X16495237Y19875800D01*
X16495237Y19875800D02*
X16533332Y19913896D01*
X16533332Y19913896D02*
X16571428Y19990086D01*
X16571428Y19990086D02*
X16571428Y20218658D01*
X16571428Y20218658D02*
X16533332Y20294848D01*
X16533332Y20294848D02*
X16495237Y20332943D01*
X16495237Y20332943D02*
X16419047Y20371039D01*
X16419047Y20371039D02*
X16266666Y20371039D01*
X16266666Y20371039D02*
X16190475Y20332943D01*
X15809522Y19837705D02*
X15809522Y20371039D01*
X15809522Y20218658D02*
X15771427Y20294848D01*
X15771427Y20294848D02*
X15733332Y20332943D01*
X15733332Y20332943D02*
X15657141Y20371039D01*
X15657141Y20371039D02*
X15580951Y20371039D01*
X15009522Y19875800D02*
X15085713Y19837705D01*
X15085713Y19837705D02*
X15238094Y19837705D01*
X15238094Y19837705D02*
X15314284Y19875800D01*
X15314284Y19875800D02*
X15352380Y19951991D01*
X15352380Y19951991D02*
X15352380Y20256753D01*
X15352380Y20256753D02*
X15314284Y20332943D01*
X15314284Y20332943D02*
X15238094Y20371039D01*
X15238094Y20371039D02*
X15085713Y20371039D01*
X15085713Y20371039D02*
X15009522Y20332943D01*
X15009522Y20332943D02*
X14971427Y20256753D01*
X14971427Y20256753D02*
X14971427Y20180562D01*
X14971427Y20180562D02*
X15352380Y20104372D01*
X14323808Y19875800D02*
X14399999Y19837705D01*
X14399999Y19837705D02*
X14552380Y19837705D01*
X14552380Y19837705D02*
X14628570Y19875800D01*
X14628570Y19875800D02*
X14666666Y19951991D01*
X14666666Y19951991D02*
X14666666Y20256753D01*
X14666666Y20256753D02*
X14628570Y20332943D01*
X14628570Y20332943D02*
X14552380Y20371039D01*
X14552380Y20371039D02*
X14399999Y20371039D01*
X14399999Y20371039D02*
X14323808Y20332943D01*
X14323808Y20332943D02*
X14285713Y20256753D01*
X14285713Y20256753D02*
X14285713Y20180562D01*
X14285713Y20180562D02*
X14666666Y20104372D01*
X13942856Y20371039D02*
X13942856Y19837705D01*
X13942856Y20294848D02*
X13904761Y20332943D01*
X13904761Y20332943D02*
X13828571Y20371039D01*
X13828571Y20371039D02*
X13714285Y20371039D01*
X13714285Y20371039D02*
X13638094Y20332943D01*
X13638094Y20332943D02*
X13599999Y20256753D01*
X13599999Y20256753D02*
X13599999Y19837705D01*
X12609522Y20256753D02*
X11999999Y20256753D01*
X11999999Y20028181D02*
X12609522Y20028181D01*
X11123808Y20371039D02*
X10819046Y20371039D01*
X11009522Y19837705D02*
X11009522Y20523420D01*
X11009522Y20523420D02*
X10971427Y20599610D01*
X10971427Y20599610D02*
X10895237Y20637705D01*
X10895237Y20637705D02*
X10819046Y20637705D01*
X10209522Y20371039D02*
X10209522Y19837705D01*
X10552379Y20371039D02*
X10552379Y19951991D01*
X10552379Y19951991D02*
X10514284Y19875800D01*
X10514284Y19875800D02*
X10438094Y19837705D01*
X10438094Y19837705D02*
X10323808Y19837705D01*
X10323808Y19837705D02*
X10247617Y19875800D01*
X10247617Y19875800D02*
X10209522Y19913896D01*
X9714284Y19837705D02*
X9790474Y19875800D01*
X9790474Y19875800D02*
X9828569Y19951991D01*
X9828569Y19951991D02*
X9828569Y20637705D01*
X9295236Y19837705D02*
X9371426Y19875800D01*
X9371426Y19875800D02*
X9409521Y19951991D01*
X9409521Y19951991D02*
X9409521Y20637705D01*
X35891792Y24079610D02*
X35967982Y24117705D01*
X35967982Y24117705D02*
X36082268Y24117705D01*
X36082268Y24117705D02*
X36196554Y24079610D01*
X36196554Y24079610D02*
X36272744Y24003420D01*
X36272744Y24003420D02*
X36310839Y23927229D01*
X36310839Y23927229D02*
X36348935Y23774848D01*
X36348935Y23774848D02*
X36348935Y23660562D01*
X36348935Y23660562D02*
X36310839Y23508181D01*
X36310839Y23508181D02*
X36272744Y23431991D01*
X36272744Y23431991D02*
X36196554Y23355800D01*
X36196554Y23355800D02*
X36082268Y23317705D01*
X36082268Y23317705D02*
X36006077Y23317705D01*
X36006077Y23317705D02*
X35891792Y23355800D01*
X35891792Y23355800D02*
X35853696Y23393896D01*
X35853696Y23393896D02*
X35853696Y23660562D01*
X35853696Y23660562D02*
X36006077Y23660562D01*
X35510839Y23317705D02*
X35510839Y24117705D01*
X35510839Y24117705D02*
X35206077Y24117705D01*
X35206077Y24117705D02*
X35129887Y24079610D01*
X35129887Y24079610D02*
X35091792Y24041515D01*
X35091792Y24041515D02*
X35053696Y23965324D01*
X35053696Y23965324D02*
X35053696Y23851039D01*
X35053696Y23851039D02*
X35091792Y23774848D01*
X35091792Y23774848D02*
X35129887Y23736753D01*
X35129887Y23736753D02*
X35206077Y23698658D01*
X35206077Y23698658D02*
X35510839Y23698658D01*
X34748935Y24041515D02*
X34710839Y24079610D01*
X34710839Y24079610D02*
X34634649Y24117705D01*
X34634649Y24117705D02*
X34444173Y24117705D01*
X34444173Y24117705D02*
X34367982Y24079610D01*
X34367982Y24079610D02*
X34329887Y24041515D01*
X34329887Y24041515D02*
X34291792Y23965324D01*
X34291792Y23965324D02*
X34291792Y23889134D01*
X34291792Y23889134D02*
X34329887Y23774848D01*
X34329887Y23774848D02*
X34787030Y23317705D01*
X34787030Y23317705D02*
X34291792Y23317705D01*
X33910839Y23317705D02*
X33758458Y23317705D01*
X33758458Y23317705D02*
X33682268Y23355800D01*
X33682268Y23355800D02*
X33644172Y23393896D01*
X33644172Y23393896D02*
X33567982Y23508181D01*
X33567982Y23508181D02*
X33529887Y23660562D01*
X33529887Y23660562D02*
X33529887Y23965324D01*
X33529887Y23965324D02*
X33567982Y24041515D01*
X33567982Y24041515D02*
X33606077Y24079610D01*
X33606077Y24079610D02*
X33682268Y24117705D01*
X33682268Y24117705D02*
X33834649Y24117705D01*
X33834649Y24117705D02*
X33910839Y24079610D01*
X33910839Y24079610D02*
X33948934Y24041515D01*
X33948934Y24041515D02*
X33987030Y23965324D01*
X33987030Y23965324D02*
X33987030Y23774848D01*
X33987030Y23774848D02*
X33948934Y23698658D01*
X33948934Y23698658D02*
X33910839Y23660562D01*
X33910839Y23660562D02*
X33834649Y23622467D01*
X33834649Y23622467D02*
X33682268Y23622467D01*
X33682268Y23622467D02*
X33606077Y23660562D01*
X33606077Y23660562D02*
X33567982Y23698658D01*
X33567982Y23698658D02*
X33529887Y23774848D01*
X8780951Y26926134D02*
X8019047Y26926134D01*
X23257144Y12437705D02*
X23066668Y11637705D01*
X23066668Y11637705D02*
X22914287Y12209134D01*
X22914287Y12209134D02*
X22761906Y11637705D01*
X22761906Y11637705D02*
X22571430Y12437705D01*
X21923810Y11637705D02*
X21923810Y12056753D01*
X21923810Y12056753D02*
X21961905Y12132943D01*
X21961905Y12132943D02*
X22038096Y12171039D01*
X22038096Y12171039D02*
X22190477Y12171039D01*
X22190477Y12171039D02*
X22266667Y12132943D01*
X21923810Y11675800D02*
X22000001Y11637705D01*
X22000001Y11637705D02*
X22190477Y11637705D01*
X22190477Y11637705D02*
X22266667Y11675800D01*
X22266667Y11675800D02*
X22304763Y11751991D01*
X22304763Y11751991D02*
X22304763Y11828181D01*
X22304763Y11828181D02*
X22266667Y11904372D01*
X22266667Y11904372D02*
X22190477Y11942467D01*
X22190477Y11942467D02*
X22000001Y11942467D01*
X22000001Y11942467D02*
X21923810Y11980562D01*
X21619048Y12171039D02*
X21428572Y11637705D01*
X21238095Y12171039D02*
X21428572Y11637705D01*
X21428572Y11637705D02*
X21504762Y11447229D01*
X21504762Y11447229D02*
X21542857Y11409134D01*
X21542857Y11409134D02*
X21619048Y11371039D01*
X21009524Y12437705D02*
X20819048Y11637705D01*
X20819048Y11637705D02*
X20666667Y12209134D01*
X20666667Y12209134D02*
X20514286Y11637705D01*
X20514286Y11637705D02*
X20323810Y12437705D01*
X19676190Y11637705D02*
X19676190Y12056753D01*
X19676190Y12056753D02*
X19714285Y12132943D01*
X19714285Y12132943D02*
X19790476Y12171039D01*
X19790476Y12171039D02*
X19942857Y12171039D01*
X19942857Y12171039D02*
X20019047Y12132943D01*
X19676190Y11675800D02*
X19752381Y11637705D01*
X19752381Y11637705D02*
X19942857Y11637705D01*
X19942857Y11637705D02*
X20019047Y11675800D01*
X20019047Y11675800D02*
X20057143Y11751991D01*
X20057143Y11751991D02*
X20057143Y11828181D01*
X20057143Y11828181D02*
X20019047Y11904372D01*
X20019047Y11904372D02*
X19942857Y11942467D01*
X19942857Y11942467D02*
X19752381Y11942467D01*
X19752381Y11942467D02*
X19676190Y11980562D01*
X19371428Y12171039D02*
X19180952Y11637705D01*
X18990475Y12171039D02*
X19180952Y11637705D01*
X19180952Y11637705D02*
X19257142Y11447229D01*
X19257142Y11447229D02*
X19295237Y11409134D01*
X19295237Y11409134D02*
X19371428Y11371039D01*
X18761904Y12437705D02*
X18571428Y11637705D01*
X18571428Y11637705D02*
X18419047Y12209134D01*
X18419047Y12209134D02*
X18266666Y11637705D01*
X18266666Y11637705D02*
X18076190Y12437705D01*
X17428570Y11637705D02*
X17428570Y12056753D01*
X17428570Y12056753D02*
X17466665Y12132943D01*
X17466665Y12132943D02*
X17542856Y12171039D01*
X17542856Y12171039D02*
X17695237Y12171039D01*
X17695237Y12171039D02*
X17771427Y12132943D01*
X17428570Y11675800D02*
X17504761Y11637705D01*
X17504761Y11637705D02*
X17695237Y11637705D01*
X17695237Y11637705D02*
X17771427Y11675800D01*
X17771427Y11675800D02*
X17809523Y11751991D01*
X17809523Y11751991D02*
X17809523Y11828181D01*
X17809523Y11828181D02*
X17771427Y11904372D01*
X17771427Y11904372D02*
X17695237Y11942467D01*
X17695237Y11942467D02*
X17504761Y11942467D01*
X17504761Y11942467D02*
X17428570Y11980562D01*
X17123808Y12171039D02*
X16933332Y11637705D01*
X16742855Y12171039D02*
X16933332Y11637705D01*
X16933332Y11637705D02*
X17009522Y11447229D01*
X17009522Y11447229D02*
X17047617Y11409134D01*
X17047617Y11409134D02*
X17123808Y11371039D01*
D11*
X22071428Y30269543D02*
X22128571Y30212400D01*
X22128571Y30212400D02*
X22299999Y30155258D01*
X22299999Y30155258D02*
X22414285Y30155258D01*
X22414285Y30155258D02*
X22585714Y30212400D01*
X22585714Y30212400D02*
X22699999Y30326686D01*
X22699999Y30326686D02*
X22757142Y30440972D01*
X22757142Y30440972D02*
X22814285Y30669543D01*
X22814285Y30669543D02*
X22814285Y30840972D01*
X22814285Y30840972D02*
X22757142Y31069543D01*
X22757142Y31069543D02*
X22699999Y31183829D01*
X22699999Y31183829D02*
X22585714Y31298115D01*
X22585714Y31298115D02*
X22414285Y31355258D01*
X22414285Y31355258D02*
X22299999Y31355258D01*
X22299999Y31355258D02*
X22128571Y31298115D01*
X22128571Y31298115D02*
X22071428Y31240972D01*
X21614285Y30498115D02*
X21042857Y30498115D01*
X21728571Y30155258D02*
X21328571Y31355258D01*
X21328571Y31355258D02*
X20928571Y30155258D01*
X20528571Y30155258D02*
X20528571Y31355258D01*
X20528571Y31355258D02*
X20071428Y31355258D01*
X20071428Y31355258D02*
X19957143Y31298115D01*
X19957143Y31298115D02*
X19900000Y31240972D01*
X19900000Y31240972D02*
X19842857Y31126686D01*
X19842857Y31126686D02*
X19842857Y30955258D01*
X19842857Y30955258D02*
X19900000Y30840972D01*
X19900000Y30840972D02*
X19957143Y30783829D01*
X19957143Y30783829D02*
X20071428Y30726686D01*
X20071428Y30726686D02*
X20528571Y30726686D01*
X18471428Y31240972D02*
X18414285Y31298115D01*
X18414285Y31298115D02*
X18300000Y31355258D01*
X18300000Y31355258D02*
X18014285Y31355258D01*
X18014285Y31355258D02*
X17900000Y31298115D01*
X17900000Y31298115D02*
X17842857Y31240972D01*
X17842857Y31240972D02*
X17785714Y31126686D01*
X17785714Y31126686D02*
X17785714Y31012400D01*
X17785714Y31012400D02*
X17842857Y30840972D01*
X17842857Y30840972D02*
X18528571Y30155258D01*
X18528571Y30155258D02*
X17785714Y30155258D01*
D10*
X35891792Y41859610D02*
X35967982Y41897705D01*
X35967982Y41897705D02*
X36082268Y41897705D01*
X36082268Y41897705D02*
X36196554Y41859610D01*
X36196554Y41859610D02*
X36272744Y41783420D01*
X36272744Y41783420D02*
X36310839Y41707229D01*
X36310839Y41707229D02*
X36348935Y41554848D01*
X36348935Y41554848D02*
X36348935Y41440562D01*
X36348935Y41440562D02*
X36310839Y41288181D01*
X36310839Y41288181D02*
X36272744Y41211991D01*
X36272744Y41211991D02*
X36196554Y41135800D01*
X36196554Y41135800D02*
X36082268Y41097705D01*
X36082268Y41097705D02*
X36006077Y41097705D01*
X36006077Y41097705D02*
X35891792Y41135800D01*
X35891792Y41135800D02*
X35853696Y41173896D01*
X35853696Y41173896D02*
X35853696Y41440562D01*
X35853696Y41440562D02*
X36006077Y41440562D01*
X35510839Y41097705D02*
X35510839Y41897705D01*
X35510839Y41897705D02*
X35206077Y41897705D01*
X35206077Y41897705D02*
X35129887Y41859610D01*
X35129887Y41859610D02*
X35091792Y41821515D01*
X35091792Y41821515D02*
X35053696Y41745324D01*
X35053696Y41745324D02*
X35053696Y41631039D01*
X35053696Y41631039D02*
X35091792Y41554848D01*
X35091792Y41554848D02*
X35129887Y41516753D01*
X35129887Y41516753D02*
X35206077Y41478658D01*
X35206077Y41478658D02*
X35510839Y41478658D01*
X34367982Y41897705D02*
X34520363Y41897705D01*
X34520363Y41897705D02*
X34596554Y41859610D01*
X34596554Y41859610D02*
X34634649Y41821515D01*
X34634649Y41821515D02*
X34710839Y41707229D01*
X34710839Y41707229D02*
X34748935Y41554848D01*
X34748935Y41554848D02*
X34748935Y41250086D01*
X34748935Y41250086D02*
X34710839Y41173896D01*
X34710839Y41173896D02*
X34672744Y41135800D01*
X34672744Y41135800D02*
X34596554Y41097705D01*
X34596554Y41097705D02*
X34444173Y41097705D01*
X34444173Y41097705D02*
X34367982Y41135800D01*
X34367982Y41135800D02*
X34329887Y41173896D01*
X34329887Y41173896D02*
X34291792Y41250086D01*
X34291792Y41250086D02*
X34291792Y41440562D01*
X34291792Y41440562D02*
X34329887Y41516753D01*
X34329887Y41516753D02*
X34367982Y41554848D01*
X34367982Y41554848D02*
X34444173Y41592943D01*
X34444173Y41592943D02*
X34596554Y41592943D01*
X34596554Y41592943D02*
X34672744Y41554848D01*
X34672744Y41554848D02*
X34710839Y41516753D01*
X34710839Y41516753D02*
X34748935Y41440562D01*
D11*
X22071428Y45919543D02*
X22128571Y45862400D01*
X22128571Y45862400D02*
X22299999Y45805258D01*
X22299999Y45805258D02*
X22414285Y45805258D01*
X22414285Y45805258D02*
X22585714Y45862400D01*
X22585714Y45862400D02*
X22699999Y45976686D01*
X22699999Y45976686D02*
X22757142Y46090972D01*
X22757142Y46090972D02*
X22814285Y46319543D01*
X22814285Y46319543D02*
X22814285Y46490972D01*
X22814285Y46490972D02*
X22757142Y46719543D01*
X22757142Y46719543D02*
X22699999Y46833829D01*
X22699999Y46833829D02*
X22585714Y46948115D01*
X22585714Y46948115D02*
X22414285Y47005258D01*
X22414285Y47005258D02*
X22299999Y47005258D01*
X22299999Y47005258D02*
X22128571Y46948115D01*
X22128571Y46948115D02*
X22071428Y46890972D01*
X21614285Y46148115D02*
X21042857Y46148115D01*
X21728571Y45805258D02*
X21328571Y47005258D01*
X21328571Y47005258D02*
X20928571Y45805258D01*
X20528571Y45805258D02*
X20528571Y47005258D01*
X20528571Y47005258D02*
X20071428Y47005258D01*
X20071428Y47005258D02*
X19957143Y46948115D01*
X19957143Y46948115D02*
X19900000Y46890972D01*
X19900000Y46890972D02*
X19842857Y46776686D01*
X19842857Y46776686D02*
X19842857Y46605258D01*
X19842857Y46605258D02*
X19900000Y46490972D01*
X19900000Y46490972D02*
X19957143Y46433829D01*
X19957143Y46433829D02*
X20071428Y46376686D01*
X20071428Y46376686D02*
X20528571Y46376686D01*
X17785714Y45805258D02*
X18471428Y45805258D01*
X18128571Y45805258D02*
X18128571Y47005258D01*
X18128571Y47005258D02*
X18242857Y46833829D01*
X18242857Y46833829D02*
X18357142Y46719543D01*
X18357142Y46719543D02*
X18471428Y46662400D01*
D10*
X36425125Y16497705D02*
X36158458Y15697705D01*
X36158458Y15697705D02*
X35891792Y16497705D01*
X35663221Y15735800D02*
X35548935Y15697705D01*
X35548935Y15697705D02*
X35358459Y15697705D01*
X35358459Y15697705D02*
X35282268Y15735800D01*
X35282268Y15735800D02*
X35244173Y15773896D01*
X35244173Y15773896D02*
X35206078Y15850086D01*
X35206078Y15850086D02*
X35206078Y15926277D01*
X35206078Y15926277D02*
X35244173Y16002467D01*
X35244173Y16002467D02*
X35282268Y16040562D01*
X35282268Y16040562D02*
X35358459Y16078658D01*
X35358459Y16078658D02*
X35510840Y16116753D01*
X35510840Y16116753D02*
X35587030Y16154848D01*
X35587030Y16154848D02*
X35625125Y16192943D01*
X35625125Y16192943D02*
X35663221Y16269134D01*
X35663221Y16269134D02*
X35663221Y16345324D01*
X35663221Y16345324D02*
X35625125Y16421515D01*
X35625125Y16421515D02*
X35587030Y16459610D01*
X35587030Y16459610D02*
X35510840Y16497705D01*
X35510840Y16497705D02*
X35320363Y16497705D01*
X35320363Y16497705D02*
X35206078Y16459610D01*
X34710839Y16078658D02*
X34710839Y15697705D01*
X34977506Y16497705D02*
X34710839Y16078658D01*
X34710839Y16078658D02*
X34444173Y16497705D01*
X34215602Y15735800D02*
X34101316Y15697705D01*
X34101316Y15697705D02*
X33910840Y15697705D01*
X33910840Y15697705D02*
X33834649Y15735800D01*
X33834649Y15735800D02*
X33796554Y15773896D01*
X33796554Y15773896D02*
X33758459Y15850086D01*
X33758459Y15850086D02*
X33758459Y15926277D01*
X33758459Y15926277D02*
X33796554Y16002467D01*
X33796554Y16002467D02*
X33834649Y16040562D01*
X33834649Y16040562D02*
X33910840Y16078658D01*
X33910840Y16078658D02*
X34063221Y16116753D01*
X34063221Y16116753D02*
X34139411Y16154848D01*
X34139411Y16154848D02*
X34177506Y16192943D01*
X34177506Y16192943D02*
X34215602Y16269134D01*
X34215602Y16269134D02*
X34215602Y16345324D01*
X34215602Y16345324D02*
X34177506Y16421515D01*
X34177506Y16421515D02*
X34139411Y16459610D01*
X34139411Y16459610D02*
X34063221Y16497705D01*
X34063221Y16497705D02*
X33872744Y16497705D01*
X33872744Y16497705D02*
X33758459Y16459610D01*
X35891792Y39319610D02*
X35967982Y39357705D01*
X35967982Y39357705D02*
X36082268Y39357705D01*
X36082268Y39357705D02*
X36196554Y39319610D01*
X36196554Y39319610D02*
X36272744Y39243420D01*
X36272744Y39243420D02*
X36310839Y39167229D01*
X36310839Y39167229D02*
X36348935Y39014848D01*
X36348935Y39014848D02*
X36348935Y38900562D01*
X36348935Y38900562D02*
X36310839Y38748181D01*
X36310839Y38748181D02*
X36272744Y38671991D01*
X36272744Y38671991D02*
X36196554Y38595800D01*
X36196554Y38595800D02*
X36082268Y38557705D01*
X36082268Y38557705D02*
X36006077Y38557705D01*
X36006077Y38557705D02*
X35891792Y38595800D01*
X35891792Y38595800D02*
X35853696Y38633896D01*
X35853696Y38633896D02*
X35853696Y38900562D01*
X35853696Y38900562D02*
X36006077Y38900562D01*
X35510839Y38557705D02*
X35510839Y39357705D01*
X35510839Y39357705D02*
X35206077Y39357705D01*
X35206077Y39357705D02*
X35129887Y39319610D01*
X35129887Y39319610D02*
X35091792Y39281515D01*
X35091792Y39281515D02*
X35053696Y39205324D01*
X35053696Y39205324D02*
X35053696Y39091039D01*
X35053696Y39091039D02*
X35091792Y39014848D01*
X35091792Y39014848D02*
X35129887Y38976753D01*
X35129887Y38976753D02*
X35206077Y38938658D01*
X35206077Y38938658D02*
X35510839Y38938658D01*
X34329887Y39357705D02*
X34710839Y39357705D01*
X34710839Y39357705D02*
X34748935Y38976753D01*
X34748935Y38976753D02*
X34710839Y39014848D01*
X34710839Y39014848D02*
X34634649Y39052943D01*
X34634649Y39052943D02*
X34444173Y39052943D01*
X34444173Y39052943D02*
X34367982Y39014848D01*
X34367982Y39014848D02*
X34329887Y38976753D01*
X34329887Y38976753D02*
X34291792Y38900562D01*
X34291792Y38900562D02*
X34291792Y38710086D01*
X34291792Y38710086D02*
X34329887Y38633896D01*
X34329887Y38633896D02*
X34367982Y38595800D01*
X34367982Y38595800D02*
X34444173Y38557705D01*
X34444173Y38557705D02*
X34634649Y38557705D01*
X34634649Y38557705D02*
X34710839Y38595800D01*
X34710839Y38595800D02*
X34748935Y38633896D01*
X35891792Y36779610D02*
X35967982Y36817705D01*
X35967982Y36817705D02*
X36082268Y36817705D01*
X36082268Y36817705D02*
X36196554Y36779610D01*
X36196554Y36779610D02*
X36272744Y36703420D01*
X36272744Y36703420D02*
X36310839Y36627229D01*
X36310839Y36627229D02*
X36348935Y36474848D01*
X36348935Y36474848D02*
X36348935Y36360562D01*
X36348935Y36360562D02*
X36310839Y36208181D01*
X36310839Y36208181D02*
X36272744Y36131991D01*
X36272744Y36131991D02*
X36196554Y36055800D01*
X36196554Y36055800D02*
X36082268Y36017705D01*
X36082268Y36017705D02*
X36006077Y36017705D01*
X36006077Y36017705D02*
X35891792Y36055800D01*
X35891792Y36055800D02*
X35853696Y36093896D01*
X35853696Y36093896D02*
X35853696Y36360562D01*
X35853696Y36360562D02*
X36006077Y36360562D01*
X35510839Y36017705D02*
X35510839Y36817705D01*
X35510839Y36817705D02*
X35206077Y36817705D01*
X35206077Y36817705D02*
X35129887Y36779610D01*
X35129887Y36779610D02*
X35091792Y36741515D01*
X35091792Y36741515D02*
X35053696Y36665324D01*
X35053696Y36665324D02*
X35053696Y36551039D01*
X35053696Y36551039D02*
X35091792Y36474848D01*
X35091792Y36474848D02*
X35129887Y36436753D01*
X35129887Y36436753D02*
X35206077Y36398658D01*
X35206077Y36398658D02*
X35510839Y36398658D01*
X34367982Y36551039D02*
X34367982Y36017705D01*
X34558458Y36855800D02*
X34748935Y36284372D01*
X34748935Y36284372D02*
X34253696Y36284372D01*
X32123811Y28437705D02*
X32504763Y28437705D01*
X32504763Y28437705D02*
X32504763Y29237705D01*
X31857144Y28437705D02*
X31857144Y29237705D01*
X31019049Y28513896D02*
X31057145Y28475800D01*
X31057145Y28475800D02*
X31171430Y28437705D01*
X31171430Y28437705D02*
X31247621Y28437705D01*
X31247621Y28437705D02*
X31361907Y28475800D01*
X31361907Y28475800D02*
X31438097Y28551991D01*
X31438097Y28551991D02*
X31476192Y28628181D01*
X31476192Y28628181D02*
X31514288Y28780562D01*
X31514288Y28780562D02*
X31514288Y28894848D01*
X31514288Y28894848D02*
X31476192Y29047229D01*
X31476192Y29047229D02*
X31438097Y29123420D01*
X31438097Y29123420D02*
X31361907Y29199610D01*
X31361907Y29199610D02*
X31247621Y29237705D01*
X31247621Y29237705D02*
X31171430Y29237705D01*
X31171430Y29237705D02*
X31057145Y29199610D01*
X31057145Y29199610D02*
X31019049Y29161515D01*
X30142859Y29237705D02*
X29647621Y29237705D01*
X29647621Y29237705D02*
X29914287Y28932943D01*
X29914287Y28932943D02*
X29800002Y28932943D01*
X29800002Y28932943D02*
X29723811Y28894848D01*
X29723811Y28894848D02*
X29685716Y28856753D01*
X29685716Y28856753D02*
X29647621Y28780562D01*
X29647621Y28780562D02*
X29647621Y28590086D01*
X29647621Y28590086D02*
X29685716Y28513896D01*
X29685716Y28513896D02*
X29723811Y28475800D01*
X29723811Y28475800D02*
X29800002Y28437705D01*
X29800002Y28437705D02*
X30028573Y28437705D01*
X30028573Y28437705D02*
X30104764Y28475800D01*
X30104764Y28475800D02*
X30142859Y28513896D01*
X29304763Y28513896D02*
X29266668Y28475800D01*
X29266668Y28475800D02*
X29304763Y28437705D01*
X29304763Y28437705D02*
X29342859Y28475800D01*
X29342859Y28475800D02*
X29304763Y28513896D01*
X29304763Y28513896D02*
X29304763Y28437705D01*
X28809526Y28894848D02*
X28885716Y28932943D01*
X28885716Y28932943D02*
X28923811Y28971039D01*
X28923811Y28971039D02*
X28961907Y29047229D01*
X28961907Y29047229D02*
X28961907Y29085324D01*
X28961907Y29085324D02*
X28923811Y29161515D01*
X28923811Y29161515D02*
X28885716Y29199610D01*
X28885716Y29199610D02*
X28809526Y29237705D01*
X28809526Y29237705D02*
X28657145Y29237705D01*
X28657145Y29237705D02*
X28580954Y29199610D01*
X28580954Y29199610D02*
X28542859Y29161515D01*
X28542859Y29161515D02*
X28504764Y29085324D01*
X28504764Y29085324D02*
X28504764Y29047229D01*
X28504764Y29047229D02*
X28542859Y28971039D01*
X28542859Y28971039D02*
X28580954Y28932943D01*
X28580954Y28932943D02*
X28657145Y28894848D01*
X28657145Y28894848D02*
X28809526Y28894848D01*
X28809526Y28894848D02*
X28885716Y28856753D01*
X28885716Y28856753D02*
X28923811Y28818658D01*
X28923811Y28818658D02*
X28961907Y28742467D01*
X28961907Y28742467D02*
X28961907Y28590086D01*
X28961907Y28590086D02*
X28923811Y28513896D01*
X28923811Y28513896D02*
X28885716Y28475800D01*
X28885716Y28475800D02*
X28809526Y28437705D01*
X28809526Y28437705D02*
X28657145Y28437705D01*
X28657145Y28437705D02*
X28580954Y28475800D01*
X28580954Y28475800D02*
X28542859Y28513896D01*
X28542859Y28513896D02*
X28504764Y28590086D01*
X28504764Y28590086D02*
X28504764Y28742467D01*
X28504764Y28742467D02*
X28542859Y28818658D01*
X28542859Y28818658D02*
X28580954Y28856753D01*
X28580954Y28856753D02*
X28657145Y28894848D01*
X27666668Y29237705D02*
X27400001Y28437705D01*
X27400001Y28437705D02*
X27133335Y29237705D01*
X26028573Y28132943D02*
X26066668Y28171039D01*
X26066668Y28171039D02*
X26142859Y28285324D01*
X26142859Y28285324D02*
X26180954Y28361515D01*
X26180954Y28361515D02*
X26219049Y28475800D01*
X26219049Y28475800D02*
X26257144Y28666277D01*
X26257144Y28666277D02*
X26257144Y28818658D01*
X26257144Y28818658D02*
X26219049Y29009134D01*
X26219049Y29009134D02*
X26180954Y29123420D01*
X26180954Y29123420D02*
X26142859Y29199610D01*
X26142859Y29199610D02*
X26066668Y29313896D01*
X26066668Y29313896D02*
X26028573Y29351991D01*
X25609526Y28437705D02*
X25685716Y28475800D01*
X25685716Y28475800D02*
X25723811Y28513896D01*
X25723811Y28513896D02*
X25761907Y28590086D01*
X25761907Y28590086D02*
X25761907Y28818658D01*
X25761907Y28818658D02*
X25723811Y28894848D01*
X25723811Y28894848D02*
X25685716Y28932943D01*
X25685716Y28932943D02*
X25609526Y28971039D01*
X25609526Y28971039D02*
X25495240Y28971039D01*
X25495240Y28971039D02*
X25419049Y28932943D01*
X25419049Y28932943D02*
X25380954Y28894848D01*
X25380954Y28894848D02*
X25342859Y28818658D01*
X25342859Y28818658D02*
X25342859Y28590086D01*
X25342859Y28590086D02*
X25380954Y28513896D01*
X25380954Y28513896D02*
X25419049Y28475800D01*
X25419049Y28475800D02*
X25495240Y28437705D01*
X25495240Y28437705D02*
X25609526Y28437705D01*
X25000001Y28437705D02*
X25000001Y28971039D01*
X25000001Y28818658D02*
X24961906Y28894848D01*
X24961906Y28894848D02*
X24923811Y28932943D01*
X24923811Y28932943D02*
X24847620Y28971039D01*
X24847620Y28971039D02*
X24771430Y28971039D01*
X23895239Y28856753D02*
X23628573Y28856753D01*
X23514287Y28437705D02*
X23895239Y28437705D01*
X23895239Y28437705D02*
X23895239Y29237705D01*
X23895239Y29237705D02*
X23514287Y29237705D01*
X23171429Y28437705D02*
X23171429Y29237705D01*
X23171429Y29237705D02*
X22980953Y29237705D01*
X22980953Y29237705D02*
X22866667Y29199610D01*
X22866667Y29199610D02*
X22790477Y29123420D01*
X22790477Y29123420D02*
X22752382Y29047229D01*
X22752382Y29047229D02*
X22714286Y28894848D01*
X22714286Y28894848D02*
X22714286Y28780562D01*
X22714286Y28780562D02*
X22752382Y28628181D01*
X22752382Y28628181D02*
X22790477Y28551991D01*
X22790477Y28551991D02*
X22866667Y28475800D01*
X22866667Y28475800D02*
X22980953Y28437705D01*
X22980953Y28437705D02*
X23171429Y28437705D01*
X21990477Y28437705D02*
X22371429Y28437705D01*
X22371429Y28437705D02*
X22371429Y29237705D01*
X21266667Y28513896D02*
X21304763Y28475800D01*
X21304763Y28475800D02*
X21419048Y28437705D01*
X21419048Y28437705D02*
X21495239Y28437705D01*
X21495239Y28437705D02*
X21609525Y28475800D01*
X21609525Y28475800D02*
X21685715Y28551991D01*
X21685715Y28551991D02*
X21723810Y28628181D01*
X21723810Y28628181D02*
X21761906Y28780562D01*
X21761906Y28780562D02*
X21761906Y28894848D01*
X21761906Y28894848D02*
X21723810Y29047229D01*
X21723810Y29047229D02*
X21685715Y29123420D01*
X21685715Y29123420D02*
X21609525Y29199610D01*
X21609525Y29199610D02*
X21495239Y29237705D01*
X21495239Y29237705D02*
X21419048Y29237705D01*
X21419048Y29237705D02*
X21304763Y29199610D01*
X21304763Y29199610D02*
X21266667Y29161515D01*
X20200001Y28437705D02*
X20276191Y28475800D01*
X20276191Y28475800D02*
X20314286Y28513896D01*
X20314286Y28513896D02*
X20352382Y28590086D01*
X20352382Y28590086D02*
X20352382Y28818658D01*
X20352382Y28818658D02*
X20314286Y28894848D01*
X20314286Y28894848D02*
X20276191Y28932943D01*
X20276191Y28932943D02*
X20200001Y28971039D01*
X20200001Y28971039D02*
X20085715Y28971039D01*
X20085715Y28971039D02*
X20009524Y28932943D01*
X20009524Y28932943D02*
X19971429Y28894848D01*
X19971429Y28894848D02*
X19933334Y28818658D01*
X19933334Y28818658D02*
X19933334Y28590086D01*
X19933334Y28590086D02*
X19971429Y28513896D01*
X19971429Y28513896D02*
X20009524Y28475800D01*
X20009524Y28475800D02*
X20085715Y28437705D01*
X20085715Y28437705D02*
X20200001Y28437705D01*
X19590476Y28971039D02*
X19590476Y28437705D01*
X19590476Y28894848D02*
X19552381Y28932943D01*
X19552381Y28932943D02*
X19476191Y28971039D01*
X19476191Y28971039D02*
X19361905Y28971039D01*
X19361905Y28971039D02*
X19285714Y28932943D01*
X19285714Y28932943D02*
X19247619Y28856753D01*
X19247619Y28856753D02*
X19247619Y28437705D01*
X17914285Y28437705D02*
X17914285Y28856753D01*
X17914285Y28856753D02*
X17952380Y28932943D01*
X17952380Y28932943D02*
X18028571Y28971039D01*
X18028571Y28971039D02*
X18180952Y28971039D01*
X18180952Y28971039D02*
X18257142Y28932943D01*
X17914285Y28475800D02*
X17990476Y28437705D01*
X17990476Y28437705D02*
X18180952Y28437705D01*
X18180952Y28437705D02*
X18257142Y28475800D01*
X18257142Y28475800D02*
X18295238Y28551991D01*
X18295238Y28551991D02*
X18295238Y28628181D01*
X18295238Y28628181D02*
X18257142Y28704372D01*
X18257142Y28704372D02*
X18180952Y28742467D01*
X18180952Y28742467D02*
X17990476Y28742467D01*
X17990476Y28742467D02*
X17914285Y28780562D01*
X17533332Y28971039D02*
X17533332Y28437705D01*
X17533332Y28894848D02*
X17495237Y28932943D01*
X17495237Y28932943D02*
X17419047Y28971039D01*
X17419047Y28971039D02*
X17304761Y28971039D01*
X17304761Y28971039D02*
X17228570Y28932943D01*
X17228570Y28932943D02*
X17190475Y28856753D01*
X17190475Y28856753D02*
X17190475Y28437705D01*
X16199998Y28856753D02*
X15933332Y28856753D01*
X15819046Y28437705D02*
X16199998Y28437705D01*
X16199998Y28437705D02*
X16199998Y29237705D01*
X16199998Y29237705D02*
X15819046Y29237705D01*
X15476188Y28437705D02*
X15476188Y29237705D01*
X15476188Y29237705D02*
X15285712Y29237705D01*
X15285712Y29237705D02*
X15171426Y29199610D01*
X15171426Y29199610D02*
X15095236Y29123420D01*
X15095236Y29123420D02*
X15057141Y29047229D01*
X15057141Y29047229D02*
X15019045Y28894848D01*
X15019045Y28894848D02*
X15019045Y28780562D01*
X15019045Y28780562D02*
X15057141Y28628181D01*
X15057141Y28628181D02*
X15095236Y28551991D01*
X15095236Y28551991D02*
X15171426Y28475800D01*
X15171426Y28475800D02*
X15285712Y28437705D01*
X15285712Y28437705D02*
X15476188Y28437705D01*
X14295236Y28437705D02*
X14676188Y28437705D01*
X14676188Y28437705D02*
X14676188Y29237705D01*
X13571426Y28513896D02*
X13609522Y28475800D01*
X13609522Y28475800D02*
X13723807Y28437705D01*
X13723807Y28437705D02*
X13799998Y28437705D01*
X13799998Y28437705D02*
X13914284Y28475800D01*
X13914284Y28475800D02*
X13990474Y28551991D01*
X13990474Y28551991D02*
X14028569Y28628181D01*
X14028569Y28628181D02*
X14066665Y28780562D01*
X14066665Y28780562D02*
X14066665Y28894848D01*
X14066665Y28894848D02*
X14028569Y29047229D01*
X14028569Y29047229D02*
X13990474Y29123420D01*
X13990474Y29123420D02*
X13914284Y29199610D01*
X13914284Y29199610D02*
X13799998Y29237705D01*
X13799998Y29237705D02*
X13723807Y29237705D01*
X13723807Y29237705D02*
X13609522Y29199610D01*
X13609522Y29199610D02*
X13571426Y29161515D01*
X12619045Y28437705D02*
X12619045Y29237705D01*
X12619045Y28932943D02*
X12542855Y28971039D01*
X12542855Y28971039D02*
X12390474Y28971039D01*
X12390474Y28971039D02*
X12314283Y28932943D01*
X12314283Y28932943D02*
X12276188Y28894848D01*
X12276188Y28894848D02*
X12238093Y28818658D01*
X12238093Y28818658D02*
X12238093Y28590086D01*
X12238093Y28590086D02*
X12276188Y28513896D01*
X12276188Y28513896D02*
X12314283Y28475800D01*
X12314283Y28475800D02*
X12390474Y28437705D01*
X12390474Y28437705D02*
X12542855Y28437705D01*
X12542855Y28437705D02*
X12619045Y28475800D01*
X11552378Y28971039D02*
X11552378Y28437705D01*
X11895235Y28971039D02*
X11895235Y28551991D01*
X11895235Y28551991D02*
X11857140Y28475800D01*
X11857140Y28475800D02*
X11780950Y28437705D01*
X11780950Y28437705D02*
X11666664Y28437705D01*
X11666664Y28437705D02*
X11590473Y28475800D01*
X11590473Y28475800D02*
X11552378Y28513896D01*
X11171425Y28437705D02*
X11171425Y28971039D01*
X11171425Y29237705D02*
X11209521Y29199610D01*
X11209521Y29199610D02*
X11171425Y29161515D01*
X11171425Y29161515D02*
X11133330Y29199610D01*
X11133330Y29199610D02*
X11171425Y29237705D01*
X11171425Y29237705D02*
X11171425Y29161515D01*
X10676188Y28437705D02*
X10752378Y28475800D01*
X10752378Y28475800D02*
X10790473Y28551991D01*
X10790473Y28551991D02*
X10790473Y29237705D01*
X10028568Y28437705D02*
X10028568Y29237705D01*
X10028568Y28475800D02*
X10104759Y28437705D01*
X10104759Y28437705D02*
X10257140Y28437705D01*
X10257140Y28437705D02*
X10333330Y28475800D01*
X10333330Y28475800D02*
X10371425Y28513896D01*
X10371425Y28513896D02*
X10409521Y28590086D01*
X10409521Y28590086D02*
X10409521Y28818658D01*
X10409521Y28818658D02*
X10371425Y28894848D01*
X10371425Y28894848D02*
X10333330Y28932943D01*
X10333330Y28932943D02*
X10257140Y28971039D01*
X10257140Y28971039D02*
X10104759Y28971039D01*
X10104759Y28971039D02*
X10028568Y28932943D01*
X9723806Y28132943D02*
X9685711Y28171039D01*
X9685711Y28171039D02*
X9609520Y28285324D01*
X9609520Y28285324D02*
X9571425Y28361515D01*
X9571425Y28361515D02*
X9533330Y28475800D01*
X9533330Y28475800D02*
X9495234Y28666277D01*
X9495234Y28666277D02*
X9495234Y28818658D01*
X9495234Y28818658D02*
X9533330Y29009134D01*
X9533330Y29009134D02*
X9571425Y29123420D01*
X9571425Y29123420D02*
X9609520Y29199610D01*
X9609520Y29199610D02*
X9685711Y29313896D01*
X9685711Y29313896D02*
X9723806Y29351991D01*
X26483332Y55763896D02*
X26521428Y55725800D01*
X26521428Y55725800D02*
X26635713Y55687705D01*
X26635713Y55687705D02*
X26711904Y55687705D01*
X26711904Y55687705D02*
X26826190Y55725800D01*
X26826190Y55725800D02*
X26902380Y55801991D01*
X26902380Y55801991D02*
X26940475Y55878181D01*
X26940475Y55878181D02*
X26978571Y56030562D01*
X26978571Y56030562D02*
X26978571Y56144848D01*
X26978571Y56144848D02*
X26940475Y56297229D01*
X26940475Y56297229D02*
X26902380Y56373420D01*
X26902380Y56373420D02*
X26826190Y56449610D01*
X26826190Y56449610D02*
X26711904Y56487705D01*
X26711904Y56487705D02*
X26635713Y56487705D01*
X26635713Y56487705D02*
X26521428Y56449610D01*
X26521428Y56449610D02*
X26483332Y56411515D01*
X26178571Y55725800D02*
X26064285Y55687705D01*
X26064285Y55687705D02*
X25873809Y55687705D01*
X25873809Y55687705D02*
X25797618Y55725800D01*
X25797618Y55725800D02*
X25759523Y55763896D01*
X25759523Y55763896D02*
X25721428Y55840086D01*
X25721428Y55840086D02*
X25721428Y55916277D01*
X25721428Y55916277D02*
X25759523Y55992467D01*
X25759523Y55992467D02*
X25797618Y56030562D01*
X25797618Y56030562D02*
X25873809Y56068658D01*
X25873809Y56068658D02*
X26026190Y56106753D01*
X26026190Y56106753D02*
X26102380Y56144848D01*
X26102380Y56144848D02*
X26140475Y56182943D01*
X26140475Y56182943D02*
X26178571Y56259134D01*
X26178571Y56259134D02*
X26178571Y56335324D01*
X26178571Y56335324D02*
X26140475Y56411515D01*
X26140475Y56411515D02*
X26102380Y56449610D01*
X26102380Y56449610D02*
X26026190Y56487705D01*
X26026190Y56487705D02*
X25835713Y56487705D01*
X25835713Y56487705D02*
X25721428Y56449610D01*
X11719523Y56449610D02*
X11795713Y56487705D01*
X11795713Y56487705D02*
X11909999Y56487705D01*
X11909999Y56487705D02*
X12024285Y56449610D01*
X12024285Y56449610D02*
X12100475Y56373420D01*
X12100475Y56373420D02*
X12138570Y56297229D01*
X12138570Y56297229D02*
X12176666Y56144848D01*
X12176666Y56144848D02*
X12176666Y56030562D01*
X12176666Y56030562D02*
X12138570Y55878181D01*
X12138570Y55878181D02*
X12100475Y55801991D01*
X12100475Y55801991D02*
X12024285Y55725800D01*
X12024285Y55725800D02*
X11909999Y55687705D01*
X11909999Y55687705D02*
X11833808Y55687705D01*
X11833808Y55687705D02*
X11719523Y55725800D01*
X11719523Y55725800D02*
X11681427Y55763896D01*
X11681427Y55763896D02*
X11681427Y56030562D01*
X11681427Y56030562D02*
X11833808Y56030562D01*
X11338570Y55687705D02*
X11338570Y56487705D01*
X11338570Y56487705D02*
X10881427Y55687705D01*
X10881427Y55687705D02*
X10881427Y56487705D01*
X10500475Y55687705D02*
X10500475Y56487705D01*
X10500475Y56487705D02*
X10309999Y56487705D01*
X10309999Y56487705D02*
X10195713Y56449610D01*
X10195713Y56449610D02*
X10119523Y56373420D01*
X10119523Y56373420D02*
X10081428Y56297229D01*
X10081428Y56297229D02*
X10043332Y56144848D01*
X10043332Y56144848D02*
X10043332Y56030562D01*
X10043332Y56030562D02*
X10081428Y55878181D01*
X10081428Y55878181D02*
X10119523Y55801991D01*
X10119523Y55801991D02*
X10195713Y55725800D01*
X10195713Y55725800D02*
X10309999Y55687705D01*
X10309999Y55687705D02*
X10500475Y55687705D01*
X22222381Y52025800D02*
X22108095Y51987705D01*
X22108095Y51987705D02*
X21917619Y51987705D01*
X21917619Y51987705D02*
X21841428Y52025800D01*
X21841428Y52025800D02*
X21803333Y52063896D01*
X21803333Y52063896D02*
X21765238Y52140086D01*
X21765238Y52140086D02*
X21765238Y52216277D01*
X21765238Y52216277D02*
X21803333Y52292467D01*
X21803333Y52292467D02*
X21841428Y52330562D01*
X21841428Y52330562D02*
X21917619Y52368658D01*
X21917619Y52368658D02*
X22070000Y52406753D01*
X22070000Y52406753D02*
X22146190Y52444848D01*
X22146190Y52444848D02*
X22184285Y52482943D01*
X22184285Y52482943D02*
X22222381Y52559134D01*
X22222381Y52559134D02*
X22222381Y52635324D01*
X22222381Y52635324D02*
X22184285Y52711515D01*
X22184285Y52711515D02*
X22146190Y52749610D01*
X22146190Y52749610D02*
X22070000Y52787705D01*
X22070000Y52787705D02*
X21879523Y52787705D01*
X21879523Y52787705D02*
X21765238Y52749610D01*
X20965237Y52063896D02*
X21003333Y52025800D01*
X21003333Y52025800D02*
X21117618Y51987705D01*
X21117618Y51987705D02*
X21193809Y51987705D01*
X21193809Y51987705D02*
X21308095Y52025800D01*
X21308095Y52025800D02*
X21384285Y52101991D01*
X21384285Y52101991D02*
X21422380Y52178181D01*
X21422380Y52178181D02*
X21460476Y52330562D01*
X21460476Y52330562D02*
X21460476Y52444848D01*
X21460476Y52444848D02*
X21422380Y52597229D01*
X21422380Y52597229D02*
X21384285Y52673420D01*
X21384285Y52673420D02*
X21308095Y52749610D01*
X21308095Y52749610D02*
X21193809Y52787705D01*
X21193809Y52787705D02*
X21117618Y52787705D01*
X21117618Y52787705D02*
X21003333Y52749610D01*
X21003333Y52749610D02*
X20965237Y52711515D01*
X20241428Y51987705D02*
X20622380Y51987705D01*
X20622380Y51987705D02*
X20622380Y52787705D01*
D12*
X26552381Y18872810D02*
X25638095Y18872810D01*
X26095238Y17272810D02*
X26095238Y18872810D01*
X25104761Y17272810D02*
X25104761Y18339477D01*
X25104761Y18034715D02*
X25028571Y18187096D01*
X25028571Y18187096D02*
X24952380Y18263286D01*
X24952380Y18263286D02*
X24799999Y18339477D01*
X24799999Y18339477D02*
X24647618Y18339477D01*
X24114285Y17272810D02*
X24114285Y18339477D01*
X24114285Y18872810D02*
X24190476Y18796620D01*
X24190476Y18796620D02*
X24114285Y18720429D01*
X24114285Y18720429D02*
X24038095Y18796620D01*
X24038095Y18796620D02*
X24114285Y18872810D01*
X24114285Y18872810D02*
X24114285Y18720429D01*
X23352380Y18339477D02*
X23352380Y17272810D01*
X23352380Y18187096D02*
X23276190Y18263286D01*
X23276190Y18263286D02*
X23123809Y18339477D01*
X23123809Y18339477D02*
X22895237Y18339477D01*
X22895237Y18339477D02*
X22742856Y18263286D01*
X22742856Y18263286D02*
X22666666Y18110905D01*
X22666666Y18110905D02*
X22666666Y17272810D01*
X21904761Y17272810D02*
X21904761Y18872810D01*
X21752380Y17882334D02*
X21295237Y17272810D01*
X21295237Y18339477D02*
X21904761Y17729953D01*
X19999999Y17349000D02*
X20152380Y17272810D01*
X20152380Y17272810D02*
X20457142Y17272810D01*
X20457142Y17272810D02*
X20609523Y17349000D01*
X20609523Y17349000D02*
X20685714Y17501381D01*
X20685714Y17501381D02*
X20685714Y18110905D01*
X20685714Y18110905D02*
X20609523Y18263286D01*
X20609523Y18263286D02*
X20457142Y18339477D01*
X20457142Y18339477D02*
X20152380Y18339477D01*
X20152380Y18339477D02*
X19999999Y18263286D01*
X19999999Y18263286D02*
X19923809Y18110905D01*
X19923809Y18110905D02*
X19923809Y17958524D01*
X19923809Y17958524D02*
X20685714Y17806143D01*
X19466666Y18339477D02*
X18857142Y18339477D01*
X19238094Y18872810D02*
X19238094Y17501381D01*
X19238094Y17501381D02*
X19161904Y17349000D01*
X19161904Y17349000D02*
X19009523Y17272810D01*
X19009523Y17272810D02*
X18857142Y17272810D01*
X17409522Y17425191D02*
X17485713Y17349000D01*
X17485713Y17349000D02*
X17714284Y17272810D01*
X17714284Y17272810D02*
X17866665Y17272810D01*
X17866665Y17272810D02*
X18095237Y17349000D01*
X18095237Y17349000D02*
X18247618Y17501381D01*
X18247618Y17501381D02*
X18323808Y17653762D01*
X18323808Y17653762D02*
X18399999Y17958524D01*
X18399999Y17958524D02*
X18399999Y18187096D01*
X18399999Y18187096D02*
X18323808Y18491858D01*
X18323808Y18491858D02*
X18247618Y18644239D01*
X18247618Y18644239D02*
X18095237Y18796620D01*
X18095237Y18796620D02*
X17866665Y18872810D01*
X17866665Y18872810D02*
X17714284Y18872810D01*
X17714284Y18872810D02*
X17485713Y18796620D01*
X17485713Y18796620D02*
X17409522Y18720429D01*
X16495237Y17272810D02*
X16647618Y17349000D01*
X16647618Y17349000D02*
X16723808Y17425191D01*
X16723808Y17425191D02*
X16799999Y17577572D01*
X16799999Y17577572D02*
X16799999Y18034715D01*
X16799999Y18034715D02*
X16723808Y18187096D01*
X16723808Y18187096D02*
X16647618Y18263286D01*
X16647618Y18263286D02*
X16495237Y18339477D01*
X16495237Y18339477D02*
X16266665Y18339477D01*
X16266665Y18339477D02*
X16114284Y18263286D01*
X16114284Y18263286D02*
X16038094Y18187096D01*
X16038094Y18187096D02*
X15961903Y18034715D01*
X15961903Y18034715D02*
X15961903Y17577572D01*
X15961903Y17577572D02*
X16038094Y17425191D01*
X16038094Y17425191D02*
X16114284Y17349000D01*
X16114284Y17349000D02*
X16266665Y17272810D01*
X16266665Y17272810D02*
X16495237Y17272810D01*
X15276189Y17272810D02*
X15276189Y18339477D01*
X15276189Y18034715D02*
X15199999Y18187096D01*
X15199999Y18187096D02*
X15123808Y18263286D01*
X15123808Y18263286D02*
X14971427Y18339477D01*
X14971427Y18339477D02*
X14819046Y18339477D01*
X13676189Y17349000D02*
X13828570Y17272810D01*
X13828570Y17272810D02*
X14133332Y17272810D01*
X14133332Y17272810D02*
X14285713Y17349000D01*
X14285713Y17349000D02*
X14361904Y17501381D01*
X14361904Y17501381D02*
X14361904Y18110905D01*
X14361904Y18110905D02*
X14285713Y18263286D01*
X14285713Y18263286D02*
X14133332Y18339477D01*
X14133332Y18339477D02*
X13828570Y18339477D01*
X13828570Y18339477D02*
X13676189Y18263286D01*
X13676189Y18263286D02*
X13599999Y18110905D01*
X13599999Y18110905D02*
X13599999Y17958524D01*
X13599999Y17958524D02*
X14361904Y17806143D01*
D10*
X35891792Y11379610D02*
X35967982Y11417705D01*
X35967982Y11417705D02*
X36082268Y11417705D01*
X36082268Y11417705D02*
X36196554Y11379610D01*
X36196554Y11379610D02*
X36272744Y11303420D01*
X36272744Y11303420D02*
X36310839Y11227229D01*
X36310839Y11227229D02*
X36348935Y11074848D01*
X36348935Y11074848D02*
X36348935Y10960562D01*
X36348935Y10960562D02*
X36310839Y10808181D01*
X36310839Y10808181D02*
X36272744Y10731991D01*
X36272744Y10731991D02*
X36196554Y10655800D01*
X36196554Y10655800D02*
X36082268Y10617705D01*
X36082268Y10617705D02*
X36006077Y10617705D01*
X36006077Y10617705D02*
X35891792Y10655800D01*
X35891792Y10655800D02*
X35853696Y10693896D01*
X35853696Y10693896D02*
X35853696Y10960562D01*
X35853696Y10960562D02*
X36006077Y10960562D01*
X35510839Y10617705D02*
X35510839Y11417705D01*
X35510839Y11417705D02*
X35053696Y10617705D01*
X35053696Y10617705D02*
X35053696Y11417705D01*
X34672744Y10617705D02*
X34672744Y11417705D01*
X34672744Y11417705D02*
X34482268Y11417705D01*
X34482268Y11417705D02*
X34367982Y11379610D01*
X34367982Y11379610D02*
X34291792Y11303420D01*
X34291792Y11303420D02*
X34253697Y11227229D01*
X34253697Y11227229D02*
X34215601Y11074848D01*
X34215601Y11074848D02*
X34215601Y10960562D01*
X34215601Y10960562D02*
X34253697Y10808181D01*
X34253697Y10808181D02*
X34291792Y10731991D01*
X34291792Y10731991D02*
X34367982Y10655800D01*
X34367982Y10655800D02*
X34482268Y10617705D01*
X34482268Y10617705D02*
X34672744Y10617705D01*
X36387030Y13957705D02*
X35891792Y13957705D01*
X35891792Y13957705D02*
X36158458Y13652943D01*
X36158458Y13652943D02*
X36044173Y13652943D01*
X36044173Y13652943D02*
X35967982Y13614848D01*
X35967982Y13614848D02*
X35929887Y13576753D01*
X35929887Y13576753D02*
X35891792Y13500562D01*
X35891792Y13500562D02*
X35891792Y13310086D01*
X35891792Y13310086D02*
X35929887Y13233896D01*
X35929887Y13233896D02*
X35967982Y13195800D01*
X35967982Y13195800D02*
X36044173Y13157705D01*
X36044173Y13157705D02*
X36272744Y13157705D01*
X36272744Y13157705D02*
X36348935Y13195800D01*
X36348935Y13195800D02*
X36387030Y13233896D01*
X35663220Y13957705D02*
X35396553Y13157705D01*
X35396553Y13157705D02*
X35129887Y13957705D01*
X34939411Y13957705D02*
X34444173Y13957705D01*
X34444173Y13957705D02*
X34710839Y13652943D01*
X34710839Y13652943D02*
X34596554Y13652943D01*
X34596554Y13652943D02*
X34520363Y13614848D01*
X34520363Y13614848D02*
X34482268Y13576753D01*
X34482268Y13576753D02*
X34444173Y13500562D01*
X34444173Y13500562D02*
X34444173Y13310086D01*
X34444173Y13310086D02*
X34482268Y13233896D01*
X34482268Y13233896D02*
X34520363Y13195800D01*
X34520363Y13195800D02*
X34596554Y13157705D01*
X34596554Y13157705D02*
X34825125Y13157705D01*
X34825125Y13157705D02*
X34901316Y13195800D01*
X34901316Y13195800D02*
X34939411Y13233896D01*
D11*
X5087600Y42657143D02*
X5087600Y41742857D01*
X5087600Y51357143D02*
X5087600Y50442857D01*
X5544742Y50900000D02*
X4630457Y50900000D01*
X5087600Y34357143D02*
X5087600Y33442857D01*
X5544742Y33900000D02*
X4630457Y33900000D01*
X5087600Y25657143D02*
X5087600Y24742857D01*
%LPC*%
D13*
%TO.C,J6*%
X38000000Y44000000D03*
D14*
X38000000Y41460000D03*
X38000000Y38920000D03*
X38000000Y36380000D03*
X38000000Y33840000D03*
X38000000Y31300000D03*
X38000000Y28760000D03*
X38000000Y26220000D03*
X38000000Y23680000D03*
X38000000Y21140000D03*
X38000000Y18600000D03*
X38000000Y16060000D03*
X38000000Y13520000D03*
X38000000Y10980000D03*
%TD*%
D15*
%TO.C,BT1*%
X5000000Y49000000D03*
D16*
X2000000Y49000000D03*
D17*
X2000000Y45500000D03*
D18*
X5000000Y44000000D03*
%TD*%
D15*
%TO.C,BT2*%
X5000000Y32000000D03*
D16*
X2000000Y32000000D03*
D17*
X2000000Y28500000D03*
D18*
X5000000Y27000000D03*
%TD*%
D19*
%TO.C,J1*%
X17110000Y5650000D03*
X22890000Y5650000D03*
D20*
X15680000Y6180000D03*
D21*
X15680000Y2000000D03*
D20*
X24320000Y6180000D03*
D21*
X24320000Y2000000D03*
%TD*%
D22*
%TO.C,J7*%
X3500000Y20500000D03*
D23*
X3500000Y18500000D03*
%TD*%
D13*
%TO.C,J5*%
X16190000Y54200000D03*
D14*
X18730000Y54200000D03*
X21270000Y54200000D03*
X23810000Y54200000D03*
%TD*%
D13*
%TO.C,J4*%
X11110000Y58000000D03*
D14*
X13650000Y58000000D03*
X16190000Y58000000D03*
X18730000Y58000000D03*
X21270000Y58000000D03*
X23810000Y58000000D03*
X26350000Y58000000D03*
X28890000Y58000000D03*
%TD*%
%LPD*%
M02*
