%TF.GenerationSoftware,KiCad,Pcbnew,7.0.11+dfsg-1build4*%
%TF.CreationDate,2026-09-26T07:37:13+00:00*%
%TF.ProjectId,trinketcore,7472696e-6b65-4746-936f-72652e6b6963,rev?*%
%TF.SameCoordinates,Original*%
%TF.FileFunction,Legend,Top*%
%TF.FilePolarity,Positive*%
%FSLAX46Y46*%
G04 Gerber Fmt 4.6, Leading zero omitted, Abs format (unit mm)*
G04 Created by KiCad (PCBNEW 7.0.11+dfsg-1build4) date 2026-09-26 07:37:13*
%MOMM*%
%LPD*%
G01*
G04 APERTURE LIST*
G04 Aperture macros list*
%AMRoundRect*
0 Rectangle with rounded corners*
0 $1 Rounding radius*
0 $2 $3 $4 $5 $6 $7 $8 $9 X,Y pos of 4 corners*
0 Add a 4 corners polygon primitive as box body*
4,1,4,$2,$3,$4,$5,$6,$7,$8,$9,$2,$3,0*
0 Add four circle primitives for the rounded corners*
1,1,$1+$1,$2,$3*
1,1,$1+$1,$4,$5*
1,1,$1+$1,$6,$7*
1,1,$1+$1,$8,$9*
0 Add four rect primitives between the rounded corners*
20,1,$1+$1,$2,$3,$4,$5,0*
20,1,$1+$1,$4,$5,$6,$7,0*
20,1,$1+$1,$6,$7,$8,$9,0*
20,1,$1+$1,$8,$9,$2,$3,0*%
%AMFreePoly0*
4,1,19,0.500000,-0.750000,0.000000,-0.750000,0.000000,-0.744911,-0.071157,-0.744911,-0.207708,-0.704816,-0.327430,-0.627875,-0.420627,-0.520320,-0.479746,-0.390866,-0.500000,-0.250000,-0.500000,0.250000,-0.479746,0.390866,-0.420627,0.520320,-0.327430,0.627875,-0.207708,0.704816,-0.071157,0.744911,0.000000,0.744911,0.000000,0.750000,0.500000,0.750000,0.500000,-0.750000,0.500000,-0.750000,
$1*%
%AMFreePoly1*
4,1,19,0.000000,0.744911,0.071157,0.744911,0.207708,0.704816,0.327430,0.627875,0.420627,0.520320,0.479746,0.390866,0.500000,0.250000,0.500000,-0.250000,0.479746,-0.390866,0.420627,-0.520320,0.327430,-0.627875,0.207708,-0.704816,0.071157,-0.744911,0.000000,-0.744911,0.000000,-0.750000,-0.500000,-0.750000,-0.500000,0.750000,0.000000,0.750000,0.000000,0.744911,0.000000,0.744911,
$1*%
G04 Aperture macros list end*
%ADD10C,0.150000*%
%ADD11C,0.200000*%
%ADD12C,0.120000*%
%ADD13RoundRect,0.140000X-0.170000X0.140000X-0.170000X-0.140000X0.170000X-0.140000X0.170000X0.140000X0*%
%ADD14RoundRect,0.250000X0.475000X-0.250000X0.475000X0.250000X-0.475000X0.250000X-0.475000X-0.250000X0*%
%ADD15RoundRect,0.140000X-0.140000X-0.170000X0.140000X-0.170000X0.140000X0.170000X-0.140000X0.170000X0*%
%ADD16RoundRect,0.140000X0.170000X-0.140000X0.170000X0.140000X-0.170000X0.140000X-0.170000X-0.140000X0*%
%ADD17FreePoly0,90.000000*%
%ADD18FreePoly1,90.000000*%
%ADD19R,1.700000X1.700000*%
%ADD20O,1.700000X1.700000*%
%ADD21RoundRect,0.135000X-0.135000X-0.185000X0.135000X-0.185000X0.135000X0.185000X-0.135000X0.185000X0*%
%ADD22RoundRect,0.112500X0.112500X-0.187500X0.112500X0.187500X-0.112500X0.187500X-0.112500X-0.187500X0*%
%ADD23RoundRect,0.135000X0.185000X-0.135000X0.185000X0.135000X-0.185000X0.135000X-0.185000X-0.135000X0*%
%ADD24RoundRect,0.150000X-0.587500X-0.150000X0.587500X-0.150000X0.587500X0.150000X-0.587500X0.150000X0*%
%ADD25C,2.000000*%
%ADD26RoundRect,0.140000X0.140000X0.170000X-0.140000X0.170000X-0.140000X-0.170000X0.140000X-0.170000X0*%
%ADD27R,1.000000X1.800000*%
%ADD28R,1.800000X1.800000*%
%ADD29R,1.600000X1.600000*%
%ADD30C,1.600000*%
%ADD31C,1.800000*%
%ADD32RoundRect,0.135000X0.135000X0.185000X-0.135000X0.185000X-0.135000X-0.185000X0.135000X-0.185000X0*%
%ADD33RoundRect,0.218750X0.218750X0.256250X-0.218750X0.256250X-0.218750X-0.256250X0.218750X-0.256250X0*%
%ADD34R,0.900000X1.700000*%
%ADD35RoundRect,0.225000X0.250000X-0.225000X0.250000X0.225000X-0.250000X0.225000X-0.250000X-0.225000X0*%
%ADD36RoundRect,0.062500X0.350000X0.062500X-0.350000X0.062500X-0.350000X-0.062500X0.350000X-0.062500X0*%
%ADD37RoundRect,0.062500X0.062500X0.350000X-0.062500X0.350000X-0.062500X-0.350000X0.062500X-0.350000X0*%
%ADD38R,1.230000X1.230000*%
%ADD39C,0.650000*%
%ADD40R,0.600000X1.450000*%
%ADD41R,0.300000X1.450000*%
%ADD42O,1.000000X2.100000*%
%ADD43O,1.000000X1.600000*%
%ADD44RoundRect,0.250000X-0.250000X-0.475000X0.250000X-0.475000X0.250000X0.475000X-0.250000X0.475000X0*%
%ADD45RoundRect,0.250000X-0.600000X-0.250000X0.600000X-0.250000X0.600000X0.250000X-0.600000X0.250000X0*%
%ADD46RoundRect,0.050000X-0.050000X0.387500X-0.050000X-0.387500X0.050000X-0.387500X0.050000X0.387500X0*%
%ADD47RoundRect,0.050000X-0.387500X0.050000X-0.387500X-0.050000X0.387500X-0.050000X0.387500X0.050000X0*%
%ADD48R,3.200000X3.200000*%
%ADD49R,1.200000X1.400000*%
%ADD50RoundRect,0.250000X-0.625000X0.350000X-0.625000X-0.350000X0.625000X-0.350000X0.625000X0.350000X0*%
%ADD51O,1.750000X1.200000*%
%ADD52RoundRect,0.150000X0.650000X0.150000X-0.650000X0.150000X-0.650000X-0.150000X0.650000X-0.150000X0*%
%ADD53RoundRect,0.150000X-0.825000X-0.150000X0.825000X-0.150000X0.825000X0.150000X-0.825000X0.150000X0*%
%ADD54RoundRect,0.225000X-0.250000X0.225000X-0.250000X-0.225000X0.250000X-0.225000X0.250000X0.225000X0*%
%ADD55R,3.200000X1.400000*%
%ADD56RoundRect,0.150000X-0.512500X-0.150000X0.512500X-0.150000X0.512500X0.150000X-0.512500X0.150000X0*%
%ADD57RoundRect,0.150000X0.625000X-0.150000X0.625000X0.150000X-0.625000X0.150000X-0.625000X-0.150000X0*%
%ADD58RoundRect,0.250000X0.650000X-0.350000X0.650000X0.350000X-0.650000X0.350000X-0.650000X-0.350000X0*%
%ADD59RoundRect,0.062500X-0.350000X-0.062500X0.350000X-0.062500X0.350000X0.062500X-0.350000X0.062500X0*%
%ADD60R,1.200000X2.000000*%
%ADD61RoundRect,0.062500X-0.187500X-0.062500X0.187500X-0.062500X0.187500X0.062500X-0.187500X0.062500X0*%
%ADD62R,0.900000X1.600000*%
G04 APERTURE END LIST*
D10*
X32538485Y51466668D02*
X32500390Y51390478D01*
X32500390Y51390478D02*
X32424200Y51314287D01*
X32424200Y51314287D02*
X32309914Y51200001D01*
X32309914Y51200001D02*
X32271819Y51123811D01*
X32271819Y51123811D02*
X32271819Y51047620D01*
X32462295Y51085716D02*
X32424200Y51009525D01*
X32424200Y51009525D02*
X32348009Y50933335D01*
X32348009Y50933335D02*
X32195628Y50895239D01*
X32195628Y50895239D02*
X31928961Y50895239D01*
X31928961Y50895239D02*
X31776580Y50933335D01*
X31776580Y50933335D02*
X31700390Y51009525D01*
X31700390Y51009525D02*
X31662295Y51085716D01*
X31662295Y51085716D02*
X31662295Y51238097D01*
X31662295Y51238097D02*
X31700390Y51314287D01*
X31700390Y51314287D02*
X31776580Y51390478D01*
X31776580Y51390478D02*
X31928961Y51428573D01*
X31928961Y51428573D02*
X32195628Y51428573D01*
X32195628Y51428573D02*
X32348009Y51390478D01*
X32348009Y51390478D02*
X32424200Y51314287D01*
X32424200Y51314287D02*
X32462295Y51238097D01*
X32462295Y51238097D02*
X32462295Y51085716D01*
X31662295Y51695239D02*
X32462295Y51885715D01*
X32462295Y51885715D02*
X31890866Y52038096D01*
X31890866Y52038096D02*
X32462295Y52190477D01*
X32462295Y52190477D02*
X31662295Y52380953D01*
X32462295Y52685716D02*
X31662295Y52685716D01*
X32462295Y53066668D02*
X31662295Y53066668D01*
X32386104Y53904763D02*
X32424200Y53866667D01*
X32424200Y53866667D02*
X32462295Y53752382D01*
X32462295Y53752382D02*
X32462295Y53676191D01*
X32462295Y53676191D02*
X32424200Y53561905D01*
X32424200Y53561905D02*
X32348009Y53485715D01*
X32348009Y53485715D02*
X32271819Y53447620D01*
X32271819Y53447620D02*
X32119438Y53409524D01*
X32119438Y53409524D02*
X32005152Y53409524D01*
X32005152Y53409524D02*
X31852771Y53447620D01*
X31852771Y53447620D02*
X31776580Y53485715D01*
X31776580Y53485715D02*
X31700390Y53561905D01*
X31700390Y53561905D02*
X31662295Y53676191D01*
X31662295Y53676191D02*
X31662295Y53752382D01*
X31662295Y53752382D02*
X31700390Y53866667D01*
X31700390Y53866667D02*
X31738485Y53904763D01*
X3571429Y7237705D02*
X3571429Y8037705D01*
X3571429Y8037705D02*
X3876191Y8037705D01*
X3876191Y8037705D02*
X3952381Y7999610D01*
X3952381Y7999610D02*
X3990476Y7961515D01*
X3990476Y7961515D02*
X4028572Y7885324D01*
X4028572Y7885324D02*
X4028572Y7771039D01*
X4028572Y7771039D02*
X3990476Y7694848D01*
X3990476Y7694848D02*
X3952381Y7656753D01*
X3952381Y7656753D02*
X3876191Y7618658D01*
X3876191Y7618658D02*
X3571429Y7618658D01*
X4295238Y8037705D02*
X4485714Y7237705D01*
X4485714Y7237705D02*
X4638095Y7809134D01*
X4638095Y7809134D02*
X4790476Y7237705D01*
X4790476Y7237705D02*
X4980953Y8037705D01*
X5742858Y7237705D02*
X5476191Y7618658D01*
X5285715Y7237705D02*
X5285715Y8037705D01*
X5285715Y8037705D02*
X5590477Y8037705D01*
X5590477Y8037705D02*
X5666667Y7999610D01*
X5666667Y7999610D02*
X5704762Y7961515D01*
X5704762Y7961515D02*
X5742858Y7885324D01*
X5742858Y7885324D02*
X5742858Y7771039D01*
X5742858Y7771039D02*
X5704762Y7694848D01*
X5704762Y7694848D02*
X5666667Y7656753D01*
X5666667Y7656753D02*
X5590477Y7618658D01*
X5590477Y7618658D02*
X5285715Y7618658D01*
X6657143Y8075800D02*
X5971429Y7047229D01*
X6885714Y7466277D02*
X7266667Y7466277D01*
X6809524Y7237705D02*
X7076191Y8037705D01*
X7076191Y8037705D02*
X7342857Y7237705D01*
X4419048Y57637705D02*
X4419048Y58437705D01*
X4419048Y58437705D02*
X4609524Y58437705D01*
X4609524Y58437705D02*
X4723810Y58399610D01*
X4723810Y58399610D02*
X4800000Y58323420D01*
X4800000Y58323420D02*
X4838095Y58247229D01*
X4838095Y58247229D02*
X4876191Y58094848D01*
X4876191Y58094848D02*
X4876191Y57980562D01*
X4876191Y57980562D02*
X4838095Y57828181D01*
X4838095Y57828181D02*
X4800000Y57751991D01*
X4800000Y57751991D02*
X4723810Y57675800D01*
X4723810Y57675800D02*
X4609524Y57637705D01*
X4609524Y57637705D02*
X4419048Y57637705D01*
X5219048Y57637705D02*
X5219048Y58437705D01*
X5561904Y57675800D02*
X5676190Y57637705D01*
X5676190Y57637705D02*
X5866666Y57637705D01*
X5866666Y57637705D02*
X5942857Y57675800D01*
X5942857Y57675800D02*
X5980952Y57713896D01*
X5980952Y57713896D02*
X6019047Y57790086D01*
X6019047Y57790086D02*
X6019047Y57866277D01*
X6019047Y57866277D02*
X5980952Y57942467D01*
X5980952Y57942467D02*
X5942857Y57980562D01*
X5942857Y57980562D02*
X5866666Y58018658D01*
X5866666Y58018658D02*
X5714285Y58056753D01*
X5714285Y58056753D02*
X5638095Y58094848D01*
X5638095Y58094848D02*
X5600000Y58132943D01*
X5600000Y58132943D02*
X5561904Y58209134D01*
X5561904Y58209134D02*
X5561904Y58285324D01*
X5561904Y58285324D02*
X5600000Y58361515D01*
X5600000Y58361515D02*
X5638095Y58399610D01*
X5638095Y58399610D02*
X5714285Y58437705D01*
X5714285Y58437705D02*
X5904762Y58437705D01*
X5904762Y58437705D02*
X6019047Y58399610D01*
X6361905Y57637705D02*
X6361905Y58437705D01*
X6361905Y58437705D02*
X6666667Y58437705D01*
X6666667Y58437705D02*
X6742857Y58399610D01*
X6742857Y58399610D02*
X6780952Y58361515D01*
X6780952Y58361515D02*
X6819048Y58285324D01*
X6819048Y58285324D02*
X6819048Y58171039D01*
X6819048Y58171039D02*
X6780952Y58094848D01*
X6780952Y58094848D02*
X6742857Y58056753D01*
X6742857Y58056753D02*
X6666667Y58018658D01*
X6666667Y58018658D02*
X6361905Y58018658D01*
X33155826Y39456753D02*
X33270112Y39418658D01*
X33270112Y39418658D02*
X33308207Y39380562D01*
X33308207Y39380562D02*
X33346303Y39304372D01*
X33346303Y39304372D02*
X33346303Y39190086D01*
X33346303Y39190086D02*
X33308207Y39113896D01*
X33308207Y39113896D02*
X33270112Y39075800D01*
X33270112Y39075800D02*
X33193922Y39037705D01*
X33193922Y39037705D02*
X32889160Y39037705D01*
X32889160Y39037705D02*
X32889160Y39837705D01*
X32889160Y39837705D02*
X33155826Y39837705D01*
X33155826Y39837705D02*
X33232017Y39799610D01*
X33232017Y39799610D02*
X33270112Y39761515D01*
X33270112Y39761515D02*
X33308207Y39685324D01*
X33308207Y39685324D02*
X33308207Y39609134D01*
X33308207Y39609134D02*
X33270112Y39532943D01*
X33270112Y39532943D02*
X33232017Y39494848D01*
X33232017Y39494848D02*
X33155826Y39456753D01*
X33155826Y39456753D02*
X32889160Y39456753D01*
X33841541Y39837705D02*
X33993922Y39837705D01*
X33993922Y39837705D02*
X34070112Y39799610D01*
X34070112Y39799610D02*
X34146303Y39723420D01*
X34146303Y39723420D02*
X34184398Y39571039D01*
X34184398Y39571039D02*
X34184398Y39304372D01*
X34184398Y39304372D02*
X34146303Y39151991D01*
X34146303Y39151991D02*
X34070112Y39075800D01*
X34070112Y39075800D02*
X33993922Y39037705D01*
X33993922Y39037705D02*
X33841541Y39037705D01*
X33841541Y39037705D02*
X33765350Y39075800D01*
X33765350Y39075800D02*
X33689160Y39151991D01*
X33689160Y39151991D02*
X33651064Y39304372D01*
X33651064Y39304372D02*
X33651064Y39571039D01*
X33651064Y39571039D02*
X33689160Y39723420D01*
X33689160Y39723420D02*
X33765350Y39799610D01*
X33765350Y39799610D02*
X33841541Y39837705D01*
X34679636Y39837705D02*
X34832017Y39837705D01*
X34832017Y39837705D02*
X34908207Y39799610D01*
X34908207Y39799610D02*
X34984398Y39723420D01*
X34984398Y39723420D02*
X35022493Y39571039D01*
X35022493Y39571039D02*
X35022493Y39304372D01*
X35022493Y39304372D02*
X34984398Y39151991D01*
X34984398Y39151991D02*
X34908207Y39075800D01*
X34908207Y39075800D02*
X34832017Y39037705D01*
X34832017Y39037705D02*
X34679636Y39037705D01*
X34679636Y39037705D02*
X34603445Y39075800D01*
X34603445Y39075800D02*
X34527255Y39151991D01*
X34527255Y39151991D02*
X34489159Y39304372D01*
X34489159Y39304372D02*
X34489159Y39571039D01*
X34489159Y39571039D02*
X34527255Y39723420D01*
X34527255Y39723420D02*
X34603445Y39799610D01*
X34603445Y39799610D02*
X34679636Y39837705D01*
X35251064Y39837705D02*
X35708207Y39837705D01*
X35479635Y39037705D02*
X35479635Y39837705D01*
X2471428Y23275800D02*
X2585714Y23237705D01*
X2585714Y23237705D02*
X2776190Y23237705D01*
X2776190Y23237705D02*
X2852381Y23275800D01*
X2852381Y23275800D02*
X2890476Y23313896D01*
X2890476Y23313896D02*
X2928571Y23390086D01*
X2928571Y23390086D02*
X2928571Y23466277D01*
X2928571Y23466277D02*
X2890476Y23542467D01*
X2890476Y23542467D02*
X2852381Y23580562D01*
X2852381Y23580562D02*
X2776190Y23618658D01*
X2776190Y23618658D02*
X2623809Y23656753D01*
X2623809Y23656753D02*
X2547619Y23694848D01*
X2547619Y23694848D02*
X2509524Y23732943D01*
X2509524Y23732943D02*
X2471428Y23809134D01*
X2471428Y23809134D02*
X2471428Y23885324D01*
X2471428Y23885324D02*
X2509524Y23961515D01*
X2509524Y23961515D02*
X2547619Y23999610D01*
X2547619Y23999610D02*
X2623809Y24037705D01*
X2623809Y24037705D02*
X2814286Y24037705D01*
X2814286Y24037705D02*
X2928571Y23999610D01*
X3271429Y23237705D02*
X3271429Y24037705D01*
X3271429Y24037705D02*
X3576191Y24037705D01*
X3576191Y24037705D02*
X3652381Y23999610D01*
X3652381Y23999610D02*
X3690476Y23961515D01*
X3690476Y23961515D02*
X3728572Y23885324D01*
X3728572Y23885324D02*
X3728572Y23771039D01*
X3728572Y23771039D02*
X3690476Y23694848D01*
X3690476Y23694848D02*
X3652381Y23656753D01*
X3652381Y23656753D02*
X3576191Y23618658D01*
X3576191Y23618658D02*
X3271429Y23618658D01*
X4071429Y23237705D02*
X4071429Y24037705D01*
X4528572Y23237705D02*
X4185714Y23694848D01*
X4528572Y24037705D02*
X4071429Y23580562D01*
X33346303Y35437705D02*
X33079636Y35818658D01*
X32889160Y35437705D02*
X32889160Y36237705D01*
X32889160Y36237705D02*
X33193922Y36237705D01*
X33193922Y36237705D02*
X33270112Y36199610D01*
X33270112Y36199610D02*
X33308207Y36161515D01*
X33308207Y36161515D02*
X33346303Y36085324D01*
X33346303Y36085324D02*
X33346303Y35971039D01*
X33346303Y35971039D02*
X33308207Y35894848D01*
X33308207Y35894848D02*
X33270112Y35856753D01*
X33270112Y35856753D02*
X33193922Y35818658D01*
X33193922Y35818658D02*
X32889160Y35818658D01*
X33651064Y35475800D02*
X33765350Y35437705D01*
X33765350Y35437705D02*
X33955826Y35437705D01*
X33955826Y35437705D02*
X34032017Y35475800D01*
X34032017Y35475800D02*
X34070112Y35513896D01*
X34070112Y35513896D02*
X34108207Y35590086D01*
X34108207Y35590086D02*
X34108207Y35666277D01*
X34108207Y35666277D02*
X34070112Y35742467D01*
X34070112Y35742467D02*
X34032017Y35780562D01*
X34032017Y35780562D02*
X33955826Y35818658D01*
X33955826Y35818658D02*
X33803445Y35856753D01*
X33803445Y35856753D02*
X33727255Y35894848D01*
X33727255Y35894848D02*
X33689160Y35932943D01*
X33689160Y35932943D02*
X33651064Y36009134D01*
X33651064Y36009134D02*
X33651064Y36085324D01*
X33651064Y36085324D02*
X33689160Y36161515D01*
X33689160Y36161515D02*
X33727255Y36199610D01*
X33727255Y36199610D02*
X33803445Y36237705D01*
X33803445Y36237705D02*
X33993922Y36237705D01*
X33993922Y36237705D02*
X34108207Y36199610D01*
X34336779Y36237705D02*
X34793922Y36237705D01*
X34565350Y35437705D02*
X34565350Y36237705D01*
X13048935Y53837705D02*
X13048935Y54637705D01*
X13391791Y54561515D02*
X13429887Y54599610D01*
X13429887Y54599610D02*
X13506077Y54637705D01*
X13506077Y54637705D02*
X13696553Y54637705D01*
X13696553Y54637705D02*
X13772744Y54599610D01*
X13772744Y54599610D02*
X13810839Y54561515D01*
X13810839Y54561515D02*
X13848934Y54485324D01*
X13848934Y54485324D02*
X13848934Y54409134D01*
X13848934Y54409134D02*
X13810839Y54294848D01*
X13810839Y54294848D02*
X13353696Y53837705D01*
X13353696Y53837705D02*
X13848934Y53837705D01*
X14648935Y53913896D02*
X14610839Y53875800D01*
X14610839Y53875800D02*
X14496554Y53837705D01*
X14496554Y53837705D02*
X14420363Y53837705D01*
X14420363Y53837705D02*
X14306077Y53875800D01*
X14306077Y53875800D02*
X14229887Y53951991D01*
X14229887Y53951991D02*
X14191792Y54028181D01*
X14191792Y54028181D02*
X14153696Y54180562D01*
X14153696Y54180562D02*
X14153696Y54294848D01*
X14153696Y54294848D02*
X14191792Y54447229D01*
X14191792Y54447229D02*
X14229887Y54523420D01*
X14229887Y54523420D02*
X14306077Y54599610D01*
X14306077Y54599610D02*
X14420363Y54637705D01*
X14420363Y54637705D02*
X14496554Y54637705D01*
X14496554Y54637705D02*
X14610839Y54599610D01*
X14610839Y54599610D02*
X14648935Y54561515D01*
X34657142Y7656753D02*
X34771428Y7618658D01*
X34771428Y7618658D02*
X34809523Y7580562D01*
X34809523Y7580562D02*
X34847619Y7504372D01*
X34847619Y7504372D02*
X34847619Y7390086D01*
X34847619Y7390086D02*
X34809523Y7313896D01*
X34809523Y7313896D02*
X34771428Y7275800D01*
X34771428Y7275800D02*
X34695238Y7237705D01*
X34695238Y7237705D02*
X34390476Y7237705D01*
X34390476Y7237705D02*
X34390476Y8037705D01*
X34390476Y8037705D02*
X34657142Y8037705D01*
X34657142Y8037705D02*
X34733333Y7999610D01*
X34733333Y7999610D02*
X34771428Y7961515D01*
X34771428Y7961515D02*
X34809523Y7885324D01*
X34809523Y7885324D02*
X34809523Y7809134D01*
X34809523Y7809134D02*
X34771428Y7732943D01*
X34771428Y7732943D02*
X34733333Y7694848D01*
X34733333Y7694848D02*
X34657142Y7656753D01*
X34657142Y7656753D02*
X34390476Y7656753D01*
X37047619Y46456753D02*
X37314285Y46456753D01*
X37428571Y46037705D02*
X37047619Y46037705D01*
X37047619Y46037705D02*
X37047619Y46837705D01*
X37047619Y46837705D02*
X37428571Y46837705D01*
X37695238Y46837705D02*
X38228572Y46037705D01*
X38228572Y46837705D02*
X37695238Y46037705D01*
X38533334Y46037705D02*
X38533334Y46837705D01*
X38533334Y46837705D02*
X38838096Y46837705D01*
X38838096Y46837705D02*
X38914286Y46799610D01*
X38914286Y46799610D02*
X38952381Y46761515D01*
X38952381Y46761515D02*
X38990477Y46685324D01*
X38990477Y46685324D02*
X38990477Y46571039D01*
X38990477Y46571039D02*
X38952381Y46494848D01*
X38952381Y46494848D02*
X38914286Y46456753D01*
X38914286Y46456753D02*
X38838096Y46418658D01*
X38838096Y46418658D02*
X38533334Y46418658D01*
D11*
X2087600Y50442858D02*
X2087600Y51357143D01*
X2544742Y50900001D02*
X1630457Y50900001D01*
X5087600Y41742858D02*
X5087600Y42657143D01*
X5087600Y50442858D02*
X5087600Y51357143D01*
X5544742Y50900001D02*
X4630457Y50900001D01*
X2087600Y33442858D02*
X2087600Y34357143D01*
X2544742Y33900001D02*
X1630457Y33900001D01*
X5087600Y33442858D02*
X5087600Y34357143D01*
X5544742Y33900001D02*
X4630457Y33900001D01*
X5087600Y24742858D02*
X5087600Y25657143D01*
D12*
%TO.C,C22*%
X22460000Y37307836D02*
X22460000Y37092164D01*
X21740000Y37307836D02*
X21740000Y37092164D01*
%TO.C,C30*%
X12265000Y36538748D02*
X12265000Y37061252D01*
X13735000Y36538748D02*
X13735000Y37061252D01*
%TO.C,C18*%
X23592164Y47460000D02*
X23807836Y47460000D01*
X23592164Y46740000D02*
X23807836Y46740000D01*
%TO.C,C6*%
X12940000Y26292164D02*
X12940000Y26507836D01*
X13660000Y26292164D02*
X13660000Y26507836D01*
%TO.C,JP1*%
X28700000Y11600000D02*
X28100000Y11600000D01*
X27400000Y12300000D02*
X27400000Y13700000D01*
X29400000Y13700000D02*
X29400000Y12300000D01*
X28100000Y14400000D02*
X28700000Y14400000D01*
X27400000Y12300000D02*
G75*
G03*
X28100000Y11600000I699999J-1D01*
G01*
X28700000Y11600000D02*
G75*
G03*
X29400000Y12300000I1J699999D01*
G01*
X28100000Y14400000D02*
G75*
G03*
X27400000Y13700000I0J-700000D01*
G01*
X29400000Y13700000D02*
G75*
G03*
X28700000Y14400000I-700000J0D01*
G01*
%TO.C,J6*%
X36670000Y45330000D02*
X38000000Y45330000D01*
X36670000Y44000000D02*
X36670000Y45330000D01*
X36670000Y42730000D02*
X36670000Y9650000D01*
X36670000Y42730000D02*
X39330000Y42730000D01*
X36670000Y9650000D02*
X39330000Y9650000D01*
X39330000Y42730000D02*
X39330000Y9650000D01*
%TO.C,R3*%
X7746359Y12380000D02*
X8053641Y12380000D01*
X7746359Y11620000D02*
X8053641Y11620000D01*
%TO.C,D6*%
X16350000Y14090000D02*
X18050000Y14090000D01*
X16350000Y14090000D02*
X16350000Y16750000D01*
X18050000Y14090000D02*
X18050000Y16750000D01*
%TO.C,R11*%
X15620000Y29646359D02*
X15620000Y29953641D01*
X16380000Y29646359D02*
X16380000Y29953641D01*
%TO.C,Q7*%
X21600000Y23360000D02*
X20950000Y23360000D01*
X21600000Y23360000D02*
X22250000Y23360000D01*
X21600000Y20240000D02*
X20950000Y20240000D01*
X21600000Y20240000D02*
X22250000Y20240000D01*
X20437500Y23310000D02*
X20197500Y23640000D01*
X20677500Y23640000D01*
X20437500Y23310000D01*
G36*
X20437500Y23310000D02*
G01*
X20197500Y23640000D01*
X20677500Y23640000D01*
X20437500Y23310000D01*
G37*
%TO.C,R10*%
X14620000Y29646359D02*
X14620000Y29953641D01*
X15380000Y29646359D02*
X15380000Y29953641D01*
%TO.C,C28*%
X14407836Y40740000D02*
X14192164Y40740000D01*
X14407836Y41460000D02*
X14192164Y41460000D01*
%TO.C,R35*%
X26020000Y35446359D02*
X26020000Y35753641D01*
X26780000Y35446359D02*
X26780000Y35753641D01*
%TO.C,R33*%
X20220000Y13946359D02*
X20220000Y14253641D01*
X20980000Y13946359D02*
X20980000Y14253641D01*
%TO.C,R1*%
X16420000Y9646359D02*
X16420000Y9953641D01*
X17180000Y9646359D02*
X17180000Y9953641D01*
%TO.C,R4*%
X12720000Y10246359D02*
X12720000Y10553641D01*
X13480000Y10246359D02*
X13480000Y10553641D01*
%TO.C,Y1*%
X28925000Y27375000D02*
X30275000Y27375000D01*
X28925000Y25625000D02*
X30275000Y25625000D01*
%TO.C,R26*%
X34520000Y15846359D02*
X34520000Y16153641D01*
X35280000Y15846359D02*
X35280000Y16153641D01*
%TO.C,C31*%
X26640000Y40092164D02*
X26640000Y40307836D01*
X27360000Y40092164D02*
X27360000Y40307836D01*
%TO.C,D3*%
X15549999Y19890000D02*
X17249999Y19890000D01*
X15549999Y19890000D02*
X15549999Y22550000D01*
X17249999Y19890000D02*
X17249999Y22550000D01*
%TO.C,R5*%
X12453641Y11470000D02*
X12146359Y11470000D01*
X12453641Y12230000D02*
X12146359Y12230000D01*
%TO.C,D7*%
X29235000Y965000D02*
X29235000Y2435000D01*
X29235000Y2435000D02*
X26950000Y2435000D01*
X26950000Y965000D02*
X29235000Y965000D01*
%TO.C,SW4*%
X28350000Y37200000D02*
X31650000Y37200000D01*
X28350000Y36900000D02*
X28350000Y37200000D01*
X28350000Y34700000D02*
X28350000Y34400000D01*
X28350000Y34400000D02*
X31650000Y34400000D01*
X31650000Y37200000D02*
X31650000Y36900000D01*
X31650000Y34400000D02*
X31650000Y34700000D01*
%TO.C,C8*%
X25890000Y27559421D02*
X25890000Y27840581D01*
X26910000Y27559421D02*
X26910000Y27840581D01*
%TO.C,R16*%
X24720000Y33546359D02*
X24720000Y33853641D01*
X25480000Y33546359D02*
X25480000Y33853641D01*
%TO.C,U8*%
X11910000Y18465000D02*
X11910000Y18230000D01*
X11910000Y21210000D02*
X11910000Y20735000D01*
X11435000Y17990000D02*
X11610000Y17990000D01*
X11435000Y21210000D02*
X11910000Y21210000D01*
X9165000Y17990000D02*
X8690000Y17990000D01*
X9165000Y21210000D02*
X8690000Y21210000D01*
X8690000Y17990000D02*
X8690000Y18465000D01*
X8690000Y21210000D02*
X8690000Y20735000D01*
X12150000Y17660000D02*
X11670000Y17660000D01*
X11910000Y17990000D01*
X12150000Y17660000D01*
G36*
X12150000Y17660000D02*
G01*
X11670000Y17660000D01*
X11910000Y17990000D01*
X12150000Y17660000D01*
G37*
%TO.C,C12*%
X30665000Y22538748D02*
X30665000Y23061252D01*
X32135000Y22538748D02*
X32135000Y23061252D01*
%TO.C,C26*%
X24040000Y36492164D02*
X24040000Y36707836D01*
X24760000Y36492164D02*
X24760000Y36707836D01*
%TO.C,J1*%
X15300000Y4950000D02*
X15300000Y2950000D01*
X24700000Y4950000D02*
X24700000Y2950000D01*
%TO.C,Q2*%
X9300000Y31460000D02*
X8650000Y31460000D01*
X9300000Y31460000D02*
X9950000Y31460000D01*
X9300000Y28340000D02*
X8650000Y28340000D01*
X9300000Y28340000D02*
X9950000Y28340000D01*
X8137500Y31410000D02*
X7897500Y31740000D01*
X8377500Y31740000D01*
X8137500Y31410000D01*
G36*
X8137500Y31410000D02*
G01*
X7897500Y31740000D01*
X8377500Y31740000D01*
X8137500Y31410000D01*
G37*
%TO.C,R37*%
X27596359Y3680000D02*
X27903641Y3680000D01*
X27596359Y2920000D02*
X27903641Y2920000D01*
%TO.C,Q1*%
X9300000Y34960000D02*
X8650000Y34960000D01*
X9300000Y34960000D02*
X9950000Y34960000D01*
X9300000Y31840000D02*
X8650000Y31840000D01*
X9300000Y31840000D02*
X9950000Y31840000D01*
X8137500Y34910000D02*
X7897500Y35240000D01*
X8377500Y35240000D01*
X8137500Y34910000D01*
G36*
X8137500Y34910000D02*
G01*
X7897500Y35240000D01*
X8377500Y35240000D01*
X8137500Y34910000D01*
G37*
%TO.C,R7*%
X11820000Y33246359D02*
X11820000Y33553641D01*
X12580000Y33246359D02*
X12580000Y33553641D01*
%TO.C,C9*%
X30238748Y17535000D02*
X30761252Y17535000D01*
X30238748Y16065000D02*
X30761252Y16065000D01*
%TO.C,C27*%
X23040000Y36492164D02*
X23040000Y36707836D01*
X23760000Y36492164D02*
X23760000Y36707836D01*
%TO.C,C1*%
X10388748Y16985000D02*
X10911252Y16985000D01*
X10388748Y15515000D02*
X10911252Y15515000D01*
%TO.C,SW2*%
X32050000Y5200000D02*
X32050000Y2800000D01*
X32700000Y6650000D02*
X36500000Y6650000D01*
X32700000Y1350000D02*
X36500000Y1350000D01*
X37150000Y5200000D02*
X37150000Y2800000D01*
X35850000Y4000000D02*
G75*
G03*
X33350000Y4000000I-1250000J0D01*
G01*
X33350000Y4000000D02*
G75*
G03*
X35850000Y4000000I1250000J0D01*
G01*
%TO.C,C33*%
X9192164Y22960000D02*
X9407836Y22960000D01*
X9192164Y22240000D02*
X9407836Y22240000D01*
%TO.C,Q6*%
X22400000Y30760000D02*
X21750000Y30760000D01*
X22400000Y30760000D02*
X23050000Y30760000D01*
X22400000Y27640000D02*
X21750000Y27640000D01*
X22400000Y27640000D02*
X23050000Y27640000D01*
X21237500Y30710000D02*
X20997500Y31040000D01*
X21477500Y31040000D01*
X21237500Y30710000D01*
G36*
X21237500Y30710000D02*
G01*
X20997500Y31040000D01*
X21477500Y31040000D01*
X21237500Y30710000D01*
G37*
%TO.C,C16*%
X12760000Y40007836D02*
X12760000Y39792164D01*
X12040000Y40007836D02*
X12040000Y39792164D01*
%TO.C,R15*%
X18920000Y26246359D02*
X18920000Y26553641D01*
X19680000Y26246359D02*
X19680000Y26553641D01*
%TO.C,R25*%
X17520000Y21646359D02*
X17520000Y21953641D01*
X18280000Y21646359D02*
X18280000Y21953641D01*
%TO.C,C14*%
X33440000Y13792164D02*
X33440000Y14007836D01*
X34160000Y13792164D02*
X34160000Y14007836D01*
%TO.C,C10*%
X34260000Y18507836D02*
X34260000Y18292164D01*
X33540000Y18507836D02*
X33540000Y18292164D01*
%TO.C,R36*%
X13120000Y19646359D02*
X13120000Y19953641D01*
X13880000Y19646359D02*
X13880000Y19953641D01*
%TO.C,R27*%
X34520000Y13746359D02*
X34520000Y14053641D01*
X35280000Y13746359D02*
X35280000Y14053641D01*
%TO.C,U6*%
X22460000Y46110000D02*
X22870000Y46110000D01*
X15890000Y46110000D02*
X16540000Y46110000D01*
X23110000Y45460000D02*
X23110000Y45810000D01*
X15890000Y45460000D02*
X15890000Y46110000D01*
X23110000Y39540000D02*
X23110000Y38890000D01*
X15890000Y39540000D02*
X15890000Y38890000D01*
X23110000Y38890000D02*
X22460000Y38890000D01*
X15890000Y38890000D02*
X16540000Y38890000D01*
X23440000Y45870000D02*
X23110000Y46110000D01*
X23440000Y46350000D01*
X23440000Y45870000D01*
G36*
X23440000Y45870000D02*
G01*
X23110000Y46110000D01*
X23440000Y46350000D01*
X23440000Y45870000D01*
G37*
%TO.C,Y2*%
X9950000Y42400000D02*
X13250000Y42400000D01*
X13250000Y42400000D02*
X13250000Y46400000D01*
%TO.C,R18*%
X24720000Y27546360D02*
X24720000Y27853642D01*
X25480000Y27546360D02*
X25480000Y27853642D01*
%TO.C,Q3*%
X9300000Y27960000D02*
X8650000Y27960000D01*
X9300000Y27960000D02*
X9950000Y27960000D01*
X9300000Y24840000D02*
X8650000Y24840000D01*
X9300000Y24840000D02*
X9950000Y24840000D01*
X8137500Y27910000D02*
X7897500Y28240000D01*
X8377500Y28240000D01*
X8137500Y27910000D01*
G36*
X8137500Y27910000D02*
G01*
X7897500Y28240000D01*
X8377500Y28240000D01*
X8137500Y27910000D01*
G37*
%TO.C,C23*%
X24792164Y40460000D02*
X25007836Y40460000D01*
X24792164Y39740000D02*
X25007836Y39740000D01*
%TO.C,R8*%
X11820000Y29746359D02*
X11820000Y30053641D01*
X12580000Y29746359D02*
X12580000Y30053641D01*
%TO.C,C15*%
X32840000Y26392164D02*
X32840000Y26607836D01*
X33560000Y26392164D02*
X33560000Y26607836D01*
%TO.C,C3*%
X18640000Y29692164D02*
X18640000Y29907836D01*
X19360000Y29692164D02*
X19360000Y29907836D01*
%TO.C,J7*%
X5610000Y22860000D02*
X4360000Y22860000D01*
X5310000Y22560000D02*
X590000Y22560000D01*
X4000000Y22560000D02*
X4000000Y21950000D01*
X2700000Y22560000D02*
X2700000Y21950000D01*
X590000Y22560000D02*
X590000Y16440000D01*
X4700000Y21950000D02*
X1200000Y21950000D01*
X1200000Y21950000D02*
X1200000Y17050000D01*
X5610000Y21610000D02*
X5610000Y22860000D01*
X5510000Y21100000D02*
X5310000Y21100000D01*
X5510000Y20800000D02*
X5510000Y21100000D01*
X5410000Y20800000D02*
X5410000Y21100000D01*
X5310000Y20800000D02*
X5510000Y20800000D01*
X5310000Y20000000D02*
X4700000Y20000000D01*
X4700000Y20000000D02*
X4700000Y21950000D01*
X1700000Y19600000D02*
X1700000Y19400000D01*
X1200000Y19600000D02*
X1700000Y19600000D01*
X1200000Y19500000D02*
X1700000Y19500000D01*
X1700000Y19400000D02*
X1200000Y19400000D01*
X4700000Y19000000D02*
X5310000Y19000000D01*
X4700000Y17050000D02*
X4700000Y19000000D01*
X1200000Y17050000D02*
X4700000Y17050000D01*
X5310000Y16440000D02*
X5310000Y22560000D01*
X4000000Y16440000D02*
X4000000Y17050000D01*
X2700000Y16440000D02*
X2700000Y17050000D01*
X590000Y16440000D02*
X5310000Y16440000D01*
%TO.C,SW1*%
X2850000Y5200000D02*
X2850000Y2800000D01*
X3500000Y6650000D02*
X7300000Y6650000D01*
X3500000Y1350000D02*
X7300000Y1350000D01*
X7950000Y5200000D02*
X7950000Y2800000D01*
X6650000Y4000000D02*
G75*
G03*
X4150000Y4000000I-1250000J0D01*
G01*
X4150000Y4000000D02*
G75*
G03*
X6650000Y4000000I1250000J0D01*
G01*
%TO.C,D4*%
X14350000Y14090000D02*
X16050000Y14090000D01*
X14350000Y14090000D02*
X14350000Y16750000D01*
X16050000Y14090000D02*
X16050000Y16750000D01*
%TO.C,D5*%
X13735000Y965000D02*
X13735000Y2435000D01*
X13735000Y2435000D02*
X11450000Y2435000D01*
X11450000Y965000D02*
X13735000Y965000D01*
%TO.C,R28*%
X34020000Y26346359D02*
X34020000Y26653641D01*
X34780000Y26346359D02*
X34780000Y26653641D01*
%TO.C,C19*%
X14840000Y48292164D02*
X14840000Y48507836D01*
X15560000Y48292164D02*
X15560000Y48507836D01*
%TO.C,U7*%
X33725000Y41275000D02*
X33725000Y41535000D01*
X33725000Y46725000D02*
X33725000Y46465000D01*
X31000000Y41275000D02*
X33725000Y41275000D01*
X31000000Y41275000D02*
X28275000Y41275000D01*
X31000000Y46725000D02*
X33725000Y46725000D01*
X31000000Y46725000D02*
X28275000Y46725000D01*
X28275000Y41275000D02*
X28275000Y41535000D01*
X28275000Y46725000D02*
X28275000Y46465000D01*
X34747500Y41205000D02*
X34267500Y41205000D01*
X34507500Y41535000D01*
X34747500Y41205000D01*
G36*
X34747500Y41205000D02*
G01*
X34267500Y41205000D01*
X34507500Y41535000D01*
X34747500Y41205000D01*
G37*
%TO.C,R12*%
X16620000Y29646359D02*
X16620000Y29953641D01*
X17380000Y29646359D02*
X17380000Y29953641D01*
%TO.C,R34*%
X32520000Y37446359D02*
X32520000Y37753641D01*
X33280000Y37446359D02*
X33280000Y37753641D01*
%TO.C,SW3*%
X28350000Y40800000D02*
X31650000Y40800000D01*
X28350000Y40500000D02*
X28350000Y40800000D01*
X28350000Y38300000D02*
X28350000Y38000000D01*
X28350000Y38000000D02*
X31650000Y38000000D01*
X31650000Y40800000D02*
X31650000Y40500000D01*
X31650000Y38000000D02*
X31650000Y38300000D01*
%TO.C,C29*%
X24792164Y38460000D02*
X25007836Y38460000D01*
X24792164Y37740000D02*
X25007836Y37740000D01*
%TO.C,R24*%
X18620000Y21646359D02*
X18620000Y21953641D01*
X19380000Y21646359D02*
X19380000Y21953641D01*
%TO.C,R2*%
X22420000Y9646359D02*
X22420000Y9953641D01*
X23180000Y9646359D02*
X23180000Y9953641D01*
%TO.C,Q8*%
X22400000Y27260000D02*
X21750000Y27260000D01*
X22400000Y27260000D02*
X23050000Y27260000D01*
X22400000Y24140000D02*
X21750000Y24140000D01*
X22400000Y24140000D02*
X23050000Y24140000D01*
X21237500Y27210000D02*
X20997500Y27540000D01*
X21477500Y27540000D01*
X21237500Y27210000D01*
G36*
X21237500Y27210000D02*
G01*
X20997500Y27540000D01*
X21477500Y27540000D01*
X21237500Y27210000D01*
G37*
%TO.C,C5*%
X12940000Y33292164D02*
X12940000Y33507836D01*
X13660000Y33292164D02*
X13660000Y33507836D01*
%TO.C,C13*%
X34260000Y20507836D02*
X34260000Y20292164D01*
X33540000Y20507836D02*
X33540000Y20292164D01*
%TO.C,J5*%
X17460000Y52870000D02*
X25140000Y52870000D01*
X17460000Y52870000D02*
X17460000Y55530000D01*
X25140000Y52870000D02*
X25140000Y55530000D01*
X14860000Y54200000D02*
X14860000Y55530000D01*
X14860000Y55530000D02*
X16190000Y55530000D01*
X17460000Y55530000D02*
X25140000Y55530000D01*
%TO.C,C11*%
X28565000Y22538748D02*
X28565000Y23061252D01*
X30035000Y22538748D02*
X30035000Y23061252D01*
%TO.C,U5*%
X31300000Y33260000D02*
X29350000Y33260000D01*
X31300000Y33260000D02*
X33250000Y33260000D01*
X31300000Y28140000D02*
X29350000Y28140000D01*
X31300000Y28140000D02*
X33250000Y28140000D01*
X28600000Y33165000D02*
X28360000Y33495000D01*
X28840000Y33495000D01*
X28600000Y33165000D01*
G36*
X28600000Y33165000D02*
G01*
X28360000Y33495000D01*
X28840000Y33495000D01*
X28600000Y33165000D01*
G37*
%TO.C,R9*%
X12920000Y29746359D02*
X12920000Y30053641D01*
X13680000Y29746359D02*
X13680000Y30053641D01*
%TO.C,C17*%
X8640000Y45292164D02*
X8640000Y45507836D01*
X9360000Y45292164D02*
X9360000Y45507836D01*
%TO.C,R14*%
X11820000Y26246359D02*
X11820000Y26553641D01*
X12580000Y26246359D02*
X12580000Y26553641D01*
%TO.C,R29*%
X35020000Y26346359D02*
X35020000Y26653641D01*
X35780000Y26346359D02*
X35780000Y26653641D01*
%TO.C,C2*%
X13860000Y14140580D02*
X13860000Y13859420D01*
X12840000Y14140580D02*
X12840000Y13859420D01*
%TO.C,R17*%
X24720000Y30446359D02*
X24720000Y30753641D01*
X25480000Y30446359D02*
X25480000Y30753641D01*
%TO.C,L1*%
X24650000Y19250000D02*
X24650000Y19950000D01*
X28150000Y19250000D02*
X28150000Y19950000D01*
%TO.C,C20*%
X8940000Y38492164D02*
X8940000Y38707836D01*
X9660000Y38492164D02*
X9660000Y38707836D01*
%TO.C,Q4*%
X16399999Y27960000D02*
X15749999Y27960000D01*
X16399999Y27960000D02*
X17049999Y27960000D01*
X16399999Y24840000D02*
X15749999Y24840000D01*
X16399999Y24840000D02*
X17049999Y24840000D01*
X15237499Y27910000D02*
X14997499Y28240000D01*
X15477499Y28240000D01*
X15237499Y27910000D01*
G36*
X15237499Y27910000D02*
G01*
X14997499Y28240000D01*
X15477499Y28240000D01*
X15237499Y27910000D01*
G37*
%TO.C,R32*%
X18520000Y13946359D02*
X18520000Y14253641D01*
X19280000Y13946359D02*
X19280000Y14253641D01*
%TO.C,J4*%
X12380000Y56670000D02*
X30220000Y56670000D01*
X12380000Y56670000D02*
X12380000Y59330000D01*
X30220000Y56670000D02*
X30220000Y59330000D01*
X9780000Y58000000D02*
X9780000Y59330000D01*
X9780000Y59330000D02*
X11110000Y59330000D01*
X12380000Y59330000D02*
X30220000Y59330000D01*
%TO.C,C24*%
X24792164Y39460000D02*
X25007836Y39460000D01*
X24792164Y38740000D02*
X25007836Y38740000D01*
%TO.C,R38*%
X28520000Y54446359D02*
X28520000Y54753641D01*
X29280000Y54446359D02*
X29280000Y54753641D01*
%TO.C,U1*%
X19750000Y12760000D02*
X18950000Y12760000D01*
X19750000Y12760000D02*
X20550000Y12760000D01*
X19750000Y9640000D02*
X18950000Y9640000D01*
X19750000Y9640000D02*
X20550000Y9640000D01*
X18450000Y12710000D02*
X18210000Y13040000D01*
X18690000Y13040000D01*
X18450000Y12710000D01*
G36*
X18450000Y12710000D02*
G01*
X18210000Y13040000D01*
X18690000Y13040000D01*
X18450000Y12710000D01*
G37*
%TO.C,J8*%
X34215000Y49290000D02*
X34215000Y50340000D01*
X36715000Y49290000D02*
X34215000Y49290000D01*
X34215000Y50340000D02*
X33225000Y50340000D01*
X38685000Y50460000D02*
X38685000Y54340000D01*
X34215000Y55510000D02*
X34215000Y54460000D01*
X36715000Y55510000D02*
X34215000Y55510000D01*
%TO.C,R21*%
X21446359Y19380000D02*
X21753641Y19380000D01*
X21446359Y18620000D02*
X21753641Y18620000D01*
%TO.C,U4*%
X29250000Y20985000D02*
X31750000Y20985000D01*
X29250000Y18215000D02*
X31750000Y18215000D01*
X28600000Y20400000D02*
X28200000Y20600000D01*
X28600000Y20800000D01*
X28600000Y20400000D01*
G36*
X28600000Y20400000D02*
G01*
X28200000Y20600000D01*
X28600000Y20800000D01*
X28600000Y20400000D01*
G37*
%TO.C,R20*%
X24720000Y24846359D02*
X24720000Y25153641D01*
X25480000Y24846359D02*
X25480000Y25153641D01*
%TO.C,Q5*%
X22200000Y34760000D02*
X21550000Y34760000D01*
X22200000Y34760000D02*
X22850000Y34760000D01*
X22200000Y31640000D02*
X21550000Y31640000D01*
X22200000Y31640000D02*
X22850000Y31640000D01*
X21037500Y34710000D02*
X20797500Y35040000D01*
X21277500Y35040000D01*
X21037500Y34710000D01*
G36*
X21037500Y34710000D02*
G01*
X20797500Y35040000D01*
X21277500Y35040000D01*
X21037500Y34710000D01*
G37*
%TO.C,Q9*%
X12300000Y8360000D02*
X11650000Y8360000D01*
X12300000Y8360000D02*
X12950000Y8360000D01*
X12300000Y5240000D02*
X11650000Y5240000D01*
X12300000Y5240000D02*
X12950000Y5240000D01*
X11137500Y8310000D02*
X10897500Y8640000D01*
X11377500Y8640000D01*
X11137500Y8310000D01*
G36*
X11137500Y8310000D02*
G01*
X10897500Y8640000D01*
X11377500Y8640000D01*
X11137500Y8310000D01*
G37*
%TO.C,D1*%
X13735000Y2565000D02*
X13735000Y4035000D01*
X13735000Y4035000D02*
X11450000Y4035000D01*
X11450000Y2565000D02*
X13735000Y2565000D01*
%TO.C,C32*%
X12238748Y23435000D02*
X12761252Y23435000D01*
X12238748Y21965000D02*
X12761252Y21965000D01*
%TO.C,R23*%
X28246359Y9880000D02*
X28553641Y9880000D01*
X28246359Y9120000D02*
X28553641Y9120000D01*
%TO.C,D2*%
X24050000Y11390000D02*
X25750000Y11390000D01*
X24050000Y11390000D02*
X24050000Y14050000D01*
X25750000Y11390000D02*
X25750000Y14050000D01*
%TO.C,C7*%
X25840000Y33592164D02*
X25840000Y33807836D01*
X26560000Y33592164D02*
X26560000Y33807836D01*
%TO.C,C21*%
X18860000Y37307836D02*
X18860000Y37092164D01*
X18140000Y37307836D02*
X18140000Y37092164D01*
%TO.C,JP2*%
X31300000Y11600000D02*
X30700000Y11600000D01*
X30000000Y12300000D02*
X30000000Y13700000D01*
X32000000Y13700000D02*
X32000000Y12300000D01*
X30700000Y14400000D02*
X31300000Y14400000D01*
X30000000Y12300000D02*
G75*
G03*
X30700000Y11600000I699999J-1D01*
G01*
X31300000Y11600000D02*
G75*
G03*
X32000000Y12300000I1J699999D01*
G01*
X30700000Y14400000D02*
G75*
G03*
X30000000Y13700000I0J-700000D01*
G01*
X32000000Y13700000D02*
G75*
G03*
X31300000Y14400000I-700000J0D01*
G01*
%TO.C,R6*%
X15020000Y10446359D02*
X15020000Y10753641D01*
X15780000Y10446359D02*
X15780000Y10753641D01*
%TO.C,C25*%
X25040000Y36492164D02*
X25040000Y36707836D01*
X25760000Y36492164D02*
X25760000Y36707836D01*
%TO.C,R13*%
X17620000Y29646359D02*
X17620000Y29953641D01*
X18380000Y29646359D02*
X18380000Y29953641D01*
%TO.C,R30*%
X8446359Y9380000D02*
X8753641Y9380000D01*
X8446359Y8620000D02*
X8753641Y8620000D01*
%TO.C,U3*%
X16900000Y34760000D02*
X16100000Y34760000D01*
X16900000Y34760000D02*
X17700000Y34760000D01*
X16900000Y31640000D02*
X16100000Y31640000D01*
X16900000Y31640000D02*
X17700000Y31640000D01*
X15600000Y34710000D02*
X15360000Y35040000D01*
X15840000Y35040000D01*
X15600000Y34710000D01*
G36*
X15600000Y34710000D02*
G01*
X15360000Y35040000D01*
X15840000Y35040000D01*
X15600000Y34710000D01*
G37*
%TO.C,R31*%
X14453641Y45720000D02*
X14146359Y45720000D01*
X14453641Y46480000D02*
X14146359Y46480000D01*
%TO.C,U2*%
X9490000Y15140000D02*
X11490000Y15140000D01*
X9500000Y12860000D02*
X11500000Y12860000D01*
X9130000Y15070000D02*
X8850000Y15070000D01*
X9130000Y15350000D01*
X9130000Y15070000D01*
G36*
X9130000Y15070000D02*
G01*
X8850000Y15070000D01*
X9130000Y15350000D01*
X9130000Y15070000D01*
G37*
%TO.C,R22*%
X26020000Y12846359D02*
X26020000Y13153641D01*
X26780000Y12846359D02*
X26780000Y13153641D01*
%TD*%
%LPC*%
D13*
%TO.C,C22*%
X22100000Y37680000D03*
X22100000Y36720000D03*
%TD*%
D14*
%TO.C,C30*%
X13000000Y35850000D03*
X13000000Y37750000D03*
%TD*%
D15*
%TO.C,C18*%
X23220000Y47100000D03*
X24180000Y47100000D03*
%TD*%
D16*
%TO.C,C6*%
X13300000Y25920000D03*
X13300000Y26880000D03*
%TD*%
D17*
%TO.C,JP1*%
X28400000Y12350000D03*
D18*
X28400000Y13650000D03*
%TD*%
D19*
%TO.C,J6*%
X38000000Y44000000D03*
D20*
X38000000Y41460000D03*
X38000000Y38920000D03*
X38000000Y36380000D03*
X38000000Y33840000D03*
X38000000Y31300000D03*
X38000000Y28760000D03*
X38000000Y26220000D03*
X38000000Y23680000D03*
X38000000Y21140000D03*
X38000000Y18600000D03*
X38000000Y16060000D03*
X38000000Y13520000D03*
X38000000Y10980000D03*
%TD*%
D21*
%TO.C,R3*%
X7390000Y12000000D03*
X8410000Y12000000D03*
%TD*%
D22*
%TO.C,D6*%
X17200000Y14650000D03*
X17200000Y16750000D03*
%TD*%
D23*
%TO.C,R11*%
X16000000Y29290000D03*
X16000000Y30310000D03*
%TD*%
D24*
%TO.C,Q7*%
X20662500Y22750000D03*
X20662500Y20850000D03*
X22537500Y21800000D03*
%TD*%
D23*
%TO.C,R10*%
X15000000Y29290000D03*
X15000000Y30310000D03*
%TD*%
D25*
%TO.C,FID1*%
X1600000Y58000000D03*
%TD*%
D26*
%TO.C,C28*%
X14780000Y41100000D03*
X13820000Y41100000D03*
%TD*%
D23*
%TO.C,R35*%
X26400000Y35090000D03*
X26400000Y36110000D03*
%TD*%
%TO.C,R33*%
X20600000Y13590000D03*
X20600000Y14610000D03*
%TD*%
%TO.C,R1*%
X16800000Y9290000D03*
X16800000Y10310000D03*
%TD*%
%TO.C,R4*%
X13100000Y9890000D03*
X13100000Y10910000D03*
%TD*%
D27*
%TO.C,Y1*%
X30850000Y26500000D03*
X28350000Y26500000D03*
%TD*%
D23*
%TO.C,R26*%
X34900000Y15490000D03*
X34900000Y16510000D03*
%TD*%
D16*
%TO.C,C31*%
X27000000Y39720000D03*
X27000000Y40680000D03*
%TD*%
D28*
%TO.C,BT1*%
X5000000Y49000000D03*
D29*
X2000000Y49000000D03*
D30*
X2000000Y45500000D03*
D31*
X5000000Y44000000D03*
%TD*%
D22*
%TO.C,D3*%
X16399999Y20450000D03*
X16399999Y22550000D03*
%TD*%
D32*
%TO.C,R5*%
X12810000Y11850000D03*
X11790000Y11850000D03*
%TD*%
D28*
%TO.C,BT2*%
X5000000Y32000000D03*
D29*
X2000000Y32000000D03*
D30*
X2000000Y28500000D03*
D31*
X5000000Y27000000D03*
%TD*%
D33*
%TO.C,D7*%
X28537500Y1700000D03*
X26962500Y1700000D03*
%TD*%
D34*
%TO.C,SW4*%
X28300000Y35800000D03*
X31700000Y35800000D03*
%TD*%
D35*
%TO.C,C8*%
X26400000Y26925001D03*
X26400000Y28475001D03*
%TD*%
D23*
%TO.C,R16*%
X25100000Y33190000D03*
X25100000Y34210000D03*
%TD*%
D36*
%TO.C,U8*%
X11737500Y18850000D03*
X11737500Y19350000D03*
X11737500Y19850000D03*
X11737500Y20350000D03*
D37*
X11050000Y21037500D03*
X10550000Y21037500D03*
X10050000Y21037500D03*
X9550000Y21037500D03*
D36*
X8862500Y20350000D03*
X8862500Y19850000D03*
X8862500Y19350000D03*
X8862500Y18850000D03*
D37*
X9550000Y18162500D03*
X10050000Y18162500D03*
X10550000Y18162500D03*
X11050000Y18162500D03*
D38*
X10300000Y19600000D03*
%TD*%
D14*
%TO.C,C12*%
X31400000Y21850000D03*
X31400000Y23750000D03*
%TD*%
D16*
%TO.C,C26*%
X24400000Y36120000D03*
X24400000Y37080000D03*
%TD*%
D39*
%TO.C,J1*%
X17110000Y5650000D03*
X22890000Y5650000D03*
D40*
X16750000Y7095000D03*
X17550000Y7095000D03*
D41*
X18750000Y7095000D03*
X19750000Y7095000D03*
X20250000Y7095000D03*
X21250000Y7095000D03*
D40*
X22450000Y7095000D03*
X23250000Y7095000D03*
X23250000Y7095000D03*
X22450000Y7095000D03*
D41*
X21750000Y7095000D03*
X20750000Y7095000D03*
X19250000Y7095000D03*
X18250000Y7095000D03*
D40*
X17550000Y7095000D03*
X16750000Y7095000D03*
D42*
X15680000Y6180000D03*
D43*
X15680000Y2000000D03*
D42*
X24320000Y6180000D03*
D43*
X24320000Y2000000D03*
%TD*%
D24*
%TO.C,Q2*%
X8362500Y30850000D03*
X8362500Y28950000D03*
X10237500Y29900000D03*
%TD*%
D21*
%TO.C,R37*%
X27240000Y3300000D03*
X28260000Y3300000D03*
%TD*%
D24*
%TO.C,Q1*%
X8362500Y34350000D03*
X8362500Y32450000D03*
X10237500Y33400000D03*
%TD*%
D23*
%TO.C,R7*%
X12200000Y32890000D03*
X12200000Y33910000D03*
%TD*%
D44*
%TO.C,C9*%
X29550000Y16800000D03*
X31450000Y16800000D03*
%TD*%
D16*
%TO.C,C27*%
X23400000Y36120000D03*
X23400000Y37080000D03*
%TD*%
D44*
%TO.C,C1*%
X9700000Y16250000D03*
X11600000Y16250000D03*
%TD*%
D45*
%TO.C,SW2*%
X31300000Y5850000D03*
X37900000Y5850000D03*
X31300000Y2150000D03*
X37900000Y2150000D03*
%TD*%
D15*
%TO.C,C33*%
X8820000Y22600000D03*
X9780000Y22600000D03*
%TD*%
D24*
%TO.C,Q6*%
X21462500Y30150000D03*
X21462500Y28250000D03*
X23337500Y29200000D03*
%TD*%
D13*
%TO.C,C16*%
X12400000Y40380000D03*
X12400000Y39420000D03*
%TD*%
D23*
%TO.C,R15*%
X19300000Y25890000D03*
X19300000Y26910000D03*
%TD*%
%TO.C,R25*%
X17900000Y21290000D03*
X17900000Y22310000D03*
%TD*%
D16*
%TO.C,C14*%
X33800000Y13420000D03*
X33800000Y14380000D03*
%TD*%
D13*
%TO.C,C10*%
X33900000Y18880000D03*
X33900000Y17920000D03*
%TD*%
D23*
%TO.C,R36*%
X13500000Y19290000D03*
X13500000Y20310000D03*
%TD*%
%TO.C,R27*%
X34900000Y13390000D03*
X34900000Y14410000D03*
%TD*%
D46*
%TO.C,U6*%
X22100000Y45937500D03*
X21700000Y45937500D03*
X21300000Y45937500D03*
X20900000Y45937500D03*
X20500000Y45937500D03*
X20100000Y45937500D03*
X19700000Y45937500D03*
X19300000Y45937500D03*
X18900000Y45937500D03*
X18500000Y45937500D03*
X18100000Y45937500D03*
X17700000Y45937500D03*
X17300000Y45937500D03*
X16900000Y45937500D03*
D47*
X16062500Y45100000D03*
X16062500Y44700000D03*
X16062500Y44300000D03*
X16062500Y43900000D03*
X16062500Y43500000D03*
X16062500Y43100000D03*
X16062500Y42700000D03*
X16062500Y42300000D03*
X16062500Y41900000D03*
X16062500Y41500000D03*
X16062500Y41100000D03*
X16062500Y40700000D03*
X16062500Y40300000D03*
X16062500Y39900000D03*
D46*
X16900000Y39062500D03*
X17300000Y39062500D03*
X17700000Y39062500D03*
X18100000Y39062500D03*
X18500000Y39062500D03*
X18900000Y39062500D03*
X19300000Y39062500D03*
X19700000Y39062500D03*
X20100000Y39062500D03*
X20500000Y39062500D03*
X20900000Y39062500D03*
X21300000Y39062500D03*
X21700000Y39062500D03*
X22100000Y39062500D03*
D47*
X22937500Y39900000D03*
X22937500Y40300000D03*
X22937500Y40700000D03*
X22937500Y41100000D03*
X22937500Y41500000D03*
X22937500Y41900000D03*
X22937500Y42300000D03*
X22937500Y42700000D03*
X22937500Y43100000D03*
X22937500Y43500000D03*
X22937500Y43900000D03*
X22937500Y44300000D03*
X22937500Y44700000D03*
X22937500Y45100000D03*
D48*
X19500000Y42500000D03*
%TD*%
D49*
%TO.C,Y2*%
X12450000Y43300000D03*
X12450000Y45500000D03*
X10750000Y45500000D03*
X10750000Y43300000D03*
%TD*%
D23*
%TO.C,R18*%
X25100000Y27190001D03*
X25100000Y28210001D03*
%TD*%
D24*
%TO.C,Q3*%
X8362500Y27350000D03*
X8362500Y25450000D03*
X10237500Y26400000D03*
%TD*%
D15*
%TO.C,C23*%
X24420000Y40100000D03*
X25380000Y40100000D03*
%TD*%
D23*
%TO.C,R8*%
X12200000Y29390000D03*
X12200000Y30410000D03*
%TD*%
D16*
%TO.C,C15*%
X33200000Y26020000D03*
X33200000Y26980000D03*
%TD*%
%TO.C,C3*%
X19000000Y29320000D03*
X19000000Y30280000D03*
%TD*%
D50*
%TO.C,J7*%
X3500000Y20500000D03*
D51*
X3500000Y18500000D03*
%TD*%
D45*
%TO.C,SW1*%
X2100000Y5850000D03*
X8700000Y5850000D03*
X2100000Y2150000D03*
X8700000Y2150000D03*
%TD*%
D22*
%TO.C,D4*%
X15200000Y14650000D03*
X15200000Y16750000D03*
%TD*%
D33*
%TO.C,D5*%
X13037500Y1700000D03*
X11462500Y1700000D03*
%TD*%
D23*
%TO.C,R28*%
X34400000Y25990000D03*
X34400000Y27010000D03*
%TD*%
D16*
%TO.C,C19*%
X15200000Y47920000D03*
X15200000Y48880000D03*
%TD*%
D52*
%TO.C,U7*%
X34600000Y42095000D03*
X34600000Y43365000D03*
X34600000Y44635000D03*
X34600000Y45905000D03*
X27400000Y45905000D03*
X27400000Y44635000D03*
X27400000Y43365000D03*
X27400000Y42095000D03*
%TD*%
D23*
%TO.C,R12*%
X17000000Y29290000D03*
X17000000Y30310000D03*
%TD*%
%TO.C,R34*%
X32900000Y37090000D03*
X32900000Y38110000D03*
%TD*%
D34*
%TO.C,SW3*%
X28300000Y39400000D03*
X31700000Y39400000D03*
%TD*%
D15*
%TO.C,C29*%
X24420000Y38100000D03*
X25380000Y38100000D03*
%TD*%
D23*
%TO.C,R24*%
X19000000Y21290000D03*
X19000000Y22310000D03*
%TD*%
%TO.C,R2*%
X22800000Y9290000D03*
X22800000Y10310000D03*
%TD*%
D24*
%TO.C,Q8*%
X21462500Y26650000D03*
X21462500Y24750000D03*
X23337500Y25700000D03*
%TD*%
D16*
%TO.C,C5*%
X13300000Y32920000D03*
X13300000Y33880000D03*
%TD*%
D13*
%TO.C,C13*%
X33900000Y20880000D03*
X33900000Y19920000D03*
%TD*%
D19*
%TO.C,J5*%
X16190000Y54200000D03*
D20*
X18730000Y54200000D03*
X21270000Y54200000D03*
X23810000Y54200000D03*
%TD*%
D14*
%TO.C,C11*%
X29300000Y21850000D03*
X29300000Y23750000D03*
%TD*%
D53*
%TO.C,U5*%
X28825000Y32605000D03*
X28825000Y31335000D03*
X28825000Y30065000D03*
X28825000Y28795000D03*
X33775000Y28795000D03*
X33775000Y30065000D03*
X33775000Y31335000D03*
X33775000Y32605000D03*
%TD*%
D23*
%TO.C,R9*%
X13300000Y29390000D03*
X13300000Y30410000D03*
%TD*%
D25*
%TO.C,FID3*%
X1600000Y9500000D03*
%TD*%
D16*
%TO.C,C17*%
X9000000Y44920000D03*
X9000000Y45880000D03*
%TD*%
D23*
%TO.C,R14*%
X12200000Y25890000D03*
X12200000Y26910000D03*
%TD*%
%TO.C,R29*%
X35400000Y25990000D03*
X35400000Y27010000D03*
%TD*%
D54*
%TO.C,C2*%
X13350000Y14775000D03*
X13350000Y13225000D03*
%TD*%
D23*
%TO.C,R17*%
X25100000Y30090000D03*
X25100000Y31110000D03*
%TD*%
D55*
%TO.C,L1*%
X26400000Y18400000D03*
X26400000Y20800000D03*
%TD*%
D16*
%TO.C,C20*%
X9300000Y38120000D03*
X9300000Y39080000D03*
%TD*%
D24*
%TO.C,Q4*%
X15462499Y27350000D03*
X15462499Y25450000D03*
X17337499Y26400000D03*
%TD*%
D23*
%TO.C,R32*%
X18900000Y13590000D03*
X18900000Y14610000D03*
%TD*%
D19*
%TO.C,J4*%
X11110000Y58000000D03*
D20*
X13650000Y58000000D03*
X16190000Y58000000D03*
X18730000Y58000000D03*
X21270000Y58000000D03*
X23810000Y58000000D03*
X26350000Y58000000D03*
X28890000Y58000000D03*
%TD*%
D15*
%TO.C,C24*%
X24420000Y39100000D03*
X25380000Y39100000D03*
%TD*%
D23*
%TO.C,R38*%
X28900000Y54090000D03*
X28900000Y55110000D03*
%TD*%
D56*
%TO.C,U1*%
X18612500Y12150000D03*
X18612500Y11200000D03*
X18612500Y10250000D03*
X20887500Y10250000D03*
X20887500Y11200000D03*
X20887500Y12150000D03*
%TD*%
D57*
%TO.C,J8*%
X34000000Y50900000D03*
X34000000Y51900000D03*
X34000000Y52900000D03*
X34000000Y53900000D03*
D58*
X37875000Y49600000D03*
X37875000Y55200000D03*
%TD*%
D21*
%TO.C,R21*%
X21090000Y19000000D03*
X22110000Y19000000D03*
%TD*%
D59*
%TO.C,U4*%
X29287500Y20600000D03*
X29287500Y20100000D03*
X29287500Y19600000D03*
X29287500Y19100000D03*
X29287500Y18600000D03*
X31712500Y18600000D03*
X31712500Y19100000D03*
X31712500Y19600000D03*
X31712500Y20100000D03*
X31712500Y20600000D03*
D60*
X30500000Y19600000D03*
%TD*%
D23*
%TO.C,R20*%
X25100000Y24490000D03*
X25100000Y25510000D03*
%TD*%
D24*
%TO.C,Q5*%
X21262500Y34150000D03*
X21262500Y32250000D03*
X23137500Y33200000D03*
%TD*%
%TO.C,Q9*%
X11362500Y7750000D03*
X11362500Y5850000D03*
X13237500Y6800000D03*
%TD*%
D33*
%TO.C,D1*%
X13037500Y3300000D03*
X11462500Y3300000D03*
%TD*%
D44*
%TO.C,C32*%
X11550000Y22700000D03*
X13450000Y22700000D03*
%TD*%
D21*
%TO.C,R23*%
X27890000Y9500000D03*
X28910000Y9500000D03*
%TD*%
D25*
%TO.C,FID2*%
X38400000Y57800000D03*
%TD*%
D22*
%TO.C,D2*%
X24900000Y11950000D03*
X24900000Y14050000D03*
%TD*%
D16*
%TO.C,C7*%
X26200000Y33220000D03*
X26200000Y34180000D03*
%TD*%
D13*
%TO.C,C21*%
X18500000Y37680000D03*
X18500000Y36720000D03*
%TD*%
D17*
%TO.C,JP2*%
X31000000Y12350000D03*
D18*
X31000000Y13650000D03*
%TD*%
D23*
%TO.C,R6*%
X15400000Y10090000D03*
X15400000Y11110000D03*
%TD*%
D16*
%TO.C,C25*%
X25400000Y36120000D03*
X25400000Y37080000D03*
%TD*%
D23*
%TO.C,R13*%
X18000000Y29290000D03*
X18000000Y30310000D03*
%TD*%
D21*
%TO.C,R30*%
X8090000Y9000000D03*
X9110000Y9000000D03*
%TD*%
D56*
%TO.C,U3*%
X15762500Y34150000D03*
X15762500Y33200000D03*
X15762500Y32250000D03*
X18037500Y32250000D03*
X18037500Y33200000D03*
X18037500Y34150000D03*
%TD*%
D32*
%TO.C,R31*%
X14810000Y46100000D03*
X13790000Y46100000D03*
%TD*%
D61*
%TO.C,U2*%
X9550000Y14750000D03*
X9550000Y14250000D03*
X9550000Y13750000D03*
X9550000Y13250000D03*
X11450000Y13250000D03*
X11450000Y13750000D03*
X11450000Y14250000D03*
X11450000Y14750000D03*
D62*
X10500000Y14000000D03*
%TD*%
D23*
%TO.C,R22*%
X26400000Y12490000D03*
X26400000Y13510000D03*
%TD*%
%LPD*%
M02*
