<?xml version="1.0" encoding="UTF-8"?>
<svg id="Layer_2" xmlns="http://www.w3.org/2000/svg" viewBox="0 0 681.87 419.24">
  <defs>
    <style>
      .cls-1 {
        stroke: #ff1609;
        stroke-miterlimit: 10;
        stroke-width: 16px;
      }

      .cls-2 {
        letter-spacing: -.01em;
      }

      .cls-3 {
        font-family: KozGoPr6N-Regular-90ms-RKSJ-H, 'Kozuka Gothic Pr6N';
        font-size: 44px;
      }

      .cls-3, .cls-4 {
        fill: #ff1609;
      }

      .cls-5 {
        letter-spacing: -.03em;
      }

      .cls-6 {
        letter-spacing: -.26em;
      }

      .cls-7 {
        letter-spacing: -.31em;
      }

      .cls-8 {
        letter-spacing: -.07em;
      }
    </style>
  </defs>
  <g id="Layer_1-2" data-name="Layer_1">
    <g>
      <g>
        <rect class="cls-4" y="285.74" width="680" height="29"/>
        <line class="cls-1" x1="412.9" y1="144.99" x2="363.93" y2="242.53"/>
        <g>
          <path class="cls-4" d="M140.19,168.81c0,18.2-7.44,25-49.31,25v73c0,6.2-1.17,8.6,7.83,10.8v1.2h-49.7v-1.2c9.39-2.4,8.22-4.4,8.22-10.8V123.01c0-6.4,1.17-8.4-8.22-10.8v-1.2h52.83c34.44,0,38.35,13.4,38.35,18.6v39.2ZM108.1,173.41v-41c0-9-2.74-10-17.22-10v59.2c16.44,0,17.22-3.2,17.22-8.2Z"/>
          <path class="cls-4" d="M292.07,278.81s-17.61-42.8-23.87-70.6c-5.09-22.8-9-59.2-9-59.2h-1.96s3.52,37.2,3.91,60.8c.39,22,0,57,0,57,0,6.2-1.17,8.6,8.22,10.8v1.2h-39.53v-1.2c9.39-2.4,7.83-4.4,7.83-10.8V123.01c0-6.4,1.57-8.4-7.83-10.8v-1.2h39.53s12.92,39,17.61,64c4.31,22,9.39,57,9.39,57h1.57c-1.17-22.2-3.91-35-4.7-57-.39-20,0-52,0-52,0-6.4,1.17-8.4-7.83-10.8v-1.2h39.14v1.2c-9,2.4-7.83,4.4-7.83,10.8v155.8h-24.66Z"/>
          <path class="cls-4" d="M387.17,109.61c1.57,0,41.09,0,41.09,23v125.2c0,22.8-39.53,22.8-41.09,22.8s-41.88.2-41.88-22.6v-125.6c0-23,40.31-22.8,41.88-22.8ZM387.17,119.81c-5.48,0-9.39,2-9.39,4.6v141.4c0,2.6,3.91,4.6,9.39,4.6,4.7,0,9-2.2,9-5V124.81c0-2.6-4.31-5-9-5Z"/>
          <path class="cls-4" d="M486.97,111.01v1.2c-6.65,1.6-8.22,2.8-7.83,10,0,0,6.26,68.8,9.39,109.6h.78c3.91-40.4,9.79-109.6,9.79-109.6.78-5.6,0-8.2-7.04-10v-1.2h42.66s0-.6,0,1.2c-7.44,1-10.57,3.4-11.35,10.4l-24.66,156.2h-28.18l-23.09-155.8c-1.17-5.4-2.74-10.2-10.57-10.8,0,0,0,.8,0-1.2h50.1Z"/>
          <path class="cls-4" d="M566.81,277.61v1.2h-41.09v-1.2c10.57-1.6,10.18-10.2,10.18-10.8l20.74-155.8h32.09l24.26,154.8c1.57,8.2,5.48,10.6,12.92,11.8v1.2h-52.05v-1.2c7.83-2,9.39-3.6,8.22-10.8l-4.7-22.6h-15.26l-2.74,21.6c-1.17,6-1.96,9.6,7.44,11.8ZM564.85,233.41h10.18l-3.52-86.4c0-1.4-2.74-1.4-2.74,0l-3.91,86.4Z"/>
        </g>
      </g>
      <g>
        <path class="cls-4" d="M241.24,73.19c-.64-.34-1.33-.62-2.17-.77-1.78-.02-3.55-.07-5.33-.08-6.24.42-12.49.74-18.73,1.03-1.33.07-2.65.13-3.98.18l-11.55.34s-.02,0-.03,0l-6.01-3.93-1.1-9.61.06-13.18c.26-2.04.2-4.38,0-6.45-.2-2.02.06-23.55.45-25.8,2.25-12.9,5.37-9.49-3.15-12.9-1.02-.41-3.76-1.99-5.13-2.02-1.37.02-4.1,1.61-5.13,2.02-8.52,3.41-5.41,0-3.15,12.9.39,2.25.66,23.78.45,25.8-.2,2.07-.26,4.41,0,6.45l.06,13.18-1.1,9.61-6.01,3.93s-.02,0-.03,0l-11.55-.34c-1.33-.05-2.65-.11-3.98-.18-6.24-.29-12.49-.61-18.73-1.03-1.78.02-3.55.06-5.33.08-.83.15-1.53.44-2.17.77.41.7.82,1.39,1.16,2.15-2.08-4.63.63.63,1.41,1.89,1.1,1.79,2.06,3.65,2.91,5.55,3.95,2.16,7.56,5.24,10.18,8.7,1.2-.4,2.43-.69,3.68-.91l11.58.9s.05.02.08.02l5.2,194.62c.02,14.23.01,28.46.05,42.69.02,6.43.63,12.9,1.61,19.3.01.12.03.23.05.35.64,3.54,1.38,7.08,2.13,10.62l3.69,18.41c1.93,8.77,3.97,17.52,6.04,26.26,1.18,4.97,2.83,9.48,5.99,14.48l.85,1,.98-1c3.02-5,4.81-9.51,5.99-14.48,2.07-8.74,4.11-17.5,6.04-26.26l3.69-18.41c.75-3.54,1.49-7.08,2.13-10.62.02-.12.04-.23.05-.35.98-6.4,1.59-12.88,1.61-19.3.04-14.23.03-28.46.05-42.69l5.2-194.62s.05-.02.08-.02l11.58-.9c1.25.22,2.49.51,3.68.91,2.63-3.46,6.24-6.54,10.18-8.7.85-1.9,1.81-3.77,2.91-5.55.78-1.26,3.48-6.53,1.41-1.89.34-.76.75-1.45,1.16-2.15Z"/>
        <path class="cls-4" d="M215.01,73.36c6.24-.29,12.49-.61,18.73-1.03"/>
        <path class="cls-4" d="M135.39,72.33c6.24.42,12.49.74,18.73,1.03"/>
      </g>
    </g>
    <text class="cls-3" transform="translate(323.86 360.87) scale(1.29 1)"><tspan class="cls-5" x="0" y="0">ピ</tspan><tspan class="cls-6" x="42.68" y="0">ー</tspan><tspan class="cls-7" x="75.24" y="0">・</tspan><tspan class="cls-8" x="105.6" y="0">ノ</tspan><tspan class="cls-2" x="146.52" y="0">ーバー</tspan></text>
  </g>
</svg>